<svg width="500" height="500" viewBox="0 0 500 500" fill="none" xmlns="http://www.w3.org/2000/svg">
<path d="M160.245 42.455C203.673 41.791 251.95 41.807 295.407 42.455C251.941 43.104 203.682 43.12 160.245 42.455Z" fill="#EBEBEB"/>
<path d="M144.941 60.77C189.686 60.106 239.428 60.122 284.205 60.77C239.419 61.418 189.696 61.435 144.941 60.77Z" fill="#EBEBEB"/>
<path d="M174.237 42.455C174.922 48.556 174.927 54.669 174.237 60.77C173.547 54.669 173.552 48.557 174.237 42.455Z" fill="#EBEBEB"/>
<path d="M242.408 42.455C243.093 48.556 243.098 54.669 242.408 60.77C241.718 54.669 241.723 48.557 242.408 42.455Z" fill="#EBEBEB"/>
<path d="M208.322 60.6931C209.007 66.7941 209.012 72.9071 208.322 79.0081C207.632 72.9061 207.638 66.7941 208.322 60.6931Z" fill="#EBEBEB"/>
<path d="M207.499 317.05C250.927 316.386 299.204 316.402 342.661 317.05C299.195 317.698 250.936 317.714 207.499 317.05Z" fill="#EBEBEB"/>
<path d="M175.091 335.365C219.836 334.701 269.578 334.717 314.355 335.365C269.569 336.013 219.846 336.029 175.091 335.365Z" fill="#EBEBEB"/>
<path d="M337.245 298.861C365.156 298.203 396.04 298.203 423.958 298.861C396.038 299.519 365.159 299.519 337.245 298.861Z" fill="#EBEBEB"/>
<path d="M367.933 317.05C395.844 316.392 426.728 316.392 454.646 317.05C426.725 317.708 395.847 317.708 367.933 317.05Z" fill="#EBEBEB"/>
<path d="M242.438 317.05C243.123 323.151 243.128 329.264 242.438 335.365C241.747 329.263 241.753 323.151 242.438 317.05Z" fill="#EBEBEB"/>
<path d="M310.639 317.05C311.324 323.151 311.329 329.264 310.639 335.365C309.948 329.263 309.954 323.151 310.639 317.05Z" fill="#EBEBEB"/>
<path d="M378.839 317.05C379.524 323.151 379.529 329.264 378.839 335.365C378.149 329.263 378.155 323.151 378.839 317.05Z" fill="#EBEBEB"/>
<path d="M447.04 317.05C447.725 323.151 447.73 329.264 447.04 335.365C446.35 329.263 446.356 323.151 447.04 317.05Z" fill="#EBEBEB"/>
<path d="M208.322 335.287C209.007 341.389 209.012 347.501 208.322 353.602C207.632 347.501 207.638 341.389 208.322 335.287Z" fill="#EBEBEB"/>
<path d="M276.634 335.287C277.319 341.389 277.324 347.501 276.634 353.602C275.944 347.501 275.949 341.389 276.634 335.287Z" fill="#EBEBEB"/>
<path d="M413.257 298.351C413.942 304.452 413.947 310.565 413.257 316.666C412.567 310.565 412.573 304.453 413.257 298.351Z" fill="#EBEBEB"/>
<path d="M213.252 169.753C257.997 169.089 307.739 169.105 352.516 169.753C307.731 170.401 258.008 170.417 213.252 169.753Z" fill="#EBEBEB"/>
<path d="M261.466 188.067C291.535 187.403 324.97 187.419 355.059 188.067C324.964 188.716 291.542 188.732 261.466 188.067Z" fill="#EBEBEB"/>
<path d="M310.72 151.438C311.405 157.54 311.41 163.652 310.72 169.753C310.029 163.651 310.035 157.539 310.72 151.438Z" fill="#EBEBEB"/>
<path d="M276.634 169.753C277.319 175.855 277.324 181.967 276.634 188.068C275.944 181.966 275.949 175.854 276.634 169.753Z" fill="#EBEBEB"/>
<path d="M344.805 169.753C345.49 175.855 345.495 181.967 344.805 188.068C344.115 181.966 344.12 175.854 344.805 169.753Z" fill="#EBEBEB"/>
<path d="M192.218 241.076C211.482 240.404 230.88 240.404 250.149 241.076C230.879 241.748 211.483 241.748 192.218 241.076Z" fill="#EBEBEB"/>
<path d="M178.669 259.391C208.738 258.727 242.173 258.743 272.262 259.391C242.167 260.039 208.744 260.055 178.669 259.391Z" fill="#EBEBEB"/>
<path d="M208.352 222.761C209.037 228.862 209.042 234.975 208.352 241.076C207.662 234.975 207.668 228.863 208.352 222.761Z" fill="#EBEBEB"/>
<path d="M242.438 241.076C243.123 247.178 243.128 253.29 242.438 259.391C241.747 253.29 241.753 247.177 242.438 241.076Z" fill="#EBEBEB"/>
<path d="M57.417 42.455V270.024H182.587V42.455H57.417ZM176.911 264.347H63.095V48.132H176.911V264.347Z" fill="#EBEBEB"/>
<path d="M176.911 48.132H63.0952V264.346H176.911V48.132Z" fill="white"/>
<path d="M63.0887 163.629H176.907V157.954H63.0887V163.629Z" fill="#EBEBEB"/>
<path d="M46.9622 286.311H193.035V270.022H46.9622V286.311Z" fill="#DBDBDB"/>
<path d="M63.0889 48.126H176.907V193.908H63.0889V48.126ZM171.65 53.382H68.3449V188.652H171.65V53.382Z" fill="#DBDBDB"/>
<path d="M140.987 48.126H138.15V188.652H140.987V48.126Z" fill="#DBDBDB"/>
<path d="M101.845 48.126H99.0078V188.652H101.845V48.126Z" fill="#DBDBDB"/>
<path d="M317.422 42.455V270.024H442.592V42.455H317.422ZM436.915 264.347H323.099V48.132H436.915V264.347Z" fill="#EBEBEB"/>
<path d="M436.915 48.132H323.099V264.346H436.915V48.132Z" fill="white"/>
<path d="M323.093 163.629H436.911V157.954H323.093V163.629Z" fill="#EBEBEB"/>
<path d="M306.965 286.311H453.038V270.022H306.965V286.311Z" fill="#DBDBDB"/>
<path d="M323.093 48.126H436.911V193.908H323.093V48.126ZM431.655 53.382H328.349V188.652H431.654V53.382H431.655Z" fill="#DBDBDB"/>
<path d="M400.991 48.126H398.154V188.652H400.991V48.126Z" fill="#DBDBDB"/>
<path d="M361.85 48.126H359.013V188.652H361.85V48.126Z" fill="#DBDBDB"/>
<path d="M156.58 459.461C156.58 462.267 139.956 464.541 119.449 464.541C98.9419 464.541 82.3179 462.266 82.3179 459.461C82.3179 456.655 98.9419 454.381 119.449 454.381C139.956 454.381 156.58 456.655 156.58 459.461Z" fill="#EBEBEB"/>
<path d="M221.183 459.461C221.183 462.267 209.063 464.541 194.113 464.541C179.163 464.541 167.043 462.266 167.043 459.461C167.043 456.655 179.163 454.381 194.113 454.381C209.064 454.381 221.183 456.655 221.183 459.461Z" fill="#EBEBEB"/>
<path d="M293.571 472.767C293.571 475.573 281.451 477.847 266.501 477.847C251.551 477.847 239.431 475.573 239.431 472.767C239.431 469.961 251.551 467.687 266.501 467.687C281.452 467.687 293.571 469.961 293.571 472.767Z" fill="#EBEBEB"/>
<path d="M372.841 465.182C413.488 465.182 446.439 459.085 446.439 451.565C446.439 444.045 413.488 437.948 372.841 437.948C332.194 437.948 299.243 444.045 299.243 451.565C299.243 459.085 332.194 465.182 372.841 465.182Z" fill="#EBEBEB"/>
<path d="M43.8789 425.782C175.933 425.17 324.068 425.165 456.121 425.782C324.067 426.399 175.932 426.394 43.8789 425.782Z" fill="#263238"/>
<path d="M427.785 413.385C439.035 363.526 441.398 312.569 424.412 271.305C437.561 315.68 436.178 365.766 427.785 413.385Z" fill="#455A64"/>
<path d="M420.523 272.276C419.187 266.088 409.556 259.455 410.744 257.398C413.168 253.218 420.89 258.5 424.212 261.979C422.544 257.739 419.039 249.846 422.597 247.523C426.941 244.686 430.89 257.461 430.771 265.501C430.621 275.631 425.817 279.137 424.068 278.782C421.67 278.294 420.744 273.297 420.523 272.276Z" fill="#FFC727"/>
<path d="M417.786 270.966C412.508 267.471 400.983 269.45 400.396 267.148C399.211 262.463 408.426 260.85 413.235 261.02C409.08 259.151 401.059 255.949 401.983 251.802C403.111 246.738 414.859 253.122 420.39 258.959C427.358 266.313 426.369 272.178 424.869 273.145C422.81 274.472 418.657 271.543 417.786 270.966Z" fill="#FFC727"/>
<path d="M419.843 274.476C415.876 272.332 402.833 276.481 401.285 272.999C399.619 269.255 408.404 265.267 413.972 264.64C410.533 264.158 407.062 264.818 403.742 263.638C401.738 262.911 400.723 261.418 401.377 259.331C403.403 252.842 412.061 254.493 417.052 257.25C415.637 254.197 411.436 245.691 416.363 245.598C421.345 245.525 425.599 256.661 426.974 260.315C428.995 265.684 430.855 273.029 428.175 278.011C425.069 283.84 422.139 277.421 419.843 274.476Z" fill="#FFC727"/>
<path opacity="0.1" d="M419.843 274.476C415.876 272.332 402.833 276.481 401.285 272.999C399.619 269.255 408.404 265.267 413.972 264.64C410.533 264.158 407.062 264.818 403.742 263.638C401.738 262.911 400.723 261.418 401.377 259.331C403.403 252.842 412.061 254.493 417.052 257.25C415.637 254.197 411.436 245.691 416.363 245.598C421.345 245.525 425.599 256.661 426.974 260.315C428.995 265.684 430.855 273.029 428.175 278.011C425.069 283.84 422.139 277.421 419.843 274.476Z" fill="black"/>
<path d="M420.408 276.094C416.756 270.923 405.297 268.59 405.585 266.233C406.179 261.437 415.352 263.274 419.772 265.175C416.577 261.927 410.262 256.036 412.626 252.506C415.513 248.195 424.148 258.403 427.187 265.848C431.015 275.228 427.968 280.335 426.219 280.693C423.82 281.183 421.011 276.947 420.408 276.094Z" fill="#FFC727"/>
<path d="M428.842 284.601C429.833 284.086 428.759 279.97 428.898 278.554C429.037 277.138 429.915 273.993 429.569 273.581C429.223 273.17 427.978 276.097 426.781 276.416C425.584 276.735 419.761 275.13 419.332 275.503C418.903 275.875 422.076 279.053 423.874 280.222C425.672 281.389 427.611 285.241 428.842 284.601Z" fill="#455A64"/>
<path d="M435.225 327.04C435.225 327.04 439.058 292.681 451.961 266C451.961 266 455.794 286.892 451.961 293.311C448.128 299.73 445.062 303.191 445.126 305.393C445.19 307.595 446.212 314.455 444.04 318.419C441.868 322.384 435.225 327.04 435.225 327.04Z" fill="#455A64"/>
<path d="M434.996 359.654C434.996 359.654 421.224 309.817 402.015 282.679C402.015 282.679 402.666 303.338 405.594 312.067C408.522 320.796 417.886 327.502 418.77 330.361C419.654 333.22 418.87 339.127 421.626 344.882C424.381 350.638 434.996 359.654 434.996 359.654Z" fill="#455A64"/>
<path opacity="0.8" d="M410.584 377.255C410.584 390.569 410.584 425.782 410.584 425.782H456.121C456.121 425.782 456.121 390.569 456.121 377.255C456.121 363.941 445.38 359.328 445.38 359.328V350.477H421.325V359.328C421.325 359.328 410.584 363.942 410.584 377.255Z" fill="#EBEBEB"/>
<path opacity="0.8" d="M445.38 359.33V350.48H421.32V359.33C421.32 359.33 410.58 363.94 410.58 377.26C410.58 390.57 410.58 425.78 410.58 425.78H456.12C456.12 425.78 456.12 390.57 456.12 377.26C456.12 363.94 445.38 359.33 445.38 359.33ZM452.69 422.22H414.02V377.74C414.02 368.56 421.46 361.11 430.64 361.11H436.06C445.24 361.11 452.69 368.56 452.69 377.74V422.22Z" fill="#DBDBDB"/>
<path d="M442.107 359.403C436.274 358.745 430.43 358.74 424.597 359.403C430.43 360.066 436.274 360.061 442.107 359.403Z" fill="#A6A6A6"/>
<path opacity="0.8" d="M419.686 425.782H416.686V378.005C416.686 368.228 424.044 363.812 426.783 362.508V350.478H429.783V364.561L428.773 364.911C428.406 365.04 419.686 368.224 419.686 378.006V425.782Z" fill="white"/>
<path d="M250 135.31C275.641 135.31 296.427 114.524 296.427 88.883C296.427 63.2421 275.641 42.456 250 42.456C224.359 42.456 203.573 63.2421 203.573 88.883C203.573 114.524 224.359 135.31 250 135.31Z" fill="#FFC727"/>
<path opacity="0.1" d="M252.127 134.218C276.594 134.218 296.428 114.384 296.428 89.917C296.428 65.4502 276.594 45.616 252.127 45.616C227.66 45.616 207.826 65.4502 207.826 89.917C207.826 114.384 227.66 134.218 252.127 134.218Z" fill="black"/>
<path d="M293.48 93.324C295.358 70.4799 278.361 50.4393 255.518 48.562C232.674 46.6848 212.634 63.6817 210.757 86.5258C208.879 109.37 225.876 129.411 248.719 131.288C271.563 133.165 291.603 116.168 293.48 93.324Z" fill="white"/>
<path opacity="0.5" d="M292.689 81.108C273.79 92.559 242.728 111.344 225.366 121.642C220.496 117.531 216.588 112.322 214.025 106.393L271.444 53.177C282.137 58.806 290.068 68.971 292.689 81.108Z" fill="#EBEBEB"/>
<path opacity="0.5" d="M293.6 91.365C293.442 96.106 292.483 100.645 290.857 104.852L239.093 129.333C236.822 128.581 234.636 127.641 232.556 126.524C248.192 117.487 276.765 101.047 293.6 91.365Z" fill="#EBEBEB"/>
<path d="M252.527 51.426H251.725V57.717H252.527V51.426Z" fill="#263238"/>
<path d="M233.221 56.3726L232.526 56.7741L235.671 62.2221L236.367 61.8206L233.221 56.3726Z" fill="#263238"/>
<path d="M218.983 70.3196L218.582 71.0141L224.03 74.1596L224.431 73.4651L218.983 70.3196Z" fill="#263238"/>
<path d="M219.926 89.516H213.636V90.318H219.926V89.516Z" fill="#263238"/>
<path d="M224.034 105.665L218.586 108.811L218.987 109.505L224.435 106.36L224.034 105.665Z" fill="#263238"/>
<path d="M235.682 117.595L232.54 123.046L233.236 123.447L236.377 117.996L235.682 117.595Z" fill="#263238"/>
<path d="M252.527 122.117H251.725V128.408H252.527V122.117Z" fill="#263238"/>
<path d="M268.568 117.603L267.873 118.004L271.018 123.452L271.713 123.051L268.568 117.603Z" fill="#263238"/>
<path d="M280.202 105.665L279.801 106.36L285.249 109.505L285.65 108.811L280.202 105.665Z" fill="#263238"/>
<path d="M290.618 89.516H284.327V90.318H290.618V89.516Z" fill="#263238"/>
<path d="M285.252 70.3186L279.804 73.4641L280.205 74.1586L285.653 71.0131L285.252 70.3186Z" fill="#263238"/>
<path d="M271.014 56.3922L267.871 61.8414L268.567 62.2426L271.71 56.7934L271.014 56.3922Z" fill="#263238"/>
<path d="M252.73 54.275L254.095 92.717L250.157 92.669L251.661 54.262L252.73 54.275Z" fill="#FFC727"/>
<path d="M224.158 89.5499L254.795 87.8589L254.735 91.7959L224.142 90.6189L224.158 89.5499Z" fill="#455A64"/>
<path d="M253.47 89.9169C253.47 90.6589 252.868 91.2609 252.126 91.2609C251.384 91.2609 250.782 90.6589 250.782 89.9169C250.782 89.1749 251.384 88.5729 252.126 88.5729C252.868 88.5729 253.47 89.1739 253.47 89.9169Z" fill="#C7C7C7"/>
<path d="M205.942 144.379C205.942 144.379 201.815 130.174 190.727 127.437C179.639 124.7 175.854 131.082 168.941 129.91C162.028 128.738 148.806 122.005 139.622 126.144C130.438 130.283 128.381 144.454 123.829 147.334C119.277 150.214 108.499 147.18 102.662 156.255C95.8822 166.796 100.676 176.124 98.3002 181.953C94.3462 191.653 84.7222 197.311 86.2022 210.744C87.7942 225.199 98.7602 228.645 104.484 235.125C109.977 241.343 106.868 254.974 121.923 261.091C136.978 267.208 144.316 258.877 154.502 258.456C164.689 258.035 175.561 268.457 187.398 265.24C199.235 262.023 199.394 251.653 203.741 247.655C208.089 243.657 215.885 246.115 221.842 238.511C227.8 230.907 222.808 220.519 223.37 216.929C224.33 210.79 229.376 208.999 230.808 200.278C232.24 191.557 224.181 182.37 223.057 179.176C220.359 171.504 229.416 160.474 223.593 152.331C216.199 141.991 205.942 144.379 205.942 144.379Z" fill="#263238"/>
<path d="M133.19 131.781C130.594 136.318 128.73 142.105 123.704 144.534C120.811 146.037 117.381 145.969 114.287 146.681C105.568 148.217 98.5533 153.559 97.0623 162.592C96.2853 166.785 97.0123 171.018 97.4993 175.233C97.9563 178.416 97.7373 182.071 95.4123 184.624C89.6773 191.987 83.7073 200.988 86.2013 210.742C83.0623 200.096 89.7663 191.015 95.6353 182.829C97.0853 180.63 96.8743 177.927 96.5973 175.332C96.0783 171.138 95.3023 166.771 96.0803 162.42C98.6343 149.497 108.806 146.112 120.499 145.013C127.269 143.92 130.024 137.028 133.19 131.781Z" fill="#263238"/>
<path d="M178.241 265.386C190.127 267.412 196.375 266.832 201.934 255.105C202.891 253.324 203.761 251.369 205.179 249.825C206.145 248.923 207.419 248.495 208.602 248.076C213.161 246.627 218.043 245.448 221.186 241.682C223.041 239.204 224.597 236.211 225.087 233.108C225.732 228.292 224.297 223.504 223.415 218.786C224.606 223.475 226.25 228.275 225.713 233.195C225.259 236.497 223.837 239.55 221.855 242.231C218.68 246.167 213.454 247.559 208.92 249.023C207.828 249.401 206.715 249.754 205.868 250.503C204.53 251.952 203.707 253.768 202.74 255.528C197.045 267.335 190.175 268.217 178.241 265.386Z" fill="#263238"/>
<path d="M38.6333 425.477L199.707 425.555L189.971 364.904C189.971 364.904 203.902 347.974 201.266 329.608C198.377 309.483 162.141 258.485 159.091 255.611C146.83 244.086 133.931 240.999 122.248 247.038C82.0543 267.817 38.6333 425.477 38.6333 425.477Z" fill="#455A64"/>
<path d="M164.964 358.033C157.782 358.772 150.575 359.759 143.571 361.555C140.087 362.449 136.668 363.498 133.252 364.624C131.549 365.186 129.84 365.688 128.118 366.183C126.351 366.691 124.454 367.164 122.607 367.223C122.441 367.228 122.445 367.477 122.611 367.481C124.408 367.53 126.127 367.573 127.92 367.383C129.622 367.202 131.317 366.838 132.979 366.427C136.522 365.555 140.022 364.517 143.555 363.608C150.683 361.773 157.809 359.942 165.054 358.626C165.387 358.567 165.304 357.997 164.964 358.033Z" fill="#263238"/>
<path d="M182.772 364.424C176.866 363.821 170.84 363.492 164.901 363.563C161.913 363.599 158.951 363.808 155.978 364.096C154.559 364.234 153.141 364.397 151.727 364.577C150.171 364.775 148.638 365.184 147.081 365.359C146.919 365.377 146.918 365.631 147.085 365.617C148.56 365.495 150.061 365.618 151.541 365.583C153.027 365.548 154.513 365.501 156 365.464C158.977 365.392 161.952 365.352 164.929 365.251C170.887 365.049 176.82 364.908 182.781 364.913C183.103 364.915 183.078 364.455 182.772 364.424Z" fill="#263238"/>
<path d="M101.799 265.358C63.6432 318.048 21.7482 414.871 35.3062 432.79C50.4072 452.749 104.886 386.279 102.443 383.37C100.368 380.899 115.036 318.722 125.326 273.596C135.606 228.513 111.235 252.329 101.799 265.358Z" fill="#AD6359"/>
<path d="M54.8794 328.688L120.284 331.551C120.284 331.551 130.1 284.094 129.861 258.514C129.727 244.18 121.377 244.721 111.981 253.621C79.0944 284.772 54.8794 328.688 54.8794 328.688Z" fill="#455A64"/>
<path d="M118.449 321.14C108.423 319.865 81.1283 317.195 63.1643 317.781C63.0563 317.784 63.0213 318.197 63.1283 318.209C78.1463 319.979 108.299 321.353 118.397 321.753C118.588 321.761 118.638 321.165 118.449 321.14Z" fill="#263238"/>
<path d="M112.312 331.203C114.979 331.101 117.643 331.059 120.306 331.061L119.802 331.462C120.758 324.237 121.938 317.057 123.282 309.906C124.639 302.756 126.123 295.63 127.965 288.558C127.248 295.818 126.171 303.023 124.968 310.204C123.752 317.384 122.371 324.536 120.767 331.643L120.668 332.079L120.263 332.044C117.611 331.812 114.96 331.538 112.312 331.203Z" fill="#263238"/>
<path d="M125.603 302.913C125.947 301.363 126.571 299.963 127.235 298.583C127.937 297.213 128.69 295.902 129.638 294.603C129.618 295.402 129.409 296.16 129.177 296.902C128.954 297.65 128.629 298.356 128.293 299.054C127.578 300.432 126.754 301.76 125.603 302.913Z" fill="#263238"/>
<path d="M133.072 252.52C133.103 255.63 142.914 277.957 156.548 280.331C160.99 281.096 166.263 257.009 166.263 257.009L167.059 255.32L178.172 231.664L153.15 206.39L149.483 202.965C149.483 202.965 146.869 209.638 143.697 217.979C143.547 218.365 143.398 218.751 143.245 219.166C143.053 219.633 142.866 220.072 142.708 220.516C142.218 221.755 141.723 223.024 141.256 224.298C140.897 225.266 140.542 226.205 140.203 227.235C139.835 228.26 139.499 229.261 139.132 230.286C135.725 240.465 133.077 251.204 133.072 252.52Z" fill="#AD6359"/>
<path d="M143.697 217.979C146.4 239.38 160.407 250.982 167.059 255.321L178.172 231.665L153.15 206.39L149.483 202.965C149.483 202.965 146.869 209.638 143.697 217.979Z" fill="#263238"/>
<path d="M219.363 200.992C211.75 246.223 183.825 246.794 174.083 245.15C165.239 243.658 135.317 237.452 138.22 191.681C141.123 145.909 164.54 135.133 184.948 137.474C205.357 139.816 226.976 155.761 219.363 200.992Z" fill="#AD6359"/>
<path d="M141.048 194.247C150.506 196.162 155.59 174.64 155.59 174.64C155.59 174.64 172.173 175.087 181.109 165.664C181.109 165.664 174.677 174.102 167.595 176.625C166.405 177.049 199.496 180.731 207.902 156.556C207.902 156.556 207.383 182.088 221.076 190.279C221.73 190.67 222.495 171.094 218.493 162.456C214.491 153.819 212.545 151.258 212.545 151.258C212.545 151.258 200.986 136.532 180.469 135.163C159.952 133.793 142.429 151.912 139.07 160.169C132.464 176.408 136.559 193.338 141.048 194.247Z" fill="#263238"/>
<path d="M168.511 177.381C186.337 180.4 202.825 172.136 208.187 154.395C208.32 153.954 209.009 154.111 208.972 154.562C207.418 173.39 184.731 182.569 168.282 177.659C167.885 177.542 168.093 177.31 168.511 177.381Z" fill="#263238"/>
<path d="M141.303 193.254C151.933 190.393 155.523 181.096 158.349 171.479C158.432 171.195 158.924 171.291 158.866 171.588C156.951 181.204 152.675 192.571 141.475 194.132C140.901 194.213 140.747 193.404 141.303 193.254Z" fill="#263238"/>
<path d="M208.863 152.858C208.901 152.752 209.05 152.792 209.049 152.898C209.018 163.481 205.775 180.655 218.18 185.996C218.505 186.136 218.335 186.63 217.993 186.518C205.63 182.45 205.24 163.033 208.863 152.858Z" fill="#263238"/>
<path d="M213.206 194.64C212.18 194.313 211.287 193.841 210.307 193.412C209.2 192.929 208.269 192.658 207.589 191.597C207.225 191.027 207.452 190.06 207.971 189.654C209.182 188.709 210.685 188.964 212.042 189.491C213.514 190.063 214.502 190.881 215.28 192.251C216.034 193.581 214.559 195.071 213.206 194.64Z" fill="#263238"/>
<path d="M182.544 188.486C183.618 188.569 184.622 188.466 185.692 188.438C186.9 188.407 187.865 188.506 188.893 187.777C189.445 187.387 189.599 186.405 189.269 185.834C188.503 184.503 187.015 184.174 185.56 184.153C183.981 184.13 182.757 184.516 181.52 185.493C180.321 186.44 181.128 188.376 182.544 188.486Z" fill="#263238"/>
<path d="M187.332 199.482C187.33 199.362 187.066 199.581 187.046 199.707C186.564 202.774 185.496 206.206 182.545 206.695C182.454 206.71 182.433 206.865 182.538 206.87C185.994 207.035 187.367 202.465 187.332 199.482Z" fill="#263238"/>
<path d="M185.214 195.781C180.381 194.477 178.129 204.24 182.607 205.448C187.014 206.636 189.265 196.874 185.214 195.781Z" fill="#263238"/>
<path d="M183.178 195.854C182.198 196.21 181.137 196.993 180.086 196.857C178.869 196.701 178.207 195.471 177.657 194.309C177.599 194.188 177.496 194.254 177.464 194.382C177.005 196.246 177.282 198.331 179.223 199.072C180.994 199.749 182.689 198.396 183.59 196.623C183.757 196.296 183.572 195.711 183.178 195.854Z" fill="#263238"/>
<path d="M204.478 203.76C204.529 203.651 204.68 203.959 204.647 204.082C203.83 207.077 203.399 210.646 205.89 212.3C205.968 212.351 205.923 212.501 205.825 212.463C202.605 211.199 203.225 206.468 204.478 203.76Z" fill="#263238"/>
<path d="M207.927 201.252C212.871 202.042 210.925 211.871 206.346 211.139C201.839 210.417 203.783 200.589 207.927 201.252Z" fill="#263238"/>
<path d="M209.848 202.304C210.522 202.979 211.102 204.077 212.018 204.322C213.079 204.605 214.084 203.699 214.973 202.816C215.065 202.725 215.126 202.822 215.104 202.953C214.784 204.842 213.775 206.676 211.9 206.679C210.189 206.682 209.298 204.831 209.221 202.871C209.207 202.508 209.577 202.032 209.848 202.304Z" fill="#263238"/>
<path d="M180.007 223.79C180.443 224.734 180.78 225.933 181.799 226.421C182.776 226.89 184.132 226.884 185.195 226.877C185.3 226.877 185.356 227.009 185.264 227.074C184.087 227.901 182.238 227.995 180.982 227.248C179.756 226.519 179.539 225.137 179.677 223.815C179.697 223.63 179.942 223.652 180.007 223.79Z" fill="#263238"/>
<path d="M192.983 222.586C192.983 222.586 190.21 224.868 187.118 225.171C185.977 225.286 184.813 225.153 183.71 224.544C181.441 223.301 181.936 221.059 182.856 219.263C183.608 217.786 184.671 216.617 184.671 216.617C184.671 216.617 187.389 220.818 192.983 222.586Z" fill="#263238"/>
<path d="M187.118 225.171C185.977 225.286 184.813 225.153 183.71 224.544C181.441 223.301 181.936 221.059 182.856 219.263C185.392 220.179 187.527 222.586 187.118 225.171Z" fill="#FF9BBC"/>
<path d="M195.762 217.008C195.762 217.008 194.974 221.62 194.315 223.706C194.253 223.9 193.719 223.834 192.999 223.651C192.962 223.65 192.939 223.658 192.917 223.627C189.054 223.037 185.749 220.593 184.463 216.881C184.383 216.632 184.716 216.5 184.864 216.69C186.974 219.578 189.846 221.059 193.093 222.146C193.423 221.615 194.177 214.202 194.516 214.281C195.686 214.544 197.686 216.029 198.91 216.851C200.829 207.29 201.2 197.499 203.254 188.008C203.333 187.67 203.837 187.722 203.841 188.046C204.179 198.335 202.212 209.386 200.484 219.31C200.28 220.55 196.484 217.627 195.762 217.008Z" fill="#263238"/>
<path d="M145.755 196.416C145.755 196.416 139.66 180.055 132.483 181.889C125.307 183.723 127.387 205.695 134.052 210.349C140.717 215.002 145.148 208.908 145.148 208.908L145.755 196.416Z" fill="#AD6359"/>
<path d="M133.236 188.172C133.12 188.131 133.054 188.292 133.146 188.359C137.775 191.792 139.256 197.295 139.875 202.766C138.832 200.453 137.01 198.862 133.972 200.033C133.812 200.094 133.887 200.339 134.04 200.346C136.276 200.439 137.709 201.202 138.701 203.269C139.403 204.733 139.702 206.433 140.069 208.009C140.191 208.534 141.09 208.502 141.052 207.924C141.049 207.882 141.044 207.837 141.041 207.794C142.879 201.226 140.144 190.665 133.236 188.172Z" fill="#263238"/>
<path d="M195.342 403.199L224.764 421.434L288.878 317.984L259.456 299.75L195.342 403.199Z" fill="#FFC727"/>
<path opacity="0.2" d="M195.342 403.199L224.764 421.434L288.878 317.984L259.456 299.75L195.342 403.199Z" fill="black"/>
<path d="M259.508 299.754L219.882 275.196L155.768 378.646L195.393 403.204L259.508 299.754Z" fill="#FFC727"/>
<path d="M249.955 270.889L279.375 289.125L288.907 317.99L259.486 299.754L249.955 270.889Z" fill="#FFC727"/>
<path opacity="0.1" d="M249.955 270.889L279.375 289.125L288.907 317.99L259.486 299.754L249.955 270.889Z" fill="black"/>
<path d="M259.485 299.754L249.954 270.889L219.862 275.193L259.485 299.754Z" fill="#FFC727"/>
<path opacity="0.1" d="M249.954 270.889L239.674 287.474L219.862 275.193L249.954 270.889Z" fill="black"/>
<path d="M283.075 283.199L253.649 264.962L249.976 270.889L279.402 289.126L283.075 283.199Z" fill="#FFC727"/>
<path opacity="0.2" d="M283.075 283.199L253.649 264.962L249.976 270.889L279.402 289.126L283.075 283.199Z" fill="black"/>
<path d="M267.495 344.908L230.595 404.44C227.12 403.122 224.187 400.561 222.433 397.181L221.747 395.856L221.362 395.118C219.098 390.751 214.653 387.946 209.74 387.772L209.656 387.77L244.903 330.906L267.495 344.908Z" fill="white"/>
<path d="M240.058 363.945L239.901 363.848C237.026 362.066 236.141 358.292 237.922 355.417L240.578 351.131L240.735 351.228C243.609 353.01 244.495 356.784 242.714 359.659L240.058 363.945Z" fill="#455A64"/>
<path d="M240.42 364.17L240.308 364.101L242.01 361.355C243.281 359.304 245.974 358.673 248.024 359.944L248.136 360.014L246.434 362.759C245.164 364.809 242.471 365.441 240.42 364.17Z" fill="#37474F"/>
<path d="M231.042 380.442L229.295 379.359C224.807 376.577 223.424 370.684 226.206 366.196L226.51 365.706C229.292 361.218 235.185 359.835 239.672 362.617L241.419 363.7C245.907 366.482 247.29 372.375 244.508 376.863L244.204 377.353C241.423 381.841 235.53 383.224 231.042 380.442Z" fill="#FFC727"/>
<path d="M272.631 336.621C271.046 339.179 264.703 338.118 258.464 334.251C252.225 330.384 248.453 325.176 250.039 322.618C251.625 320.06 257.967 321.121 264.206 324.988C270.445 328.855 274.217 334.063 272.631 336.621Z" fill="#FFC727"/>
<path d="M235.078 324.801L207.798 307.894L170.752 367.669L198.032 384.576L235.078 324.801Z" fill="white"/>
<path d="M226.374 329.062L207.471 317.346L206.514 318.891L225.417 330.606L226.374 329.062Z" fill="#DBDBDB"/>
<path d="M222.653 335.066L203.75 323.351L202.793 324.895L221.696 336.611L222.653 335.066Z" fill="#DBDBDB"/>
<path d="M218.93 341.072L200.027 329.356L199.07 330.901L217.973 342.616L218.93 341.072Z" fill="#DBDBDB"/>
<path d="M211.486 353.083L192.583 341.367L191.626 342.912L210.529 354.627L211.486 353.083Z" fill="#DBDBDB"/>
<path d="M203.458 366.036L184.555 354.321L183.597 355.865L202.501 367.581L203.458 366.036Z" fill="#DBDBDB"/>
<path d="M200.321 371.097L181.418 359.382L180.461 360.926L199.364 372.642L200.321 371.097Z" fill="#DBDBDB"/>
<path d="M282.674 295.225L272.485 288.91L268.551 295.258L278.74 301.572L282.674 295.225Z" fill="#FFC727"/>
<path opacity="0.2" d="M282.674 295.225L272.485 288.91L268.551 295.258L278.74 301.572L282.674 295.225Z" fill="black"/>
<path opacity="0.1" d="M282.673 295.224L279.413 293.204L275.479 299.552L278.739 301.572L282.673 295.224Z" fill="black"/>
<path d="M286.774 291.947L273.594 283.778L270.989 287.982L284.169 296.15L286.774 291.947Z" fill="#455A64"/>
<path d="M40.6371 435.694C57.7151 441.197 106.785 423.357 170.609 392.038C179.441 387.704 141.859 328.292 132.189 332.435C120.01 337.653 73.8781 360.544 70.7161 362.645C44.0481 380.362 29.0531 431.962 40.6371 435.694Z" fill="#AD6359"/>
<path d="M116.446 342.834C116.446 342.834 120.151 340.373 137.589 324.203C149.648 313.022 186.168 293.494 227.783 313.599C243.729 321.302 245.287 335.853 227.301 330.793C214.634 327.228 206.16 323.67 201.701 323.665C201.701 323.665 213.476 340.011 209.703 351.057C208.017 355.993 203.099 369.359 197.787 379.219C197.787 379.219 195.329 378.639 192.318 377.461C192.318 377.461 187.11 391.213 170.61 392.037L116.446 342.834Z" fill="#AD6359"/>
<path d="M150.802 315.37C159.417 315.112 177.686 314.869 192.699 319.869C209.375 325.422 240.001 340.615 235.775 352.883C232.676 361.878 220.473 357.105 220.473 357.105C220.473 357.105 231.808 366.053 227.231 373.566C223.06 380.413 213.842 376.155 213.842 376.155C213.842 376.155 219.785 382.765 214.497 388.586C208.137 395.588 196.726 380.586 184.157 382.112C181.333 382.456 150.802 315.37 150.802 315.37Z" fill="#AD6359"/>
<path d="M183.892 336.511C192.034 337.596 209.894 344.806 220.407 356.747C220.645 357.018 220.569 357.343 220.299 357.142C205.931 346.453 190.549 339.309 183.84 336.668C183.75 336.632 183.801 336.498 183.892 336.511Z" fill="#263238"/>
<path d="M178.775 353.507C185.704 355.165 203.78 363.419 214.017 375.885C214.246 376.164 214.147 376.485 213.886 376.273C199.335 364.486 185.253 356.697 178.713 353.661C178.625 353.62 178.686 353.486 178.775 353.507Z" fill="#263238"/>
<path d="M51.3452 386.003C53.0062 382.878 57.7652 373.08 67.1462 365.247C75.3332 358.411 102.676 345.452 109.373 342.984C109.542 342.922 109.659 343.104 109.503 343.202C104.035 346.632 77.8322 359.423 69.0182 366.593C59.8022 374.09 53.3442 383.312 51.5662 386.112C51.4762 386.256 51.2672 386.15 51.3452 386.003Z" fill="#263238"/>
<path opacity="0.6" d="M298.837 437.579H260.785L255.654 345.754H303.969L298.837 437.579Z" fill="#EBEBEB"/>
<path d="M303.971 345.751L298.84 437.577H260.786L255.654 345.751H259.292L264.424 431.188H295.197L300.328 345.751H303.971Z" fill="#EBEBEB"/>
<path opacity="0.6" d="M297.94 385.512L295.197 431.188H264.424L261.68 385.512H297.94Z" fill="#FFC727"/>
<path opacity="0.4" d="M272.626 414.611H266.654L263.272 345.754H269.244L272.626 414.611Z" fill="white"/>
<path d="M75.323 441.284C78.647 446.225 84.465 449.809 90.942 448.586C91.862 448.412 92.784 448.147 93.728 447.764C95.006 447.25 96.292 446.553 97.598 445.624L94.023 440.026C93.317 440.546 92.632 440.948 91.97 441.255C85.445 444.351 81.216 438.762 80.383 437.488C76.53 431.761 75.009 418.773 78.774 413.834C79.023 413.469 80.121 412.898 84.575 413.967C85.398 414.175 86.33 414.408 87.386 414.732C88.556 415.102 89.252 415.311 89.914 415.346L89.983 412.014L90.245 408.692C89.959 408.633 89.508 408.49 88.923 408.305C87.241 407.804 84.975 407.118 82.636 406.832C79.365 406.427 75.943 406.8 73.878 409.531C67.761 417.595 70.497 434.103 75.323 441.284Z" fill="#FFC727"/>
<path opacity="0.1" d="M94.0232 440.026C93.3172 440.546 92.6322 440.948 91.9702 441.255L93.7282 447.765C95.0062 447.251 96.2922 446.554 97.5982 445.625L94.0232 440.026Z" fill="black"/>
<path opacity="0.1" d="M82.6348 406.832L84.5738 413.967C85.3968 414.175 86.3288 414.408 87.3848 414.732C88.5548 415.102 89.2508 415.311 89.9128 415.346L89.9818 412.014L90.2438 408.692C89.9578 408.633 89.5068 408.49 88.9218 408.305C87.2408 407.803 84.9738 407.117 82.6348 406.832Z" fill="black"/>
<path opacity="0.6" d="M119.71 398.701C119.71 398.701 148.509 385.434 148.509 367.65C148.509 349.865 111.16 338.418 111.16 324.517C111.16 310.617 127.448 302.44 127.448 302.44C127.448 302.44 101.721 311.23 101.721 328.81C101.721 346.39 126.342 358.302 128.698 369.489C131.968 385.025 119.71 398.701 119.71 398.701Z" fill="#EBEBEB"/>
<path opacity="0.6" d="M121.133 398.701C121.133 398.701 92.334 388.27 92.334 374.287C92.334 360.304 129.683 351.303 129.683 340.374C129.683 329.445 113.395 323.016 113.395 323.016C113.395 323.016 139.122 329.927 139.122 343.749C139.122 357.571 110.849 367.074 108.827 378.305C106.844 389.318 121.133 398.701 121.133 398.701Z" fill="#EBEBEB"/>
<path d="M152.85 394.986C152.85 394.986 149.848 427.547 144.649 441.264C139.451 454.958 132.19 456.495 127.679 456.496C123.168 456.498 123.58 456.497 119.479 456.499C115.362 456.501 115.791 456.5 111.263 456.502C106.751 456.503 99.4898 454.972 94.2818 441.281C89.0738 427.567 86.0498 395.008 86.0498 395.008L152.85 394.986Z" fill="#FFC727"/>
<g opacity="0.1">
<path d="M149.29 422.031C148.772 425.026 148.205 427.991 147.579 430.787L91.3488 430.806C90.7198 428.01 90.1518 425.046 89.6318 422.051L149.29 422.031Z" fill="black"/>
<path d="M146.807 434.106C146.421 435.657 146.023 437.132 145.601 438.484L93.3301 438.501C92.9071 437.149 92.5081 435.675 92.1211 434.124L146.807 434.106Z" fill="black"/>
<path d="M150.579 413.797C150.374 415.226 150.158 416.685 149.917 418.175L89.0029 418.196C88.7609 416.706 88.5429 415.247 88.3379 413.818L150.579 413.797Z" fill="black"/>
</g>
<path d="M132.026 455.538H106.916V459.457H132.026V455.538Z" fill="#FFC727"/>
<path opacity="0.1" d="M132.026 455.538H106.916V458.123H132.026V455.538Z" fill="black"/>
<path d="M193.934 446.651C217.418 446.651 208.127 409.424 193.934 409.424C179.725 409.424 170.434 446.651 193.934 446.651Z" fill="#FFC727"/>
<path opacity="0.6" d="M193.934 446.651C217.418 446.651 208.127 409.424 193.934 409.424C179.725 409.424 170.434 446.651 193.934 446.651Z" fill="white"/>
<path opacity="0.4" d="M188.003 426.182C196.663 427.675 195.604 413.358 190.37 412.455C185.131 411.552 179.338 424.688 188.003 426.182Z" fill="white"/>
<path opacity="0.1" d="M193.933 446.659C217.414 446.659 208.12 409.424 193.933 409.424C193.162 409.424 192.428 409.537 191.694 409.744C191.957 409.706 192.221 409.688 192.484 409.688C204.883 409.688 213.011 442.219 192.484 442.219C182.211 442.219 179.106 434.091 180.123 425.963C178.147 435.916 181.308 446.659 193.933 446.659Z" fill="black"/>
<path d="M209.346 434.459C209.346 441.49 205.853 450.473 193.923 450.473C181.994 450.473 178.5 441.489 178.5 434.459H209.346Z" fill="#455A64"/>
<path d="M199.586 448.409H188.261V455.972H199.586V448.409Z" fill="#455A64"/>
<path d="M204.926 459.678H182.93L188.261 455.972H199.586L204.926 459.678Z" fill="#455A64"/>
<path d="M278.496 423.146H254.508L254.792 420.839C255.201 417.518 258.022 415.023 261.368 415.023H271.637C274.983 415.023 277.804 417.518 278.213 420.839L278.496 423.146Z" fill="#DBDBDB"/>
<path d="M279.67 425.141H253.344C252.793 425.141 252.346 424.694 252.346 424.144C252.346 423.593 252.793 423.146 253.344 423.146H279.67C280.221 423.146 280.668 423.593 280.668 424.144C280.667 424.694 280.221 425.141 279.67 425.141Z" fill="#C7C7C7"/>
<path d="M279.67 427.136H253.344C252.793 427.136 252.346 426.689 252.346 426.138C252.346 425.587 252.793 425.14 253.344 425.14H279.67C280.221 425.14 280.668 425.587 280.668 426.138C280.667 426.689 280.221 427.136 279.67 427.136Z" fill="#C7C7C7"/>
<path opacity="0.7" d="M279.884 472.767H253.121C250.989 472.767 249.33 470.916 249.561 468.797L254.117 427.137H278.897L283.444 468.798C283.675 470.917 282.016 472.767 279.884 472.767Z" fill="#EBEBEB"/>
<path opacity="0.3" d="M279.881 472.764H253.121C250.991 472.764 249.331 470.914 249.561 468.794L254.121 427.134H256.161L252.351 465.684C252.161 467.454 253.551 469.004 255.331 469.004H277.681C279.461 469.004 280.841 467.454 280.651 465.694L276.851 427.134H278.901L283.441 468.794C283.671 470.914 282.011 472.764 279.881 472.764Z" fill="#EBEBEB"/>
<path d="M279.881 472.764H253.121C250.991 472.764 249.331 470.914 249.561 468.794L254.121 427.134H256.161L252.351 465.684C252.161 467.454 253.551 469.004 255.331 469.004H277.681C279.461 469.004 280.841 467.454 280.651 465.694L276.851 427.134H278.901L283.441 468.794C283.671 470.914 282.011 472.764 279.881 472.764Z" fill="#DBDBDB"/>
<path d="M280.651 465.694C280.841 467.454 279.461 469.004 277.681 469.004H255.331C253.551 469.004 252.161 467.454 252.351 465.684L254.141 447.544H278.861L280.651 465.694Z" fill="white"/>
<path d="M266.501 465.215C265.698 465.215 265.046 464.562 265.046 463.759V431.337C265.046 430.534 265.698 429.881 266.501 429.881C267.304 429.881 267.957 430.534 267.957 431.337V463.759C267.957 464.561 267.304 465.215 266.501 465.215ZM266.501 430.631C266.112 430.631 265.796 430.947 265.796 431.337V463.759C265.796 464.149 266.112 464.465 266.501 464.465C266.891 464.465 267.207 464.149 267.207 463.759V431.337C267.207 430.947 266.891 430.631 266.501 430.631Z" fill="#DBDBDB"/>
<path d="M258.284 465.215C257.881 465.215 257.492 465.045 257.219 464.75C256.945 464.455 256.805 464.056 256.835 463.654L259.251 431.225C259.308 430.471 259.943 429.88 260.7 429.88C261.102 429.88 261.491 430.049 261.764 430.345C262.039 430.64 262.178 431.039 262.148 431.442L259.732 463.871C259.676 464.624 259.04 465.215 258.284 465.215ZM260.7 430.631C260.334 430.631 260.026 430.917 259.999 431.282L257.583 463.711C257.568 463.907 257.634 464.096 257.769 464.24C257.903 464.385 258.086 464.465 258.285 464.465C258.65 464.465 258.958 464.18 258.985 463.815L261.401 431.386C261.416 431.189 261.35 431 261.215 430.856C261.08 430.711 260.897 430.631 260.7 430.631Z" fill="#DBDBDB"/>
<path d="M274.719 465.215C273.963 465.215 273.327 464.624 273.271 463.871L270.855 431.442C270.825 431.04 270.964 430.64 271.239 430.345C271.512 430.049 271.901 429.88 272.303 429.88C273.06 429.88 273.696 430.471 273.752 431.225L276.168 463.654C276.197 464.056 276.058 464.456 275.783 464.751C275.51 465.046 275.121 465.215 274.719 465.215ZM272.303 430.631C272.106 430.631 271.923 430.711 271.788 430.856C271.653 431.001 271.588 431.189 271.602 431.386L274.018 463.815C274.045 464.18 274.353 464.465 274.718 464.465C274.915 464.465 275.099 464.385 275.233 464.24C275.368 464.095 275.434 463.907 275.419 463.71L273.003 431.282C272.977 430.917 272.669 430.631 272.303 430.631Z" fill="#DBDBDB"/>
<path d="M372.841 459.461C414.725 459.461 448.678 451.772 448.678 442.286C448.678 432.801 414.725 425.111 372.841 425.111C330.957 425.111 297.004 432.801 297.004 442.286C297.004 451.772 330.957 459.461 372.841 459.461Z" fill="white"/>
<path d="M297.004 442.286C297.532 436.262 308.085 433.31 312.984 431.714C319.434 429.85 326.049 428.609 332.69 427.655C359.284 424.093 386.402 424.051 413.011 427.531C460.666 434.138 460.947 450.377 413.011 457.042C386.402 460.522 359.285 460.48 332.69 456.918C326.049 455.963 319.435 454.722 312.985 452.858C308.015 451.246 297.547 448.3 297.004 442.286ZM297.004 442.286C297.549 448.303 308.102 451.219 313.001 452.798C319.453 454.641 326.067 455.86 332.707 456.794C359.285 460.271 386.394 460.229 412.957 456.67C459.956 449.891 460.244 434.739 412.957 427.902C386.393 424.343 359.285 424.302 332.707 427.778C326.067 428.712 319.453 429.931 313.001 431.774C308.031 433.37 297.565 436.28 297.004 442.286Z" fill="#263238"/>
<path d="M434.688 441.391C434.165 445.296 424.066 447.053 420.722 447.867C394.408 452.529 367.376 452.666 340.787 450.523C300.552 446.762 300.273 436.061 340.787 432.258C367.376 430.11 394.408 430.253 420.722 434.914C424.186 435.756 434.127 437.483 434.688 441.391ZM434.688 441.391C434.149 437.494 424.051 435.785 420.708 434.986C394.416 430.395 367.378 430.738 340.872 433.11C302.051 437.255 301.746 445.486 340.872 449.674C367.377 452.051 394.417 452.387 420.708 447.797C424.147 446.984 434.145 445.267 434.688 441.391Z" fill="#FFC727"/>
<path d="M423.235 434.814C423.235 442.062 400.241 447.164 369.927 447.164C339.613 447.164 316.619 442.062 316.619 434.814C316.619 427.566 339.613 423.237 369.927 423.237C400.241 423.238 423.235 427.566 423.235 434.814Z" fill="#FFC727"/>
<path opacity="0.6" d="M423.235 434.814C423.235 442.062 400.241 447.164 369.927 447.164C339.613 447.164 316.619 442.062 316.619 434.814C316.619 427.566 339.613 423.237 369.927 423.237C400.241 423.238 423.235 427.566 423.235 434.814Z" fill="white"/>
<path d="M369.927 441.39C398.802 441.39 422.21 437.327 422.21 432.314C422.21 427.301 398.802 423.238 369.927 423.238C341.052 423.238 317.644 427.301 317.644 432.314C317.644 437.327 341.052 441.39 369.927 441.39Z" fill="#FFC727"/>
<path opacity="0.1" d="M369.927 441.39C398.802 441.39 422.21 437.327 422.21 432.314C422.21 427.301 398.802 423.238 369.927 423.238C341.052 423.238 317.644 427.301 317.644 432.314C317.644 437.327 341.052 441.39 369.927 441.39Z" fill="black"/>
<path d="M429.451 426.119C429.451 433.367 406.457 438.469 376.143 438.469C345.829 438.469 322.835 433.367 322.835 426.119C322.835 418.871 345.829 414.543 376.143 414.543C406.456 414.542 429.451 418.871 429.451 426.119Z" fill="#FFC727"/>
<path opacity="0.6" d="M429.451 426.119C429.451 433.367 406.457 438.469 376.143 438.469C345.829 438.469 322.835 433.367 322.835 426.119C322.835 418.871 345.829 414.543 376.143 414.543C406.456 414.542 429.451 418.871 429.451 426.119Z" fill="white"/>
<path d="M376.142 432.695C405.017 432.695 428.425 428.631 428.425 423.619C428.425 418.606 405.017 414.543 376.142 414.543C347.267 414.543 323.859 418.606 323.859 423.619C323.859 428.631 347.267 432.695 376.142 432.695Z" fill="#FFC727"/>
<path opacity="0.1" d="M376.142 432.695C405.017 432.695 428.425 428.631 428.425 423.619C428.425 418.606 405.017 414.543 376.142 414.543C347.267 414.543 323.859 418.606 323.859 423.619C323.859 428.631 347.267 432.695 376.142 432.695Z" fill="black"/>
<path d="M424.242 417.523C424.389 424.77 401.502 430.282 371.194 430.824C340.886 431.366 317.792 426.676 317.645 419.429C317.498 412.182 340.401 407.443 370.709 406.902C401.017 406.36 424.095 410.276 424.242 417.523Z" fill="#FFC727"/>
<path opacity="0.6" d="M424.242 417.523C424.389 424.77 401.502 430.282 371.194 430.824C340.886 431.366 317.792 426.676 317.645 419.429C317.498 412.182 340.401 407.443 370.709 406.902C401.017 406.36 424.095 410.276 424.242 417.523Z" fill="white"/>
<path d="M423.166 415.042C423.284 420.873 399.946 424.535 371.076 425.052C342.206 425.568 318.737 422.743 318.619 416.912C318.501 411.081 341.839 407.419 370.709 406.902C399.578 406.386 423.048 409.211 423.166 415.042Z" fill="#FFC727"/>
<path opacity="0.1" d="M423.166 415.042C423.284 420.873 399.946 424.535 371.076 425.052C342.206 425.568 318.737 422.743 318.619 416.912C318.501 411.081 341.839 407.419 370.709 406.902C399.578 406.386 423.048 409.211 423.166 415.042Z" fill="black"/>
<path d="M429.451 410.888C429.451 418.136 406.457 423.238 376.143 423.238C345.829 423.238 322.835 418.136 322.835 410.888C322.835 403.64 345.829 399.311 376.143 399.311C406.456 399.311 429.451 403.639 429.451 410.888Z" fill="#FFC727"/>
<path opacity="0.6" d="M429.451 410.888C429.451 418.136 406.457 423.238 376.143 423.238C345.829 423.238 322.835 418.136 322.835 410.888C322.835 403.64 345.829 399.311 376.143 399.311C406.456 399.311 429.451 403.639 429.451 410.888Z" fill="white"/>
<path d="M376.142 417.463C405.017 417.463 428.425 413.4 428.425 408.387C428.425 403.374 405.017 399.311 376.142 399.311C347.267 399.311 323.859 403.374 323.859 408.387C323.859 413.4 347.267 417.463 376.142 417.463Z" fill="#FFC727"/>
<path opacity="0.1" d="M376.142 417.463C405.017 417.463 428.425 413.4 428.425 408.387C428.425 403.374 405.017 399.311 376.142 399.311C347.267 399.311 323.859 403.374 323.859 408.387C323.859 413.4 347.267 417.463 376.142 417.463Z" fill="black"/>
<g opacity="0.3">
<path d="M344.221 409.462C339.011 406.367 350.395 402.775 355.33 402.173C360.154 401.585 366.629 404.524 375.008 402.139C380.272 400.64 386.434 400.057 391.131 402.644C395.828 405.23 394.559 407.111 397.225 409.462C399.891 411.813 407.253 412.107 407.191 415.575C407.123 419.351 392.731 417.066 389.1 420.63C383.879 425.754 380.314 423.334 380.314 427.683C380.314 431.092 382.554 437.093 377.167 436.852C371.898 436.617 377.042 423.795 375.706 421.39C374.531 419.274 369.97 421.723 364.724 420.335C359.479 418.947 360.872 413.958 356.218 413.046C351.565 412.136 347.586 411.46 344.221 409.462Z" fill="#FFC727"/>
<path opacity="0.3" d="M344.221 409.462C339.011 406.367 350.395 402.775 355.33 402.173C360.154 401.585 366.629 404.524 375.008 402.139C380.272 400.64 386.434 400.057 391.131 402.644C395.828 405.23 394.559 407.111 397.225 409.462C399.891 411.813 407.253 412.107 407.191 415.575C407.123 419.351 392.731 417.066 389.1 420.63C383.879 425.754 380.314 423.334 380.314 427.683C380.314 431.092 382.554 437.093 377.167 436.852C371.898 436.617 377.042 423.795 375.706 421.39C374.531 419.274 369.97 421.723 364.724 420.335C359.479 418.947 360.872 413.958 356.218 413.046C351.565 412.136 347.586 411.46 344.221 409.462Z" fill="black"/>
</g>
<path d="M364.414 408.597C364.191 408.157 365.812 404.174 366.094 403.881C366.376 403.587 373.353 402.046 373.988 401.899C374.622 401.752 383.503 403.441 384.208 404.028C384.913 404.615 385.97 408.359 385.618 408.726C385.266 409.093 375.313 411.194 374.397 411.194C373.481 411.194 364.826 409.41 364.414 408.597Z" fill="#FFC727"/>
<path opacity="0.6" d="M364.414 408.597C364.191 408.157 365.812 404.174 366.094 403.881C366.376 403.587 373.353 402.046 373.988 401.899C374.622 401.752 383.503 403.441 384.208 404.028C384.913 404.615 385.97 408.359 385.618 408.726C385.266 409.093 375.313 411.194 374.397 411.194C373.481 411.194 364.826 409.41 364.414 408.597Z" fill="white"/>
<path d="M366.748 404.28C368.774 404.681 370.983 405.232 373.004 405.685C373.7 405.812 374.379 406.057 374.983 405.925C377.755 405.496 380.561 404.79 383.361 404.377C380.648 405.369 377.942 406.2 375.072 406.67C374.312 406.795 373.556 406.542 372.838 406.373C370.763 405.804 368.729 405.124 366.748 404.28Z" fill="#FFC727"/>
<path d="M374.736 406.218C375.05 407.324 375.018 408.392 374.649 409.488C374.332 408.411 374.37 407.283 374.736 406.218Z" fill="#FFC727"/>
<path d="M369.403 403.499C370.981 402.951 372.62 402.49 374.263 402.236C375.393 402.396 376.499 402.65 377.592 402.986C376.493 402.969 375.318 402.822 374.225 402.717C372.642 403.049 371.048 403.386 369.403 403.499Z" fill="white"/>
</svg>
