<svg width="311" height="321" viewBox="0 0 311 321" fill="none" xmlns="http://www.w3.org/2000/svg">
<path d="M54.4831 165.993L46.3194 166.172L42.1762 166.244C40.7917 166.274 39.4003 166.268 38.012 166.279L37.7358 166.282L37.7345 165.994L37.701 158.81L37.6997 158.487L38.012 158.489L46.2472 158.529C48.9921 158.532 51.7376 158.602 54.4825 158.634L54.6542 158.636L54.6523 158.81C54.6405 160.029 54.5988 161.241 54.5708 162.439L54.4831 165.993ZM54.4831 165.993L54.3948 162.363C54.3668 161.167 54.3251 159.984 54.3133 158.809L54.4831 158.984C51.7382 159.017 48.9927 159.086 46.2479 159.089L38.0126 159.13L38.323 158.81L38.2894 165.994L38.0126 165.707C39.3698 165.719 40.7232 165.712 42.0842 165.743L46.1763 165.814L54.4831 165.993Z" fill="#EBEBEB"/>
<path d="M45.2956 175.051L37.1319 175.23L32.9887 175.302C31.6042 175.332 30.2128 175.326 28.8245 175.337L28.5483 175.34L28.547 175.052L28.5135 167.868L28.5122 167.545L28.8245 167.547L37.0597 167.587C39.8046 167.59 42.5501 167.659 45.295 167.692L45.4667 167.694L45.4648 167.868C45.453 169.087 45.4113 170.299 45.3833 171.497L45.2956 175.051ZM45.2956 175.051L45.2073 171.421C45.1793 170.225 45.1376 169.042 45.1258 167.867L45.2956 168.042C42.5507 168.075 39.8052 168.144 37.0604 168.147L28.8251 168.188L29.1355 167.868L29.1019 175.052L28.8245 174.765C30.1817 174.777 31.5351 174.77 32.8961 174.801L36.9882 174.872L45.2956 175.051Z" fill="#EBEBEB"/>
<path d="M141.234 133.19L133.07 133.369L128.927 133.441C127.543 133.471 126.151 133.465 124.763 133.476L124.487 133.479L124.486 133.191L124.452 126.007L124.451 125.684L124.763 125.686L132.998 125.726C135.743 125.729 138.489 125.799 141.233 125.831L141.405 125.833L141.403 126.007C141.391 127.226 141.35 128.438 141.322 129.636L141.234 133.19ZM141.234 133.19L141.146 129.56C141.118 128.364 141.076 127.181 141.064 126.006L141.234 126.181C138.489 126.214 135.744 126.283 132.999 126.287L124.764 126.327L125.074 126.007L125.04 133.191L124.764 132.904C126.121 132.916 127.474 132.909 128.835 132.94L132.927 133.011L141.234 133.19Z" fill="#EBEBEB"/>
<path d="M132.047 142.249L123.883 142.428L119.74 142.5C118.355 142.53 116.964 142.523 115.575 142.535L115.299 142.537L115.298 142.249L115.264 135.065L115.263 134.743L115.575 134.744L123.811 134.785C126.556 134.788 129.301 134.857 132.046 134.89L132.218 134.892L132.216 135.065C132.204 136.284 132.162 137.497 132.134 138.695L132.047 142.249ZM132.047 142.249L131.958 138.619C131.93 137.423 131.889 136.24 131.877 135.065L132.047 135.24C129.302 135.273 126.556 135.342 123.811 135.345L115.576 135.386L115.886 135.065L115.853 142.249L115.575 141.963C116.933 141.974 118.286 141.968 119.647 141.998L123.739 142.07L132.047 142.249Z" fill="#EBEBEB"/>
<path d="M150.562 142.249L142.398 142.428L138.255 142.5C136.871 142.53 135.479 142.523 134.091 142.535L133.815 142.537L133.814 142.249L133.78 135.065L133.779 134.743L134.091 134.744L142.326 134.785C145.071 134.788 147.817 134.857 150.562 134.89L150.733 134.892L150.731 135.065C150.72 136.284 150.678 137.497 150.65 138.695L150.562 142.249ZM150.562 142.249L150.474 138.619C150.446 137.423 150.404 136.24 150.392 135.065L150.562 135.24C147.817 135.273 145.072 135.342 142.327 135.345L134.092 135.386L134.402 135.065L134.368 142.249L134.091 141.963C135.448 141.974 136.802 141.968 138.163 141.998L142.255 142.07L150.562 142.249Z" fill="#EBEBEB"/>
<path d="M282.176 175.051L274.012 175.23L269.869 175.302C268.485 175.332 267.093 175.326 265.705 175.337L265.429 175.34L265.427 175.052L265.394 167.868L265.393 167.545L265.705 167.547L273.94 167.587C276.685 167.59 279.43 167.659 282.175 167.692L282.347 167.694L282.345 167.868C282.333 169.087 282.292 170.299 282.264 171.497L282.176 175.051ZM282.176 175.051L282.088 171.421C282.06 170.225 282.018 169.042 282.006 167.867L282.176 168.042C279.431 168.075 276.686 168.144 273.941 168.147L265.705 168.188L266.016 167.868L265.982 175.052L265.705 174.765C267.063 174.777 268.416 174.77 269.777 174.801L273.869 174.872L282.176 175.051Z" fill="#EBEBEB"/>
<path d="M272.988 34.7964L264.824 34.9755L260.681 35.0474C259.297 35.0776 257.905 35.0712 256.517 35.0827L256.241 35.0847L256.239 34.7964L256.206 27.6124L256.205 27.2901L256.517 27.2914L264.752 27.3319C267.497 27.3351 270.243 27.4038 272.987 27.4371L273.159 27.4391L273.157 27.6124C273.145 28.8316 273.104 30.0437 273.076 31.2423L272.988 34.7964ZM272.988 34.7964L272.9 31.1665C272.872 29.9705 272.83 28.7879 272.818 27.6124L272.988 27.7877C270.243 27.8204 267.498 27.8898 264.753 27.893L256.517 27.9334L256.828 27.6131L256.794 34.797L256.517 34.5107C257.874 34.5223 259.228 34.5158 260.588 34.546L264.681 34.6179L272.988 34.7964Z" fill="#EBEBEB"/>
<path d="M282.176 43.855L274.012 44.0341L269.869 44.106C268.485 44.1362 267.093 44.1298 265.705 44.1413L265.429 44.1433L265.427 43.855L265.394 36.671L265.393 36.3488L265.705 36.35L273.94 36.3905C276.685 36.3937 279.43 36.4624 282.175 36.4958L282.347 36.4977L282.345 36.671C282.333 37.8902 282.292 39.1023 282.264 40.3009L282.176 43.855ZM282.176 43.855L282.088 40.2251C282.06 39.0291 282.018 37.8465 282.006 36.671L282.176 36.8463C279.431 36.879 276.686 36.9484 273.941 36.9516L265.705 36.992L266.016 36.6717L265.982 43.8557L265.705 43.5693C267.063 43.5809 268.416 43.5745 269.777 43.6046L273.869 43.6765L282.176 43.855Z" fill="#EBEBEB"/>
<path d="M54.483 34.7964L46.3193 34.9755L42.1761 35.0474C40.7915 35.0776 39.4001 35.0712 38.0118 35.0827L37.7356 35.0847L37.735 34.7964L37.7014 27.6124L37.7002 27.2901L38.0124 27.2914L46.2477 27.3319C48.9926 27.3351 51.7381 27.4038 54.483 27.4371L54.6547 27.4391L54.6528 27.6124C54.641 28.8316 54.5993 30.0437 54.5713 31.2423L54.483 34.7964ZM54.483 34.7964L54.3947 31.1665C54.3667 29.9705 54.325 28.7879 54.3132 27.6124L54.483 27.7877C51.7381 27.8204 48.9926 27.8898 46.2477 27.893L38.0124 27.9334L38.3228 27.6131L38.2892 34.7964L38.0124 34.5101C39.3696 34.5216 40.7231 34.5152 42.084 34.5454L46.1762 34.6173L54.483 34.7964Z" fill="#EBEBEB"/>
<path d="M48.9551 60.6626V0" stroke="#C7C7C7" stroke-miterlimit="10"/>
<path d="M74.7062 86.2835L72.6349 90.983H25.2696L23.2046 86.2835L43.3698 71.877H54.5409L74.7062 86.2835Z" fill="#EBEBEB"/>
<path d="M55.9403 57.997L54.5408 71.8771H43.3697L41.9702 57.997H55.9403Z" fill="#DBDBDB"/>
<path d="M74.7042 86.2855L72.633 90.9849H25.2677L23.2026 86.2855H74.7042Z" fill="#DBDBDB"/>
<path d="M104.247 45.5018V0" stroke="#C7C7C7" stroke-miterlimit="10"/>
<path d="M129.998 71.122L127.926 75.8215H80.5616L78.4966 71.122L98.6612 56.7155H109.833L129.998 71.122Z" fill="#EBEBEB"/>
<path d="M111.232 42.8355L109.833 56.7156H98.6612L97.2617 42.8355H111.232Z" fill="#DBDBDB"/>
<path d="M129.996 71.1246L127.924 75.824H80.5592L78.4941 71.1246H129.996Z" fill="#DBDBDB"/>
<path d="M25.7832 246.61L58.2124 246.454L90.6416 246.396L155.5 246.289L220.358 246.396L252.788 246.452L285.217 246.61L252.788 246.766L220.358 246.823L155.5 246.929L90.6416 246.822L58.2124 246.766L25.7832 246.61Z" fill="#263238"/>
<path d="M155.5 294.931C222.718 294.931 277.209 287.022 277.209 277.266C277.209 267.51 222.718 259.602 155.5 259.602C88.2821 259.602 33.791 267.51 33.791 277.266C33.791 287.022 88.2821 294.931 155.5 294.931Z" fill="#EBEBEB"/>
<path d="M265.705 34.7206V218.848H130.697V34.7206H132.974L133.836 38.5669L137.522 41.0553V43.9571H141.875V39.4567H138.516L138.85 34.7219H148.5L148.787 39.4567H148.159V43.9571H152.513V39.4567H150.65L151.225 34.7219H157.775L158.791 39.4567V43.9571H163.151V39.4567H161.501L162.463 34.7219H169.822L170.202 39.4567H169.428V43.9571H173.788V39.4567H171.972V34.7219H179.03L179.218 36.135L180.179 39.4573H180.066V43.9577H184.426V39.4573H182.764L182.436 36.404L182.216 34.7226H191.692C191.692 34.7226 191.692 36.3629 191.692 36.4804C191.692 36.5908 192.507 39.458 192.507 39.458H190.703V43.9584H195.064V39.458H193.909V34.7232H202.483L202.016 39.458H201.342V43.9584H205.702V39.458H204.667L204.42 34.7232H211.785L212.085 39.458H211.978V43.9584H216.339V39.458H214.522L213.227 34.7232H222.409L222.616 39.458V43.9584H226.976V39.458H225.147L224.626 34.7232H231.991L233.253 41.0225V43.9584H237.613V39.458H235.209L236.024 34.7232H243.891V43.959H248.251V39.4586H245.54L244.912 34.7239H251.85L254.528 40.7407V43.9597H258.888V39.4592H255.91L255.676 34.7245H265.705V34.7206Z" fill="#EBEBEB"/>
<path d="M255.593 59.2771H140.81V59.7586H255.593V59.2771Z" fill="#DBDBDB"/>
<path d="M255.593 65.6464H140.81V66.1279H255.593V65.6464Z" fill="#DBDBDB"/>
<path d="M255.593 72.0163H140.81V72.4978H255.593V72.0163Z" fill="#DBDBDB"/>
<path d="M255.593 78.3856H140.81V78.8671H255.593V78.3856Z" fill="#DBDBDB"/>
<path d="M255.593 84.7556H140.81V85.2371H255.593V84.7556Z" fill="#DBDBDB"/>
<path d="M255.593 91.1248H140.81V91.6063H255.593V91.1248Z" fill="#DBDBDB"/>
<path d="M255.593 97.4948H140.81V97.9763H255.593V97.4948Z" fill="#DBDBDB"/>
<path d="M255.593 103.864H140.81V104.346H255.593V103.864Z" fill="#DBDBDB"/>
<path d="M255.593 110.234H140.81V110.715H255.593V110.234Z" fill="#DBDBDB"/>
<path d="M255.593 116.603H140.81V117.085H255.593V116.603Z" fill="#DBDBDB"/>
<path d="M255.593 122.973H140.81V123.455H255.593V122.973Z" fill="#DBDBDB"/>
<path d="M255.593 129.342H140.81V129.824H255.593V129.342Z" fill="#DBDBDB"/>
<path d="M255.593 135.712H140.81V136.193H255.593V135.712Z" fill="#DBDBDB"/>
<path d="M255.593 142.082H140.81V142.563H255.593V142.082Z" fill="#DBDBDB"/>
<path d="M255.593 148.452H140.81V148.933H255.593V148.452Z" fill="#DBDBDB"/>
<path d="M255.593 154.821H140.81V155.302H255.593V154.821Z" fill="#DBDBDB"/>
<path d="M255.593 161.191H140.81V161.672H255.593V161.191Z" fill="#DBDBDB"/>
<path d="M255.593 167.56H140.81V168.042H255.593V167.56Z" fill="#DBDBDB"/>
<path d="M255.593 173.93H140.81V174.411H255.593V173.93Z" fill="#DBDBDB"/>
<path d="M255.593 180.299H140.81V180.781H255.593V180.299Z" fill="#DBDBDB"/>
<path d="M255.593 186.669H140.81V187.151H255.593V186.669Z" fill="#DBDBDB"/>
<path d="M255.593 193.039H140.81V193.521H255.593V193.039Z" fill="#DBDBDB"/>
<path d="M255.593 199.408H140.81V199.889H255.593V199.408Z" fill="#DBDBDB"/>
<path d="M255.593 205.778H140.81V206.259H255.593V205.778Z" fill="#DBDBDB"/>
<path d="M144.646 64.0119L158.035 63.8559L171.424 63.766L198.201 63.6909L224.979 63.7647L238.367 63.8546L251.756 64.0119L238.367 64.1692L224.979 64.2584L198.201 64.3322L171.424 64.2578L158.035 64.1679L144.646 64.0119Z" fill="#263238"/>
<path d="M144.646 70.3812C151.239 70.2489 157.832 70.1867 164.426 70.1353L184.205 70.0602L203.985 70.134L213.875 70.2239L223.764 70.3812L213.875 70.5385L203.985 70.6284L184.205 70.7022L164.426 70.6271C157.832 70.5757 151.239 70.5141 144.646 70.3812Z" fill="#263238"/>
<path d="M144.646 76.7511L158.035 76.5951L171.424 76.5052L198.201 76.4301L224.979 76.5039L238.367 76.5938L251.756 76.7511L238.367 76.9077L224.979 76.9976L198.201 77.0714L171.424 76.997L158.035 76.9071L144.646 76.7511Z" fill="#263238"/>
<path d="M144.646 83.1204C148.96 82.9881 153.274 82.9259 157.588 82.8745L170.531 82.7994L183.472 82.8732L189.944 82.9625C192.101 83.0157 194.258 83.0472 196.415 83.1197C194.258 83.1923 192.101 83.2237 189.944 83.277L183.472 83.3663L170.531 83.4401L157.588 83.365C153.274 83.3149 148.96 83.2526 144.646 83.1204Z" fill="#263238"/>
<path d="M144.646 95.8596L158.035 95.7036L171.424 95.6137L198.201 95.5386L224.979 95.6124L238.367 95.7023L251.756 95.8596L238.367 96.0169L224.979 96.1061L198.201 96.1799L171.424 96.1055L158.035 96.0156L144.646 95.8596Z" fill="#263238"/>
<path d="M144.646 102.229C151.229 102.097 157.811 102.034 164.393 101.983L184.141 101.908L203.888 101.982L213.761 102.071L223.635 102.228L213.761 102.386L203.888 102.475L184.141 102.549L164.393 102.473C157.811 102.423 151.229 102.361 144.646 102.229Z" fill="#263238"/>
<path d="M144.646 108.599C151.964 108.467 159.282 108.404 166.599 108.353L188.553 108.278L210.506 108.352L221.483 108.441L232.46 108.598L221.483 108.755L210.506 108.845L188.553 108.919L166.599 108.843C159.282 108.793 151.964 108.731 144.646 108.599Z" fill="#263238"/>
<path d="M144.646 121.337C150.1 121.205 155.553 121.143 161.006 121.091L177.366 121.016L193.726 121.09L201.906 121.179L210.086 121.337L201.906 121.494L193.726 121.583L177.366 121.657L161.006 121.582C155.553 121.532 150.1 121.47 144.646 121.337Z" fill="#263238"/>
<path d="M144.646 127.707L158.035 127.551L171.424 127.461L198.201 127.386L224.979 127.46L238.367 127.55L251.756 127.707L238.367 127.864L224.979 127.954L198.201 128.028L171.424 127.953L158.035 127.863L144.646 127.707Z" fill="#263238"/>
<path d="M144.646 134.077C151.964 133.944 159.282 133.882 166.599 133.831L188.553 133.756L210.506 133.829L221.483 133.919L232.46 134.077L221.483 134.234L210.506 134.324L188.553 134.398L166.599 134.322C159.282 134.271 151.964 134.209 144.646 134.077Z" fill="#263238"/>
<path d="M144.646 140.446L158.035 140.29L171.424 140.201L198.201 140.125L224.979 140.199L238.367 140.289L251.756 140.446L238.367 140.603L224.979 140.693L198.201 140.767L171.424 140.692L158.035 140.602L144.646 140.446Z" fill="#263238"/>
<path d="M144.646 146.816C149.979 146.683 155.311 146.621 160.644 146.57L176.643 146.495L192.641 146.569L200.641 146.658L208.64 146.816L200.641 146.973L192.641 147.063L176.643 147.137L160.644 147.062C155.311 147.01 149.979 146.948 144.646 146.816Z" fill="#263238"/>
<path d="M142.623 118.415H99.1196C99.1196 118.415 98.1841 112.647 98.1841 107.176C98.1841 95.8686 98.1841 61.9446 98.1841 61.9446H152.895C152.895 61.9446 152.895 96.307 152.895 107.762C152.895 112.342 142.623 118.415 142.623 118.415Z" fill="#FFC727"/>
<path opacity="0.2" d="M152.891 107.753C152.891 112.203 143.239 118.024 142.642 118.387C144.242 117.268 143.971 108.425 143.971 108.425C143.971 108.425 152.728 107.249 152.891 107.753Z" fill="black"/>
<path d="M106.238 75.2899C112.672 74.7455 119.106 74.619 125.539 74.5908C131.973 74.6158 138.407 74.7416 144.84 75.2899C138.406 75.8382 131.972 75.964 125.539 75.989C119.106 75.9614 112.672 75.835 106.238 75.2899Z" fill="white"/>
<path d="M106.238 82.7352C111.3 82.1901 116.361 82.0643 121.423 82.036C126.485 82.0611 131.546 82.1869 136.608 82.7352C131.546 83.2835 126.485 83.4093 121.423 83.4343C116.361 83.4067 111.3 83.2802 106.238 82.7352Z" fill="white"/>
<path d="M106.238 90.1804C111.3 89.6354 116.361 89.5095 121.423 89.4813C126.485 89.5063 131.546 89.6328 136.608 90.1804C131.546 90.7287 126.485 90.8545 121.423 90.8796C116.361 90.8513 111.3 90.7248 106.238 90.1804Z" fill="white"/>
<path d="M246.19 244.327H194.302C194.302 244.327 191.731 238.856 191.731 233.667C191.731 222.943 191.731 190.77 191.731 190.77H243.619C243.619 190.77 243.619 223.359 243.619 234.223C243.619 238.567 246.19 244.327 246.19 244.327Z" fill="#FFC727"/>
<path opacity="0.8" d="M246.19 244.327H194.302C194.302 244.327 191.731 238.856 191.731 233.667C191.731 222.943 191.731 190.77 191.731 190.77H243.619C243.619 190.77 243.619 223.359 243.619 234.223C243.619 238.567 246.19 244.327 246.19 244.327Z" fill="white"/>
<path d="M243.619 194.421H191.731V194.581H243.619V194.421Z" fill="#DBDBDB"/>
<path d="M243.619 198.266H191.731V198.427H243.619V198.266Z" fill="#DBDBDB"/>
<path d="M243.619 202.118H191.731V202.279H243.619V202.118Z" fill="#DBDBDB"/>
<path d="M243.619 205.964H191.731V206.124H243.619V205.964Z" fill="#DBDBDB"/>
<path d="M243.619 209.816H191.731V209.976H243.619V209.816Z" fill="#DBDBDB"/>
<path d="M243.619 213.661H191.731V213.822H243.619V213.661Z" fill="#DBDBDB"/>
<path d="M243.619 217.507H191.731V217.667H243.619V217.507Z" fill="#DBDBDB"/>
<path d="M243.619 221.359H191.731V221.52H243.619V221.359Z" fill="#DBDBDB"/>
<path d="M243.619 225.205H191.731V225.365H243.619V225.205Z" fill="#DBDBDB"/>
<path d="M243.619 229.057H191.731V229.217H243.619V229.057Z" fill="#DBDBDB"/>
<path d="M243.619 232.902H191.731V233.063H243.619V232.902Z" fill="#DBDBDB"/>
<path d="M243.88 236.915H192.024C192.011 236.863 192.005 236.812 191.999 236.754H243.855C243.861 236.806 243.874 236.863 243.88 236.915Z" fill="#DBDBDB"/>
<path d="M244.863 240.76H192.963C192.944 240.709 192.926 240.658 192.913 240.6H244.813C244.825 240.658 244.844 240.709 244.863 240.76Z" fill="#DBDBDB"/>
<path d="M197.659 244.323H197.497C197.087 243.168 196.676 241.948 196.315 240.76C196.303 240.702 196.284 240.651 196.272 240.6C195.88 239.29 195.55 238.019 195.364 236.915C195.351 236.863 195.339 236.806 195.333 236.754C195.227 236.131 195.171 235.566 195.171 235.079V190.768H195.326V235.079C195.326 235.566 195.382 236.131 195.488 236.754C195.494 236.806 195.507 236.857 195.513 236.915C195.706 238.019 196.035 239.29 196.427 240.6C196.446 240.651 196.458 240.709 196.477 240.76C196.838 241.954 197.248 243.174 197.659 244.323Z" fill="#DBDBDB"/>
<path d="M201.391 244.323H201.229C200.819 243.168 200.408 241.948 200.047 240.76C200.035 240.702 200.016 240.651 200.004 240.6C199.612 239.29 199.282 238.019 199.096 236.915C199.083 236.863 199.071 236.806 199.065 236.754C198.959 236.131 198.903 235.566 198.903 235.079V190.768H199.058V235.079C199.058 235.566 199.114 236.131 199.22 236.754C199.226 236.806 199.239 236.857 199.245 236.915C199.438 238.019 199.767 239.29 200.159 240.6C200.178 240.651 200.19 240.709 200.209 240.76C200.57 241.954 200.98 243.174 201.391 244.323Z" fill="#DBDBDB"/>
<path d="M205.117 244.323H204.955C204.545 243.168 204.134 241.948 203.773 240.76C203.761 240.702 203.742 240.651 203.73 240.6C203.338 239.29 203.008 238.019 202.822 236.915C202.809 236.863 202.797 236.806 202.791 236.754C202.685 236.131 202.629 235.566 202.629 235.079V190.768H202.784V235.079C202.784 235.566 202.84 236.131 202.946 236.754C202.952 236.806 202.965 236.857 202.971 236.915C203.164 238.019 203.493 239.29 203.885 240.6C203.904 240.651 203.916 240.709 203.935 240.76C204.296 241.954 204.706 243.174 205.117 244.323Z" fill="#DBDBDB"/>
<path d="M208.849 244.323H208.687C208.277 243.168 207.866 241.948 207.505 240.76C207.487 240.702 207.474 240.651 207.456 240.6C207.064 239.29 206.74 238.019 206.547 236.915C206.541 236.863 206.529 236.806 206.523 236.754C206.417 236.131 206.361 235.566 206.361 235.079V190.768H206.516V235.079C206.516 235.566 206.572 236.131 206.678 236.754C206.684 236.806 206.697 236.857 206.703 236.915C206.896 238.019 207.225 239.29 207.617 240.6C207.636 240.651 207.648 240.709 207.667 240.76C208.028 241.954 208.438 243.174 208.849 244.323Z" fill="#DBDBDB"/>
<path d="M212.574 244.323H212.413C212.002 243.168 211.592 241.948 211.231 240.76C211.218 240.702 211.2 240.651 211.187 240.6C210.795 239.29 210.466 238.019 210.279 236.915C210.267 236.863 210.254 236.806 210.248 236.754C210.142 236.131 210.086 235.566 210.086 235.079V190.768H210.242V235.079C210.242 235.566 210.298 236.131 210.404 236.754C210.41 236.806 210.422 236.857 210.429 236.915C210.621 238.019 210.951 239.29 211.343 240.6C211.362 240.651 211.374 240.709 211.393 240.76C211.753 241.954 212.164 243.174 212.574 244.323Z" fill="#DBDBDB"/>
<path d="M216.306 244.323H216.145C215.734 243.168 215.324 241.948 214.963 240.76C214.95 240.702 214.932 240.651 214.919 240.6C214.527 239.29 214.198 238.019 214.011 236.915C213.999 236.863 213.986 236.806 213.98 236.754C213.874 236.131 213.818 235.566 213.818 235.079V190.768H213.974V235.079C213.974 235.566 214.03 236.131 214.136 236.754C214.142 236.806 214.154 236.857 214.16 236.915C214.353 238.019 214.683 239.29 215.075 240.6C215.093 240.651 215.106 240.709 215.125 240.76C215.485 241.954 215.896 243.174 216.306 244.323Z" fill="#DBDBDB"/>
<path d="M220.032 244.323H219.871C219.46 243.168 219.05 241.948 218.689 240.76C218.67 240.702 218.658 240.651 218.639 240.6C218.247 239.29 217.924 238.019 217.731 236.915C217.725 236.863 217.712 236.806 217.706 236.754C217.6 236.131 217.544 235.566 217.544 235.079V190.768H217.7V235.079C217.7 235.566 217.756 236.131 217.862 236.754C217.868 236.806 217.88 236.857 217.887 236.915C218.079 238.019 218.409 239.29 218.801 240.6C218.82 240.651 218.832 240.709 218.851 240.76C219.211 241.954 219.622 243.174 220.032 244.323Z" fill="#DBDBDB"/>
<path d="M223.764 244.323H223.603C223.192 243.168 222.782 241.948 222.421 240.76C222.402 240.702 222.39 240.651 222.371 240.6C221.979 239.29 221.656 238.019 221.463 236.915C221.457 236.863 221.444 236.806 221.438 236.754C221.332 236.131 221.276 235.566 221.276 235.079V190.768H221.432V235.079C221.432 235.566 221.488 236.131 221.594 236.754C221.6 236.806 221.612 236.857 221.618 236.915C221.811 238.019 222.141 239.29 222.533 240.6C222.551 240.651 222.564 240.709 222.583 240.76C222.943 241.954 223.354 243.174 223.764 244.323Z" fill="#DBDBDB"/>
<path d="M227.49 244.323H227.328C226.918 243.168 226.507 241.948 226.146 240.76C226.134 240.702 226.115 240.651 226.103 240.6C225.711 239.29 225.381 238.019 225.195 236.915C225.182 236.863 225.17 236.806 225.164 236.754C225.058 236.131 225.002 235.566 225.002 235.079V190.768H225.157V235.079C225.157 235.566 225.213 236.131 225.319 236.754C225.325 236.806 225.338 236.857 225.344 236.915C225.537 238.019 225.867 239.29 226.258 240.6C226.277 240.651 226.289 240.709 226.308 240.76C226.669 241.954 227.079 243.174 227.49 244.323Z" fill="#DBDBDB"/>
<path d="M231.222 244.323H231.06C230.65 243.168 230.239 241.948 229.878 240.76C229.866 240.702 229.847 240.651 229.835 240.6C229.443 239.29 229.113 238.019 228.927 236.915C228.914 236.863 228.902 236.806 228.896 236.754C228.79 236.131 228.734 235.566 228.734 235.079V190.768H228.889V235.079C228.889 235.566 228.945 236.131 229.051 236.754C229.057 236.806 229.07 236.857 229.076 236.915C229.269 238.019 229.598 239.29 229.99 240.6C230.009 240.651 230.021 240.709 230.04 240.76C230.401 241.954 230.811 243.174 231.222 244.323Z" fill="#DBDBDB"/>
<path d="M234.948 244.323H234.786C234.376 243.168 233.965 241.948 233.604 240.76C233.586 240.702 233.573 240.651 233.555 240.6C233.163 239.29 232.839 238.019 232.647 236.915C232.64 236.863 232.628 236.806 232.622 236.754C232.516 236.131 232.46 235.566 232.46 235.079V190.768H232.615V235.079C232.615 235.566 232.671 236.131 232.777 236.754C232.783 236.806 232.796 236.857 232.802 236.915C232.995 238.019 233.325 239.29 233.716 240.6C233.735 240.651 233.747 240.709 233.766 240.76C234.127 241.954 234.537 243.174 234.948 244.323Z" fill="#DBDBDB"/>
<path d="M238.68 244.323H238.518C238.108 243.168 237.697 241.948 237.336 240.76C237.318 240.702 237.305 240.651 237.287 240.6C236.895 239.29 236.571 238.019 236.378 236.915C236.372 236.863 236.36 236.806 236.354 236.754C236.248 236.131 236.192 235.566 236.192 235.079V190.768H236.347V235.079C236.347 235.566 236.403 236.131 236.509 236.754C236.515 236.806 236.528 236.857 236.534 236.915C236.727 238.019 237.056 239.29 237.448 240.6C237.467 240.651 237.479 240.709 237.498 240.76C237.859 241.954 238.269 243.174 238.68 244.323Z" fill="#DBDBDB"/>
<path d="M242.405 244.323H242.244C241.833 243.168 241.423 241.948 241.062 240.76C241.05 240.702 241.031 240.651 241.018 240.6C240.627 239.29 240.297 238.019 240.11 236.915C240.098 236.863 240.085 236.806 240.079 236.754C239.973 236.131 239.917 235.566 239.917 235.079V190.768H240.073V235.079C240.073 235.566 240.129 236.131 240.235 236.754C240.241 236.806 240.253 236.857 240.26 236.915C240.452 238.019 240.782 239.29 241.174 240.6C241.193 240.651 241.205 240.709 241.224 240.76C241.584 241.954 241.995 243.174 242.405 244.323Z" fill="#DBDBDB"/>
<path d="M199.531 201.319C202.599 201.187 205.667 201.124 208.735 201.073C211.803 201.02 214.871 201.025 217.939 200.998C221.007 201.023 224.075 201.02 227.143 201.072L231.745 201.161C233.279 201.214 234.814 201.246 236.347 201.318C234.814 201.391 233.279 201.422 231.745 201.476L227.143 201.565C224.075 201.616 221.007 201.614 217.939 201.639C214.871 201.612 211.803 201.617 208.735 201.564C205.667 201.513 202.6 201.451 199.531 201.319Z" fill="#263238"/>
<path d="M199.531 205.095C202.599 204.962 205.667 204.9 208.735 204.849C211.803 204.796 214.871 204.801 217.939 204.774C221.007 204.799 224.075 204.797 227.143 204.848L231.745 204.937C233.279 204.991 234.814 205.022 236.347 205.095C234.814 205.167 233.279 205.199 231.745 205.252L227.143 205.341C224.075 205.392 221.007 205.39 217.939 205.415C214.871 205.388 211.803 205.393 208.735 205.34C205.667 205.289 202.6 205.227 199.531 205.095Z" fill="#263238"/>
<path d="M199.531 208.871C201.724 208.739 203.918 208.676 206.111 208.625C208.304 208.567 210.497 208.558 212.69 208.55C214.883 208.557 217.077 208.565 219.27 208.624L222.56 208.713C223.656 208.766 224.753 208.798 225.849 208.87C224.753 208.943 223.656 208.974 222.56 209.027L219.27 209.117C217.077 209.175 214.883 209.183 212.69 209.191C210.497 209.182 208.304 209.175 206.111 209.115C203.918 209.065 201.724 209.003 199.531 208.871Z" fill="#263238"/>
<path d="M199.531 216.423C200.863 216.291 202.194 216.229 203.526 216.177C204.857 216.119 206.189 216.111 207.52 216.102C208.852 216.109 210.183 216.118 211.515 216.176L213.512 216.265C214.177 216.319 214.844 216.35 215.509 216.423C214.844 216.495 214.177 216.527 213.512 216.58L211.515 216.669C210.183 216.728 208.852 216.736 207.52 216.743C206.189 216.735 204.857 216.727 203.526 216.668C202.194 216.618 200.863 216.556 199.531 216.423Z" fill="#263238"/>
<path d="M199.531 220.2C202.599 220.067 205.667 220.005 208.735 219.954C211.803 219.901 214.871 219.906 217.939 219.879C221.007 219.904 224.075 219.901 227.143 219.952L231.745 220.042C233.279 220.095 234.814 220.126 236.347 220.199C234.814 220.271 233.279 220.303 231.745 220.356L227.143 220.445C224.075 220.497 221.007 220.494 217.939 220.519C214.871 220.492 211.803 220.497 208.735 220.444C205.667 220.394 202.6 220.332 199.531 220.2Z" fill="#263238"/>
<path d="M199.531 223.975C202.136 223.843 204.739 223.781 207.344 223.729C209.948 223.677 212.552 223.681 215.156 223.654C217.76 223.679 220.364 223.677 222.968 223.728L226.874 223.818C228.176 223.871 229.479 223.903 230.781 223.975C229.479 224.048 228.176 224.079 226.874 224.132L222.968 224.222C220.364 224.273 217.76 224.27 215.156 224.296C212.552 224.269 209.948 224.274 207.344 224.22C204.739 224.17 202.136 224.108 199.531 223.975Z" fill="#263238"/>
<path d="M199.531 227.751C201.682 227.619 203.832 227.557 205.982 227.506C208.132 227.447 210.283 227.439 212.433 227.43C214.583 227.437 216.733 227.446 218.884 227.504L222.109 227.593C223.183 227.647 224.259 227.678 225.334 227.751C224.259 227.823 223.183 227.855 222.109 227.908L218.884 227.997C216.733 228.056 214.583 228.064 212.433 228.071C210.283 228.063 208.132 228.055 205.982 227.996C203.832 227.946 201.682 227.884 199.531 227.751Z" fill="#263238"/>
<g opacity="0.5">
<path d="M206.162 185.317L203.898 186.841L206.456 185.824L207.419 187.488L206.385 188.419L207.704 187.979L208.074 188.618L206.669 189.672L208.272 188.96L208.549 189.439L189.586 201.135L188.753 199.697L190.236 198.686L188.533 199.317L188.179 198.705L189.294 197.883L187.991 198.38L187.819 198.082L189.594 196.599L187.372 197.311L186.769 196.269L205.732 184.573L206.162 185.317Z" fill="white"/>
<path d="M249.16 199.982L247.066 198.291L248.789 200.432L247.577 201.906L246.403 201.214L247.219 202.341L246.748 202.914L245.356 201.905L246.498 203.217L246.148 203.643L229.586 189.129L230.638 187.851L232.02 188.954L230.915 187.513L231.366 186.965L232.458 187.779L231.6 186.681L231.817 186.418L233.727 187.653L232.38 185.732L233.142 184.807L249.703 199.322L249.16 199.982Z" fill="white"/>
</g>
<path d="M277.735 167.917H242.851L235.046 162.39L242.851 156.864H277.735V167.917Z" fill="#FFC727"/>
<path d="M285.217 154.001H250.332L242.528 148.475L250.332 142.948H285.217V154.001Z" fill="#455A64"/>
<path d="M51.6355 275.473L151.003 275.915C175.155 256.34 177.648 227.339 160.419 209.76C149.991 199.127 136.749 201.272 124.14 199.581C124.128 199.581 124.116 199.575 124.104 199.575C119.712 198.984 115.405 197.927 111.314 195.701C98.3316 188.631 91.0119 171.954 80.0896 157.926C78.728 156.166 77.3061 154.456 75.8121 152.808C66.8298 142.909 48.9522 142.586 39.6017 156.504C15.8413 191.866 26.7251 244.499 51.6355 275.473Z" fill="#DBDBDB"/>
<path d="M49.4308 194.563C52.0332 236.641 99.1143 252.348 128.519 239.743C154.087 228.781 145.719 203.765 124.14 199.58C124.128 199.58 124.116 199.574 124.104 199.574C119.712 198.983 115.404 197.926 111.314 195.7C98.3312 188.63 91.0115 171.953 80.0892 157.925C63.817 149.201 47.5212 163.752 49.4308 194.563Z" fill="#C7C7C7"/>
<path d="M83.9011 137.132C90.9869 144.064 95.8565 162.098 92.2663 173.481C87.9901 187.042 76.2704 193.963 66.6574 190.752C57.9288 187.838 54.0892 178.732 57.2931 171.963C60.3876 165.425 66.296 163.029 67.3919 157.212C67.9163 154.429 67.0131 149.806 67.2346 145.607C67.6376 137.968 78.3833 131.735 83.9011 137.132Z" fill="#263238"/>
<path d="M56.1216 173.528C56.4842 172.075 57.1068 170.741 57.842 169.519C58.5847 168.3 59.4505 167.186 60.4246 166.21C61.4123 165.227 62.3745 164.211 63.3094 163.149C64.2362 162.083 65.1219 160.93 65.8105 159.619C66.147 158.959 66.4735 158.301 66.7074 157.553C66.94 156.814 67.0439 156.033 67.0962 155.261C67.1901 153.71 67.0588 152.178 66.9923 150.665C66.9251 149.151 66.9463 147.636 67.2087 146.168C67.4526 144.695 68.2095 143.333 68.9049 142.061C68.115 143.257 67.2983 144.616 66.968 146.097C66.6415 147.582 66.5824 149.135 66.6017 150.664C66.611 152.194 66.7323 153.719 66.6265 155.202C66.5687 155.94 66.463 156.67 66.2415 157.347C66.0263 158.017 65.6966 158.668 65.3651 159.296C64.0353 161.83 62.0269 163.797 60.149 165.866C59.1887 166.905 58.3371 168.078 57.6274 169.353C56.9538 170.649 56.3704 172.034 56.1216 173.528Z" fill="#263238"/>
<path d="M135.154 294.443C133.694 293.89 100.704 266.677 100.08 264.819C99.8408 264.115 103.4 258.925 107.874 252.779C108.84 251.452 109.845 250.087 110.874 248.708C117.541 239.741 124.818 230.389 124.818 230.389L146.937 248.527L132.384 266.346L129.193 270.26C129.193 270.26 137.309 286.51 137.78 288.625C138.244 290.733 136.615 294.996 135.154 294.443Z" fill="#D3766A"/>
<path d="M135.154 294.443C133.694 293.89 100.703 266.677 100.08 264.819C99.7921 263.96 105.106 256.476 110.874 248.708L132.384 266.347L129.193 270.261C129.193 270.261 137.309 286.511 137.779 288.625C138.244 290.733 136.614 294.996 135.154 294.443Z" fill="white"/>
<path d="M135.154 294.443C133.694 293.89 100.704 266.677 100.08 264.819C99.8408 264.115 103.4 258.925 107.874 252.779L129.193 270.261C129.193 270.261 137.309 286.511 137.78 288.625C138.244 290.733 136.615 294.996 135.154 294.443Z" fill="#FFC727"/>
<path d="M135.736 292.69C130.315 287.988 108.017 269.552 102.312 265.33C102.265 265.295 102.241 265.326 102.284 265.366C107.559 270.147 130 288.397 135.663 292.784C135.783 292.877 135.85 292.79 135.736 292.69Z" fill="#263238"/>
<path d="M136.607 285.65C135.338 284.513 133.558 284.098 132.219 284.314C130.932 284.522 129.501 285.126 128.623 286.342C128.598 286.377 128.658 286.428 128.69 286.397C130.736 284.425 134.223 284.086 136.551 285.721C136.599 285.754 136.65 285.688 136.607 285.65Z" fill="#263238"/>
<path d="M130.899 272.598C128.71 270.74 125.519 269.429 122.697 270.163C122.588 270.191 122.628 270.352 122.721 270.371C125.547 270.957 128.063 271.733 130.719 272.91C130.907 272.993 131.056 272.731 130.899 272.598Z" fill="#263238"/>
<path d="M132.075 274.694C129.886 272.837 126.695 271.526 123.873 272.26C123.764 272.288 123.805 272.449 123.897 272.467C126.723 273.054 129.239 273.829 131.895 275.006C132.083 275.091 132.232 274.828 132.075 274.694Z" fill="#263238"/>
<path d="M133.252 276.792C131.063 274.935 127.872 273.624 125.05 274.357C124.941 274.386 124.982 274.546 125.074 274.565C127.899 275.151 130.416 275.927 133.073 277.105C133.259 277.187 133.408 276.925 133.252 276.792Z" fill="#263238"/>
<path d="M134.428 278.889C132.239 277.031 129.048 275.72 126.226 276.454C126.117 276.482 126.158 276.642 126.251 276.662C129.076 277.248 131.592 278.023 134.248 279.201C134.435 279.285 134.585 279.022 134.428 278.889Z" fill="#263238"/>
<path d="M107.918 261.07C105.429 259.029 102.352 263.018 104.845 265.063C107.334 267.104 110.411 263.115 107.918 261.07Z" fill="white"/>
<path d="M138.011 268.475C137.634 266.592 135.497 266.365 134.034 266.79C131.667 267.48 129.148 269.106 127.5 270.973C127.459 271.02 127.48 271.068 127.518 271.096C127.439 271.299 127.519 271.591 127.773 271.609C130.22 271.784 132.815 272.284 135.242 271.678C136.659 271.324 138.369 270.256 138.011 268.475ZM131.536 271.09C130.33 271.034 129.135 270.918 127.928 270.908C129.204 270.096 130.44 269.23 131.796 268.551C132.443 268.228 133.113 267.907 133.797 267.677C134.863 267.319 138.514 267.202 136.809 269.869C135.87 271.34 132.973 271.156 131.536 271.09Z" fill="#263238"/>
<path d="M121.344 267.283C123.035 269.178 125.461 270.252 127.59 271.511C127.811 271.641 128.035 271.445 128.078 271.231C128.125 271.23 128.168 271.201 128.159 271.14C127.795 268.642 126.577 265.845 124.98 263.913C123.995 262.72 122.096 261.682 120.768 263.031C119.511 264.308 120.358 266.177 121.344 267.283ZM121.015 264.881C121.035 261.686 124.007 263.878 124.699 264.787C125.145 265.371 125.53 266.022 125.892 266.662C126.653 268.005 127.215 269.433 127.839 270.841C126.83 270.157 125.774 269.567 124.742 268.922C123.511 268.152 121.004 266.643 121.015 264.881Z" fill="#263238"/>
<path d="M169.279 213.649C167.763 225.511 139.441 259.752 136.169 263.679C135.686 264.258 135.424 264.573 135.424 264.573L111.997 245.991L112.267 245.632L132.897 217.752L71.3623 217.378L94.7253 198.628C94.7253 198.628 96.6205 199.756 100.561 199.163C114.141 197.111 144.76 192.568 151.979 192.868C161.292 193.264 170.67 202.765 169.279 213.649Z" fill="#37474F"/>
<path d="M140.306 207.388C139.506 208.224 138.867 209.27 138.178 210.203C137.449 211.19 136.707 212.168 135.98 213.155C135.972 213.165 135.965 213.174 135.958 213.184C136.088 212.895 136.214 212.605 136.348 212.318C136.808 211.335 137.176 210.32 137.719 209.381C137.752 209.323 137.668 209.27 137.633 209.327C137.075 210.259 136.427 211.145 135.948 212.128C135.723 212.59 135.511 213.057 135.312 213.532C135.203 213.792 135.091 214.052 134.994 214.317C134.949 214.438 134.893 214.567 134.86 214.697C134.534 215.155 134.211 215.616 133.898 216.084C133.204 217.122 132.591 218.22 131.887 219.25C131.85 219.305 131.935 219.357 131.973 219.304C132.685 218.335 133.483 217.432 134.207 216.471C134.943 215.492 135.641 214.486 136.331 213.472C137.004 212.483 137.663 211.484 138.335 210.494C139.012 209.497 139.815 208.514 140.364 207.435C140.383 207.399 140.337 207.355 140.306 207.388Z" fill="#263238"/>
<path d="M83.8203 176.417C87.1511 183.008 99.9015 204.103 107.038 204.958C111.721 205.519 130.073 201.788 132.833 196.94C134.035 194.827 130.375 181.319 127.957 182.116C125.54 182.913 110.877 186.446 109.001 186.084C107.135 185.724 91.9025 170.861 86.4109 167.344C76.9403 161.281 82.0264 172.868 83.8203 176.417Z" fill="#D3766A"/>
<path d="M122.256 181.696L124.617 202.309C124.617 202.309 110.196 206.563 103.679 204.697C95.7648 202.431 82.9385 178.393 81.1409 174.422C78.1908 167.903 78.6535 163.811 82.324 164.569C83.7496 164.851 85.6635 165.874 88.0489 167.785C90.5449 169.775 104.972 182.804 109.42 185.155C111.906 186.47 122.256 181.696 122.256 181.696Z" fill="#455A64"/>
<path d="M122.252 181.695L124.616 202.312C124.616 202.312 122.225 203.018 118.947 203.728C114.177 204.758 107.541 205.801 103.679 204.694C95.7668 202.43 82.9337 178.392 81.1398 174.422C79.0045 169.705 78.6593 166.257 80.0252 164.999C80.539 164.516 81.3115 164.361 82.3241 164.566C83.7473 164.855 85.6636 165.874 88.0509 167.783C90.5451 169.773 104.967 182.803 109.417 185.154C111.905 186.474 122.252 181.695 122.252 181.695Z" fill="#FFC727"/>
<path d="M120.939 202.227C120.502 199.192 119.152 186.703 119.038 183.984C119.029 183.796 119.143 183.745 119.176 183.94C120.699 193.004 120.774 199.206 121.055 202.206C121.062 202.281 120.95 202.304 120.939 202.227Z" fill="#263238"/>
<path d="M81.1388 174.419C82.9333 178.391 95.767 202.433 103.676 204.696C105.626 205.254 108.293 205.263 111.069 205.008L81.8361 164.496C81.0617 164.424 80.4509 164.598 80.026 164.998C78.657 166.255 79.0041 169.707 81.1388 174.419Z" fill="#263238"/>
<path d="M59.1733 214.863L96.5897 204.997L92.8994 191.053C92.8994 191.053 95.8608 186.678 94.6012 182.51C93.4779 178.793 84.9465 167.735 83.223 166.262C80.2666 163.734 74.9821 162.891 72.0885 166.412C60.1598 180.93 59.1733 214.863 59.1733 214.863Z" fill="#FFC727"/>
<path opacity="0.1" d="M81.1673 164.949L71.2277 167.517C71.5076 167.138 71.7938 166.772 72.0861 166.413C72.1545 166.329 72.2229 166.252 72.2914 166.175L79.4195 164.333C80.0228 164.48 80.6075 164.686 81.1673 164.949ZM83.5122 166.535L69.4675 170.175C69.4053 170.284 69.3369 170.393 69.2809 170.502L83.7299 166.759C83.6553 166.676 83.5807 166.599 83.5122 166.535ZM85.3223 168.602L67.8814 173.115C67.6886 173.513 67.4957 173.924 67.3091 174.335L86.0438 169.488C85.795 169.173 85.5524 168.878 85.3223 168.602ZM87.4682 171.311L66.2517 176.807C66.2082 176.91 66.1709 177.012 66.1273 177.115L87.6485 171.549C87.5863 171.465 87.5241 171.388 87.4682 171.311ZM89.0543 173.436L65.2068 179.612C65.0699 180.004 64.9393 180.396 64.8149 180.787L89.7074 174.342C89.4959 174.033 89.272 173.732 89.0543 173.436ZM91.0136 176.197L64.0747 183.175C64.0374 183.272 64.0125 183.374 63.9877 183.471L91.1691 176.434C91.1193 176.357 91.0633 176.28 91.0136 176.197ZM92.4317 178.36L63.3097 185.904C63.2164 186.283 63.1169 186.668 63.0173 187.047L93.004 179.285C92.8236 178.99 92.637 178.681 92.4317 178.36ZM94.0614 181.211L62.47 189.39C62.4451 189.486 62.4264 189.589 62.4016 189.685L94.1795 181.455C94.1484 181.378 94.1111 181.294 94.0614 181.211ZM94.8264 183.541L61.8977 192.067C61.8231 192.446 61.7485 192.825 61.6738 193.197L94.9073 184.594C94.9073 184.248 94.8824 183.894 94.8264 183.541ZM61.2571 195.502C61.2384 195.598 61.2198 195.701 61.2073 195.797L94.5901 187.156C94.6149 187.053 94.6398 186.957 94.6585 186.854L61.2571 195.502ZM60.8217 198.147C60.7657 198.526 60.7097 198.898 60.66 199.264L93.004 190.886C93.1408 190.668 93.3958 190.231 93.6819 189.64L60.8217 198.147ZM93.4083 192.979L60.3427 201.543C60.3303 201.639 60.3179 201.736 60.3054 201.832L93.4767 193.242L93.4083 192.979ZM94.0365 195.348L60.0255 204.156C59.982 204.535 59.9384 204.901 59.9011 205.26L94.2977 196.349L94.0365 195.348ZM94.8451 198.41L59.671 207.514C59.6648 207.61 59.6585 207.706 59.6461 207.803L94.9135 198.673L94.8451 198.41ZM95.4733 200.779L59.4533 210.101C59.4222 210.486 59.3973 210.852 59.3724 211.192L95.7345 201.781L95.4733 200.779ZM96.2819 203.835L59.2418 213.426C59.2294 213.523 59.2294 213.619 59.2231 213.709L96.3503 204.098L96.2819 203.835Z" fill="black"/>
<path d="M88.2138 171.979C89.1518 173.187 90.17 174.341 91.1434 175.526C90.7105 174.658 90.2826 173.787 89.8173 172.936C89.808 172.919 89.8323 172.901 89.8435 172.918C90.5357 173.943 91.1621 174.997 91.6336 176.131C92.3532 177.035 93.0362 177.963 93.6258 178.955C94.3343 180.146 94.9084 181.411 95.164 182.775C95.4191 184.137 95.3195 185.553 94.9974 186.902C94.6242 188.468 93.9965 189.961 93.341 191.435C93.2545 191.63 92.9734 191.489 93.0424 191.297C93.9667 188.728 95.0011 186.018 94.5943 183.266C94.1925 180.548 92.6176 178.172 91.0837 175.944C90.1601 174.602 89.2208 173.255 88.1249 172.039C88.0813 171.99 88.1715 171.925 88.2138 171.979Z" fill="#263238"/>
<path d="M87.3803 189.221C85.6866 189.888 84.0029 190.618 82.4211 191.537C81.6343 191.995 80.873 192.486 80.1179 192.997C79.7415 193.252 79.359 193.492 78.974 193.732C78.5784 193.977 78.1492 194.223 77.7051 194.362C77.6653 194.374 77.6827 194.436 77.7232 194.426C78.1623 194.317 78.5821 194.213 79.0038 194.045C79.405 193.886 79.7925 193.68 80.1689 193.467C80.9712 193.011 81.7531 192.517 82.5505 192.052C84.1602 191.115 85.7693 190.179 87.4407 189.364C87.5178 189.326 87.4606 189.19 87.3803 189.221Z" fill="#263238"/>
<path d="M92.1135 189.624C90.6419 189.87 89.159 190.192 87.7234 190.609C87.0013 190.818 86.2966 191.069 85.5937 191.34C85.2584 191.47 84.9257 191.606 84.5942 191.746C84.2297 191.9 83.8845 192.105 83.5181 192.253C83.4802 192.269 83.4963 192.332 83.5361 192.317C83.8857 192.188 84.2577 192.118 84.6147 192.01C84.973 191.901 85.33 191.79 85.6883 191.681C86.4054 191.464 87.1244 191.254 87.8397 191.029C89.2716 190.579 90.7016 190.146 92.1471 189.746C92.2261 189.724 92.19 189.611 92.1135 189.624Z" fill="#263238"/>
<path d="M75.8907 166.308C76.1152 167.002 79.8124 171.293 82.9411 170.838C83.9599 170.689 83.4163 164.913 83.4163 164.913L83.4704 164.477L84.2255 158.376L77.0177 154.526L75.9809 154.025C75.9809 154.025 75.8807 155.708 75.7769 157.805C75.7713 157.902 75.7663 157.999 75.7619 158.103C75.7532 158.222 75.7433 158.334 75.7402 158.444C75.7203 158.758 75.7022 159.077 75.6898 159.396C75.6798 159.639 75.6686 159.875 75.6668 160.13C75.6587 160.386 75.6562 160.635 75.6481 160.891C75.622 163.417 75.7993 166.013 75.8907 166.308Z" fill="#D3766A"/>
<path d="M75.7769 157.806C77.8649 162.402 81.7213 163.987 83.4704 164.478L84.2255 158.377L77.0177 154.527L75.9809 154.025C75.9809 154.025 75.8807 155.708 75.7769 157.806Z" fill="#263238"/>
<path d="M91.6186 147.476C94.2888 157.913 88.5341 160.742 86.3533 161.334C84.3735 161.871 77.5663 163.441 73.8654 153.346C70.1645 143.249 74.0222 138.669 78.4869 137.193C82.9516 135.716 88.9483 137.04 91.6186 147.476Z" fill="#D3766A"/>
<path d="M89.816 146.999C89.5697 147.018 89.3396 146.992 89.0939 146.985C88.8171 146.976 88.5957 146.998 88.3599 146.825C88.2337 146.732 88.1995 146.499 88.2754 146.364C88.4526 146.05 88.7947 145.973 89.1281 145.97C89.4907 145.966 89.7706 146.059 90.0537 146.292C90.3286 146.517 90.1414 146.974 89.816 146.999Z" fill="#263238"/>
<path d="M82.6575 148.052C82.8932 147.976 83.0984 147.865 83.3236 147.765C83.578 147.651 83.792 147.588 83.9493 147.338C84.0333 147.204 83.9823 146.974 83.8635 146.877C83.5867 146.652 83.2415 146.711 82.9299 146.834C82.5915 146.969 82.3639 147.161 82.1841 147.485C82.0093 147.799 82.3465 148.153 82.6575 148.052Z" fill="#263238"/>
<path d="M84.5478 149.795C84.5366 149.768 84.5005 149.841 84.5073 149.87C84.679 150.584 84.7592 151.43 84.1789 151.809C84.1609 151.82 84.1702 151.856 84.1932 151.848C84.9384 151.566 84.8214 150.442 84.5478 149.795Z" fill="#263238"/>
<path d="M83.7701 149.182C82.6318 149.342 83.0268 151.68 84.0811 151.531C85.1186 151.385 84.7236 149.047 83.7701 149.182Z" fill="#263238"/>
<path d="M83.3459 149.386C83.1705 149.553 83.0163 149.822 82.7818 149.889C82.5106 149.967 82.2605 149.759 82.041 149.556C82.018 149.535 82.0018 149.56 82.0068 149.59C82.0758 150.04 82.3203 150.469 82.7967 150.452C83.2315 150.437 83.4691 149.985 83.5014 149.515C83.5076 149.428 83.4168 149.318 83.3459 149.386Z" fill="#263238"/>
<path d="M88.6322 148.785C88.6334 148.757 88.6925 148.81 88.6969 148.84C88.7914 149.569 89.0184 150.387 89.6927 150.519C89.7138 150.523 89.7176 150.559 89.6933 150.56C88.8996 150.581 88.6085 149.492 88.6322 148.785Z" fill="#263238"/>
<path d="M89.1371 147.921C90.2524 147.638 90.7183 149.962 89.6845 150.223C88.6675 150.481 88.2023 148.158 89.1371 147.921Z" fill="#263238"/>
<path d="M89.6375 147.973C89.8402 148.059 90.0604 148.245 90.2763 148.214C90.5257 148.178 90.6575 147.888 90.767 147.614C90.7782 147.586 90.8 147.601 90.8068 147.632C90.9076 148.073 90.8578 148.567 90.4616 148.74C90.1002 148.898 89.7469 148.576 89.556 148.156C89.5199 148.077 89.556 147.939 89.6375 147.973Z" fill="#263238"/>
<path d="M85.8028 155.951C85.9932 156.1 86.1909 156.313 86.4503 156.301C86.6985 156.29 86.9728 156.137 87.1868 156.017C87.2079 156.005 87.2334 156.027 87.2222 156.05C87.0736 156.354 86.7097 156.581 86.3744 156.565C86.0479 156.549 85.8538 156.285 85.7394 155.993C85.7232 155.953 85.7755 155.93 85.8028 155.951Z" fill="#263238"/>
<path d="M88.2578 152.776C88.2578 152.776 88.5974 153.828 88.6895 154.336C88.6976 154.384 88.5825 154.429 88.4171 154.472C88.4096 154.476 88.4059 154.48 88.3978 154.476C87.5525 154.784 86.6195 154.642 85.9577 154.011C85.9148 153.968 85.9676 153.903 86.018 153.926C86.7569 154.294 87.4984 154.282 88.2734 154.147C88.2827 153.999 87.634 152.366 87.7111 152.345C87.9767 152.27 88.5415 152.357 88.878 152.392C88.2323 150.18 87.2489 148.094 86.6381 145.883C86.6176 145.803 86.7252 145.758 86.7607 145.825C87.9419 147.937 88.7386 150.464 89.462 152.73C89.5553 153.012 88.4706 152.825 88.2578 152.776Z" fill="#263238"/>
<path d="M73.9654 153.924C76.1492 152.54 75.9838 150.039 75.9838 150.039C78.71 148.448 80.0118 145.973 80.1468 145.722C80.1002 145.952 79.7674 147.611 79.5721 148.45C86.0496 146.421 87.5374 140.964 87.5374 140.964C89.9184 142.929 90.4981 144.293 90.8838 144.963C90.8838 144.963 90.4838 140.769 88.0978 138.203C85.1775 135.06 81.7634 136.108 81.7634 136.108C81.7634 136.108 76.4565 135.115 72.9447 140.048C69.1654 145.369 73.9654 153.924 73.9654 153.924Z" fill="#263238"/>
<path d="M84.4783 146.747C83.4906 147.479 82.3629 148.026 81.2234 148.419C81.2141 148.423 81.2097 148.408 81.2191 148.404C83.0241 147.647 84.589 146.449 85.7497 144.821C86.2405 144.134 86.646 143.391 86.957 142.6C87.2817 141.772 87.5809 140.797 87.5572 139.897C87.5554 139.829 87.6586 139.826 87.6605 139.894C87.6847 140.846 87.6978 141.723 87.4235 142.644C87.1629 143.518 86.7437 144.352 86.1957 145.071C85.7062 145.715 85.1221 146.27 84.4783 146.747Z" fill="#263238"/>
<path d="M75.6765 153.708C75.6765 153.708 72.87 150.791 71.5495 151.88C70.2297 152.969 72.7282 157.478 74.5526 157.83C76.3763 158.182 76.7252 156.445 76.7252 156.445L75.6765 153.708Z" fill="#D3766A"/>
<path d="M72.297 153.154C72.2691 153.157 72.2703 153.197 72.2958 153.203C73.5815 153.491 74.4069 154.527 75.05 155.64C74.6159 155.245 74.0872 155.081 73.5653 155.626C73.5379 155.654 73.5765 155.7 73.6088 155.686C74.0828 155.489 74.4523 155.514 74.8535 155.861C75.1371 156.107 75.3592 156.443 75.5837 156.745C75.6583 156.846 75.8424 156.751 75.7802 156.631C75.7759 156.622 75.7703 156.613 75.7659 156.604C75.5308 155.019 73.9684 153.019 72.297 153.154Z" fill="#263238"/>
<path d="M67.7563 171.766C62.1714 180.821 55.7524 195.273 55.5763 205.49C55.4905 210.48 63.8502 215.015 66.8936 213.502C74.0516 209.942 84.0129 201.759 87.9328 196.367C89.3167 194.462 74.5069 181.658 73.4221 183.944C72.3641 186.174 71.6613 187.569 70.5709 188.449C70.0403 188.878 73.1876 182.153 74.77 172.744C76.9315 159.893 69.7803 168.485 67.7563 171.766Z" fill="#D3766A"/>
<path d="M85.1348 161.99C85.1348 161.99 82.8135 159.027 84.8997 157.557C86.9859 156.088 88.8133 159.398 88.8133 159.398L85.1348 161.99Z" fill="#FFC4C0"/>
<path d="M88.7299 159.285L85.0508 161.877L99.6857 184.011L103.365 181.42L88.7299 159.285Z" fill="#FFC727"/>
<path opacity="0.2" d="M88.7299 159.285L85.0508 161.877L99.6857 184.011L103.365 181.42L88.7299 159.285Z" fill="black"/>
<path d="M88.9602 158.947L84.6646 161.973L85.2462 162.852L89.5419 159.827L88.9602 158.947Z" fill="#37474F"/>
<path d="M89.6033 159.92L85.3076 162.946L85.8893 163.826L90.1849 160.8L89.6033 159.92Z" fill="#37474F"/>
<path d="M103.369 181.405L103.791 185.112L103.934 186.334L102.876 185.757L99.6851 184L99.6931 183.186C99.6931 183.186 100.408 183.478 100.422 183.48L100.43 182.667C100.43 182.667 101.145 182.959 101.159 182.962L101.158 182.153C101.158 182.153 101.881 182.44 101.895 182.442L101.894 181.634C101.894 181.634 102.618 181.92 102.631 181.923L102.631 181.115C102.631 181.115 103.355 181.403 103.369 181.405Z" fill="white"/>
<path d="M103.791 185.112L103.934 186.334L102.876 185.757L103.791 185.112Z" fill="#37474F"/>
<path d="M95.7321 165.555C97.0545 167.441 92.2732 170.411 92.2732 170.411C92.2732 170.411 93.8276 170.299 94.9702 171.297C96.2789 172.44 95.1164 175.059 95.1164 175.059C95.1164 175.059 96.7124 175.281 97.8165 176.461C98.9622 177.684 98.1548 180.5 98.1548 180.5C98.1548 180.5 99.5307 181.55 99.777 183.276C100.197 186.226 96.6135 188.942 94.717 191.075C92.685 193.36 88.7004 195.542 87.1535 197.202L72.9526 185.125C72.9526 185.125 77.4976 173.209 81.4877 169.999C83.7002 168.219 93.7113 162.673 95.7321 165.555Z" fill="#D3766A"/>
<path d="M92.1979 170.386C89.3031 171.436 86.6571 173.201 84.1224 174.933C84.0658 174.971 84.1256 175.062 84.1815 175.023C86.6832 173.271 89.6987 172.166 92.2626 170.52C92.3335 170.475 92.2756 170.357 92.1979 170.386Z" fill="#263238"/>
<path d="M94.9166 174.915C94.2685 175.174 93.7049 175.652 93.1507 176.073C92.5536 176.527 91.9646 176.991 91.3824 177.465C90.2168 178.413 89.0717 179.389 87.9552 180.399C87.9054 180.444 87.9595 180.533 88.0143 180.489C89.1774 179.546 90.3549 178.62 91.5559 177.729C92.1568 177.283 92.762 176.841 93.3691 176.405C93.9338 175.999 94.5633 175.618 95.0304 175.089C95.0989 175.012 95.0149 174.877 94.9166 174.915Z" fill="#263238"/>
<path d="M98.1036 180.538C97.5319 180.739 97.0281 181.277 96.5672 181.668C96.0447 182.112 95.5198 182.552 94.9929 182.99C93.9386 183.865 92.8844 184.739 91.8008 185.575C91.7467 185.617 91.8052 185.707 91.8599 185.665C92.9646 184.821 94.0805 183.993 95.1777 183.138C95.7169 182.719 96.2531 182.297 96.7874 181.871C97.2415 181.509 97.8498 181.11 98.1477 180.591C98.1651 180.562 98.1322 180.528 98.1036 180.538Z" fill="#263238"/>
<path d="M80.7032 170.721C81.3346 169.935 82.3888 168.709 84.944 167.823C85.0149 167.799 85.0149 167.84 84.9484 167.877C84.5739 168.082 82.6177 169.03 80.7293 170.748C80.7119 170.763 80.6877 170.74 80.7032 170.721Z" fill="#263238"/>
<path d="M88.6355 199.057L73.1906 183.362L70.8326 187.77C70.8326 187.77 74.3537 177.958 75.2494 172.598C76.1451 167.239 75.9933 160.967 69.4163 168.99C62.9724 176.851 54.339 199.52 54.7794 205.392C55.2198 211.264 62.4629 214.825 66.1072 214.151C69.7509 213.476 88.6355 199.057 88.6355 199.057Z" fill="#FFC727"/>
<path d="M84.6031 200.751C82.446 198.639 73.9233 189.665 72.2091 187.597C72.0903 187.454 72.1494 187.342 72.2918 187.474C78.9043 193.641 82.668 198.477 84.6808 200.66C84.7312 200.714 84.6584 200.804 84.6031 200.751Z" fill="#263238"/>
<path d="M59.7888 203.673C60.6223 202.182 61.592 200.753 62.5175 199.312C63.4443 197.868 64.3711 196.423 65.3532 195.011C66.3378 193.594 67.384 192.217 68.4234 190.836C68.9434 190.144 69.956 188.792 70.4791 188.103C70.9947 187.425 71.0538 187.582 70.5606 188.327C70.0866 189.042 69.1225 190.42 68.6517 191.137C67.7243 192.549 66.8174 193.973 65.8564 195.366C64.8935 196.763 63.8971 198.138 62.9106 199.519C61.9092 200.922 60.9538 202.363 59.8914 203.726C59.8473 203.783 59.7527 203.737 59.7888 203.673Z" fill="#263238"/>
<path d="M72.1117 182.897C72.6503 181.276 73.2947 179.666 73.7121 178.007C73.7289 177.941 73.8302 177.967 73.8116 178.034C73.5012 179.129 73.2561 180.241 72.9818 181.346C73.008 181.301 73.0347 181.256 73.0602 181.212C73.3053 180.785 73.5385 180.353 73.768 179.917C73.7998 179.856 73.8868 179.908 73.8576 179.969C73.6436 180.415 73.4359 180.862 73.2381 181.316C73.0832 181.671 72.9333 182.051 72.7106 182.371C72.6447 182.61 72.5819 182.851 72.5091 183.089C72.0134 184.696 71.4436 186.336 70.7314 187.856C70.6867 187.951 70.538 187.888 70.566 187.787C71.0194 186.144 71.5749 184.512 72.1117 182.897Z" fill="#263238"/>
<path d="M73.0708 183.274C73.1206 183.188 73.5025 183.6 73.6822 183.817C73.7115 183.852 73.6704 183.87 73.625 183.835C73.5 183.739 73.3607 183.681 73.2431 183.577C72.8811 184.322 70.8764 187.836 70.7333 187.989C70.6693 188.057 70.6083 187.998 70.6382 187.902C70.7576 187.515 72.6248 184.039 73.0708 183.274Z" fill="#263238"/>
<path d="M71.1727 211.418C75.6293 208.059 80.1711 204.808 84.8156 201.733C86.087 200.891 87.2918 199.985 88.5401 199.107C88.4027 199.012 87.1462 197.638 87.1083 197.588C87.0878 197.561 87.1182 197.527 87.1444 197.55C87.2856 197.672 88.8897 199.014 89.001 199.167C89.0676 199.259 84.3447 202.591 82.1074 204.221C79.8552 205.862 77.532 207.401 75.2132 208.938C73.8945 209.813 72.5659 210.67 71.223 211.504C71.1689 211.538 71.1229 211.455 71.1727 211.418Z" fill="#263238"/>
<path d="M121.845 204.523L98.5479 206.6L106.845 174.781L130.142 172.704L121.845 204.523Z" fill="#EBEBEB"/>
<path d="M123.44 204.381L100.142 206.458L108.439 174.639L131.737 172.562L123.44 204.381Z" fill="#FFC727"/>
<path d="M110.915 174.422C110.817 174.919 110.505 175.448 110.021 175.767C109.81 175.909 109.725 175.615 109.935 175.478C110.24 175.272 110.449 174.944 110.544 174.627C110.559 174.57 110.576 174.506 110.584 174.451C110.625 174.241 110.628 174.035 110.569 173.861C110.54 173.775 110.492 173.71 110.421 173.662C110.421 173.662 110.41 173.656 110.405 173.649C110.394 173.644 110.38 173.645 110.376 173.639C110.363 173.64 110.331 173.635 110.331 173.635C110.275 173.626 110.227 173.638 110.169 173.664C110.075 173.699 109.991 173.776 109.916 173.865C109.82 173.984 109.77 174.078 109.711 174.207C109.676 174.264 109.653 174.329 109.624 174.393L109.613 174.436C109.6 174.458 109.595 174.479 109.59 174.5C109.586 174.514 109.576 174.529 109.578 174.542L109.248 174.572C109.3 174.368 109.396 174.153 109.513 173.95C109.717 173.615 110.011 173.328 110.359 173.283C110.672 173.248 110.854 173.466 110.921 173.728C110.977 173.934 110.972 174.176 110.915 174.422Z" fill="#455A64"/>
<path d="M112.738 174.259C112.641 174.756 112.328 175.285 111.845 175.604C111.634 175.746 111.549 175.452 111.759 175.315C112.064 175.109 112.272 174.781 112.368 174.463C112.383 174.407 112.399 174.344 112.407 174.288C112.449 174.078 112.452 173.872 112.393 173.698C112.364 173.612 112.317 173.547 112.245 173.498C112.245 173.498 112.234 173.492 112.229 173.486C112.218 173.48 112.204 173.481 112.2 173.475C112.187 173.476 112.155 173.472 112.155 173.472C112.099 173.463 112.052 173.475 111.993 173.5C111.9 173.536 111.815 173.613 111.741 173.702C111.645 173.821 111.595 173.915 111.535 174.044C111.5 174.101 111.477 174.166 111.448 174.23L111.436 174.273C111.424 174.295 111.419 174.316 111.413 174.337C111.41 174.351 111.4 174.366 111.402 174.379L111.071 174.409C111.125 174.205 111.219 173.99 111.337 173.787C111.54 173.452 111.835 173.165 112.183 173.12C112.496 173.085 112.678 173.303 112.745 173.565C112.8 173.772 112.795 174.013 112.738 174.259Z" fill="#455A64"/>
<path d="M114.561 174.096C114.464 174.593 114.151 175.123 113.668 175.441C113.457 175.584 113.372 175.289 113.582 175.153C113.887 174.947 114.095 174.619 114.191 174.301C114.206 174.245 114.222 174.182 114.23 174.126C114.272 173.916 114.275 173.709 114.216 173.536C114.187 173.449 114.14 173.384 114.068 173.336C114.068 173.336 114.057 173.33 114.052 173.324C114.041 173.318 114.027 173.319 114.023 173.313C114.01 173.314 113.979 173.31 113.979 173.31C113.923 173.301 113.875 173.312 113.816 173.338C113.723 173.374 113.638 173.45 113.564 173.54C113.468 173.658 113.418 173.752 113.358 173.881C113.324 173.939 113.301 174.003 113.271 174.068L113.26 174.11C113.248 174.132 113.242 174.153 113.237 174.175C113.233 174.189 113.223 174.203 113.226 174.217L112.895 174.246C112.949 174.042 113.043 173.828 113.161 173.624C113.364 173.29 113.659 173.002 114.007 172.957C114.319 172.923 114.502 173.14 114.569 173.402C114.624 173.61 114.619 173.85 114.561 174.096Z" fill="#455A64"/>
<path d="M116.385 173.934C116.288 174.431 115.975 174.961 115.492 175.279C115.28 175.421 115.195 175.127 115.405 174.991C115.711 174.785 115.919 174.457 116.015 174.139C116.03 174.083 116.046 174.02 116.054 173.964C116.096 173.754 116.098 173.547 116.04 173.374C116.01 173.287 115.962 173.223 115.891 173.174C115.891 173.174 115.88 173.169 115.875 173.162C115.864 173.156 115.85 173.158 115.846 173.151C115.833 173.153 115.802 173.149 115.802 173.149C115.746 173.14 115.698 173.151 115.64 173.177C115.546 173.213 115.462 173.289 115.387 173.379C115.291 173.497 115.241 173.591 115.182 173.72C115.147 173.778 115.124 173.842 115.094 173.906L115.083 173.949C115.07 173.97 115.065 173.992 115.06 174.013C115.056 174.027 115.046 174.042 115.049 174.055L114.718 174.085C114.771 173.881 114.866 173.666 114.983 173.463C115.187 173.128 115.482 172.841 115.829 172.796C116.142 172.761 116.324 172.979 116.392 173.24C116.447 173.447 116.443 173.688 116.385 173.934Z" fill="#455A64"/>
<path d="M118.208 173.771C118.111 174.268 117.799 174.799 117.315 175.116C117.104 175.259 117.019 174.964 117.229 174.829C117.535 174.623 117.743 174.295 117.838 173.977C117.853 173.92 117.869 173.857 117.878 173.802C117.919 173.592 117.922 173.385 117.863 173.212C117.834 173.125 117.787 173.06 117.715 173.011C117.715 173.011 117.704 173.005 117.699 172.999C117.688 172.993 117.674 172.995 117.67 172.988C117.657 172.989 117.626 172.986 117.626 172.986C117.57 172.977 117.522 172.988 117.463 173.014C117.37 173.05 117.285 173.126 117.211 173.215C117.115 173.334 117.065 173.428 117.006 173.557C116.971 173.615 116.948 173.679 116.918 173.744L116.907 173.786C116.895 173.808 116.889 173.829 116.884 173.85C116.88 173.865 116.87 173.879 116.872 173.893L116.542 173.922C116.595 173.718 116.69 173.503 116.807 173.3C117.01 172.966 117.305 172.678 117.653 172.633C117.966 172.598 118.148 172.816 118.215 173.078C118.271 173.284 118.266 173.526 118.208 173.771Z" fill="#455A64"/>
<path d="M120.032 173.608C119.935 174.105 119.622 174.635 119.139 174.953C118.927 175.096 118.842 174.801 119.052 174.665C119.357 174.459 119.566 174.131 119.662 173.813C119.677 173.757 119.693 173.694 119.701 173.638C119.742 173.428 119.745 173.221 119.686 173.048C119.657 172.961 119.609 172.896 119.538 172.848C119.538 172.848 119.527 172.842 119.522 172.836C119.511 172.83 119.497 172.832 119.493 172.825C119.48 172.826 119.448 172.822 119.448 172.822C119.392 172.813 119.344 172.824 119.286 172.85C119.193 172.886 119.108 172.962 119.033 173.052C118.938 173.17 118.888 173.264 118.828 173.393C118.794 173.451 118.77 173.515 118.741 173.58L118.73 173.622C118.717 173.644 118.712 173.665 118.707 173.687C118.703 173.701 118.693 173.716 118.696 173.729L118.365 173.759C118.418 173.554 118.513 173.339 118.63 173.136C118.834 172.802 119.129 172.514 119.476 172.469C119.789 172.435 119.971 172.652 120.039 172.914C120.095 173.122 120.09 173.362 120.032 173.608Z" fill="#455A64"/>
<path d="M121.856 173.446C121.759 173.943 121.446 174.473 120.962 174.791C120.751 174.933 120.666 174.639 120.876 174.503C121.181 174.297 121.39 173.969 121.485 173.651C121.5 173.594 121.517 173.531 121.525 173.475C121.566 173.266 121.569 173.059 121.51 172.885C121.481 172.799 121.433 172.734 121.362 172.685C121.362 172.685 121.351 172.679 121.346 172.673C121.335 172.667 121.322 172.668 121.317 172.662C121.304 172.663 121.272 172.659 121.272 172.659C121.216 172.65 121.168 172.662 121.11 172.688C121.016 172.724 120.932 172.8 120.857 172.889C120.761 173.008 120.712 173.102 120.652 173.231C120.617 173.289 120.594 173.353 120.564 173.418L120.553 173.46C120.541 173.482 120.536 173.503 120.53 173.524C120.526 173.538 120.516 173.553 120.519 173.567L120.188 173.596C120.241 173.392 120.336 173.177 120.454 172.974C120.657 172.64 120.952 172.352 121.3 172.307C121.612 172.272 121.795 172.49 121.862 172.752C121.918 172.959 121.913 173.2 121.856 173.446Z" fill="#455A64"/>
<path d="M123.678 173.283C123.581 173.78 123.268 174.311 122.785 174.628C122.574 174.771 122.489 174.476 122.699 174.34C123.004 174.134 123.212 173.806 123.308 173.488C123.323 173.432 123.339 173.369 123.347 173.313C123.389 173.103 123.392 172.896 123.333 172.723C123.304 172.636 123.257 172.572 123.185 172.523C123.185 172.523 123.174 172.518 123.169 172.511C123.158 172.505 123.144 172.507 123.14 172.5C123.127 172.502 123.095 172.497 123.095 172.497C123.039 172.488 122.991 172.5 122.933 172.525C122.839 172.561 122.755 172.638 122.68 172.727C122.584 172.846 122.534 172.939 122.475 173.068C122.44 173.127 122.417 173.19 122.387 173.255L122.376 173.298C122.363 173.319 122.358 173.341 122.353 173.362C122.349 173.376 122.339 173.391 122.342 173.404L122.011 173.434C122.064 173.23 122.159 173.014 122.276 172.812C122.48 172.477 122.775 172.19 123.122 172.145C123.435 172.11 123.617 172.328 123.685 172.589C123.741 172.797 123.736 173.038 123.678 173.283Z" fill="#455A64"/>
<path d="M125.502 173.121C125.405 173.618 125.093 174.148 124.609 174.466C124.398 174.609 124.313 174.314 124.523 174.178C124.828 173.972 125.037 173.644 125.132 173.326C125.147 173.269 125.163 173.206 125.172 173.151C125.213 172.941 125.216 172.734 125.157 172.561C125.128 172.474 125.08 172.409 125.009 172.36C125.009 172.36 124.998 172.355 124.993 172.348C124.982 172.342 124.968 172.344 124.964 172.337C124.951 172.338 124.919 172.334 124.919 172.334C124.863 172.325 124.815 172.337 124.757 172.362C124.663 172.398 124.579 172.475 124.504 172.564C124.408 172.683 124.359 172.776 124.299 172.905C124.264 172.964 124.241 173.027 124.212 173.092L124.201 173.135C124.188 173.156 124.183 173.178 124.178 173.199C124.174 173.213 124.164 173.228 124.166 173.241L123.835 173.271C123.888 173.066 123.983 172.851 124.101 172.649C124.304 172.314 124.599 172.026 124.947 171.982C125.26 171.947 125.442 172.164 125.509 172.426C125.565 172.634 125.56 172.875 125.502 173.121Z" fill="#455A64"/>
<path d="M127.326 172.959C127.229 173.456 126.916 173.985 126.433 174.304C126.221 174.446 126.137 174.151 126.346 174.015C126.652 173.809 126.86 173.481 126.956 173.163C126.971 173.107 126.987 173.044 126.995 172.988C127.037 172.778 127.039 172.571 126.981 172.398C126.952 172.311 126.904 172.247 126.833 172.198C126.833 172.198 126.822 172.193 126.817 172.186C126.806 172.181 126.792 172.182 126.787 172.175C126.774 172.177 126.743 172.172 126.743 172.172C126.687 172.163 126.639 172.175 126.581 172.2C126.488 172.236 126.403 172.312 126.328 172.402C126.233 172.521 126.183 172.615 126.123 172.744C126.088 172.801 126.065 172.866 126.035 172.93L126.024 172.973C126.012 172.995 126.007 173.016 126.001 173.037C125.998 173.051 125.988 173.066 125.99 173.079L125.659 173.109C125.712 172.905 125.807 172.69 125.925 172.487C126.128 172.152 126.423 171.865 126.771 171.82C127.084 171.785 127.266 172.003 127.333 172.265C127.388 172.471 127.383 172.713 127.326 172.959Z" fill="#455A64"/>
<path d="M129.149 172.796C129.052 173.293 128.739 173.822 128.256 174.141C128.044 174.283 127.959 173.988 128.169 173.852C128.475 173.646 128.683 173.318 128.779 173C128.793 172.944 128.81 172.881 128.818 172.825C128.86 172.615 128.862 172.408 128.804 172.235C128.774 172.148 128.726 172.084 128.656 172.035C128.656 172.035 128.644 172.029 128.639 172.023C128.628 172.017 128.614 172.018 128.61 172.012C128.597 172.013 128.566 172.009 128.566 172.009C128.51 172 128.462 172.012 128.404 172.037C128.31 172.073 128.226 172.15 128.151 172.239C128.055 172.358 128.005 172.451 127.946 172.581C127.912 172.638 127.888 172.702 127.858 172.767L127.847 172.809C127.834 172.831 127.83 172.852 127.824 172.873C127.82 172.887 127.81 172.902 127.813 172.916L127.482 172.945C127.536 172.741 127.63 172.527 127.748 172.323C127.951 171.989 128.246 171.701 128.594 171.656C128.907 171.621 129.089 171.839 129.156 172.101C129.212 172.309 129.207 172.55 129.149 172.796Z" fill="#455A64"/>
<path d="M130.973 172.633C130.876 173.13 130.563 173.66 130.079 173.978C129.868 174.121 129.783 173.826 129.993 173.69C130.299 173.484 130.507 173.156 130.603 172.838C130.617 172.781 130.634 172.719 130.642 172.663C130.683 172.453 130.686 172.246 130.627 172.073C130.598 171.986 130.551 171.921 130.479 171.873C130.479 171.873 130.468 171.867 130.463 171.861C130.452 171.855 130.438 171.856 130.434 171.85C130.421 171.851 130.389 171.847 130.389 171.847C130.333 171.838 130.285 171.849 130.227 171.875C130.134 171.911 130.049 171.987 129.974 172.077C129.879 172.195 129.829 172.289 129.769 172.418C129.735 172.476 129.711 172.54 129.682 172.605L129.671 172.647C129.658 172.669 129.653 172.69 129.648 172.711C129.644 172.726 129.633 172.74 129.637 172.754L129.306 172.783C129.359 172.579 129.454 172.364 129.571 172.161C129.775 171.827 130.069 171.539 130.417 171.494C130.73 171.46 130.912 171.677 130.979 171.939C131.035 172.147 131.03 172.387 130.973 172.633Z" fill="#455A64"/>
<path d="M130.952 180.202C132.144 182.829 135.162 186.1 135.4 188.242C135.615 190.176 134.056 190.847 134.056 190.847C134.056 190.847 136.12 191.924 136.025 193.905C135.977 194.924 134.357 195.739 134.357 195.739C134.357 195.739 135.974 196.676 135.785 198.432C135.634 199.831 134.033 200.438 134.033 200.438C134.033 200.438 135.179 202.084 134.582 203.458C133.373 206.246 121.666 206.182 119.88 201.722C119.047 199.642 121.906 199.818 121.906 199.818C121.906 199.818 117.854 198.54 117.805 196.049C117.756 193.557 121.457 194.017 121.457 194.017C121.457 194.017 117.541 192.744 117.742 190.155C117.952 187.46 121.578 188.575 121.578 188.575C121.578 188.575 118.984 186.739 119.578 184.794C120.559 181.582 125.467 185.654 128.043 185.038L129.485 180.666L130.952 180.202Z" fill="#D3766A"/>
<path d="M133.279 184.02C132.361 181.431 135.478 178.257 134.945 175.651C134.224 172.126 130.366 175.557 129.486 180.666L129.479 184.757L133.279 184.02Z" fill="#D3766A"/>
<path d="M133.794 200.572C133.833 200.569 133.845 200.624 133.806 200.634C129.95 201.582 125.432 201.403 121.749 199.827C121.629 199.776 121.657 199.55 121.801 199.581C125.898 200.457 129.602 200.897 133.794 200.572Z" fill="#263238"/>
<path d="M134.414 195.764C134.459 195.76 134.466 195.838 134.418 195.849C130.44 196.803 125.357 196.458 121.319 194.125C121.181 194.045 121.134 193.829 121.301 193.91C124.099 195.251 130.641 196.076 134.414 195.764Z" fill="#263238"/>
<path d="M121.335 188.309C125.291 190.391 129.495 190.955 133.894 190.894C133.951 190.894 133.947 190.977 133.899 190.991C131.755 191.626 128.947 191.364 126.779 190.969C124.702 190.59 122.902 189.818 121.264 188.451C121.201 188.399 121.251 188.265 121.335 188.309Z" fill="#263238"/>
<path d="M220.678 255.983C220.138 257.49 193.666 291.453 191.863 292.089C191.181 292.335 186.164 288.644 180.225 284.007C178.941 283.005 177.623 281.963 176.29 280.897C167.625 273.987 158.586 266.446 158.586 266.446L176.231 243.674L193.448 258.752L197.231 262.059C197.231 262.059 213.001 253.734 215.05 253.255C217.094 252.782 221.218 254.477 220.678 255.983Z" fill="#D3766A"/>
<path d="M220.678 255.983C220.138 257.49 193.666 291.453 191.863 292.089C191.031 292.384 183.797 286.875 176.289 280.897L193.448 258.752L197.23 262.059C197.23 262.059 213 253.734 215.05 253.255C217.093 252.782 221.218 254.477 220.678 255.983Z" fill="white"/>
<path d="M220.678 255.983C220.138 257.49 193.666 291.453 191.863 292.089C191.181 292.335 186.164 288.644 180.225 284.007L197.23 262.059C197.23 262.059 213 253.734 215.05 253.255C217.094 252.782 221.218 254.477 220.678 255.983Z" fill="#FFC727"/>
<path d="M218.982 255.377C214.409 260.958 196.476 283.913 192.366 289.789C192.332 289.836 192.363 289.861 192.401 289.817C197.05 284.387 214.803 261.284 219.073 255.452C219.163 255.329 219.078 255.259 218.982 255.377Z" fill="#263238"/>
<path d="M212.163 254.456C211.057 255.762 210.65 257.597 210.855 258.98C211.053 260.309 211.634 261.788 212.808 262.698C212.842 262.724 212.892 262.662 212.862 262.629C210.957 260.511 210.64 256.91 212.232 254.513C212.264 254.465 212.201 254.411 212.163 254.456Z" fill="#263238"/>
<path d="M199.5 260.305C197.693 262.559 196.413 265.848 197.115 268.763C197.142 268.876 197.297 268.834 197.317 268.739C197.893 265.824 198.653 263.23 199.802 260.492C199.883 260.299 199.629 260.144 199.5 260.305Z" fill="#263238"/>
<path d="M201.535 259.098C199.728 261.351 198.448 264.64 199.151 267.555C199.178 267.668 199.333 267.627 199.352 267.531C199.928 264.617 200.688 262.022 201.838 259.284C201.919 259.091 201.665 258.937 201.535 259.098Z" fill="#263238"/>
<path d="M203.571 257.89C201.764 260.144 200.484 263.432 201.186 266.348C201.213 266.461 201.368 266.419 201.388 266.323C201.964 263.409 202.724 260.814 203.874 258.076C203.954 257.884 203.7 257.729 203.571 257.89Z" fill="#263238"/>
<path d="M205.606 256.683C203.799 258.937 202.519 262.226 203.221 265.141C203.249 265.254 203.404 265.212 203.423 265.116C204 262.202 204.76 259.607 205.909 256.869C205.989 256.676 205.736 256.521 205.606 256.683Z" fill="#263238"/>
<path d="M188.257 283.987C186.272 286.55 190.127 289.739 192.115 287.172C194.101 284.61 190.246 281.421 188.257 283.987Z" fill="white"/>
<path d="M195.528 252.951C193.702 253.335 193.475 255.54 193.883 257.05C194.544 259.496 196.111 262.102 197.915 263.809C197.96 263.85 198.007 263.829 198.034 263.79C198.23 263.873 198.513 263.79 198.531 263.528C198.709 261.003 199.201 258.326 198.623 255.82C198.284 254.357 197.255 252.588 195.528 252.951ZM198.041 259.643C197.983 260.887 197.866 262.12 197.853 263.366C197.07 262.046 196.236 260.767 195.583 259.366C195.271 258.698 194.964 258.004 194.743 257.297C194.399 256.196 194.297 252.427 196.876 254.195C198.297 255.17 198.11 258.16 198.041 259.643Z" fill="#263238"/>
<path d="M194.32 270.15C196.162 268.411 197.21 265.91 198.436 263.717C198.563 263.49 198.374 263.257 198.167 263.212C198.166 263.164 198.138 263.119 198.079 263.128C195.657 263.497 192.944 264.745 191.067 266.386C189.908 267.4 188.897 269.357 190.199 270.732C191.431 272.033 193.245 271.165 194.32 270.15ZM191.991 270.482C188.896 270.451 191.03 267.391 191.912 266.679C192.48 266.221 193.112 265.827 193.733 265.453C195.036 264.672 196.421 264.097 197.788 263.458C197.121 264.496 196.547 265.585 195.919 266.648C195.169 267.916 193.698 270.499 191.991 270.482Z" fill="#263238"/>
<path d="M192.527 255.315L174.165 280.885L112.205 236.509L106.23 232.227C106.23 232.227 104.539 233.402 101.992 234.856C98.4548 236.874 93.2711 239.429 88.6857 240.127C80.994 241.301 69.3943 241.176 62.9119 232.227C57.4513 224.693 59.173 214.863 59.173 214.863L67.6185 211.12C67.6185 211.12 87.6053 193.932 100.552 193.414C106.05 193.188 114.058 197.49 121.473 201.984C128.882 206.472 192.527 255.315 192.527 255.315Z" fill="#37474F"/>
<path d="M106.231 232.227C106.231 232.227 104.54 233.402 101.993 234.856C97.4907 229.293 87.9598 219.19 87.6699 218.831L106.231 232.227Z" fill="#263238"/>
<path d="M74.9427 205.366C73.7478 206.222 72.5922 207.132 71.4135 208.011C70.2541 208.876 69.0573 209.688 67.9551 210.632C66.8343 211.592 65.7719 212.617 64.7158 213.651C64.2063 214.15 63.7007 214.653 63.2087 215.17C62.7204 215.682 62.1743 216.197 61.77 216.782C61.732 216.837 61.8085 216.902 61.8577 216.869C62.4287 216.491 62.9406 215.973 63.4587 215.524C64.0179 215.039 64.5708 214.545 65.1275 214.057C66.2017 213.114 67.2971 212.198 68.3688 211.253C69.4336 210.313 70.4201 209.286 71.4744 208.335C72.6033 207.317 73.7932 206.37 74.9657 205.406C74.9887 205.388 74.9669 205.349 74.9427 205.366Z" fill="#263238"/>
<path d="M188.216 254.398C187.023 255.725 185.921 257.154 184.81 258.555C183.694 259.962 182.586 261.374 181.486 262.793C179.284 265.633 177.063 268.459 174.899 271.329C173.71 272.906 172.536 274.495 171.431 276.136C171.381 276.209 171.495 276.291 171.551 276.227C173.92 273.538 176.086 270.67 178.283 267.833C180.484 264.991 182.678 262.141 184.838 259.265C186.02 257.69 187.239 256.125 188.325 254.479C188.368 254.414 188.267 254.341 188.216 254.398Z" fill="#263238"/>
<path d="M141.179 257.188C138.096 254.68 131.087 249.784 127.891 247.432C124.711 245.092 121.533 242.745 118.306 240.475C117.379 239.824 116.444 239.185 115.51 238.545C114.579 237.905 113.608 237.315 112.695 236.651C112.642 236.612 112.594 236.703 112.647 236.742C113.485 237.362 114.277 238.058 115.101 238.702C115.888 239.317 116.668 239.939 117.461 240.545C119.01 241.728 120.573 242.889 122.134 244.054C125.299 246.416 128.488 248.749 131.71 251.028C133.539 252.323 139.172 256.152 141.042 257.383C141.152 257.456 141.285 257.274 141.179 257.188Z" fill="#263238"/>
<path d="M160.621 230.768C157.773 228.331 151.278 223.647 148.293 221.394C145.272 219.115 142.268 216.815 139.236 214.553C136.228 212.309 133.22 210.064 130.212 207.82C127.296 205.644 124.394 203.433 121.314 201.507C119.629 200.453 117.9 199.476 116.123 198.596C114.398 197.741 112.604 196.871 110.759 196.334C110.703 196.318 110.673 196.401 110.722 196.43C112.24 197.305 113.834 198.041 115.371 198.885C116.889 199.72 118.386 200.599 119.857 201.519C122.914 203.432 125.8 205.605 128.701 207.758C134.725 212.229 140.735 216.718 146.802 221.127C150.196 223.594 156.962 228.692 160.487 230.959C160.596 231.03 160.723 230.855 160.621 230.768Z" fill="#263238"/>
<path d="M282.011 200.664C275.927 209.169 269.583 219.038 268.038 229.704C268.019 229.865 268.27 229.918 268.306 229.758C269.012 226.833 269.906 223.992 270.997 221.218C274.997 220.082 278.922 219.149 281.024 215.051C283.166 210.839 282.894 205.347 282.487 200.759C282.458 200.512 282.134 200.5 282.011 200.664Z" fill="#FFC727"/>
<path d="M271.057 221.138C273.79 214.808 277.299 208.451 281.759 203.246C281.789 203.21 281.836 203.261 281.808 203.296C278.889 207.004 276.67 211.042 274.503 215.15C276.518 213.039 278.725 211.148 280.634 208.909C280.671 208.866 280.73 208.929 280.695 208.973C278.8 211.319 276.73 213.87 274.263 215.607C273.6 216.867 272.933 218.132 272.256 219.396C272.421 219.3 272.593 219.215 272.763 219.128C272.793 219.113 272.819 219.159 272.789 219.174C272.6 219.273 272.414 219.376 272.22 219.461C271.9 220.06 271.582 220.658 271.253 221.255C271.178 221.389 270.999 221.272 271.057 221.138Z" fill="#263238"/>
<path d="M273.09 218.93C274.721 217.965 276.294 216.928 277.761 215.712C277.801 215.679 277.859 215.736 277.818 215.771C276.377 217.03 274.841 218.157 273.158 219.048C273.082 219.088 273.016 218.974 273.09 218.93Z" fill="#263238"/>
<path d="M267.334 228.119C267.347 228.248 267.559 228.246 267.557 228.108C267.588 224.596 267.56 221.068 267.611 217.539C268.483 215.724 270.354 214.718 271.655 213.263C272.593 212.213 273.395 211.029 274.082 209.775C275.691 206.804 276.562 203.463 276.898 200.086C277.257 196.329 275.876 183.932 274.342 184.363C273.546 184.586 270.971 190.726 270.288 192.756C269.169 196.096 268.382 199.556 267.867 203.048C266.622 211.314 266.726 219.801 267.334 228.119Z" fill="#FFC727"/>
<path d="M267.31 212.967C267.315 212.962 267.32 212.958 267.325 212.953C267.511 208.509 268.481 204.021 269.39 199.711C270.368 195.067 271.511 190.695 273.826 186.554C273.869 186.477 273.98 186.545 273.941 186.623C272.366 189.827 271.239 193.229 270.377 196.722C270.532 196.472 270.721 196.234 270.882 195.998C270.945 195.905 271.094 195.992 271.032 196.089C270.805 196.439 270.599 196.847 270.308 197.143C270.298 197.152 270.288 197.154 270.278 197.157C269.481 200.475 268.909 203.871 268.419 207.257C268.456 207.214 268.491 207.168 268.528 207.127C268.553 207.099 268.595 207.134 268.579 207.166C268.518 207.279 268.45 207.39 268.383 207.502C268.137 209.221 267.908 210.937 267.678 212.637C270.643 210.021 273.175 206.938 274.604 203.138C274.611 203.121 274.638 203.128 274.632 203.147C273.232 207.087 271.027 210.591 267.631 212.982C267.569 213.44 267.507 213.898 267.444 214.354C267.431 214.449 267.285 214.424 267.285 214.332C267.287 213.927 267.306 213.521 267.321 213.115C267.279 213.077 267.259 213.011 267.31 212.967Z" fill="#263238"/>
<path d="M268.707 206.528C270.973 203.037 273.089 199.647 274.747 195.789C274.766 195.746 274.838 195.777 274.822 195.821C273.424 199.654 271.467 203.539 268.82 206.618C268.766 206.681 268.661 206.598 268.707 206.528Z" fill="#263238"/>
<path d="M271.718 194.927C272.657 193.212 273.647 191.544 274.53 189.796C274.555 189.747 274.62 189.79 274.6 189.838C273.858 191.625 272.973 193.439 271.863 195.014C271.801 195.102 271.664 195.025 271.718 194.927Z" fill="#263238"/>
<path d="M271.351 195.672C271.369 195.672 271.369 195.702 271.351 195.702C271.333 195.702 271.333 195.672 271.351 195.672Z" fill="#263238"/>
<path d="M265.031 217.961C264.973 220.288 264.73 222.616 264.236 224.881C264.271 225.131 264.306 225.381 264.341 225.639C265.052 223.117 265.424 220.533 265.541 217.926C265.579 217.853 265.595 217.775 265.551 217.687C265.551 217.687 265.551 217.687 265.551 217.679C265.679 214.196 265.366 210.675 264.8 207.228C263.746 200.773 261.444 194.579 257.082 189.741C256.944 189.592 256.668 189.669 256.6 189.843C254.84 194.462 255.454 199.973 256.953 204.582C257.769 207.064 258.934 209.447 260.412 211.581C261.908 213.753 263.816 215.589 265.031 217.961Z" fill="#FFC727"/>
<path d="M257.598 191.902C261.731 198.826 264.607 207.035 264.958 215.215C264.965 215.36 264.728 215.398 264.708 215.25C264.611 214.515 264.502 213.787 264.387 213.061C264.385 213.059 264.382 213.061 264.381 213.059C262.671 211.368 260.915 209.585 259.691 207.472C259.67 207.435 259.721 207.391 259.75 207.425C261.238 209.18 262.626 210.978 264.305 212.543C264.009 210.735 263.659 208.955 263.244 207.202C263.133 207.071 263.025 206.936 262.916 206.805C262.845 206.718 262.964 206.592 263.039 206.678C263.072 206.716 263.105 206.754 263.138 206.792C262.553 204.385 261.838 202.026 260.978 199.71C259.925 198.415 258.749 197.295 257.982 195.734C257.963 195.696 258.013 195.667 258.037 195.701C258.653 196.593 259.249 197.491 259.948 198.32C260.227 198.65 260.532 198.958 260.821 199.28C259.881 196.807 258.764 194.383 257.437 191.999C257.379 191.892 257.535 191.797 257.598 191.902Z" fill="#263238"/>
<path d="M258.433 200.443C259.769 202.299 261.292 204.07 262.533 205.988C262.569 206.043 262.491 206.1 262.447 206.057C260.851 204.512 259.501 202.401 258.343 200.498C258.307 200.438 258.395 200.389 258.433 200.443Z" fill="#263238"/>
<path d="M262.721 206.418L262.777 206.477C262.816 206.519 262.755 206.581 262.716 206.541L262.66 206.482C262.621 206.441 262.681 206.377 262.721 206.418Z" fill="#263238"/>
<path d="M251.121 205.213C251.454 208.775 253.269 213.03 255.483 215.776C256.464 216.99 257.654 217.919 259.02 218.625C260.552 219.407 262.156 220.308 263.741 220.95C264.482 222.902 265.049 224.947 265.413 227.078C265.464 226.899 265.515 226.713 265.566 226.535C264.549 217.516 258.894 209.808 251.661 204.858C251.401 204.679 251.093 204.908 251.121 205.213Z" fill="#FFC727"/>
<path d="M253.621 207.878C253.57 207.831 253.639 207.736 253.694 207.779C257.527 210.71 260.981 214.983 262.91 219.502C262.963 219.626 262.799 219.734 262.731 219.611C262.395 219.003 262.051 218.412 261.703 217.831C261.701 217.83 261.701 217.832 261.698 217.831C260.047 217.51 258.484 216.311 257.258 215.173C257.225 215.142 257.274 215.092 257.307 215.122C257.947 215.704 258.634 216.237 259.396 216.636C260.069 216.989 260.794 217.212 261.494 217.494C260.882 216.492 260.245 215.531 259.579 214.598C257.803 213.973 256.111 212.847 254.617 211.719C254.571 211.684 254.612 211.604 254.664 211.637C256.186 212.583 257.686 213.415 259.275 214.181C258.275 212.813 257.191 211.517 256.02 210.263C255.459 209.958 254.89 209.65 254.346 209.323C254.302 209.297 254.331 209.219 254.382 209.236C254.814 209.385 255.256 209.619 255.666 209.888C255.013 209.207 254.341 208.534 253.621 207.878Z" fill="#263238"/>
<path d="M253.775 210.992C253.874 211.058 253.965 211.117 254.053 211.197C254.079 211.221 254.045 211.257 254.018 211.244C253.912 211.196 253.825 211.138 253.728 211.074C253.678 211.041 253.724 210.959 253.775 210.992Z" fill="#263238"/>
<path d="M276.853 246.61H257.034L258.634 227.98L258.986 223.872H274.903L275.253 227.98L276.853 246.61Z" fill="#455A64"/>
<path d="M275.253 227.98H258.634L258.986 223.872H274.903L275.253 227.98Z" fill="#263238"/>
<path d="M275.851 221H258.037V225.065H275.851V221Z" fill="#455A64"/>
</svg>
