<svg width="202" height="200" viewBox="0 0 202 200" fill="none" xmlns="http://www.w3.org/2000/svg">
<path d="M181.848 115.936C181.848 115.936 178.212 114.736 176.467 123.064C174.722 131.392 174.447 135.972 174.447 135.972C174.447 135.972 173.874 137.768 172.536 137.056C171.199 136.344 168.965 133.9 167.304 134.9C165.579 135.936 165.535 138.168 166.731 141.108C167.927 144.048 170.302 150.584 170.512 151.176C170.722 151.768 170.621 152.724 169.632 152.376C168.642 152.028 162.396 148.048 160.659 151.1C158.921 154.152 163.612 161.796 164.109 162.64C164.606 163.484 164.533 163.924 164.157 164.268C163.782 164.612 161.81 163.068 159.984 162.016C158.158 160.964 155.859 160.04 155.007 161.88C154.154 163.72 155.467 170.056 164.242 178.552L168.565 182.224L173.995 180.428C185.375 175.892 189.032 170.532 188.943 168.508C188.854 166.484 186.381 166.46 184.289 166.752C182.196 167.044 179.776 167.72 179.562 167.26C179.348 166.8 179.449 166.368 180.232 165.772C181.016 165.176 188.312 159.876 187.868 156.404C187.424 152.932 180.127 154.256 179.081 154.2C178.035 154.144 178.313 153.208 178.734 152.752C179.154 152.296 183.873 147.152 186.107 144.872C188.341 142.592 189.161 140.524 187.969 138.916C186.777 137.308 183.808 138.78 182.313 138.936C180.818 139.092 180.992 137.2 180.992 137.2C180.992 137.2 182.519 132.856 184.111 124.512C185.703 116.168 181.784 115.9 181.784 115.9" fill="#EBEBEB"/>
<path d="M168.553 181.04C169.765 174.916 171.462 166.472 173.401 157.152C175.34 147.832 177.069 139.392 178.297 133.276C178.903 130.224 179.396 127.752 179.739 126.032C179.909 125.184 180.042 124.52 180.143 124.064C180.188 123.844 180.224 123.664 180.253 123.552C180.281 123.44 180.293 123.38 180.293 123.38C180.293 123.38 180.293 123.44 180.269 123.556L180.184 124.072C180.099 124.532 179.978 125.196 179.824 126.048C179.509 127.76 179.037 130.24 178.439 133.304C177.247 139.424 175.53 147.868 173.591 157.188C171.651 166.508 169.922 174.952 168.694 181.068" fill="#E0E0E0"/>
<path d="M170.306 138.44C170.403 138.539 170.486 138.651 170.553 138.772C170.698 138.988 170.9 139.312 171.146 139.712C171.635 140.512 172.286 141.64 172.977 142.912C173.667 144.184 174.261 145.264 174.73 146.132L175.267 147.104C175.34 147.22 175.401 147.343 175.449 147.472C175.354 147.373 175.271 147.263 175.203 147.144C175.053 146.924 174.851 146.6 174.609 146.196C174.128 145.396 173.494 144.256 172.803 142.996L171.029 139.796C170.815 139.416 170.625 139.092 170.488 138.824C170.412 138.704 170.35 138.575 170.306 138.44Z" fill="#E0E0E0"/>
<path d="M175.978 147.416C175.95 147.368 178.233 145.944 181.077 144.216C183.921 142.488 186.244 141.164 186.28 141.2C186.317 141.236 184.026 142.668 181.178 144.4C178.33 146.132 176.007 147.46 175.978 147.416Z" fill="#E0E0E0"/>
<path d="M172.366 161.6C172.495 161.539 172.631 161.495 172.77 161.468L173.877 161.172C174.807 160.92 176.091 160.568 177.493 160.132C178.895 159.696 180.156 159.26 181.065 158.932L182.143 158.552C182.273 158.497 182.408 158.457 182.547 158.432C182.43 158.509 182.304 158.573 182.172 158.62C181.925 158.732 181.566 158.884 181.113 159.06C180.216 159.416 178.964 159.86 177.554 160.312C176.144 160.764 174.851 161.08 173.918 161.3C173.445 161.408 173.065 161.488 172.799 161.536C172.658 161.575 172.513 161.596 172.366 161.6Z" fill="#E0E0E0"/>
<path d="M165.43 154.596C165.541 154.665 165.642 154.747 165.733 154.84C165.919 155.008 166.181 155.24 166.505 155.556C167.151 156.168 168.032 157.02 168.997 157.956C169.963 158.892 170.831 159.772 171.45 160.408C171.761 160.724 172.011 160.984 172.181 161.168C172.274 161.257 172.357 161.356 172.427 161.464C172.315 161.398 172.213 161.315 172.124 161.22C171.938 161.056 171.676 160.82 171.353 160.504C170.71 159.896 169.825 159.04 168.86 158.104C167.894 157.168 167.026 156.284 166.408 155.648C166.097 155.332 165.846 155.072 165.68 154.892C165.585 154.804 165.5 154.705 165.43 154.596Z" fill="#E0E0E0"/>
<path d="M160.634 166.716C160.771 166.809 160.898 166.915 161.014 167.032L162.008 167.948C162.84 168.724 163.979 169.808 165.24 171.016C166.5 172.224 167.615 173.32 168.419 174.124L169.369 175.084C169.492 175.194 169.602 175.317 169.696 175.452C169.558 175.361 169.431 175.255 169.316 175.136L168.322 174.224C167.494 173.444 166.355 172.36 165.09 171.152C163.826 169.944 162.719 168.848 161.911 168.044L160.962 167.084C160.841 166.971 160.732 166.848 160.634 166.716Z" fill="#E0E0E0"/>
<path d="M169.531 175.2C169.691 175.125 169.859 175.064 170.031 175.02L171.417 174.596C172.585 174.236 174.201 173.732 175.966 173.128C177.732 172.524 179.315 171.928 180.463 171.528L181.82 171.02C181.983 170.95 182.152 170.896 182.325 170.856C182.174 170.949 182.014 171.028 181.848 171.092C181.533 171.232 181.081 171.424 180.511 171.656C179.38 172.12 177.8 172.728 176.027 173.328C174.253 173.928 172.637 174.416 171.454 174.744C170.864 174.904 170.383 175.032 170.052 175.108C169.881 175.155 169.707 175.186 169.531 175.2Z" fill="#E0E0E0"/>
<path d="M114.825 50.716H76.5095V90.26H114.825V50.716Z" fill="#E0E0E0"/>
<path d="M112.231 50.716H73.9158V90.26H112.231V50.716Z" fill="#EBEBEB"/>
<path d="M107.08 56.032H79.0669V84.944H107.08V56.032Z" fill="#FAFAFA"/>
<path d="M79.0667 85.136C78.8613 85.4252 78.6272 85.6932 78.3678 85.936C77.9153 86.4 77.285 87.032 76.5821 87.72C75.8791 88.408 75.2287 89.02 74.756 89.456C74.5103 89.7088 74.2396 89.9366 73.948 90.136C74.1496 89.8451 74.3826 89.5769 74.6429 89.336C75.0913 88.872 75.7256 88.24 76.4326 87.548C77.1396 86.856 77.786 86.244 78.2587 85.808C78.5052 85.5584 78.7758 85.3333 79.0667 85.136Z" fill="#E0E0E0"/>
<path d="M107.08 85.068C107.372 85.2716 107.643 85.5034 107.888 85.76C108.361 86.204 108.995 86.828 109.69 87.528C110.385 88.228 111.007 88.864 111.447 89.336C111.702 89.5788 111.931 89.8469 112.13 90.136C111.838 89.9327 111.567 89.7009 111.322 89.444C110.853 89 110.215 88.376 109.52 87.676C108.825 86.976 108.203 86.336 107.759 85.864C107.506 85.6218 107.279 85.3552 107.08 85.068Z" fill="#E0E0E0"/>
<path d="M107.003 56.108C107.209 55.8191 107.443 55.5511 107.702 55.308C108.151 54.844 108.781 54.212 109.488 53.524C110.195 52.836 110.837 52.224 111.314 51.784C111.56 51.533 111.831 51.3066 112.122 51.108C111.919 51.3976 111.686 51.6657 111.427 51.908C110.975 52.372 110.345 53.004 109.638 53.692C108.931 54.38 108.284 55 107.807 55.436C107.565 55.6885 107.295 55.9138 107.003 56.108Z" fill="#E0E0E0"/>
<path d="M78.9901 56.18C78.6978 55.977 78.427 55.7451 78.1821 55.488C77.7134 55.044 77.0751 54.42 76.3802 53.72C75.6853 53.02 75.0672 52.384 74.6269 51.912C74.3719 51.6695 74.143 51.4014 73.9441 51.112C74.2291 51.3149 74.493 51.5454 74.7319 51.8C75.2046 52.248 75.8429 52.872 76.5378 53.572C77.2327 54.272 77.8548 54.912 78.2952 55.384C78.5536 55.6252 78.7864 55.8919 78.9901 56.18Z" fill="#E0E0E0"/>
<path d="M107.003 84.944C107.003 84.944 107.003 84.896 107.003 84.804C107.003 84.712 107.003 84.576 107.003 84.404C107.003 84.044 107.003 83.52 107.003 82.844C107.003 81.476 107.003 79.484 106.979 76.952C106.979 71.892 106.951 64.672 106.931 56.032L107.023 56.124H79.0869L79.1919 56.02C79.1919 66.632 79.1919 76.56 79.1919 84.932L79.103 84.844L99.3354 84.888L105.016 84.912H106.518H107.04H106.914H106.539H105.052L99.396 84.936L79.1071 84.984H79.0142V84.892C79.0142 76.52 79.0142 66.592 79.0142 55.98V55.876H79.1192H107.056H107.149V55.968C107.149 64.632 107.112 71.872 107.1 76.948C107.1 79.472 107.08 81.456 107.076 82.816C107.076 83.488 107.076 84.016 107.076 84.36C107.076 84.528 107.076 84.656 107.076 84.76C107.076 84.864 107.003 84.944 107.003 84.944Z" fill="#E0E0E0"/>
<path d="M86.456 68.112C86.456 68.112 85.854 75.268 93.6836 75.268C93.6876 71.448 90.496 68.436 86.456 68.112Z" fill="#EBEBEB"/>
<path d="M100.786 68.116C100.786 68.116 93.5583 67.524 93.5583 75.276C97.4165 75.276 100.463 72.124 100.786 68.116Z" fill="#EBEBEB"/>
<path d="M93.3442 64.2C93.3442 64.2 87.4337 69.448 93.6674 75.268C96.556 72.232 96.3177 67.464 93.3442 64.2Z" fill="#E0E0E0"/>
<path d="M54.6047 24.26H22.115V57.792H54.6047V24.26Z" fill="#E0E0E0"/>
<path d="M52.4072 24.26H19.9175V57.792H52.4072V24.26Z" fill="#FAFAFA"/>
<path d="M52.4149 57.8H19.905V24.248H52.4149V57.8ZM19.9252 57.78H52.3947V24.268H19.9252V57.78Z" fill="#E0E0E0"/>
<path d="M48.0396 28.764H24.2844V53.28H48.0396V28.764Z" fill="#FAFAFA"/>
<path d="M24.2844 53.444C24.1148 53.69 23.9183 53.9167 23.6986 54.12C23.3188 54.52 22.7855 55.052 22.1876 55.636C21.5897 56.22 21.0403 56.74 20.6363 57.108C20.43 57.3215 20.1995 57.5108 19.9495 57.672C20.1155 57.4257 20.3108 57.2001 20.5312 57C20.911 56.6 21.4443 56.068 22.0462 55.484C22.6482 54.9 23.1936 54.376 23.5976 54.008C23.8039 53.7945 24.0343 53.6052 24.2844 53.444Z" fill="#E0E0E0"/>
<path d="M48.0356 53.384C48.2841 53.5519 48.513 53.7464 48.7184 53.964C49.1224 54.34 49.6597 54.868 50.2496 55.46C50.8394 56.052 51.3646 56.596 51.7363 56.996C51.9519 57.2002 52.1431 57.4284 52.3059 57.676C52.0572 57.5116 51.8293 57.3182 51.6272 57.1C51.2232 56.724 50.6859 56.196 50.096 55.6C49.5062 55.004 48.977 54.464 48.6053 54.064C48.3896 53.8598 48.1985 53.6316 48.0356 53.384Z" fill="#E0E0E0"/>
<path d="M47.9709 28.832C48.1405 28.586 48.337 28.3593 48.5567 28.156C48.9365 27.756 49.4698 27.224 50.0677 26.64C50.6656 26.056 51.2151 25.54 51.6191 25.168C51.8253 24.9545 52.0558 24.7652 52.3059 24.604C52.1361 24.851 51.9367 25.0766 51.712 25.276C51.3322 25.676 50.7989 26.208 50.197 26.796C49.595 27.384 49.0496 27.9 48.6456 28.268C48.4431 28.4808 48.2168 28.67 47.9709 28.832Z" fill="#E0E0E0"/>
<path d="M24.24 28.892C23.9904 28.7257 23.7612 28.531 23.5572 28.312C23.1532 27.936 22.6159 27.408 22.0261 26.816C21.4362 26.224 20.911 25.68 20.5394 25.28C20.3226 25.0768 20.1313 24.8485 19.9697 24.6C20.2185 24.7644 20.4464 24.9577 20.6484 25.176C21.0524 25.552 21.5898 26.08 22.1796 26.676C22.7694 27.272 23.2987 27.812 23.6704 28.216C23.8864 28.4184 24.0776 28.6453 24.24 28.892Z" fill="#E0E0E0"/>
<path d="M47.9709 53.284C47.9709 53.284 47.9709 53.24 47.9709 53.164C47.9709 53.088 47.9709 52.968 47.9709 52.82C47.9709 52.516 47.9709 52.072 47.9709 51.496C47.9709 50.336 47.9709 48.648 47.9467 46.5C47.9467 42.208 47.9184 36.1 47.9022 28.764L47.9911 28.856H24.3046L24.4096 28.752C24.4096 37.752 24.4096 46.172 24.4096 53.272L24.3208 53.18L41.4706 53.228L46.2903 53.252H47.5629H47.8942C47.9318 53.2487 47.9697 53.2487 48.0073 53.252H47.6033H46.3468L41.5514 53.276L24.341 53.32H24.248V53.232C24.248 46.132 24.248 37.712 24.248 28.712V28.608H24.3531H48.0396H48.076V28.696C48.076 36.048 48.0396 42.184 48.0315 46.492C48.0315 48.628 48.0315 50.312 48.0073 51.468C48.0073 52.036 48.0073 52.472 48.0073 52.772C48.0073 52.916 48.0073 53.024 48.0073 53.104C48.0049 53.1655 47.9926 53.2263 47.9709 53.284Z" fill="#E0E0E0"/>
<path d="M40.1252 37.1H32.1987V44.948H40.1252V37.1Z" fill="#EBEBEB"/>
<path d="M167.81 84.748H150.046V103.084H167.81V84.748Z" fill="#E0E0E0"/>
<path d="M166.605 84.748H148.842V103.084H166.605V84.748Z" fill="#FAFAFA"/>
<path d="M166.614 103.088H148.838V84.744H166.614V103.088ZM148.838 103.088H166.589V84.752H148.85L148.838 103.088Z" fill="#E0E0E0"/>
<path d="M164.218 87.212H151.229V100.616H164.218V87.212Z" fill="#FAFAFA"/>
<path d="M151.229 100.708C151.138 100.843 151.031 100.967 150.91 101.076C150.704 101.292 150.413 101.588 150.102 101.904C149.791 102.22 149.476 102.508 149.254 102.704C149.141 102.822 149.015 102.926 148.878 103.016C148.967 102.88 149.075 102.756 149.197 102.648C149.403 102.432 149.694 102.136 150.025 101.816C150.357 101.496 150.651 101.212 150.874 101.016C150.98 100.9 151.099 100.797 151.229 100.708Z" fill="#E0E0E0"/>
<path d="M164.218 100.676C164.356 100.765 164.482 100.871 164.593 100.992C164.812 101.196 165.107 101.484 165.43 101.792C165.753 102.1 166.04 102.412 166.238 102.632C166.356 102.743 166.461 102.868 166.549 103.004C166.413 102.913 166.288 102.807 166.177 102.688C165.959 102.484 165.664 102.196 165.341 101.888C165.018 101.58 164.731 101.268 164.533 101.048C164.415 100.935 164.309 100.811 164.218 100.676Z" fill="#E0E0E0"/>
<path d="M164.186 87.248C164.276 87.113 164.384 86.9894 164.505 86.88C164.711 86.664 165.006 86.368 165.313 86.052C165.62 85.736 165.943 85.448 166.161 85.252C166.274 85.134 166.4 85.0293 166.537 84.94C166.447 85.0762 166.34 85.1999 166.218 85.308C166.012 85.524 165.721 85.82 165.41 86.14C165.099 86.46 164.779 86.744 164.557 86.94C164.445 87.0554 164.32 87.1586 164.186 87.248Z" fill="#E0E0E0"/>
<path d="M151.197 87.28C151.06 87.1894 150.934 87.0834 150.821 86.964C150.603 86.76 150.308 86.468 149.985 86.164C149.662 85.86 149.379 85.54 149.177 85.324C149.06 85.2118 148.955 85.087 148.866 84.952C149.003 85.0417 149.127 85.1479 149.238 85.268C149.456 85.472 149.751 85.76 150.074 86.068C150.397 86.376 150.684 86.692 150.882 86.912C151 87.0232 151.105 87.1466 151.197 87.28Z" fill="#E0E0E0"/>
<path d="M164.186 100.62C164.182 100.597 164.182 100.575 164.186 100.552C164.186 100.508 164.186 100.444 164.186 100.364C164.186 100.196 164.186 99.964 164.186 99.644C164.186 99.008 164.186 98.084 164.186 96.908C164.186 94.564 164.186 91.216 164.157 87.212L164.21 87.264H151.229L151.29 87.208C151.29 92.128 151.29 96.732 151.29 100.612L151.237 100.564L160.618 100.592H163.252H163.273H160.651L151.237 100.62H151.189V100.568C151.189 96.688 151.189 92.084 151.189 87.164V87.108H151.25H164.202H164.25V87.2C164.25 91.22 164.25 94.576 164.226 96.928C164.226 98.1 164.226 99.02 164.226 99.652C164.226 99.96 164.226 100.2 164.226 100.364V100.608L164.186 100.62Z" fill="#E0E0E0"/>
<path d="M159.895 91.768H155.56V96.06H159.895V91.768Z" fill="#EBEBEB"/>
<path d="M94.8188 18.972H77.0549V37.308H94.8188V18.972Z" fill="#E0E0E0"/>
<path d="M93.6147 18.972H75.8508V37.308H93.6147V18.972Z" fill="#FAFAFA"/>
<path d="M93.6188 37.312H75.8428V18.964H93.6188V37.312ZM75.8428 37.312H93.6188V18.976H75.8428V37.312Z" fill="#E0E0E0"/>
<path d="M91.2271 21.436H78.2385V34.84H91.2271V21.436Z" fill="#FAFAFA"/>
<path d="M78.2387 34.932C78.1478 35.067 78.0406 35.1906 77.9195 35.3C77.7094 35.516 77.4186 35.808 77.0913 36.128C76.7641 36.448 76.4651 36.732 76.2429 36.928C76.1307 37.0453 76.0045 37.1487 75.8672 37.236C75.9618 37.1051 76.0687 36.9832 76.1864 36.872C76.3964 36.652 76.6873 36.36 76.9944 36.04C77.3014 35.72 77.6246 35.436 77.8468 35.24C77.962 35.1195 78.094 35.0158 78.2387 34.932Z" fill="#E0E0E0"/>
<path d="M91.2273 34.896C91.3629 34.9885 91.4876 35.0958 91.599 35.216C91.8171 35.42 92.1161 35.708 92.4353 36.016C92.7544 36.324 93.0453 36.636 93.2433 36.856C93.3635 36.9665 93.4694 37.0915 93.5584 37.228C93.422 37.138 93.2972 37.0319 93.1867 36.912C92.9685 36.708 92.6696 36.416 92.3464 36.112C92.0232 35.808 91.7363 35.492 91.5384 35.272C91.4196 35.1597 91.3152 35.0334 91.2273 34.896Z" fill="#E0E0E0"/>
<path d="M91.1909 21.472C91.2843 21.3377 91.3928 21.2142 91.5141 21.104C91.7202 20.884 92.011 20.592 92.3221 20.272C92.6332 19.952 92.9483 19.672 93.1705 19.472C93.2827 19.3547 93.4089 19.2513 93.5462 19.164C93.4553 19.299 93.3481 19.4226 93.2271 19.532C93.021 19.748 92.7261 20.044 92.3989 20.36C92.0716 20.676 91.7727 20.964 91.5505 21.16C91.4435 21.2777 91.3228 21.3825 91.1909 21.472Z" fill="#E0E0E0"/>
<path d="M78.2022 21.504C78.0658 21.414 77.941 21.3079 77.8305 21.188C77.6123 20.98 77.3134 20.692 76.9942 20.388C76.6751 20.084 76.3842 19.768 76.1862 19.548C76.0663 19.4371 75.9605 19.3122 75.8711 19.176C76.0062 19.2677 76.1308 19.3737 76.2428 19.492C76.4609 19.7 76.7599 19.988 77.0831 20.292C77.4063 20.596 77.6931 20.916 77.8911 21.136C78.0102 21.245 78.1148 21.3687 78.2022 21.504Z" fill="#E0E0E0"/>
<path d="M91.1908 34.84V34.588C91.1908 34.42 91.1908 34.188 91.1908 33.864C91.1908 33.232 91.1908 32.308 91.1908 31.132C91.1908 28.784 91.1908 25.44 91.1666 21.436L91.2151 21.484H78.2628L78.3194 21.428C78.3194 26.348 78.3194 30.952 78.3194 34.832L78.2709 34.784L87.6518 34.808H90.2859H91.2231C91.2231 34.808 91.2231 34.808 91.1666 34.808H90.3061H87.6801L78.2709 34.836H78.2224V34.84C78.2224 30.96 78.2224 26.356 78.2224 21.436V21.38H78.279H91.2312H91.2837V21.428C91.2837 25.428 91.2837 28.8 91.2555 31.156C91.2555 32.324 91.2555 33.244 91.2555 33.876C91.2555 34.188 91.2555 34.428 91.2555 34.592V34.8C91.2361 34.8166 91.2143 34.8301 91.1908 34.84Z" fill="#E0E0E0"/>
<path d="M86.9004 25.992H82.5654V30.284H86.9004V25.992Z" fill="#EBEBEB"/>
<path d="M189.989 182.696C189.989 182.752 150.143 182.8 101.004 182.8C51.8656 182.8 12.011 182.752 12.011 182.696C12.011 182.64 51.8494 182.592 101.004 182.592C150.159 182.592 189.989 182.636 189.989 182.696Z" fill="#263238"/>
<path d="M78.5618 182.584C92.7971 182.584 104.337 171.158 104.337 157.064C104.337 142.97 92.7971 131.544 78.5618 131.544C64.3266 131.544 52.7866 142.97 52.7866 157.064C52.7866 171.158 64.3266 182.584 78.5618 182.584Z" fill="#FFC727"/>
<g opacity="0.3">
<path d="M56.9358 170.936C59.5497 171.06 61.6303 169.488 62.814 167.176C63.9977 164.864 64.2442 162.216 64.4704 159.636L65.3915 149.144C65.5491 147.352 65.7147 145.52 66.4217 143.86C67.1287 142.2 68.47 140.704 70.2355 140.26C72.0656 139.816 74.1987 140.52 75.7703 139.488C77.2691 138.508 77.5883 136.352 79.0427 135.312C80.59 134.204 82.7595 134.78 84.4886 135.576C87.8176 137.111 90.7972 139.299 93.2473 142.008C95.6956 144.724 97.8004 148.092 101.275 149.292C102.293 149.644 103.537 149.74 104.357 149.04C105.569 148 105.056 146.048 104.333 144.64C102.298 140.714 99.4309 137.27 95.9271 134.543C92.4232 131.816 88.3656 129.87 84.0321 128.84C80.085 127.932 75.8874 127.82 72.0212 129.024C68.1549 130.228 64.6603 132.836 62.8504 136.428C60.798 140.504 61.7838 145.364 60.9516 149.844C59.6143 157.064 58.0791 164.016 56.9398 170.936" fill="black"/>
</g>
<path d="M94.5885 165.224C94.5925 165.15 94.6047 165.076 94.6249 165.004C94.6653 164.844 94.7178 164.64 94.7784 164.392C94.8107 164.256 94.8511 164.108 94.8915 163.948C94.9319 163.788 94.9561 163.604 94.9925 163.416C95.0612 163.016 95.1662 162.616 95.2147 162.108C95.243 161.864 95.2753 161.612 95.3117 161.348C95.348 161.084 95.348 160.804 95.3682 160.516C95.4207 159.94 95.4086 159.316 95.4086 158.676C95.3675 157.272 95.1998 155.874 94.9077 154.5C94.596 153.132 94.1648 151.794 93.6189 150.5C93.3482 149.912 93.1018 149.344 92.8109 148.844C92.6695 148.592 92.5483 148.34 92.4069 148.112L92.0029 147.456C91.7524 147.032 91.4777 146.68 91.2555 146.36C91.1424 146.2 91.0414 146.048 90.9363 145.916L90.6495 145.56L90.2455 145.06C90.1963 145.003 90.1529 144.941 90.1162 144.876C90.1759 144.922 90.2301 144.974 90.2778 145.032L90.702 145.508L91.005 145.856C91.1141 145.984 91.2191 146.132 91.3363 146.288C91.5706 146.608 91.8574 146.952 92.116 147.376L92.52 148.032C92.6654 148.26 92.7907 148.508 92.924 148.764C93.2189 149.264 93.4734 149.832 93.732 150.424C94.88 153.031 95.4938 155.837 95.5379 158.68C95.5379 159.336 95.5379 159.956 95.4773 160.536C95.4531 160.824 95.445 161.104 95.4086 161.372C95.3723 161.64 95.3319 161.892 95.2955 162.14C95.2389 162.628 95.1258 163.064 95.045 163.448C95.0006 163.636 94.9642 163.816 94.9238 163.98L94.7905 164.42C94.7137 164.664 94.6531 164.864 94.6047 165.024C94.6071 165.091 94.6017 165.158 94.5885 165.224Z" fill="#FAFAFA"/>
<path d="M93.5462 168.584C93.1182 169.997 92.3613 171.29 91.3363 172.36C91.2878 172.324 91.8777 171.536 92.4837 170.496C93.0897 169.456 93.4896 168.56 93.5462 168.584Z" fill="#FAFAFA"/>
<path d="M72.0575 132.912C72.2433 133.436 72.3363 133.992 72.5262 134.512C72.6918 135.049 73.0494 135.509 73.5321 135.804C73.7771 135.942 74.0635 135.989 74.3403 135.937C74.6171 135.885 74.8661 135.737 75.0431 135.52C75.1762 135.282 75.251 135.016 75.2612 134.744C75.3271 134.13 75.3568 133.513 75.3501 132.896C75.3838 132.501 75.2859 132.106 75.0714 131.772C74.9277 131.616 74.7474 131.498 74.5465 131.429C74.3456 131.359 74.1303 131.339 73.9199 131.372C73.4997 131.441 73.0974 131.592 72.7362 131.816C72.3752 132.042 71.9905 132.228 71.5889 132.372" fill="#FFC727"/>
<g opacity="0.5">
<path d="M72.0575 132.912C72.2433 133.436 72.3363 133.992 72.5262 134.512C72.6918 135.049 73.0494 135.509 73.5321 135.804C73.7771 135.942 74.0635 135.989 74.3403 135.937C74.6171 135.885 74.8661 135.737 75.0431 135.52C75.1762 135.282 75.251 135.016 75.2612 134.744C75.3271 134.13 75.3568 133.513 75.3501 132.896C75.3838 132.501 75.2859 132.106 75.0714 131.772C74.9277 131.616 74.7474 131.498 74.5465 131.429C74.3456 131.359 74.1303 131.339 73.9199 131.372C73.4997 131.441 73.0974 131.592 72.7362 131.816C72.3752 132.042 71.9905 132.228 71.5889 132.372" fill="black"/>
</g>
<path d="M46.2339 146.4C46.2996 146.429 46.3577 146.473 46.4035 146.528C46.5357 146.687 46.6009 146.891 46.5853 147.096C46.5779 147.262 46.5236 147.422 46.4286 147.558C46.3335 147.695 46.2017 147.802 46.048 147.868C45.8448 147.954 45.6227 147.986 45.4032 147.961C45.1838 147.937 44.9745 147.856 44.7956 147.728C43.9876 147.176 43.6523 145.808 44.2987 144.704C44.6769 144.176 45.1559 143.726 45.7087 143.38C46.257 142.994 46.6785 142.457 46.9207 141.836C47.1549 141.212 47.2365 140.541 47.159 139.88C47.0838 139.262 46.9049 138.66 46.6298 138.1C46.3834 137.587 46.0871 137.1 45.745 136.644C45.4302 136.251 45.1362 135.843 44.8643 135.42C44.6333 135.058 44.4946 134.647 44.4603 134.22C44.4376 133.9 44.4974 133.579 44.634 133.288C44.7289 133.103 44.8675 132.944 45.038 132.824C45.0919 132.781 45.1536 132.748 45.2198 132.728C45.0076 132.881 44.838 133.085 44.7269 133.32C44.608 133.602 44.5621 133.908 44.5936 134.212C44.6369 134.612 44.7753 134.996 44.9976 135.332C45.236 135.732 45.5632 136.096 45.8945 136.532C46.2476 136.994 46.5559 137.489 46.8156 138.008C47.1022 138.588 47.2905 139.211 47.3731 139.852C47.4554 140.546 47.3695 141.249 47.1227 141.904C46.8675 142.561 46.422 143.129 45.842 143.536C45.3083 143.864 44.8433 144.29 44.4724 144.792C43.8664 145.804 44.1654 147.088 44.8764 147.592C45.0342 147.71 45.22 147.786 45.4159 147.813C45.6119 147.839 45.8114 147.816 45.9955 147.744C46.1091 147.7 46.2113 147.631 46.2943 147.543C46.3773 147.454 46.439 147.349 46.4748 147.233C46.5105 147.118 46.5194 146.996 46.5008 146.876C46.4821 146.757 46.4365 146.643 46.3672 146.544C46.2904 146.456 46.2298 146.4 46.2339 146.4Z" fill="#263238"/>
<path d="M63.4847 136.68L78.1701 131.42L86.1006 134.732L94.3705 120.444L91.8455 111.664L67.763 112.168L60.5557 112.4L49.5386 117.648L53.6513 131.768L52.3989 137.596L63.4847 136.68Z" fill="#B78876"/>
<path d="M53.5463 131.356C68.2358 128.132 65.7148 135.884 65.8441 135.836C67.9066 135.718 69.974 135.959 71.9526 136.548C76.1097 137.928 75.2856 132.412 75.2856 132.412C75.2856 132.412 75.3179 136.664 73.1444 135.32C70.9708 133.976 71.9324 112.12 71.9324 112.12H67.7631C64.018 109.32 60.5557 112.396 60.5557 112.396L49.7285 118.296L50.1002 119.536C50.1002 119.536 55.5259 116.972 57.4813 122.176C59.5013 127.544 53.1948 130.176 53.1948 130.176L53.5463 131.356Z" fill="#FFC727"/>
<path d="M82.6625 118.964C82.6625 119.02 82.4605 119.056 82.2221 119.04C81.9838 119.024 81.7858 118.968 81.7899 118.908C81.7939 118.848 81.9919 118.816 82.2343 118.832C82.4767 118.848 82.6665 118.904 82.6625 118.964Z" fill="#AA6550"/>
<path d="M67.8438 127.904C67.8155 127.876 68.1589 127.584 68.5306 126.984C69.0071 126.21 69.2024 125.299 69.0841 124.4C68.9612 123.61 68.6089 122.872 68.07 122.276C67.7678 121.938 67.4245 121.638 67.0479 121.384C66.9671 121.336 66.9348 121.312 66.9388 121.304C66.9429 121.296 66.9832 121.304 67.0681 121.336C67.4897 121.541 67.8691 121.822 68.1872 122.164C68.7724 122.769 69.156 123.537 69.2861 124.364C69.4143 125.318 69.1827 126.285 68.6356 127.08C68.4753 127.319 68.2868 127.538 68.0741 127.732C67.9448 127.852 67.872 127.912 67.8438 127.904Z" fill="#263238"/>
<path d="M78.1134 128.596C78.2777 129.582 78.3021 130.587 78.1861 131.58C78.0688 131.092 78.0212 130.589 78.0447 130.088C77.9987 129.59 78.0218 129.088 78.1134 128.596Z" fill="#AA6550"/>
<path d="M60.6284 112.308C60.685 112.308 61.1738 116.432 61.7192 121.528C62.2646 126.624 62.6606 130.764 62.604 130.772C62.5474 130.78 62.0546 126.648 61.5092 121.552C60.9638 116.456 60.5678 112.316 60.6284 112.308Z" fill="#FAFAFA"/>
<path d="M61.2304 130.8C61.1738 130.8 60.6325 126.864 60.0184 122C59.4043 117.136 58.964 113.176 59.0205 113.168C59.0771 113.16 59.6184 117.104 60.2325 121.968C60.8466 126.832 61.287 130.8 61.2304 130.8Z" fill="#FAFAFA"/>
<path d="M52.3988 137.556L47.7204 179.68C47.7204 179.68 41.6402 181.68 40.7151 182.696H54.1117C54.6531 182.296 64.6763 136.08 64.6763 136.08L52.3988 137.556Z" fill="#B78876"/>
<path d="M61.8808 139.712C61.8808 139.712 61.7879 139.64 61.6546 139.484C61.4683 139.259 61.3034 139.018 61.1617 138.764C60.6912 137.916 60.4543 136.96 60.4749 135.992C60.4954 135.025 60.7727 134.08 61.2789 133.252C61.4319 133.004 61.6063 132.77 61.8 132.552C61.9414 132.4 62.0263 132.328 62.0384 132.336C62.0505 132.344 61.7556 132.692 61.4081 133.324C60.9527 134.144 60.7046 135.061 60.6849 135.996C60.6652 136.932 60.8745 137.858 61.295 138.696C61.6142 139.34 61.9091 139.688 61.8808 139.712Z" fill="#AA6550"/>
<path d="M60.5557 112.4L59.4164 107.408L61.7232 71.268C61.6545 68.92 61.3839 67.312 61.4202 65.772C61.4687 63.868 61.3515 63.084 60.992 63.096C60.5112 63.096 60.6971 63.096 60.1153 66.532C60.1153 66.532 60.9031 61.608 59.885 62.532C59.4325 62.932 58.7377 67.032 58.7377 67.032C59.6022 63.8 59.4123 62.448 58.9114 62.344C58.1842 62.196 57.3802 67.144 57.3802 67.144C57.3802 67.144 58.0711 63.368 57.9822 62.672C57.8933 61.976 57.3075 62.592 56.9641 63.24C56.5843 63.968 54.9724 68.508 54.4351 69.796C54.4058 69.9117 54.3508 70.0194 54.2741 70.1113C54.1974 70.2031 54.1009 70.2769 53.9917 70.3271C53.8825 70.3774 53.7633 70.4028 53.6429 70.4016C53.5225 70.4003 53.4039 70.3725 53.2958 70.32C51.5828 69.22 49.6598 69.268 49.1427 69.52C48.6255 69.772 48.8114 70.56 49.4416 70.656C50.1108 70.827 50.7536 71.0867 51.3525 71.428C51.8404 71.6843 52.2814 72.0196 52.6574 72.42C53.0938 72.888 53.4412 73.3 53.7281 73.656L49.3083 106.744C49.3083 106.744 47.6923 113.544 49.6194 117.892" fill="#B78876"/>
<path d="M59.7598 68.468C59.8486 68.468 60.0708 67.432 60.2607 66.124C60.4506 64.816 60.5274 63.744 60.4385 63.724C60.3496 63.704 60.1274 64.764 59.9416 66.068C59.7557 67.372 59.6749 68.452 59.7598 68.468Z" fill="#AA6550"/>
<path d="M58.4022 68.4C58.487 68.4 58.8062 67.312 59.0728 65.932C59.3395 64.552 59.5172 63.42 59.4324 63.404C59.3475 63.388 59.0284 64.488 58.7617 65.868C58.4951 67.248 58.3133 68.368 58.4022 68.4Z" fill="#AA6550"/>
<path d="M56.9924 68.292C57.0772 68.312 57.3964 67.268 57.6671 65.968C57.9378 64.668 58.1155 63.596 58.0307 63.568C57.9458 63.54 57.6267 64.588 57.352 65.892C57.0772 67.196 56.9035 68.272 56.9924 68.292Z" fill="#AA6550"/>
<path d="M57.5297 107.8C57.7693 108.705 58.1293 109.573 58.6003 110.384C59.1318 111.158 59.7664 111.858 60.487 112.464C60.2293 112.351 59.994 112.194 59.7921 112C59.262 111.569 58.8062 111.056 58.4427 110.48C58.071 109.907 57.798 109.277 57.6347 108.616C57.5516 108.352 57.5161 108.076 57.5297 107.8Z" fill="#AA6550"/>
<path d="M46.2136 124.968C46.262 127.32 47.2034 129.628 46.1085 131.712C45.6358 132.608 44.9692 133.472 44.9208 134.468C44.8642 135.732 45.8257 136.868 45.9146 138.124C46.0681 140.396 43.4098 142.228 43.6199 144.496C43.7555 145.278 44.0555 146.024 44.5006 146.684C44.9424 147.345 45.2194 148.1 45.3086 148.888C45.3394 149.289 45.2378 149.688 45.0192 150.027C44.8006 150.365 44.4768 150.624 44.0966 150.764C43.9456 149.938 43.5683 149.168 43.0058 148.54C41.7494 149.32 42.7715 151.376 41.7938 152.448C41.4624 152.762 41.0547 152.987 40.6101 153.1C39.0283 153.547 37.4033 153.829 35.7621 153.94L34.8248 152.372C34.7309 153.007 34.8061 153.655 35.043 154.252C33.0093 154.793 30.9057 155.032 28.8012 154.96C27.6821 154.92 26.466 154.752 25.6863 154.004C25.0076 153.356 24.7975 152.404 24.741 151.496C24.6479 149.907 24.9243 148.318 25.549 146.852C25.953 145.86 26.5468 144.888 26.5751 143.824C26.6196 141.912 24.8824 140.34 24.5551 138.448C24.1188 135.836 26.4418 133.504 26.7488 130.876C26.9104 129.5 26.5064 128.12 26.563 126.736C26.6196 125.352 27.371 123.808 28.8052 123.488C28.8052 123.488 29.2092 121.116 31.3504 120.552C33.4916 119.988 46.1287 120.704 46.2136 124.968Z" fill="#263238"/>
<path d="M56.5601 123.224C56.9933 124.409 56.9358 125.716 56.4 126.859C55.8642 128.003 54.8936 128.89 53.6998 129.328L34.7118 136.288C34.3428 136.423 33.9361 136.415 33.5724 136.267C33.2087 136.119 32.9146 135.841 32.7483 135.488L29.4517 128.496C29.1829 127.926 29.0335 127.307 29.0126 126.678C28.9916 126.049 29.0995 125.422 29.3298 124.835C29.5601 124.248 29.9079 123.714 30.3524 123.264C30.7969 122.814 31.3288 122.457 31.9161 122.216C34.6673 121.088 38.0731 119.816 40.287 119.416C44.731 118.648 46.3874 121.668 46.3874 121.668L50.5082 120.312C51.7008 119.918 53.0015 120.001 54.1334 120.543C55.2653 121.084 56.1389 122.042 56.5682 123.212L56.5601 123.224Z" fill="#B78876"/>
<path d="M34.8896 122.668C35.03 122.618 35.1848 122.624 35.3203 122.686C35.4557 122.749 35.5609 122.861 35.6127 123C35.6418 123.066 35.6572 123.137 35.6581 123.209C35.6589 123.281 35.6452 123.353 35.6177 123.42C35.5902 123.486 35.5495 123.547 35.498 123.598C35.4465 123.649 35.3852 123.689 35.3178 123.716C35.1773 123.766 35.0228 123.759 34.887 123.698C34.7513 123.637 34.6449 123.526 34.5906 123.388C34.5616 123.321 34.5463 123.25 34.5457 123.177C34.545 123.105 34.5591 123.033 34.5869 122.966C34.6148 122.899 34.6559 122.838 34.7079 122.787C34.7598 122.735 34.8216 122.695 34.8896 122.668Z" fill="#263238"/>
<path d="M33.9685 122.348C34.0614 122.392 33.8957 122.9 34.0977 123.476C34.2997 124.052 34.7361 124.376 34.6876 124.464C34.6391 124.552 34.5179 124.464 34.3159 124.344C34.0581 124.158 33.8636 123.898 33.7584 123.6C33.6593 123.298 33.6593 122.974 33.7584 122.672C33.8149 122.428 33.9361 122.328 33.9685 122.348Z" fill="#263238"/>
<path d="M36.764 128.4C36.905 128.352 37.0595 128.359 37.1951 128.421C37.3307 128.483 37.4368 128.594 37.4912 128.732C37.5198 128.798 37.5348 128.87 37.5354 128.942C37.5361 129.014 37.5223 129.086 37.4949 129.153C37.4675 129.22 37.427 129.28 37.3757 129.332C37.3245 129.383 37.2635 129.424 37.1963 129.452C37.0553 129.501 36.9003 129.494 36.7645 129.432C36.6286 129.37 36.5226 129.258 36.4691 129.12C36.4405 129.054 36.4255 128.982 36.4248 128.91C36.4242 128.838 36.438 128.766 36.4654 128.699C36.4928 128.632 36.5333 128.572 36.5845 128.52C36.6358 128.469 36.6968 128.428 36.764 128.4Z" fill="#263238"/>
<path d="M36.0408 128C36.1338 128.044 35.9722 128.556 36.1701 129.128C36.3681 129.7 36.8125 130 36.764 130.096C36.7155 130.192 36.5943 130.116 36.3923 129.976C36.1311 129.786 35.9362 129.521 35.8348 129.216C35.7357 128.914 35.7357 128.59 35.8348 128.288C35.8914 128.064 35.9964 127.96 36.0408 128Z" fill="#263238"/>
<path d="M39.6364 124.42C39.4331 124.151 39.2661 123.856 39.1395 123.544C39.0748 123.4 38.994 123.272 38.885 123.28C38.7288 123.322 38.5884 123.408 38.481 123.528L37.4992 124.348C36.0974 125.5 34.9217 126.388 34.8773 126.348C34.8328 126.308 35.9277 125.312 37.3336 124.16L38.3274 123.36C38.4746 123.206 38.6721 123.108 38.885 123.084C38.9449 123.088 39.0032 123.105 39.0556 123.134C39.108 123.163 39.1533 123.203 39.188 123.252C39.238 123.327 39.2787 123.407 39.3092 123.492C39.4564 123.787 39.5663 124.099 39.6364 124.42Z" fill="#263238"/>
<path d="M46.3914 121.68C47.1022 123.639 47.2519 125.754 46.8236 127.792C46.8236 127.792 49.288 125.48 47.4458 121.428L46.3914 121.68Z" fill="#AA6550"/>
<path d="M41.1233 124.188C41.0216 124.345 40.9623 124.525 40.951 124.712C40.9396 124.898 40.9767 125.084 41.0587 125.252C41.1146 125.375 41.1949 125.486 41.2948 125.578C41.3947 125.67 41.5122 125.742 41.6404 125.788C41.7639 125.832 41.8981 125.838 42.0248 125.803C42.1514 125.769 42.2642 125.697 42.3474 125.596C42.4214 125.469 42.4544 125.322 42.4422 125.175C42.4299 125.029 42.3729 124.89 42.2788 124.776C42.0876 124.536 41.85 124.336 41.5798 124.188C41.5101 124.14 41.4321 124.104 41.3496 124.084C41.3107 124.073 41.2694 124.074 41.2311 124.087C41.1928 124.1 41.1594 124.124 41.1354 124.156" fill="#AA6550"/>
<path d="M40.6263 126C40.5899 125.908 41.2201 125.692 41.4827 125.004C41.7453 124.316 41.4464 123.676 41.5312 123.64C41.6161 123.604 41.709 123.748 41.814 124.04C41.948 124.404 41.948 124.804 41.814 125.168C41.6857 125.519 41.4231 125.807 41.0828 125.968C40.804 126.044 40.6384 126.028 40.6263 126Z" fill="#263238"/>
<path d="M34.9298 128.068C35.1076 128.068 35.2328 128.672 35.548 129.324C35.8631 129.976 36.2428 130.456 36.1297 130.592C36.0772 130.656 35.8954 130.592 35.6651 130.444C35.3747 130.213 35.1409 129.92 34.9814 129.587C34.8219 129.253 34.7407 128.889 34.744 128.52C34.7642 128.236 34.845 128.068 34.9298 128.068Z" fill="#263238"/>
<path d="M32.3523 123.132C32.522 123.188 32.522 123.632 32.6796 124.112C32.8371 124.592 33.0836 124.968 32.9705 125.108C32.9179 125.168 32.7604 125.152 32.5665 125.016C32.3307 124.832 32.1585 124.581 32.0736 124.296C31.9839 124.013 31.9839 123.711 32.0736 123.428C32.1584 123.2 32.2756 123.112 32.3523 123.132Z" fill="#263238"/>
<path d="M28.3447 125.976C28.6194 124.376 29.4637 129.228 31.0797 129.556C31.8469 129.641 32.6191 129.672 33.3906 129.648C34.1623 129.692 35.0066 129.928 35.4106 130.556C35.8146 131.184 35.8146 132.024 36.4206 132.448C36.9297 132.82 37.6326 132.68 38.2709 132.728C39.6809 132.844 40.8242 133.996 41.3615 135.296C41.8989 136.596 41.9554 138.024 42.0483 139.424C42.1413 140.824 42.3029 142.268 43.0099 143.48L32.8573 138C32.8573 138 27.6902 129.828 28.3447 125.976Z" fill="#263238"/>
<path d="M40.0406 133.468C39.8669 134.196 40.4446 135.328 41.196 135.516C41.5661 135.595 41.9519 135.553 42.2962 135.398C42.6405 135.242 42.9249 134.981 43.107 134.652C43.4625 133.992 43.5675 133.476 43.107 132.868" fill="#B78876"/>
<path d="M30.9586 153.072C31.0029 152.968 31.057 152.869 31.1202 152.776L31.6051 151.948C31.8564 151.511 32.0804 151.06 32.2757 150.596C32.5383 149.984 32.6992 149.335 32.7524 148.672C32.8234 147.882 32.6486 147.089 32.2514 146.4C31.7256 145.633 31.0759 144.958 30.3284 144.4C29.9326 144.077 29.5613 143.725 29.2174 143.348C28.8512 142.948 28.5757 142.474 28.4094 141.96C28.2627 141.417 28.2448 140.847 28.3569 140.296C28.4711 139.739 28.6416 139.195 28.8659 138.672C29.2942 137.62 29.779 136.608 29.8638 135.56C29.9002 135.049 29.8158 134.537 29.6174 134.064C29.4117 133.611 29.1542 133.183 28.8498 132.788C28.5629 132.388 28.264 132.008 28.0014 131.616C27.7492 131.236 27.5315 130.834 27.3509 130.416C27.022 129.658 26.8529 128.841 26.854 128.016C26.8592 127.334 27.0179 126.662 27.3186 126.048C27.5371 125.581 27.8412 125.158 28.2155 124.8C28.4565 124.577 28.7287 124.39 29.0235 124.244C29.1245 124.192 29.2053 124.164 29.2578 124.14L29.3386 124.112C28.9554 124.312 28.602 124.564 28.2882 124.86C27.9314 125.214 27.6413 125.629 27.4317 126.084C27.1552 126.687 27.0172 127.342 27.0277 128.004C27.0357 128.806 27.2089 129.598 27.5368 130.332C27.7149 130.744 27.9313 131.139 28.1832 131.512C28.4377 131.912 28.7366 132.272 29.0316 132.668C29.3501 133.074 29.6212 133.514 29.8396 133.98C30.052 134.486 30.1433 135.033 30.1062 135.58C30.0173 136.684 29.5204 137.716 29.0962 138.76C28.672 139.804 28.3448 140.896 28.6437 141.908C28.9427 142.92 29.7628 143.624 30.5021 144.264C31.2598 144.832 31.9165 145.522 32.4454 146.304C32.8619 147.032 33.0371 147.872 32.9463 148.704C32.883 149.38 32.7083 150.04 32.4292 150.66C32.2099 151.124 31.9574 151.572 31.6737 152C31.4556 152.356 31.2697 152.628 31.1566 152.8C31.0979 152.896 31.0317 152.987 30.9586 153.072Z" fill="#455A64"/>
<path d="M38.1175 153.972C38.2901 153.581 38.4385 153.181 38.5619 152.772C38.8658 151.658 38.8532 150.483 38.5255 149.376C38.304 148.617 37.9333 147.909 37.4347 147.292C36.8296 146.607 36.1226 146.018 35.3379 145.544C34.449 145.012 33.6568 144.336 32.9947 143.544C32.6528 143.107 32.4139 142.6 32.2958 142.06C32.201 141.496 32.2496 140.917 32.4372 140.376C32.7725 139.296 33.3543 138.328 33.3583 137.292C33.313 136.293 32.9254 135.34 32.2595 134.588C31.6562 133.901 31.0012 133.261 30.3001 132.672C29.6916 132.143 29.149 131.544 28.6841 130.888C28.333 130.412 28.0969 129.863 27.994 129.282C27.891 128.702 27.9239 128.106 28.0902 127.54C28.1932 127.236 28.3598 126.956 28.579 126.72C28.636 126.66 28.6967 126.604 28.7608 126.552C28.8012 126.516 28.8255 126.5 28.8295 126.504C28.5256 126.799 28.2983 127.163 28.1669 127.564C28.0205 128.115 28.0008 128.692 28.1091 129.252C28.2175 129.812 28.4512 130.341 28.7931 130.8C29.2633 131.439 29.8054 132.023 30.4091 132.54C31.1228 133.132 31.7862 133.781 32.3928 134.48C33.0919 135.263 33.4996 136.26 33.5482 137.304C33.5482 138.416 32.9422 139.404 32.619 140.448C32.4426 140.962 32.3968 141.512 32.4857 142.048C32.596 142.559 32.821 143.039 33.1442 143.452C33.7922 144.223 34.5649 144.883 35.4309 145.404C36.2331 145.891 36.9553 146.496 37.5721 147.2C38.0809 147.836 38.4534 148.568 38.6669 149.352C38.9891 150.484 38.9807 151.684 38.6427 152.812C38.5252 153.222 38.3483 153.613 38.1175 153.972Z" fill="#455A64"/>
<path d="M25.9167 154C25.8015 154.018 25.6844 154.018 25.5692 154C25.2356 153.945 24.9192 153.815 24.6441 153.62C24.2103 153.311 23.8718 152.888 23.6664 152.4C23.4197 151.741 23.3569 151.028 23.4846 150.336C23.6365 149.51 23.9087 148.709 24.2926 147.96C24.7512 147.12 25.139 146.243 25.4521 145.34C25.6021 144.854 25.6757 144.348 25.6702 143.84C25.6456 143.311 25.5266 142.791 25.3187 142.304C25.1208 141.796 24.8622 141.3 24.6441 140.768C24.3985 140.23 24.2613 139.65 24.2401 139.06C24.2401 137.86 24.7612 136.772 25.2299 135.788C25.7483 134.874 26.1088 133.88 26.2964 132.848C26.4217 131.864 26.1389 130.924 25.9247 130.048C25.673 129.241 25.573 128.395 25.6298 127.552C25.7076 126.862 25.9335 126.196 26.2924 125.6C26.5661 125.15 26.9097 124.745 27.3105 124.4C27.5589 124.187 27.8298 124 28.1185 123.844C28.222 123.791 28.3285 123.744 28.4376 123.704C28.0492 123.919 27.6837 124.172 27.3468 124.46C26.9635 124.807 26.6377 125.212 26.3813 125.66C26.034 126.248 25.819 126.903 25.751 127.58C25.7088 128.404 25.8169 129.23 26.0702 130.016C26.3828 130.935 26.5198 131.903 26.4742 132.872C26.2895 133.926 25.9262 134.942 25.3995 135.876C24.9349 136.86 24.4138 137.908 24.434 139.056C24.4544 139.62 24.5832 140.176 24.8137 140.692C25.0279 141.212 25.2864 141.712 25.4884 142.232C25.7033 142.74 25.8237 143.282 25.8439 143.832C25.8479 144.359 25.7716 144.884 25.6177 145.388C25.3042 146.299 24.9165 147.183 24.4582 148.032C24.0689 148.763 23.7873 149.546 23.6219 150.356C23.4887 151.024 23.5389 151.714 23.7674 152.356C23.958 152.831 24.2749 153.245 24.6845 153.556C24.9458 153.75 25.2461 153.886 25.5652 153.956C25.7955 154 25.9167 154 25.9167 154Z" fill="#263238"/>
<path d="M109.642 131.6C109.494 131.48 109.359 131.346 109.238 131.2L108.143 130.088C107.214 129.156 105.901 127.9 104.373 126.596C102.846 125.292 101.392 124.196 100.333 123.42L99.0609 122.516C98.8993 122.413 98.7478 122.295 98.6084 122.164C98.783 122.245 98.9505 122.34 99.1094 122.448C99.4245 122.636 99.8729 122.928 100.422 123.3C101.844 124.274 103.212 125.32 104.523 126.436C105.832 127.553 107.079 128.739 108.26 129.988C108.712 130.468 109.068 130.864 109.31 131.144C109.434 131.287 109.544 131.439 109.642 131.6Z" fill="#455A64"/>
<path d="M151.068 168.4C151.289 168.563 151.471 168.773 151.601 169.013C151.732 169.254 151.808 169.519 151.823 169.792C151.85 170.337 151.764 170.882 151.569 171.392C150.357 174.992 147.028 177.508 143.509 178.992C141.453 179.856 139.109 180.448 137 179.716C136.366 179.496 135.708 179.072 135.611 178.416C135.593 177.994 135.702 177.577 135.922 177.216C137.003 174.97 138.487 172.938 140.301 171.216C142.125 169.486 144.372 168.255 146.822 167.644C148.22 167.316 149.852 167.284 150.918 168.24" fill="#455A64"/>
<path d="M145.509 165.976C145.509 165.976 151.811 172.324 153.185 174.572C154.558 176.82 155.968 182.696 155.968 182.696L145.553 182.344L146.26 176.032L140.766 171.44L142.786 167.84C143.626 166.316 145.509 165.976 145.509 165.976Z" fill="#B78876"/>
<path d="M147.056 176.224L145.844 180.028C145.844 180.028 143.788 180.264 143.848 181.032C143.909 181.8 143.965 182.692 143.965 182.692H155.984L147.056 176.224Z" fill="#B78876"/>
<path d="M124.719 144.724C126.282 145.824 124.06 141.436 122.743 139.712C121.831 138.552 121.109 137.256 120.606 135.872L126.157 124.352L118.655 120.68L112.651 132.66C112.479 132.871 112.388 133.137 112.397 133.409C112.406 133.681 112.514 133.94 112.7 134.14L124.719 144.724Z" fill="#B78876"/>
<path d="M91.7808 111.632L101.133 108.62L123.648 101.796C125.181 101.331 126.82 101.335 128.35 101.807C129.881 102.28 131.231 103.199 132.225 104.444C133.229 105.699 133.822 107.226 133.927 108.823C134.032 110.421 133.642 112.011 132.811 113.384L127.882 132.64C127.075 133.044 126.139 133.116 125.278 132.84C124.418 132.563 123.702 131.961 123.289 131.164L122.776 130.172C121.981 128.994 120.836 128.089 119.499 127.583C118.162 127.077 116.7 126.995 115.314 127.348L118.788 117.228L103.032 125.964L93.1948 121.224L91.7808 111.632Z" fill="#263238"/>
<path d="M104.6 126.852L151.355 168.596L150.062 168.82C148.614 168.862 147.218 169.366 146.084 170.258C144.949 171.15 144.137 172.381 143.768 173.768C143.356 175.316 142.393 176.664 141.057 177.564C139.721 178.465 138.101 178.857 136.496 178.668L135.659 178.568C107.618 153.2 86.949 134.112 87.7974 135.06L95.3724 119.564L104.6 126.852Z" fill="#263238"/>
<path d="M89.2154 111.868C89.2154 111.868 90.8718 124.824 85.333 134.268L89.0377 136.008L98.9357 122.588L95.4209 110.444L89.2154 111.868Z" fill="#263238"/>
<path d="M90.8475 111.496C90.8668 111.577 90.879 111.66 90.8839 111.744C90.8839 111.928 90.9283 112.164 90.9566 112.456C91.0253 113.1 91.1182 113.988 91.2314 115.072C91.3445 116.156 91.494 117.492 91.5263 118.964C91.561 120.563 91.4474 122.162 91.1869 123.74C90.7615 126.621 89.8028 129.4 88.3589 131.936C87.9129 132.697 87.4092 133.423 86.852 134.108C86.654 134.348 86.4844 134.508 86.3753 134.648C86.3241 134.714 86.2643 134.773 86.1975 134.824C86.2412 134.752 86.2912 134.684 86.347 134.62C86.4439 134.488 86.6015 134.308 86.7874 134.056C87.317 133.358 87.7989 132.626 88.2296 131.864C89.6235 129.326 90.5549 126.566 90.9809 123.708C91.2371 122.141 91.3547 120.555 91.3324 118.968C91.3324 117.504 91.1788 116.192 91.0859 115.084C90.993 113.976 90.9122 113.084 90.8758 112.464C90.8556 112.152 90.8475 111.912 90.8435 111.748C90.8354 111.664 90.8367 111.58 90.8475 111.496Z" fill="#455A64"/>
<path d="M90.2295 121.928C90.1843 121.904 90.1434 121.873 90.1083 121.836C90.0037 121.738 89.9052 121.634 89.8133 121.524C89.4677 121.118 89.1945 120.657 89.0053 120.16C88.9401 119.996 88.8861 119.827 88.8437 119.656C88.7856 119.46 88.7856 119.252 88.8437 119.056C88.8817 118.944 88.9529 118.846 89.0481 118.775C89.1432 118.703 89.2578 118.662 89.377 118.656C89.5013 118.661 89.622 118.698 89.727 118.765C89.8319 118.831 89.9175 118.923 89.9749 119.032C90.081 119.245 90.1454 119.475 90.1648 119.712C90.1971 119.94 90.2173 120.176 90.2295 120.416C90.2514 120.911 90.2392 121.407 90.1931 121.9C90.1446 122.408 90.0719 122.896 89.9871 123.368C89.9386 123.6 89.8941 123.832 89.8497 124.056C89.8161 124.289 89.7394 124.514 89.6235 124.72C89.5611 124.826 89.4723 124.915 89.3655 124.977C89.2586 125.039 89.1374 125.073 89.0134 125.076C88.8849 125.077 88.7606 125.03 88.666 124.944C88.5806 124.859 88.5277 124.747 88.5165 124.628C88.5063 124.426 88.5451 124.224 88.6296 124.04C88.6943 123.872 88.767 123.712 88.8437 123.56C89.0754 123.086 89.3673 122.644 89.7123 122.244C89.8287 122.094 89.9645 121.959 90.1163 121.844C89.6678 122.396 89.2829 122.996 88.969 123.632C88.9003 123.78 88.8316 123.94 88.771 124.108C88.7019 124.268 88.6715 124.442 88.6821 124.616C88.6873 124.695 88.7236 124.769 88.7833 124.822C88.8429 124.875 88.9212 124.903 89.0013 124.9C89.0933 124.897 89.1829 124.87 89.2614 124.822C89.3399 124.774 89.4048 124.708 89.4497 124.628C89.5678 124.435 89.6486 124.222 89.6881 124C89.7285 123.776 89.7729 123.548 89.8174 123.316C89.8982 122.848 89.9709 122.364 90.0153 121.864C90.0607 121.38 90.0742 120.894 90.0557 120.408C90.0557 120.176 90.0275 119.944 89.9951 119.72C89.9837 119.509 89.9301 119.302 89.8376 119.112C89.7979 119.031 89.7376 118.961 89.6625 118.91C89.5874 118.859 89.5002 118.828 89.4093 118.82C89.3257 118.827 89.2459 118.858 89.1798 118.909C89.1137 118.96 89.0643 119.029 89.0377 119.108C88.9704 119.445 89.0143 119.794 89.1629 120.104C89.3333 120.592 89.5785 121.05 89.8901 121.464C90.0921 121.768 90.2416 121.916 90.2295 121.928Z" fill="#455A64"/>
<path d="M126.375 149.2C126.453 149.263 126.526 149.333 126.593 149.408L127.183 150.028C127.688 150.576 128.395 151.372 129.268 152.392C131.499 155.058 133.549 157.866 135.405 160.8C136.483 162.52 137.485 164.172 138.273 165.752C138.649 166.503 138.921 167.301 139.081 168.124C139.222 168.848 139.189 169.595 138.984 170.304C138.842 170.818 138.59 171.295 138.245 171.704C137.9 172.112 137.47 172.442 136.984 172.672C136.718 172.79 136.431 172.859 136.14 172.876H135.841C136.224 172.855 136.601 172.766 136.952 172.612C137.356 172.421 137.715 172.149 138.006 171.812C138.393 171.365 138.678 170.841 138.843 170.276C139.03 169.588 139.052 168.866 138.907 168.168C138.745 167.363 138.474 166.584 138.099 165.852C137.312 164.296 136.306 162.652 135.231 160.928C133.383 158.01 131.359 155.205 129.171 152.528C128.335 151.496 127.628 150.688 127.151 150.128L126.589 149.48C126.509 149.394 126.437 149.3 126.375 149.2Z" fill="#455A64"/>
<path d="M143.089 167.312C143.171 167.57 143.195 167.844 143.158 168.112C143.119 168.756 142.948 169.386 142.654 169.961C142.36 170.537 141.95 171.047 141.449 171.46C141.252 171.639 141.019 171.776 140.766 171.86C140.949 171.676 141.144 171.502 141.348 171.34C141.803 170.912 142.181 170.41 142.467 169.856C142.75 169.302 142.934 168.704 143.012 168.088C143.024 167.828 143.05 167.569 143.089 167.312Z" fill="#455A64"/>
<path d="M153.52 180.356C153.135 180.334 152.752 180.288 152.373 180.22C151.453 180.097 150.528 180.019 149.601 179.988C148.519 179.956 147.537 179.988 146.826 180.044C146.443 180.091 146.057 180.113 145.67 180.108C146.041 179.996 146.423 179.926 146.81 179.9C148.67 179.682 150.554 179.74 152.397 180.072C152.782 180.121 153.159 180.216 153.52 180.356Z" fill="#AA6550"/>
<path d="M149.254 174.968C148.795 175.246 148.3 175.462 147.783 175.608C147.292 175.823 146.775 175.973 146.244 176.052C146.703 175.778 147.196 175.563 147.71 175.412C148.204 175.201 148.723 175.052 149.254 174.968Z" fill="#AA6550"/>
<path d="M122.271 108.744C122.081 109.183 121.868 109.611 121.632 110.028C121.228 110.828 120.715 111.92 120.226 113.176C119.811 114.248 119.449 115.34 119.144 116.448C118.905 117.296 118.776 117.828 118.74 117.824C118.731 117.689 118.745 117.554 118.78 117.424C118.816 117.18 118.889 116.828 118.99 116.396C119.258 115.27 119.602 114.164 120.02 113.084C120.439 112.005 120.932 110.956 121.495 109.944C121.709 109.544 121.899 109.248 122.032 109.04C122.098 108.931 122.178 108.832 122.271 108.744Z" fill="#455A64"/>
<path d="M119.374 110.724C119.434 110.724 119.172 111.948 119.111 113.464C119.051 114.98 119.204 116.212 119.14 116.22C119.046 115.963 118.99 115.693 118.974 115.42C118.898 114.768 118.874 114.112 118.901 113.456C118.928 112.8 119.007 112.147 119.14 111.504C119.174 111.233 119.253 110.97 119.374 110.724Z" fill="#455A64"/>
<path d="M185.695 63.34H126.331V66.364H185.695V63.34Z" fill="#455A64"/>
<path d="M177.679 35.852L177.639 35.768C177.606 35.704 177.562 35.628 177.509 35.532C177.392 35.328 177.211 35.032 176.948 34.664C176.213 33.6191 175.268 32.7354 174.172 32.068C173.416 31.6093 172.576 31.3009 171.7 31.16C170.679 31.0135 169.638 31.1222 168.67 31.476C167.587 31.8535 166.672 32.5952 166.084 33.572C165.486 34.604 165.297 35.808 164.949 36.964C164.786 37.5286 164.542 38.0673 164.226 38.564C163.896 39.0308 163.485 39.4369 163.014 39.764C162.553 40.104 162.069 40.408 161.628 40.76C161.199 41.1063 160.821 41.5102 160.505 41.96C159.928 42.8038 159.534 43.7574 159.35 44.76C159.18 45.6239 159.128 46.5065 159.196 47.384C159.302 48.6449 159.528 49.893 159.871 51.112C159.988 51.544 160.085 51.88 160.15 52.104C160.18 52.2197 160.217 52.3333 160.263 52.444C160.249 52.3247 160.225 52.2069 160.19 52.092C160.133 51.848 160.053 51.512 159.952 51.092C159.64 49.8732 159.436 48.6298 159.342 47.376C159.288 46.512 159.348 45.6448 159.519 44.796C159.709 43.8228 160.098 42.8985 160.663 42.08C160.97 41.6424 161.338 41.2504 161.758 40.916C162.186 40.572 162.667 40.272 163.139 39.928C163.636 39.5888 164.069 39.1665 164.42 38.68C164.75 38.1612 165.003 37.5981 165.171 37.008C165.523 35.832 165.713 34.644 166.282 33.66C166.847 32.728 167.723 32.0206 168.759 31.66C169.694 31.3119 170.702 31.2005 171.692 31.336C172.549 31.4631 173.372 31.7552 174.116 32.196C175.204 32.8456 176.151 33.7021 176.903 34.716C177.174 35.072 177.368 35.36 177.493 35.56C177.548 35.6619 177.61 35.7595 177.679 35.852Z" fill="#E0E0E0"/>
<path d="M162.436 40.084C162.755 39.788 162.913 39.996 163.345 40.084C163.775 40.1778 164.175 40.3757 164.509 40.66C165.247 41.2639 165.792 42.0684 166.074 42.9745C166.357 43.8806 166.366 44.8488 166.101 45.76C165.41 45.7975 164.722 45.6493 164.11 45.3311C163.498 45.0128 162.984 44.5364 162.623 43.9523C162.262 43.3683 162.068 42.6984 162.061 42.0138C162.053 41.3292 162.233 40.6555 162.582 40.064" fill="#E0E0E0"/>
<path d="M175.619 34.144C175.78 33.744 176.023 33.856 176.427 33.744C176.856 33.6459 177.303 33.6541 177.728 33.768C178.654 34.0012 179.491 34.4966 180.136 35.1936C180.782 35.8905 181.209 36.7587 181.364 37.692C180.757 38.0212 180.071 38.1813 179.379 38.1553C178.687 38.1293 178.016 37.9182 177.435 37.5444C176.855 37.1706 176.388 36.6481 176.084 36.0324C175.78 35.4167 175.65 34.731 175.708 34.048" fill="#E0E0E0"/>
<path d="M159.532 48.128C159.97 47.6261 160.518 47.2295 161.134 46.9681C161.75 46.7068 162.418 46.5876 163.088 46.6196C163.757 46.6516 164.41 46.8339 164.998 47.1528C165.586 47.4716 166.093 47.9186 166.48 48.46C165.493 49.3495 164.211 49.8504 162.877 49.868C161.528 49.8336 160.236 49.318 159.241 48.416" fill="#E0E0E0"/>
<path d="M160.614 42.12C159.942 42.1399 159.273 42.0095 158.658 41.7383C158.044 41.4671 157.499 41.0621 157.064 40.5536C156.629 40.0451 156.316 39.446 156.147 38.801C155.978 38.156 155.958 37.4816 156.089 36.828C156.794 36.6745 157.527 36.7106 158.212 36.9323C158.898 37.154 159.511 37.5533 159.988 38.0889C160.465 38.6244 160.788 39.2766 160.925 39.9777C161.061 40.6788 161.006 41.4033 160.764 42.076" fill="#E0E0E0"/>
<path d="M165.256 35.06C164.627 35.3015 163.952 35.3995 163.279 35.3466C162.607 35.2937 161.955 35.0913 161.373 34.7546C160.791 34.4178 160.292 33.9553 159.916 33.4015C159.539 32.8477 159.293 32.2169 159.196 31.556C159.809 31.1786 160.514 30.9707 161.235 30.954C161.957 30.9374 162.67 31.1125 163.3 31.4613C163.931 31.81 164.455 32.3196 164.819 32.9371C165.183 33.5545 165.373 34.2572 165.369 34.972" fill="#E0E0E0"/>
<path d="M166.812 32.756C167.44 32.5137 168.116 32.4151 168.789 32.4677C169.461 32.5202 170.113 32.7224 170.696 33.0593C171.279 33.3962 171.777 33.859 172.154 34.4132C172.53 34.9674 172.776 35.5987 172.872 36.26C172.258 36.6364 171.555 36.8434 170.834 36.8595C170.112 36.8757 169.4 36.7003 168.77 36.3517C168.141 36.003 167.617 35.4939 167.253 34.877C166.89 34.2602 166.699 33.5582 166.702 32.844" fill="#E0E0E0"/>
<path d="M168.666 31.516C168.028 31.3024 167.447 30.9494 166.966 30.4832C166.485 30.0169 166.116 29.4494 165.887 28.8228C165.658 28.1961 165.574 27.5263 165.641 26.8632C165.709 26.2 165.927 25.5605 166.278 24.992C166.993 25.0901 167.668 25.376 168.234 25.8199C168.799 26.2638 169.234 26.8496 169.494 27.5164C169.753 28.1831 169.827 28.9064 169.709 29.6112C169.59 30.316 169.283 30.9765 168.82 31.524" fill="#E0E0E0"/>
<path d="M173.417 31.74C173.188 31.1137 173.104 30.4444 173.172 29.7817C173.24 29.119 173.458 28.4799 173.809 27.9118C174.16 27.3436 174.636 26.861 175.201 26.4995C175.766 26.1381 176.406 25.9073 177.073 25.824C177.448 26.4369 177.649 27.1387 177.655 27.8552C177.66 28.5718 177.47 29.2766 177.105 29.8951C176.74 30.5137 176.212 31.0232 175.579 31.3697C174.946 31.7162 174.229 31.887 173.506 31.864" fill="#E0E0E0"/>
<path d="M154.259 63.544L151.726 47.812L171.13 48.044L169.215 63.34" fill="#263238"/>
<path d="M162.63 44.936C163.1 45.2519 163.644 45.4428 164.21 45.4904C164.776 45.5381 165.345 45.4408 165.862 45.208C166.363 44.9278 166.786 44.5291 167.094 44.0475C167.401 43.5659 167.583 43.0163 167.624 42.448C167.13 42.1999 166.588 42.0574 166.035 42.0298C165.482 42.0023 164.929 42.0902 164.412 42.288C163.906 42.5101 163.454 42.836 163.086 43.2443C162.717 43.6526 162.441 44.1338 162.275 44.656" fill="#FFC727"/>
<path d="M171.502 48.324C171.972 48.6399 172.516 48.8308 173.082 48.8784C173.648 48.9261 174.217 48.8288 174.734 48.596C175.234 48.3151 175.656 47.9168 175.963 47.4361C176.27 46.9554 176.453 46.4073 176.496 45.84C176.007 45.5764 175.465 45.4246 174.91 45.3958C174.355 45.3669 173.8 45.4616 173.286 45.6731C172.773 45.8845 172.313 46.2073 171.942 46.6176C171.572 47.0279 171.298 47.5153 171.143 48.044" fill="#FFC727"/>
<path d="M166.521 40.756C166.736 41.277 167.082 41.7346 167.527 42.0848C167.972 42.4351 168.501 42.6662 169.062 42.756C169.635 42.7936 170.209 42.6906 170.733 42.4562C171.256 42.2218 171.713 41.8631 172.064 41.412C171.801 40.9265 171.433 40.5052 170.985 40.1791C170.537 39.8531 170.021 39.6305 169.474 39.5277C168.928 39.4249 168.365 39.4445 167.828 39.585C167.29 39.7256 166.791 39.9836 166.367 40.34" fill="#FFC727"/>
<path d="M169.761 44.68C169.196 44.6512 168.633 44.7663 168.126 45.0142C167.619 45.2621 167.184 45.6345 166.864 46.096C166.582 46.5924 166.429 47.1501 166.417 47.7195C166.405 48.2889 166.535 48.8524 166.795 49.36C167.351 49.3349 167.894 49.1868 168.385 48.9266C168.875 48.6664 169.301 48.3007 169.63 47.8564C169.959 47.4122 170.183 46.9005 170.286 46.3591C170.389 45.8178 170.368 45.2604 170.225 44.728" fill="#FFC727"/>
<path d="M172.884 50.872C172.619 51.3673 172.487 51.9217 172.5 52.4819C172.514 53.0422 172.672 53.5896 172.96 54.072C173.296 54.5349 173.742 54.9086 174.259 55.1598C174.775 55.411 175.347 55.532 175.922 55.512C176.12 54.9957 176.206 54.4438 176.173 53.8924C176.141 53.341 175.992 52.8025 175.736 52.312C175.227 51.396 174.306 50.94 173.158 50.68" fill="#FFC727"/>
<path d="M178.043 51.6C177.821 51.3911 177.56 51.2268 177.275 51.116C176.937 51 176.583 50.9379 176.225 50.932C175.746 50.9334 175.267 50.9614 174.791 51.016C174.2 51.0909 173.599 51.0405 173.029 50.868C172.38 50.6066 171.859 50.1062 171.575 49.472C171.264 48.7971 171.052 48.082 170.945 47.348C170.839 46.5807 170.585 45.8406 170.197 45.168C169.737 44.5392 169.184 43.9823 168.557 43.516C167.961 43.068 167.433 42.5372 166.989 41.94C166.293 40.8748 166.015 39.5945 166.206 38.34C166.318 37.4927 166.647 36.6876 167.159 36C167.299 35.8178 167.454 35.6479 167.624 35.492C167.679 35.4325 167.741 35.3801 167.81 35.336C167.767 35.404 167.715 35.4659 167.656 35.52C167.501 35.6867 167.356 35.863 167.224 36.048C166.753 36.7334 166.455 37.5208 166.355 38.344C166.188 39.5652 166.475 40.8049 167.163 41.832C167.604 42.409 168.124 42.9231 168.706 43.36C169.352 43.8369 169.92 44.4088 170.391 45.056C170.791 45.7511 171.053 46.5155 171.163 47.308C171.267 48.0247 171.468 48.7244 171.761 49.388C172.021 49.9817 172.503 50.453 173.106 50.704C173.652 50.877 174.229 50.9329 174.799 50.868C175.279 50.8224 175.762 50.805 176.245 50.816C176.614 50.8288 176.977 50.9046 177.32 51.04C177.538 51.1263 177.737 51.254 177.906 51.416C177.95 51.4564 177.99 51.5006 178.027 51.548C178.035 51.6 178.047 51.6 178.043 51.6Z" fill="#FFC727"/>
<path d="M178.043 51.6C177.821 51.3911 177.56 51.2268 177.275 51.116C176.937 51 176.583 50.9379 176.225 50.932C175.746 50.9334 175.267 50.9614 174.791 51.016C174.2 51.0909 173.599 51.0405 173.029 50.868C172.38 50.6066 171.859 50.1062 171.575 49.472C171.264 48.7971 171.052 48.082 170.945 47.348C170.839 46.5807 170.585 45.8406 170.197 45.168C169.737 44.5392 169.184 43.9823 168.557 43.516C167.961 43.068 167.433 42.5372 166.989 41.94C166.293 40.8748 166.015 39.5945 166.206 38.34C166.318 37.4927 166.647 36.6876 167.159 36C167.299 35.8178 167.454 35.6479 167.624 35.492C167.679 35.4325 167.741 35.3801 167.81 35.336C167.767 35.404 167.715 35.4659 167.656 35.52C167.501 35.6867 167.356 35.863 167.224 36.048C166.753 36.7334 166.455 37.5208 166.355 38.344C166.188 39.5652 166.475 40.8049 167.163 41.832C167.604 42.409 168.124 42.9231 168.706 43.36C169.352 43.8369 169.92 44.4088 170.391 45.056C170.791 45.7511 171.053 46.5155 171.163 47.308C171.267 48.0247 171.468 48.7244 171.761 49.388C172.021 49.9817 172.503 50.453 173.106 50.704C173.652 50.877 174.229 50.9329 174.799 50.868C175.279 50.8224 175.762 50.805 176.245 50.816C176.614 50.8288 176.977 50.9046 177.32 51.04C177.538 51.1263 177.737 51.254 177.906 51.416C177.95 51.4564 177.99 51.5006 178.027 51.548C178.035 51.6 178.047 51.6 178.043 51.6Z" fill="#FFC727"/>
<path d="M140.996 53.2C141.038 52.3926 140.876 51.5875 140.525 50.8575C140.174 50.1275 139.645 49.4957 138.985 49.0192C138.325 48.5427 137.556 48.2366 136.747 48.1285C135.937 48.0204 135.114 48.1137 134.35 48.4C134.927 49.6713 135.825 50.774 136.957 51.6021C138.089 52.4302 139.417 52.9557 140.814 53.128" fill="#FFC727"/>
<path d="M139.723 53.88C138.774 54.912 138.835 56.572 139.513 57.796C140.192 59.02 141.36 59.888 142.531 60.664C142.929 59.338 142.876 57.9192 142.379 56.6262C141.883 55.3332 140.971 54.2375 139.784 53.508" fill="#FFC727"/>
<path d="M144.321 49.044C144.396 49.7972 144.624 50.5275 144.991 51.191C145.359 51.8544 145.859 52.4372 146.46 52.9042C147.062 53.3711 147.752 53.7125 148.491 53.9077C149.229 54.1029 150 54.1479 150.757 54.04C150.389 52.528 149.775 51.008 148.599 49.984C147.424 48.96 145.561 48.576 144.256 49.44" fill="#FFC727"/>
<path d="M144.289 47.504C144.05 46.128 142.673 45.132 141.279 45.004C139.885 44.876 138.491 45.464 137.364 46.304C138.216 47.2697 139.408 47.8776 140.696 48.004C141.985 48.1303 143.274 47.7656 144.301 46.984" fill="#FFC727"/>
<path d="M137.061 59.2C135.728 60.324 135.392 62.332 135.946 63.976C136.499 65.62 137.796 66.936 139.255 67.896C139.816 66.264 140.168 64.516 139.869 62.82C139.57 61.124 138.544 59.476 136.956 58.8" fill="#FFC727"/>
<path d="M144.071 43.648C144.423 43.1333 144.891 42.7058 145.437 42.3985C145.984 42.0913 146.594 41.9126 147.221 41.8763C147.848 41.8399 148.475 41.9469 149.054 42.1889C149.633 42.4309 150.148 42.8015 150.559 43.272C150.286 43.8765 149.847 44.3923 149.291 44.7597C148.734 45.127 148.085 45.3308 147.416 45.3476C146.748 45.3643 146.088 45.1933 145.514 44.8543C144.94 44.5153 144.474 44.0221 144.172 43.432" fill="#FFC727"/>
<path d="M145.707 39.684C144.987 39.9014 144.229 39.9651 143.482 39.8708C142.736 39.7764 142.018 39.5263 141.376 39.1368C140.735 38.7474 140.184 38.2275 139.76 37.6116C139.337 36.9957 139.05 36.2978 138.919 35.564C139.985 35.4386 141.062 35.4534 142.123 35.608C143.187 35.7715 144.174 36.2546 144.951 36.992C145.302 37.3372 145.555 37.7674 145.686 38.2398C145.816 38.7121 145.819 39.2101 145.695 39.684" fill="#FFC727"/>
<path d="M148.781 38.656C148.282 38.2541 147.88 37.7476 147.603 37.1731C147.326 36.5986 147.181 35.9703 147.178 35.3337C147.176 34.697 147.317 34.0678 147.589 33.4913C147.862 32.9148 148.261 32.4055 148.757 32C149.717 33.1563 150.371 34.531 150.66 36C150.799 36.5447 150.799 37.1153 150.66 37.66C150.588 37.9366 150.44 38.1877 150.231 38.385C150.023 38.5822 149.762 38.7177 149.48 38.776" fill="#FFC727"/>
<g opacity="0.4">
<path d="M140.996 53.2C141.038 52.3926 140.876 51.5875 140.525 50.8575C140.174 50.1275 139.645 49.4957 138.985 49.0192C138.325 48.5427 137.556 48.2366 136.747 48.1285C135.937 48.0204 135.114 48.1137 134.35 48.4C134.927 49.6713 135.825 50.774 136.957 51.6021C138.089 52.4302 139.417 52.9557 140.814 53.128" fill="black"/>
</g>
<g opacity="0.4">
<path d="M139.723 53.88C138.774 54.912 138.835 56.572 139.513 57.796C140.192 59.02 141.36 59.888 142.531 60.664C142.929 59.338 142.876 57.9192 142.379 56.6262C141.883 55.3332 140.971 54.2375 139.784 53.508" fill="black"/>
</g>
<g opacity="0.4">
<path d="M144.321 49.044C144.396 49.7972 144.624 50.5275 144.991 51.191C145.359 51.8544 145.859 52.4372 146.46 52.9042C147.062 53.3711 147.752 53.7125 148.491 53.9077C149.229 54.1029 150 54.1479 150.757 54.04C150.389 52.528 149.775 51.008 148.599 49.984C147.424 48.96 145.561 48.576 144.256 49.44" fill="black"/>
</g>
<g opacity="0.4">
<path d="M144.289 47.504C144.05 46.128 142.673 45.132 141.279 45.004C139.885 44.876 138.491 45.464 137.364 46.304C138.216 47.2697 139.408 47.8776 140.696 48.004C141.985 48.1303 143.274 47.7656 144.301 46.984" fill="black"/>
</g>
<g opacity="0.4">
<path d="M137.061 59.2C135.728 60.324 135.392 62.332 135.946 63.976C136.499 65.62 137.796 66.936 139.255 67.896C139.816 66.264 140.168 64.516 139.869 62.82C139.57 61.124 138.544 59.476 136.956 58.8" fill="black"/>
</g>
<g opacity="0.4">
<path d="M144.071 43.648C144.423 43.1333 144.891 42.7058 145.437 42.3985C145.984 42.0913 146.594 41.9126 147.221 41.8763C147.848 41.8399 148.475 41.9469 149.054 42.1889C149.633 42.4309 150.148 42.8015 150.559 43.272C150.286 43.8765 149.847 44.3923 149.291 44.7597C148.734 45.127 148.085 45.3308 147.416 45.3476C146.748 45.3643 146.088 45.1933 145.514 44.8543C144.94 44.5153 144.474 44.0221 144.172 43.432" fill="black"/>
</g>
<g opacity="0.4">
<path d="M145.707 39.684C144.987 39.9014 144.229 39.9651 143.482 39.8708C142.736 39.7764 142.018 39.5263 141.376 39.1368C140.735 38.7474 140.184 38.2275 139.76 37.6116C139.337 36.9957 139.05 36.2978 138.919 35.564C139.985 35.4386 141.062 35.4534 142.123 35.608C143.187 35.7715 144.174 36.2546 144.951 36.992C145.302 37.3372 145.555 37.7674 145.686 38.2398C145.816 38.7121 145.819 39.2101 145.695 39.684" fill="black"/>
</g>
<g opacity="0.4">
<path d="M148.781 38.656C148.282 38.2541 147.88 37.7476 147.603 37.1731C147.326 36.5986 147.181 35.9703 147.178 35.3337C147.176 34.697 147.317 34.0678 147.589 33.4913C147.862 32.9148 148.261 32.4055 148.757 32C149.717 33.1563 150.371 34.531 150.66 36C150.799 36.5447 150.799 37.1153 150.66 37.66C150.588 37.9366 150.44 38.1877 150.231 38.385C150.023 38.5822 149.762 38.7177 149.48 38.776" fill="black"/>
</g>
<path d="M154.106 48.316C154.1 48.2802 154.1 48.2438 154.106 48.208C154.106 48.124 154.106 48.02 154.126 47.892C154.126 47.612 154.17 47.204 154.178 46.692C154.243 45.2036 153.997 43.7179 153.455 42.328C153.065 41.3803 152.46 40.5344 151.686 39.856C150.795 39.077 149.642 38.6573 148.454 38.68C147.827 38.685 147.21 38.8343 146.652 39.116C146.07 39.4253 145.584 39.8858 145.246 40.448C144.543 41.596 144.369 43.036 144.438 44.448C144.507 45.86 144.697 47.296 144.535 48.672C144.464 49.3476 144.285 50.0078 144.006 50.628C143.734 51.2333 143.318 51.7644 142.794 52.176C142.289 52.5429 141.729 52.8278 141.133 53.02C140.588 53.2019 140.063 53.4378 139.566 53.724C138.688 54.2642 137.977 55.0319 137.509 55.944C137.12 56.6953 136.917 57.5275 136.916 58.372C136.911 59.0103 137.016 59.6446 137.227 60.248C137.414 60.7605 137.659 61.2503 137.958 61.708C137.932 61.6838 137.909 61.657 137.889 61.628C137.845 61.568 137.776 61.488 137.699 61.368C137.473 61.0263 137.287 60.6598 137.146 60.276C136.921 59.6657 136.803 59.0217 136.798 58.372C136.786 57.5062 136.984 56.65 137.376 55.876C137.849 54.9336 138.574 54.138 139.473 53.576C140.434 52.944 141.699 52.776 142.677 52.028C143.654 51.28 144.163 49.968 144.317 48.648C144.47 47.328 144.264 45.904 144.212 44.456C144.159 43.008 144.325 41.528 145.064 40.328C145.421 39.7355 145.935 39.2513 146.551 38.928C147.142 38.6262 147.797 38.4659 148.462 38.46C149.695 38.4415 150.889 38.8844 151.807 39.7C152.597 40.3978 153.212 41.269 153.601 42.244C153.922 43.0407 154.129 43.8782 154.215 44.732C154.278 45.3753 154.296 46.0222 154.267 46.668C154.247 47.196 154.207 47.604 154.174 47.868C154.174 47.996 154.146 48.1 154.134 48.18C154.134 48.2268 154.125 48.2731 154.106 48.316Z" fill="#FFC727"/>
<g opacity="0.4">
<path d="M154.106 48.316C154.1 48.2802 154.1 48.2438 154.106 48.208C154.106 48.124 154.106 48.02 154.126 47.892C154.126 47.612 154.17 47.204 154.178 46.692C154.243 45.2036 153.997 43.7179 153.455 42.328C153.065 41.3803 152.46 40.5344 151.686 39.856C150.795 39.077 149.642 38.6573 148.454 38.68C147.827 38.685 147.21 38.8343 146.652 39.116C146.07 39.4253 145.584 39.8858 145.246 40.448C144.543 41.596 144.369 43.036 144.438 44.448C144.507 45.86 144.697 47.296 144.535 48.672C144.464 49.3476 144.285 50.0078 144.006 50.628C143.734 51.2333 143.318 51.7644 142.794 52.176C142.289 52.5429 141.729 52.8278 141.133 53.02C140.588 53.2019 140.063 53.4378 139.566 53.724C138.688 54.2642 137.977 55.0319 137.509 55.944C137.12 56.6953 136.917 57.5275 136.916 58.372C136.911 59.0103 137.016 59.6446 137.227 60.248C137.414 60.7605 137.659 61.2503 137.958 61.708C137.932 61.6838 137.909 61.657 137.889 61.628C137.845 61.568 137.776 61.488 137.699 61.368C137.473 61.0263 137.287 60.6598 137.146 60.276C136.921 59.6657 136.803 59.0217 136.798 58.372C136.786 57.5062 136.984 56.65 137.376 55.876C137.849 54.9336 138.574 54.138 139.473 53.576C140.434 52.944 141.699 52.776 142.677 52.028C143.654 51.28 144.163 49.968 144.317 48.648C144.47 47.328 144.264 45.904 144.212 44.456C144.159 43.008 144.325 41.528 145.064 40.328C145.421 39.7355 145.935 39.2513 146.551 38.928C147.142 38.6262 147.797 38.4659 148.462 38.46C149.695 38.4415 150.889 38.8844 151.807 39.7C152.597 40.3978 153.212 41.269 153.601 42.244C153.922 43.0407 154.129 43.8782 154.215 44.732C154.278 45.3753 154.296 46.0222 154.267 46.668C154.247 47.196 154.207 47.604 154.174 47.868C154.174 47.996 154.146 48.1 154.134 48.18C154.134 48.2268 154.125 48.2731 154.106 48.316Z" fill="black"/>
</g>
<path d="M182.357 44.884C182.535 44.4345 182.633 43.9583 182.648 43.476C182.652 42.9127 182.522 42.3565 182.269 41.852C181.923 41.188 181.367 40.6552 180.685 40.336C180.295 40.1496 179.873 40.037 179.441 40.004C178.97 39.9769 178.499 40.0311 178.047 40.164C177.093 40.412 176.152 40.964 175.029 41.168C174.451 41.2985 173.85 41.2847 173.28 41.128C172.685 40.9324 172.18 40.5322 171.858 40C171.179 38.96 170.989 37.656 170.169 36.696C169.762 36.2297 169.232 35.886 168.638 35.704C168.061 35.5196 167.451 35.4582 166.848 35.524C165.694 35.6433 164.629 36.1906 163.866 37.056C163.183 37.8403 162.685 38.7653 162.408 39.764C162.149 40.6344 162.038 41.5415 162.081 42.448C162.159 43.7656 162.326 45.0765 162.582 46.372C162.662 46.82 162.723 47.172 162.768 47.436C162.768 47.548 162.8 47.64 162.808 47.716C162.812 47.7478 162.812 47.7802 162.808 47.812C162.795 47.7826 162.785 47.7517 162.78 47.72L162.719 47.444C162.662 47.184 162.59 46.832 162.493 46.388C162.205 45.0917 162.015 43.7761 161.923 42.452C161.871 41.5292 161.976 40.6042 162.234 39.716C162.514 38.6818 163.028 37.7242 163.737 36.916C164.127 36.4844 164.587 36.1207 165.099 35.84C165.647 35.5458 166.25 35.3637 166.871 35.3047C167.492 35.2456 168.119 35.3106 168.714 35.496C169.341 35.6921 169.9 36.0562 170.33 36.548C171.195 37.576 171.381 38.888 172.031 39.876C172.325 40.3711 172.79 40.7436 173.34 40.924C173.879 41.0743 174.447 41.0894 174.993 40.968C176.075 40.764 177.013 40.236 177.998 39.988C178.47 39.8522 178.962 39.7994 179.453 39.832C180.067 39.8859 180.658 40.0938 181.169 40.4359C181.68 40.7781 182.094 41.2434 182.374 41.788C182.628 42.3098 182.75 42.885 182.729 43.464C182.717 43.8275 182.646 44.1868 182.519 44.528C182.478 44.652 182.424 44.7713 182.357 44.884Z" fill="#FFC727"/>
<path d="M171.009 37.912C171.525 38.2211 172.109 38.4029 172.711 38.4419C173.313 38.4808 173.915 38.3759 174.467 38.136C174.969 37.8564 175.392 37.4585 175.7 36.9776C176.008 36.4968 176.191 35.9479 176.233 35.38C175.736 35.1298 175.191 34.9859 174.635 34.9576C174.078 34.9294 173.521 35.0174 173.001 35.216C172.5 35.4441 172.053 35.7743 171.689 36.1851C171.326 36.5959 171.054 37.0781 170.892 37.6" fill="#FFC727"/>
<path d="M174.686 41.2C174.689 41.7979 174.838 42.3862 175.119 42.9153C175.4 43.4444 175.806 43.8987 176.302 44.24C176.803 44.5179 177.366 44.6684 177.941 44.6782C178.515 44.688 179.083 44.5567 179.594 44.296C179.567 43.7462 179.416 43.2095 179.151 42.7252C178.887 42.241 178.516 41.8215 178.067 41.4977C177.617 41.1738 177.1 40.9538 176.554 40.8539C176.007 40.7539 175.444 40.7765 174.908 40.92" fill="#FFC727"/>
<path d="M181.069 40.484C181.616 40.7356 182.216 40.8539 182.82 40.8288C183.423 40.8038 184.011 40.6362 184.535 40.34C185.002 40.0089 185.379 39.5688 185.633 39.0587C185.886 38.5485 186.009 37.9843 185.989 37.416C185.475 37.2053 184.92 37.1114 184.365 37.1411C183.809 37.1709 183.268 37.3236 182.78 37.588C182.292 37.8524 181.87 38.2218 181.545 38.669C181.22 39.1162 181.001 39.6298 180.903 40.172" fill="#FFC727"/>
<path d="M165.64 35.724C164.711 34.924 164.089 33.536 164.266 32.492C164.388 31.9334 164.648 31.4134 165.022 30.9785C165.396 30.5436 165.874 30.2074 166.412 30C166.811 30.3837 167.119 30.8514 167.311 31.3685C167.504 31.8856 167.576 32.4389 167.524 32.9876C167.472 33.5362 167.296 34.0663 167.009 34.5385C166.722 35.0107 166.331 35.4131 165.866 35.716" fill="#FFC727"/>
<path d="M140.733 31.2C140.744 31.1707 140.757 31.1425 140.774 31.116C140.806 31.052 140.851 30.976 140.899 30.88C141.02 30.676 141.202 30.38 141.465 30.012C142.196 28.9684 143.137 28.0847 144.228 27.416C144.99 26.9554 145.835 26.6469 146.717 26.508C147.736 26.3617 148.776 26.4703 149.743 26.824C150.829 27.2004 151.746 27.9441 152.332 28.924C152.93 29.952 153.14 31.156 153.467 32.312C153.631 32.8766 153.874 33.4153 154.191 33.912C154.521 34.379 154.931 34.7852 155.403 35.112C155.867 35.452 156.352 35.756 156.792 36.112C157.221 36.4581 157.6 36.8621 157.916 37.312C158.491 38.1567 158.884 39.1099 159.071 40.112C159.241 40.9759 159.293 41.8585 159.224 42.736C159.119 43.9973 158.892 45.2457 158.546 46.464C158.433 46.896 158.336 47.232 158.271 47.456C158.24 47.5726 158.202 47.6874 158.158 47.8C158.17 47.6809 158.193 47.5631 158.227 47.448L158.469 46.444C158.781 45.2254 158.984 43.9819 159.075 42.728C159.13 41.8642 159.072 40.9969 158.901 40.148C158.71 39.1754 158.321 38.2514 157.758 37.432C157.451 36.9944 157.082 36.6024 156.663 36.268C156.235 35.924 155.754 35.624 155.281 35.28C154.784 34.942 154.35 34.5195 154.001 34.032C153.671 33.5132 153.418 32.9501 153.249 32.36C152.898 31.188 152.708 29.996 152.138 29.012C151.573 28.08 150.697 27.3726 149.662 27.012C148.725 26.6635 147.716 26.5522 146.725 26.688C145.869 26.8199 145.046 27.1118 144.301 27.548C143.215 28.1987 142.269 29.055 141.517 30.068C141.246 30.424 141.053 30.712 140.923 30.912C140.868 31.0131 140.805 31.1094 140.733 31.2Z" fill="#FFC727"/>
<path d="M155.976 35.432C155.657 35.136 155.5 35.344 155.067 35.432C154.646 35.5274 154.253 35.7223 153.924 36C153.181 36.6 152.632 37.4025 152.345 38.3083C152.058 39.214 152.045 40.1832 152.308 41.096C152.999 41.1335 153.686 40.9853 154.299 40.6671C154.911 40.3488 155.425 39.8724 155.785 39.2883C156.146 38.7043 156.341 38.0344 156.348 37.3498C156.355 36.6653 156.175 35.9915 155.827 35.4" fill="#FFC727"/>
<path d="M142.794 29.492C142.632 29.092 142.39 29.204 141.986 29.092C141.557 28.9939 141.11 29.0021 140.685 29.116C139.758 29.3478 138.921 29.8428 138.275 30.54C137.629 31.2372 137.202 32.1062 137.049 33.04C137.656 33.3692 138.342 33.5293 139.034 33.5033C139.725 33.4773 140.397 33.2662 140.977 32.8924C141.557 32.5186 142.025 31.9961 142.329 31.3804C142.633 30.7647 142.763 30.079 142.705 29.396" fill="#FFC727"/>
<path d="M158.881 43.476C158.443 42.9741 157.895 42.5775 157.279 42.3161C156.663 42.0548 155.995 41.9356 155.325 41.9676C154.656 41.9996 154.002 42.1819 153.415 42.5008C152.827 42.8196 152.32 43.2666 151.932 43.808C152.923 44.6926 154.206 45.1877 155.54 45.2C156.89 45.1671 158.181 44.6513 159.176 43.748" fill="#FFC727"/>
<path d="M157.798 37.468C158.471 37.4872 159.139 37.3562 159.753 37.0847C160.368 36.8133 160.912 36.4084 161.347 35.9C161.782 35.3917 162.095 34.793 162.264 34.1483C162.433 33.5036 162.453 32.8295 162.323 32.176C161.619 32.0225 160.886 32.0586 160.201 32.2803C159.515 32.502 158.902 32.9013 158.425 33.4369C157.948 33.9724 157.624 34.6246 157.488 35.3257C157.352 36.0268 157.407 36.7513 157.649 37.424" fill="#FFC727"/>
<path d="M153.156 30.4C153.785 30.6423 154.461 30.7409 155.134 30.6883C155.806 30.6358 156.458 30.4336 157.041 30.0967C157.624 29.7598 158.122 29.297 158.499 28.7428C158.875 28.1885 159.121 27.5573 159.216 26.896C158.603 26.5196 157.9 26.3126 157.179 26.2965C156.457 26.2803 155.745 26.4557 155.115 26.8043C154.486 27.1529 153.962 27.6621 153.598 28.279C153.235 28.8958 153.044 29.5978 153.047 30.312" fill="#FFC727"/>
<path d="M151.601 28.104C150.972 27.8617 150.296 27.7631 149.624 27.8157C148.951 27.8682 148.299 28.0704 147.717 28.4073C147.134 28.7442 146.636 29.207 146.259 29.7612C145.882 30.3154 145.637 30.9467 145.541 31.608C146.154 31.9844 146.858 32.1914 147.579 32.2075C148.3 32.2237 149.013 32.0483 149.642 31.6997C150.272 31.351 150.796 30.8419 151.159 30.225C151.523 29.6082 151.713 28.9062 151.71 28.192" fill="#FFC727"/>
<path d="M149.747 26.864C150.385 26.6506 150.966 26.2976 151.447 25.8313C151.928 25.365 152.297 24.7973 152.526 24.1704C152.755 23.5436 152.838 22.8737 152.77 22.2105C152.701 21.5474 152.483 20.908 152.13 20.34C151.416 20.4387 150.741 20.725 150.176 21.1692C149.611 21.6134 149.177 22.1992 148.918 22.8658C148.659 23.5325 148.585 24.2556 148.704 24.9601C148.823 25.6646 149.13 26.3247 149.593 26.872" fill="#FFC727"/>
<path d="M144.996 27.088C145.224 26.4631 145.309 25.7954 145.242 25.134C145.175 24.4726 144.96 23.8344 144.611 23.2666C144.262 22.6988 143.788 22.2158 143.226 21.8533C142.663 21.4908 142.025 21.2579 141.36 21.172C140.989 21.7832 140.791 22.4818 140.786 23.1947C140.781 23.9077 140.97 24.6088 141.332 25.2248C141.695 25.8409 142.218 26.3492 142.847 26.6966C143.475 27.0441 144.187 27.2179 144.907 27.2" fill="#FFC727"/>
<path d="M151.48 61.72L152.966 63.544H171.223L172.468 61.72H151.48Z" fill="#263238"/>
<path d="M172.068 61.704C172.068 61.764 167.579 61.808 162.048 61.808C156.518 61.808 152.025 61.764 152.025 61.704C152.025 61.644 156.51 61.6 162.048 61.6C167.587 61.6 172.068 61.648 172.068 61.704Z" fill="#455A64"/>
<path d="M170.015 54.84C169.985 54.8945 169.947 54.9444 169.902 54.988C169.786 55.1283 169.662 55.2619 169.53 55.388C169.05 55.8371 168.505 56.2144 167.914 56.508C167.032 56.9385 166.069 57.1849 165.086 57.232C164.501 57.2584 163.914 57.21 163.341 57.088C162.732 56.9484 162.137 56.7529 161.564 56.504C160.388 56.008 159.317 55.444 158.275 55.116C157.371 54.7886 156.398 54.6949 155.447 54.844C154.804 54.9535 154.202 55.2295 153.702 55.644C153.354 55.944 153.225 56.172 153.205 56.156C153.228 56.0972 153.259 56.0419 153.298 55.992C153.401 55.8476 153.519 55.7136 153.649 55.592C154.143 55.1402 154.755 54.834 155.415 54.708C156.395 54.5285 157.405 54.6085 158.344 54.94C159.41 55.264 160.493 55.832 161.657 56.32C162.218 56.5632 162.801 56.756 163.398 56.896C163.953 57.0165 164.522 57.0676 165.091 57.048C166.057 57.0135 167.006 56.7877 167.882 56.384C168.668 55.9794 169.387 55.4587 170.015 54.84Z" fill="#455A64"/>
<path d="M170.197 53.428C170.162 53.4802 170.12 53.5273 170.072 53.568C169.946 53.6968 169.811 53.817 169.668 53.928C169.154 54.3465 168.586 54.6961 167.979 54.968C167.073 55.3691 166.099 55.5997 165.107 55.648C164.521 55.6717 163.935 55.6328 163.357 55.532C162.744 55.4106 162.142 55.2407 161.556 55.024C160.344 54.592 159.245 54.092 158.186 53.8C157.261 53.5111 156.284 53.4237 155.322 53.544C154.674 53.6346 154.056 53.8683 153.512 54.228C153.132 54.492 152.967 54.692 152.95 54.676C152.983 54.6221 153.023 54.5724 153.068 54.528C153.19 54.3943 153.326 54.2724 153.472 54.164C154.012 53.7661 154.641 53.5039 155.306 53.4C156.29 53.2539 157.295 53.3277 158.247 53.616C159.326 53.904 160.441 54.416 161.632 54.816C162.209 55.0289 162.802 55.1961 163.406 55.316C163.966 55.4208 164.537 55.4638 165.107 55.444C166.08 55.4077 167.038 55.1963 167.935 54.82C168.749 54.4585 169.509 53.9903 170.197 53.428Z" fill="#455A64"/>
<path d="M144.192 65.568H142.41V70.488H144.192V65.568Z" fill="#455A64"/>
<path d="M169.62 65.568H167.838V70.488H169.62V65.568Z" fill="#455A64"/>
<path d="M168.743 168.18C168.056 169.156 166.723 168.832 166.089 168.236C165.454 167.64 165.204 166.776 164.965 165.952C164.42 164.072 163.867 162.096 164.275 160.18C164.372 159.6 164.629 159.057 165.018 158.612C165.215 158.39 165.469 158.223 165.753 158.131C166.038 158.038 166.342 158.022 166.634 158.084C167.309 158.26 167.733 158.916 168.036 159.54C168.93 161.383 169.399 163.399 169.409 165.444C169.476 166.401 169.247 167.354 168.755 168.18" fill="#FFC727"/>
<g opacity="0.2">
<path d="M168.743 168.18C168.056 169.156 166.723 168.832 166.089 168.236C165.454 167.64 165.204 166.776 164.965 165.952C164.42 164.072 163.867 162.096 164.275 160.18C164.372 159.6 164.629 159.057 165.018 158.612C165.215 158.39 165.469 158.223 165.753 158.131C166.038 158.038 166.342 158.022 166.634 158.084C167.309 158.26 167.733 158.916 168.036 159.54C168.93 161.383 169.399 163.399 169.409 165.444C169.476 166.401 169.247 167.354 168.755 168.18" fill="black"/>
</g>
<path d="M166.157 173.124C164.999 172.587 163.698 172.43 162.444 172.676C161.76 172.735 161.115 173.016 160.61 173.476C160.154 173.976 160.065 174.86 160.59 175.288C160.931 175.515 161.34 175.619 161.749 175.58C162.731 175.58 163.818 175.396 164.602 175.98C165.05 176.312 165.349 176.868 165.882 177.032C166.15 177.093 166.431 177.066 166.682 176.955C166.933 176.844 167.14 176.655 167.272 176.416C167.527 175.93 167.584 175.366 167.43 174.84C167.365 174.476 167.217 174.132 166.996 173.835C166.775 173.537 166.488 173.294 166.157 173.124Z" fill="#FFC727"/>
<path d="M170.641 169.6C170.286 169.142 170.05 168.604 169.953 168.035C169.855 167.465 169.9 166.88 170.084 166.332C170.462 165.238 171.139 164.269 172.039 163.532C173.061 162.63 174.251 161.934 175.542 161.484C176.041 161.284 176.579 161.193 177.118 161.22C177.387 161.236 177.649 161.317 177.879 161.457C178.109 161.596 178.301 161.79 178.439 162.02C178.806 162.716 178.439 163.56 178.071 164.248C177.397 165.463 176.627 166.622 175.768 167.716C175.081 168.596 174.29 169.464 173.239 169.864C172.189 170.264 171.098 170.212 170.54 169.492" fill="#FFC727"/>
<path d="M168.791 182.908C168.756 182.762 168.736 182.614 168.731 182.464L168.609 181.264C168.548 180.668 168.457 180.075 168.335 179.488C168.176 178.773 167.958 178.072 167.684 177.392C167.415 176.712 167.051 176.072 166.602 175.492C166.236 175.02 165.77 174.633 165.236 174.36C164.874 174.182 164.485 174.062 164.085 174.004C163.933 174.001 163.782 173.979 163.636 173.94C163.788 173.925 163.941 173.925 164.093 173.94C164.512 173.968 164.923 174.073 165.305 174.248C165.867 174.512 166.361 174.9 166.747 175.384C167.215 175.969 167.592 176.621 167.866 177.316C168.144 178.007 168.36 178.72 168.513 179.448C168.63 180.043 168.709 180.644 168.751 181.248C168.791 181.76 168.807 182.176 168.811 182.448C168.822 182.602 168.815 182.756 168.791 182.908Z" fill="#263238"/>
<path d="M168.706 181.976C168.701 181.908 168.701 181.84 168.706 181.772C168.706 181.616 168.706 181.42 168.706 181.184C168.706 180.672 168.706 179.932 168.678 179.02C168.634 177.192 168.472 174.672 168.165 171.904C167.858 169.136 167.45 166.636 167.074 164.848C166.985 164.4 166.897 163.996 166.816 163.648C166.735 163.3 166.666 162.988 166.602 162.74C166.537 162.492 166.501 162.34 166.46 162.168C166.443 162.102 166.431 162.036 166.424 161.968C166.458 162.028 166.483 162.093 166.497 162.16C166.545 162.308 166.602 162.496 166.67 162.724C166.739 162.952 166.824 163.272 166.917 163.624C167.01 163.976 167.107 164.38 167.204 164.824C167.713 167.155 168.096 169.512 168.351 171.884C168.658 174.66 168.795 177.188 168.807 179.016C168.807 179.932 168.807 180.672 168.775 181.184C168.775 181.424 168.763 181.62 168.739 181.772C168.739 181.841 168.728 181.91 168.706 181.976Z" fill="#263238"/>
<path d="M168.694 177.1C168.677 176.896 168.677 176.692 168.694 176.488C168.718 176.088 168.771 175.52 168.884 174.82C169.023 174.004 169.208 173.196 169.438 172.4C169.709 171.419 170.052 170.459 170.464 169.528C171.173 167.813 172.193 166.24 173.474 164.888C173.693 164.654 173.93 164.436 174.181 164.236C174.29 164.144 174.387 164.052 174.484 163.98L174.758 163.792C174.925 163.671 175.099 163.56 175.279 163.46C174.679 163.932 174.107 164.438 173.566 164.976C172.329 166.34 171.337 167.904 170.633 169.6C170.226 170.526 169.881 171.477 169.599 172.448C169.333 173.34 169.155 174.16 169.017 174.848C168.88 175.536 168.815 176.104 168.771 176.496C168.762 176.699 168.736 176.901 168.694 177.1Z" fill="#263238"/>
</svg>
