<svg width="326" height="46" viewBox="0 0 326 46" fill="none" xmlns="http://www.w3.org/2000/svg">
<path d="M24.88 0.199997C29.104 0.199997 32.9013 0.839998 36.272 2.12C39.6427 3.4 42.3093 5.29866 44.272 7.816C46.2773 10.2907 47.28 13.32 47.28 16.904H33.776C33.776 15.0693 32.9653 13.5973 31.344 12.488C29.7227 11.336 27.76 10.76 25.456 10.76C22.128 10.76 19.6107 11.656 17.904 13.448C16.1973 15.1973 15.344 17.6933 15.344 20.936V25.032C15.344 28.2747 16.1973 30.792 17.904 32.584C19.6107 34.3333 22.128 35.208 25.456 35.208C27.76 35.208 29.7227 34.6747 31.344 33.608C32.9653 32.4987 33.776 31.0907 33.776 29.384H23.792V20.424H47.28V45H39.984L38.576 40.648C34.5653 44.0613 29.3173 45.768 22.832 45.768C15.536 45.768 10.0533 43.8693 6.384 40.072C2.71467 36.232 0.88 30.536 0.88 22.984C0.88 15.5173 2.94933 9.864 7.088 6.024C11.2693 2.14133 17.2 0.199997 24.88 0.199997ZM83.3765 45H69.2325V27.912L51.7605 0.967999H68.0165L76.4645 15.624H76.7205L85.1685 0.967999H100.593L83.3765 27.912V45ZM143.685 45V29.128C143.685 27.1653 143.749 25.16 143.877 23.112C144.048 21.0213 144.218 19.272 144.389 17.864C144.56 16.456 144.666 15.56 144.709 15.176H144.453L136.325 45H125.253L117.061 15.24H116.805C116.848 15.624 116.954 16.52 117.125 17.928C117.338 19.2933 117.53 21.0213 117.701 23.112C117.872 25.16 117.957 27.1653 117.957 29.128V45H104.965V0.967999H124.933L131.589 26.376H131.845L138.437 0.967999H157.701V45H143.685Z" fill="#FFC727"/>
<path d="M184.795 0.199997C190.427 0.199997 195.056 1.352 198.683 3.656C202.309 5.91733 204.165 9.288 204.251 13.768V14.536H191.003V14.28C191.003 13 190.533 11.9333 189.595 11.08C188.656 10.2267 187.227 9.8 185.307 9.8C183.429 9.8 181.979 10.0773 180.955 10.632C179.973 11.1867 179.483 11.8693 179.483 12.68C179.483 13.832 180.165 14.6853 181.531 15.24C182.896 15.7947 185.093 16.3707 188.123 16.968C191.664 17.6933 194.565 18.4613 196.826 19.272C199.131 20.04 201.136 21.32 202.843 23.112C204.549 24.904 205.424 27.336 205.467 30.408C205.467 35.6133 203.696 39.4747 200.155 41.992C196.656 44.5093 191.963 45.768 186.075 45.768C179.205 45.768 173.851 44.616 170.01 42.312C166.213 40.008 164.315 35.9333 164.315 30.088H177.691C177.691 32.3067 178.267 33.8 179.419 34.568C180.571 35.2933 182.363 35.656 184.795 35.656C186.587 35.656 188.059 35.464 189.211 35.08C190.405 34.696 191.003 33.9067 191.003 32.712C191.003 31.6453 190.341 30.856 189.019 30.344C187.739 29.7893 185.627 29.2133 182.683 28.616C179.099 27.848 176.133 27.0587 173.787 26.248C171.44 25.3947 169.392 24.008 167.643 22.088C165.893 20.168 165.019 17.5653 165.019 14.28C165.019 9.45866 166.875 5.91733 170.587 3.656C174.341 1.352 179.077 0.199997 184.795 0.199997ZM213.126 45V0.967999H227.27V45H213.126ZM256.433 0.967999C271.836 0.967999 279.537 8.30667 279.537 22.984C279.537 37.6613 271.836 45 256.433 45H237.361V0.967999H256.433ZM251.505 34.44H256.177C262.108 34.44 265.073 31.2613 265.073 24.904V21.064C265.073 14.7067 262.108 11.528 256.177 11.528H251.505V34.44ZM287.174 0.967999H325.254V11.528H301.318V17.608H321.798V27.72H301.318V34.44H325.702V45H287.174V0.967999Z" fill="black"/>
</svg>
