<svg width="48" height="48" viewBox="0 0 48 48" fill="none" xmlns="http://www.w3.org/2000/svg">
<path d="M44 24C44 35.045 35.045 44 24 44C12.955 44 4 35.045 4 24C4 12.955 12.955 4 24 4C35.045 4 44 12.955 44 24Z" fill="url(#paint0_linear_29_351)"/>
<path opacity="0.05" d="M10.1192 23.4661C18.2742 19.7711 27.8522 15.7621 29.3272 15.1821C32.5792 13.9031 33.9972 15.2101 33.7752 17.2951C33.5022 19.8501 32.2082 27.2851 31.4122 32.6121C30.9462 35.7291 29.2582 36.6841 27.3532 35.4751C25.9082 34.5581 20.9402 31.3051 19.6332 30.1931C18.7422 29.4351 18.1212 28.5851 18.7532 27.7191C18.9382 27.4661 19.4112 26.9561 19.6742 26.7021C20.9932 25.4241 20.8152 25.1491 19.2202 26.2901C19.0302 26.4261 17.9282 27.2251 17.4752 27.5271C16.3652 28.2671 15.3442 28.3071 13.6132 27.7191C12.1972 27.2381 10.8372 26.8671 9.97916 26.4961C8.79416 25.9831 8.34016 24.2721 10.1192 23.4661Z" fill="black"/>
<path opacity="0.07" d="M10.836 23.5909C18.408 20.2059 27.72 16.3269 29.082 15.7779C32.346 14.4599 33.547 15.2419 33.196 17.7889C32.87 20.1469 31.713 27.4429 30.902 32.3339C30.424 35.2129 29.028 35.8469 27.21 34.6709C26.071 33.9369 21.487 30.9169 20.375 30.0379C19.515 29.3589 18.624 28.5749 19.665 27.4399C20.013 27.0609 21.935 25.2059 23.372 23.8259C24.205 23.0249 23.908 22.6299 22.903 23.3179C21.06 24.5809 18.045 26.5799 17.507 26.9429C16.482 27.6329 15.519 27.7989 13.843 27.2719C12.522 26.8559 11.246 26.4529 10.581 26.1939C9.09498 25.6179 9.07498 24.3779 10.836 23.5909Z" fill="black"/>
<path d="M11.553 23.717C18.543 20.642 27.588 16.893 28.837 16.374C32.112 15.016 33.117 15.276 32.616 18.284C32.256 20.446 31.218 27.603 30.39 32.058C29.899 34.7 28.797 35.013 27.065 33.87C26.232 33.32 22.027 30.539 21.114 29.886C20.281 29.291 19.132 28.575 20.573 27.165C21.086 26.663 24.447 23.453 27.066 20.955C27.409 20.627 26.978 20.088 26.582 20.351C23.052 22.692 18.158 25.941 17.535 26.364C16.594 27.003 15.69 27.296 14.068 26.83C12.842 26.478 11.645 26.058 11.179 25.898C9.38401 25.282 9.81001 24.484 11.553 23.717Z" fill="white"/>
<defs>
<linearGradient id="paint0_linear_29_351" x1="9.8581" y1="9.8581" x2="38.1419" y2="38.1419" gradientUnits="userSpaceOnUse">
<stop stop-color="#33BEF0"/>
<stop offset="1" stop-color="#0A85D9"/>
</linearGradient>
</defs>
</svg>
