<svg width="48" height="48" viewBox="0 0 48 48" fill="none" xmlns="http://www.w3.org/2000/svg">
<path d="M34.0172 41.99L14.0172 42.009C9.61724 42.013 6.01424 38.417 6.00924 34.017L5.99024 14.017C5.98624 9.61699 9.58224 6.01399 13.9822 6.00899L33.9822 5.98999C38.3822 5.98599 41.9852 9.58199 41.9902 13.982L42.0092 33.982C42.0142 38.383 38.4172 41.986 34.0172 41.99Z" fill="url(#paint0_radial_29_374)"/>
<path d="M34.0172 41.99L14.0172 42.009C9.61724 42.013 6.01424 38.417 6.00924 34.017L5.99024 14.017C5.98624 9.61699 9.58224 6.01399 13.9822 6.00899L33.9822 5.98999C38.3822 5.98599 41.9852 9.58199 41.9902 13.982L42.0092 33.982C42.0142 38.383 38.4172 41.986 34.0172 41.99Z" fill="url(#paint1_radial_29_374)"/>
<path d="M24 31C20.141 31 17 27.86 17 24C17 20.14 20.141 17 24 17C27.859 17 31 20.14 31 24C31 27.86 27.859 31 24 31ZM24 19C21.243 19 19 21.243 19 24C19 26.757 21.243 29 24 29C26.757 29 29 26.757 29 24C29 21.243 26.757 19 24 19Z" fill="white"/>
<path d="M31.5 18C32.3284 18 33 17.3284 33 16.5C33 15.6716 32.3284 15 31.5 15C30.6716 15 30 15.6716 30 16.5C30 17.3284 30.6716 18 31.5 18Z" fill="white"/>
<path d="M30 37H18C14.141 37 11 33.86 11 30V18C11 14.14 14.141 11 18 11H30C33.859 11 37 14.14 37 18V30C37 33.86 33.859 37 30 37ZM18 13C15.243 13 13 15.243 13 18V30C13 32.757 15.243 35 18 35H30C32.757 35 35 32.757 35 30V18C35 15.243 32.757 13 30 13H18Z" fill="white"/>
<defs>
<radialGradient id="paint0_radial_29_374" cx="0" cy="0" r="1" gradientUnits="userSpaceOnUse" gradientTransform="translate(19.3804 42.0351) scale(44.8989 44.8989)">
<stop stop-color="#FFDD55"/>
<stop offset="0.328" stop-color="#FF543F"/>
<stop offset="0.3484" stop-color="#FC5245"/>
<stop offset="0.5039" stop-color="#E64771"/>
<stop offset="0.6433" stop-color="#D53E91"/>
<stop offset="0.7606" stop-color="#CC39A4"/>
<stop offset="0.8414" stop-color="#C837AB"/>
</radialGradient>
<radialGradient id="paint1_radial_29_374" cx="0" cy="0" r="1" gradientUnits="userSpaceOnUse" gradientTransform="translate(11.7861 5.54036) scale(29.8134 19.8647)">
<stop stop-color="#4168C9"/>
<stop offset="0.9988" stop-color="#4168C9" stop-opacity="0"/>
</radialGradient>
</defs>
</svg>
