<svg width="244" height="35" viewBox="0 0 244 35" fill="none" xmlns="http://www.w3.org/2000/svg">
<path d="M18.16 0.399998C21.328 0.399998 24.176 0.879998 26.704 1.84C29.232 2.8 31.232 4.224 32.704 6.112C34.208 7.968 34.96 10.24 34.96 12.928H24.832C24.832 11.552 24.224 10.448 23.008 9.616C21.792 8.752 20.32 8.32 18.592 8.32C16.096 8.32 14.208 8.992 12.928 10.336C11.648 11.648 11.008 13.52 11.008 15.952V19.024C11.008 21.456 11.648 23.344 12.928 24.688C14.208 26 16.096 26.656 18.592 26.656C20.32 26.656 21.792 26.256 23.008 25.456C24.224 24.624 24.832 23.568 24.832 22.288H17.344V15.568H34.96V34H29.488L28.432 30.736C25.424 33.296 21.488 34.576 16.624 34.576C11.152 34.576 7.04 33.152 4.288 30.304C1.536 27.424 0.16 23.152 0.16 17.488C0.16 11.888 1.712 7.648 4.816 4.768C7.952 1.856 12.4 0.399998 18.16 0.399998ZM62.0324 34H51.4244V21.184L38.3204 0.975999H50.5124L56.8484 11.968H57.0404L63.3764 0.975999H74.9444L62.0324 21.184V34ZM107.264 34V22.096C107.264 20.624 107.312 19.12 107.408 17.584C107.536 16.016 107.664 14.704 107.792 13.648C107.92 12.592 108 11.92 108.032 11.632H107.84L101.744 34H93.4398L87.2958 11.68H87.1038C87.1358 11.968 87.2158 12.64 87.3438 13.696C87.5038 14.72 87.6478 16.016 87.7758 17.584C87.9038 19.12 87.9678 20.624 87.9678 22.096V34H78.2238V0.975999H93.1998L98.1918 20.032H98.3838L103.328 0.975999H117.776V34H107.264Z" fill="#FFC727"/>
<path d="M138.096 0.399998C142.32 0.399998 145.792 1.264 148.512 2.992C151.232 4.688 152.624 7.216 152.688 10.576V11.152H142.752V10.96C142.752 10 142.4 9.2 141.696 8.56C140.992 7.92 139.92 7.6 138.48 7.6C137.072 7.6 135.984 7.808 135.216 8.224C134.48 8.64 134.112 9.152 134.112 9.76C134.112 10.624 134.624 11.264 135.648 11.68C136.672 12.096 138.32 12.528 140.592 12.976C143.248 13.52 145.424 14.096 147.12 14.704C148.848 15.28 150.352 16.24 151.632 17.584C152.912 18.928 153.568 20.752 153.6 23.056C153.6 26.96 152.272 29.856 149.616 31.744C146.992 33.632 143.472 34.576 139.056 34.576C133.904 34.576 129.888 33.712 127.008 31.984C124.16 30.256 122.736 27.2 122.736 22.816H132.768C132.768 24.48 133.2 25.6 134.064 26.176C134.928 26.72 136.272 26.992 138.096 26.992C139.44 26.992 140.544 26.848 141.408 26.56C142.304 26.272 142.752 25.68 142.752 24.784C142.752 23.984 142.256 23.392 141.264 23.008C140.304 22.592 138.72 22.16 136.512 21.712C133.824 21.136 131.6 20.544 129.84 19.936C128.08 19.296 126.544 18.256 125.232 16.816C123.92 15.376 123.264 13.424 123.264 10.96C123.264 7.344 124.656 4.688 127.44 2.992C130.256 1.264 133.808 0.399998 138.096 0.399998ZM159.345 34V0.975999H169.953V34H159.345ZM191.825 0.975999C203.377 0.975999 209.153 6.48 209.153 17.488C209.153 28.496 203.377 34 191.825 34H177.521V0.975999H191.825ZM188.129 26.08H191.633C196.081 26.08 198.305 23.696 198.305 18.928V16.048C198.305 11.28 196.081 8.896 191.633 8.896H188.129V26.08ZM214.88 0.975999H243.44V8.896H225.488V13.456H240.848V21.04H225.488V26.08H243.776V34H214.88V0.975999Z" fill="black"/>
</svg>
