<svg width="274" height="187" viewBox="0 0 274 187" fill="none" xmlns="http://www.w3.org/2000/svg">
<path d="M167.55 133.905C167.55 133.905 156.751 158.527 174.422 158.527C192.093 158.527 180.64 133.067 180.64 133.067C180.64 133.067 184.731 131.225 179.986 117.49C175.241 103.755 173.12 103.755 171.15 103.755C168.66 103.755 166.341 109.702 168.041 118.83C168.041 118.83 161.824 130.22 167.55 133.905Z" fill="#EBEBEB"/>
<path d="M175.99 174.857L174.287 137.765L172.583 174.857H175.99Z" fill="#A6A6A6"/>
<path d="M174.979 153.316L168.558 145.637L173.594 154.332L174.979 153.316Z" fill="#A6A6A6"/>
<path d="M41.5883 135.223C41.5883 135.223 52.0398 159.053 34.9374 159.053C17.8351 159.053 28.92 134.412 28.92 134.412C28.92 134.412 24.9613 132.629 29.5535 119.336C34.1457 106.042 36.1978 106.042 38.1045 106.042C40.5146 106.042 42.7585 111.798 41.1134 120.633C41.1134 120.633 47.1308 131.656 41.5883 135.223Z" fill="#DBDBDB"/>
<path d="M33.4207 174.857L35.069 138.959L36.7171 174.857H33.4207Z" fill="#A6A6A6"/>
<path d="M34.3989 154.009L40.6136 146.577L35.7386 154.992L34.3989 154.009Z" fill="#A6A6A6"/>
<path d="M208.153 135.223C208.153 135.223 218.604 159.053 201.502 159.053C184.399 159.053 195.484 134.412 195.484 134.412C195.484 134.412 191.525 132.629 196.118 119.336C200.71 106.042 202.762 106.042 204.669 106.042C207.079 106.042 209.322 111.798 207.678 120.633C207.678 120.633 213.695 131.656 208.153 135.223Z" fill="#DBDBDB"/>
<path d="M199.984 174.857L201.633 138.959L203.281 174.857H199.984Z" fill="#A6A6A6"/>
<path d="M200.963 154.009L207.178 146.577L202.303 154.992L200.963 154.009Z" fill="#A6A6A6"/>
<path d="M103.115 135.223C103.115 135.223 92.6637 159.053 109.766 159.053C126.868 159.053 115.783 134.412 115.783 134.412C115.783 134.412 119.742 132.629 115.15 119.336C110.558 106.042 108.506 106.042 106.599 106.042C104.189 106.042 101.945 111.798 103.59 120.633C103.59 120.633 97.5727 131.656 103.115 135.223Z" fill="#DBDBDB"/>
<path d="M111.283 174.857L109.635 138.959L107.987 174.857H111.283Z" fill="#A6A6A6"/>
<path d="M110.305 154.009L104.09 146.577L108.965 154.992L110.305 154.009Z" fill="#A6A6A6"/>
<path d="M237.206 133.424C237.206 133.424 242.657 131.209 246.983 138.916C251.419 146.818 245.858 152.025 241.446 148.925C241.446 148.925 237.985 156.365 231.063 154.593C224.141 152.822 223.016 147.153 223.016 147.153C223.016 147.153 216.873 147.596 216.7 142.901C216.527 138.207 221.027 134.044 221.027 134.044C221.027 134.044 221.286 122.352 228.727 122.44C236.168 122.529 237.206 133.424 237.206 133.424Z" fill="#EBEBEB"/>
<path d="M232.145 174.857L230.587 140.067L229.03 174.857H232.145Z" fill="#A6A6A6"/>
<path d="M231.255 152.723L235.826 143.381L229.92 151.902L231.255 152.723Z" fill="#A6A6A6"/>
<path d="M82.8466 129.59C82.8466 129.59 76.8913 127.17 72.165 135.59C67.3181 144.223 73.394 149.912 78.2149 146.525C78.2149 146.525 81.9961 154.653 89.5581 152.718C97.1205 150.783 98.3495 144.589 98.3495 144.589C98.3495 144.589 105.061 145.073 105.25 139.944C105.439 134.815 100.524 130.267 100.524 130.267C100.524 130.267 100.24 117.493 92.1107 117.59C83.9813 117.686 82.8466 129.59 82.8466 129.59Z" fill="#EBEBEB"/>
<path d="M88.3762 174.857L90.0779 136.848L91.7793 174.857H88.3762Z" fill="#A6A6A6"/>
<path d="M89.3487 150.675L84.3542 140.469L90.8071 149.778L89.3487 150.675Z" fill="#A6A6A6"/>
<path d="M205.982 52.7755C208.608 52.7755 252.807 53.0732 255.584 52.9827C255.784 52.9771 255.891 52.676 255.693 52.5754C253.942 51.6879 251.955 51.8659 250.136 51.2384C249.065 50.8692 248.408 50.1523 247.665 49.3306C247.023 48.6196 246.279 48.0751 245.365 47.7935C244.556 47.5451 243.682 47.5133 242.861 47.713C241.964 47.9322 241.185 48.4577 240.33 48.789C238.206 49.6092 236.143 48.8298 234.627 47.2212C233.377 45.8958 232.147 44.6448 230.448 43.9308C229.025 43.3324 227.445 43.2082 226.02 43.868C224.399 44.6197 223.287 46.1322 221.764 47.0413C219.959 48.1215 217.8 47.866 215.806 48.1918C213.807 48.5186 212.282 50.2368 210.533 51.2268C209.936 51.5656 209.324 51.8487 208.627 51.8312C208.236 51.8211 207.853 51.713 207.466 51.6632C206.865 51.5873 206.293 51.6049 205.888 52.1188C205.789 52.2441 205.809 52.7755 205.982 52.7755Z" fill="#EBEBEB"/>
<path d="M18.3137 32.4591C20.2313 32.4591 52.5005 32.6764 54.5285 32.6106C54.6742 32.6064 54.7524 32.3869 54.6078 32.3132C53.3295 31.6651 51.8791 31.7952 50.5507 31.3371C49.7689 31.0674 49.2889 30.5442 48.7467 29.9443C48.2784 29.4252 47.7347 29.0276 47.0673 28.8219C46.4769 28.6409 45.839 28.6174 45.2391 28.7632C44.5845 28.9229 44.016 29.3066 43.3913 29.5486C41.8412 30.1478 40.3345 29.5785 39.2279 28.4038C38.315 27.4359 37.4174 26.5226 36.1767 26.0016C35.1377 25.5648 33.9843 25.4739 32.9442 25.9556C31.7605 26.5046 30.9484 27.6087 29.8367 28.2725C28.5186 29.0613 26.9425 28.8747 25.487 29.1125C24.0275 29.3511 22.9136 30.6055 21.6371 31.3281C21.2009 31.5753 20.7541 31.7821 20.2452 31.7694C19.9599 31.762 19.6801 31.683 19.3977 31.6468C18.9582 31.5914 18.5409 31.6041 18.245 31.9792C18.1731 32.0712 18.188 32.4591 18.3137 32.4591Z" fill="#EBEBEB"/>
<path d="M154.379 83.6062C156.297 83.6062 188.566 83.8235 190.594 83.7577C190.74 83.7536 190.818 83.534 190.674 83.4603C189.395 82.8122 187.945 82.9424 186.617 82.4842C185.835 82.2146 185.355 81.6913 184.812 81.0914C184.344 80.5723 183.8 80.1748 183.133 79.9691C182.543 79.788 181.905 79.7645 181.305 79.9103C180.65 80.07 180.082 80.4538 179.457 80.6957C177.907 81.2949 176.4 80.7257 175.294 79.5509C174.381 78.583 173.483 77.6697 172.242 77.1487C171.203 76.7119 170.05 76.621 169.01 77.1027C167.826 77.6517 167.014 78.7558 165.902 79.4196C164.584 80.2084 163.008 80.0218 161.553 80.2597C160.093 80.4983 158.979 81.7527 157.703 82.4752C157.267 82.7224 156.82 82.9293 156.311 82.9165C156.026 82.9091 155.746 82.8301 155.463 82.7939C155.024 82.7385 154.607 82.7512 154.311 83.1264C154.239 83.2184 154.253 83.6062 154.379 83.6062Z" fill="#EBEBEB"/>
<path d="M91.6008 42.9876C93.5184 42.9876 125.788 43.2049 127.816 43.139C127.961 43.1349 128.039 42.9154 127.895 42.8417C126.616 42.1936 125.166 42.3237 123.838 41.8656C123.056 41.5959 122.576 41.0727 122.034 40.4724C121.565 39.9533 121.022 39.5557 120.355 39.35C119.764 39.169 119.126 39.1455 118.527 39.2913C117.872 39.451 117.303 39.8347 116.679 40.0767C115.129 40.6755 113.622 40.1066 112.515 38.9319C111.602 37.964 110.705 37.0507 109.464 36.5297C108.425 36.0929 107.272 36.002 106.232 36.4837C105.048 37.0327 104.236 38.1368 103.124 38.8006C101.806 39.5894 100.23 39.4028 98.7744 39.6406C97.3149 39.8792 96.201 41.1336 94.9246 41.8562C94.4884 42.1034 94.0419 42.3102 93.5326 42.2975C93.2473 42.2901 92.9675 42.2111 92.6851 42.1749C92.2459 42.1195 91.8284 42.1322 91.5328 42.5073C91.4601 42.5993 91.4747 42.9876 91.6008 42.9876Z" fill="#EBEBEB"/>
<path d="M35.47 63.865C35.5073 63.9753 86.3303 63.865 85.6887 63.865C85.3965 63.865 86.1323 63.4173 85.8462 63.2729C84.1916 62.4326 82.3817 62.409 80.5803 62.2392C79.5292 62.1416 78.4489 61.9845 77.5034 61.4751C76.5455 60.9616 75.9486 60.07 75.2683 59.2465C73.168 56.6932 69.8263 55.3625 66.5898 55.8805C62.9763 56.4598 60.1275 59.2786 56.5077 59.7962C54.3329 60.1082 52.2761 59.2465 50.1513 58.9432C48.4014 58.6948 46.944 59.043 45.3786 59.8366C44.2322 60.4182 43.1727 60.9085 41.8769 60.9998C40.8817 61.072 39.8825 60.9553 38.8852 60.9444C37.2887 60.9295 35.713 61.6374 34.4836 62.7456C34.3225 62.8922 33.8107 63.865 35.47 63.865Z" fill="#EBEBEB"/>
<path d="M183.419 92.3047C183.457 92.415 234.279 92.3047 233.638 92.3047C233.346 92.3047 234.081 91.857 233.795 91.7126C232.141 90.8723 230.331 90.8487 228.53 90.6789C227.478 90.5813 226.398 90.4242 225.453 89.9148C224.495 89.4013 223.898 88.5097 223.218 87.6862C221.117 85.1329 217.775 83.8022 214.539 84.3202C210.926 84.8995 208.077 87.7183 204.457 88.2359C202.282 88.5479 200.225 87.6862 198.101 87.3829C196.351 87.1345 194.893 87.4827 193.328 88.2763C192.181 88.8579 191.122 89.3482 189.826 89.4395C188.831 89.5117 187.832 89.395 186.834 89.3845C185.238 89.3695 183.662 90.0775 182.433 91.1853C182.272 91.3315 181.76 92.3047 183.419 92.3047Z" fill="#EBEBEB"/>
<path d="M97.1527 174.882H76.332C76.332 174.882 76.3803 171.709 78.4269 170.868C80.4734 170.026 81.6907 171.668 81.6907 171.668C81.6907 171.668 82.5255 165.835 86.34 165.835C90.1544 165.835 91.9796 170.868 91.9796 170.868C91.9796 170.868 92.8338 169.346 94.9512 169.63C97.0687 169.913 97.1527 174.882 97.1527 174.882Z" fill="#455A64"/>
<path d="M213.135 174.882C213.135 174.882 212.497 171.833 211.222 171.363C209.948 170.893 209.172 172.261 209.172 172.261C209.172 172.261 208.872 169.348 207.064 168.477C205.257 167.605 203.9 169.39 203.9 169.39C203.9 169.39 202.513 165.694 200.035 165.694C197.558 165.694 196.308 171.102 196.308 171.102C196.308 171.102 194.846 169.49 193.346 170.4C191.847 171.311 191.847 174.881 191.847 174.881H213.135V174.882Z" fill="#37474F"/>
<path d="M80.0636 174.882H60.865C60.865 174.882 61.4974 172.111 62.7706 171.915C64.0438 171.718 64.636 173.003 64.636 173.003C64.636 173.003 64.5782 169.139 66.9562 168.48C69.3338 167.822 71.3278 171.237 71.3278 171.237C71.3278 171.237 72.8187 169.29 74.8503 169.415C76.8819 169.539 77.3978 172.756 77.3978 172.756C77.3978 172.756 79.2464 171.639 80.0636 174.882Z" fill="#37474F"/>
<path d="M193.223 174.882H181.427C181.427 174.882 181.455 173.084 182.614 172.607C183.774 172.131 184.463 173.061 184.463 173.061C184.463 173.061 184.936 169.756 187.097 169.756C189.259 169.756 190.293 172.607 190.293 172.607C190.293 172.607 190.777 171.746 191.976 171.906C193.176 172.067 193.223 174.882 193.223 174.882Z" fill="#455A64"/>
<path d="M247.807 174.882H26.1929V176.895H247.807V174.882Z" fill="#A6A6A6"/>
<path d="M37.5954 174.882C37.8452 175.549 37.8471 176.228 37.5954 176.895C37.3433 176.228 37.3451 175.549 37.5954 174.882Z" fill="#263238"/>
<path d="M50.8493 174.882C51.0992 175.549 51.101 176.228 50.8493 176.895C50.5972 176.228 50.599 175.549 50.8493 174.882Z" fill="#263238"/>
<path d="M64.1033 174.882C64.3532 175.549 64.355 176.228 64.1033 176.895C63.8512 176.228 63.8534 175.549 64.1033 174.882Z" fill="#263238"/>
<path d="M77.3572 174.882C77.6071 175.549 77.6093 176.228 77.3572 176.895C77.1051 176.228 77.1073 175.549 77.3572 174.882Z" fill="#263238"/>
<path d="M90.6111 174.882C90.861 175.549 90.8628 176.228 90.6111 176.895C90.359 176.228 90.3612 175.549 90.6111 174.882Z" fill="#263238"/>
<path d="M103.865 174.882C104.115 175.549 104.117 176.228 103.865 176.895C103.613 176.228 103.615 175.549 103.865 174.882Z" fill="#263238"/>
<path d="M117.119 174.882C117.369 175.549 117.371 176.228 117.119 176.895C116.867 176.228 116.869 175.549 117.119 174.882Z" fill="#263238"/>
<path d="M130.373 174.882C130.623 175.549 130.625 176.228 130.373 176.895C130.121 176.228 130.123 175.549 130.373 174.882Z" fill="#263238"/>
<path d="M143.627 174.882C143.877 175.549 143.879 176.228 143.627 176.895C143.375 176.228 143.377 175.549 143.627 174.882Z" fill="#263238"/>
<path d="M156.881 174.882C157.131 175.549 157.133 176.228 156.881 176.895C156.629 176.228 156.631 175.549 156.881 174.882Z" fill="#263238"/>
<path d="M170.135 174.882C170.385 175.549 170.387 176.228 170.135 176.895C169.883 176.228 169.885 175.549 170.135 174.882Z" fill="#263238"/>
<path d="M183.389 174.882C183.639 175.549 183.641 176.228 183.389 176.895C183.137 176.228 183.139 175.549 183.389 174.882Z" fill="#263238"/>
<path d="M196.643 174.882C196.893 175.549 196.895 176.228 196.643 176.895C196.391 176.228 196.393 175.549 196.643 174.882Z" fill="#263238"/>
<path d="M209.897 174.882C210.147 175.549 210.149 176.228 209.897 176.895C209.645 176.228 209.647 175.549 209.897 174.882Z" fill="#263238"/>
<path d="M223.151 174.882C223.401 175.549 223.403 176.228 223.151 176.895C222.899 176.228 222.901 175.549 223.151 174.882Z" fill="#263238"/>
<path d="M236.405 174.882C236.655 175.549 236.657 176.228 236.405 176.895C236.153 176.228 236.155 175.549 236.405 174.882Z" fill="#263238"/>
<path d="M25.7705 176.895C97.0313 176.666 176.969 176.665 248.229 176.895C176.968 177.126 97.031 177.125 25.7705 176.895Z" fill="#263238"/>
<path d="M102.855 31.0188C102.855 36.3049 107.043 40.5921 112.206 40.5921C114.293 40.5921 116.22 39.8916 117.777 38.7041L122.359 39.9013L120.452 35.5345C121.16 34.1881 121.558 32.648 121.558 31.0184C121.558 25.7327 117.37 21.4452 112.207 21.4452C107.043 21.4455 102.855 25.7331 102.855 31.0188Z" fill="white"/>
<path d="M102.855 31.0188C103.009 39.0104 111.558 43.2015 117.81 38.5751L122.398 39.7424L122.212 39.9686L120.291 35.6082L120.256 35.5281L120.297 35.4492C120.948 34.1941 121.319 32.7897 121.376 31.3692C121.595 27.0424 118.575 22.8667 114.455 21.8416C108.675 20.2263 102.824 24.8987 102.855 31.0188ZM102.855 31.0188C102.878 22.8682 112.164 18.4057 118.314 23.5927C121.713 26.4059 122.759 31.7006 120.606 35.6201L120.612 35.4612L122.505 39.8344L122.64 40.1467L122.319 40.0606L117.745 38.8335C111.916 43.3705 102.901 39.1103 102.855 31.0188Z" fill="#263238"/>
<path d="M111.35 35.7638L107.973 32.2639L109.107 31.1164L111.08 33.1607L115.179 26.5828L116.524 27.4606L111.35 35.7638Z" fill="#FFC727"/>
<path d="M242.509 174.441C241.529 174.78 212.71 174.788 211.643 174.093C211.444 173.968 212.778 145.992 212.778 145.992L230.403 146.084L229.702 164.527C229.702 164.527 240.44 169.443 241.536 170.334C242.623 171.222 243.489 174.107 242.509 174.441Z" fill="#EB9481"/>
<path opacity="0.1" d="M242.509 174.441C241.529 174.78 212.71 174.788 211.643 174.093C211.444 173.968 212.778 145.992 212.778 145.992L230.403 146.084L229.702 164.527C229.702 164.527 240.44 169.443 241.536 170.334C242.623 171.222 243.489 174.107 242.509 174.441Z" fill="black"/>
<path d="M211.643 174.094C212.709 174.786 241.53 174.778 242.509 174.44C243.488 174.106 242.624 171.222 241.534 170.335C240.44 169.443 229.704 164.527 229.704 164.527L229.811 161.75H212.057C211.783 168.132 211.552 174.037 211.643 174.094Z" fill="#EBEBEB"/>
<path d="M242.699 174.523C241.697 174.868 212.651 175.125 211.556 174.418C211.139 174.153 211.347 169.405 211.733 164.396H229.939C229.939 164.396 240.576 169.415 241.696 170.321C242.81 171.228 243.701 174.179 242.699 174.523Z" fill="#FFC727"/>
<path opacity="0.1" d="M242.699 174.523C241.697 174.868 212.651 175.125 211.556 174.418C211.139 174.153 211.347 169.405 211.733 164.396H229.939C229.939 164.396 240.576 169.415 241.696 170.321C242.81 171.228 243.701 174.179 242.699 174.523Z" fill="black"/>
<path d="M242.286 173.349C237.476 173.235 218.064 173.241 213.3 173.502C213.262 173.504 213.262 173.532 213.3 173.533C218.066 173.753 237.477 173.586 242.287 173.43C242.388 173.426 242.388 173.351 242.286 173.349Z" fill="#263238"/>
<path d="M239.849 169.268C238.708 169.222 237.594 169.778 236.973 170.474C236.377 171.144 235.867 172.084 235.902 173.105C235.903 173.134 235.956 173.135 235.96 173.105C236.232 171.177 237.942 169.482 239.85 169.329C239.888 169.326 239.888 169.269 239.849 169.268Z" fill="#263238"/>
<path d="M231.449 164.888C229.524 164.863 227.293 165.562 226.099 167.176C226.052 167.238 226.14 167.305 226.197 167.274C227.936 166.353 229.59 165.667 231.483 165.13C231.616 165.093 231.587 164.89 231.449 164.888Z" fill="#263238"/>
<path d="M232.936 165.479C231.011 165.454 228.78 166.153 227.586 167.767C227.54 167.829 227.627 167.895 227.684 167.865C229.423 166.945 231.077 166.258 232.97 165.721C233.103 165.684 233.074 165.48 232.936 165.479Z" fill="#263238"/>
<path d="M234.423 166.069C232.498 166.045 230.267 166.744 229.073 168.358C229.026 168.42 229.114 168.487 229.171 168.456C230.91 167.535 232.564 166.849 234.457 166.312C234.59 166.274 234.561 166.071 234.423 166.069Z" fill="#263238"/>
<path d="M235.91 166.661C233.985 166.636 231.754 167.335 230.56 168.949C230.513 169.011 230.601 169.078 230.658 169.048C232.397 168.126 234.05 167.44 235.944 166.903C236.077 166.865 236.048 166.662 235.91 166.661Z" fill="#263238"/>
<path d="M214.519 168.823C212.359 168.833 212.37 172.269 214.534 172.26C216.694 172.25 216.683 168.814 214.519 168.823Z" fill="white"/>
<path d="M233.526 159.626C232.547 158.799 231.319 159.613 230.722 160.467C229.959 161.567 229.38 163.008 229.121 164.399C229.077 164.597 229.047 164.795 229.023 164.986C229.017 165.072 229.005 165.157 228.993 165.237C229 165.243 228.993 165.243 228.993 165.243L228.993 165.309C228.988 165.382 228.982 165.448 228.976 165.513C228.976 165.553 229.008 165.572 229.04 165.565C229.061 165.657 229.138 165.742 229.235 165.755C229.28 165.767 229.331 165.76 229.382 165.727C229.76 165.46 230.156 165.194 230.553 164.927C230.623 164.887 230.687 164.84 230.758 164.793C231.723 164.139 232.676 163.446 233.376 162.512C233.98 161.709 234.445 160.408 233.526 159.626ZM231.168 163.815C230.848 164.055 230.522 164.288 230.203 164.521C229.928 164.722 229.659 164.921 229.391 165.128C229.352 165.154 229.314 165.188 229.282 165.214C229.25 165.241 229.212 165.267 229.18 165.294C229.192 165.255 229.205 165.215 229.218 165.175C229.224 165.168 229.224 165.168 229.224 165.162C229.312 164.904 229.4 164.654 229.481 164.396C229.713 163.709 229.952 163.029 230.262 162.368C230.47 161.918 230.691 161.455 230.958 161.038C231.377 160.39 233.267 158.74 233.459 160.885C233.565 162.062 231.954 163.229 231.168 163.815Z" fill="#263238"/>
<path d="M229.393 165.398C229.418 165.378 229.425 165.345 229.399 165.312C229.36 165.273 229.321 165.24 229.282 165.215C229.269 165.188 229.25 165.175 229.237 165.169C229.23 165.163 229.23 165.156 229.224 165.163C229.159 165.091 229.094 165.039 229.023 164.986C228.777 164.771 228.512 164.576 228.24 164.401C227.173 163.679 225.914 163.131 224.735 162.897C223.723 162.695 222.292 162.978 222.141 164.263C222.135 164.309 222.136 164.355 222.136 164.401C222.094 165.528 223.256 166.104 224.197 166.253C225.182 166.403 226.191 166.295 227.187 166.129C227.874 166.011 228.561 165.866 229.235 165.755C229.242 165.755 229.242 165.755 229.248 165.755C229.421 165.727 229.458 165.529 229.393 165.398ZM226.674 165.632C225.704 165.765 223.751 166.059 223.029 165.13C222.808 164.842 222.697 164.606 222.67 164.403C222.513 163.403 224.326 163.334 224.945 163.481C225.422 163.588 225.893 163.769 226.351 163.943C226.7 164.078 227.036 164.233 227.371 164.401C227.921 164.666 228.45 164.958 228.993 165.236L228.999 165.243C229.032 165.262 229.07 165.275 229.103 165.295C229.064 165.295 229.032 165.302 228.994 165.309C228.897 165.316 228.807 165.324 228.711 165.338C228.029 165.423 227.355 165.541 226.674 165.632Z" fill="#263238"/>
<path d="M234.621 67.5448C234.621 67.5448 233.562 81.918 232.952 84.7043C232.693 85.8854 232.596 108.833 231.844 119.223C231.402 125.336 231.694 147.574 231.322 155.725C231.235 157.614 229.861 158.746 229.861 158.746L212.135 158.526C212.135 158.526 210.305 157.441 210.398 155.631C210.846 146.913 214.042 121.371 214.122 119.082C214.349 112.599 215.209 96.8032 216.131 82.4842C216.131 82.4842 215.2 79.19 215.273 78.1189C215.722 71.581 217.242 67.5448 217.242 67.5448H234.621Z" fill="#FFC727"/>
<g opacity="0.1">
<path d="M234.621 67.5448C234.621 67.5448 233.562 81.918 232.952 84.7043C232.693 85.8854 232.596 108.833 231.844 119.223C231.402 125.336 231.694 147.574 231.322 155.725C231.235 157.614 229.861 158.746 229.861 158.746L212.135 158.526C212.135 158.526 210.305 157.441 210.398 155.631C210.846 146.913 214.042 121.371 214.122 119.082C214.349 112.599 215.209 96.8032 216.131 82.4842C216.131 82.4842 215.2 79.19 215.273 78.1189C215.722 71.581 217.242 67.5448 217.242 67.5448H234.621Z" fill="black"/>
</g>
<path d="M238.73 174.441C237.75 174.78 208.931 174.788 207.864 174.093C207.665 173.968 208.999 145.992 208.999 145.992L226.624 146.084L225.923 164.527C225.923 164.527 236.661 169.443 237.757 170.334C238.844 171.222 239.71 174.107 238.73 174.441Z" fill="#EB9481"/>
<path d="M207.864 174.094C208.93 174.786 237.751 174.778 238.73 174.44C239.709 174.106 238.845 171.222 237.755 170.335C236.661 169.443 225.925 164.527 225.925 164.527L226.032 161.75H208.278C208.003 168.132 207.773 174.037 207.864 174.094Z" fill="#EBEBEB"/>
<path d="M238.92 174.523C237.918 174.868 208.872 175.125 207.777 174.418C207.36 174.153 207.568 169.405 207.954 164.396H226.16C226.16 164.396 236.797 169.415 237.917 170.321C239.031 171.228 239.922 174.179 238.92 174.523Z" fill="#FFC727"/>
<path d="M238.507 173.349C233.697 173.235 214.285 173.241 209.521 173.502C209.483 173.504 209.483 173.532 209.521 173.533C214.287 173.753 233.698 173.587 238.508 173.43C238.609 173.426 238.609 173.351 238.507 173.349Z" fill="#263238"/>
<path d="M236.07 169.268C234.929 169.222 233.815 169.778 233.194 170.474C232.598 171.144 232.088 172.084 232.123 173.105C232.124 173.134 232.177 173.135 232.181 173.105C232.453 171.177 234.163 169.482 236.071 169.329C236.109 169.326 236.109 169.269 236.07 169.268Z" fill="#263238"/>
<path d="M227.67 164.888C225.745 164.863 223.513 165.562 222.319 167.176C222.273 167.238 222.36 167.305 222.417 167.275C224.157 166.353 225.81 165.667 227.703 165.13C227.837 165.093 227.808 164.89 227.67 164.888Z" fill="#263238"/>
<path d="M229.157 165.479C227.232 165.454 225.001 166.153 223.807 167.767C223.761 167.829 223.848 167.895 223.905 167.865C225.644 166.945 227.298 166.258 229.191 165.721C229.324 165.684 229.295 165.48 229.157 165.479Z" fill="#263238"/>
<path d="M230.644 166.069C228.719 166.045 226.488 166.744 225.294 168.358C225.247 168.42 225.335 168.487 225.392 168.456C227.131 167.535 228.785 166.849 230.678 166.312C230.811 166.274 230.782 166.071 230.644 166.069Z" fill="#263238"/>
<path d="M232.131 166.661C230.206 166.636 227.975 167.335 226.781 168.949C226.734 169.011 226.822 169.078 226.879 169.048C228.618 168.126 230.271 167.44 232.165 166.903C232.298 166.865 232.269 166.662 232.131 166.661Z" fill="#263238"/>
<path d="M210.74 168.823C208.58 168.833 208.591 172.269 210.755 172.26C212.915 172.25 212.904 168.814 210.74 168.823Z" fill="white"/>
<path d="M229.747 159.626C228.769 158.799 227.54 159.613 226.943 160.467C226.18 161.567 225.6 163.008 225.342 164.399C225.298 164.597 225.268 164.795 225.244 164.986C225.238 165.072 225.226 165.157 225.214 165.237C225.221 165.243 225.214 165.243 225.214 165.243L225.214 165.309C225.208 165.382 225.203 165.448 225.197 165.513C225.197 165.553 225.229 165.572 225.261 165.565C225.282 165.657 225.359 165.742 225.456 165.755C225.501 165.767 225.552 165.76 225.603 165.727C225.981 165.46 226.377 165.194 226.774 164.927C226.844 164.887 226.908 164.84 226.979 164.793C227.944 164.139 228.897 163.446 229.596 162.512C230.201 161.709 230.666 160.408 229.747 159.626ZM227.389 163.815C227.069 164.055 226.743 164.288 226.424 164.521C226.148 164.722 225.88 164.921 225.612 165.128C225.573 165.154 225.535 165.188 225.503 165.214C225.472 165.241 225.433 165.267 225.401 165.294C225.413 165.255 225.426 165.215 225.439 165.175C225.445 165.168 225.445 165.168 225.445 165.162C225.533 164.904 225.621 164.654 225.702 164.396C225.934 163.709 226.173 163.029 226.483 162.368C226.691 161.918 226.912 161.455 227.179 161.038C227.598 160.39 229.488 158.74 229.68 160.885C229.786 162.062 228.175 163.229 227.389 163.815Z" fill="#263238"/>
<path d="M225.614 165.398C225.64 165.378 225.646 165.345 225.62 165.312C225.581 165.273 225.542 165.24 225.503 165.215C225.49 165.188 225.471 165.175 225.458 165.169C225.451 165.163 225.451 165.156 225.445 165.163C225.38 165.091 225.315 165.039 225.244 164.986C224.998 164.771 224.733 164.576 224.461 164.401C223.394 163.679 222.135 163.131 220.956 162.897C219.944 162.695 218.513 162.978 218.362 164.263C218.356 164.309 218.357 164.355 218.357 164.401C218.315 165.528 219.478 166.104 220.418 166.253C221.403 166.403 222.413 166.295 223.408 166.129C224.095 166.011 224.782 165.866 225.457 165.755C225.463 165.755 225.463 165.755 225.47 165.755C225.642 165.727 225.679 165.529 225.614 165.398ZM222.895 165.632C221.925 165.765 219.972 166.059 219.251 165.13C219.03 164.842 218.918 164.606 218.891 164.403C218.734 163.403 220.547 163.334 221.166 163.481C221.643 163.588 222.114 163.769 222.573 163.943C222.921 164.078 223.257 164.233 223.593 164.401C224.142 164.666 224.671 164.958 225.214 165.236L225.22 165.243C225.253 165.262 225.291 165.275 225.324 165.295C225.285 165.295 225.253 165.302 225.215 165.309C225.118 165.316 225.028 165.324 224.932 165.338C224.251 165.423 223.576 165.541 222.895 165.632Z" fill="#263238"/>
<path d="M234.621 67.5448C234.621 67.5448 235.155 76.535 233.636 80.5615C233.04 82.1416 230.265 85.4366 230.265 85.4366C230.265 85.4366 229.612 108.833 228.861 119.223C228.438 125.069 227.877 145.658 227.648 154.576C227.581 157.145 226.143 158.746 226.143 158.746L208.037 158.505C208.037 158.505 206.641 157.01 206.833 154.602C207.589 145.082 209.47 121.288 209.547 119.082C209.774 112.599 209.797 99.6198 210.719 85.3008C210.719 85.3008 209.643 81.1808 209.716 80.1097C210.166 73.5718 211.872 67.5444 211.872 67.5444L234.621 67.5448Z" fill="#FFC727"/>
<path d="M213.311 84.9242L213.318 84.9504V84.9803C213.303 85.3431 211.901 121.438 211.806 123.349C211.769 124.071 211.473 128.102 211.097 133.211C210.498 141.387 209.676 152.588 209.676 153.703C209.676 156.123 210.096 157.641 210.505 158.539L210.092 158.531C209.69 157.574 209.31 156.044 209.31 153.703C209.31 152.573 210.099 141.821 210.735 133.181C211.093 128.278 211.404 124.045 211.44 123.33C211.535 121.445 212.905 86.1771 212.953 84.9915C212.854 84.6138 211.952 81.0421 211.827 79.3291C211.725 77.9603 213.201 70.9441 213.943 67.5444H214.315C213.588 70.8954 212.094 77.9902 212.193 79.303C212.321 81.0383 213.303 84.883 213.311 84.9242Z" fill="white"/>
<path d="M214.827 84.9242L214.834 84.9504L214.83 84.9803C214.816 85.3431 213.413 121.438 213.318 123.349C213.285 124.071 212.986 128.121 212.609 133.249C212.01 141.409 211.188 152.588 211.188 153.703C211.188 156.141 211.616 157.66 212.025 158.557L211.616 158.554C211.21 157.596 210.823 156.063 210.823 153.703C210.823 152.577 211.612 141.843 212.244 133.219C212.606 128.297 212.92 124.048 212.956 123.33C213.048 121.445 214.421 86.1771 214.465 84.9915C214.37 84.6138 213.468 81.0421 213.34 79.3291C213.238 77.9603 214.717 70.9441 215.455 67.5444H215.831C215.104 70.8954 213.607 77.9902 213.705 79.303C213.833 81.0383 214.816 84.883 214.827 84.9242Z" fill="white"/>
<path opacity="0.1" d="M218.016 77.39C219.203 77.3851 223.153 77.2519 224.522 75.7238C225.879 74.2087 226.716 70.7724 226.962 69.6399C226.974 69.5838 227.055 69.6029 227.057 69.6553C227.095 70.925 226.914 72.2187 226.578 73.4431C226.292 74.4885 225.906 75.6553 225.064 76.388C224.178 77.1588 222.976 77.4296 221.843 77.5702C220.563 77.7288 219.287 77.691 218.013 77.5171C217.934 77.5059 217.933 77.3903 218.016 77.39Z" fill="black"/>
<path d="M235.613 67.535L209.482 71.7915C209.254 71.6823 211.001 62.9614 210.199 57.7983C208.963 49.8336 204.418 43.4008 205.707 39.65C206.531 37.2549 209.519 35.9463 212.275 36.7403C215.37 37.6319 225.198 42.633 229.517 49.898C234.438 58.1783 235.689 67.2744 235.613 67.535Z" fill="#37474F"/>
<path d="M212.573 36.8353L206.965 37.8151C207.14 37.6655 207.323 37.5272 207.517 37.4037L211.864 36.6408H211.868C212.003 36.6707 212.142 36.7044 212.277 36.7418C212.368 36.7679 212.467 36.7979 212.573 36.8353ZM216.537 38.5968L205.515 40.5266C205.504 40.6314 205.496 40.7361 205.493 40.8445L216.979 38.8324C216.829 38.7539 216.683 38.6716 216.537 38.5968ZM220.143 40.7361L205.763 43.2531C205.785 43.3541 205.807 43.4513 205.836 43.556L220.519 40.9829C220.395 40.8969 220.267 40.8146 220.143 40.7361ZM223.219 42.9689L206.556 45.8823C206.589 45.9796 206.622 46.0805 206.658 46.1815L223.54 43.2269C223.434 43.1372 223.325 43.0511 223.219 42.9689ZM225.827 45.2839L207.506 48.4891C207.542 48.5863 207.579 48.6873 207.615 48.7846L226.094 45.5495C226.006 45.4597 225.915 45.3699 225.827 45.2839ZM227.979 47.6775L208.445 51.0959C208.481 51.1931 208.514 51.2904 208.547 51.3913L228.198 47.9543C228.125 47.8608 228.052 47.7673 227.979 47.6775ZM229.667 50.1534L209.281 53.7214C209.31 53.8223 209.34 53.9196 209.369 54.0206L229.831 50.4376C229.776 50.3441 229.722 50.2469 229.667 50.1534ZM231.029 52.6854L209.942 56.3768C209.961 56.4777 209.983 56.5787 210.001 56.6797L231.172 52.9771C231.124 52.8799 231.077 52.7826 231.029 52.6854ZM232.206 55.251L210.344 59.077C210.352 59.178 210.359 59.2827 210.366 59.3875L232.326 55.5465C232.286 55.4492 232.246 55.352 232.206 55.251ZM233.214 57.8466L210.399 61.8372C210.399 61.9419 210.395 62.0466 210.392 62.1551L233.32 58.142C233.284 58.0448 233.251 57.9476 233.214 57.8466ZM234.076 60.4683L210.249 64.6347C210.242 64.7431 210.235 64.8516 210.224 64.9563L234.164 60.7675C234.138 60.6703 234.109 60.5693 234.076 60.4683ZM234.8 63.1125L209.968 67.4584C209.957 67.5668 209.942 67.6753 209.931 67.78L234.873 63.4154C234.851 63.3182 234.825 63.2172 234.8 63.1125ZM235.377 65.7829L209.61 70.2896C209.595 70.4055 209.581 70.514 209.57 70.6149L235.432 66.0895C235.413 65.9923 235.395 65.8913 235.377 65.7829Z" fill="#263238"/>
<path d="M209.386 43.712C208.96 47.1865 206.234 58.1207 206.247 59.083C206.254 59.6231 210.396 62.7987 210.467 63.1671C210.761 64.6665 210.106 76.5417 208.586 75.9265C206.586 75.1168 195.349 67.541 195.16 63.2101C194.97 58.8796 204.152 42.2616 205.863 40C209.442 35.2675 209.736 40.8524 209.386 43.712Z" fill="#EB9481"/>
<path d="M215.18 76.7665C216.058 75.5656 214.173 75.1931 214.173 75.1931C214.173 75.1931 217.013 75.0596 217.451 73.4626C217.87 71.9221 215.576 71.5544 215.412 71.5256C215.562 71.517 218.17 71.3248 218.448 69.6736C218.737 67.9573 216.372 67.9928 216.22 67.9958C216.359 67.942 218.191 67.2026 218.124 65.8988C218.007 63.6585 212.593 65.1572 211.019 64.3194L210.399 62.026C210.399 62.026 210.405 62.7725 209.565 63.3724C208.524 64.1163 207.549 64.6773 207.273 65.4111C206.82 66.6191 207.724 67.3189 207.724 67.3189C207.724 67.3189 206.206 67.6626 205.947 68.9555C205.815 69.6197 206.736 70.4257 206.736 70.4257C206.736 70.4257 205.532 70.7529 205.371 71.9176C205.239 72.8466 206.183 73.5108 206.183 73.5108C206.183 73.5108 205.169 74.3744 205.336 75.3681C205.67 77.3735 213.296 79.337 215.18 76.7665Z" fill="#EB9481"/>
<path d="M206.318 73.6395C206.293 73.6309 206.276 73.6645 206.3 73.6776C208.654 74.95 211.621 75.6093 214.273 75.2241C214.36 75.2114 214.377 75.0614 214.279 75.0566C211.472 74.9189 208.991 74.5677 206.318 73.6395Z" fill="#263238"/>
<path d="M206.695 70.4317C206.666 70.4212 206.649 70.4706 206.678 70.4863C209.11 71.7837 212.472 72.4326 215.477 71.6199C215.58 71.5918 215.646 71.4613 215.524 71.4841C213.486 71.8693 209.098 71.2799 206.695 70.4317Z" fill="#263238"/>
<path d="M216.41 67.8649C213.5 68.5299 210.673 68.1731 207.822 67.3791C207.785 67.369 207.774 67.4236 207.803 67.4408C209.094 68.2183 210.963 68.5303 212.438 68.647C213.85 68.7588 215.146 68.5695 216.433 67.9689C216.483 67.9457 216.472 67.8507 216.41 67.8649Z" fill="#263238"/>
<path d="M205.994 73.4925C205.4 73.1073 205.006 72.5758 205.061 71.8084C205.086 71.4602 205.243 71.1378 205.485 70.891C205.784 70.5854 206.3 70.4743 206.543 70.4006C205.974 69.9088 205.573 69.15 205.828 68.3837C205.946 68.0284 206.201 67.8107 206.519 67.6192C206.691 67.5156 207.446 67.2691 207.676 67.262C207.233 67.0032 206.928 66.5133 206.876 65.9949C206.814 65.3917 207.098 64.8767 207.516 64.4735C207.998 64.0101 208.612 63.7352 209.179 63.4016C209.474 63.2281 209.765 63.056 210.014 62.8152C210.24 62.5968 210.253 62.5478 210.385 62.0556C210.403 61.989 210.418 62.0473 210.405 62.1023C210.337 62.3933 210.282 62.7789 209.815 63.2385C209.355 63.6918 208.78 63.9783 208.27 64.3635C207.825 64.7005 207.428 65.1377 207.273 65.6953C207.113 66.2702 207.328 66.863 207.747 67.2579C207.771 67.2751 207.769 67.3166 207.725 67.3282C207.468 67.3955 206.888 67.6966 206.748 67.8077C206.511 67.9973 206.278 68.2195 206.189 68.5138C205.989 69.1788 206.262 69.929 206.737 70.4253C206.753 70.4433 206.137 70.6553 205.763 71.0869C205.587 71.2911 205.489 71.5709 205.452 71.839C205.367 72.473 205.673 73.1335 206.194 73.4802C206.203 73.4858 206.205 73.4936 206.208 73.5011L206.208 73.5022C206.21 73.5075 206.212 73.5116 206.212 73.5172C206.213 73.5258 206.211 73.5333 206.205 73.5415V73.5419C206.203 73.5467 205.419 74.1055 205.346 74.9586C205.345 74.9705 205.311 74.9414 205.309 74.9302C205.136 73.8317 205.947 73.5273 205.994 73.4925Z" fill="#263238"/>
<path d="M195.988 56.3655L207.665 56.529C207.665 56.529 210.851 44.932 210.571 40.2757C210.356 36.7227 208.394 36.5809 206.841 38.3283C201.666 44.1548 195.988 56.3655 195.988 56.3655Z" fill="#37474F"/>
<path d="M207.548 54.1739C205.752 54.0183 200.868 53.7404 197.671 53.9843C197.652 53.9858 197.648 54.061 197.667 54.0624C200.357 54.2704 205.741 54.2902 207.544 54.2857C207.578 54.2857 207.582 54.1769 207.548 54.1739Z" fill="#263238"/>
<path d="M207.809 56.5997C208.072 55.6632 208.995 52.3406 209.192 51.3865C209.3 51.131 209.409 50.8752 209.503 50.6138C209.621 50.2832 209.726 49.9253 209.778 49.5767C209.781 49.5595 209.758 49.5531 209.753 49.57C209.697 49.7338 209.656 49.9028 209.603 50.0678C209.55 50.2327 209.491 50.3958 209.436 50.5603C209.38 50.7297 209.32 50.8977 209.255 51.063C209.445 50.1272 209.611 49.1855 209.735 48.2385C209.739 48.212 209.703 48.2004 209.695 48.2277C209.412 49.2053 209.17 50.1964 208.96 51.1935C208.755 52.1648 207.787 55.4979 207.644 56.4819C207.482 56.4785 206.916 56.4676 206.753 56.477C206.711 56.4792 206.7 56.5424 206.743 56.5533C206.926 56.6 207.512 56.6337 207.697 56.6666C207.747 56.676 207.795 56.652 207.809 56.5997Z" fill="#263238"/>
<path d="M213.154 40.0038C212.159 40.9582 208.405 40.8879 206.641 39.6859C206.52 39.6029 204.745 35.484 204.271 34.558C204.173 34.3684 210.665 32.9262 210.665 32.9262C210.665 32.9262 211.101 35.1661 211.937 36.775C212.008 36.9086 212.085 37.0271 212.17 37.1341C212.181 37.1505 212.197 37.1689 212.211 37.1928C212.695 37.8525 214.218 38.9824 213.154 40.0038Z" fill="#EB9481"/>
<path d="M204.484 34.9974C206.288 36.4317 209.113 37.9737 211.827 36.554C211.067 34.9694 210.663 32.9262 210.663 32.9262C210.663 32.9262 204.172 34.3676 204.271 34.5587C204.327 34.6649 204.398 34.816 204.484 34.9974Z" fill="#263238"/>
<path d="M202.64 23.2082C202.64 23.2082 203.901 22.621 204.605 22.8263C205.216 23.0047 206.39 23.8896 206.852 24.1926C207.867 24.8572 207.836 25.4163 207.836 25.4163C207.836 25.4163 204.98 23.8133 202.64 23.2082Z" fill="#DBDBDB"/>
<path d="M197.979 31.523C199.408 33.4637 205.418 36.4201 207.55 35.9635C210.642 35.3015 213.06 32.25 211.843 29.0643C210.664 25.9762 202.765 22.2653 200.629 22.9587C197.484 23.9798 195.868 28.6563 197.979 31.523Z" fill="#EB9481"/>
<path d="M202.766 35.0644C202.12 35.0737 199.739 34.4589 198.987 33.8571C198.184 33.2138 198.165 31.7522 198.165 31.7522C198.165 31.7522 198.755 32.0103 199.213 31.8543C199.92 31.6142 200.742 30.803 201.233 30.9358C202.042 31.1549 205.312 34.0063 204.821 34.5254C204.33 35.0449 203.871 35.0483 202.766 35.0644Z" fill="#DBDBDB"/>
<path d="M203.813 32.9831C204.427 33.2508 206.108 33.4203 207.272 31.5828C208.214 30.0973 207.751 28.7157 207.751 28.7157L208.31 27.9262C208.31 27.9262 209.017 27.7762 209.215 27.1169C209.412 26.4571 208.759 25.904 208.105 25.429C208.105 25.429 210.079 26.5005 210.75 26.8416C211.42 27.1827 213.087 28.0059 213.522 29.7005C214.026 31.6707 212.611 34.9597 210.108 36.2458C207.605 37.532 205.096 35.6501 205.096 35.6501L203.813 32.9831Z" fill="#DBDBDB"/>
<g opacity="0.2">
<path d="M202.93 26.6034C203.048 26.3898 203.175 26.1822 203.266 25.9541C203.358 25.7233 203.409 25.4791 203.506 25.2502C203.69 24.816 203.98 24.469 204.292 24.1103C204.318 24.08 204.336 24.0957 204.311 24.1267C204.002 24.5026 203.72 24.9028 203.569 25.3804C203.442 25.7806 203.319 26.1377 203.101 26.4968C202.622 27.2878 202.241 28.1241 202.25 29.0658C202.25 29.0718 202.242 29.0733 202.242 29.0673C202.215 28.2067 202.516 27.354 202.93 26.6034Z" fill="black"/>
<path d="M202.394 26.3689C202.506 26.1665 202.626 25.9694 202.712 25.7533C202.8 25.5345 202.848 25.303 202.94 25.0857C203.114 24.6739 203.389 24.3452 203.685 24.0048C203.71 23.976 203.727 23.991 203.703 24.0205C203.41 24.3769 203.142 24.7566 202.999 25.2091C202.88 25.5887 202.762 25.9272 202.556 26.2675C202.102 27.0174 201.74 27.8103 201.749 28.7034C201.749 28.709 201.741 28.7105 201.74 28.7049C201.716 27.8892 202.001 27.0806 202.394 26.3689Z" fill="black"/>
</g>
<path d="M203.229 33.1831C203.229 33.1831 200.641 33.1873 200.524 34.3051C200.408 35.423 203.568 36.2862 204.559 35.5831C205.55 34.8804 204.933 33.9285 204.933 33.9285L203.229 33.1831Z" fill="#EB9481"/>
<path d="M201.436 34.5295C201.424 34.5438 201.443 34.5617 201.458 34.5524C202.174 34.0748 203.015 34.1544 203.807 34.3549C203.432 34.3811 203.117 34.5568 203.122 35.0505C203.122 35.0763 203.16 35.0786 203.169 35.0573C203.298 34.7438 203.478 34.5804 203.816 34.5482C204.056 34.5254 204.308 34.5726 204.545 34.6036C204.625 34.6141 204.667 34.4843 204.585 34.4592C204.579 34.4574 204.572 34.4555 204.566 34.454C203.749 33.8459 202.14 33.6779 201.436 34.5295Z" fill="#263238"/>
<path d="M205.056 28.6075C205.039 28.6026 205.058 28.6494 205.075 28.6576C205.478 28.8611 205.906 29.1636 205.846 29.6023C205.844 29.6158 205.865 29.6259 205.87 29.6109C206.042 29.13 205.47 28.7343 205.056 28.6075Z" fill="#263238"/>
<path d="M204.454 28.7438C204.065 29.3698 205.317 30.119 205.677 29.5389C206.031 28.9678 204.779 28.2187 204.454 28.7438Z" fill="#263238"/>
<path d="M206.432 26.3476C206.418 26.3356 206.468 26.3274 206.483 26.3375C206.864 26.582 207.34 26.7964 207.673 26.5147C207.684 26.5058 207.703 26.5188 207.693 26.5308C207.383 26.9329 206.754 26.6415 206.432 26.3476Z" fill="#263238"/>
<path d="M206.229 25.7506C206.546 25.0838 207.825 25.7824 207.531 26.3999C207.242 27.008 205.963 26.3094 206.229 25.7506Z" fill="#263238"/>
<path d="M203.593 28.9068C203.649 28.7067 203.669 28.5123 203.705 28.3084C203.746 28.0784 203.802 27.8993 203.706 27.6756C203.655 27.5556 203.479 27.4875 203.361 27.5275C203.085 27.6203 202.967 27.8892 202.907 28.1641C202.841 28.4625 202.866 28.7094 202.999 28.9824C203.128 29.2472 203.518 29.1709 203.593 28.9068Z" fill="#DBDBDB"/>
<path d="M205.881 24.8781C205.752 25.0389 205.606 25.165 205.462 25.3101C205.299 25.4739 205.185 25.622 204.951 25.6672C204.826 25.6916 204.672 25.5812 204.637 25.4582C204.557 25.1724 204.708 24.9211 204.896 24.7154C205.1 24.4921 205.313 24.374 205.609 24.3328C205.895 24.2935 206.053 24.666 205.881 24.8781Z" fill="#DBDBDB"/>
<path d="M208.446 31.1276C208.591 31.0869 208.77 31.0671 208.864 30.9298C208.954 30.7985 208.986 30.5999 209.01 30.4447C209.013 30.4294 209.033 30.4245 209.04 30.4395C209.13 30.6317 209.099 30.904 208.963 31.0693C208.829 31.2309 208.627 31.2286 208.441 31.1763C208.415 31.1688 208.425 31.1336 208.446 31.1276Z" fill="#263238"/>
<path d="M207.523 30.0157C207.986 29.9948 208.356 29.7783 208.625 29.4652C208.746 29.3261 208.846 29.1634 208.925 28.9921C208.942 28.9596 208.957 28.9255 208.967 28.893C208.98 28.862 208.992 28.8339 209.004 28.7984C209.024 28.7479 209.001 28.7004 208.963 28.6667L208.96 28.6649C208.945 28.6566 208.934 28.6499 208.918 28.6447C208.918 28.6447 208.918 28.6447 208.915 28.6428L208.88 28.6233C208.587 28.4363 208.116 28.1944 208.116 28.1944C208.234 28.1155 208.809 27.6958 208.648 27.6113C207.312 26.9179 205.826 26.1463 204.353 25.745C204.306 25.7293 204.277 25.8019 204.322 25.8236C205.581 26.5424 206.954 27.0297 208.229 27.7306C208.058 27.872 207.764 28.0938 207.676 28.2553C207.663 28.3058 208.594 28.7064 208.72 28.801C208.72 28.801 208.725 28.8044 208.732 28.8122C208.503 29.3639 208.131 29.6604 207.51 29.9574C207.47 29.9742 207.478 30.021 207.523 30.0157Z" fill="#263238"/>
<path d="M133.708 28.7984C133.708 28.7984 130.184 26.8435 126.535 30.2054C122.197 34.2023 123.597 47.8668 123.326 49.0894C123.055 50.3123 122.542 50.6044 122.369 51.6991C122.196 52.7942 123.083 53.5056 123.19 53.8941C123.298 54.2831 122.236 56.287 122.236 56.287C122.236 56.287 128.113 57.8559 131.798 57.1083C135.482 56.361 139.616 53.7603 139.616 53.7603C139.616 53.7603 138.776 52.5515 138.775 51.9781C138.774 51.4048 139.426 50.6381 139.372 49.598C139.318 48.5575 137.772 47.293 137.616 46.7347C137.459 46.1763 138.229 35.8251 137.336 32.2134C136.444 28.602 133.708 28.7984 133.708 28.7984Z" fill="#263238"/>
<path d="M139.802 53.4633C139.489 53.0695 139.181 52.6633 138.98 52.1853C138.935 52.066 138.892 51.9318 138.911 51.7904C139.092 50.9553 139.804 50.2136 139.664 49.3194C139.48 48.6338 138.826 48.071 138.385 47.5395C138.137 47.2358 137.842 46.9209 137.776 46.4983C137.763 46.3476 137.769 46.2286 137.77 46.0974C137.898 41.7975 138.198 37.4453 137.498 33.182C137.315 32.1917 137.071 31.186 136.523 30.3333C137.132 31.1486 137.419 32.1644 137.652 33.1491C138.517 37.406 138.249 41.7945 138.061 46.1048C138.057 46.2275 138.052 46.3633 138.059 46.4665C138.115 46.8065 138.374 47.0866 138.587 47.3607C139.048 47.9449 139.695 48.5157 139.868 49.2786C139.999 50.2357 139.262 50.9564 139.012 51.8054C138.991 51.9179 139.02 52.038 139.059 52.1554C139.232 52.6248 139.518 53.0538 139.802 53.4633Z" fill="#263238"/>
<path d="M121.945 55.7488C122.182 55.2192 122.524 54.5531 122.72 54.0187L122.725 54C122.694 53.9207 122.626 53.8489 122.573 53.7733C122.105 53.1843 121.712 52.458 121.788 51.67C121.843 50.7466 122.462 49.9649 122.756 49.1511C122.971 48.589 122.931 48.013 122.915 47.4232C122.769 42.3847 122.671 33.8448 126.442 30.1534C126.871 29.7397 127.373 29.4065 127.912 29.1671C127.388 29.4368 126.91 29.7921 126.5 30.2155C122.953 34.0205 123.127 42.388 123.194 47.4165C123.212 48.0227 123.233 48.6739 122.992 49.2408C122.658 50.0992 122.059 50.769 121.971 51.6883C121.904 52.2706 122.11 52.8481 122.413 53.3388C122.528 53.5317 122.665 53.7057 122.783 53.8998C122.8 53.9293 122.818 53.9645 122.817 54.006C122.585 54.616 122.241 55.1732 121.945 55.7488Z" fill="#263238"/>
<path d="M136.114 49.5965C135.409 52.7037 131.594 62.0672 131.517 62.9405C131.474 63.4304 137.026 66.7721 137.057 67.1128C137.186 68.4996 135.027 79.8954 133.707 79.1915C131.969 78.2644 121.779 69.2914 122.006 65.349C122.233 61.4063 131.486 48.7965 133.245 46.9123C136.925 42.9692 136.695 47.0395 136.114 49.5965Z" fill="#FFC4C0"/>
<path opacity="0.1" d="M133.527 46.6199L133.579 57.1061C134.629 54.2678 135.759 51.1482 136.113 49.5965C136.678 47.1087 136.912 43.1828 133.527 46.6199Z" fill="black"/>
<path d="M103.513 174.605C104.517 174.925 129.191 175.038 130.26 174.306C130.671 174.035 130.816 169.776 130.848 164.624C130.848 164.57 130.848 164.516 130.848 164.462C130.857 163.401 134.603 145.983 134.603 145.983L117.386 145.949L112.446 164.689L112.461 165.008C112.461 165.008 105.5 169.475 104.407 170.407C103.323 171.335 102.509 174.289 103.513 174.605Z" fill="#FFC4C0"/>
<path d="M103.513 174.603C104.515 174.924 129.191 175.038 130.261 174.305C130.67 174.033 130.818 169.777 130.85 164.625C130.85 164.568 130.85 164.515 130.846 164.462C130.846 164.205 131.065 163.008 131.395 161.334H113.331L112.448 164.69L112.46 165.007C112.46 165.007 105.502 169.475 104.408 170.407C103.322 171.337 102.51 174.289 103.513 174.603Z" fill="#EBEBEB"/>
<path d="M103.513 174.606C104.518 174.925 129.192 175.038 130.261 174.306C130.665 174.04 130.814 169.854 130.848 164.766H112.449L112.462 165.01C112.462 165.01 105.503 169.475 104.408 170.408C103.322 171.336 102.508 174.288 103.513 174.606Z" fill="#FFC727"/>
<path d="M104.538 173.806C108.655 173.604 125.277 173.229 129.361 173.383C129.394 173.384 129.394 173.41 129.361 173.412C125.285 173.713 108.66 173.936 104.539 173.882C104.453 173.881 104.451 173.81 104.538 173.806Z" fill="#263238"/>
<path d="M105.663 169.396C107.032 169.118 108.472 169.483 109.34 170.097C110.175 170.687 110.95 171.583 111.082 172.674C111.085 172.705 111.022 172.717 111.012 172.686C110.355 170.694 108.002 169.24 105.673 169.462C105.626 169.467 105.616 169.406 105.663 169.396Z" fill="#263238"/>
<path d="M113.363 165.519C115.166 165.24 117.348 165.599 118.673 166.954C118.725 167.006 118.651 167.08 118.594 167.06C116.845 166.427 115.207 166.003 113.362 165.751C113.232 165.733 113.233 165.539 113.363 165.519Z" fill="#263238"/>
<path d="M112.043 166.271C113.846 165.992 116.028 166.351 117.353 167.706C117.404 167.759 117.33 167.833 117.273 167.812C115.525 167.179 113.886 166.754 112.042 166.503C111.912 166.485 111.914 166.291 112.043 166.271Z" fill="#263238"/>
<path d="M110.722 167.024C112.525 166.745 114.708 167.104 116.033 168.459C116.084 168.511 116.01 168.585 115.953 168.564C114.204 167.932 112.566 167.507 110.721 167.256C110.591 167.238 110.593 167.043 110.722 167.024Z" fill="#263238"/>
<path d="M109.402 167.776C111.205 167.497 113.387 167.856 114.712 169.211C114.764 169.263 114.69 169.337 114.633 169.317C112.884 168.684 111.246 168.259 109.401 168.008C109.271 167.99 109.273 167.795 109.402 167.776Z" fill="#263238"/>
<path d="M127.16 168.931C129.206 168.894 129.265 172.148 127.216 172.185C125.17 172.222 125.111 168.968 127.16 168.931Z" fill="#263238"/>
<path d="M111.253 163.546C112.029 164.33 113.01 164.853 113.999 165.338C114.071 165.372 114.137 165.407 114.208 165.436C114.614 165.633 115.02 165.831 115.408 166.031C115.46 166.056 115.509 166.056 115.55 166.038C115.639 166.013 115.701 165.923 115.709 165.834C115.74 165.836 115.767 165.814 115.763 165.777C115.749 165.716 115.735 165.655 115.72 165.587L115.712 165.526C115.712 165.526 115.706 165.526 115.712 165.519C115.69 165.447 115.668 165.368 115.652 165.288C115.605 165.112 115.551 164.93 115.485 164.75C115.066 163.479 114.339 162.205 113.484 161.274C112.815 160.552 111.56 159.952 110.747 160.858C109.983 161.715 110.585 162.874 111.253 163.546ZM110.969 162.03C110.877 159.992 112.859 161.289 113.335 161.842C113.638 162.198 113.905 162.602 114.157 162.997C114.532 163.576 114.842 164.182 115.147 164.796C115.256 165.027 115.37 165.251 115.485 165.48C115.486 165.486 115.486 165.486 115.493 165.492C115.51 165.528 115.527 165.563 115.544 165.599C115.51 165.578 115.471 165.558 115.438 165.537C115.404 165.517 115.364 165.491 115.325 165.471C115.047 165.313 114.769 165.161 114.486 165.01C114.157 164.834 113.821 164.658 113.491 164.475C112.679 164.029 111.019 163.149 110.969 162.03Z" fill="#263238"/>
<path d="M115.538 166.04C115.544 166.039 115.544 166.039 115.55 166.038C116.197 166.053 116.86 166.097 117.52 166.116C118.475 166.14 119.435 166.107 120.341 165.835C121.204 165.57 122.222 164.875 122.039 163.824C122.034 163.78 122.028 163.737 122.016 163.695C121.713 162.509 120.333 162.434 119.41 162.758C118.333 163.134 117.222 163.816 116.312 164.635C116.079 164.836 115.856 165.054 115.652 165.289C115.591 165.347 115.537 165.405 115.485 165.48C115.478 165.475 115.479 165.481 115.474 165.488C115.463 165.496 115.446 165.511 115.437 165.537C115.404 165.567 115.372 165.603 115.34 165.645C115.32 165.679 115.33 165.709 115.356 165.724C115.312 165.856 115.372 166.036 115.538 166.04ZM115.989 165.577C115.897 165.577 115.812 165.582 115.72 165.587C115.683 165.586 115.652 165.584 115.616 165.589C115.644 165.566 115.678 165.549 115.706 165.526L115.711 165.519C116.185 165.186 116.645 164.842 117.127 164.52C117.42 164.317 117.716 164.127 118.026 163.954C118.433 163.73 118.852 163.498 119.286 163.334C119.848 163.115 121.558 162.938 121.538 163.896C121.538 164.091 121.464 164.327 121.293 164.627C120.734 165.594 118.864 165.578 117.937 165.582C117.287 165.587 116.639 165.566 115.989 165.577Z" fill="#263238"/>
<path d="M155.832 67.8836C155.832 67.8836 153.205 84.2708 153.026 84.7978L150.418 86.0582L141.629 119.415L132.53 160.016L113.663 159.927C113.663 159.927 117.521 138.045 123.548 115.714C127.427 101.341 130.332 85.9572 133.392 76.9281C134.198 74.5479 137 67.884 137 67.884L155.832 67.8836Z" fill="#37474F"/>
<path d="M143.408 67.8818L146.193 102.094L150.417 86.0567L153.027 84.7981C153.206 84.2686 155.831 67.8814 155.831 67.8814L143.408 67.8818Z" fill="#263238"/>
<path d="M193.677 174.605C192.674 174.925 167.999 175.038 166.931 174.306C166.52 174.035 166.374 169.776 166.342 164.624C166.342 164.57 166.343 164.516 166.343 164.462C166.334 163.401 162.588 145.983 162.588 145.983L179.804 145.949L184.744 164.689L184.73 165.008C184.73 165.008 191.69 169.475 192.784 170.407C193.867 171.335 194.681 174.289 193.677 174.605Z" fill="#FFC4C0"/>
<path d="M165.793 161.335C166.123 163.009 166.342 164.206 166.342 164.463V164.626C166.374 169.777 166.521 174.033 166.931 174.306C168.001 175.039 192.672 174.925 193.679 174.603C194.681 174.29 193.866 171.337 192.784 170.409C191.69 169.477 184.728 165.009 184.728 165.009L184.744 164.691L183.861 161.336H165.793V161.335Z" fill="#EBEBEB"/>
<path d="M193.677 174.606C192.672 174.925 167.999 175.038 166.93 174.306C166.525 174.04 166.376 169.854 166.342 164.766H184.741L184.728 165.01C184.728 165.01 191.688 169.475 192.782 170.408C193.869 171.336 194.682 174.288 193.677 174.606Z" fill="#FFC727"/>
<path d="M192.652 173.806C188.535 173.604 171.913 173.229 167.829 173.383C167.796 173.384 167.796 173.41 167.829 173.412C171.905 173.713 188.53 173.936 192.651 173.882C192.737 173.881 192.739 173.81 192.652 173.806Z" fill="#263238"/>
<path d="M191.527 169.396C190.158 169.118 188.718 169.483 187.85 170.097C187.015 170.687 186.24 171.583 186.108 172.674C186.104 172.705 186.168 172.717 186.178 172.686C186.835 170.694 189.188 169.24 191.517 169.462C191.564 169.466 191.574 169.406 191.527 169.396Z" fill="#263238"/>
<path d="M183.827 165.519C182.024 165.24 179.842 165.599 178.517 166.954C178.465 167.006 178.539 167.08 178.596 167.06C180.345 166.427 181.983 166.003 183.828 165.751C183.958 165.733 183.956 165.539 183.827 165.519Z" fill="#263238"/>
<path d="M185.148 166.271C183.344 165.992 181.162 166.351 179.837 167.706C179.786 167.759 179.859 167.832 179.917 167.812C181.665 167.179 183.304 166.754 185.148 166.503C185.278 166.485 185.277 166.291 185.148 166.271Z" fill="#263238"/>
<path d="M186.468 167.024C184.665 166.745 182.483 167.104 181.158 168.459C181.106 168.511 181.18 168.585 181.238 168.564C182.986 167.932 184.625 167.507 186.469 167.256C186.598 167.238 186.597 167.043 186.468 167.024Z" fill="#263238"/>
<path d="M187.788 167.776C185.985 167.497 183.803 167.856 182.478 169.211C182.426 169.263 182.5 169.337 182.557 169.317C184.306 168.684 185.945 168.259 187.789 168.008C187.919 167.99 187.917 167.795 187.788 167.776Z" fill="#263238"/>
<path d="M170.03 168.931C167.985 168.894 167.925 172.148 169.974 172.185C172.02 172.222 172.079 168.968 170.03 168.931Z" fill="#263238"/>
<path d="M186.443 160.859C185.63 159.952 184.375 160.552 183.706 161.275C182.851 162.205 182.124 163.48 181.705 164.751C181.639 164.931 181.585 165.112 181.538 165.289C181.522 165.368 181.5 165.447 181.478 165.52C181.484 165.527 181.477 165.526 181.477 165.526L181.469 165.588C181.455 165.655 181.441 165.716 181.427 165.777C181.422 165.814 181.45 165.837 181.481 165.835C181.488 165.924 181.551 166.014 181.64 166.038C181.68 166.056 181.73 166.056 181.782 166.032C182.169 165.832 182.576 165.634 182.982 165.436C183.053 165.408 183.119 165.373 183.191 165.338C184.179 164.853 185.161 164.33 185.936 163.546C186.605 162.874 187.207 161.715 186.443 160.859ZM183.699 164.475C183.369 164.657 183.034 164.833 182.704 165.009C182.421 165.16 182.144 165.312 181.866 165.47C181.826 165.49 181.786 165.516 181.753 165.537C181.72 165.557 181.68 165.577 181.647 165.598C181.664 165.562 181.681 165.527 181.697 165.491C181.704 165.486 181.704 165.486 181.705 165.48C181.82 165.25 181.935 165.026 182.044 164.795C182.349 164.182 182.659 163.575 183.033 162.996C183.286 162.602 183.553 162.197 183.855 161.841C184.331 161.288 186.314 159.992 186.221 162.03C186.171 163.149 184.512 164.029 183.699 164.475Z" fill="#263238"/>
<path d="M181.833 165.724C181.86 165.709 181.87 165.678 181.849 165.644C181.818 165.602 181.785 165.567 181.753 165.537C181.744 165.511 181.727 165.496 181.716 165.488C181.711 165.481 181.711 165.475 181.704 165.48C181.653 165.404 181.598 165.347 181.538 165.288C181.335 165.054 181.11 164.835 180.878 164.634C179.968 163.815 178.856 163.133 177.78 162.758C176.856 162.434 175.477 162.508 175.173 163.694C175.162 163.737 175.156 163.78 175.151 163.823C174.969 164.875 175.986 165.569 176.849 165.835C177.755 166.106 178.715 166.139 179.671 166.115C180.33 166.096 180.993 166.052 181.64 166.038C181.646 166.038 181.646 166.038 181.652 166.039C181.818 166.036 181.878 165.856 181.833 165.724ZM179.253 165.582C178.325 165.578 176.456 165.594 175.897 164.627C175.726 164.327 175.651 164.091 175.652 163.896C175.632 162.938 177.342 163.114 177.904 163.334C178.337 163.498 178.757 163.73 179.165 163.954C179.474 164.127 179.77 164.317 180.063 164.52C180.545 164.841 181.005 165.186 181.479 165.519L181.484 165.526C181.512 165.548 181.547 165.566 181.574 165.589C181.538 165.584 181.507 165.586 181.47 165.587C181.379 165.581 181.293 165.577 181.201 165.577C180.551 165.566 179.903 165.587 179.253 165.582Z" fill="#263238"/>
<path d="M141.358 67.8836C141.358 67.8836 143.985 84.2708 144.164 84.7978L146.772 86.0582L155.561 119.415L164.66 160.016L183.527 159.927C183.527 159.927 179.669 138.045 173.643 115.714C169.763 101.341 166.858 85.9572 163.799 76.9281C162.992 74.5479 160.191 67.884 160.191 67.884L141.358 67.8836Z" fill="#37474F"/>
<path d="M145.273 79.8875C145.227 79.4047 145.18 78.9222 145.132 78.4394C145.044 77.5549 144.913 76.6745 144.806 75.7926C144.563 73.791 144.309 71.7826 143.975 69.794C143.967 69.7458 143.888 69.754 143.891 69.8034C143.927 70.6011 143.977 71.3985 144.048 72.194C144.118 72.9902 144.155 73.7895 144.224 74.585C144.362 76.1632 144.497 77.7441 144.68 79.3175C144.751 79.9238 145.064 81.0204 144.209 81.1629C143.533 81.2754 143.097 80.5701 142.906 80.0027C142.544 78.9248 141.785 71.6419 141.595 69.9002C141.59 69.8505 141.512 69.8613 141.511 69.9096C141.476 71.6921 141.969 77.2224 142.067 78.068C142.159 78.8583 142.214 79.7061 142.517 80.4478C142.754 81.0293 143.158 81.5544 143.792 81.6577C143.805 81.6599 144.15 84.7312 144.217 84.855C144.244 84.9055 144.539 85.0072 144.545 84.9597L144.549 84.9605C144.547 84.9137 144.124 81.6902 144.117 81.6823C144.614 81.7145 144.996 81.4684 145.201 80.9852C145.35 80.634 145.309 80.257 145.273 79.8875Z" fill="#263238"/>
<path d="M148.906 86.8787C145.031 84.7159 142.862 83.9697 141.565 83.5486C141.527 83.5359 141.501 83.5991 141.539 83.6144C142.794 84.1055 145.671 85.9392 148.859 86.9632C148.907 86.9786 148.949 86.9026 148.906 86.8787Z" fill="#263238"/>
<path d="M136.325 63.7603L137 67.8836H160.19C160.19 67.8836 155.429 51.4654 143.401 44.3265C139.66 42.106 136.395 43.9424 135.182 46.8884C134.875 47.6338 133.099 57.1233 133.607 60.579C133.929 62.7748 136.325 63.7603 136.325 63.7603Z" fill="#FFC727"/>
<path d="M142.72 59.8452C141.714 60.3056 140.717 60.8094 139.792 61.4433C139.332 61.7586 138.889 62.0978 138.45 62.4501C138.232 62.6259 138.009 62.7916 137.785 62.9565C137.554 63.126 137.303 63.2954 137.037 63.3911C137.014 63.3997 137.027 63.4424 137.051 63.4353C137.315 63.3605 137.567 63.2879 137.818 63.172C138.056 63.062 138.284 62.9206 138.504 62.7729C138.974 62.4584 139.429 62.1177 139.896 61.7975C140.838 61.1512 141.779 60.5057 142.764 59.9432C142.809 59.9174 142.768 59.8235 142.72 59.8452Z" fill="#263238"/>
<path d="M145.641 60.119C144.751 60.2892 143.858 60.5121 142.998 60.7997C142.565 60.9444 142.145 61.1176 141.728 61.3053C141.528 61.3947 141.331 61.4886 141.134 61.5851C140.919 61.6913 140.717 61.8327 140.5 61.9352C140.477 61.946 140.49 61.9894 140.513 61.9793C140.722 61.8899 140.946 61.8416 141.16 61.7668C141.374 61.6917 141.588 61.6146 141.802 61.5395C142.231 61.3891 142.662 61.244 143.089 61.0888C143.945 60.7776 144.801 60.4784 145.668 60.2028C145.715 60.1882 145.687 60.11 145.641 60.119Z" fill="#263238"/>
<path d="M151.935 52.0458L148.618 58.1645L147.675 55.827L150.594 50.4339C151.062 50.965 151.507 51.5035 151.935 52.0458Z" fill="#37474F"/>
<path d="M154.025 54.9556L150.185 62.0429L149.242 59.7016L152.783 53.1678C153.217 53.7625 153.63 54.3572 154.025 54.9556Z" fill="#37474F"/>
<path d="M139.25 44.1752C139.37 44.8368 138.976 48.2025 137.107 48.8532C136.146 49.1876 134.871 45.7928 134.871 45.7928L134.732 45.5609L132.785 42.3127L136.399 37.6878C136.399 37.6878 139.216 43.9867 139.25 44.1752Z" fill="#FFC4C0"/>
<path d="M137.447 40.0393C137.306 43.0223 135.581 44.8441 134.73 45.5614L132.783 42.3129L136.4 37.6857C136.4 37.6857 136.882 38.7614 137.447 40.0393Z" fill="#263238"/>
<path d="M126.001 38.798C127.768 45.2372 131.735 44.8807 133.091 44.4892C134.322 44.1335 138.469 42.7628 137.362 36.171C136.254 29.5793 132.77 28.3847 129.913 29.0456C127.056 29.7061 124.234 32.3585 126.001 38.798Z" fill="#FFC4C0"/>
<path d="M127.12 36.7683C127.259 36.6999 127.376 36.6131 127.507 36.5308C127.654 36.4381 127.781 36.3794 127.856 36.2114C127.897 36.1213 127.845 35.9855 127.764 35.9369C127.573 35.8243 127.365 35.892 127.183 35.9964C126.985 36.1097 126.861 36.2488 126.778 36.4639C126.697 36.6726 126.936 36.8588 127.12 36.7683Z" fill="#263238"/>
<path d="M131.347 35.2839C131.196 35.3179 131.052 35.3236 130.899 35.3411C130.727 35.3613 130.592 35.3954 130.432 35.3105C130.345 35.2652 130.304 35.1253 130.34 35.0356C130.422 34.8265 130.626 34.7483 130.832 34.7154C131.056 34.6799 131.238 34.7109 131.433 34.8276C131.622 34.9413 131.546 35.239 131.347 35.2839Z" fill="#263238"/>
<path d="M131.063 37.17C131.061 37.1524 131.102 37.1797 131.107 37.1977C131.229 37.636 131.441 38.1166 131.869 38.1353C131.882 38.136 131.887 38.1581 131.873 38.1607C131.384 38.2464 131.11 37.605 131.063 37.17Z" fill="#263238"/>
<path d="M131.3 36.5929C131.965 36.3173 132.455 37.6992 131.838 37.9546C131.232 38.2063 130.742 36.8244 131.3 36.5929Z" fill="#263238"/>
<path d="M131.591 36.5675C131.736 36.6019 131.901 36.6969 132.048 36.6584C132.219 36.6139 132.291 36.4231 132.349 36.244C132.355 36.2256 132.371 36.2331 132.378 36.2514C132.476 36.5147 132.473 36.8233 132.21 36.9658C131.97 37.0959 131.705 36.9288 131.546 36.6864C131.516 36.6423 131.532 36.5536 131.591 36.5675Z" fill="#263238"/>
<path d="M128.466 38.0564C128.456 38.0414 128.44 38.0889 128.447 38.1061C128.616 38.528 128.739 39.04 128.413 39.3254C128.403 39.3343 128.412 39.3553 128.425 39.3478C128.861 39.1066 128.691 38.4285 128.466 38.0564Z" fill="#263238"/>
<path d="M127.931 37.7523C127.241 37.9554 127.689 39.3523 128.328 39.1642C128.957 38.979 128.509 37.5821 127.931 37.7523Z" fill="#263238"/>
<path d="M127.676 37.9397C127.592 38.05 127.529 38.2202 127.402 38.2722C127.256 38.3324 127.098 38.2183 126.956 38.1054C126.941 38.0938 126.934 38.1091 126.94 38.1278C127.018 38.3971 127.193 38.6465 127.46 38.6136C127.704 38.5837 127.798 38.298 127.775 38.0111C127.771 37.958 127.71 37.8956 127.676 37.9397Z" fill="#263238"/>
<path d="M132.058 40.6209C132.025 40.7697 132.014 40.9519 131.886 41.0536C131.763 41.1508 131.572 41.1916 131.423 41.223C131.408 41.226 131.404 41.247 131.419 41.2533C131.609 41.336 131.871 41.293 132.025 41.1471C132.175 41.005 132.164 40.8 132.105 40.6145C132.097 40.5884 132.063 40.5992 132.058 40.6209Z" fill="#263238"/>
<path d="M129.628 39.7891C129.628 39.7891 129.76 40.4623 129.864 40.7653C129.874 40.7933 130.859 40.668 131.246 39.7207C131.261 39.6851 131.208 39.6661 131.188 39.6945C130.898 40.1272 130.493 40.3572 130.032 40.5308C129.983 40.4545 129.843 39.3702 129.794 39.3833C129.628 39.4271 129.348 39.6537 129.176 39.7798C128.86 38.3859 128.765 36.9516 128.43 35.5685C128.417 35.5195 128.345 35.5293 128.345 35.5768C128.341 37.0873 128.671 38.6997 128.961 40.1474C128.995 40.3284 129.527 39.883 129.628 39.7891Z" fill="#263238"/>
<path d="M130.257 40.5884C130.257 40.5884 130.641 40.8453 131.039 40.8401C131.186 40.8386 131.332 40.8045 131.464 40.7092C131.734 40.5147 131.64 40.2301 131.498 40.0094C131.381 39.828 131.229 39.6911 131.229 39.6911C131.229 39.6911 130.943 40.2772 130.257 40.5884Z" fill="#263238"/>
<path d="M131.039 40.8401C131.186 40.8386 131.332 40.8045 131.464 40.7092C131.734 40.5147 131.64 40.2301 131.498 40.0094C131.188 40.1654 130.95 40.5094 131.039 40.8401Z" fill="#FF9BBC"/>
<path d="M136.955 36.1295C135.879 36.7373 134.557 34.1971 134.557 34.1971C134.557 34.1971 129.402 35.3232 127.43 31.4639C127.43 31.4639 127.598 34.3665 125.519 36.5566C125.519 36.5566 123.975 32.0746 127.061 29.8272C127.061 29.8272 130.689 26.5218 134.41 28.9973C138.132 31.4732 137.678 35.7219 136.955 36.1295Z" fill="#263238"/>
<path d="M127.297 31.1733C127.471 31.8136 127.803 32.4082 128.226 32.9232C128.649 33.4382 129.173 33.8792 129.768 34.1784C129.911 34.2651 130.073 34.3115 130.224 34.3796L130.455 34.4738C130.533 34.4985 130.614 34.5195 130.694 34.54C130.854 34.5797 131.013 34.6264 131.174 34.6597C131.338 34.6825 131.501 34.7012 131.664 34.7184C131.746 34.7263 131.827 34.7382 131.909 34.7431L132.154 34.7409L132.643 34.7352C132.967 34.6997 133.289 34.6474 133.606 34.5909C133.281 34.5797 132.96 34.6025 132.641 34.5875L132.164 34.5509L131.927 34.5329C131.848 34.5213 131.77 34.503 131.692 34.4888C131.537 34.4574 131.382 34.4274 131.226 34.4016C131.073 34.3627 130.924 34.3111 130.773 34.267L130.547 34.1993L130.33 34.1062C130.188 34.0392 130.035 33.994 129.901 33.9098C129.334 33.6334 128.838 33.2258 128.394 32.7691C128.172 32.5387 127.972 32.2855 127.789 32.0185C127.601 31.7541 127.44 31.4706 127.297 31.1733Z" fill="#263238"/>
<path d="M136.148 36.189C136.148 36.189 136.763 33.7206 137.809 33.8736C138.854 34.0265 138.893 37.2455 138.019 38.0253C137.145 38.8047 136.425 37.9909 136.425 37.9909L136.148 36.189Z" fill="#FFC4C0"/>
<path d="M137.797 34.7966C137.813 34.7887 137.825 34.8112 137.813 34.8224C137.209 35.3931 137.083 36.2144 137.078 37.0174C137.191 36.6655 137.425 36.4063 137.874 36.5282C137.898 36.5346 137.891 36.5712 137.869 36.5746C137.553 36.6232 137.362 36.7563 137.253 37.0716C137.176 37.2949 137.159 37.5462 137.131 37.7807C137.122 37.8589 136.994 37.8682 136.99 37.7837C136.99 37.7774 136.99 37.771 136.99 37.7646C136.629 36.8412 136.856 35.2667 137.797 34.7966Z" fill="#263238"/>
<path d="M137.818 37.8376C137.833 37.9954 137.72 38.1357 137.566 38.151C137.412 38.1663 137.275 38.0508 137.26 37.8929C137.245 37.7351 137.358 37.5949 137.512 37.5795C137.666 37.5642 137.803 37.6797 137.818 37.8376Z" fill="#455A64"/>
<path d="M137.671 37.8522C137.678 37.927 137.625 37.9932 137.552 38.0003C137.479 38.0074 137.414 37.9528 137.407 37.878C137.4 37.8032 137.453 37.737 137.527 37.7299C137.599 37.7228 137.664 37.7774 137.671 37.8522Z" fill="#263238"/>
<path d="M138.157 37.3327C138.167 37.4441 138.087 37.5436 137.978 37.5541C137.87 37.5649 137.772 37.4834 137.762 37.3716C137.752 37.2601 137.832 37.161 137.94 37.1502C138.049 37.1393 138.146 37.2212 138.157 37.3327Z" fill="#455A64"/>
<path d="M140.263 44.5251C142.036 42.5433 149.139 48.5957 147.603 50.4406C145.791 52.6162 138.732 46.2361 140.263 44.5251Z" fill="#FFC4C0"/>
<path d="M145.101 46.3379C146.708 40.389 148.327 27.3588 145.796 23.6985C144.182 21.3651 128.117 17.6476 122.848 17.2137C121.052 17.0656 122.35 27.8671 124.256 28.16C127.728 28.6933 137.337 30.3752 137.732 31.5409C138.085 32.5825 138.902 35.7076 139.27 41.3027C139.757 48.6937 143.974 50.5072 145.101 46.3379Z" fill="#FFC4C0"/>
<path d="M144.133 44.2502C144.133 44.2502 143.914 46.4979 144.183 47.2923C144.451 48.0867 144.769 49.1342 144.769 49.1342" fill="#263238"/>
<path d="M122.555 28.3189C124.762 28.7082 128.263 27.4071 128.263 27.4071L125.905 17.9157C125.905 17.9157 117.926 15.9489 113.714 14.8044C110.568 13.9502 107.31 12.8619 106.947 13.0156C106.249 13.3114 106.354 14.598 108.234 15.8647C110.112 17.1337 114.195 18.9539 114.412 19.1294C114.439 19.1514 114.501 19.2266 114.592 19.3451C114.592 19.3451 114.592 19.3451 114.592 19.3485C114.637 19.4652 114.123 22.6943 115.142 23.7438C116.18 24.8138 122.144 28.3384 122.555 28.3189Z" fill="#FFC4C0"/>
<path d="M118.707 20.0009C118.707 20.0009 114.878 15.9853 113.757 15.7676C112.636 15.5496 106.103 13.1896 105.399 13.4705C104.695 13.7514 104.806 15.0537 106.685 16.3211C108.565 17.5886 112.647 19.4085 112.865 19.585C113.084 19.7612 115.849 23.812 116.214 24.1071C116.579 24.4014 118.707 20.0009 118.707 20.0009Z" fill="#FFC4C0"/>
<path d="M116.864 17.4265C116.359 17.0918 115.842 16.7795 115.326 16.4639C115.066 16.3101 114.804 16.1598 114.538 16.0139C114.405 15.9414 114.272 15.8688 114.135 15.8007C114.068 15.7652 113.995 15.7338 113.925 15.7013C113.848 15.6698 113.765 15.6418 113.699 15.6231C112.559 15.2599 111.408 14.9002 110.261 14.5475C109.108 14.2012 107.964 13.85 106.796 13.5332C106.497 13.4625 106.19 13.4131 105.877 13.4184C105.721 13.4214 105.562 13.4386 105.407 13.4872C105.255 13.5358 105.096 13.6173 104.994 13.7647C104.891 13.9106 104.869 14.0994 104.9 14.258C104.928 14.4203 104.992 14.5669 105.067 14.7031C105.217 14.9772 105.421 15.2087 105.634 15.4253C105.447 15.1851 105.268 14.9361 105.143 14.6634C105.081 14.5277 105.033 14.3844 105.019 14.2419C105.004 14.0998 105.036 13.9599 105.118 13.8619C105.285 13.6589 105.597 13.6173 105.877 13.6252C106.164 13.6345 106.453 13.6951 106.734 13.777C107.87 14.1454 109.022 14.509 110.17 14.8601C111.323 15.205 112.469 15.5558 113.637 15.8628C113.909 15.923 114.178 16.0715 114.449 16.1961C114.719 16.3266 114.986 16.4661 115.254 16.6026L116.864 17.4265Z" fill="#263238"/>
<path d="M118.739 21.2681C118.739 21.2681 114.524 16.8837 113.404 16.6656C112.283 16.4476 105.749 14.0876 105.045 14.3685C104.341 14.6494 104.453 15.9517 106.332 17.2191C108.211 18.4866 112.293 20.3065 112.512 20.4827C112.73 20.6588 115.797 24.2859 116.162 24.5806C116.527 24.8757 118.739 21.2681 118.739 21.2681Z" fill="#FFC4C0"/>
<path d="M117.227 18.5145C116.591 18.133 115.942 17.7773 115.292 17.4217C114.964 17.2496 114.634 17.0798 114.301 16.9168C114.134 16.8352 113.965 16.7559 113.793 16.6808C113.625 16.606 113.43 16.5387 113.26 16.4912C111.851 16.0611 110.438 15.6354 109.023 15.2211L106.896 14.6118L106.362 14.4652C106.187 14.4173 105.999 14.3657 105.808 14.3388C105.617 14.3115 105.421 14.3006 105.223 14.3249C105.028 14.3526 104.816 14.4069 104.648 14.5695C104.565 14.65 104.506 14.7607 104.483 14.8747C104.458 14.9895 104.471 15.1006 104.492 15.2035C104.54 15.4088 104.633 15.5857 104.736 15.7495C104.947 16.0749 105.201 16.3569 105.469 16.6191C106.01 17.1464 106.646 17.5574 107.319 17.8604C106.678 17.4927 106.069 17.0593 105.578 16.5076C105.328 16.2372 105.089 15.953 104.905 15.6414C104.814 15.4862 104.739 15.3217 104.708 15.1578C104.675 14.9933 104.707 14.8422 104.814 14.7498C104.919 14.6529 105.084 14.6081 105.25 14.5935C105.419 14.5815 105.593 14.5901 105.766 14.6197C106.105 14.6802 106.463 14.8085 106.815 14.9069L108.936 15.5337C110.352 15.9455 111.766 16.3591 113.192 16.7414C113.379 16.7866 113.535 16.8334 113.708 16.9007C113.877 16.9665 114.047 17.0376 114.215 17.1112C114.552 17.2586 114.887 17.4134 115.22 17.5709L117.227 18.5145Z" fill="#263238"/>
<path d="M118.842 21.1022C118.842 21.1022 114.312 18.1712 113.269 17.9681C112.226 17.7654 107.863 15.8681 107.208 16.1295C106.552 16.3909 106.656 17.6031 108.405 18.7834C110.154 19.9634 112.235 21.3576 112.438 21.5218C112.641 21.686 115.821 24.3066 116.161 24.5808C116.502 24.8549 118.842 21.1022 118.842 21.1022Z" fill="#FFC4C0"/>
<path d="M117.871 19.9387C117.039 19.4727 116.2 19.0213 115.362 18.5661C114.944 18.338 114.523 18.1143 114.1 17.894L113.782 17.7298C113.677 17.6737 113.556 17.6236 113.446 17.5829C113.221 17.4976 112.995 17.422 112.768 17.348C111.861 17.0574 110.949 16.7874 110.027 16.5506C109.567 16.4321 109.105 16.3172 108.64 16.2129C108.407 16.1605 108.174 16.1108 107.938 16.0674C107.699 16.0259 107.471 15.9799 107.202 15.9773C107.066 15.9829 106.896 16.0188 106.775 16.1523C106.654 16.2832 106.624 16.4556 106.625 16.5955C106.631 16.8835 106.726 17.1285 106.836 17.3592C107.064 17.8129 107.387 18.2198 107.798 18.5126C108.579 19.0736 109.367 19.6096 110.155 20.1507C110.94 20.6867 111.741 21.2338 112.522 21.7488C112.902 22.029 113.28 22.3263 113.657 22.6188C114.039 22.9068 114.42 23.1962 114.812 23.4726C114.122 22.8009 113.416 22.1591 112.684 21.5301L110.32 19.9005C109.538 19.3545 108.75 18.8088 107.984 18.249C107.616 17.9864 107.319 17.6225 107.112 17.2163C107.012 17.0151 106.933 16.7937 106.929 16.594C106.927 16.3857 107.011 16.2918 107.212 16.2821C107.418 16.2817 107.659 16.3229 107.887 16.3621C108.118 16.4029 108.349 16.45 108.579 16.4998C109.041 16.5989 109.502 16.7092 109.961 16.8236C110.878 17.0578 111.798 17.2881 112.706 17.5589C112.932 17.6266 113.159 17.6958 113.38 17.7732C113.6 17.8447 113.803 17.9557 114.021 18.059L115.303 18.6873L117.871 19.9387Z" fill="#263238"/>
<path d="M139.624 79.564C140.53 78.5606 138.856 78.0411 138.856 78.0411C138.856 78.0411 141.443 78.1944 141.987 76.7893C142.508 75.4339 140.463 74.8793 140.317 74.8374C140.454 74.8441 142.834 74.9215 143.239 73.4521C143.658 71.9247 141.512 71.7287 141.374 71.7164C141.505 71.6812 143.233 71.1879 143.293 70.0001C143.394 67.9588 138.35 68.7943 137 67.8832L136.65 65.7455C136.65 65.7455 136.587 66.4228 135.771 66.885C134.758 67.4584 133.824 67.8728 133.505 68.5108C132.984 69.5618 133.739 70.2832 133.739 70.2832C133.739 70.2832 132.332 70.4481 131.978 71.5944C131.797 72.1835 132.557 73.0029 132.557 73.0029C132.557 73.0029 131.436 73.1832 131.183 74.2233C130.978 75.0524 131.773 75.7455 131.773 75.7455C131.773 75.7455 130.774 76.4299 130.834 77.3466C130.951 79.196 137.68 81.7115 139.624 79.564Z" fill="#FFC4C0"/>
<path d="M131.881 75.8753C131.86 75.8652 131.841 75.894 131.862 75.9082C133.878 77.2882 136.505 78.1724 138.944 78.0792C139.024 78.0762 139.054 77.9416 138.965 77.9281C136.434 77.5321 134.219 76.9744 131.881 75.8753Z" fill="#263238"/>
<path d="M132.518 73.0048C132.493 72.9925 132.473 73.0358 132.498 73.0527C134.583 74.463 137.57 75.3756 140.367 74.9294C140.464 74.9141 140.535 74.8019 140.423 74.8108C138.54 74.9631 134.618 74.0052 132.518 73.0048Z" fill="#263238"/>
<path d="M141.558 71.6169C138.86 71.9385 136.332 71.3424 133.821 70.3479C133.789 70.3348 133.774 70.3834 133.798 70.4021C134.897 71.2313 136.562 71.6943 137.887 71.9426C139.156 72.1805 140.348 72.1338 141.57 71.7138C141.617 71.6969 141.616 71.6098 141.558 71.6169Z" fill="#263238"/>
<path d="M131.7 75.7563C131.198 75.3502 130.791 74.785 130.911 74.095C130.966 73.782 131.137 73.5048 131.379 73.3047C131.679 73.0568 132.156 73.0059 132.383 72.9629C131.913 72.4625 131.619 71.7358 131.921 71.0664C132.06 70.7559 132.311 70.5832 132.617 70.4403C132.782 70.3632 133.49 70.2125 133.699 70.2282C133.321 69.9507 133.09 69.4772 133.09 69.0026C133.09 68.4499 133.394 68.0108 133.811 67.6858C134.29 67.3121 134.872 67.1225 135.416 66.8749C135.699 66.7459 135.979 66.6184 136.227 66.4243C136.452 66.2481 136.468 66.2047 136.633 65.7716C136.655 65.7129 136.664 65.7675 136.647 65.8161C136.559 66.0735 136.473 66.4172 136.008 66.7889C135.549 67.1551 135.001 67.3593 134.504 67.6592C134.069 67.9214 133.67 68.2793 133.478 68.7696C133.28 69.2753 133.42 69.8329 133.763 70.2312C133.783 70.2492 133.778 70.2866 133.737 70.2926C133.498 70.3288 132.944 70.5454 132.808 70.6329C132.575 70.7817 132.344 70.9605 132.236 71.219C131.994 71.8024 132.171 72.5085 132.556 73.0041C132.57 73.022 131.991 73.1548 131.613 73.5097C131.434 73.6776 131.32 73.9219 131.262 74.1612C131.126 74.7274 131.343 75.3554 131.783 75.72C131.791 75.726 131.792 75.7331 131.794 75.7402L131.795 75.7414C131.796 75.7462 131.797 75.7503 131.796 75.7552C131.797 75.7631 131.794 75.7698 131.788 75.7769V75.7773C131.785 75.7814 131.061 76.3704 130.879 76.9782C130.876 76.9887 130.847 76.9591 130.849 76.949C130.926 76.216 131.655 75.7832 131.7 75.7563Z" fill="#263238"/>
<path d="M44.5134 67.545C44.5134 67.545 43.4181 80.5164 46.1826 84.7045C45.9816 83.5118 46.5384 108.833 47.2903 119.223C47.835 126.753 49.2737 158.746 49.2737 158.746L66.9989 158.526C66.9989 158.526 65.1094 121.846 65.0126 119.083C64.7857 112.6 63.925 96.8034 63.0033 82.4844C63.0033 82.4844 63.9349 79.1902 63.8614 78.1191C63.4121 71.5812 61.8919 67.545 61.8919 67.545H44.5134Z" fill="#D3766A"/>
<path opacity="0.1" d="M65.2902 124.928L47.0271 114.91C46.4382 103.609 46.0367 85.2019 46.1639 84.6764C43.4231 80.4614 44.5129 67.5438 44.5129 67.5438H61.8929C61.8929 67.5438 63.4127 71.5797 63.8621 78.1198C63.9337 79.191 63.0028 82.4855 63.0028 82.4855C63.9256 96.8041 64.7849 112.601 65.0118 119.084C65.0355 119.683 65.1389 121.87 65.2902 124.928Z" fill="black"/>
<path d="M36.6255 174.441C37.6053 174.78 66.4243 174.788 67.4914 174.093C67.6902 173.968 66.356 145.992 66.356 145.992L48.7316 146.084L49.4323 164.527C49.4323 164.527 38.6936 169.443 37.598 170.334C36.5115 171.222 35.6453 174.107 36.6255 174.441Z" fill="#D3766A"/>
<path d="M67.4911 174.094C66.4251 174.786 37.6043 174.778 36.6256 174.44C35.6468 174.106 36.5101 171.222 37.6003 170.335C38.6941 169.443 49.4309 164.527 49.4309 164.527L49.3235 161.75H67.0772C67.3516 168.132 67.5825 174.037 67.4911 174.094Z" fill="#EBEBEB"/>
<path d="M36.4348 174.523C37.4369 174.868 66.4831 175.125 67.5783 174.418C67.9952 174.153 67.7873 169.405 67.4012 164.396H49.1948C49.1948 164.396 38.5581 169.415 37.438 170.321C36.3241 171.228 35.433 174.179 36.4348 174.523Z" fill="#FFC727"/>
<path d="M36.8479 173.349C41.6583 173.235 61.0703 173.241 65.8339 173.502C65.8726 173.504 65.8726 173.532 65.8339 173.533C61.0684 173.753 41.6568 173.586 36.8476 173.43C36.7464 173.426 36.7464 173.351 36.8479 173.349Z" fill="#263238"/>
<path d="M39.2853 169.268C40.4263 169.222 41.5402 169.778 42.1612 170.474C42.7578 171.144 43.2678 172.084 43.2324 173.105C43.2313 173.134 43.1787 173.135 43.1743 173.105C42.9021 171.177 41.1924 169.482 39.285 169.329C39.2466 169.326 39.2462 169.269 39.2853 169.268Z" fill="#263238"/>
<path d="M47.6852 164.888C49.6105 164.863 51.8416 165.562 53.0359 167.176C53.0823 167.238 52.9946 167.305 52.9376 167.274C51.1982 166.353 49.5451 165.667 47.6519 165.13C47.5182 165.093 47.5474 164.889 47.6852 164.888Z" fill="#263238"/>
<path d="M46.1983 165.479C48.1236 165.454 50.3547 166.153 51.5489 167.767C51.595 167.829 51.5077 167.895 51.4507 167.865C49.7117 166.945 48.0578 166.258 46.165 165.721C46.0309 165.683 46.0605 165.48 46.1983 165.479Z" fill="#263238"/>
<path d="M44.7111 166.069C46.6364 166.045 48.8675 166.744 50.0618 168.358C50.1082 168.42 50.0205 168.487 49.9632 168.456C48.2242 167.535 46.5707 166.849 44.6775 166.312C44.5442 166.274 44.5734 166.071 44.7111 166.069Z" fill="#263238"/>
<path d="M43.2241 166.661C45.1494 166.636 47.3805 167.335 48.5748 168.949C48.6212 169.011 48.5335 169.078 48.4765 169.048C46.7375 168.126 45.084 167.44 43.1909 166.903C43.0572 166.865 43.086 166.662 43.2241 166.661Z" fill="#263238"/>
<path d="M64.6154 168.823C66.7753 168.833 66.7647 172.269 64.6008 172.26C62.4406 172.25 62.4516 168.814 64.6154 168.823Z" fill="white"/>
<path d="M45.7589 162.512C46.4585 163.446 47.4113 164.139 48.3768 164.793C48.4474 164.84 48.5113 164.886 48.5814 164.927C48.9778 165.194 49.3746 165.46 49.752 165.727C49.8031 165.76 49.8546 165.767 49.8996 165.755C49.996 165.742 50.0742 165.657 50.0939 165.565C50.1261 165.572 50.1582 165.553 50.1586 165.513C50.1527 165.447 50.1469 165.382 50.141 165.309L50.1414 165.243C50.1414 165.243 50.1348 165.243 50.1414 165.237C50.1293 165.158 50.1169 165.072 50.1114 164.986C50.0873 164.795 50.0566 164.597 50.0135 164.399C49.7549 163.008 49.1755 161.567 48.4126 160.467C47.8153 159.613 46.5871 158.799 45.6087 159.626C44.6892 160.408 45.1542 161.709 45.7589 162.512ZM45.6759 160.884C45.8674 158.739 47.7576 160.389 48.1766 161.038C48.4433 161.455 48.6644 161.918 48.873 162.368C49.1828 163.029 49.4213 163.709 49.6537 164.396C49.7352 164.653 49.8232 164.904 49.9109 165.162C49.9109 165.168 49.9109 165.168 49.9171 165.175C49.9295 165.214 49.9423 165.254 49.9547 165.294C49.9229 165.267 49.8846 165.24 49.8524 165.214C49.8206 165.187 49.7823 165.154 49.7439 165.127C49.4754 164.921 49.2069 164.721 48.9322 164.521C48.6125 164.288 48.2862 164.054 47.9669 163.815C47.1807 163.229 45.5696 162.062 45.6759 160.884Z" fill="#263238"/>
<path d="M49.8868 165.755C49.8933 165.755 49.8934 165.755 49.8996 165.755C50.574 165.866 51.2612 166.01 51.9484 166.128C52.9439 166.295 53.9529 166.403 54.9382 166.253C55.8786 166.103 57.0411 165.528 56.9991 164.401C56.9994 164.355 56.9998 164.309 56.994 164.263C56.8438 162.977 55.4121 162.695 54.4005 162.897C53.2215 163.13 51.9626 163.679 50.8955 164.4C50.624 164.576 50.3584 164.771 50.1122 164.986C50.0409 165.038 49.9763 165.09 49.9113 165.162C49.9047 165.155 49.9047 165.162 49.8985 165.169C49.8857 165.175 49.866 165.188 49.8532 165.214C49.8144 165.24 49.7753 165.273 49.7366 165.312C49.7107 165.344 49.7169 165.378 49.7425 165.397C49.6763 165.529 49.7132 165.727 49.8868 165.755ZM50.4242 165.338C50.3277 165.323 50.2379 165.316 50.1414 165.309C50.1031 165.302 50.0709 165.295 50.0322 165.295C50.0647 165.275 50.1034 165.262 50.1356 165.243L50.1421 165.236C50.6847 164.958 51.2148 164.666 51.7635 164.401C52.0992 164.233 52.435 164.078 52.7835 163.943C53.2416 163.769 53.7125 163.589 54.1897 163.481C54.8082 163.335 56.6217 163.403 56.4653 164.403C56.4379 164.606 56.3265 164.842 56.1055 165.13C55.3836 166.059 53.4309 165.765 52.4609 165.632C51.7796 165.541 51.1052 165.423 50.4242 165.338Z" fill="#263238"/>
<path d="M44.5133 67.545H62.1366C62.1366 67.545 64.2007 76.5666 64.2599 78.327C64.3191 80.0874 63.4814 82.9089 63.4814 82.9089L64.5788 99.1121L45.7993 99.298L45.667 84.9405C45.667 84.9405 43.2905 80.0818 44.5133 67.545Z" fill="#263238"/>
<path opacity="0.1" d="M44.5133 67.545H62.1366C62.1366 67.545 64.2007 76.5666 64.2599 78.327C64.3191 80.0874 63.4814 82.9089 63.4814 82.9089L64.5788 99.1121L45.7993 99.298L45.667 84.9405C45.667 84.9405 43.2905 80.0818 44.5133 67.545Z" fill="black"/>
<path d="M84.0367 95.3552C84.0367 95.3552 76.3125 111.156 67.2957 116.344C60.936 120.003 48.3743 117.58 47.6068 111.736C47.3123 109.5 46.9725 102.416 46.9923 99.0967C47.0558 86.3501 48.9453 68.4845 49.0451 67.5438H68.418C68.4775 68.6595 68.8158 75.3425 68.605 77.7208C68.2828 81.3736 66.6238 85.157 66.5128 85.5396C65.1044 90.4835 64.1655 96.8333 64.1337 97.0042L70.8803 88.3124L84.0367 95.3552Z" fill="#D3766A"/>
<path d="M101.8 75.416C100.81 75.113 72.0082 76.1397 70.9651 76.8727C70.8877 76.9251 71.5175 84.53 71.6158 86.7519C71.6509 87.5459 65.3416 95.585 65.3416 95.585L80.4937 101.459L89.341 85.784C89.341 85.784 99.9043 80.4848 100.969 79.555C102.025 78.6294 102.792 75.7144 101.8 75.416Z" fill="#D3766A"/>
<path d="M100.969 79.5573C99.9032 80.4859 89.3414 85.784 89.3414 85.784L87.6904 88.7079L70.0134 89.3826C70.7613 88.3074 71.6271 86.9853 71.6151 86.753C71.5157 84.5296 70.8869 76.9262 70.9666 76.8735C72.0089 76.1404 100.81 75.1142 101.8 75.4156C102.791 75.7129 102.024 78.6286 100.969 79.5573Z" fill="#EBEBEB"/>
<path d="M101.988 75.327C100.975 75.0184 71.938 75.8049 70.8672 76.5499C70.4598 76.8304 70.8303 81.5675 71.3878 86.5597L89.5828 85.9059C89.5828 85.9059 100.041 80.5084 101.129 79.5618C102.212 78.6159 103.001 75.6359 101.988 75.327Z" fill="#FFC727"/>
<path d="M101.616 76.5155C96.8121 76.802 77.4118 77.4935 72.6424 77.403C72.6037 77.4023 72.6026 77.3754 72.6413 77.372C77.3961 76.9815 96.8015 76.4508 101.613 76.4348C101.715 76.4348 101.717 76.5099 101.616 76.5155Z" fill="#263238"/>
<path d="M99.3194 80.6819C98.1807 80.7687 97.0485 80.2529 96.4041 79.5793C95.7848 78.932 95.243 78.0104 95.2434 76.9886C95.2434 76.9595 95.2964 76.9569 95.3015 76.9868C95.6394 78.9032 97.4062 80.536 99.318 80.6202C99.356 80.6221 99.3585 80.6789 99.3194 80.6819Z" fill="#263238"/>
<path d="M91.0745 85.361C89.151 85.4545 86.8976 84.8363 85.6489 83.2666C85.6003 83.2056 85.6855 83.1361 85.7439 83.1645C87.5136 84.0225 89.1897 84.6497 91.0997 85.1175C91.2345 85.1501 91.2126 85.3543 91.0745 85.361Z" fill="#263238"/>
<path d="M92.5405 84.717C90.617 84.8109 88.3636 84.1923 87.1146 82.6226C87.0663 82.5616 87.1515 82.4924 87.2096 82.5205C88.9792 83.3784 90.6554 84.0056 92.5657 84.4735C92.7005 84.506 92.6782 84.7103 92.5405 84.717Z" fill="#263238"/>
<path d="M94.0067 84.073C92.0836 84.1665 89.8295 83.5482 88.5808 81.9786C88.5322 81.9176 88.6177 81.8484 88.6758 81.8765C90.4454 82.7344 92.1212 83.3616 94.0319 83.8295C94.1664 83.8624 94.1444 84.0662 94.0067 84.073Z" fill="#263238"/>
<path d="M95.4724 83.4289C93.5493 83.5224 91.2956 82.9042 90.0469 81.3341C89.9983 81.2736 90.0834 81.204 90.1419 81.232C91.9115 82.09 93.5873 82.7172 95.4977 83.1851C95.6325 83.2184 95.6102 83.4222 95.4724 83.4289Z" fill="#263238"/>
<path d="M74.0204 82.0354C71.8613 82.1035 71.7546 78.6687 73.917 78.6002C76.0761 78.5325 76.1832 81.9673 74.0204 82.0354Z" fill="white"/>
<path d="M93.0817 87.6663C92.3504 86.7575 91.3745 86.0989 90.387 85.4803C90.3151 85.4362 90.2497 85.3921 90.1781 85.3543C89.7726 85.1018 89.367 84.8494 88.9809 84.5966C88.9286 84.5651 88.8771 84.5599 88.8322 84.5741C88.7361 84.5898 88.6612 84.6777 88.6444 84.7705C88.6119 84.7649 88.5805 84.7854 88.5816 84.8247C88.5896 84.8901 88.598 84.956 88.606 85.0282L88.6079 85.094C88.6079 85.094 88.6145 85.094 88.6079 85.1007C88.6229 85.1793 88.6378 85.2645 88.6466 85.3498C88.6773 85.5402 88.7146 85.7365 88.7646 85.9329C89.0708 87.3144 89.6995 88.733 90.4992 89.8049C91.1258 90.6374 92.381 91.4071 93.3302 90.5447C94.2227 89.7301 93.713 88.4461 93.0817 87.6663ZM93.2202 89.2895C93.1022 91.44 91.1568 89.8595 90.7159 89.2259C90.4349 88.8186 90.1982 88.3639 89.9742 87.9222C89.6421 87.2725 89.3802 86.6012 89.1245 85.9231C89.0342 85.6688 88.9378 85.4208 88.841 85.1669C88.841 85.1602 88.841 85.1602 88.834 85.1538C88.8201 85.1145 88.8063 85.0756 88.7924 85.0364C88.8253 85.0618 88.8643 85.0872 88.8972 85.1127C88.9301 85.1381 88.9696 85.1699 89.0086 85.1953C89.2841 85.3921 89.5592 85.582 89.8405 85.772C90.1678 85.9934 90.5018 86.2152 90.8295 86.4434C91.6361 87.001 93.286 88.1088 93.2202 89.2895Z" fill="#263238"/>
<path d="M88.8449 84.5737C88.8383 84.5741 88.8383 84.5741 88.8321 84.5741C88.1544 84.4873 87.4628 84.3677 86.772 84.2745C85.7713 84.1436 84.7594 84.0722 83.7795 84.257C82.845 84.4406 81.7026 85.0577 81.7833 86.1819C81.7844 86.2279 81.7855 86.2739 81.7932 86.3199C81.9872 87.599 83.4281 87.8302 84.432 87.5919C85.6025 87.3163 86.8418 86.7227 87.8837 85.9635C88.1493 85.7784 88.4076 85.5738 88.6465 85.3498C88.7159 85.2952 88.7787 85.241 88.8412 85.1665C88.8478 85.1729 88.8478 85.1662 88.854 85.1594C88.8668 85.1523 88.8858 85.1389 88.8978 85.1123C88.9358 85.085 88.9735 85.051 89.0111 85.0106C89.0359 84.9769 89.0286 84.9444 89.0023 84.9253C89.063 84.7918 89.0195 84.5954 88.8449 84.5737ZM88.3224 85.0095C88.4193 85.0199 88.5095 85.024 88.6059 85.0282C88.6447 85.0338 88.6772 85.0394 88.7155 85.0382C88.6838 85.0588 88.6458 85.073 88.614 85.0936L88.6078 85.1003C88.0751 85.398 87.5556 85.7085 87.016 85.9931C86.6861 86.1733 86.3559 86.3405 86.0121 86.4879C85.5602 86.6779 85.0958 86.875 84.6227 86.9999C84.0093 87.1682 82.1951 87.1644 82.3167 86.1602C82.3372 85.9553 82.4406 85.7156 82.6514 85.4201C83.3408 84.466 85.3026 84.6897 86.2766 84.788C86.9609 84.8554 87.6389 84.9492 88.3224 85.0095Z" fill="#263238"/>
<path d="M64.1115 96.927C62.9468 98.488 61.7938 99.9818 60.5593 101.486C61.3634 99.7069 62.5928 98.1223 64.1115 96.927Z" fill="#263238"/>
<path d="M68.8553 78.417C68.5926 80.7178 66.6435 85.3524 66.6315 85.3928C66.6194 85.4294 64.5787 95.8869 64.5787 95.8869L46.4461 99.5019C46.3533 98.3197 47.1431 83.2588 47.1431 83.2588C46.7584 82.6652 45.4882 81.1629 45.2913 80.318C44.4433 76.679 44.2665 67.9622 44.299 67.5437H68.4172V67.507C68.4212 67.5193 68.4212 67.5313 68.4212 67.5437C68.5173 68.7408 69.1019 76.2994 68.8553 78.417Z" fill="#263238"/>
<path d="M67.1958 78.0914C67.156 78.698 66.3128 81.1537 65.4495 83.6176C65.207 84.3222 64.9761 84.9861 64.9563 85.0755C64.9246 85.2546 63.7551 92.0842 63.0508 96.193L62.6372 96.2745C63.3332 92.186 64.5307 85.1854 64.5625 85.0022C64.5786 84.9124 64.7017 84.5582 65.0758 83.483C65.6644 81.797 66.7585 78.6614 66.8024 78.0626C66.9456 75.957 66.6274 70.0115 66.4842 67.5435H66.878C67.0249 70.0403 67.3431 75.9413 67.1958 78.0914Z" fill="white"/>
<path d="M65.9508 78.0914C65.911 78.698 65.0678 81.1537 64.2046 83.6176C63.962 84.3222 63.7271 84.9861 63.7114 85.0755C63.6796 85.2587 62.4623 92.3771 61.7623 96.4496L61.3447 96.5311C62.037 92.4833 63.2861 85.1895 63.3179 85.0022C63.3336 84.9124 63.4571 84.5582 63.8312 83.483C64.4201 81.797 65.5139 78.6614 65.5537 78.0626C65.6969 75.957 65.3787 70.0156 65.2355 67.5435H65.6334C65.7795 70.0403 66.0977 75.9413 65.9508 78.0914Z" fill="white"/>
<path d="M68.422 67.5438H68.418V67.507C68.422 67.5194 68.422 67.5318 68.422 67.5438Z" fill="#FFC727"/>
<path d="M43.7538 71.4882H69.2417C69.6022 71.0664 63.6616 44.6264 58.7412 39.2554C57.0446 37.4034 53.5597 37.1808 51.5851 39.3033C47.8697 43.2961 43.4298 71.0993 43.7538 71.4882Z" fill="#455A64"/>
<path d="M68.7301 68.3522H44.0884C44.1614 67.8473 44.2491 67.2901 44.3441 66.6917H68.3721C68.5036 67.2901 68.6242 67.8473 68.7301 68.3522Z" fill="#FFC727"/>
<path d="M67.9922 65.0573H44.6072C44.6693 64.687 44.735 64.3056 44.8045 63.9129H67.7182C67.8132 64.3056 67.9045 64.687 67.9922 65.0573Z" fill="#FFC727"/>
<path d="M61.1137 40.812C70.3687 48.415 87.1719 67.6192 89.887 70.2428C91.7298 72.0234 82.755 82.1988 81.6809 80.7982C80.3054 79.0049 62.6584 55.873 57.7337 44.3844C55.4511 39.0598 58.1535 38.3803 61.1137 40.812Z" fill="#D3766A"/>
<path d="M89.6719 91.0466C90.9933 90.6483 91.0196 89.1882 91.0196 89.1882C91.0196 89.1882 92.0703 89.5221 93.0118 89.0311C94.0903 88.469 93.7019 86.4909 93.7019 86.4909C93.7019 86.4909 94.8337 86.6034 95.7774 85.9822C96.7568 85.3378 96.6428 83.2849 96.6428 83.2849C96.6428 83.2849 97.7531 82.7965 98.193 81.661C98.9444 79.7192 97.0962 77.1506 95.9377 75.5057C94.7793 73.8609 89.9876 70.306 89.1415 69.5341L78.7649 77.0563C78.7649 77.0563 81.9108 85.9459 83.5416 87.6821C84.9153 89.144 88.1883 91.4939 89.6719 91.0466Z" fill="#D3766A"/>
<path d="M90.8023 89.2357C88.9775 88.0396 87.5972 86.3562 86.1264 84.7559C86.0939 84.7204 86.1487 84.6684 86.1808 84.7043C87.6254 86.3132 89.3636 87.6076 90.8677 89.1541C90.9097 89.1968 90.8516 89.2678 90.8023 89.2357Z" fill="#263238"/>
<path d="M93.543 86.5552C93.1386 86.2717 92.8259 85.8528 92.5106 85.4736C92.1712 85.0652 91.8395 84.6512 91.5132 84.2319C90.8607 83.3923 90.2265 82.5373 89.6175 81.664C89.5905 81.6255 89.6416 81.5735 89.6723 81.6124C90.3241 82.4479 90.9882 83.2737 91.6736 84.0804C92.0166 84.484 92.3633 84.8849 92.7122 85.2832C93.037 85.6539 93.4097 86.017 93.6478 86.4553C93.6833 86.52 93.604 86.5978 93.543 86.5552Z" fill="#263238"/>
<path d="M96.6152 83.2502C96.2536 83.0183 95.9916 82.5684 95.7366 82.2254C95.4469 81.8364 95.1554 81.4493 94.8616 81.0638C94.2742 80.2926 93.6864 79.5221 93.0733 78.7723C93.0426 78.7352 93.0967 78.6832 93.1278 78.721C93.755 79.4795 94.3918 80.2286 95.0122 80.9927C95.3168 81.3678 95.6193 81.7448 95.92 82.1233C96.1757 82.4449 96.5308 82.8178 96.6543 83.221C96.6609 83.2442 96.6331 83.2617 96.6152 83.2502Z" fill="#263238"/>
<path d="M72.6126 49.0456L61.6825 53.2546C61.6825 53.2546 57.7884 46.7668 56.5094 42.2893C55.5336 38.8728 57.3332 38.0575 59.3725 39.1623C66.1717 42.8462 72.6126 49.0456 72.6126 49.0456Z" fill="#FFC727"/>
<path d="M61.3957 51.29C63.0339 50.5199 67.5366 48.562 70.6248 47.6813C70.6434 47.676 70.6712 47.746 70.6536 47.7538C68.1924 48.8833 63.134 50.772 61.437 51.394C61.4052 51.4056 61.365 51.3046 61.3957 51.29Z" fill="#263238"/>
<path d="M61.5725 53.3156C61.0742 52.4853 60.6449 51.6015 60.2058 50.7365C60.0344 50.5199 59.8627 50.3038 59.7038 50.0775C59.5032 49.7917 59.3078 49.4753 59.1664 49.1541C59.1595 49.1384 59.1796 49.1256 59.1894 49.1406C59.2859 49.2831 59.3703 49.4346 59.4645 49.5789C59.5588 49.7233 59.6581 49.8643 59.7539 50.0079C59.8525 50.1556 59.9541 50.3008 60.06 50.4425C59.6318 49.5932 59.2256 48.7315 58.8573 47.8533C58.8467 47.8286 58.8789 47.8077 58.8935 47.8316C59.4225 48.6955 59.9146 49.5842 60.3786 50.487C60.8305 51.3663 61.3058 52.2482 61.7011 53.1566C61.8571 53.1088 62.0109 53.059 62.1705 53.0231C62.2115 53.0141 62.2389 53.0717 62.1998 53.0942C62.0361 53.1892 61.868 53.267 61.6982 53.3496C61.6525 53.3717 61.6002 53.3619 61.5725 53.3156Z" fill="#263238"/>
<path d="M51.9484 43.0048C53.2943 43.2262 56.3682 41.0184 57.1738 39.0119C57.2282 38.8739 56.4497 34.4432 56.3364 33.4046C56.3142 33.1914 50.1448 35.7129 50.1448 35.7129C50.1448 35.7129 51.0073 37.8193 51.1936 39.6313C51.2075 39.7828 51.2083 39.9253 51.1962 40.0625C51.1962 40.0823 51.1933 40.1066 51.1947 40.1343C51.1538 40.9586 50.5083 42.7676 51.9484 43.0048Z" fill="#D3766A"/>
<path d="M56.4004 33.8908C55.6887 36.1123 54.1894 39.0082 51.1641 39.3852C50.9281 37.6368 50.1462 35.7118 50.1462 35.7118C50.1462 35.7118 56.3149 33.1899 56.3372 33.405C56.3492 33.525 56.3723 33.6914 56.4004 33.8908Z" fill="#263238"/>
<path d="M58.4628 26.4556C58.6885 28.8747 56.2043 35.2095 54.3297 36.3464C51.6124 37.9947 47.8162 37.4146 46.6128 34.2236C45.4463 31.1303 48.8264 22.9337 50.8594 21.9691C53.8537 20.5487 58.1292 22.8824 58.4628 26.4556Z" fill="#D3766A"/>
<path d="M51.4001 28.9274C51.4092 28.9121 51.426 28.9599 51.4195 28.9775C51.2565 29.4061 51.14 29.9252 51.4735 30.2076C51.4838 30.2162 51.475 30.2379 51.4615 30.2308C51.0176 29.9941 51.1787 29.3066 51.4001 28.9274Z" fill="#263238"/>
<path d="M51.9349 28.6114C52.6341 28.8051 52.2045 30.2226 51.5567 30.043C50.9189 29.8669 51.3485 28.4494 51.9349 28.6114Z" fill="#263238"/>
<path d="M48.8953 28.2104C48.8972 28.1925 48.8555 28.2205 48.8508 28.2385C48.7313 28.6821 48.5216 29.169 48.0894 29.1918C48.0759 29.1926 48.0704 29.215 48.0854 29.2173C48.5797 29.2999 48.8515 28.6503 48.8953 28.2104Z" fill="#263238"/>
<path d="M48.6513 27.6304C47.9776 27.3577 47.4947 28.7572 48.1187 29.0097C48.7328 29.2584 49.2161 27.8589 48.6513 27.6304Z" fill="#263238"/>
<path d="M52.6778 28.1368C52.5039 28.0283 52.361 27.8985 52.1999 27.7732C52.018 27.6315 51.8591 27.538 51.7816 27.3072C51.7403 27.1834 51.8251 27.0118 51.9387 26.9594C52.2036 26.8371 52.4681 26.9538 52.6938 27.115C52.9386 27.29 53.0837 27.489 53.1655 27.7826C53.2448 28.0672 52.9068 28.28 52.6778 28.1368Z" fill="#263238"/>
<path d="M48.3319 26.7466C48.5336 26.7754 48.7243 26.7676 48.9263 26.775C49.1547 26.7833 49.3355 26.8143 49.5383 26.6856C49.6471 26.6168 49.6877 26.4291 49.6322 26.3146C49.5032 26.0484 49.2263 25.9668 48.9516 25.9455C48.6538 25.9219 48.4185 25.9818 48.1734 26.1561C47.9367 26.3247 48.066 26.7085 48.3319 26.7466Z" fill="#263238"/>
<path d="M50.5621 33.1289C50.4284 33.1992 50.283 33.3081 50.123 33.2718C49.9699 33.2374 49.8157 33.1128 49.6955 33.0149C49.6835 33.0055 49.6652 33.0156 49.67 33.0317C49.7302 33.2355 49.9326 33.4154 50.1423 33.4431C50.3473 33.47 50.4952 33.3286 50.5975 33.1618C50.6114 33.1386 50.5815 33.1188 50.5621 33.1289Z" fill="#263238"/>
<path d="M50.5094 31.6711C50.1536 31.9759 49.7379 32.0724 49.3331 32.0267C49.1519 32.0077 48.971 31.9568 48.8004 31.8846C48.7661 31.8727 48.7328 31.8581 48.7036 31.8409C48.6733 31.827 48.6462 31.8143 48.6141 31.7964C48.5662 31.7728 48.5516 31.7219 48.5578 31.6707L48.5589 31.6673C48.5641 31.6512 48.5681 31.6385 48.5765 31.6236C48.5765 31.6236 48.5765 31.6236 48.5776 31.6202L48.59 31.5821C48.6835 31.241 48.8713 30.7372 48.8713 30.7372C48.7317 30.7608 48.0307 30.8486 48.0939 30.6751C48.6221 29.2401 49.21 27.6438 50.0316 26.33C50.0564 26.2851 50.1251 26.3191 50.1065 26.3663C49.652 27.7661 48.9601 29.0748 48.4815 30.4735C48.701 30.4597 49.0642 30.42 49.2359 30.4784C49.2786 30.5072 48.8559 31.4459 48.826 31.6023C48.826 31.6023 48.8238 31.6086 48.8238 31.6195C49.3565 31.8682 49.827 31.8296 50.4809 31.6191C50.5208 31.6041 50.5456 31.6445 50.5094 31.6711Z" fill="#263238"/>
<path d="M56.9598 32.0671C55.9647 32.032 55.7002 31.0671 55.6461 30.4069C55.592 29.7472 56.8893 26.2499 56.7143 25.2304C56.5393 24.2109 55.7374 23.4173 54.914 23.4019C54.0909 23.3866 52.8045 24.0856 52.2649 23.8537C51.7253 23.6218 51.9719 22.3472 51.5847 22.222C50.7331 21.9463 49.1709 23.8066 48.7227 24.7128C48.7227 24.7128 49.96 20.6115 54.1541 21.5555C58.2454 22.4767 58.6641 25.6874 58.6323 27.0271C58.572 29.5939 56.9598 32.0671 56.9598 32.0671Z" fill="#263238"/>
<path d="M55.6843 31.3087C55.6843 31.3087 57.5965 29.5228 58.4196 30.2671C59.2427 31.0113 57.4803 33.832 56.2857 33.9985C55.091 34.1649 54.9189 33.0358 54.9189 33.0358L55.6843 31.3087Z" fill="#D3766A"/>
<path d="M57.895 31.0629C57.9129 31.0656 57.9111 31.0914 57.8943 31.0944C57.0511 31.2372 56.483 31.8771 56.0311 32.5724C56.3252 32.3323 56.6733 32.244 56.9952 32.6124C57.012 32.6319 56.9857 32.6596 56.9649 32.6498C56.6635 32.5077 56.4227 32.5111 56.152 32.7216C55.9602 32.8705 55.8057 33.0792 55.6504 33.2666C55.5985 33.329 55.482 33.2624 55.5266 33.1869C55.5298 33.1813 55.5335 33.1757 55.5368 33.1701C55.7384 32.1569 56.8144 30.9212 57.895 31.0629Z" fill="#263238"/>
</svg>
