<svg width="330" height="322" viewBox="0 0 330 322" fill="none" xmlns="http://www.w3.org/2000/svg">
<path d="M54.5114 160.713L45.8489 160.893L41.4527 160.965C39.9835 160.995 38.5071 160.989 37.034 161.001L36.7409 161.003L36.7396 160.713L36.704 153.507L36.7026 153.184L37.034 153.185L45.7724 153.226C48.6849 153.229 51.5982 153.298 54.5108 153.331L54.6929 153.333L54.6909 153.507C54.6784 154.73 54.6342 155.946 54.6045 157.148L54.5114 160.713ZM54.5114 160.713L54.4177 157.072C54.388 155.872 54.3438 154.686 54.3312 153.507L54.5114 153.683C51.5988 153.716 48.6856 153.785 45.773 153.788L37.0346 153.829L37.364 153.508L37.3283 160.714L37.0346 160.427C38.4747 160.438 39.9109 160.432 41.355 160.462L45.6971 160.534L54.5114 160.713Z" fill="#EBEBEB"/>
<path d="M44.7624 169.8L36.0999 169.98L31.7036 170.052C30.2345 170.082 28.7581 170.076 27.2849 170.087L26.9919 170.09L26.9906 169.801L26.9549 162.595L26.9536 162.271L27.2849 162.273L36.0233 162.313C38.9359 162.316 41.8492 162.386 44.7617 162.419L44.9439 162.421L44.9419 162.595C44.9294 163.818 44.8852 165.033 44.8555 166.236L44.7624 169.8ZM44.7624 169.8L44.6687 166.159C44.639 164.959 44.5948 163.773 44.5822 162.594L44.7624 162.77C41.8498 162.803 38.9366 162.872 36.024 162.875L27.2856 162.916L27.6149 162.595L27.5793 169.801L27.2849 169.514C28.7251 169.525 30.1612 169.519 31.6053 169.549L35.9474 169.621L44.7624 169.8Z" fill="#EBEBEB"/>
<path d="M302.715 169.8L294.053 169.98L289.656 170.052C288.187 170.082 286.711 170.076 285.238 170.087L284.945 170.09L284.943 169.801L284.908 162.595L284.906 162.271L285.238 162.273L293.976 162.313C296.889 162.316 299.802 162.386 302.714 162.419L302.897 162.421L302.895 162.595C302.882 163.818 302.838 165.033 302.808 166.236L302.715 169.8ZM302.715 169.8L302.621 166.159C302.592 164.959 302.547 163.773 302.535 162.594L302.715 162.77C299.802 162.803 296.889 162.872 293.977 162.875L285.238 162.916L285.568 162.595L285.532 169.801L285.238 169.514C286.678 169.525 288.115 169.519 289.559 169.549L293.901 169.621L302.715 169.8Z" fill="#EBEBEB"/>
<path d="M292.966 41.9888L284.303 42.1685L279.907 42.2406C278.438 42.2709 276.961 42.2644 275.488 42.276L275.195 42.2786L275.194 41.9895L275.158 34.7831L275.157 34.4598L275.488 34.4611L284.226 34.5017C287.139 34.5049 290.052 34.5738 292.965 34.6073L293.147 34.6092L293.145 34.7831C293.133 36.0061 293.088 37.2219 293.059 38.4243L292.966 41.9888ZM292.966 41.9888L292.872 38.3476C292.842 37.1479 292.798 35.9616 292.785 34.7825L292.966 34.9583C290.053 34.9911 287.14 35.0607 284.227 35.0639L275.489 35.1045L275.818 34.7831L275.782 41.9895L275.488 41.7022C276.928 41.7138 278.364 41.7074 279.808 41.7377L284.151 41.8098L292.966 41.9888Z" fill="#EBEBEB"/>
<path d="M302.715 51.0757L294.053 51.2553L289.656 51.3275C288.187 51.3577 286.711 51.3513 285.238 51.3629L284.945 51.3648L284.943 51.0757L284.908 43.8693L284.906 43.546L285.238 43.5473L293.976 43.5879C296.889 43.5911 299.802 43.6607 302.714 43.6935L302.897 43.6954L302.895 43.8693C302.882 45.0923 302.838 46.3081 302.808 47.5105L302.715 51.0757ZM302.715 51.0757L302.621 47.4345C302.592 46.2347 302.547 45.0485 302.535 43.8693L302.715 44.0451C299.802 44.078 296.889 44.1475 293.977 44.1507L285.238 44.1913L285.568 43.87L285.532 51.0763L285.238 50.7891C286.678 50.8007 288.115 50.7942 289.559 50.8245L293.901 50.8966L302.715 51.0757Z" fill="#EBEBEB"/>
<path d="M54.5112 41.9888L45.8487 42.1685L41.4525 42.2406C39.9833 42.2709 38.5069 42.2645 37.0338 42.276L36.7407 42.2786L36.7401 41.9888L36.7044 34.7825L36.7031 34.4592L37.0344 34.4605L45.7728 34.501C48.6854 34.5042 51.5987 34.5732 54.5112 34.6066L54.6934 34.6086L54.6914 34.7825C54.6789 36.0054 54.6347 37.2213 54.605 38.4236L54.5112 41.9888ZM54.5112 41.9888L54.4175 38.3476C54.3878 37.1479 54.3436 35.9616 54.3311 34.7825L54.5112 34.9583C51.5987 34.9911 48.6854 35.0607 45.7728 35.0639L37.0344 35.1045L37.3638 34.7831L37.3281 41.9888L37.0344 41.7016C38.4746 41.7132 39.9107 41.7067 41.3548 41.737L45.6969 41.8091L54.5112 41.9888Z" fill="#EBEBEB"/>
<path d="M49.5045 99.1148L123.477 87.7025L115.6 39.436L41.6274 50.8483L49.5045 99.1148Z" fill="#EBEBEB"/>
<path d="M52.0878 95.6346L119.919 85.1703L113.017 42.9161L45.1855 53.3811L52.0878 95.6346Z" fill="#DBDBDB"/>
<path d="M53.4863 65.6056C54.1304 69.5829 57.9571 72.2967 62.0333 71.6682C66.1094 71.039 68.8913 67.3051 68.2472 63.3277C67.603 59.3504 63.7757 56.6366 59.6995 57.2651C55.6233 57.8943 52.8421 61.6282 53.4863 65.6056Z" fill="#C7C7C7"/>
<path d="M73.1602 92.4513L119.885 85.2431L91.5161 57.9478L73.1602 92.4513Z" fill="#A6A6A6"/>
<path d="M54.8467 95.292L93.423 89.3402L70.8748 72.1949L54.8467 95.292Z" fill="#C7C7C7"/>
<path d="M96.2998 97.9009L157.405 103.056L160.893 63.1745L99.7879 58.0199L96.2998 97.9009Z" fill="#EBEBEB"/>
<path d="M99.0562 95.6314L155.089 100.358L158.137 65.4439L102.105 60.717L99.0562 95.6314Z" fill="white"/>
<path d="M106.234 72.0308C105.942 75.3158 108.436 78.2093 111.803 78.494C115.17 78.778 118.135 76.3449 118.426 73.0592C118.717 69.7742 116.224 66.8801 112.857 66.5961C109.49 66.3121 106.525 68.7451 106.234 72.0308Z" fill="#DBDBDB"/>
<path d="M116.449 97.1538L155.046 100.41L138.009 73.2576L116.449 97.1538Z" fill="#EBEBEB"/>
<path d="M101.318 95.8897L133.184 98.5777L118.724 80.6127L101.318 95.8897Z" fill="#DBDBDB"/>
<path d="M278.737 58.7083V0" stroke="#C7C7C7" stroke-miterlimit="10"/>
<path d="M257.845 78.3594L259.525 81.9638H297.954L299.629 78.3594L283.269 67.3096H274.205L257.845 78.3594Z" fill="#EBEBEB"/>
<path d="M273.07 56.6636L274.206 67.3096H283.269L284.405 56.6636H273.07Z" fill="#DBDBDB"/>
<path d="M257.847 78.3607L259.527 81.9651H297.956L299.631 78.3607H257.847Z" fill="#DBDBDB"/>
<path d="M233.877 47.0796V0" stroke="#C7C7C7" stroke-miterlimit="10"/>
<path d="M212.985 66.7306L214.666 70.3351H253.095L254.77 66.7306L238.409 55.6809H229.346L212.985 66.7306Z" fill="#EBEBEB"/>
<path d="M228.21 45.0349L229.346 55.6809H238.409L239.545 45.0349H228.21Z" fill="#DBDBDB"/>
<path d="M212.987 66.7319L214.668 70.3364H253.096L254.772 66.7319H212.987Z" fill="#DBDBDB"/>
<path d="M165 290.428C238.996 290.428 298.981 284.886 298.981 278.049C298.981 271.212 238.996 265.67 165 265.67C91.0047 265.67 31.0195 271.212 31.0195 278.049C31.0195 284.886 91.0047 290.428 165 290.428Z" fill="#EBEBEB"/>
<path d="M288.205 215.059C288.205 215.059 292.999 198.264 296.829 192.561C300.659 186.857 307.797 180.592 307.797 180.592C307.797 180.592 307.629 206.485 288.205 215.059Z" fill="#FFC727"/>
<path d="M288.548 214.771C290.19 212.165 291.586 209.417 292.919 206.635C293.509 203.654 294.226 200.654 295.3 197.803C295.321 197.749 295.398 197.779 295.385 197.833C294.748 200.487 294.008 203.116 293.336 205.761C295.272 201.674 297.111 197.535 299.417 193.671C299.883 191.798 300.765 189.997 301.64 188.297C301.665 188.248 301.749 188.274 301.724 188.326C301.109 189.642 300.667 190.997 300.228 192.358C301.319 190.648 302.513 188.999 303.871 187.447C303.955 187.351 304.124 187.457 304.04 187.561C300.958 191.399 298.83 195.766 296.804 200.188C298.993 197.903 300.986 195.404 302.821 192.85C302.84 192.823 302.881 192.851 302.863 192.878C300.969 195.817 298.788 198.452 296.42 201.028C294.944 204.268 293.493 207.521 291.733 210.603C295.249 207.703 297.954 203.951 300.631 200.33C300.691 200.249 300.82 200.335 300.763 200.419C298.085 204.391 295.313 208.132 291.46 211.075C290.672 212.422 289.829 213.738 288.886 214.999C288.73 215.207 288.409 214.991 288.548 214.771Z" fill="#263238"/>
<path d="M286.717 216.571C286.717 216.571 295.337 201.086 292.833 186.072C290.329 171.058 287.648 165.712 287.648 165.712C287.648 165.712 274.099 189.064 286.717 216.571Z" fill="#FFC727"/>
<path d="M283.18 192.226C283.867 196.562 285.074 200.621 286.507 204.73C286.531 199.22 286.639 193.71 286.789 188.201C285.796 184.852 285.298 181.423 285.162 177.94C285.158 177.838 285.314 177.844 285.323 177.942C285.578 180.94 286.117 183.864 286.833 186.772C286.963 182.227 287.118 177.682 287.287 173.139C287.29 173.062 287.409 173.064 287.409 173.141C287.402 180.24 287.406 187.342 287.36 194.442C288.473 191.707 289.17 188.892 289.845 186.007C289.852 185.979 289.898 185.986 289.895 186.014C289.636 189.33 288.603 192.536 287.351 195.613C287.318 200.152 287.268 204.69 287.164 209.228C288.622 204.403 290.18 199.73 290.601 194.632C290.607 194.564 290.711 194.565 290.71 194.634C290.596 200.256 289.111 205.964 287.21 211.251C287.189 211.311 287.153 211.351 287.114 211.385C287.07 213.043 287.023 214.702 286.965 216.36C286.957 216.598 286.592 216.591 286.587 216.354C286.52 212.961 286.497 209.567 286.502 206.173C284.566 201.812 283.535 196.948 283.104 192.235C283.1 192.193 283.173 192.184 283.18 192.226Z" fill="#263238"/>
<path d="M283.77 189.832C284.043 191.162 284.3 192.568 284.372 193.923C284.375 193.97 284.302 193.976 284.291 193.933C283.934 192.619 283.739 191.204 283.582 189.854C283.569 189.748 283.749 189.729 283.77 189.832Z" fill="#263238"/>
<path d="M288.81 178.512C288.818 178.466 288.891 178.481 288.892 178.525C288.904 179.455 288.711 180.452 288.46 181.346C288.438 181.421 288.328 181.386 288.343 181.312C288.53 180.381 288.646 179.445 288.81 178.512Z" fill="#263238"/>
<path d="M283.574 217.757C283.574 217.757 283.926 201.593 279.174 193.557C274.421 185.522 266.539 181.429 266.539 181.429C266.539 181.429 269.717 209.923 283.574 217.757Z" fill="#FFC727"/>
<path d="M274.914 203.932C276.911 206.739 278.896 209.444 281.345 211.887C280.396 208.581 279.295 205.334 278.055 202.138C275.391 199.858 272.749 197.496 271.114 194.377C271.088 194.327 271.161 194.285 271.192 194.333C272.949 197.095 275.3 199.306 277.772 201.432C275.874 196.63 273.666 191.946 271.157 187.374C271.093 187.258 271.266 187.159 271.338 187.271C272.86 189.653 274.241 192.119 275.487 194.648C275.041 192.921 274.685 191.153 274.229 189.438C274.216 189.39 274.286 189.373 274.304 189.418C275.147 191.578 275.985 193.966 276.255 196.274C277.918 199.857 279.318 203.557 280.439 207.336C280.317 204.913 280.161 202.5 279.905 200.084C279.901 200.039 279.979 200.028 279.988 200.073C280.503 202.756 280.773 205.486 280.708 208.216C281.393 210.624 281.97 213.062 282.432 215.518C282.444 215.584 282.344 215.613 282.327 215.546C282.07 214.516 281.79 213.496 281.503 212.477C281.485 212.469 281.466 212.472 281.449 212.456C278.899 209.965 276.479 207.124 274.887 203.948C274.879 203.93 274.902 203.917 274.914 203.932Z" fill="#263238"/>
<path d="M269.407 190.78C269.937 191.338 270.422 191.925 270.934 192.499C271.386 193.007 271.938 193.487 272.302 194.058C272.316 194.08 272.288 194.109 272.265 194.095C271.652 193.715 271.161 193.101 270.685 192.573C270.183 192.016 269.732 191.465 269.332 190.837C269.303 190.792 269.37 190.741 269.407 190.78Z" fill="#263238"/>
<path d="M297.693 215.783L297.094 223.44L295.288 246.586H279.546L277.74 223.44L277.142 215.783C277.81 215.783 287.415 215.783 287.415 215.783C287.415 215.783 297.024 215.783 297.693 215.783Z" fill="#455A64"/>
<path d="M297.693 215.783L297.094 223.44H277.74L277.142 215.783C277.81 215.783 287.415 215.783 287.415 215.783C287.415 215.783 297.024 215.783 297.693 215.783Z" fill="#37474F"/>
<path d="M275.742 217.897H299.091V212.027H275.742V217.897Z" fill="#455A64"/>
<path d="M24.0693 246.564L59.3015 246.408L94.5342 246.351L165 246.243L235.465 246.35L270.697 246.407L305.93 246.564L270.697 246.722L235.465 246.778L165 246.886L94.5342 246.778L59.3015 246.721L24.0693 246.564Z" fill="#263238"/>
<path d="M51.2311 277.561H200.95L184.558 176.576H34.8394L51.2311 277.561Z" fill="#FFC727"/>
<path d="M129.961 166.118H182.861L184.559 176.576H128.62L129.961 166.118Z" fill="#FFC727"/>
<g opacity="0.1">
<path d="M51.2311 277.561H200.95L184.558 176.576H34.8394L51.2311 277.561Z" fill="black"/>
<path d="M129.961 166.118H182.861L184.559 176.576H128.62L129.961 166.118Z" fill="black"/>
</g>
<path d="M55.6096 105.716C55.3502 104.848 55.2928 103.98 55.2822 103.113C55.2928 102.245 55.3522 101.378 55.6149 100.51C55.8756 101.378 55.933 102.246 55.9422 103.113C55.9297 103.981 55.8703 104.848 55.6096 105.716Z" fill="#263238"/>
<path d="M50.1787 107.243C49.5095 106.618 49.0151 105.895 48.5624 105.148C48.1268 104.392 47.7341 103.612 47.5176 102.733C48.1881 103.357 48.6825 104.081 49.1346 104.828C49.5675 105.584 49.9602 106.365 50.1787 107.243Z" fill="#263238"/>
<path d="M46.257 111.217C45.3574 111.002 44.5588 110.617 43.784 110.192C43.0197 109.749 42.2798 109.265 41.6416 108.609C42.5418 108.823 43.3404 109.208 44.1146 109.635C44.8782 110.079 45.6181 110.563 46.257 111.217Z" fill="#263238"/>
<path d="M44.8966 116.572C44.0076 116.825 43.1186 116.881 42.2302 116.891C41.3412 116.881 40.4528 116.823 39.5645 116.567C40.4535 116.312 41.3425 116.256 42.2309 116.247C43.1192 116.259 44.0082 116.317 44.8966 116.572Z" fill="#263238"/>
<path d="M46.4615 121.874C45.8213 122.527 45.0801 123.009 44.3158 123.452C43.541 123.877 42.7417 124.26 41.8408 124.472C42.4804 123.817 43.2215 123.335 43.9865 122.894C44.762 122.47 45.5612 122.087 46.4615 121.874Z" fill="#263238"/>
<path d="M50.5319 125.702C50.3121 126.579 49.9174 127.359 49.4818 128.115C49.0284 128.862 48.5327 129.584 47.8608 130.207C48.0793 129.328 48.474 128.549 48.9109 127.793C49.3656 127.048 49.862 126.325 50.5319 125.702Z" fill="#263238"/>
<path d="M56.0177 127.03C56.2771 127.898 56.3345 128.765 56.3451 129.633C56.3345 130.5 56.2751 131.368 56.0124 132.235C55.7517 131.367 55.6943 130.5 55.6851 129.632C55.6976 128.765 55.757 127.897 56.0177 127.03Z" fill="#263238"/>
<path d="M61.4492 125.502C62.1185 126.127 62.6128 126.851 63.0656 127.597C63.5005 128.354 63.8939 129.134 64.1103 130.013C63.4398 129.389 62.9454 128.665 62.4933 127.918C62.0597 127.161 61.667 126.38 61.4492 125.502Z" fill="#263238"/>
<path d="M65.3706 121.529C66.2702 121.743 67.0688 122.129 67.8436 122.554C68.6079 122.996 69.3478 123.481 69.986 124.136C69.0857 123.922 68.2871 123.537 67.513 123.111C66.7493 122.667 66.0095 122.183 65.3706 121.529Z" fill="#263238"/>
<path d="M66.731 116.174C67.62 115.921 68.509 115.865 69.3974 115.854C70.2864 115.865 71.1747 115.923 72.0631 116.179C71.1741 116.433 70.2851 116.489 69.3967 116.498C68.5083 116.486 67.6193 116.428 66.731 116.174Z" fill="#263238"/>
<path d="M65.166 110.872C65.8062 110.219 66.5474 109.736 67.3117 109.294C68.0865 108.869 68.8858 108.486 69.7867 108.274C69.1471 108.928 68.406 109.41 67.641 109.852C66.8655 110.275 66.0663 110.659 65.166 110.872Z" fill="#263238"/>
<path d="M61.0957 107.044C61.3155 106.166 61.7102 105.387 62.1458 104.631C62.5992 103.884 63.0948 103.162 63.7667 102.539C63.5483 103.418 63.1536 104.197 62.7167 104.953C62.2619 105.698 61.7663 106.42 61.0957 107.044Z" fill="#263238"/>
<path d="M65.8989 184.322L170.835 169.72L160.749 101.25L55.8135 115.852L65.8989 184.322Z" fill="#EBEBEB"/>
<path d="M69.6312 179.452L165.855 166.062L157.016 106.121L60.7925 119.51L69.6312 179.452Z" fill="#FFC727"/>
<path opacity="0.1" d="M72.4462 134.505C73.2033 139.687 78.1229 143.289 83.4339 142.55C88.7449 141.811 92.4363 137.01 91.6793 131.829C90.9216 126.646 86.0026 123.045 80.691 123.783C75.3806 124.522 71.6886 129.322 72.4462 134.505Z" fill="black"/>
<path opacity="0.2" d="M99.5225 175.388L165.805 166.165L126.258 126.943L99.5225 175.388Z" fill="black"/>
<path d="M73.543 179.024L128.266 171.409L96.7334 146.673L73.543 179.024Z" fill="#FFC727"/>
<path opacity="0.1" d="M73.543 179.024L128.266 171.409L96.7334 146.673L73.543 179.024Z" fill="black"/>
<path d="M96.3813 184.626L200.614 209.562L217.63 141.521L113.397 116.585L96.3813 184.626Z" fill="#EBEBEB"/>
<path d="M101.772 181.425L197.352 204.292L212.239 144.722L116.659 121.856L101.772 181.425Z" fill="white"/>
<path d="M120.683 142.5C119.274 148.105 122.789 153.761 128.532 155.136C134.276 156.509 140.073 153.08 141.482 147.476C142.89 141.872 139.376 136.215 133.632 134.841C127.888 133.466 122.09 136.896 120.683 142.5Z" fill="#DBDBDB"/>
<path d="M131.427 188.618L197.265 204.368L175.286 152.955L131.427 188.618Z" fill="#DBDBDB"/>
<path d="M105.613 182.465L159.97 195.468L139.916 160.614L105.613 182.465Z" fill="#EBEBEB"/>
<path d="M46.112 218.526L142.67 218.332L142.466 155.319L45.9087 155.512L46.112 218.526Z" fill="#EBEBEB"/>
<path d="M50.1116 214.594L138.654 214.416L138.466 159.251L49.9248 159.428L50.1116 214.594Z" fill="#455A64"/>
<path d="M58.0098 176.611C58.0203 181.802 62.3427 186.002 67.6629 185.991C72.9839 185.98 77.2877 181.763 77.2772 176.571C77.2659 171.38 72.9443 167.18 67.6233 167.19C62.3031 167.201 57.9986 171.419 58.0098 176.611Z" fill="#37474F"/>
<path d="M77.604 214.625L138.595 214.502L108.015 174.23L77.604 214.625Z" fill="#263238"/>
<path d="M53.6958 214.692L104.05 214.59L78.818 188.376L53.6958 214.692Z" fill="#37474F"/>
<path d="M125.911 253.361L220.091 262.245L226.111 200.776L131.931 191.892L125.911 253.361Z" fill="#EBEBEB"/>
<path d="M130.199 249.902L216.561 258.05L221.823 204.235L135.461 196.088L130.199 249.902Z" fill="white"/>
<path d="M141.649 213.604C141.147 218.668 144.947 223.169 150.137 223.659C155.326 224.148 159.94 220.44 160.442 215.376C160.943 210.312 157.143 205.811 151.954 205.321C146.765 204.831 142.151 208.539 141.649 213.604Z" fill="#DBDBDB"/>
<path d="M157.006 252.516L216.495 258.127L190.648 215.982L157.006 252.516Z" fill="#DBDBDB"/>
<path d="M133.685 250.334L182.799 254.968L160.78 227.033L133.685 250.334Z" fill="#EBEBEB"/>
<path d="M51.1597 277.561H200.879L212.426 184.955H62.707L51.1597 277.561Z" fill="#FFC727"/>
<path d="M160.722 175.364H213.622L212.426 184.955H156.486L160.722 175.364Z" fill="#FFC727"/>
<path d="M269.469 266.513C271.753 265.31 274.844 264.744 277.255 265.852C277.349 265.895 277.284 266.024 277.197 266.024C274.558 266.038 272.164 266.264 269.576 266.809C269.394 266.847 269.305 266.599 269.469 266.513Z" fill="#263238"/>
<path d="M268.054 268.093C270.338 266.89 273.429 266.324 275.84 267.432C275.934 267.475 275.87 267.604 275.783 267.605C273.144 267.617 270.75 267.845 268.162 268.39C267.98 268.428 267.891 268.179 268.054 268.093Z" fill="#263238"/>
<path d="M266.639 269.672C268.923 268.469 272.014 267.904 274.426 269.012C274.519 269.055 274.455 269.184 274.368 269.184C271.729 269.197 269.335 269.425 266.747 269.969C266.565 270.007 266.475 269.759 266.639 269.672Z" fill="#263238"/>
<path d="M265.225 271.253C267.508 270.05 270.6 269.484 273.011 270.592C273.104 270.635 273.04 270.764 272.953 270.765C270.314 270.778 267.92 271.005 265.332 271.55C265.15 271.588 265.061 271.338 265.225 271.253Z" fill="#263238"/>
<path d="M265.378 265.47C267.525 266.237 269.937 266.069 272.181 266.166C272.414 266.176 272.517 265.933 272.464 265.75C272.502 265.731 272.526 265.691 272.493 265.647C271.181 263.875 269.052 262.221 266.967 261.389C265.68 260.875 263.712 260.853 263.179 262.435C262.675 263.931 264.125 265.023 265.378 265.47ZM264.133 263.757C262.849 261.289 266.16 261.76 267.093 262.176C267.693 262.443 268.271 262.786 268.827 263.13C269.992 263.851 271.03 264.72 272.111 265.548C271.011 265.435 269.911 265.414 268.809 265.34C267.495 265.252 264.84 265.117 264.133 263.757Z" fill="#263238"/>
<path d="M279.417 259.497C278.344 258.202 276.511 258.903 275.494 259.829C273.848 261.329 272.459 263.612 271.876 265.724C271.862 265.776 271.899 265.805 271.941 265.81C271.959 265.999 272.143 266.19 272.357 266.101C274.421 265.233 276.736 264.555 278.464 263.095C279.474 262.244 280.432 260.721 279.417 259.497ZM275.209 264.162C274.205 264.613 273.184 265.012 272.198 265.499C272.907 264.351 273.561 263.18 274.388 262.102C274.783 261.587 275.198 261.067 275.662 260.609C276.383 259.897 279.308 258.311 279.005 261.062C278.839 262.579 276.406 263.624 275.209 264.162Z" fill="#263238"/>
<path d="M295.066 263.122C295.218 263.985 295.358 264.826 295.493 265.639C296.365 270.876 296.883 274.917 296.482 275.287C295.247 276.434 258.199 283.688 256.816 283.523C255.438 283.352 255.836 279.497 257.043 278.097C257.779 277.248 262.838 273.598 266.694 270.872C266.704 270.864 266.708 270.857 266.708 270.857C269.189 269.108 271.167 267.732 271.167 267.732L263.734 244.292L288.629 239.51C288.629 239.51 294.827 261.737 295.066 263.122Z" fill="#AD6359"/>
<path d="M256.814 283.524C258.2 283.685 295.246 276.433 296.48 275.287C296.883 274.913 296.368 270.875 295.49 265.64C295.358 264.828 295.22 263.985 295.068 263.122C294.982 262.639 294.164 259.605 293.147 255.87C289.544 256.572 275.057 259.412 268.912 260.617L271.169 267.733C271.169 267.733 269.189 269.104 266.708 270.856C266.708 270.856 266.701 270.863 266.695 270.869C262.84 273.6 257.778 277.245 257.045 278.095C255.838 279.499 255.435 283.35 256.814 283.524Z" fill="#EBEBEB"/>
<path d="M256.507 283.756C257.423 283.862 273.491 280.745 285.133 278.198C287.826 277.607 290.285 277.045 292.264 276.566C294.989 275.899 296.804 275.387 297.066 275.142C297.516 274.715 294.678 259.897 294.182 258.18L269.551 263.153L270.998 267.596C270.998 267.596 257.949 276.764 256.711 278.203C255.484 279.64 255.096 283.584 256.507 283.756Z" fill="#FFC727"/>
<path d="M257.09 282.1C263.408 280.674 289.03 275.504 295.387 274.562C295.439 274.555 295.446 274.589 295.395 274.602C289.164 276.149 263.499 281.116 257.111 282.201C256.976 282.224 256.956 282.13 257.09 282.1Z" fill="#263238"/>
<path d="M263.753 257.47C263.487 257.345 256.269 227.113 252.976 214.78C248.226 196.99 243.625 167.992 242.241 161.952C242.241 161.952 237.799 151.67 236.485 140.283C236.482 140.263 266.433 140.279 266.433 140.279C266.433 140.279 274.288 154.941 270.239 165.3C269.867 166.25 275.468 202.871 278.364 208.8C280.868 213.926 292.285 251.482 292.285 251.482L263.753 257.47Z" fill="#263238"/>
<path d="M263.913 251.272C264.648 251.014 265.43 250.882 266.185 250.692C266.983 250.492 267.78 250.296 268.584 250.118C270.189 249.764 271.797 249.426 273.405 249.086C276.62 248.408 279.845 247.769 283.069 247.132C283.951 246.957 284.833 246.789 285.717 246.624C286.59 246.461 287.508 246.233 288.4 246.227C288.448 246.226 288.46 246.298 288.418 246.317C287.712 246.62 286.918 246.758 286.172 246.937C285.373 247.13 284.571 247.311 283.768 247.487C282.188 247.834 280.609 248.189 279.027 248.525C275.838 249.204 272.65 249.897 269.451 250.526C268.544 250.704 267.638 250.887 266.725 251.034C265.818 251.18 264.904 251.413 263.987 251.481C263.87 251.49 263.781 251.318 263.913 251.272Z" fill="#37474F"/>
<path d="M250.08 160.608C250.658 163.652 251.134 166.714 251.651 169.767C251.915 171.323 252.263 172.864 252.527 174.42C252.786 175.947 253.041 177.476 253.293 179.005C254.304 185.153 255.306 191.303 256.312 197.452C256.811 200.504 257.313 203.555 257.82 206.606C258.319 209.61 258.882 212.594 259.708 215.532C260.534 218.47 261.503 221.369 262.422 224.279C263.363 227.262 264.301 230.245 265.241 233.229C267.109 239.16 266.843 240.17 268.514 246.157C268.722 246.901 268.931 247.646 269.143 248.39C269.167 248.476 269.036 248.507 269.007 248.424C266.939 242.543 267.227 241.534 265.307 235.605C263.397 229.708 261.459 223.814 259.654 217.885C258.773 214.99 258.062 212.068 257.542 209.091C257.007 206.037 256.541 202.971 256.041 199.911C255.035 193.762 254.027 187.613 253.023 181.464C252.53 178.442 251.984 175.42 251.6 172.383C251.203 169.236 250.647 166.111 250.166 162.975C250.049 162.208 249.934 161.441 249.828 160.671C249.805 160.514 250.049 160.444 250.08 160.608Z" fill="#37474F"/>
<path d="M224.324 268.53C226.872 268.05 229.994 268.413 231.955 270.175C232.031 270.243 231.931 270.347 231.848 270.322C229.326 269.564 226.972 269.081 224.336 268.844C224.151 268.827 224.142 268.564 224.324 268.53Z" fill="#263238"/>
<path d="M222.49 269.624C225.038 269.144 228.16 269.507 230.121 271.268C230.197 271.337 230.097 271.441 230.014 271.416C227.492 270.657 225.138 270.174 222.502 269.938C222.316 269.922 222.307 269.658 222.49 269.624Z" fill="#263238"/>
<path d="M220.655 270.718C223.203 270.237 226.326 270.601 228.287 272.362C228.362 272.431 228.262 272.535 228.179 272.51C225.657 271.751 223.304 271.268 220.667 271.032C220.481 271.016 220.473 270.752 220.655 270.718Z" fill="#263238"/>
<path d="M218.82 271.812C221.368 271.331 224.491 271.695 226.452 273.457C226.528 273.525 226.427 273.629 226.344 273.604C223.822 272.845 221.469 272.362 218.832 272.126C218.646 272.109 218.638 271.846 218.82 271.812Z" fill="#263238"/>
<path d="M220.741 266.34C222.554 267.698 224.907 268.243 227.018 268.991C227.237 269.069 227.41 268.867 227.416 268.678C227.458 268.67 227.493 268.639 227.475 268.588C226.767 266.512 225.244 264.313 223.51 262.909C222.439 262.042 220.569 261.448 219.575 262.801C218.635 264.082 219.683 265.547 220.741 266.34ZM220.079 264.341C219.612 261.612 222.626 263.028 223.389 263.697C223.88 264.128 224.326 264.624 224.751 265.115C225.641 266.143 226.364 267.276 227.141 268.381C226.128 267.952 225.085 267.61 224.055 267.217C222.828 266.75 220.337 265.845 220.079 264.341Z" fill="#263238"/>
<path d="M235.969 264.743C235.342 263.194 233.379 263.328 232.125 263.914C230.093 264.864 228.067 266.637 226.863 268.482C226.834 268.527 226.86 268.565 226.898 268.583C226.857 268.769 226.975 269.005 227.207 268.982C229.441 268.757 231.859 268.787 233.956 267.899C235.181 267.381 236.562 266.208 235.969 264.743ZM230.523 267.965C229.427 268.101 228.331 268.185 227.24 268.361C228.269 267.473 229.253 266.546 230.373 265.759C230.907 265.384 231.464 265.009 232.046 264.708C232.953 264.24 236.229 263.581 235.096 266.118C234.472 267.515 231.83 267.801 230.523 267.965Z" fill="#263238"/>
<path d="M249.878 265.663C249.855 267.135 249.225 281.903 248.757 282.191C247.317 283.082 209.532 283.19 208.208 282.766C206.89 282.337 208.046 278.631 209.509 277.486C210.399 276.793 216.088 274.169 220.412 272.223C220.424 272.217 220.429 272.211 220.429 272.211C223.21 270.964 225.424 269.989 225.424 269.989L225.303 265.662L224.961 245.958H249.924C249.924 245.958 250.046 256.101 249.878 265.663Z" fill="#AD6359"/>
<path d="M208.205 282.764C209.532 283.189 247.317 283.079 248.756 282.191C249.224 281.901 249.858 267.134 249.878 265.665C249.891 264.687 249.911 263.708 249.917 262.729H225.246L225.299 265.665L225.425 269.987C225.425 269.987 223.207 270.966 220.428 272.215C220.428 272.215 220.422 272.215 220.409 272.221C216.086 274.166 210.396 276.794 209.505 277.489C208.047 278.629 206.892 282.339 208.205 282.764Z" fill="#EBEBEB"/>
<path d="M207.312 283.066C208.189 283.345 224.572 283.349 236.499 283.07C239.259 283.003 241.783 282.92 243.819 282.827C246.625 282.692 248.507 282.536 248.813 282.346C249.34 282.013 250.092 266.937 249.948 265.159L224.981 265.287L224.891 269.929C224.891 269.929 210.125 276.483 208.622 277.659C207.133 278.835 205.963 282.629 207.312 283.066Z" fill="#FFC727"/>
<path d="M208.215 281.553C214.697 281.358 240.861 281.17 247.283 281.458C247.335 281.461 247.335 281.496 247.283 281.498C240.863 281.828 214.698 281.809 208.215 281.657C208.079 281.653 208.078 281.557 208.215 281.553Z" fill="#263238"/>
<path d="M254.335 166.429C254.329 166.446 250.068 207.282 249.999 208.246C249.97 208.624 251.832 258.547 251.832 258.547H223.608C223.608 258.547 224.614 211.766 225.041 205.995C225.094 205.324 226.915 163.794 235.13 140.283H266.476C266.476 140.283 266.204 154.097 259.765 164.087C259.765 164.087 256.203 165.404 254.335 166.429Z" fill="#263238"/>
<path d="M225.391 253.388C226.164 253.279 226.957 253.303 227.736 253.265C228.559 253.225 229.38 253.189 230.204 253.172C231.849 253.139 233.494 253.122 235.14 253.105C238.429 253.069 241.719 253.075 245.009 253.081C245.908 253.083 246.807 253.09 247.707 253.102C248.596 253.113 249.542 253.069 250.416 253.238C250.464 253.247 250.46 253.32 250.415 253.33C249.66 253.489 248.855 253.468 248.087 253.498C247.265 253.531 246.441 253.551 245.619 253.567C244 253.598 242.381 253.636 240.761 253.656C237.497 253.697 234.232 253.751 230.968 253.742C230.043 253.739 229.118 253.74 228.193 253.706C227.274 253.672 226.331 253.721 225.419 253.608C225.304 253.592 225.252 253.408 225.391 253.388Z" fill="#37474F"/>
<path d="M231.788 210.528C232.528 195.813 234.113 181.163 236.11 166.564C237.203 158.57 238.482 150.586 240.697 142.804C240.707 142.772 240.757 142.787 240.748 142.819C238.955 149.923 237.794 157.161 236.852 164.414C235.917 171.602 235.029 178.805 234.28 186.014C232.76 200.646 232.083 215.336 231.99 230.039C231.938 238.311 232.165 242.209 232.4 250.476C232.403 250.557 232.28 250.55 232.274 250.473C231.033 235.761 231.048 225.264 231.788 210.528Z" fill="#37474F"/>
<path d="M233.297 145.974C233.312 145.923 233.396 145.934 233.392 145.988C233.271 147.729 232.971 149.63 233.764 151.27C234.464 152.719 235.795 153.533 237.019 154.512C237.058 154.543 237.013 154.602 236.971 154.59C235.341 154.107 233.718 153.225 233.077 151.6C232.356 149.774 232.745 147.786 233.297 145.974Z" fill="#37474F"/>
<path d="M246.89 165.531C248.192 165.424 249.503 165.604 250.809 165.66C252.086 165.714 253.363 165.721 254.636 165.592C255.276 165.528 255.911 165.428 256.537 165.285C257.184 165.136 257.801 164.899 258.441 164.728C259.051 164.565 259.602 164.661 260.206 164.794C260.884 164.943 261.567 165.048 262.256 165.134C263.81 165.331 265.44 165.428 267.002 165.254C267.062 165.248 267.088 165.335 267.025 165.346C265.684 165.59 264.354 165.789 262.986 165.759C262.288 165.743 261.597 165.679 260.908 165.574C260.289 165.48 259.59 165.228 258.964 165.327C258.319 165.429 257.699 165.772 257.067 165.944C256.436 166.116 255.793 166.241 255.143 166.328C253.847 166.501 252.523 166.526 251.218 166.445C249.757 166.355 248.238 166.243 246.848 165.79C246.695 165.74 246.742 165.543 246.89 165.531Z" fill="#37474F"/>
<path d="M249.929 205.993C249.936 205.98 249.951 205.973 249.965 205.971C249.978 205.97 249.99 205.973 250 205.981C250.011 205.99 250.021 206.005 250.018 206.02L250.004 206.118C250.002 206.127 250 206.135 249.993 206.141C249.987 206.146 249.981 206.149 249.973 206.15C249.958 206.151 249.939 206.141 249.936 206.125C249.932 206.093 249.927 206.062 249.922 206.03C249.921 206.016 249.922 206.005 249.929 205.993Z" fill="#37474F"/>
<path d="M250.675 198.961C250.923 196.312 251.191 193.666 251.475 191.019C252.044 185.725 252.582 180.428 253.141 175.132C253.458 172.129 253.687 169.1 254.189 166.119C254.202 166.042 254.324 166.039 254.323 166.122C254.278 168.775 253.989 171.431 253.759 174.075C253.528 176.725 253.287 179.373 253.033 182.021C252.525 187.319 252.038 192.621 251.402 197.906C251.221 199.408 251.028 200.909 250.827 202.408C250.626 203.91 250.355 205.405 250.16 206.907C250.152 206.967 250.051 206.967 250.057 206.904C250.3 204.261 250.426 201.606 250.675 198.961Z" fill="#37474F"/>
<path d="M187.823 129.834L258.632 120.583L252.238 74.3788L181.429 83.6311L187.823 129.834Z" fill="#EBEBEB"/>
<path d="M190.367 126.572L255.298 118.089L249.693 77.6406L184.763 86.1247L190.367 126.572Z" fill="#FFC727"/>
<path opacity="0.1" d="M193.068 96.2252C193.507 99.4317 196.528 101.683 199.814 101.254C203.1 100.824 205.408 97.8764 204.968 94.6699C204.528 91.4635 201.507 89.212 198.221 89.6416C194.935 90.0711 192.627 93.0187 193.068 96.2252Z" fill="black"/>
<path opacity="0.2" d="M210.537 124.002L255.263 118.157L228.84 91.5014L210.537 124.002Z" fill="black"/>
<path d="M193.005 126.306L229.932 121.482L208.826 104.633L193.005 126.306Z" fill="#FFC727"/>
<path opacity="0.1" d="M193.005 126.306L229.932 121.482L208.826 104.633L193.005 126.306Z" fill="black"/>
<path d="M242.38 83.492C241.751 83.6092 238.969 83.4643 237.284 86.0262C235.688 88.4502 235.526 95.5387 235.252 97.0972C234.977 98.6557 232.926 99.0131 232.553 100.826C232.233 102.385 233.413 102.88 233.604 103.998C233.751 104.866 232.934 106.23 233.832 107.472C234.649 108.602 235.939 108.274 236.751 108.594C237.563 108.914 238.168 110.666 239.658 111.057C241.149 111.449 242.356 110.072 243.131 110.033C243.905 109.993 244.972 112.256 247.486 111.9C250.001 111.543 250.597 109.412 251.614 108.937C252.632 108.462 255.296 109.012 256.411 107.668C257.526 106.324 257.623 104.612 258.122 103.954C258.621 103.296 259.753 103.327 260.33 101.84C260.908 100.352 259.47 99.5167 259.196 98.2731C259.004 97.4069 259.749 96.5556 259.105 95.2534C258.218 93.4631 255.939 93.9963 254.941 92.1635C254.158 90.7267 252.323 84.3814 248.239 83.0399C245.419 82.1139 242.38 83.492 242.38 83.492Z" fill="#263238"/>
<path d="M235.304 96.7236C235.205 97.0714 234.928 97.3367 234.681 97.5911L233.903 98.3349C233.388 98.8224 232.867 99.3241 232.544 99.9237C232.21 100.505 232.149 101.219 232.419 101.811C232.552 102.109 232.767 102.373 233.003 102.634C233.234 102.898 233.508 103.151 233.687 103.532C233.859 103.946 233.745 104.361 233.658 104.698C233.563 105.047 233.453 105.38 233.376 105.716C233.212 106.379 233.206 107.077 233.565 107.644C233.735 107.923 233.984 108.146 234.298 108.265C234.611 108.388 234.966 108.419 235.321 108.417C235.677 108.42 236.038 108.386 236.403 108.37C236.76 108.357 237.157 108.345 237.47 108.54C237.137 108.386 236.766 108.44 236.412 108.477C236.054 108.524 235.696 108.587 235.328 108.616C234.961 108.638 234.578 108.627 234.208 108.506C233.837 108.388 233.51 108.129 233.295 107.81C232.827 107.174 232.85 106.331 233.007 105.638C233.083 105.282 233.189 104.938 233.274 104.603C233.359 104.266 233.421 103.941 233.305 103.688C233.052 103.139 232.368 102.675 232.074 101.958C231.765 101.25 231.849 100.396 232.268 99.7717C232.66 99.1335 233.22 98.6518 233.768 98.1887L234.607 97.5138C234.871 97.2788 235.163 97.0534 235.304 96.7236Z" fill="#263238"/>
<path d="M252.154 86.4441C252.912 87.4842 253.418 88.6659 254.033 89.7742C254.341 90.3287 254.629 90.8935 254.974 91.4158C255.149 91.6702 255.328 91.9349 255.54 92.1306C255.591 92.1867 255.644 92.2318 255.698 92.2601C255.751 92.2955 255.801 92.3335 255.879 92.3612C256.02 92.423 256.168 92.4771 256.318 92.5293C256.916 92.7476 257.548 92.9363 258.148 93.2274C258.743 93.5127 259.33 93.9293 259.66 94.5315C259.823 94.8271 259.932 95.1652 259.926 95.5084C259.923 95.8523 259.813 96.173 259.69 96.4673C259.424 97.0476 259.175 97.6285 259.197 98.2738C259.077 97.6388 259.299 96.9903 259.499 96.3997C259.599 96.1028 259.68 95.8047 259.664 95.5116C259.651 95.2193 259.542 94.9411 259.385 94.6873C259.056 94.1869 258.555 93.8134 257.983 93.5584C257.414 93.2943 256.797 93.1237 256.176 92.9086C256.021 92.8513 255.866 92.792 255.712 92.7205C255.57 92.6574 255.367 92.528 255.264 92.4063C255.01 92.1596 254.837 91.884 254.656 91.6116C254.314 91.059 254.015 90.4923 253.748 89.9114L252.965 88.1688C252.713 87.584 252.472 86.9967 252.154 86.4441Z" fill="#263238"/>
<path d="M258.713 103.488C258.459 103.868 258.453 104.342 258.376 104.783C258.307 105.231 258.237 105.682 258.145 106.132C258.056 106.583 257.93 107.03 257.742 107.466C257.55 107.896 257.292 108.324 256.888 108.642C256.039 109.248 254.987 109.246 254.07 109.139C253.603 109.085 253.145 109.005 252.689 108.96C252.234 108.906 251.771 108.891 251.329 109.049C251.733 108.804 252.234 108.772 252.7 108.763C253.172 108.768 253.636 108.813 254.096 108.829C254.997 108.868 255.956 108.824 256.633 108.323C256.961 108.075 257.197 107.703 257.384 107.311C257.579 106.918 257.706 106.489 257.837 106.059C257.965 105.628 258.067 105.187 258.179 104.745C258.239 104.524 258.303 104.304 258.376 104.086C258.458 103.875 258.524 103.636 258.713 103.488Z" fill="#263238"/>
<path d="M250.349 105.933C250.307 106.538 248.086 110.774 245.335 111.083C244.439 111.182 243.666 106.433 243.666 106.433L243.527 106.094L241.583 101.364L246.877 96.7249L247.649 96.0996C247.649 96.0996 248.093 97.4282 248.63 99.0878C248.655 99.1644 248.68 99.2417 248.706 99.3241C248.739 99.4175 248.772 99.5051 248.798 99.5927C248.882 99.8393 248.966 100.092 249.044 100.345C249.104 100.538 249.164 100.725 249.22 100.929C249.282 101.132 249.337 101.331 249.399 101.535C249.96 103.556 250.363 105.677 250.349 105.933Z" fill="#AD6359"/>
<path d="M248.629 99.0878C247.839 103.224 244.906 105.325 243.526 106.095L241.583 101.364L246.876 96.7256L247.648 96.1003C247.648 96.1003 248.093 97.4282 248.629 99.0878Z" fill="#263238"/>
<path d="M233.16 93.6885C231.718 102.523 236.942 104.448 238.932 104.664C240.715 104.858 246.775 105.649 249.145 97.0076C251.514 88.3658 247.761 84.9191 243.741 84.0845C239.72 83.2499 234.603 84.8547 233.16 93.6885Z" fill="#AD6359"/>
<path d="M233.92 92.4926C234.136 92.4868 234.335 92.4462 234.548 92.4185C234.789 92.3876 234.984 92.387 235.174 92.224C235.276 92.1364 235.286 91.942 235.208 91.837C235.027 91.5929 234.723 91.5594 234.431 91.5852C234.115 91.6129 233.879 91.7133 233.652 91.9297C233.432 92.139 233.634 92.5003 233.92 92.4926Z" fill="#263238"/>
<path d="M239.623 93.2435C239.411 93.201 239.222 93.1269 239.017 93.0632C238.785 92.9917 238.593 92.9576 238.436 92.7644C238.351 92.6607 238.376 92.4675 238.471 92.3773C238.694 92.168 238.999 92.1867 239.282 92.262C239.588 92.3438 239.803 92.4829 239.988 92.7347C240.166 92.9782 239.902 93.2995 239.623 93.2435Z" fill="#263238"/>
<path d="M238.079 95.321C238.086 95.2985 238.124 95.3552 238.12 95.3796C238.031 95.9831 238.033 96.6883 238.572 96.9504C238.588 96.9581 238.583 96.9884 238.563 96.9832C237.889 96.8145 237.895 95.8781 238.079 95.321Z" fill="#263238"/>
<path d="M238.705 94.7492C239.711 94.7839 239.566 96.7456 238.633 96.7127C237.716 96.6805 237.861 94.7195 238.705 94.7492Z" fill="#263238"/>
<path d="M239.092 94.8806C239.26 95.0036 239.417 95.2122 239.627 95.247C239.87 95.2882 240.07 95.0956 240.244 94.9095C240.262 94.8902 240.279 94.9089 240.277 94.9346C240.254 95.3107 240.078 95.6862 239.661 95.7126C239.281 95.7371 239.035 95.3854 238.967 95.001C238.955 94.9295 239.025 94.831 239.092 94.8806Z" fill="#263238"/>
<path d="M234.923 94.8174C234.919 94.7942 234.872 94.8431 234.871 94.8683C234.851 95.4775 234.722 96.1717 234.145 96.3379C234.127 96.343 234.127 96.3733 234.149 96.372C234.842 96.3211 235.004 95.3976 234.923 94.8174Z" fill="#263238"/>
<path d="M234.409 94.1476C233.412 94.0105 233.204 95.9663 234.127 96.0932C235.036 96.2187 235.245 94.2629 234.409 94.1476Z" fill="#263238"/>
<path d="M233.977 94.2339C233.807 94.3215 233.63 94.4941 233.44 94.487C233.22 94.4787 233.08 94.2507 232.962 94.0337C232.949 94.0111 232.932 94.0259 232.928 94.0517C232.878 94.4246 232.963 94.8264 233.324 94.9359C233.652 95.0351 233.933 94.7395 234.064 94.3763C234.088 94.3093 234.046 94.1985 233.977 94.2339Z" fill="#263238"/>
<path d="M237.923 100.051C237.784 100.203 237.648 100.408 237.423 100.441C237.208 100.473 236.947 100.394 236.744 100.332C236.724 100.326 236.705 100.347 236.719 100.365C236.896 100.588 237.247 100.711 237.532 100.644C237.81 100.577 237.934 100.33 237.985 100.074C237.992 100.038 237.943 100.029 237.923 100.051Z" fill="#263238"/>
<path d="M235.33 97.604C235.33 97.604 235.124 98.4998 235.087 98.9274C235.083 98.9674 235.188 98.9951 235.335 99.0157C235.343 99.0182 235.346 99.0215 235.353 99.0176C236.116 99.1992 236.918 99.0028 237.442 98.4251C237.476 98.3858 237.424 98.3369 237.381 98.3607C236.768 98.7271 236.121 98.7812 235.433 98.7362C235.413 98.6151 235.84 97.2131 235.77 97.2022C235.532 97.1622 235.047 97.2827 234.756 97.34C235.131 95.4614 235.812 93.6569 236.156 91.781C236.168 91.714 236.07 91.6857 236.044 91.7443C235.194 93.5861 234.714 95.7384 234.275 97.6691C234.218 97.9093 235.148 97.662 235.33 97.604Z" fill="#263238"/>
<path d="M235.653 98.8669C235.653 98.8669 235.949 99.3924 236.421 99.6313C236.595 99.7196 236.789 99.7717 237.002 99.7453C237.442 99.6931 237.506 99.3151 237.474 98.9796C237.448 98.704 237.353 98.4567 237.353 98.4567C237.353 98.4567 236.655 98.9397 235.653 98.8669Z" fill="#263238"/>
<path d="M236.421 99.6313C236.596 99.7196 236.789 99.7717 237.003 99.7453C237.442 99.6932 237.506 99.3151 237.474 98.9796C237.013 98.9642 236.52 99.205 236.421 99.6313Z" fill="#FF99BA"/>
<path d="M248.646 98.5552C247.682 98.2783 245.181 94.5869 246.191 89.9617C246.191 89.9617 245.578 94.1766 245.753 94.8541C245.929 95.5316 244.679 93.0567 245.441 89.3151C245.441 89.3151 242.98 90.3262 241.065 90.4131C239.151 90.5 238.055 90.236 237.956 90.0802C237.858 89.9243 240.697 89.706 241.602 89.062C241.602 89.062 236.306 90.1561 234.062 89.8238C233.802 89.7852 234.707 84.5984 238.629 83.1932C242.552 81.788 247.398 85.3487 248.527 87.0437C248.527 87.0437 250.176 87.6639 251.448 90.5419C252.719 93.4193 249.685 98.8534 248.646 98.5552Z" fill="#263238"/>
<path d="M245.447 95.5445C245.447 95.5445 247.55 92.8249 248.822 93.5668C250.094 94.3086 248.44 98.3002 246.896 98.7993C245.352 99.2984 244.85 97.9131 244.85 97.9131L245.447 95.5445Z" fill="#AD6359"/>
<path d="M248.318 94.6996C248.343 94.6983 248.346 94.7324 248.325 94.7395C247.241 95.124 246.643 96.0706 246.212 97.0585C246.544 96.6837 246.984 96.4879 247.5 96.8756C247.527 96.8962 247.499 96.9375 247.469 96.9304C247.035 96.8235 246.717 96.8866 246.408 97.2176C246.19 97.452 246.036 97.7534 245.875 98.0278C245.822 98.1192 245.651 98.0632 245.692 97.9569C245.694 97.9492 245.698 97.9408 245.702 97.9331C245.723 96.6039 246.851 94.7813 248.318 94.6996Z" fill="#263238"/>
<path d="M234.406 132.144L235.129 140.283C235.129 140.283 258.755 140.807 266.433 140.279C266.433 140.279 262.767 115.469 254.332 108.017C249.814 104.025 246.758 103.167 243.668 106.225C242.886 106.999 233.557 119.029 232.574 123.625C231.717 127.681 234.406 132.144 234.406 132.144Z" fill="#455A64"/>
<path d="M244.826 108.687C244.826 109.026 244.544 109.301 244.196 109.301C243.848 109.301 243.566 109.026 243.566 108.687C243.566 108.347 243.848 108.072 244.196 108.072C244.544 108.072 244.826 108.347 244.826 108.687ZM251.455 108.072C251.107 108.072 250.825 108.347 250.825 108.687C250.825 109.026 251.107 109.301 251.455 109.301C251.802 109.301 252.084 109.026 252.084 108.687C252.084 108.347 251.802 108.072 251.455 108.072ZM247.421 104.386C247.526 104.476 247.671 104.534 247.823 104.534C247.955 104.534 248.074 104.495 248.18 104.431C247.922 104.399 247.671 104.38 247.421 104.386ZM236.937 117.952C236.589 117.952 236.308 118.227 236.308 118.567C236.308 118.906 236.589 119.181 236.937 119.181C237.285 119.181 237.567 118.906 237.567 118.567C237.567 118.227 237.285 117.952 236.937 117.952ZM244.196 117.952C243.848 117.952 243.566 118.227 243.566 118.567C243.566 118.906 243.848 119.181 244.196 119.181C244.544 119.181 244.826 118.906 244.826 118.567C244.826 118.227 244.544 117.952 244.196 117.952ZM251.455 117.952C251.107 117.952 250.825 118.227 250.825 118.567C250.825 118.906 251.107 119.181 251.455 119.181C251.802 119.181 252.084 118.906 252.084 118.567C252.084 118.227 251.802 117.952 251.455 117.952ZM258.713 117.952C258.365 117.952 258.083 118.227 258.083 118.567C258.083 118.906 258.365 119.181 258.713 119.181C259.06 119.181 259.342 118.906 259.342 118.567C259.343 118.227 259.06 117.952 258.713 117.952ZM240.567 113.182C240.219 113.182 239.937 113.457 239.937 113.796C239.937 114.135 240.219 114.41 240.567 114.41C240.914 114.41 241.196 114.135 241.196 113.796C241.196 113.457 240.914 113.182 240.567 113.182ZM247.825 113.182C247.477 113.182 247.196 113.457 247.196 113.796C247.196 114.135 247.477 114.41 247.825 114.41C248.173 114.41 248.455 114.135 248.455 113.796C248.455 113.457 248.173 113.182 247.825 113.182ZM255.083 113.182C254.735 113.182 254.454 113.457 254.454 113.796C254.454 114.135 254.735 114.41 255.083 114.41C255.431 114.41 255.713 114.135 255.713 113.796C255.714 113.457 255.431 113.182 255.083 113.182ZM236.937 127.832C236.589 127.832 236.308 128.107 236.308 128.446C236.308 128.786 236.589 129.061 236.937 129.061C237.285 129.061 237.567 128.786 237.567 128.446C237.567 128.107 237.285 127.832 236.937 127.832ZM244.196 127.832C243.848 127.832 243.566 128.107 243.566 128.446C243.566 128.786 243.848 129.061 244.196 129.061C244.544 129.061 244.826 128.786 244.826 128.446C244.826 128.107 244.544 127.832 244.196 127.832ZM251.455 127.832C251.107 127.832 250.825 128.107 250.825 128.446C250.825 128.786 251.107 129.061 251.455 129.061C251.802 129.061 252.084 128.786 252.084 128.446C252.084 128.107 251.802 127.832 251.455 127.832ZM258.713 127.832C258.365 127.832 258.083 128.107 258.083 128.446C258.083 128.786 258.365 129.061 258.713 129.061C259.06 129.061 259.342 128.786 259.342 128.446C259.343 128.107 259.06 127.832 258.713 127.832ZM233.308 123.062C232.96 123.062 232.678 123.337 232.678 123.676C232.678 124.016 232.96 124.291 233.308 124.291C233.656 124.291 233.937 124.016 233.937 123.676C233.937 123.337 233.656 123.062 233.308 123.062ZM240.567 123.062C240.219 123.062 239.937 123.337 239.937 123.676C239.937 124.016 240.219 124.291 240.567 124.291C240.914 124.291 241.196 124.016 241.196 123.676C241.196 123.337 240.914 123.062 240.567 123.062ZM247.825 123.062C247.477 123.062 247.196 123.337 247.196 123.676C247.196 124.016 247.477 124.291 247.825 124.291C248.173 124.291 248.455 124.016 248.455 123.676C248.455 123.337 248.173 123.062 247.825 123.062ZM255.083 123.062C254.735 123.062 254.454 123.337 254.454 123.676C254.454 124.016 254.735 124.291 255.083 124.291C255.431 124.291 255.713 124.016 255.713 123.676C255.714 123.337 255.431 123.062 255.083 123.062ZM262.389 123.068C262.376 123.062 262.356 123.062 262.343 123.062C261.993 123.062 261.71 123.339 261.71 123.674C261.71 124.015 261.993 124.292 262.343 124.292C262.488 124.292 262.62 124.247 262.726 124.163V124.157C262.62 123.796 262.508 123.429 262.389 123.068ZM236.937 137.712C236.589 137.712 236.308 137.987 236.308 138.326C236.308 138.665 236.589 138.94 236.937 138.94C237.285 138.94 237.567 138.665 237.567 138.326C237.567 137.987 237.285 137.712 236.937 137.712ZM244.196 137.712C243.848 137.712 243.566 137.987 243.566 138.326C243.566 138.665 243.848 138.94 244.196 138.94C244.544 138.94 244.826 138.665 244.826 138.326C244.826 137.987 244.544 137.712 244.196 137.712ZM251.455 137.712C251.107 137.712 250.825 137.987 250.825 138.326C250.825 138.665 251.107 138.94 251.455 138.94C251.802 138.94 252.084 138.665 252.084 138.326C252.084 137.987 251.802 137.712 251.455 137.712ZM258.713 137.712C258.365 137.712 258.083 137.987 258.083 138.326C258.083 138.665 258.365 138.94 258.713 138.94C259.06 138.94 259.342 138.665 259.342 138.326C259.343 137.987 259.06 137.712 258.713 137.712ZM266 137.713H265.973C265.623 137.713 265.34 137.99 265.34 138.325C265.34 138.666 265.623 138.943 265.973 138.943C266.059 138.943 266.138 138.924 266.211 138.891C266.151 138.55 266.079 138.157 266 137.713ZM240.567 132.942C240.219 132.942 239.937 133.217 239.937 133.556C239.937 133.895 240.219 134.17 240.567 134.17C240.914 134.17 241.196 133.895 241.196 133.556C241.196 133.217 240.914 132.942 240.567 132.942ZM247.825 132.942C247.477 132.942 247.196 133.217 247.196 133.556C247.196 133.895 247.477 134.17 247.825 134.17C248.173 134.17 248.455 133.895 248.455 133.556C248.455 133.217 248.173 132.942 247.825 132.942ZM255.083 132.942C254.735 132.942 254.454 133.217 254.454 133.556C254.454 133.895 254.735 134.17 255.083 134.17C255.431 134.17 255.713 133.895 255.713 133.556C255.714 133.217 255.431 132.942 255.083 132.942ZM262.342 132.942C261.994 132.942 261.712 133.217 261.712 133.556C261.712 133.895 261.994 134.17 262.342 134.17C262.69 134.17 262.972 133.895 262.972 133.556C262.972 133.217 262.69 132.942 262.342 132.942Z" fill="#37474F"/>
<path d="M246.999 112.462C245.086 118.019 235.485 136.715 229.86 137.759C221.043 139.396 207.723 137.591 202.058 137.171C198.979 136.942 203.494 118.302 206.687 119.6C210.846 121.291 224.123 122.037 225.731 122.2C227.339 122.364 235.144 113.839 241.115 107.985C246.095 103.102 249.424 105.421 246.999 112.462Z" fill="#AD6359"/>
<path d="M186.269 117.689C185.36 119.214 186.621 120.565 186.621 120.565C186.621 120.565 185.325 121.185 184.859 122.46C184.326 123.921 186.439 125.377 186.439 125.377C186.439 125.377 185.261 126.271 184.907 127.666C184.541 129.114 186.458 130.879 186.458 130.879C186.458 130.879 185.829 132.3 186.411 133.72C187.405 136.146 191.43 136.855 193.984 137.33C196.539 137.806 204.241 136.821 205.728 136.779L209.878 121.62C209.878 121.62 203.872 115.791 195.081 115.353C192.482 115.223 187.29 115.977 186.269 117.689Z" fill="#AD6359"/>
<path d="M186.786 120.33C189.581 119.812 192.38 120.127 195.192 120.288C195.255 120.291 195.248 120.387 195.185 120.382C192.39 120.191 189.593 120.544 186.795 120.461C186.718 120.46 186.71 120.344 186.786 120.33Z" fill="#263238"/>
<path d="M186.533 125.179C187.169 125.08 187.836 125.187 188.471 125.254C189.154 125.326 189.836 125.41 190.517 125.505C191.879 125.693 193.236 125.913 194.587 126.171C194.647 126.182 194.644 126.274 194.58 126.266C193.223 126.08 191.862 125.914 190.497 125.784C189.814 125.718 189.131 125.659 188.446 125.604C187.81 125.553 187.134 125.55 186.522 125.362C186.43 125.334 186.437 125.194 186.533 125.179Z" fill="#263238"/>
<path d="M186.515 130.887C187.064 130.779 187.71 130.957 188.255 131.045C188.874 131.144 189.494 131.239 190.113 131.331C191.353 131.515 192.592 131.698 193.838 131.84C193.9 131.847 193.894 131.941 193.831 131.935C192.565 131.797 191.297 131.676 190.032 131.528C189.411 131.455 188.79 131.379 188.17 131.299C187.643 131.232 186.976 131.205 186.502 130.948C186.477 130.932 186.487 130.892 186.515 130.887Z" fill="#263238"/>
<path d="M220.842 121.35L220.712 140.091C220.712 140.091 229.259 139.796 231.727 137.891C234.195 135.986 244.055 122.84 247.114 113.361C250.174 103.88 245.783 103.388 240.766 108.086C235.749 112.784 226.431 121.472 225.97 121.634C225.509 121.795 220.842 121.35 220.842 121.35Z" fill="#455A64"/>
<path d="M244.825 108.687C244.825 109.026 244.544 109.301 244.196 109.301C243.848 109.301 243.566 109.026 243.566 108.687C243.566 108.347 243.848 108.072 244.196 108.072C244.544 108.072 244.825 108.347 244.825 108.687ZM230.036 118.058C230.036 118.058 230.036 118.058 230.029 118.058C229.719 118.341 229.422 118.612 229.138 118.876C229.244 119.056 229.449 119.179 229.68 119.179C230.029 119.179 230.307 118.908 230.307 118.567C230.307 118.354 230.201 118.174 230.036 118.058ZM236.937 117.952C236.589 117.952 236.307 118.227 236.307 118.567C236.307 118.906 236.589 119.181 236.937 119.181C237.285 119.181 237.567 118.906 237.567 118.567C237.567 118.227 237.285 117.952 236.937 117.952ZM244.196 117.952C243.848 117.952 243.566 118.227 243.566 118.567C243.566 118.906 243.848 119.181 244.196 119.181C244.544 119.181 244.825 118.906 244.825 118.567C244.825 118.227 244.544 117.952 244.196 117.952ZM240.566 113.182C240.219 113.182 239.937 113.457 239.937 113.796C239.937 114.135 240.219 114.41 240.566 114.41C240.914 114.41 241.196 114.135 241.196 113.796C241.196 113.457 240.914 113.182 240.566 113.182ZM222.42 127.832C222.072 127.832 221.79 128.107 221.79 128.446C221.79 128.786 222.072 129.061 222.42 129.061C222.768 129.061 223.049 128.786 223.049 128.446C223.05 128.107 222.768 127.832 222.42 127.832ZM229.678 127.832C229.331 127.832 229.049 128.107 229.049 128.446C229.049 128.786 229.331 129.061 229.678 129.061C230.026 129.061 230.308 128.786 230.308 128.446C230.308 128.107 230.026 127.832 229.678 127.832ZM236.937 127.832C236.589 127.832 236.307 128.107 236.307 128.446C236.307 128.786 236.589 129.061 236.937 129.061C237.285 129.061 237.567 128.786 237.567 128.446C237.567 128.107 237.285 127.832 236.937 127.832ZM226.049 123.062C225.701 123.062 225.419 123.337 225.419 123.676C225.419 124.016 225.701 124.291 226.049 124.291C226.397 124.291 226.679 124.016 226.679 123.676C226.679 123.337 226.397 123.062 226.049 123.062ZM233.308 123.062C232.96 123.062 232.678 123.337 232.678 123.676C232.678 124.016 232.96 124.291 233.308 124.291C233.656 124.291 233.937 124.016 233.937 123.676C233.937 123.337 233.656 123.062 233.308 123.062ZM240.566 123.062C240.219 123.062 239.937 123.337 239.937 123.676C239.937 124.016 240.219 124.291 240.566 124.291C240.914 124.291 241.196 124.016 241.196 123.676C241.196 123.337 240.914 123.062 240.566 123.062ZM222.42 137.712C222.072 137.712 221.79 137.987 221.79 138.326C221.79 138.665 222.072 138.94 222.42 138.94C222.768 138.94 223.049 138.665 223.049 138.326C223.05 137.987 222.768 137.712 222.42 137.712ZM229.68 137.713C229.33 137.713 229.046 137.99 229.046 138.325C229.046 138.589 229.218 138.814 229.455 138.898C229.455 138.898 229.455 138.904 229.462 138.898C229.719 138.827 229.963 138.75 230.201 138.673C230.201 138.666 230.201 138.666 230.208 138.666C230.267 138.569 230.307 138.447 230.307 138.325C230.307 137.99 230.029 137.713 229.68 137.713ZM226.049 132.942C225.701 132.942 225.419 133.217 225.419 133.556C225.419 133.895 225.701 134.17 226.049 134.17C226.397 134.17 226.679 133.895 226.679 133.556C226.679 133.217 226.397 132.942 226.049 132.942ZM233.308 132.942C232.96 132.942 232.678 133.217 232.678 133.556C232.678 133.895 232.96 134.17 233.308 134.17C233.656 134.17 233.937 133.895 233.937 133.556C233.937 133.217 233.656 132.942 233.308 132.942Z" fill="#37474F"/>
<path d="M224.026 138.455C223.861 133.276 223.715 128.07 224.066 122.895C224.07 122.848 224.145 122.855 224.148 122.899C224.482 128.072 224.313 133.274 224.129 138.448C224.127 138.511 224.028 138.521 224.026 138.455Z" fill="#263238"/>
<path d="M233.635 135.872C235.275 133.394 239.811 127.972 246.128 116.387C246.143 116.359 246.187 116.376 246.175 116.407C245.706 117.592 245.165 118.738 244.574 119.859C244.874 119.472 245.168 119.083 245.489 118.714C245.515 118.685 245.571 118.713 245.551 118.75C245.326 119.148 245.066 119.513 244.769 119.863C244.61 120.05 244.443 120.231 244.278 120.414C237.701 132.417 234.51 134.976 233.722 135.924C233.685 135.968 233.603 135.92 233.635 135.872Z" fill="#263238"/>
</svg>
