<svg width="326" height="300" viewBox="0 0 326 300" fill="none" xmlns="http://www.w3.org/2000/svg">
<path d="M282.057 161.107H227.268V247.487H282.057V161.107Z" fill="#EBEBEB"/>
<path d="M285.343 157.902H223.981V161.107H285.343V157.902Z" fill="#DBDBDB"/>
<path d="M302.222 157.902H285.343V161.107H302.222V157.902Z" fill="#EBEBEB"/>
<path d="M298.518 161.107H282.057V247.487H298.518V161.107Z" fill="#DBDBDB"/>
<path d="M274.751 201.083H234.574V173.407H274.751V201.083ZM234.737 200.933H274.588V173.557H234.737V200.933Z" fill="#C7C7C7"/>
<path d="M257.596 181.495H247.235V186.976H257.596V181.495Z" fill="#C7C7C7"/>
<path d="M260.74 186.638H250.216V181.834H260.74V186.638ZM250.379 186.488H260.578V181.984H250.379V186.488Z" fill="#C7C7C7"/>
<path d="M274.751 235.859H234.574V208.183H274.751V235.859ZM234.737 235.709H274.588V208.333H234.737V235.709Z" fill="#C7C7C7"/>
<path d="M257.596 216.271H247.235V221.752H257.596V216.271Z" fill="#C7C7C7"/>
<path d="M260.74 221.413H250.216V216.61H260.74V221.413ZM250.379 221.263H260.578V216.76H250.379V221.263Z" fill="#C7C7C7"/>
<path d="M192.464 72.6949L302.193 72.6949V68.3599L192.464 68.3599V72.6949Z" fill="#EBEBEB"/>
<path d="M286.239 89.7618H290.513L292.229 72.6948H286.239V89.7618Z" fill="#EBEBEB"/>
<path d="M208.419 89.7618H204.145L202.43 72.6948H208.419V89.7618Z" fill="#EBEBEB"/>
<path d="M292.228 72.6966H286.241V78.5742H291.639L292.228 72.6966Z" fill="#DBDBDB"/>
<path d="M202.432 72.6966L203.02 78.5742H208.418V72.6966H202.432Z" fill="#DBDBDB"/>
<path d="M262.459 42.3486C267.328 48.417 272.405 55.4598 273.641 63.0696C273.656 63.1848 273.455 63.2226 273.427 63.108C272.861 61.0206 272.146 58.9938 271.273 57.015C268.072 56.2044 264.93 55.5384 263.249 52.6146C261.534 49.6092 261.752 45.69 262.078 42.4164C262.101 42.2406 262.36 42.2322 262.459 42.3486Z" fill="#EBEBEB"/>
<path d="M271.225 56.958C269.037 52.4412 266.229 47.9058 262.66 44.1912C262.636 44.166 262.599 44.2026 262.621 44.2272C264.958 46.8726 266.733 49.7538 268.468 52.6848C266.855 51.1788 265.089 49.8294 263.561 48.2322C263.531 48.201 263.484 48.246 263.512 48.2772C265.029 49.9518 266.685 51.7716 268.66 53.0106C269.191 53.91 269.725 54.8124 270.266 55.7142C270.133 55.6458 269.996 55.5852 269.86 55.5234C269.836 55.5126 269.815 55.545 269.839 55.5564C269.99 55.6266 270.139 55.7004 270.294 55.761C270.551 56.1882 270.805 56.6154 271.069 57.0408C271.128 57.1368 271.271 57.0534 271.225 56.958Z" fill="#A6A6A6"/>
<path d="M269.597 55.3824C268.293 54.6936 267.034 53.9538 265.86 53.0862C265.828 53.0628 265.781 53.103 265.814 53.1282C266.967 54.0264 268.197 54.831 269.543 55.4664C269.605 55.4952 269.657 55.4136 269.597 55.3824Z" fill="#A6A6A6"/>
<path d="M274.174 63C274.164 63.0924 273.994 63.0906 273.996 62.9928C273.971 60.4866 273.993 57.969 273.952 55.4514C273.255 54.156 271.757 53.439 270.716 52.4004C269.965 51.651 269.322 50.8056 268.773 49.9116C267.486 47.7912 266.789 45.4074 266.52 42.9984C266.233 40.3176 267.338 31.4718 268.566 31.779C269.203 31.938 271.263 36.3198 271.81 37.7676C272.705 40.1502 273.335 42.6198 273.748 45.1116C274.744 51.0096 274.661 57.0654 274.174 63Z" fill="#EBEBEB"/>
<path d="M274.193 52.1892C274.189 52.1862 274.185 52.1826 274.181 52.1796C274.031 49.0086 273.255 45.8064 272.529 42.7308C271.746 39.4176 270.831 36.2976 268.978 33.3426C268.943 33.2874 268.855 33.336 268.886 33.3918C270.147 35.6778 271.049 38.1054 271.738 40.5978C271.615 40.419 271.463 40.2498 271.335 40.0812C271.284 40.0146 271.165 40.0764 271.215 40.1454C271.396 40.395 271.56 40.686 271.794 40.8978C271.802 40.905 271.809 40.9056 271.818 40.908C272.456 43.2762 272.913 45.6984 273.305 48.1146C273.276 48.084 273.248 48.051 273.218 48.021C273.198 48.0012 273.164 48.0264 273.178 48.0492C273.226 48.129 273.281 48.2088 273.334 48.2886C273.532 49.515 273.715 50.739 273.899 51.9522C271.526 50.0856 269.499 47.8854 268.356 45.1746C268.351 45.162 268.329 45.1674 268.334 45.18C269.454 47.9922 271.219 50.4912 273.937 52.1976C273.986 52.5246 274.036 52.8516 274.087 53.1768C274.097 53.2446 274.214 53.2266 274.214 53.1612C274.213 52.8726 274.198 52.5828 274.185 52.293C274.219 52.2672 274.234 52.2204 274.193 52.1892Z" fill="#A6A6A6"/>
<path d="M273.076 47.5944C271.262 45.1038 269.568 42.6846 268.241 39.9318C268.226 39.9012 268.169 39.9228 268.182 39.9546C269.3 42.69 270.866 45.4614 272.984 47.6586C273.028 47.7036 273.112 47.6448 273.076 47.5944Z" fill="#A6A6A6"/>
<path d="M270.666 39.3168C269.915 38.0934 269.122 36.903 268.415 35.6562C268.395 35.6214 268.343 35.652 268.359 35.6862C268.952 36.9612 269.661 38.2554 270.55 39.3792C270.599 39.4422 270.709 39.3876 270.666 39.3168Z" fill="#A6A6A6"/>
<path d="M270.959 39.849C270.944 39.849 270.944 39.87 270.959 39.87C270.974 39.87 270.973 39.849 270.959 39.849Z" fill="#A6A6A6"/>
<path d="M275.506 56.5782C275.552 58.239 275.747 59.8998 276.143 61.5156C276.115 61.6938 276.086 61.872 276.058 62.0562C275.49 60.2574 275.193 58.4136 275.099 56.5524C275.068 56.5008 275.055 56.445 275.09 56.382C275.09 56.382 275.09 56.382 275.091 56.3766C274.988 53.8914 275.238 51.3786 275.692 48.9198C276.535 44.3142 278.378 39.894 281.868 36.4422C281.979 36.336 282.2 36.3912 282.254 36.5154C283.662 39.8112 283.17 43.7436 281.971 47.0316C281.318 48.8028 280.386 50.5032 279.203 52.026C278.005 53.5758 276.479 54.8862 275.506 56.5782Z" fill="#EBEBEB"/>
<path d="M281.455 37.9848C278.147 42.9252 275.845 48.783 275.564 54.6192C275.559 54.7224 275.749 54.75 275.764 54.6438C275.842 54.1194 275.93 53.5998 276.021 53.082C276.023 53.0808 276.025 53.0814 276.027 53.0802C277.396 51.8742 278.801 50.6016 279.781 49.0938C279.797 49.0674 279.756 49.0362 279.734 49.0602C278.543 50.3124 277.432 51.5952 276.088 52.7118C276.324 51.4212 276.605 50.1516 276.937 48.9006C277.026 48.807 277.112 48.7116 277.199 48.6174C277.256 48.5556 277.16 48.465 277.1 48.5268C277.074 48.5538 277.047 48.5808 277.021 48.6078C277.489 46.89 278.061 45.2076 278.75 43.5546C279.593 42.63 280.534 41.8314 281.148 40.7178C281.163 40.6908 281.122 40.6698 281.104 40.6944C280.611 41.331 280.134 41.9718 279.575 42.5628C279.352 42.798 279.107 43.0182 278.876 43.248C279.629 41.4834 280.522 39.7536 281.584 38.0532C281.63 37.977 281.505 37.9104 281.455 37.9848Z" fill="#A6A6A6"/>
<path d="M280.786 44.079C279.717 45.4032 278.499 46.6668 277.505 48.0354C277.476 48.075 277.539 48.1152 277.574 48.0846C278.851 46.9818 279.932 45.4764 280.859 44.118C280.887 44.0754 280.817 44.0406 280.786 44.079Z" fill="#A6A6A6"/>
<path d="M277.355 48.342L277.31 48.3843C277.278 48.4139 277.327 48.4591 277.359 48.4296L277.404 48.3873C277.435 48.3583 277.387 48.3131 277.355 48.342Z" fill="#A6A6A6"/>
<path d="M287.149 46.2336C286.883 48.7758 285.43 51.8118 283.658 53.7702C282.873 54.6366 281.92 55.299 280.827 55.803C279.601 56.361 278.317 57.0042 277.049 57.462C276.456 58.8552 276.002 60.3138 275.711 61.8342C275.67 61.707 275.63 61.5744 275.589 61.4472C276.403 55.0116 280.928 49.5114 286.717 45.9804C286.925 45.8532 287.172 46.0164 287.149 46.2336Z" fill="#EBEBEB"/>
<path d="M285.148 48.135C285.19 48.102 285.134 48.0342 285.09 48.0648C282.023 50.1558 279.258 53.205 277.714 56.4294C277.672 56.5176 277.804 56.5944 277.858 56.5068C278.127 56.073 278.401 55.6506 278.68 55.2366C278.682 55.2366 278.682 55.2372 278.684 55.2372C280.005 55.008 281.256 54.1524 282.237 53.3406C282.263 53.3184 282.224 53.283 282.197 53.3046C281.686 53.7198 281.136 54.1002 280.526 54.3852C279.987 54.6372 279.408 54.7956 278.847 54.9972C279.336 54.282 279.847 53.5962 280.38 52.9308C281.802 52.485 283.155 51.6816 284.35 50.8764C284.388 50.8512 284.355 50.7942 284.313 50.8176C283.095 51.492 281.894 52.086 280.623 52.6332C281.424 51.6564 282.291 50.7318 283.228 49.8378C283.678 49.6194 284.133 49.4004 284.568 49.167C284.603 49.1478 284.581 49.0926 284.539 49.1046C284.193 49.2108 283.84 49.3782 283.512 49.5696C284.034 49.083 284.573 48.603 285.148 48.135Z" fill="#A6A6A6"/>
<path d="M285.025 50.3568C284.946 50.4036 284.873 50.4456 284.803 50.5032C284.781 50.5206 284.809 50.5458 284.831 50.5368C284.916 50.5026 284.985 50.4612 285.063 50.4156C285.103 50.3922 285.065 50.3334 285.025 50.3568Z" fill="#A6A6A6"/>
<path d="M268.474 68.3592H280.393L279.807 61.17L279.582 58.8246H269.391L269.167 61.17L268.474 68.3592Z" fill="#DBDBDB"/>
<path d="M269.167 61.17H279.806L279.582 58.8246H269.391L269.167 61.17Z" fill="#C7C7C7"/>
<path d="M268.579 59.3053H280.394V56.9011H268.579V59.3053Z" fill="#DBDBDB"/>
<path d="M246.653 68.3425V42.2371H239.509V68.3425H246.653Z" fill="#C7C7C7"/>
<path d="M246.653 43.7102V40.8416H239.509V43.7102H246.653Z" fill="#DBDBDB"/>
<path d="M246.653 48.4503V47.3859H239.509V48.4503H246.653Z" fill="#DBDBDB"/>
<path d="M246.653 64.9188V62.0502H239.509V64.9188H246.653Z" fill="#DBDBDB"/>
<path d="M239.509 68.3435V37.8905H234.517V68.3435H239.509Z" fill="#DBDBDB"/>
<path d="M238.533 52.4662V40.7536H235.537V52.4662H238.533Z" fill="#EBEBEB"/>
<path d="M202.465 68.315L226 46.907L222.489 43.6391L198.955 65.0472L202.465 68.315Z" fill="#C7C7C7"/>
<path d="M207.275 62.6277L216.327 54.3938L214.221 52.433L205.169 60.667L207.275 62.6277Z" fill="#DBDBDB"/>
<path d="M234.52 68.3479V45.2167H226.041V68.3479H234.52Z" fill="#A6A6A6"/>
<path d="M234.52 65.896V63.7402H226.041V65.896H234.52Z" fill="#C7C7C7"/>
<path d="M234.52 62.3251V61.4893H226.041V62.3251H234.52Z" fill="#C7C7C7"/>
<path d="M35.882 154.934H124.594L124.594 30.405L35.882 30.405L35.882 154.934Z" fill="#EBEBEB"/>
<path d="M82.2881 90.7834H119.785L119.785 35.3938L82.2881 35.3938V90.7834Z" fill="white"/>
<path d="M40.6915 90.7834H78.188L78.188 35.3938L40.6915 35.3938L40.6915 90.7834Z" fill="white"/>
<path d="M82.2881 149.946H119.785L119.785 94.5561H82.2881V149.946Z" fill="white"/>
<path d="M40.6915 149.946H78.188L78.188 94.5561H40.6915L40.6915 149.946Z" fill="white"/>
<path d="M70.1045 30.4058H35.8823V208.564H55.6901L41.8638 117.909L70.1045 30.4058Z" fill="#DBDBDB"/>
<path d="M64.1759 35.2212L58.7506 55.9278L53.2288 76.6122L42.178 117.98L42.1859 117.875L47.2969 161.107L49.8488 182.723L52.2984 204.35L49.53 182.756L46.8646 161.151L41.5417 117.941L41.5352 117.888L41.5495 117.836L52.8108 76.5168L58.4448 55.8582L64.1759 35.2212Z" fill="#EBEBEB"/>
<path d="M37.9186 38.8758L38.077 56.7432L38.1683 74.61L38.2446 110.344L38.1696 146.078L38.0783 163.946L37.9186 181.813L37.7595 163.946L37.6682 146.078L37.5933 110.344L37.6689 74.61L37.7602 56.7432L37.9186 38.8758Z" fill="#EBEBEB"/>
<path d="M44.3128 42.2238L43.2507 61.215L42.0986 80.2014L39.7774 118.174L39.7781 118.15C40.0083 125.2 40.153 132.253 40.3447 139.305L40.8865 160.461L41.4283 181.617L41.8632 202.775L41.0991 181.625L40.4412 160.472L39.784 139.318C39.576 132.267 39.3211 125.216 39.1509 118.165V118.151L39.1515 118.14L41.6787 80.1792L42.9507 61.1994L44.3128 42.2238Z" fill="#EBEBEB"/>
<path d="M48.768 200.035L46.5277 179.537L44.3585 159.032C42.9691 145.358 41.5249 131.688 40.1851 118.01L40.1812 117.97L40.1883 117.932L46.5336 86.0058L49.7519 70.0506L53.019 54.1032L50.0237 70.0956L46.9796 86.0802L40.7992 118.034L40.8032 117.957C42.2213 131.629 43.535 145.31 44.9036 158.986L46.8713 179.507L48.768 200.035Z" fill="#EBEBEB"/>
<path d="M35.8827 120.566H43.6108V116.415H35.8827V120.566Z" fill="#DBDBDB"/>
<path d="M103.691 208.564H124.594L124.594 30.4051H103.691L103.691 208.564Z" fill="#DBDBDB"/>
<path d="M107.654 38.8758L107.812 58.1388L107.87 77.4018L107.979 115.928L107.87 154.454L107.813 173.717L107.654 192.98L107.494 173.717L107.437 154.454L107.329 115.928L107.437 77.4018L107.495 58.1388L107.654 38.8758Z" fill="#EBEBEB"/>
<path d="M117.252 43.3428L117.411 60.543L117.502 77.7432L117.578 112.144L117.503 146.544L117.412 163.744L117.252 180.944L117.093 163.744L117.001 146.544L116.926 112.144L117.003 77.7432L117.094 60.543L117.252 43.3428Z" fill="#EBEBEB"/>
<path d="M112.453 47.4036L112.611 67.5438L112.669 87.684L112.778 127.964L112.67 168.245L112.613 188.385L112.453 208.525L112.293 188.385L112.236 168.245L112.127 127.964L112.237 87.684L112.294 67.5438L112.453 47.4036Z" fill="#EBEBEB"/>
<path d="M120.822 39.891L120.98 60.9702L121.038 82.0494L121.147 124.208L121.038 166.367L120.981 187.446L120.822 208.525L120.662 187.446L120.605 166.367L120.497 124.208L120.605 82.0494L120.663 60.9702L120.822 39.891Z" fill="#EBEBEB"/>
<path d="M163 282.151C236.099 282.151 295.357 275.954 295.357 268.309C295.357 260.665 236.099 254.468 163 254.468C89.9017 254.468 30.6436 260.665 30.6436 268.309C30.6436 275.954 89.9017 282.151 163 282.151Z" fill="#EBEBEB"/>
<path d="M23.7778 247.487L58.5829 247.341L93.3886 247.288L163 247.187L232.611 247.288L267.417 247.34L302.222 247.487L267.417 247.634L232.611 247.687L163 247.786L93.3886 247.686L58.5829 247.633L23.7778 247.487Z" fill="#263238"/>
<path d="M68.2902 243.663H31.73V247.487H68.2902V243.663Z" fill="#455A64"/>
<path d="M52.1787 73.224H47.8462V243.66H52.1787V73.224Z" fill="#455A64"/>
<path d="M52.1787 73.224H47.8462V93.4212H52.1787V73.224Z" fill="#263238"/>
<path d="M72.9408 84.921H27.0771L30.4089 74.8422L30.5295 74.4834L40.2267 45.1548H59.7919L69.4963 74.49V74.4966L69.6025 74.8296L72.9408 84.921Z" fill="#FFC727"/>
<path d="M41.851 51.9324C41.851 52.089 41.7128 52.2162 41.5426 52.2162C41.3724 52.2162 41.2342 52.089 41.2342 51.9324C41.2342 51.7758 41.3724 51.6486 41.5426 51.6486C41.7128 51.6486 41.851 51.7758 41.851 51.9324ZM47.1902 51.6486C47.0201 51.6486 46.8818 51.7758 46.8818 51.9324C46.8818 52.089 47.0201 52.2162 47.1902 52.2162C47.3604 52.2162 47.4986 52.089 47.4986 51.9324C47.4986 51.7758 47.3604 51.6486 47.1902 51.6486ZM52.8379 51.6486C52.6677 51.6486 52.5295 51.7758 52.5295 51.9324C52.5295 52.089 52.6677 52.2162 52.8379 52.2162C53.008 52.2162 53.1463 52.089 53.1463 51.9324C53.1463 51.7758 53.008 51.6486 52.8379 51.6486ZM58.4855 51.6486C58.3153 51.6486 58.1771 51.7758 58.1771 51.9324C58.1771 52.089 58.3153 52.2162 58.4855 52.2162C58.6557 52.2162 58.7939 52.089 58.7939 51.9324C58.7939 51.7758 58.6557 51.6486 58.4855 51.6486ZM44.3664 48.009C44.1962 48.009 44.058 48.1362 44.058 48.2928C44.058 48.4494 44.1962 48.5766 44.3664 48.5766C44.5366 48.5766 44.6748 48.4494 44.6748 48.2928C44.6748 48.1362 44.5366 48.009 44.3664 48.009ZM50.014 48.009C49.8439 48.009 49.7057 48.1362 49.7057 48.2928C49.7057 48.4494 49.8439 48.5766 50.014 48.5766C50.1842 48.5766 50.3224 48.4494 50.3224 48.2928C50.3224 48.1362 50.1842 48.009 50.014 48.009ZM55.6617 48.009C55.4915 48.009 55.3533 48.1362 55.3533 48.2928C55.3533 48.4494 55.4915 48.5766 55.6617 48.5766C55.8318 48.5766 55.9701 48.4494 55.9701 48.2928C55.9701 48.1362 55.8318 48.009 55.6617 48.009ZM35.895 59.2062C35.7248 59.2062 35.5866 59.3334 35.5866 59.49C35.5866 59.6466 35.7248 59.7738 35.895 59.7738C36.0652 59.7738 36.2034 59.6466 36.2034 59.49C36.2034 59.3328 36.0652 59.2062 35.895 59.2062ZM41.5426 59.2062C41.3724 59.2062 41.2342 59.3334 41.2342 59.49C41.2342 59.6466 41.3724 59.7738 41.5426 59.7738C41.7128 59.7738 41.851 59.6466 41.851 59.49C41.851 59.3328 41.7128 59.2062 41.5426 59.2062ZM47.1902 59.2062C47.0201 59.2062 46.8818 59.3334 46.8818 59.49C46.8818 59.6466 47.0201 59.7738 47.1902 59.7738C47.3604 59.7738 47.4986 59.6466 47.4986 59.49C47.4986 59.3328 47.3604 59.2062 47.1902 59.2062ZM52.8379 59.2062C52.6677 59.2062 52.5295 59.3334 52.5295 59.49C52.5295 59.6466 52.6677 59.7738 52.8379 59.7738C53.008 59.7738 53.1463 59.6466 53.1463 59.49C53.1463 59.3328 53.008 59.2062 52.8379 59.2062ZM58.4855 59.2062C58.3153 59.2062 58.1771 59.3334 58.1771 59.49C58.1771 59.6466 58.3153 59.7738 58.4855 59.7738C58.6557 59.7738 58.7939 59.6466 58.7939 59.49C58.7939 59.3328 58.6557 59.2062 58.4855 59.2062ZM64.1331 59.2062C63.9629 59.2062 63.8247 59.3334 63.8247 59.49C63.8247 59.6466 63.9629 59.7738 64.1331 59.7738C64.3033 59.7738 64.4415 59.6466 64.4415 59.49C64.4415 59.3328 64.3033 59.2062 64.1331 59.2062ZM38.7188 55.566C38.5486 55.566 38.4104 55.6932 38.4104 55.8498C38.4104 56.0064 38.5486 56.1336 38.7188 56.1336C38.889 56.1336 39.0272 56.0064 39.0272 55.8498C39.0272 55.6932 38.889 55.566 38.7188 55.566ZM44.3664 55.566C44.1962 55.566 44.058 55.6932 44.058 55.8498C44.058 56.0064 44.1962 56.1336 44.3664 56.1336C44.5366 56.1336 44.6748 56.0064 44.6748 55.8498C44.6748 55.6932 44.5366 55.566 44.3664 55.566ZM50.014 55.566C49.8439 55.566 49.7057 55.6932 49.7057 55.8498C49.7057 56.0064 49.8439 56.1336 50.014 56.1336C50.1842 56.1336 50.3224 56.0064 50.3224 55.8498C50.3224 55.6932 50.1842 55.566 50.014 55.566ZM55.6617 55.566C55.4915 55.566 55.3533 55.6932 55.3533 55.8498C55.3533 56.0064 55.4915 56.1336 55.6617 56.1336C55.8318 56.1336 55.9701 56.0064 55.9701 55.8498C55.9701 55.6932 55.8318 55.566 55.6617 55.566ZM61.3093 55.566C61.1391 55.566 61.0009 55.6932 61.0009 55.8498C61.0009 56.0064 61.1391 56.1336 61.3093 56.1336C61.4795 56.1336 61.6177 56.0064 61.6177 55.8498C61.6177 55.6932 61.4795 55.566 61.3093 55.566ZM35.895 66.7632C35.7248 66.7632 35.5866 66.8904 35.5866 67.047C35.5866 67.2036 35.7248 67.3308 35.895 67.3308C36.0652 67.3308 36.2034 67.2036 36.2034 67.047C36.2034 66.8904 36.0652 66.7632 35.895 66.7632ZM41.5426 66.7632C41.3724 66.7632 41.2342 66.8904 41.2342 67.047C41.2342 67.2036 41.3724 67.3308 41.5426 67.3308C41.7128 67.3308 41.851 67.2036 41.851 67.047C41.851 66.8904 41.7128 66.7632 41.5426 66.7632ZM47.1902 66.7632C47.0201 66.7632 46.8818 66.8904 46.8818 67.047C46.8818 67.2036 47.0201 67.3308 47.1902 67.3308C47.3604 67.3308 47.4986 67.2036 47.4986 67.047C47.4986 66.8904 47.3604 66.7632 47.1902 66.7632ZM52.8379 66.7632C52.6677 66.7632 52.5295 66.8904 52.5295 67.047C52.5295 67.2036 52.6677 67.3308 52.8379 67.3308C53.008 67.3308 53.1463 67.2036 53.1463 67.047C53.1463 66.8904 53.008 66.7632 52.8379 66.7632ZM58.4855 66.7632C58.3153 66.7632 58.1771 66.8904 58.1771 67.047C58.1771 67.2036 58.3153 67.3308 58.4855 67.3308C58.6557 67.3308 58.7939 67.2036 58.7939 67.047C58.7939 66.8904 58.6557 66.7632 58.4855 66.7632ZM64.1331 66.7632C63.9629 66.7632 63.8247 66.8904 63.8247 67.047C63.8247 67.2036 63.9629 67.3308 64.1331 67.3308C64.3033 67.3308 64.4415 67.2036 64.4415 67.047C64.4415 66.8904 64.3033 66.7632 64.1331 66.7632ZM38.7188 63.1236C38.5486 63.1236 38.4104 63.2508 38.4104 63.4074C38.4104 63.564 38.5486 63.6912 38.7188 63.6912C38.889 63.6912 39.0272 63.564 39.0272 63.4074C39.0272 63.2508 38.889 63.1236 38.7188 63.1236ZM44.3664 63.1236C44.1962 63.1236 44.058 63.2508 44.058 63.4074C44.058 63.564 44.1962 63.6912 44.3664 63.6912C44.5366 63.6912 44.6748 63.564 44.6748 63.4074C44.6748 63.2508 44.5366 63.1236 44.3664 63.1236ZM50.014 63.1236C49.8439 63.1236 49.7057 63.2508 49.7057 63.4074C49.7057 63.564 49.8439 63.6912 50.014 63.6912C50.1842 63.6912 50.3224 63.564 50.3224 63.4074C50.3224 63.2508 50.1842 63.1236 50.014 63.1236ZM55.6617 63.1236C55.4915 63.1236 55.3533 63.2508 55.3533 63.4074C55.3533 63.564 55.4915 63.6912 55.6617 63.6912C55.8318 63.6912 55.9701 63.564 55.9701 63.4074C55.9701 63.2508 55.8318 63.1236 55.6617 63.1236ZM61.3093 63.1236C61.1391 63.1236 61.0009 63.2508 61.0009 63.4074C61.0009 63.564 61.1391 63.6912 61.3093 63.6912C61.4795 63.6912 61.6177 63.564 61.6177 63.4074C61.6177 63.2508 61.4795 63.1236 61.3093 63.1236ZM30.5297 74.4834L30.4091 74.8422C30.501 74.7966 30.5577 74.7054 30.5577 74.601C30.5584 74.562 30.5512 74.523 30.5297 74.4834ZM35.895 74.3208C35.7248 74.3208 35.5866 74.448 35.5866 74.6046C35.5866 74.7612 35.7248 74.8884 35.895 74.8884C36.0652 74.8884 36.2034 74.7612 36.2034 74.6046C36.2034 74.448 36.0652 74.3208 35.895 74.3208ZM41.5426 74.3208C41.3724 74.3208 41.2342 74.448 41.2342 74.6046C41.2342 74.7612 41.3724 74.8884 41.5426 74.8884C41.7128 74.8884 41.851 74.7612 41.851 74.6046C41.851 74.448 41.7128 74.3208 41.5426 74.3208ZM47.1902 74.3208C47.0201 74.3208 46.8818 74.448 46.8818 74.6046C46.8818 74.7612 47.0201 74.8884 47.1902 74.8884C47.3604 74.8884 47.4986 74.7612 47.4986 74.6046C47.4986 74.448 47.3604 74.3208 47.1902 74.3208ZM52.8379 74.3208C52.6677 74.3208 52.5295 74.448 52.5295 74.6046C52.5295 74.7612 52.6677 74.8884 52.8379 74.8884C53.008 74.8884 53.1463 74.7612 53.1463 74.6046C53.1463 74.448 53.008 74.3208 52.8379 74.3208ZM58.4855 74.3208C58.3153 74.3208 58.1771 74.448 58.1771 74.6046C58.1771 74.7612 58.3153 74.8884 58.4855 74.8884C58.6557 74.8884 58.7939 74.7612 58.7939 74.6046C58.7939 74.448 58.6557 74.3208 58.4855 74.3208ZM64.1331 74.3208C63.9629 74.3208 63.8247 74.448 63.8247 74.6046C63.8247 74.7612 63.9629 74.8884 64.1331 74.8884C64.3033 74.8884 64.4415 74.7612 64.4415 74.6046C64.4415 74.448 64.3033 74.3208 64.1331 74.3208ZM69.4965 74.4966C69.4821 74.529 69.4749 74.562 69.4749 74.601C69.4749 74.6988 69.5245 74.7834 69.6027 74.8296L69.4965 74.4966ZM33.0712 70.6806C32.901 70.6806 32.7628 70.8078 32.7628 70.9644C32.7628 71.121 32.901 71.2482 33.0712 71.2482C33.2413 71.2482 33.3796 71.121 33.3796 70.9644C33.3796 70.8078 33.2413 70.6806 33.0712 70.6806ZM38.7188 70.6806C38.5486 70.6806 38.4104 70.8078 38.4104 70.9644C38.4104 71.121 38.5486 71.2482 38.7188 71.2482C38.889 71.2482 39.0272 71.121 39.0272 70.9644C39.0272 70.8078 38.889 70.6806 38.7188 70.6806ZM44.3664 70.6806C44.1962 70.6806 44.058 70.8078 44.058 70.9644C44.058 71.121 44.1962 71.2482 44.3664 71.2482C44.5366 71.2482 44.6748 71.121 44.6748 70.9644C44.6748 70.8078 44.5366 70.6806 44.3664 70.6806ZM50.014 70.6806C49.8439 70.6806 49.7057 70.8078 49.7057 70.9644C49.7057 71.121 49.8439 71.2482 50.014 71.2482C50.1842 71.2482 50.3224 71.121 50.3224 70.9644C50.3224 70.8078 50.1842 70.6806 50.014 70.6806ZM55.6617 70.6806C55.4915 70.6806 55.3533 70.8078 55.3533 70.9644C55.3533 71.121 55.4915 71.2482 55.6617 71.2482C55.8318 71.2482 55.9701 71.121 55.9701 70.9644C55.9701 70.8078 55.8318 70.6806 55.6617 70.6806ZM61.3093 70.6806C61.1391 70.6806 61.0009 70.8078 61.0009 70.9644C61.0009 71.121 61.1391 71.2482 61.3093 71.2482C61.4795 71.2482 61.6177 71.121 61.6177 70.9644C61.6177 70.8078 61.4795 70.6806 61.3093 70.6806ZM66.9569 70.6806C66.7867 70.6806 66.6485 70.8078 66.6485 70.9644C66.6485 71.121 66.7867 71.2482 66.9569 71.2482C67.1271 71.2482 67.2653 71.121 67.2653 70.9644C67.2653 70.8078 67.1271 70.6806 66.9569 70.6806ZM30.2474 81.8778C30.0772 81.8778 29.939 82.005 29.939 82.1616C29.939 82.3182 30.0772 82.4454 30.2474 82.4454C30.4175 82.4454 30.5558 82.3182 30.5558 82.1616C30.5558 82.005 30.4175 81.8778 30.2474 81.8778ZM35.895 81.8778C35.7248 81.8778 35.5866 82.005 35.5866 82.1616C35.5866 82.3182 35.7248 82.4454 35.895 82.4454C36.0652 82.4454 36.2034 82.3182 36.2034 82.1616C36.2034 82.005 36.0652 81.8778 35.895 81.8778ZM41.5426 81.8778C41.3724 81.8778 41.2342 82.005 41.2342 82.1616C41.2342 82.3182 41.3724 82.4454 41.5426 82.4454C41.7128 82.4454 41.851 82.3182 41.851 82.1616C41.851 82.005 41.7128 81.8778 41.5426 81.8778ZM47.1902 81.8778C47.0201 81.8778 46.8818 82.005 46.8818 82.1616C46.8818 82.3182 47.0201 82.4454 47.1902 82.4454C47.3604 82.4454 47.4986 82.3182 47.4986 82.1616C47.4986 82.005 47.3604 81.8778 47.1902 81.8778ZM52.8379 81.8778C52.6677 81.8778 52.5295 82.005 52.5295 82.1616C52.5295 82.3182 52.6677 82.4454 52.8379 82.4454C53.008 82.4454 53.1463 82.3182 53.1463 82.1616C53.1463 82.005 53.008 81.8778 52.8379 81.8778ZM58.4855 81.8778C58.3153 81.8778 58.1771 82.005 58.1771 82.1616C58.1771 82.3182 58.3153 82.4454 58.4855 82.4454C58.6557 82.4454 58.7939 82.3182 58.7939 82.1616C58.7939 82.005 58.6557 81.8778 58.4855 81.8778ZM64.1331 81.8778C63.9629 81.8778 63.8247 82.005 63.8247 82.1616C63.8247 82.3182 63.9629 82.4454 64.1331 82.4454C64.3033 82.4454 64.4415 82.3182 64.4415 82.1616C64.4415 82.005 64.3033 81.8778 64.1331 81.8778ZM69.7807 81.8778C69.6106 81.8778 69.4723 82.005 69.4723 82.1616C69.4723 82.3182 69.6106 82.4454 69.7807 82.4454C69.9509 82.4454 70.0891 82.3182 70.0891 82.1616C70.0891 82.005 69.9509 81.8778 69.7807 81.8778ZM33.0712 78.2376C32.901 78.2376 32.7628 78.3648 32.7628 78.5214C32.7628 78.678 32.901 78.8052 33.0712 78.8052C33.2413 78.8052 33.3796 78.678 33.3796 78.5214C33.3796 78.3648 33.2413 78.2376 33.0712 78.2376ZM38.7188 78.2376C38.5486 78.2376 38.4104 78.3648 38.4104 78.5214C38.4104 78.678 38.5486 78.8052 38.7188 78.8052C38.889 78.8052 39.0272 78.678 39.0272 78.5214C39.0272 78.3648 38.889 78.2376 38.7188 78.2376ZM44.3664 78.2376C44.1962 78.2376 44.058 78.3648 44.058 78.5214C44.058 78.678 44.1962 78.8052 44.3664 78.8052C44.5366 78.8052 44.6748 78.678 44.6748 78.5214C44.6748 78.3648 44.5366 78.2376 44.3664 78.2376ZM50.014 78.2376C49.8439 78.2376 49.7057 78.3648 49.7057 78.5214C49.7057 78.678 49.8439 78.8052 50.014 78.8052C50.1842 78.8052 50.3224 78.678 50.3224 78.5214C50.3224 78.3648 50.1842 78.2376 50.014 78.2376ZM55.6617 78.2376C55.4915 78.2376 55.3533 78.3648 55.3533 78.5214C55.3533 78.678 55.4915 78.8052 55.6617 78.8052C55.8318 78.8052 55.9701 78.678 55.9701 78.5214C55.9701 78.3648 55.8318 78.2376 55.6617 78.2376ZM61.3093 78.2376C61.1391 78.2376 61.0009 78.3648 61.0009 78.5214C61.0009 78.678 61.1391 78.8052 61.3093 78.8052C61.4795 78.8052 61.6177 78.678 61.6177 78.5214C61.6177 78.3648 61.4795 78.2376 61.3093 78.2376ZM66.9569 78.2376C66.7867 78.2376 66.6485 78.3648 66.6485 78.5214C66.6485 78.678 66.7867 78.8052 66.9569 78.8052C67.1271 78.8052 67.2653 78.678 67.2653 78.5214C67.2653 78.3648 67.1271 78.2376 66.9569 78.2376Z" fill="white"/>
<path d="M121.299 185.006C120.799 188.159 120.986 191.411 121.821 194.498C122.213 195.943 122.752 197.336 123.401 198.694C124.222 200.431 125.08 202.126 124.873 204.026C124.673 204.149 125.357 204.129 125.379 203.944C130.897 201.053 137.974 200.524 142.22 195.796C144.231 193.558 145.246 190.721 145.727 187.883C146.249 184.793 146.394 181.372 145.528 178.327C144.799 175.751 143.162 173.266 140.533 172.004C137.818 170.705 134.262 170.813 131.404 171.63C125.237 173.394 122.171 179.517 121.299 185.006Z" fill="#FFC727"/>
<path d="M118.467 222.596C119.22 220.286 119.972 217.976 120.745 215.672C122.259 211.159 123.833 206.662 125.576 202.219C126.62 199.557 127.72 196.921 128.879 194.311C128.681 192.671 128.603 191.036 128.22 189.402C127.759 187.433 127.089 185.532 126.465 183.605C126.426 183.487 126.635 183.424 126.688 183.537C127.926 186.191 129.543 189.587 129.584 192.731C130.931 189.777 132.371 186.863 133.921 183.995C134.008 181.55 134.105 179.18 133.678 176.72C133.659 176.609 133.841 176.576 133.863 176.687C134.278 178.753 134.57 180.968 134.403 183.109C135.59 180.954 136.839 178.825 138.169 176.729C138.289 176.54 138.572 176.734 138.467 176.92C136.393 180.594 134.47 184.345 132.666 188.147C135.166 186.107 138.192 184.562 141.317 183.536C141.455 183.491 141.558 183.674 141.418 183.728C137.862 185.096 134.877 187.03 132.061 189.429C130.763 192.212 129.528 195.02 128.351 197.846C131.804 194.732 136.529 192.682 141.099 191.584C141.255 191.546 141.296 191.765 141.146 191.807C135.857 193.272 131.748 196.031 127.726 199.346C127.259 200.489 126.8 201.635 126.35 202.783C124.646 207.134 123.031 211.516 121.482 215.916C120.739 218.026 120.008 220.138 119.291 222.255C118.519 224.532 117.916 226.937 116.911 229.135C116.816 229.345 116.406 229.297 116.458 229.046C116.91 226.865 117.773 224.722 118.467 222.596Z" fill="#263238"/>
<path d="M127.619 180.561C128.608 181.955 129.268 183.488 129.607 185.12C129.615 185.161 129.545 185.186 129.528 185.144C128.913 183.608 128.19 182.124 127.373 180.671C127.29 180.523 127.527 180.43 127.619 180.561Z" fill="#263238"/>
<path d="M137.463 191.141C138.891 190.394 140.787 189.804 142.415 189.607C142.46 189.602 142.488 189.662 142.442 189.68C141.646 189.984 140.809 190.196 140.003 190.481C139.194 190.768 138.405 191.115 137.587 191.377C137.417 191.431 137.301 191.226 137.463 191.141Z" fill="#263238"/>
<path d="M140.236 178.414C140.738 178.108 141.272 177.716 141.829 177.509C141.917 177.477 141.994 177.577 141.921 177.638C141.48 178.012 140.864 178.29 140.351 178.575C140.25 178.631 140.137 178.475 140.236 178.414Z" fill="#263238"/>
<path d="M102.696 202.253C106.671 203.338 110.665 204.342 114.638 205.415C114.983 205.51 121.702 193.663 119.274 187.56C117.03 181.911 111.892 177.683 105.767 175.765C102.929 174.877 99.4403 174.133 96.4424 174.741C93.777 175.284 91.8947 177.291 91.0282 179.598C89.8481 182.733 90.2419 186.473 90.8834 189.674C91.48 192.642 92.6601 195.565 94.7935 197.897C96.9053 200.206 99.5987 201.407 102.696 202.253Z" fill="#FFC727"/>
<path d="M96.9345 190.994C99.4649 192.168 102.029 193.019 104.727 193.817C106.416 194.317 108.309 194.768 109.928 195.55C108.25 192.106 106.409 188.735 104.453 185.394C101.886 184.71 99.1859 183.644 97.2501 181.972C97.1444 181.88 97.2801 181.744 97.3948 181.818C99.5125 183.195 101.848 184.022 104.191 184.953C103.661 184.054 103.129 183.156 102.585 182.26C102.433 182.011 102.806 181.763 102.988 182.006C105.071 184.772 106.945 187.703 108.635 190.733C109.055 188.06 109.206 185.456 109.044 182.737C109.04 182.667 109.148 182.662 109.16 182.729C109.651 185.605 109.628 188.647 109.062 191.515C110.455 194.075 111.725 196.698 112.865 199.353C113.319 197.758 113.908 196.187 114.301 194.579C114.867 192.264 115.132 189.906 114.872 187.538C114.864 187.469 114.975 187.465 114.988 187.531C115.758 191.728 115.056 196.467 113.32 200.454C113.984 202.052 114.618 203.657 115.198 205.264C118.165 213.493 119.994 221.977 120.472 230.639C120.483 230.839 120.161 230.859 120.137 230.661C119.057 222.164 117.15 213.707 114.214 205.585C113.061 202.397 111.735 199.301 110.279 196.263C107.932 195.625 105.594 194.759 103.288 194.024C101.039 193.307 98.7334 192.478 96.8445 191.117C96.7722 191.065 96.853 190.955 96.9345 190.994Z" fill="#263238"/>
<path d="M93.2292 187.552C95.6599 188.348 97.9634 189.461 100.391 190.268C100.505 190.306 100.439 190.471 100.324 190.45C97.7554 189.962 95.2067 189.231 93.1366 187.68C93.0571 187.621 93.1451 187.525 93.2292 187.552Z" fill="#263238"/>
<path d="M113.075 182.726C113.046 182.608 113.234 182.54 113.274 182.662C113.94 184.723 114.4 186.911 113.751 189.019C113.726 189.101 113.585 189.104 113.579 189.008C113.463 186.886 113.592 184.82 113.075 182.726Z" fill="#263238"/>
<path d="M103.032 177.964C103.846 178.921 104.14 180.279 104.087 181.469C104.084 181.548 103.947 181.594 103.924 181.501C103.628 180.321 103.133 179.246 102.739 178.1C102.682 177.933 102.917 177.828 103.032 177.964Z" fill="#263238"/>
<path d="M149.968 207.478C148.803 210.881 146.035 215.585 141.651 215.622C138.809 215.647 135.947 215.337 133.097 215.3C130.047 215.257 126.989 215.263 123.944 215.43C123.695 215.443 124.31 207.023 131.643 202.923C133.697 201.775 136.209 201.41 138.54 200.946C141.207 200.413 143.954 200.053 146.689 200.165C148.372 200.227 149.773 200.555 150.373 202.142C150.999 203.803 150.527 205.861 149.968 207.478Z" fill="#FFC727"/>
<path d="M146.813 203.22C145.032 203.642 143.234 204.126 141.446 204.649C141.923 204.193 142.39 203.73 142.923 203.322C143.691 202.735 144.536 202.265 145.36 201.751C145.429 201.707 145.387 201.586 145.299 201.618C143.673 202.206 141.983 203.434 140.975 204.783C138.747 205.445 136.539 206.177 134.414 206.979C132.906 207.548 131.516 208.228 130.214 209.015C130.682 208.182 131.108 207.327 131.733 206.581C132.706 205.42 134.023 204.774 135.297 203.95C135.418 203.872 135.315 203.716 135.183 203.77C132.306 204.947 130.556 206.857 129.464 209.477C127.96 210.464 126.583 211.616 125.305 212.952C120.453 218.023 116.632 224.77 116.619 231.655C116.619 231.819 116.905 231.865 116.939 231.694C118.316 224.855 121.251 218.714 126.191 213.406C126.538 213.034 126.895 212.678 127.258 212.335C128.592 212.206 129.914 212.042 131.266 212.061C132.827 212.083 134.376 212.272 135.93 212.389C138.489 212.58 141.32 212.608 143.629 211.423C143.731 211.37 143.662 211.207 143.548 211.246C138.401 212.968 133.002 210.783 127.842 211.81C130.043 209.867 132.544 208.403 135.452 207.294C135.609 207.234 135.767 207.178 135.925 207.119C139.228 207.485 142.716 208.277 145.933 207.289C146.029 207.259 145.991 207.126 145.891 207.149C142.783 207.863 139.802 206.965 136.734 206.822C140.074 205.625 143.478 204.673 146.83 203.485C147.112 203.385 147.119 203.147 146.813 203.22Z" fill="#263238"/>
<path d="M148.271 206.213C146.659 206.457 145.084 206.465 143.463 206.548C143.426 206.55 143.414 206.602 143.454 206.61C145.035 206.937 146.765 206.735 148.305 206.325C148.384 206.303 148.35 206.201 148.271 206.213Z" fill="#263238"/>
<path d="M137.412 203.294C136.535 203.573 135.718 204.258 135.032 204.817C134.948 204.886 135.06 205.024 135.153 204.962C135.556 204.691 135.972 204.437 136.391 204.188C136.773 203.96 137.2 203.78 137.55 203.513C137.659 203.429 137.542 203.252 137.412 203.294Z" fill="#263238"/>
<path d="M111.52 214.25C111.574 214.362 111.399 214.467 111.331 214.349C111.325 214.349 111.325 214.349 111.325 214.343C111.298 214.375 111.264 214.405 111.211 214.412C108.247 215 105.27 215.602 102.253 215.85C99.8281 216.049 97.0336 216.172 94.9114 214.877C92.0354 213.123 90.1433 208.431 91.699 205.45C93.5376 201.911 99.0803 203.833 101.862 205.091C106.139 207.011 109.574 210.259 111.52 214.25Z" fill="#FFC727"/>
<path d="M113.67 215.887C112.039 214.418 110.235 213.195 108.322 212.14C107.011 210.091 104.998 208.39 102.898 207.053C102.793 206.987 102.703 207.14 102.799 207.208C104.61 208.491 106.023 209.996 107.37 211.633C105.23 210.534 102.967 209.629 100.659 208.824C99.8562 207.468 98.547 206.198 97.0545 205.5C97.0245 205.486 96.9867 205.524 97.0161 205.546C98.3175 206.483 99.362 207.457 100.271 208.69C98.9082 208.222 97.5311 207.785 96.1548 207.365C96.0309 207.328 95.9839 207.5 96.1013 207.543C98.5509 208.424 101.056 209.353 103.484 210.425C100.42 210.803 97.6602 210.89 94.5437 210.401C94.4615 210.388 94.4257 210.496 94.5085 210.518C97.5155 211.307 100.963 211.454 103.994 210.648C105.543 211.348 107.054 212.113 108.494 212.967C107.289 212.823 106.078 213.017 104.857 213.241C102.728 213.63 100.646 213.975 98.4668 213.907C98.3853 213.904 98.3644 214.027 98.4472 214.04C102.154 214.627 105.66 213.076 109.334 213.479C110.695 214.34 111.981 215.29 113.161 216.356C115.47 218.441 117.318 220.935 118.742 223.602C120.289 226.499 121.128 229.57 122.378 232.563C122.432 232.694 122.631 232.644 122.606 232.505C121.536 226.603 118.343 220.094 113.67 215.887Z" fill="#263238"/>
<path d="M102.49 207.793C102.274 207.386 101.895 207.04 101.541 206.733C101.23 206.465 100.851 206.119 100.446 205.979C100.409 205.966 100.388 206.012 100.41 206.035C100.714 206.353 101.137 206.585 101.465 206.889C101.795 207.196 102.069 207.553 102.403 207.854C102.45 207.896 102.517 207.844 102.49 207.793Z" fill="#263238"/>
<path d="M96.3754 209.625C95.8257 209.498 95.2441 209.507 94.6847 209.402C94.1194 209.296 93.5933 209.111 93.0462 208.951C92.9739 208.93 92.9321 209.027 92.9954 209.061C93.8978 209.554 95.3217 209.974 96.3754 209.783C96.4634 209.768 96.4575 209.644 96.3754 209.625Z" fill="#263238"/>
<path d="M128.946 225.231L128.46 230.317L126.809 247.487H112.196L110.133 230.317L109.523 225.231H128.946Z" fill="#455A64"/>
<path d="M128.946 225.231L128.46 230.317H110.133L109.523 225.231H128.946Z" fill="#263238"/>
<path d="M130.393 223.844H108.077V227.97H130.393V223.844Z" fill="#455A64"/>
<path d="M218.252 254.213H209.833L160.598 123.415H169.017L218.252 254.213Z" fill="#37474F"/>
<path d="M285.149 254.213H276.729L252.351 189.454L227.494 123.415H235.913L256.206 177.323L285.149 254.213Z" fill="#37474F"/>
<path d="M256.206 177.323C254.975 181.206 253.68 185.271 252.351 189.454L227.494 123.415H235.913L256.206 177.323Z" fill="#263238"/>
<path d="M245.651 266.959H130.953L143.993 30.4056H258.691L245.651 266.959Z" fill="#455A64"/>
<path d="M234.289 260.107H137.9L150.94 37.257H247.329L234.289 260.107Z" fill="white"/>
<path d="M245.651 266.959H241.236L254.276 30.4056H258.691L245.651 266.959Z" fill="#37474F"/>
<path d="M199.056 252.594C199.056 252.624 198.984 254.88 198.854 257.514C198.815 258.36 198.769 259.242 198.717 260.106H155.691C160.242 257.658 171 252.468 171 252.468L170.961 250.332L170.766 238.602L170.577 227.586L198.717 227.328C198.717 227.328 198.965 243.552 199.036 250.032V250.332C199.056 251.544 199.062 252.366 199.056 252.594Z" fill="#D3766A"/>
<path d="M165.215 255.742C165.326 255.711 165.384 255.681 165.391 255.651C165.391 255.651 165.326 255.681 165.215 255.742Z" fill="#263238"/>
<path d="M199.056 252.594C199.056 252.624 198.984 254.88 198.854 257.514C198.815 258.36 198.769 259.242 198.717 260.106H155.691C160.242 257.658 171 252.468 171 252.468L170.961 250.332H199.036C199.056 251.544 199.062 252.366 199.056 252.594Z" fill="#FFC727"/>
<path opacity="0.1" d="M199.056 252.594C199.056 252.624 198.984 254.88 198.854 257.514C198.814 258.36 198.769 259.242 198.717 260.106H183.721L191.786 251.964L193.403 250.332H199.036C199.056 251.544 199.062 252.366 199.056 252.594Z" fill="#020100"/>
<g opacity="0.1">
<path d="M171.73 250.85C171.858 251.116 171.887 251.383 171.893 251.648C171.888 251.914 171.858 252.181 171.73 252.446C171.603 252.181 171.573 251.914 171.567 251.648C171.574 251.383 171.604 251.116 171.73 250.85Z" fill="#020100"/>
<path d="M173.068 250.85C173.195 251.116 173.224 251.383 173.231 251.648C173.225 251.914 173.196 252.181 173.068 252.446C172.94 252.181 172.911 251.914 172.905 251.648C172.911 251.383 172.941 251.116 173.068 250.85Z" fill="#020100"/>
<path d="M174.404 250.85C174.531 251.116 174.561 251.383 174.567 251.648C174.561 251.914 174.532 252.181 174.404 252.446C174.276 252.181 174.247 251.914 174.241 251.648C174.248 251.383 174.278 251.116 174.404 250.85Z" fill="#020100"/>
<path d="M175.742 250.85C175.869 251.116 175.898 251.383 175.905 251.648C175.899 251.914 175.869 252.181 175.742 252.446C175.614 252.181 175.584 251.914 175.579 251.648C175.585 251.383 175.615 251.116 175.742 250.85Z" fill="#020100"/>
<path d="M177.079 250.85C177.206 251.116 177.235 251.383 177.242 251.648C177.236 251.914 177.206 252.181 177.079 252.446C176.951 252.181 176.921 251.914 176.916 251.648C176.922 251.383 176.951 251.116 177.079 250.85Z" fill="#020100"/>
<path d="M178.416 250.85C178.543 251.116 178.572 251.383 178.579 251.648C178.573 251.914 178.544 252.181 178.416 252.446C178.288 252.181 178.259 251.914 178.253 251.648C178.259 251.383 178.289 251.116 178.416 250.85Z" fill="#020100"/>
<path d="M179.752 250.85C179.879 251.116 179.909 251.383 179.915 251.648C179.909 251.914 179.88 252.181 179.752 252.446C179.625 252.181 179.595 251.914 179.589 251.648C179.596 251.383 179.626 251.116 179.752 250.85Z" fill="#020100"/>
<path d="M181.09 250.85C181.217 251.116 181.246 251.383 181.253 251.648C181.247 251.914 181.218 252.181 181.09 252.446C180.962 252.181 180.933 251.914 180.927 251.648C180.933 251.383 180.963 251.116 181.09 250.85Z" fill="#020100"/>
<path d="M182.427 250.85C182.554 251.116 182.584 251.383 182.59 251.648C182.584 251.914 182.555 252.181 182.427 252.446C182.299 252.181 182.27 251.914 182.264 251.648C182.271 251.383 182.3 251.116 182.427 250.85Z" fill="#020100"/>
<path d="M183.764 250.85C183.891 251.116 183.92 251.383 183.927 251.648C183.921 251.914 183.891 252.181 183.764 252.446C183.636 252.181 183.606 251.914 183.601 251.648C183.607 251.383 183.637 251.116 183.764 250.85Z" fill="#020100"/>
<path d="M185.101 250.85C185.228 251.116 185.257 251.383 185.264 251.648C185.258 251.914 185.229 252.181 185.101 252.446C184.973 252.181 184.944 251.914 184.938 251.648C184.945 251.383 184.974 251.116 185.101 250.85Z" fill="#020100"/>
<path d="M186.438 250.85C186.566 251.116 186.595 251.383 186.601 251.648C186.596 251.914 186.566 252.181 186.438 252.446C186.311 252.181 186.281 251.914 186.275 251.648C186.282 251.383 186.311 251.116 186.438 250.85Z" fill="#020100"/>
<path d="M187.775 250.85C187.902 251.116 187.931 251.383 187.938 251.648C187.932 251.914 187.903 252.181 187.775 252.446C187.647 252.181 187.618 251.914 187.612 251.648C187.618 251.383 187.648 251.116 187.775 250.85Z" fill="#020100"/>
<path d="M189.112 250.85C189.239 251.116 189.269 251.383 189.275 251.648C189.269 251.914 189.24 252.181 189.112 252.446C188.984 252.181 188.955 251.914 188.949 251.648C188.956 251.383 188.985 251.116 189.112 250.85Z" fill="#020100"/>
<path d="M190.449 250.85C190.576 251.116 190.606 251.383 190.612 251.648C190.606 251.914 190.577 252.181 190.449 252.446C190.321 252.181 190.292 251.914 190.286 251.648C190.293 251.383 190.322 251.116 190.449 250.85Z" fill="#020100"/>
<path d="M191.786 250.85C191.913 251.116 191.943 251.383 191.949 251.648C191.943 251.914 191.914 252.181 191.786 252.446C191.658 252.181 191.629 251.914 191.623 251.648C191.63 251.383 191.66 251.116 191.786 250.85Z" fill="#020100"/>
<path d="M193.123 250.85C193.25 251.116 193.279 251.383 193.286 251.648C193.28 251.914 193.251 252.181 193.123 252.446C192.995 252.181 192.966 251.914 192.96 251.648C192.966 251.383 192.996 251.116 193.123 250.85Z" fill="#020100"/>
<path d="M194.46 250.85C194.588 251.116 194.617 251.383 194.623 251.648C194.617 251.914 194.588 252.181 194.46 252.446C194.333 252.181 194.303 251.914 194.297 251.648C194.304 251.383 194.333 251.116 194.46 250.85Z" fill="#020100"/>
<path d="M195.797 250.85C195.924 251.116 195.953 251.383 195.96 251.648C195.954 251.914 195.925 252.181 195.797 252.446C195.669 252.181 195.64 251.914 195.634 251.648C195.641 251.383 195.67 251.116 195.797 250.85Z" fill="#020100"/>
<path d="M197.134 250.85C197.261 251.116 197.291 251.383 197.297 251.648C197.291 251.914 197.262 252.181 197.134 252.446C197.006 252.181 196.977 251.914 196.971 251.648C196.978 251.383 197.007 251.116 197.134 250.85Z" fill="#020100"/>
<path d="M198.472 250.85C198.599 251.116 198.628 251.383 198.635 251.648C198.629 251.914 198.599 252.181 198.472 252.446C198.344 252.181 198.314 251.914 198.309 251.648C198.315 251.383 198.344 251.116 198.472 250.85Z" fill="#020100"/>
</g>
<path d="M207.722 114.694C207.722 114.694 207.159 154.879 198.415 187.202C198.108 188.338 201.904 217.331 199.008 250.331H171.542C171.542 250.331 168.155 200.969 168.107 186.604C168.046 168.048 177.643 114.694 177.643 114.694H207.722Z" fill="#D3766A"/>
<path d="M232.992 260.106H193.951C195.529 259.254 197.25 258.354 198.854 257.514C202.342 255.696 205.328 254.178 205.328 254.178L205.282 253.752L205.106 252.264L205.048 251.784C205.048 251.784 205.048 251.772 205.041 251.748L202.296 228.834L229.165 226.722C229.165 226.722 231.245 241.362 232.184 248.352V248.382C232.243 248.838 232.301 249.252 232.353 249.636C232.36 249.69 232.367 249.738 232.373 249.792C232.432 250.248 232.484 250.644 232.523 250.968C232.53 250.98 232.53 250.986 232.53 250.998C232.536 251.106 232.549 251.202 232.562 251.286C232.575 251.394 232.582 251.496 232.595 251.58C232.601 251.604 232.601 251.622 232.601 251.64C232.608 251.712 232.614 251.766 232.621 251.814C232.621 251.856 232.627 251.892 232.627 251.922C232.627 251.994 232.634 252.066 232.64 252.138C232.816 255.132 232.947 257.898 232.992 260.106Z" fill="#D3766A"/>
<path d="M232.992 260.106H193.951C195.529 259.254 197.25 258.354 198.854 257.514C202.342 255.696 205.328 254.178 205.328 254.178L205.282 253.752L205.106 252.264L232.353 249.636C232.36 249.69 232.367 249.738 232.373 249.792C232.438 250.248 232.49 250.644 232.523 250.968C232.53 250.98 232.53 250.986 232.53 250.998C232.543 251.106 232.556 251.202 232.562 251.286C232.575 251.4 232.588 251.496 232.595 251.58C232.601 251.604 232.601 251.622 232.601 251.64C232.608 251.706 232.614 251.766 232.621 251.814C232.621 251.856 232.627 251.892 232.627 251.922C232.627 251.994 232.634 252.066 232.64 252.138C232.816 255.132 232.947 257.898 232.992 260.106Z" fill="#FFC727"/>
<g opacity="0.1">
<path d="M205.406 252.474C205.559 252.728 205.615 252.991 205.648 253.255C205.669 253.52 205.667 253.788 205.566 254.064C205.412 253.81 205.356 253.547 205.324 253.283C205.304 253.017 205.306 252.749 205.406 252.474Z" fill="#020100"/>
<path d="M206.737 252.361C206.891 252.614 206.947 252.877 206.98 253.141C207.001 253.406 206.998 253.674 206.898 253.95C206.744 253.696 206.688 253.433 206.656 253.169C206.635 252.904 206.638 252.636 206.737 252.361Z" fill="#020100"/>
<path d="M208.069 252.247C208.222 252.502 208.278 252.764 208.311 253.028C208.331 253.293 208.329 253.561 208.228 253.836C208.075 253.582 208.019 253.319 207.987 253.055C207.966 252.79 207.969 252.523 208.069 252.247Z" fill="#020100"/>
<path d="M209.4 252.133C209.553 252.387 209.609 252.65 209.642 252.914C209.663 253.179 209.66 253.447 209.56 253.723C209.406 253.469 209.35 253.206 209.317 252.942C209.298 252.677 209.3 252.409 209.4 252.133Z" fill="#020100"/>
<path d="M210.731 252.02C210.885 252.274 210.941 252.536 210.973 252.8C210.994 253.066 210.991 253.333 210.891 253.609C210.737 253.355 210.681 253.093 210.649 252.829C210.629 252.563 210.632 252.296 210.731 252.02Z" fill="#020100"/>
<path d="M212.063 251.906C212.216 252.161 212.272 252.423 212.305 252.687C212.326 252.952 212.323 253.22 212.223 253.496C212.069 253.242 212.013 252.979 211.981 252.715C211.96 252.449 211.963 252.182 212.063 251.906Z" fill="#020100"/>
<path d="M213.394 251.793C213.548 252.047 213.604 252.31 213.636 252.574C213.657 252.839 213.655 253.107 213.554 253.383C213.4 253.129 213.344 252.866 213.312 252.602C213.292 252.336 213.295 252.068 213.394 251.793Z" fill="#020100"/>
<path d="M214.725 251.68C214.879 251.934 214.935 252.196 214.967 252.46C214.988 252.725 214.986 252.993 214.885 253.269C214.731 253.015 214.675 252.752 214.643 252.488C214.623 252.223 214.626 251.955 214.725 251.68Z" fill="#020100"/>
<path d="M216.057 251.566C216.21 251.82 216.266 252.082 216.299 252.346C216.32 252.611 216.317 252.879 216.217 253.155C216.063 252.901 216.007 252.638 215.975 252.374C215.955 252.109 215.957 251.842 216.057 251.566Z" fill="#020100"/>
<path d="M217.389 251.452C217.542 251.707 217.598 251.969 217.63 252.233C217.651 252.498 217.649 252.766 217.548 253.042C217.394 252.788 217.338 252.525 217.306 252.261C217.286 251.995 217.289 251.728 217.389 251.452Z" fill="#020100"/>
<path d="M218.72 251.339C218.873 251.593 218.928 251.855 218.962 252.119C218.983 252.385 218.98 252.652 218.88 252.928C218.726 252.674 218.67 252.412 218.637 252.148C218.617 251.882 218.62 251.614 218.72 251.339Z" fill="#020100"/>
<path d="M220.05 251.225C220.204 251.48 220.26 251.742 220.293 252.006C220.314 252.271 220.311 252.539 220.211 252.815C220.057 252.561 220.001 252.298 219.969 252.034C219.948 251.768 219.951 251.501 220.05 251.225Z" fill="#020100"/>
<path d="M221.382 251.112C221.535 251.366 221.591 251.629 221.624 251.893C221.644 252.158 221.642 252.426 221.541 252.701C221.388 252.448 221.332 252.185 221.3 251.921C221.279 251.655 221.282 251.387 221.382 251.112Z" fill="#020100"/>
<path d="M222.713 250.998C222.866 251.252 222.923 251.515 222.955 251.779C222.976 252.044 222.973 252.311 222.873 252.587C222.719 252.334 222.663 252.071 222.631 251.807C222.611 251.541 222.614 251.274 222.713 250.998Z" fill="#020100"/>
<path d="M224.045 250.885C224.198 251.138 224.253 251.401 224.287 251.665C224.308 251.93 224.305 252.198 224.205 252.474C224.051 252.22 223.995 251.957 223.963 251.693C223.942 251.428 223.945 251.161 224.045 250.885Z" fill="#020100"/>
<path d="M225.376 250.771C225.529 251.025 225.585 251.288 225.618 251.552C225.639 251.817 225.636 252.085 225.536 252.361C225.382 252.107 225.326 251.844 225.294 251.58C225.274 251.314 225.276 251.047 225.376 250.771Z" fill="#020100"/>
<path d="M226.707 250.658C226.861 250.912 226.917 251.174 226.949 251.438C226.97 251.704 226.968 251.971 226.867 252.247C226.713 251.993 226.657 251.731 226.625 251.466C226.605 251.201 226.608 250.933 226.707 250.658Z" fill="#020100"/>
<path d="M228.039 250.544C228.192 250.798 228.248 251.06 228.281 251.324C228.301 251.59 228.299 251.857 228.198 252.133C228.045 251.879 227.988 251.617 227.956 251.352C227.936 251.087 227.939 250.82 228.039 250.544Z" fill="#020100"/>
<path d="M229.37 250.43C229.523 250.684 229.58 250.947 229.612 251.211C229.633 251.476 229.63 251.744 229.53 252.02C229.376 251.766 229.32 251.503 229.287 251.239C229.268 250.973 229.27 250.706 229.37 250.43Z" fill="#020100"/>
<path d="M230.702 250.317C230.855 250.571 230.911 250.834 230.944 251.098C230.965 251.363 230.962 251.63 230.862 251.906C230.708 251.653 230.652 251.39 230.619 251.126C230.599 250.86 230.602 250.593 230.702 250.317Z" fill="#020100"/>
<path d="M232.033 250.204C232.186 250.458 232.242 250.72 232.276 250.984C232.296 251.249 232.294 251.517 232.193 251.792C232.04 251.539 231.984 251.276 231.951 251.012C231.931 250.747 231.933 250.479 232.033 250.204Z" fill="#020100"/>
</g>
<path d="M205.046 251.781L232.193 248.447C232.193 248.447 230.058 206.519 223.842 189.626C221.56 183.424 229.18 159.467 227.242 144.105C227.242 144.105 230.887 129.739 219.184 114.671H177.644C177.644 114.671 181.942 124.472 188.45 135.625C188.45 135.625 190.689 137.82 196.038 139.316C196.038 139.316 190.367 179.022 192.703 193.587C194.313 203.624 205.046 251.781 205.046 251.781Z" fill="#D3766A"/>
<path d="M196.037 139.316C195.588 143.096 195.175 146.878 194.792 150.663C194.393 154.446 194.002 158.23 193.673 162.018C193.345 165.806 193.008 169.593 192.776 173.385C192.527 177.175 192.355 180.973 192.399 184.761C192.389 188.545 192.941 192.309 193.532 196.067C194.129 199.824 194.843 203.566 195.546 207.311C196.265 211.053 197.027 214.789 197.811 218.521C198.576 222.256 199.364 225.988 200.189 229.713C199.26 226.009 198.368 222.296 197.498 218.579C196.649 214.858 195.833 211.13 195.053 207.395C194.271 203.66 193.574 199.91 192.945 196.148C192.335 192.389 191.756 188.596 191.748 184.769C191.723 180.953 191.917 177.149 192.185 173.353C192.447 169.556 192.77 165.763 193.177 161.978C193.567 158.192 194.012 154.411 194.478 150.633C194.965 146.856 195.483 143.084 196.037 139.316Z" fill="#263238"/>
<path d="M177.643 114.671C177.859 113.837 175.455 121.064 175.836 125.142C175.836 125.142 183.281 129.855 189.587 137.021C189.587 137.021 192.948 139.334 196.036 139.316C196.036 139.316 210.595 131.682 226.792 130.252C226.792 130.252 226.799 121.359 219.183 114.671C219.183 114.671 190.634 126.961 177.643 114.671Z" fill="#FFC727"/>
<path d="M192.051 91.3632C182.769 107.05 171.402 116.009 166.093 117.745C162.367 118.964 154.971 116.705 153.216 112.718C149.386 104.015 150.276 90.0144 151.584 84.2046C152.123 81.8088 168.654 83.496 169.298 86.0436C170.289 89.9676 169.748 96.69 169.748 96.69C169.848 95.5506 181.99 85.5324 187.509 82.89C198.582 77.5896 193.74 88.5078 192.051 91.3632Z" fill="#D3766A"/>
<path d="M151.188 86.3352C151.188 86.3352 151.861 79.725 155.722 74.859C158.116 71.8416 163.979 65.7036 176.055 66.633C178.919 66.8538 182.831 69.0372 178.01 70.2402C174.587 71.0946 172.135 70.6848 170.242 71.5158C170.242 71.5158 174.859 74.8368 174.507 77.4684C174.349 78.6444 173.838 81.846 173.054 84.2856C173.054 84.2856 172.431 84.2712 171.643 84.1494C171.643 84.1494 171.229 86.604 167.889 88.809L151.188 86.3352Z" fill="#D3766A"/>
<path d="M158.467 72.279C160.536 71.82 164.937 70.9146 168.818 71.3268C173.128 71.784 181.298 73.7352 180.898 76.6596C180.605 78.804 177.415 78.3114 177.415 78.3114C177.415 78.3114 180.607 79.7724 179.881 81.6564C179.22 83.373 176.777 82.8558 176.777 82.8558C176.777 82.8558 178.548 84.0486 177.565 85.5894C176.382 87.4428 172.866 84.639 169.905 85.5642C169.242 85.7724 158.467 72.279 158.467 72.279Z" fill="#D3766A"/>
<path d="M167.533 75.4374C169.556 75.2994 174.236 76.0698 177.381 78.2352C177.452 78.2844 177.45 78.36 177.375 78.3282C173.362 76.6212 169.284 75.7494 167.528 75.4752C167.505 75.471 167.51 75.4386 167.533 75.4374Z" fill="#263238"/>
<path d="M167.157 79.455C168.916 79.5006 173.701 80.493 176.806 82.788C176.876 82.839 176.868 82.9152 176.794 82.8804C172.681 80.9376 168.884 79.8624 167.15 79.4922C167.126 79.4868 167.134 79.4544 167.157 79.455Z" fill="#263238"/>
<path d="M192.053 91.362C186.198 101.256 179.515 108.474 174.051 112.884L194.061 82.194C195.619 84.15 193.161 89.49 192.053 91.362Z" fill="#263238"/>
<path d="M169.748 96.6888C169.855 97.5324 169.876 98.3808 169.87 99.228C169.869 100.076 169.806 100.922 169.722 101.766C169.533 103.45 169.206 105.135 168.59 106.736C168.702 105.893 168.841 105.062 168.943 104.227C169.04 103.391 169.156 102.558 169.236 101.722L169.748 96.6888Z" fill="#263238"/>
<path d="M177.642 114.694H219.183C219.183 114.694 216.075 95.4211 205.097 83.4553C201.613 79.6579 194.434 79.5973 191.378 81.9319C190.615 82.5151 178.902 93.5593 178.101 97.4089C177.393 100.811 180.398 104.586 180.398 104.586C180.398 104.586 177.365 109.363 177.642 114.694Z" fill="#D3766A"/>
<path d="M216.527 104.364C202.814 105.995 180.399 104.586 180.399 104.586C180.399 104.586 180.393 104.58 180.386 104.574C180.204 104.334 177.42 100.698 178.104 97.41C178.9 93.558 190.616 82.512 191.379 81.93C194.437 79.596 201.615 79.656 205.097 83.454C210.822 89.694 214.408 97.92 216.527 104.364Z" fill="#FFC727"/>
<path d="M199.173 82.3356C198.99 82.974 195.018 87.1164 191.099 86.9772C189.823 86.9304 189.706 81.732 189.706 81.732L189.579 81.348L187.816 75.9696L196.177 71.9208L197.386 71.385C197.386 71.385 197.739 72.8778 198.154 74.7402C198.173 74.8266 198.194 74.913 198.213 75.0054C198.241 75.1104 198.267 75.2094 198.287 75.3078C198.353 75.5856 198.42 75.8688 198.479 76.1526C198.524 76.368 198.57 76.578 198.607 76.8054C198.652 77.0334 198.689 77.2548 198.734 77.4822C199.11 79.7334 199.245 82.0644 199.173 82.3356Z" fill="#D3766A"/>
<path d="M198.154 74.7402C196.207 79.0188 191.669 80.7612 189.579 81.348L187.816 75.9696L196.177 71.9208L197.386 71.385C197.386 71.385 197.739 72.8784 198.154 74.7402Z" fill="#263238"/>
<path d="M181.117 66.7746C180.78 70.3854 180.786 72.759 181.687 74.6568C183.333 78.1236 187.288 78.687 188.698 78.7968C190.214 78.915 195.048 78.984 197.855 75.1308C198.841 73.7772 199.241 72.0144 199.624 69.4962C201.076 59.925 197.016 56.5764 192.352 55.9842C187.687 55.3914 182.014 57.1458 181.117 66.7746Z" fill="#D3766A"/>
<path d="M199.071 70.1958C197.337 70.209 197.191 66.8562 197.191 66.8562C197.191 66.8562 193.685 66.6438 192.877 61.9326C192.877 61.9326 192.791 64.0962 194.141 65.8662C194.141 65.8662 188.006 64.8714 185.761 59.9472C185.761 59.9472 186.617 62.4372 187.526 63.3606C187.526 63.3606 184.984 62.5308 183.865 60.5142C183.865 60.5142 182.577 63.1926 181.687 63.8982C181.687 63.8982 182.687 53.964 192.626 55.6578C192.626 55.6578 198.869 56.439 200.78 61.1508C202.689 65.862 199.071 70.1958 199.071 70.1958Z" fill="#263238"/>
<path d="M199.844 73.0476C199.67 73.1082 199.51 73.1448 199.358 73.1634C199.178 73.1934 199.013 73.1934 198.863 73.176C198.626 73.1556 198.425 73.0872 198.257 72.9966C198.102 72.918 197.968 72.8166 197.86 72.7152C197.581 72.4506 197.461 72.1728 197.461 72.1728L198.039 69.5904C198.039 69.5904 200.331 66.5724 201.816 67.3236C203.307 68.0754 201.591 72.4494 199.844 73.0476Z" fill="#D3766A"/>
<path d="M201.292 68.5644C201.32 68.562 201.326 68.5986 201.301 68.607C200.077 69.0648 199.434 70.11 198.984 71.1936C199.348 70.7766 199.843 70.5474 200.45 70.9458C200.482 70.9668 200.452 71.0124 200.417 71.0058C199.915 70.9074 199.554 70.9878 199.215 71.358C198.976 71.6202 198.812 71.9508 198.64 72.2532C198.584 72.354 198.385 72.3 198.427 72.1842C198.43 72.1758 198.434 72.1668 198.437 72.1578C198.405 70.722 199.616 68.7108 201.292 68.5644Z" fill="#263238"/>
<path d="M199.697 72.6414C199.645 72.8838 199.388 73.041 199.125 72.9924C198.861 72.9438 198.691 72.708 198.743 72.4656C198.796 72.2232 199.053 72.066 199.316 72.1146C199.579 72.1626 199.75 72.399 199.697 72.6414Z" fill="white"/>
<path d="M200.697 71.9646C200.66 72.1362 200.478 72.2472 200.292 72.2124C200.105 72.1782 199.985 72.0114 200.023 71.8398C200.06 71.6682 200.241 71.5572 200.427 71.5914C200.613 71.6262 200.734 71.793 200.697 71.9646Z" fill="white"/>
<path d="M182.715 64.9146C182.928 64.8042 183.145 64.7352 183.367 64.6464C183.619 64.5462 183.808 64.4424 184.089 64.4898C184.24 64.515 184.365 64.6872 184.352 64.8246C184.321 65.1444 184.047 65.3376 183.75 65.4696C183.427 65.613 183.138 65.6478 182.791 65.5716C182.453 65.4978 182.434 65.0598 182.715 64.9146Z" fill="#263238"/>
<path d="M189.862 66.7218C189.652 66.606 189.438 66.5316 189.218 66.4374C188.969 66.3306 188.784 66.2226 188.501 66.2628C188.349 66.2844 188.218 66.4536 188.228 66.591C188.248 66.9114 188.517 67.1112 188.81 67.251C189.129 67.4028 189.416 67.4442 189.766 67.377C190.107 67.311 190.139 66.8742 189.862 66.7218Z" fill="#263238"/>
<path d="M188.186 68.5476C188.194 68.5236 188.238 68.583 188.234 68.6094C188.141 69.252 188.154 70.0026 188.764 70.275C188.783 70.2834 188.778 70.3158 188.754 70.3104C187.992 70.1394 187.987 69.1428 188.186 68.5476Z" fill="#263238"/>
<path d="M188.885 67.9314C190.021 67.9566 189.884 70.0446 188.831 70.0218C187.796 69.999 187.933 67.911 188.885 67.9314Z" fill="#263238"/>
<path d="M189.324 68.067C189.514 68.196 189.695 68.4156 189.932 68.4504C190.207 68.4912 190.43 68.2842 190.625 68.0838C190.645 68.0628 190.663 68.0826 190.662 68.1102C190.642 68.511 190.447 68.9118 189.978 68.9454C189.549 68.976 189.267 68.6046 189.185 68.1966C189.169 68.121 189.247 68.0148 189.324 68.067Z" fill="#263238"/>
<path d="M184.076 68.0388C184.072 68.0136 184.019 68.0664 184.019 68.0934C184.004 68.7414 183.868 69.4818 183.219 69.6654C183.199 69.6708 183.199 69.7038 183.223 69.702C184.006 69.6396 184.175 68.655 184.076 68.0388Z" fill="#263238"/>
<path d="M183.487 67.3326C182.361 67.1988 182.152 69.282 183.196 69.4062C184.223 69.528 184.432 67.4448 183.487 67.3326Z" fill="#263238"/>
<path d="M183.002 67.4292C182.812 67.5246 182.615 67.71 182.4 67.7046C182.151 67.6986 181.991 67.458 181.854 67.2282C181.839 67.2048 181.82 67.2204 181.817 67.248C181.765 67.6452 181.866 68.0718 182.274 68.1834C182.647 68.2854 182.959 67.9674 183.102 67.5792C183.128 67.5084 183.078 67.3908 183.002 67.4292Z" fill="#263238"/>
<path d="M188.898 74.304C188.727 74.4534 188.555 74.6598 188.3 74.676C188.054 74.6916 187.769 74.5854 187.545 74.5026C187.523 74.4942 187.5 74.5158 187.514 74.5356C187.693 74.787 188.075 74.9478 188.402 74.8998C188.721 74.853 188.884 74.6016 188.965 74.3346C188.977 74.2968 188.923 74.2824 188.898 74.304Z" fill="#263238"/>
<path d="M187.642 73.0686C186.809 72.6324 185.661 72.5832 184.932 72.5688C184.854 72.5472 184.803 72.3936 184.799 72.3228L184.8 72.318C184.804 72.2952 185.049 70.986 185.049 70.986C184.843 71.0484 183.796 71.3196 183.85 71.07C184.305 69.0048 184.811 66.7074 185.742 64.7436C185.77 64.677 185.882 64.7088 185.866 64.7766C185.515 66.7782 184.779 68.7072 184.392 70.7124C184.723 70.6458 185.266 70.5132 185.541 70.5552C185.614 70.5852 185.199 71.9526 185.191 72.1722C185.191 72.1722 186.729 72.147 187.694 72.795C187.982 72.987 188.039 73.2768 187.642 73.0686Z" fill="#263238"/>
<path d="M197.111 57.1458C197.379 58.3158 203.867 60.3018 207.685 56.6802C211.445 53.1126 208.71 47.34 202.908 48.7596C199.241 49.656 196.543 54.6708 197.111 57.1458Z" fill="#263238"/>
<path d="M208.982 51.0498C208.087 49.6548 206.666 48.639 205.136 48.1116C203.591 47.5788 201.891 47.7948 200.651 48.7428C199.36 49.6512 198.496 51.0384 197.882 52.485C197.586 53.2188 197.356 53.9826 197.206 54.7632C197.042 55.5432 196.957 56.3442 197.111 57.1446C196.744 56.3904 196.727 55.5336 196.739 54.7146C196.782 53.889 196.919 53.064 197.171 52.2636C197.676 50.6772 198.575 49.11 200.062 48.0372C200.806 47.5122 201.709 47.124 202.663 47.0328C203.614 46.944 204.573 47.109 205.411 47.4672C207.088 48.174 208.42 49.4994 208.982 51.0498Z" fill="#263238"/>
<path d="M200.182 82.242C195.2 84.2208 199.19 97.3662 207.846 97.923C216.501 98.4798 208.309 79.0134 200.182 82.242Z" fill="#D3766A"/>
<path d="M201.9 90.3996C211.206 99.9516 224.977 106.198 227.519 106.539C231.493 107.072 242.053 107.119 240.219 98.592C238.949 92.6868 214.901 83.9238 205.031 82.0236C200.207 81.0948 196.424 84.78 201.9 90.3996Z" fill="#D3766A"/>
<path d="M218.831 114.529C218.726 116.584 229.211 127.474 231.102 124.997C239.999 113.348 240.857 102.485 240.396 99.702C239.792 96.0534 235.137 94.3476 232.623 95.0424C228.98 96.0486 219.305 105.235 218.831 114.529Z" fill="#D3766A"/>
<path d="M223.595 111.212C223.595 111.212 216.491 111.991 211.872 112.702C209.295 113.098 204.942 114.14 203.193 115.228C200.577 116.856 190.769 125.2 192.916 127.433C194.859 129.454 202.298 121.3 202.298 121.3C202.298 121.3 194.002 128.917 196.828 130.954C199.655 132.991 206.728 122.75 206.728 122.75C206.728 122.75 198.394 130.752 201.67 132.428C204.146 133.695 211.119 124.752 211.119 124.752C211.119 124.752 204.009 131.675 206.494 133.079C209.24 134.631 216.24 126.747 216.24 126.747C223.209 129.337 228.496 127.79 231.102 124.996C231.635 124.425 223.595 111.212 223.595 111.212Z" fill="#D3766A"/>
<path d="M204.984 118.496C203.974 119.359 202.945 120.226 202.023 121.167C201.1 122.109 200.212 123.081 199.388 124.098C197.368 126.592 196.527 128.444 196.593 128.335C198.141 125.752 201.389 122.333 202.312 121.391C203.234 120.451 204.103 119.468 205.024 118.527C205.047 118.504 205.008 118.476 204.984 118.496Z" fill="#263238"/>
<path d="M208.74 121.501C207.502 122.654 206.227 123.756 205.045 124.959C203.868 126.156 202.866 127.387 201.781 128.656C201.698 128.753 201.782 128.762 201.87 128.668C203.008 127.44 204.164 126.386 205.318 125.17C206.468 123.959 207.575 122.698 208.771 121.526C208.79 121.508 208.758 121.484 208.74 121.501Z" fill="#263238"/>
<path d="M212.468 123.547C210.479 125.219 208.827 127.227 207.259 129.232C207.18 129.332 207.291 129.333 207.377 129.235C209.07 127.315 210.384 125.798 212.532 123.611C212.565 123.577 212.51 123.512 212.468 123.547Z" fill="#263238"/>
<path d="M196.185 121.071C197.254 120.105 198.321 119.137 199.396 118.175C200.447 117.235 202.231 115.649 203.538 114.748C205.969 113.071 218.336 111.675 219.187 111.629C219.226 111.627 219.217 111.762 219.178 111.77C217.925 112.008 206.942 113.365 204.27 114.921C203.121 115.589 202.091 116.371 201.133 117.245C200.148 118.144 199.163 119.044 198.174 119.94C197.152 120.865 191.73 125.729 193.314 127.178C194.297 128.078 197.167 125.992 199.159 124.409C199.206 124.372 199.264 124.443 199.217 124.479C198.634 124.925 196.556 126.868 195.142 127.59C194.635 127.849 193.84 128.167 192.991 127.491C191.173 126.042 195.653 121.551 196.185 121.071Z" fill="#263238"/>
<path d="M222.06 105.152C222.06 105.152 223.802 101.224 228.611 97.5246L222.06 105.152Z" fill="#263238"/>
<path d="M210.161 97.4016C209.686 97.1616 209.24 96.882 208.801 96.5928C208.361 96.306 207.941 95.9952 207.527 95.6772C206.709 95.0328 205.927 94.3452 205.242 93.5742C205.677 93.8712 206.087 94.1892 206.504 94.5006L207.738 95.448C208.552 96.0894 209.368 96.726 210.161 97.4016Z" fill="#263238"/>
<path d="M205.458 95.2464C205.964 95.322 206.434 95.4564 206.903 95.5932C207.371 95.739 207.829 95.8842 208.298 96.0732C207.784 96.1158 207.28 96.0162 206.802 95.8782C206.327 95.727 205.865 95.5368 205.458 95.2464Z" fill="#263238"/>
<path d="M187.68 113.428C187.919 113.713 188.118 114.022 188.26 114.358C188.392 114.701 188.555 115.028 188.429 115.514C188.39 115.579 188.371 115.646 188.298 115.701C188.227 115.756 188.15 115.811 188.07 115.817C187.891 115.856 187.793 115.831 187.66 115.802C187.378 115.737 187.194 115.429 187.219 115.223C187.23 114.801 187.443 114.485 187.68 114.201C187.612 114.548 187.547 114.911 187.599 115.191C187.642 115.331 187.686 115.378 187.788 115.393C187.838 115.399 187.934 115.407 187.939 115.395C187.964 115.393 187.947 115.39 187.971 115.357C188.039 115.159 187.962 114.778 187.896 114.458C187.821 114.125 187.746 113.782 187.68 113.428Z" fill="#263238"/>
<g opacity="0.1">
<path d="M247.33 37.26L246.737 47.442L144.927 140.04L146.726 109.23L225.853 37.26H247.33Z" fill="#EBEBEB"/>
<path d="M236.774 217.596L234.974 248.412L222.117 260.106H190.039L236.774 217.596Z" fill="#EBEBEB"/>
<path d="M244.761 81.204L243.659 100.02L141.849 192.618L142.951 173.808L244.761 81.204Z" fill="#EBEBEB"/>
<path d="M239.186 176.412L238.084 195.228L166.756 260.106H147.169L239.186 176.412Z" fill="#EBEBEB"/>
<path d="M243.229 107.388L243.059 110.256L141.25 202.86L141.413 199.992L243.229 107.388Z" fill="#EBEBEB"/>
<path d="M239.949 163.392L239.78 166.254L137.97 258.858L138.139 255.996L239.949 163.392Z" fill="#EBEBEB"/>
<path d="M176.92 37.26L149.478 62.22L149.647 59.352L173.934 37.26H176.92Z" fill="#EBEBEB"/>
</g>
<path d="M61.1645 255.055C61.1906 255.964 60.9533 266.663 61.4697 266.961C63.0567 267.886 105.536 268.738 106.995 268.297C108.447 267.85 107.169 264 105.557 262.811C103.714 261.459 103.417 261.715 82.7946 255.034L88.1345 230.807L66.1908 229.712C66.1908 229.712 61.1183 253.595 61.1645 255.055Z" fill="#D3766A"/>
<path d="M106.993 268.296C105.539 268.74 63.0548 267.888 61.4705 266.964C60.9554 266.664 61.1901 255.966 61.164 255.054C61.1575 254.766 61.3466 253.608 61.6595 251.934L83.2799 252.84L82.7974 255.036C103.414 261.714 103.714 261.462 105.559 262.812C107.169 264 108.447 267.852 106.993 268.296Z" fill="#FFC727"/>
<path opacity="0.1" d="M106.993 268.296C106.198 268.536 93.1774 268.392 81.2588 268.062C83.5343 264.312 86.5204 259.38 88.0983 256.746C103.485 261.678 103.89 261.588 105.559 262.812C107.169 264 108.447 267.852 106.993 268.296Z" fill="#020100"/>
<g opacity="0.1">
<path d="M61.9928 252.257C62.1069 252.527 62.1238 252.794 62.1173 253.061C62.099 253.327 62.0567 253.591 61.9165 253.852C61.8017 253.58 61.7848 253.314 61.7919 253.048C61.8109 252.782 61.8532 252.518 61.9928 252.257Z" fill="#020100"/>
<path d="M63.3287 252.311C63.4428 252.583 63.4597 252.849 63.4532 253.115C63.435 253.381 63.3926 253.646 63.2524 253.906C63.1377 253.635 63.1207 253.368 63.1279 253.102C63.1468 252.836 63.1892 252.572 63.3287 252.311Z" fill="#020100"/>
<path d="M64.6641 252.365C64.7782 252.637 64.7952 252.904 64.7887 253.169C64.7704 253.435 64.728 253.7 64.5879 253.96C64.4731 253.689 64.4562 253.422 64.4633 253.156C64.4829 252.89 64.5246 252.626 64.6641 252.365Z" fill="#020100"/>
<path d="M66.0001 252.419C66.1142 252.691 66.1311 252.958 66.1246 253.223C66.1064 253.489 66.064 253.753 65.9238 254.014C65.809 253.743 65.7921 253.476 65.7993 253.21C65.8182 252.944 65.8606 252.68 66.0001 252.419Z" fill="#020100"/>
<path d="M67.336 252.473C67.4501 252.745 67.4671 253.012 67.4606 253.277C67.4423 253.543 67.3999 253.807 67.2597 254.068C67.145 253.797 67.128 253.53 67.1352 253.264C67.1541 252.999 67.1965 252.734 67.336 252.473Z" fill="#020100"/>
<path d="M68.671 252.528C68.7851 252.799 68.802 253.066 68.7955 253.332C68.7773 253.598 68.7349 253.862 68.5947 254.123C68.4799 253.852 68.463 253.585 68.4702 253.319C68.4897 253.053 68.5315 252.788 68.671 252.528Z" fill="#020100"/>
<path d="M70.0069 252.582C70.121 252.853 70.138 253.12 70.1315 253.386C70.1132 253.652 70.0708 253.916 69.9306 254.177C69.8159 253.906 69.7989 253.639 69.8061 253.373C69.825 253.107 69.8674 252.842 70.0069 252.582Z" fill="#020100"/>
<path d="M71.3429 252.636C71.457 252.907 71.4739 253.174 71.4674 253.44C71.4491 253.706 71.4068 253.97 71.2666 254.231C71.1518 253.96 71.1349 253.693 71.142 253.427C71.1609 253.162 71.2033 252.897 71.3429 252.636Z" fill="#020100"/>
<path d="M72.6783 252.691C72.7924 252.962 72.8094 253.228 72.8028 253.495C72.7846 253.76 72.7422 254.025 72.602 254.285C72.4873 254.014 72.4703 253.747 72.4775 253.481C72.497 253.216 72.5388 252.951 72.6783 252.691Z" fill="#020100"/>
<path d="M74.0142 252.745C74.1283 253.016 74.1453 253.282 74.1388 253.549C74.1205 253.814 74.0781 254.079 73.938 254.339C73.8232 254.068 73.8063 253.801 73.8134 253.535C73.833 253.27 73.8747 253.005 74.0142 252.745Z" fill="#020100"/>
<path d="M75.3502 252.799C75.4643 253.07 75.4812 253.337 75.4747 253.603C75.4565 253.868 75.4141 254.133 75.2739 254.393C75.1591 254.122 75.1422 253.855 75.1494 253.589C75.1683 253.324 75.2107 253.06 75.3502 252.799Z" fill="#020100"/>
<path d="M76.6856 252.853C76.7997 253.124 76.8167 253.391 76.8102 253.657C76.7919 253.922 76.7495 254.187 76.6093 254.447C76.4946 254.176 76.4776 253.909 76.4848 253.643C76.5044 253.378 76.5468 253.114 76.6856 252.853Z" fill="#020100"/>
<path d="M78.0216 252.907C78.1357 253.178 78.1526 253.445 78.1461 253.711C78.1278 253.977 78.0855 254.242 77.9453 254.502C77.8305 254.231 77.8136 253.964 77.8208 253.698C77.8403 253.432 77.882 253.168 78.0216 252.907Z" fill="#020100"/>
<path d="M79.3575 252.961C79.4716 253.232 79.4886 253.499 79.482 253.765C79.4631 254.031 79.4214 254.296 79.2812 254.556C79.1665 254.285 79.1495 254.018 79.1567 253.752C79.1756 253.486 79.218 253.222 79.3575 252.961Z" fill="#020100"/>
<path d="M80.6934 253.015C80.8075 253.286 80.8245 253.553 80.818 253.819C80.7997 254.085 80.7573 254.349 80.6172 254.61C80.5024 254.339 80.4855 254.072 80.4926 253.806C80.5115 253.541 80.5539 253.276 80.6934 253.015Z" fill="#020100"/>
<path d="M82.0289 253.07C82.143 253.341 82.1599 253.607 82.1534 253.874C82.1352 254.14 82.0928 254.404 81.9526 254.665C81.8379 254.393 81.8209 254.126 81.8281 253.861C81.8476 253.595 81.8894 253.33 82.0289 253.07Z" fill="#020100"/>
</g>
<path d="M83.8345 248.351C83.8345 248.351 92.7187 213.572 94.3904 200.417C95.0574 195.169 95.0248 149.297 96.5492 143.02C96.5492 143.02 102.551 133.985 104 122.15C104.002 122.129 74.9967 122.146 74.9967 122.146C74.9967 122.146 73.6046 128.285 73.7866 135.799C73.8831 139.783 74.9373 142.748 76.4174 146.108C76.8484 147.087 74.2912 188.984 72.4884 198.82C71.856 202.27 62.5356 247.388 62.5356 247.388L83.8345 248.351Z" fill="#D3766A"/>
<path d="M89.2882 259.303C89.0913 264.814 89.1089 269.045 89.6018 269.375C91.117 270.397 132.655 273.071 134.142 272.722C135.623 272.366 134.632 268.445 133.11 267.158C132.184 266.378 111.913 257.576 111.913 257.576L115.055 233.829L93.9526 232.873C93.9526 232.873 89.3188 258.446 89.2882 259.303Z" fill="#D3766A"/>
<path d="M134.142 272.724C132.655 273.072 91.1165 270.396 89.6038 269.376C89.1083 269.046 89.0887 264.816 89.2909 259.302C89.2974 259.056 89.6886 256.752 90.2428 253.596L112.248 255.048L111.915 257.574C111.915 257.574 132.186 266.376 133.112 267.156C134.631 268.446 135.622 272.364 134.142 272.724Z" fill="#FFC727"/>
<g opacity="0.1">
<path d="M91.0703 254.029C91.1779 254.302 91.1884 254.57 91.176 254.836C91.1512 255.101 91.1029 255.364 90.9562 255.622C90.848 255.349 90.8376 255.082 90.8506 254.816C90.8767 254.551 90.9249 254.287 91.0703 254.029Z" fill="#020100"/>
<path d="M92.4048 254.11C92.5124 254.383 92.5228 254.651 92.5104 254.917C92.4857 255.182 92.4374 255.445 92.2907 255.703C92.1825 255.43 92.172 255.163 92.1851 254.897C92.2105 254.632 92.2588 254.368 92.4048 254.11Z" fill="#020100"/>
<path d="M93.7392 254.19C93.8468 254.463 93.8572 254.731 93.8448 254.997C93.82 255.262 93.7718 255.525 93.6257 255.783C93.5169 255.51 93.5071 255.243 93.5201 254.977C93.5455 254.712 93.5938 254.448 93.7392 254.19Z" fill="#020100"/>
<path d="M95.0728 254.271C95.1804 254.544 95.1908 254.812 95.1784 255.077C95.1536 255.343 95.1054 255.606 94.9587 255.864C94.8504 255.591 94.84 255.323 94.8531 255.058C94.8791 254.793 94.9274 254.529 95.0728 254.271Z" fill="#020100"/>
<path d="M96.4077 254.352C96.5153 254.625 96.5257 254.893 96.5134 255.158C96.4886 255.424 96.4403 255.687 96.2936 255.945C96.1854 255.672 96.175 255.404 96.188 255.139C96.2134 254.873 96.2617 254.609 96.4077 254.352Z" fill="#020100"/>
<path d="M97.7416 254.432C97.8491 254.705 97.8596 254.973 97.8472 255.239C97.8224 255.504 97.7742 255.767 97.6281 256.025C97.5199 255.752 97.5094 255.485 97.5225 255.219C97.5473 254.954 97.5962 254.69 97.7416 254.432Z" fill="#020100"/>
<path d="M99.0757 254.513C99.1833 254.786 99.1937 255.053 99.1813 255.319C99.1566 255.584 99.1083 255.848 98.9616 256.106C98.8534 255.833 98.8429 255.565 98.856 255.299C98.8821 255.035 98.9303 254.771 99.0757 254.513Z" fill="#020100"/>
<path d="M100.41 254.594C100.517 254.867 100.528 255.134 100.515 255.4C100.491 255.665 100.442 255.929 100.296 256.187C100.187 255.914 100.177 255.646 100.19 255.38C100.216 255.115 100.264 254.852 100.41 254.594Z" fill="#020100"/>
<path d="M101.744 254.674C101.852 254.947 101.862 255.215 101.85 255.481C101.825 255.746 101.777 256.009 101.631 256.267C101.522 255.994 101.512 255.727 101.525 255.461C101.55 255.196 101.598 254.932 101.744 254.674Z" fill="#020100"/>
<path d="M103.078 254.755C103.186 255.028 103.196 255.295 103.184 255.561C103.159 255.826 103.111 256.09 102.965 256.348C102.856 256.075 102.846 255.807 102.859 255.541C102.884 255.277 102.933 255.013 103.078 254.755Z" fill="#020100"/>
<path d="M104.412 254.836C104.52 255.109 104.53 255.376 104.518 255.642C104.493 255.907 104.445 256.171 104.298 256.429C104.19 256.156 104.179 255.888 104.192 255.622C104.218 255.357 104.267 255.093 104.412 254.836Z" fill="#020100"/>
<path d="M105.746 254.916C105.854 255.189 105.864 255.457 105.852 255.722C105.827 255.988 105.779 256.251 105.633 256.509C105.525 256.236 105.514 255.968 105.527 255.702C105.553 255.437 105.601 255.174 105.746 254.916Z" fill="#020100"/>
<path d="M107.081 254.997C107.189 255.27 107.199 255.538 107.187 255.803C107.162 256.069 107.114 256.332 106.967 256.59C106.859 256.317 106.848 256.049 106.861 255.784C106.887 255.518 106.935 255.254 107.081 254.997Z" fill="#020100"/>
<path d="M108.415 255.077C108.523 255.35 108.533 255.618 108.521 255.884C108.496 256.149 108.448 256.412 108.302 256.67C108.193 256.397 108.183 256.13 108.196 255.864C108.221 255.599 108.27 255.335 108.415 255.077Z" fill="#020100"/>
<path d="M109.749 255.158C109.857 255.431 109.867 255.698 109.855 255.964C109.83 256.229 109.782 256.493 109.635 256.751C109.527 256.478 109.516 256.21 109.529 255.944C109.555 255.679 109.604 255.416 109.749 255.158Z" fill="#020100"/>
<path d="M111.083 255.239C111.191 255.512 111.201 255.779 111.189 256.045C111.164 256.31 111.116 256.574 110.969 256.832C110.861 256.559 110.85 256.291 110.863 256.025C110.889 255.76 110.938 255.496 111.083 255.239Z" fill="#020100"/>
</g>
<path d="M89.6895 144.383C89.6961 144.401 99.5882 194.759 99.6645 195.761C99.6964 196.154 90.9212 249.756 90.9212 249.756L112.849 250.504C112.849 250.504 120.513 198.832 120.042 192.835C119.985 192.137 113.052 146.585 103.999 122.15H74.9961C74.9961 122.15 74.6903 133.334 81.7853 143.717L89.6895 144.383Z" fill="#D3766A"/>
<path d="M89.6895 144.383C90.2789 146.733 90.7985 149.094 91.3071 151.456C91.8176 153.818 92.2701 156.19 92.7539 158.557C93.1861 160.933 93.6458 163.303 94.052 165.682L94.6486 169.253C94.824 170.447 95.0215 171.638 95.1773 172.835C94.8761 171.662 94.616 170.482 94.3337 169.304L93.5584 165.763C93.0499 163.4 92.5954 161.029 92.1129 158.662C91.6826 156.286 91.2203 153.916 90.8155 151.536C90.4099 149.158 90.0141 146.776 89.6895 144.383Z" fill="#263238"/>
<path d="M74.9965 122.15C74.0179 122.018 73.5399 131.351 73.9135 131.796C74.2865 132.241 79.436 142.717 81.2251 143.564C82.0094 143.936 88.7778 144.604 89.69 144.383C90.6021 144.163 95.6434 135.384 99.7086 134.237C103.774 133.09 107.481 133.512 107.769 133.276C108.056 133.039 104.66 123.033 104 122.15C103.34 121.268 98.5807 125.328 74.9965 122.15Z" fill="#FFC727"/>
<path d="M93.6691 91.2042C95.5828 95.4084 97.2036 98.3556 98.9001 101.266C103.852 109.759 108.329 115.857 112.119 117.514C115.691 119.075 119.169 117.799 120.867 113.79C122.867 109.066 123.505 103.058 124.199 96.9594C124.576 93.6462 124.925 90.2652 124.805 89.3952C124.47 86.9682 113.621 89.2494 113.918 91.851C114.103 93.474 114.514 95.493 114.345 98.19C114.079 102.446 113.783 105.862 113.783 105.862C113.998 107.824 108.211 99.78 104.194 94.7388C101.544 91.413 101.408 88.0296 99.5684 86.385C92.5125 80.0778 92.3045 88.2054 93.6691 91.2042Z" fill="#D3766A"/>
<path d="M124.563 90.9402C125.029 88.779 125.599 81.267 124.56 79.599C123.52 77.9304 119.564 73.1184 117.943 72.4086C116.322 71.6988 110.427 70.0704 108.958 70.6638C107.781 71.139 107.553 72.3138 111.045 73.2324C114.309 74.0916 115.881 75.33 116.736 75.78C117.609 76.239 119.147 80.5656 118.398 81.7128C117.957 82.389 115.627 84.018 114.296 83.2914C112.966 82.5648 112.177 79.9206 110.723 78.5526C109.268 77.1846 107.857 77.6514 107.608 78.3366C107.36 79.0212 109.506 81.5148 110.662 84.0474C111.405 85.6758 110.863 86.2842 112.128 88.1796C113.069 89.5902 113.98 92.037 113.98 92.037L124.563 90.9402Z" fill="#D3766A"/>
<path d="M124.805 81.7512C123.338 80.1396 119.765 77.337 116.503 76.6032C114.3 76.107 107.494 80.1198 107.877 81.3522C108.26 82.5846 109.496 82.4496 111.301 82.0464C111.958 81.8994 115.331 80.3532 116.024 80.958C117.02 81.8268 118.568 85.0032 118.568 85.0032L124.805 81.7512Z" fill="#D3766A"/>
<path d="M107.99 80.841C108.701 79.3962 110.57 78.4578 112.449 77.6718C112.479 77.6598 112.502 77.7 112.472 77.712C111.994 77.913 108.987 79.602 108.015 80.8602C108.003 80.8746 107.983 80.856 107.99 80.841Z" fill="#263238"/>
<path d="M124.698 83.6634C123.231 82.0518 119.658 79.2492 116.396 78.5148C114.193 78.0186 109.022 82.7562 109.404 83.9892C109.787 85.2216 111.578 85.122 113.457 84.2814C114.065 84.0096 116.008 82.4112 116.701 83.0154C117.697 83.8836 120.131 86.0448 120.131 86.0448L124.698 83.6634Z" fill="#D3766A"/>
<path d="M111.856 84.8058C112.619 84.6588 113.405 84.1488 114.022 83.7294C114.558 83.3634 115.12 82.902 115.793 82.7682C116.088 82.7094 116.405 82.7088 116.683 82.8258C116.973 82.9476 117.194 83.1732 117.417 83.3742C117.675 83.607 117.919 83.853 118.158 84.1026C118.398 84.3528 118.479 84.4422 118.713 84.696C118.812 84.8022 118.722 84.852 118.612 84.738C118.16 84.2694 117.81 84.0144 117.282 83.6196C117.049 83.4456 116.794 83.2254 116.51 83.1228C116.203 83.0118 115.868 83.0538 115.573 83.172C114.955 83.4198 114.446 83.8638 113.854 84.159C113.267 84.4518 112.537 84.8262 111.86 84.858C111.828 84.8586 111.826 84.8118 111.856 84.8058Z" fill="#263238"/>
<path d="M109.546 82.659C109.903 81.9918 110.532 81.4194 111.128 80.922C111.758 80.3964 112.445 79.9302 113.157 79.5012C113.523 79.2804 113.896 79.0674 114.274 78.8658C114.636 78.6732 115.003 78.4332 115.42 78.3666C116.562 78.1848 117.756 78.8688 118.227 79.0674C118.256 79.0794 118.241 79.1226 118.212 79.1106C117.823 78.9528 116.567 78.4272 115.855 78.5118C115.41 78.5646 115.025 78.7668 114.656 78.9738C114.332 79.155 114.008 79.3368 113.69 79.5258C112.393 80.295 111.072 81.2022 110.156 82.3512C109.647 82.9884 109.326 83.7852 109.792 84.516C109.808 84.5418 109.769 84.5628 109.747 84.5442C109.198 84.0642 109.236 83.2374 109.546 82.659Z" fill="#263238"/>
<path d="M124.199 85.8612C123.82 85.2366 120.986 82.1784 119.358 81.939C118.678 81.8388 117.069 81.4746 115.489 81.2694C113.91 81.0642 110.093 83.7078 110.417 84.4848C111.08 86.076 114.174 84.2424 115.189 84.405C115.806 84.5034 116.677 84.8952 117.112 85.0056C118.075 85.2504 119.032 87.2676 119.032 87.2676L124.199 85.8612Z" fill="#D3766A"/>
<path d="M121.103 82.8126C120.541 82.3842 119.884 82.038 119.159 81.9558L117.002 81.57C116.643 81.5112 116.282 81.4578 115.923 81.4194C115.57 81.3894 115.186 81.3414 114.871 81.4074C114.204 81.5796 113.566 81.9378 112.959 82.2936C112.353 82.6602 111.764 83.0592 111.228 83.502C110.959 83.73 110.712 83.9484 110.628 84.2364C110.532 84.522 110.65 84.7662 110.967 84.8664C111.592 85.0644 112.354 84.9582 113.049 84.8352C113.757 84.7002 114.459 84.5094 115.141 84.2868L115.187 84.2718L115.229 84.2844C115.806 84.4536 116.378 84.6282 116.946 84.8292C117.089 84.8826 117.227 84.93 117.375 85.005C117.409 85.0224 117.456 85.0464 117.498 85.113C117.522 85.1634 117.532 85.2222 117.526 85.2612C117.522 85.35 117.496 85.419 117.471 85.4892C117.365 85.764 117.221 86.0064 117.088 86.256C116.955 86.5038 116.819 86.7498 116.712 87.003C116.612 87.2562 116.552 87.5292 116.495 87.7998C116.385 88.344 116.303 88.8936 116.234 89.4444C116.273 88.8906 116.325 88.338 116.404 87.786C116.447 87.5106 116.491 87.2346 116.582 86.961C116.678 86.6922 116.803 86.4366 116.932 86.1852C117.056 85.9338 117.194 85.683 117.281 85.4322C117.318 85.3026 117.354 85.1808 117.269 85.1748C117.15 85.1184 117.005 85.0704 116.867 85.0236C116.305 84.8412 115.726 84.6828 115.15 84.5274L115.238 84.5244C114.541 84.759 113.837 84.957 113.11 85.1028C112.385 85.2294 111.63 85.3704 110.849 85.1382C110.659 85.0734 110.456 84.9516 110.351 84.7524C110.245 84.555 110.258 84.333 110.318 84.1512C110.38 83.9664 110.48 83.8062 110.613 83.658C110.743 83.5236 110.879 83.4036 111.018 83.2878C111.579 82.8336 112.178 82.4364 112.8 82.0674C113.431 81.7122 114.059 81.345 114.814 81.1704C115.224 81.102 115.58 81.1698 115.951 81.2076C116.318 81.2562 116.679 81.3204 117.039 81.3888C117.76 81.5256 118.471 81.6912 119.182 81.852C119.919 81.9732 120.569 82.359 121.103 82.8126Z" fill="#263238"/>
<g opacity="0.2">
<path d="M115.393 91.8234C116.251 94.3284 116.771 96.9228 117.124 99.5292C117.284 100.835 117.393 102.147 117.425 103.46C117.472 104.774 117.394 106.09 117.268 107.395C117.262 106.739 117.292 106.084 117.253 105.43C117.247 104.776 117.219 104.122 117.174 103.469C117.091 102.164 116.985 100.861 116.801 99.564C116.648 98.2644 116.436 96.9708 116.202 95.6802C115.962 94.3908 115.704 93.1032 115.393 91.8234Z" fill="black"/>
</g>
<path d="M92.4 86.2717C92.5193 86.8915 95.2218 90.9889 97.9302 90.9637C98.8124 90.9541 98.9448 85.9531 98.9448 85.9531L99.036 85.5865L100.307 80.4583L94.5731 76.3291L93.7431 75.7795C93.7431 75.7795 93.4843 77.2069 93.1798 78.9877C93.1654 79.0705 93.1504 79.1527 93.1361 79.2415C93.1165 79.3417 93.0963 79.4359 93.082 79.5307C93.0331 79.7959 92.9842 80.0677 92.9411 80.3389C92.9079 80.5453 92.874 80.7457 92.8459 80.9635C92.8127 81.1819 92.7847 81.3937 92.7514 81.6121C92.4691 83.7685 92.3524 86.0083 92.4 86.2717Z" fill="#D3766A"/>
<path d="M92.4 86.2717C92.5193 86.8915 95.2218 90.9889 97.9302 90.9637C98.8124 90.9541 98.9448 85.9531 98.9448 85.9531L99.036 85.5865L100.307 80.4583L94.5731 76.3291L93.7431 75.7795C93.7431 75.7795 93.4843 77.2069 93.1798 78.9877C93.1654 79.0705 93.1504 79.1527 93.1361 79.2415C93.1165 79.3417 93.0963 79.4359 93.082 79.5307C93.0331 79.7959 92.9842 80.0677 92.9411 80.3389C92.9079 80.5453 92.874 80.7457 92.8459 80.9635C92.8127 81.1819 92.7847 81.3937 92.7514 81.6121C92.4691 83.7685 92.3524 86.0083 92.4 86.2717Z" fill="#D3766A"/>
<path d="M100.307 80.4576L99.7002 82.9056C97.8876 82.3836 95.3188 81.1836 93.2715 78.4716C93.5323 76.9356 93.7409 75.7776 93.7409 75.7776L94.5755 76.3296L100.307 80.4576Z" fill="#263238"/>
<path d="M107.46 70.0674C108.611 79.3038 102.766 81.0708 100.565 81.207C98.5919 81.3294 91.8808 81.8814 89.6992 72.804C87.5176 63.7266 91.8208 60.3144 96.2877 59.6262C100.755 58.938 106.31 60.831 107.46 70.0674Z" fill="#D3766A"/>
<path d="M89.9092 75.207C91.2041 76.7388 93.7593 79.3068 96.5889 79.2024C102.061 78.9996 104.153 72.153 104.153 72.153C104.153 72.153 107.061 72.2898 106.136 66.54C106.136 66.54 107.928 61.2072 100.361 59.1462C92.7949 57.0852 89.7527 62.5326 89.7527 62.5326C89.7527 62.5326 84.2824 68.5488 89.9092 75.207Z" fill="#263238"/>
<path d="M104.079 76.1856C104.253 76.2462 104.413 76.2828 104.565 76.3014C104.744 76.3314 104.909 76.3314 105.06 76.314C105.297 76.2936 105.498 76.2252 105.666 76.1346C105.821 76.056 105.954 75.9546 106.063 75.8532C106.342 75.588 106.462 75.3108 106.462 75.3108L105.883 72.7284C105.883 72.7284 103.592 69.7104 102.107 70.4616C100.616 71.2134 102.332 75.5874 104.079 76.1856Z" fill="#D3766A"/>
<path d="M89.4407 61.9422C87.6698 63.5622 88.7684 66.9306 92.093 64.7022C95.1946 62.6238 92.0421 59.5626 89.4407 61.9422Z" fill="#FFC727"/>
<path d="M91.2745 63.5622C90.7366 64.6506 83.9343 65.292 81.0636 60.9936C78.2358 56.76 82.2684 51.6714 87.5966 54.2172C90.9635 55.8258 92.4123 61.26 91.2745 63.5622Z" fill="#263238"/>
<path d="M81.1255 55.239C82.3291 54.0564 83.9558 53.349 85.5741 53.1402C87.208 52.929 88.8165 53.4798 89.8023 54.6534C90.8488 55.7982 91.3645 57.3246 91.622 58.86C91.7381 59.6352 91.7811 60.4272 91.744 61.2192C91.7192 62.0136 91.6136 62.8122 91.2745 63.5628C91.8111 62.8998 92.0289 62.067 92.2121 61.2654C92.3653 60.4512 92.4253 59.6184 92.3686 58.7862C92.2499 57.1368 91.7427 55.4268 90.5443 54.0822C89.9425 53.421 89.1523 52.8612 88.2427 52.5816C87.3351 52.3044 86.3604 52.2738 85.4574 52.4562C83.6539 52.8102 82.0402 53.8374 81.1255 55.239Z" fill="#263238"/>
<path d="M106.649 108.968C106.649 108.968 107.574 113.753 107.252 115.203C106.95 116.562 104 122.15 104 122.15L74.9966 122.146C74.9966 122.146 75.7301 122.135 76.9924 116.41C77.3875 114.619 76.1578 110.782 76.6963 108.8C78.6843 101.491 84.0242 92.1084 87.3702 87.2148C90.4059 82.7754 96.2485 82.5252 99.6539 85.7034C100.516 86.508 106.408 97.3182 107.492 102.095C108.436 106.31 106.649 108.968 106.649 108.968Z" fill="#D3766A"/>
<path d="M106.651 108.965C93.1411 109.865 77.0693 107.525 77.0693 107.525C79.2601 100.535 84.2179 91.8276 87.367 87.2136C90.4053 82.7736 96.2473 82.5276 99.6507 85.7016C100.518 86.5116 106.409 97.3194 107.492 102.095C108.437 106.307 106.651 108.965 106.651 108.965Z" fill="#FFC727"/>
<g opacity="0.2">
<path d="M91.0308 105.383C92.1685 105.636 93.2873 105.955 94.3899 106.321C94.9441 106.498 95.4839 106.712 96.0199 106.936C96.5539 107.165 97.0833 107.41 97.569 107.753C98.4714 108.471 99.2505 109.271 100.022 110.083C100.785 110.9 101.523 111.734 102.219 112.6L99.8354 110.237C99.0328 109.463 98.2471 108.657 97.3636 107.986C96.471 107.353 95.3594 106.955 94.2986 106.535C93.2228 106.128 92.1281 105.755 91.0308 105.383Z" fill="black"/>
<path d="M91.4932 108.184C92.3108 108.356 93.1193 108.565 93.916 108.81C94.7154 109.049 95.5023 109.325 96.2573 109.694C97.0476 110.058 97.6031 110.69 98.137 111.278C98.656 111.89 99.1287 112.532 99.533 113.211C98.997 112.616 98.4728 112.016 97.9219 111.444C97.3722 110.874 96.818 110.293 96.1093 109.939C95.3915 109.573 94.613 109.288 93.8417 108.998C93.0638 108.719 92.2801 108.449 91.4932 108.184Z" fill="black"/>
<path d="M92.1164 85.0668C91.909 85.395 91.7291 85.6758 91.6326 85.9962C91.5772 86.1534 91.5472 86.3184 91.51 86.4876C91.4742 86.658 91.4624 86.8338 91.4187 87.0204C91.2381 86.6832 91.2036 86.2836 91.3203 85.9092C91.4429 85.536 91.7415 85.215 92.1164 85.0668Z" fill="black"/>
<path d="M90.7863 88.0812C90.579 88.4088 90.399 88.6902 90.3025 89.0106C90.2471 89.1678 90.2171 89.3328 90.1799 89.502C90.1441 89.6724 90.1323 89.8482 90.0887 90.0348C89.908 89.6976 89.8735 89.298 89.9902 88.9236C90.1128 88.5504 90.4114 88.2288 90.7863 88.0812Z" fill="black"/>
<path d="M89.4552 91.0956C89.2479 91.4238 89.068 91.7046 88.9715 92.025C88.916 92.1822 88.886 92.3472 88.8489 92.5164C88.8124 92.6868 88.8013 92.8626 88.7576 93.0492C88.577 92.712 88.5424 92.3118 88.6591 91.938C88.7824 91.5642 89.0803 91.2432 89.4552 91.0956Z" fill="black"/>
<path d="M88.1252 94.1094C87.9178 94.437 87.7379 94.7184 87.6414 95.0388C87.586 95.196 87.556 95.361 87.5188 95.5302C87.4823 95.7006 87.4712 95.8764 87.4275 96.063C87.2469 95.7258 87.2124 95.3262 87.3291 94.9518C87.4516 94.5786 87.7503 94.257 88.1252 94.1094Z" fill="black"/>
<path d="M86.8998 97.2678C86.7068 97.6032 86.5392 97.8906 86.4577 98.2146C86.4095 98.3742 86.3867 98.5398 86.3573 98.7102C86.3286 98.8818 86.3254 99.0582 86.2895 99.246C86.0939 98.916 86.0418 98.5176 86.1422 98.1396C86.2478 97.7616 86.5314 97.4292 86.8998 97.2678Z" fill="black"/>
<path d="M86.163 100.273C85.9961 100.62 85.8513 100.918 85.7939 101.246C85.7581 101.408 85.7483 101.575 85.7314 101.747C85.7157 101.92 85.7261 102.096 85.7046 102.286C85.4842 101.969 85.4021 101.575 85.4732 101.191C85.5501 100.807 85.8076 100.457 86.163 100.273Z" fill="black"/>
<path d="M85.8514 103.337C85.6845 103.684 85.5398 103.982 85.4824 104.311C85.4466 104.473 85.4368 104.639 85.4198 104.812C85.4042 104.984 85.4146 105.161 85.3931 105.35C85.1727 105.034 85.0906 104.64 85.1616 104.256C85.2386 103.872 85.4961 103.522 85.8514 103.337Z" fill="black"/>
<path d="M85.141 106.369C85.0197 106.732 84.9141 107.043 84.8997 107.375C84.8848 107.54 84.8965 107.706 84.9024 107.879C84.9095 108.052 84.9421 108.226 84.9454 108.417C84.6859 108.127 84.5535 107.744 84.5744 107.356C84.6011 106.967 84.8124 106.591 85.141 106.369Z" fill="black"/>
<path d="M84.8015 109.53C84.72 109.902 84.6483 110.221 84.6691 110.553C84.6717 110.719 84.7011 110.883 84.7252 111.055C84.7506 111.227 84.8015 111.397 84.8256 111.586C84.5361 111.32 84.3633 110.953 84.3431 110.564C84.3288 110.174 84.4983 109.781 84.8015 109.53Z" fill="black"/>
<path d="M84.8015 113.452C84.72 113.824 84.6483 114.143 84.6691 114.475C84.6717 114.641 84.7011 114.805 84.7252 114.977C84.7506 115.149 84.8015 115.319 84.8256 115.508C84.5361 115.243 84.3633 114.875 84.3431 114.485C84.3288 114.096 84.4983 113.703 84.8015 113.452Z" fill="black"/>
</g>
<path d="M106.65 108.965C106.907 109.711 107.061 110.472 107.182 111.238C107.235 111.622 107.285 112.006 107.305 112.394C107.326 112.781 107.342 113.173 107.289 113.562C107.123 112.799 106.974 112.043 106.859 111.278C106.751 110.513 106.657 109.747 106.65 108.965Z" fill="#263238"/>
<path d="M100.828 93.036C99.8811 95.829 98.8855 99.6228 97.7034 103.234C96.7678 106.092 95.1932 107.293 94.9174 108.034C93.6166 111.53 85.8637 111.725 87.2107 106.142C88.1731 102.155 88.9777 99.1212 92.0629 93.1458C93.247 90.8532 92.9946 88.695 95.439 86.5788C97.395 84.885 103.273 85.8318 100.828 93.036Z" fill="#D3766A"/>
<path d="M110.256 121.656C111.107 123.559 99.2962 121.59 96.844 119.572C88.6008 112.789 86.712 109.882 87.199 107.102C87.6189 104.704 93.7425 104.923 95.8165 106.403C98.89 108.598 108.551 117.842 110.256 121.656Z" fill="#D3766A"/>
<path d="M96.8442 119.572C97.0059 119.689 109.582 120.44 109.582 120.44C109.582 120.44 114.926 129.389 110.752 133.225C108.606 135.196 103.995 131.916 103.06 131.503C102.125 131.089 99.6785 131.735 97.3313 130.196C95.7593 129.166 95.9366 128.197 95.5428 128.051C95.149 127.906 85.976 128.999 85.7876 127.447C85.6011 125.907 88.1159 125.802 90.5563 125.009C92.5384 124.364 94.2675 122.969 94.7839 122.564C95.387 122.092 96.8442 119.572 96.8442 119.572Z" fill="#D3766A"/>
<g opacity="0.2">
<path d="M94.2042 92.2476C94.4213 93.4662 94.5543 94.6962 94.6573 95.9274C94.7564 97.1592 94.8027 98.3952 94.8086 99.6312C94.7845 100.867 94.7577 102.106 94.6012 103.336C94.4474 104.564 94.2296 105.793 93.8188 106.97C94.0979 105.762 94.2511 104.54 94.3515 103.315C94.4545 102.09 94.4845 100.86 94.4826 99.6306C94.5041 98.4006 94.4526 97.1706 94.4076 95.94C94.3574 94.71 94.2876 93.4794 94.2042 92.2476Z" fill="black"/>
</g>
<path d="M87.1279 108.61C87.4572 109.77 88.2031 110.768 88.9288 111.739C89.6883 112.697 90.5209 113.605 91.3842 114.487C92.2553 115.364 93.1804 116.194 94.103 117.027C94.5757 117.433 95.0387 117.848 95.5205 118.246C96.0043 118.642 96.4913 119.033 96.966 119.44L97.0814 119.539L97.0103 119.653C96.5793 120.347 96.147 121.036 95.6574 121.702C95.4148 122.04 95.0908 122.334 94.7661 122.593C94.4408 122.858 94.1004 123.105 93.7503 123.34C94.0665 123.068 94.3769 122.791 94.6768 122.507C94.9793 122.219 95.2512 121.928 95.4566 121.583C95.8954 120.907 96.2918 120.198 96.6784 119.491L96.7234 119.704C95.7148 118.947 94.7394 118.153 93.7822 117.34C92.8225 116.528 91.9221 115.657 91.0543 114.761C90.1858 113.864 89.3799 112.912 88.6751 111.898C88.323 111.392 87.9866 110.873 87.7193 110.323C87.4546 109.774 87.1938 109.209 87.1279 108.61Z" fill="#263238"/>
<path d="M99.124 109.171C99.8764 109.686 100.579 110.254 101.268 110.836C101.96 111.415 102.613 112.031 103.255 112.657C103.888 113.29 104.504 113.939 105.076 114.621C105.649 115.303 106.194 116.005 106.665 116.751L104.789 114.845L102.896 112.963L101.002 111.08C100.373 110.449 99.7389 109.822 99.124 109.171Z" fill="#263238"/>
</svg>
