<svg width="699" height="612" viewBox="0 0 699 612" fill="none" xmlns="http://www.w3.org/2000/svg">
<path d="M107.976 151.789L127.956 187.24L110.253 195.61L90.2773 160.143L107.976 151.789Z" fill="#EBEBEB"/>
<path d="M65.7466 171.752L62.376 173.344L82.3572 208.797L85.7278 207.204L65.7466 171.752Z" fill="#EBEBEB"/>
<path d="M344.156 105.331L335.22 89.4643L135.798 183.544L115.801 148.088L315.218 54.0236L306.284 38.1567L388.746 41.7459L344.156 105.331Z" fill="#EBEBEB"/>
<path d="M83.2746 163.455L103.255 198.905L91.7968 204.324L71.8208 168.882L83.2746 163.455Z" fill="#EBEBEB"/>
<path d="M426.692 443.305L446.672 478.756L428.969 487.127L408.993 451.661L426.692 443.305Z" fill="#EBEBEB"/>
<path d="M384.485 463.275L381.114 464.868L401.095 500.32L404.466 498.728L384.485 463.275Z" fill="#EBEBEB"/>
<path d="M592.04 430.18L583.106 414.313L454.514 475.062L434.517 439.606L563.103 378.871L554.169 363.005L636.631 366.593L592.04 430.18Z" fill="#EBEBEB"/>
<path d="M401.99 454.972L421.971 490.423L410.511 495.84L390.537 460.399L401.99 454.972Z" fill="#EBEBEB"/>
<path d="M326.067 108.946C321.852 83.1373 318.548 57.0535 316.198 31.04C320.415 56.8576 323.718 82.9376 326.067 108.946Z" fill="#EBEBEB"/>
<path d="M364.263 177.39C359.819 215.876 354.34 260.769 349.506 299.195C344.66 261.258 338.365 211.162 333.823 173.165L329.095 132.855C336.06 183.265 343.827 243.389 350.153 293.866H348.846L352.59 264.736C355.968 238.79 360.684 203.311 364.263 177.39Z" fill="#EBEBEB"/>
<path d="M382.802 31.04C378.685 70.9197 373.059 115.15 367.116 154.863C371.26 114.952 376.839 70.7328 382.802 31.04Z" fill="#EBEBEB"/>
<path d="M216.844 130.483C202.875 114.714 189.559 98.3066 177.095 81.5066C191.068 97.2813 204.381 113.686 216.844 130.483Z" fill="#EBEBEB"/>
<path d="M306.394 202.662C320.102 230.811 338.612 269.683 352.228 298.235C323.348 262.861 285.2 215.718 256.616 180.111L226.087 141.874C265.243 189.188 311.466 245.861 349.998 293.597L348.932 294.161C336.268 267.183 318.638 229.334 306.394 202.662Z" fill="#EBEBEB"/>
<path d="M234.775 51.0156C256.493 94.8569 279.669 143.982 299.716 188.521C278.001 144.632 254.791 95.543 234.775 51.0156Z" fill="#EBEBEB"/>
<path d="M151.696 215.622C128.876 207.525 106.267 198.573 84.1865 188.895C107.013 196.995 129.62 205.944 151.696 215.622Z" fill="#EBEBEB"/>
<path d="M229.287 212.146C265.151 236.035 318.566 272.227 354.536 296.59C311.745 279.676 255.102 257.203 212.402 240.027L166.899 221.64C224.339 243.811 292.573 270.68 349.763 293.377L349.105 294.421C315.051 271.183 262.743 235.37 229.287 212.146Z" fill="#EBEBEB"/>
<path d="M117.488 136.082C149.104 156.544 183.482 179.932 214.009 201.752C182.382 181.283 148.011 157.898 117.488 136.082Z" fill="#EBEBEB"/>
<path d="M181.535 311.772C143.284 316.682 100.842 321.189 62.3706 324.426C100.634 319.515 143.067 315.009 181.535 311.772Z" fill="#EBEBEB"/>
<path d="M250.575 283.43C284.648 286.673 321.223 290.337 355.141 293.93C319.935 297.728 273.68 302.588 238.407 306.086L201.316 309.672C247.678 304.211 302.986 298.191 349.425 293.347V294.525C332.939 292.753 316.457 290.968 299.984 289.101C287.672 287.729 262.876 284.877 250.575 283.43Z" fill="#EBEBEB"/>
<path d="M62.3691 263.445C115.078 268.186 173.555 274.417 226.088 280.83C173.335 276.064 114.875 269.877 62.3691 263.445Z" fill="#EBEBEB"/>
<path d="M167.86 417.518C151.683 429.612 134.807 441.094 117.488 451.789C133.67 439.691 150.544 428.211 167.86 417.518Z" fill="#EBEBEB"/>
<path d="M255.018 331.342C280.921 320.817 328.209 301.795 354.171 291.451C316.452 317.28 266.198 351.363 228.221 376.917L187.471 404.177C237.876 369.188 298.259 327.893 349.134 293.484L349.746 294.454C326.169 303.738 278.664 322.227 255.018 331.342Z" fill="#EBEBEB"/>
<path d="M84.1865 398.977C131.678 379.249 184.896 358.2 233.148 340C185.606 359.727 132.426 380.805 84.1865 398.977Z" fill="#EBEBEB"/>
<path d="M262.026 479.154C253.828 498.679 244.699 518.008 234.775 536.855C242.976 517.324 252.103 497.998 262.026 479.154Z" fill="#EBEBEB"/>
<path d="M264.249 398.977C289.199 367.555 326.938 320.85 352.387 289.343C334.357 327.601 310.403 378.204 292.082 416.376L272.485 457.009C296.088 405.705 324.707 344.767 348.894 293.696L350.029 294.296C325.803 324.051 288.468 369.75 264.249 398.977Z" fill="#EBEBEB"/>
<path d="M177.095 506.364C199.566 477.265 225.247 445.62 249.201 417.518C226.722 446.628 201.045 478.266 177.095 506.364Z" fill="#EBEBEB"/>
<path d="M362.826 399.13C370.167 449.7 377.28 506.031 382.803 556.831C375.478 506.213 368.323 449.907 362.826 399.13Z" fill="#EBEBEB"/>
<path d="M332.533 427.882C337.48 383.956 343.857 332.608 349.506 288.776L350.142 293.867C353.726 322.289 357.42 353.446 360.655 382.008L357.596 360.019C354.687 338.692 351.555 315.232 348.856 294.004H350.142C344.922 335.981 338.427 385.981 332.533 427.882Z" fill="#EBEBEB"/>
<path d="M316.198 556.831C319.692 521.946 324.567 483.451 329.889 448.75C326.395 483.648 321.519 522.136 316.198 556.831Z" fill="#EBEBEB"/>
<path d="M444.113 410.513C469.851 440.8 497.623 475.054 521.906 506.364C496.165 476.037 468.365 441.82 444.113 410.513Z" fill="#EBEBEB"/>
<path d="M434.339 473.573C406.86 416.512 375.745 351.3 348.952 294.153L346.903 289.796L349.981 293.609C373.581 322.885 408.311 365.749 431.38 394.821C419.122 380.003 402.051 359.287 390.109 344.604L349.022 294.262L350.051 293.718C377.147 350.687 407.782 416.211 434.339 473.573Z" fill="#EBEBEB"/>
<path d="M464.226 536.855C456.731 523.186 450.052 509.043 444.307 494.679C451.803 508.352 458.481 522.492 464.226 536.855Z" fill="#EBEBEB"/>
<path d="M506.184 355.969C541.514 369.039 580.204 384.357 614.814 398.977C579.471 385.902 540.787 370.587 506.184 355.969Z" fill="#EBEBEB"/>
<path d="M484.913 386.066C444.672 359.336 384.594 318.546 344.3 291.183L349.772 293.363C387.567 308.416 445.705 331.555 482.913 346.756L449.434 333.816C428.187 325.581 371.146 303.137 349.231 294.508L349.907 293.435C388.278 319.562 447.282 359.862 484.913 386.066Z" fill="#EBEBEB"/>
<path d="M581.513 451.789C554.645 434.581 528.164 416.563 502.41 397.97C529.286 415.185 555.763 433.198 581.513 451.789Z" fill="#EBEBEB"/>
<path d="M586.919 268.723C603.329 266.102 619.999 264.332 636.631 263.445C620.217 266.067 603.55 267.836 586.919 268.723Z" fill="#EBEBEB"/>
<path d="M461.792 305.86C431.089 302.85 374.734 297.147 344.079 293.948C394.116 288.507 460.703 281.522 510.814 276.432L564.647 271.089C497.305 278.8 417.001 287.496 349.571 294.499V293.374C377.561 296.389 433.836 302.66 461.792 305.86Z" fill="#EBEBEB"/>
<path d="M636.631 324.426C586.96 320.008 531.857 314.135 482.363 308.045C532.076 312.489 587.163 318.317 636.631 324.426Z" fill="#EBEBEB"/>
<path d="M557.153 152.654C564.698 146.43 572.819 140.895 581.511 136.082C573.971 142.313 565.84 147.836 557.153 152.654Z" fill="#EBEBEB"/>
<path d="M522.138 225.586C471.888 245.933 395.532 276.217 344.683 296.494L349.118 293.466C393.199 263.336 449.616 225.328 493.993 195.216L542.445 162.663L494.424 195.747C459.665 219.511 408.65 254.369 374.031 278.035L349.882 294.407L349.246 293.398L435.646 259.396C457.15 250.908 500.572 233.943 522.138 225.586Z" fill="#EBEBEB"/>
<path d="M614.814 188.894C590.821 199.329 566.284 209.045 541.539 217.905C565.54 207.465 590.072 197.752 614.814 188.894Z" fill="#EBEBEB"/>
<path d="M439.626 103.103C446.93 85.4412 455.171 67.9884 464.226 51.0156C456.921 68.6835 448.68 86.1324 439.626 103.103Z" fill="#EBEBEB"/>
<path d="M432.319 191.89C408.051 222.442 371.396 267.827 346.652 298.466L348.902 293.698C358.881 272.502 379.02 229.911 389.079 208.755C399.133 187.633 419.552 145.075 429.752 124.008L410.039 166.628C392.395 204.566 368.022 256.349 350.097 294.172L348.977 293.579C372.52 264.671 408.796 220.292 432.319 191.89Z" fill="#EBEBEB"/>
<path d="M521.905 81.5066C497.596 112.886 469.718 147.2 443.919 177.597C468.268 146.204 496.1 111.878 521.905 81.5066Z" fill="#EBEBEB"/>
<path d="M544.436 79.8297C544.436 95.9308 530.172 108.991 512.587 108.991C505.479 108.991 498.918 106.857 493.613 103.24L478.011 106.886L484.506 93.5846C482.093 89.4835 480.739 84.7923 480.739 79.8284C480.739 63.7273 495.003 50.6675 512.588 50.6675C530.173 50.6675 544.436 63.7273 544.436 79.8297Z" fill="#FFC727"/>
<path d="M518.482 58.752L499.748 81.175H511.281L504.769 100.906L522.768 76.4659H511.257L518.482 58.752Z" fill="white"/>
<path d="M162.586 340.288L202.805 411.638L174.999 424.783L134.786 353.407L162.586 340.288Z" fill="#FFC727"/>
<path d="M96.2283 371.624L90.9351 374.125L131.151 445.473L136.445 442.972L96.2283 371.624Z" fill="#FFC727"/>
<path d="M546.379 290.076L528.39 258.143L215.123 405.838L174.876 334.477L488.137 186.808L470.149 154.875L608.049 175.372L546.379 290.076Z" fill="#FFC727"/>
<path d="M123.786 358.607L164.005 429.957L146.009 438.467L105.799 367.136L123.786 358.607Z" fill="#FFC727"/>
<g opacity="0.5">
<path d="M162.586 340.288L202.805 411.638L174.999 424.783L134.786 353.407L162.586 340.288Z" fill="white"/>
<path d="M96.2283 371.624L90.9351 374.125L131.151 445.473L136.445 442.972L96.2283 371.624Z" fill="white"/>
<path d="M546.379 290.076L528.39 258.143L215.123 405.838L174.876 334.477L488.137 186.808L470.149 154.875L608.049 175.372L546.379 290.076Z" fill="white"/>
<path d="M123.786 358.607L164.005 429.957L146.009 438.467L105.799 367.136L123.786 358.607Z" fill="white"/>
</g>
<path d="M155.312 458.258V615.311H546.988V458.258H155.312ZM529.62 598.02H172.64V475.51H529.62V598.02Z" fill="#263238"/>
<path d="M529.619 475.51H172.64V598.02H529.619V475.51Z" fill="#FFC727"/>
<path opacity="0.7" d="M529.619 475.51H172.64V598.02H529.619V475.51Z" fill="white"/>
<path d="M255.914 488.237H188.996V585.314H255.914V488.237Z" fill="#FFC727"/>
<path d="M341.237 488.237H274.319V585.314H341.237V488.237Z" fill="#FFC727"/>
<path d="M426.562 488.237H359.644V585.314H426.562V488.237Z" fill="#FFC727"/>
<path d="M511.886 488.237H444.968V585.314H511.886V488.237Z" fill="#FFC727"/>
<path d="M577.286 494.765H546.988V578.788H577.286V494.765Z" fill="#263238"/>
<path opacity="0.1" d="M546.988 615.313H155.312V536.765H577.286V578.788H546.988V615.313Z" fill="black"/>
<path d="M425.118 556.372L346.407 505.524V536.831L277.142 519.155L362.936 568.005V536.765L425.118 556.372Z" fill="white"/>
<path d="M369.548 144.568C384.894 166.809 407.653 188.921 415.904 185.081C427.004 179.915 446.568 161.216 454.427 149.157C456.737 145.614 426.259 129.714 423.784 133.499C420.796 138.073 407.571 151.512 407.134 151.868C406.199 152.631 385.541 138.228 375.451 132.448C363.68 125.702 362.377 134.177 369.548 144.568Z" fill="#D3766A"/>
<path d="M462.375 134.829C460.89 141.555 451.976 154.223 448.543 156.522C445.109 158.821 421.082 145.663 420.562 141.695C420.042 137.727 426.956 115.434 432.825 110.944C438.694 106.454 463.914 127.859 462.375 134.829Z" fill="#D3766A"/>
<path d="M425.674 120.464C426.837 123.941 430.645 120.696 430.645 120.696C430.645 120.696 426.391 126.576 429.105 129.735C431.727 132.774 436.179 128.706 436.501 128.418C436.279 128.732 432.524 134.228 435.608 137.145C438.815 140.176 442.517 135.389 442.755 135.079C442.647 135.435 441.301 140.16 444.193 141.889C449.166 144.859 452.971 132.864 457.277 130.907C457.277 130.907 462.124 134.978 462.296 135.137C462.296 135.137 465.778 126.022 462.573 120.852C460.883 118.127 457.775 119.031 457.775 119.031C457.775 119.031 459.466 115.499 457.118 113.133C455.909 111.92 452.715 112.612 452.715 112.612C452.715 112.612 453.94 109.733 451.709 107.745C449.933 106.154 447.006 107.096 447.006 107.096C447.006 107.096 446.781 103.832 444.39 102.747C439.572 100.55 423.191 113.019 425.674 120.464Z" fill="#D3766A"/>
<path d="M446.515 107.183C446.573 107.146 446.528 107.064 446.461 107.094C439.981 109.99 433.831 114.991 430.419 120.851C430.307 121.043 430.599 121.293 430.767 121.103C435.547 115.679 440.259 111.213 446.515 107.183Z" fill="#263238"/>
<path d="M452.767 112.523C452.836 112.48 452.758 112.376 452.678 112.412C446.019 115.43 439.261 121.236 436.196 128.416C436.091 128.663 436.265 128.979 436.411 128.705C438.843 124.071 447.115 116.124 452.767 112.523Z" fill="#263238"/>
<path d="M442.728 135.649C445.957 128.869 451.236 123.718 457.488 119.142C457.569 119.082 457.469 118.984 457.386 119.016C453.662 120.491 450.009 123.789 447.403 126.574C444.908 129.243 443.241 132.109 442.469 135.544C442.44 135.68 442.66 135.794 442.728 135.649Z" fill="#263238"/>
<path d="M430.645 120.696C429.948 121.901 429.351 123.152 428.91 124.437C428.49 125.711 428.207 127.092 428.545 128.309C428.717 128.909 429.082 129.431 429.626 129.76C430.184 130.09 430.837 130.323 431.487 130.354C432.793 130.441 434.112 129.757 435.017 128.91L437.29 126.776L435.965 129.504C435.386 130.694 434.958 132.027 434.836 133.317C434.711 134.605 434.96 135.919 435.85 136.76C436.762 137.657 438.045 137.936 439.211 137.369C440.387 136.853 441.434 135.819 442.205 134.771L444.36 131.841L443.374 135.239C443.107 136.16 442.949 137.176 442.951 138.139C442.959 139.1 443.141 140.071 443.682 140.779C444.209 141.476 445.159 141.915 446.029 141.767C446.947 141.624 447.834 140.984 448.607 140.303C450.167 138.895 451.418 137.161 452.752 135.498C453.413 134.66 454.076 133.817 454.783 133.005C455.498 132.211 456.245 131.367 457.274 130.907C456.308 131.458 455.686 132.349 455.033 133.176C454.403 134.027 453.816 134.907 453.226 135.789C452.047 137.552 450.838 139.316 449.271 140.9C448.466 141.657 447.562 142.455 446.24 142.745C444.873 143.036 443.469 142.392 442.714 141.409C441.941 140.409 441.745 139.239 441.71 138.154C441.695 137.051 441.838 136 442.13 134.919L443.299 135.389C442.398 136.635 441.347 137.755 439.795 138.492C439.03 138.85 438.06 139.017 437.149 138.82C436.233 138.626 435.485 138.162 434.888 137.574C433.655 136.349 433.437 134.649 433.603 133.214C433.777 131.739 434.242 130.373 434.916 129.038L435.864 129.633C434.674 130.675 433.097 131.371 431.397 131.207C430.56 131.119 429.802 130.803 429.14 130.363C428.456 129.908 428.009 129.182 427.848 128.461C427.539 126.986 428.014 125.597 428.536 124.318C429.088 123.035 429.805 121.824 430.645 120.696Z" fill="#263238"/>
<path d="M419.303 140.773C419.303 140.773 411.824 112.476 425.336 115.219C429.351 116.034 444.776 123.769 443.141 126.635C441.027 130.337 433.929 128.208 429.706 126.226C429.706 126.226 433.729 135.522 427.496 140.018C423.586 142.838 419.303 140.773 419.303 140.773Z" fill="#D3766A"/>
<path d="M424.198 115.056C425.818 115.143 427.38 115.629 428.898 116.139C430.42 116.658 431.884 117.309 433.314 118.009C436.162 119.447 438.93 120.946 441.511 122.846C442.151 123.332 442.78 123.851 443.306 124.551C443.564 124.898 443.796 125.323 443.88 125.797C443.926 126.032 443.939 126.242 443.894 126.543C443.84 126.803 443.757 127.038 443.633 127.242C443.166 128.087 442.341 128.623 441.495 128.95C440.633 129.25 439.746 129.354 438.881 129.368C437.146 129.376 435.506 128.998 433.95 128.5C432.382 128.015 430.905 127.365 429.453 126.685L430.226 126.026C430.661 127.129 430.939 128.216 431.136 129.339C431.329 130.456 431.407 131.591 431.349 132.723C431.28 133.853 431.038 134.978 430.615 136.036C430.199 137.098 429.56 138.077 428.752 138.904C429.429 137.985 429.935 136.979 430.24 135.928C430.552 134.877 430.647 133.788 430.637 132.709C430.626 131.629 430.483 130.55 430.233 129.492C429.984 128.443 429.636 127.382 429.189 126.425L428.621 125.208L429.962 125.766C431.406 126.366 432.85 126.976 434.351 127.389C435.839 127.815 437.372 128.169 438.867 128.137C440.318 128.12 441.871 127.698 442.435 126.684C443.015 125.833 441.824 124.636 440.682 123.736C439.506 122.797 438.197 121.952 436.892 121.11C435.58 120.269 434.258 119.443 432.893 118.681C430.148 117.214 427.35 115.695 424.198 115.056Z" fill="#263238"/>
<path d="M382.992 165.153L402.044 145.846C402.044 145.846 381.474 132.479 373.056 129.608C364.638 126.737 360.556 131.208 365.907 141.698C371.257 152.189 382.992 165.153 382.992 165.153Z" fill="#263238"/>
<path opacity="0.2" d="M388.897 159.168L382.996 165.152C382.996 165.152 371.261 152.192 365.904 141.702C361.949 133.938 363.153 129.457 367.466 128.838L388.897 159.168Z" fill="black"/>
<path d="M365.669 192.682C365.669 192.682 370.642 221.774 362.731 229.775C362.731 229.775 328.424 350.461 285.091 354.388C255.338 357.084 192.517 289.781 192.517 289.781L237.449 256.35C237.449 256.35 253.485 268.062 264.25 277.292C269.664 281.935 273.67 287.756 273.78 287.498C278.813 275.659 302.394 236.969 301.627 235.023C292.891 212.874 307.03 186.649 307.03 186.649L365.669 192.682Z" fill="#D3766A"/>
<path d="M307.027 186.647L367.84 192.681C367.84 192.681 370.418 217.866 364.6 230.128C364.6 230.128 350.658 281.668 350.296 281.894C349.933 282.121 284.371 268.754 284.248 268.187C284.124 267.62 297.248 235.26 297.248 235.26C297.248 235.26 291.779 218.396 307.027 186.647Z" fill="#FFC727"/>
<path d="M308.501 235.9L308.543 236.105L307.104 241.4L298.946 271.535C298.205 271.382 297.479 271.228 296.766 271.074L305.512 238.765L306.253 236.002C303.738 220.014 311.799 195.775 315.165 186.643H317.54C314.41 195.11 305.93 220.168 308.501 235.9Z" fill="white"/>
<path d="M314.117 236.246L314.145 236.45L311.042 247.95L304.338 272.674C303.597 272.521 302.871 272.367 302.158 272.226L309.436 245.302L311.867 236.348C309.31 220.155 317.609 195.52 320.905 186.643H323.281C320.264 194.765 311.504 220.307 314.117 236.246Z" fill="white"/>
<path opacity="0.1" d="M364.602 230.123C364.602 230.123 350.659 281.662 350.301 281.893C350.209 281.953 345.75 281.106 339.188 279.798L296.484 230.729C295.835 223.764 296.365 208.854 307.027 186.651L367.837 192.685C367.837 192.685 370.424 217.866 364.602 230.123Z" fill="black"/>
<path d="M124.383 273.152C126.139 270.589 195.556 218.605 199.571 218.164C200.249 218.079 208.524 228.69 219.012 240.642L237.449 256.349L192.517 289.78L174.679 271.584C174.679 271.584 139.38 280.367 134.908 280.427C130.464 280.48 122.616 275.705 124.383 273.152Z" fill="#FFC727"/>
<g opacity="0.9">
<path d="M124.383 273.152C126.139 270.589 195.556 218.605 199.571 218.164C200.249 218.079 208.524 228.69 219.012 240.642L237.449 256.349L192.517 289.78L174.679 271.584C174.679 271.584 139.38 280.367 134.908 280.427C130.464 280.48 122.616 275.705 124.383 273.152Z" fill="white"/>
</g>
<path d="M226.28 246.835L182.006 279.053L180.132 277.133L224.211 245.069L226.28 246.835Z" fill="#FFC727"/>
<path d="M230.404 250.342L185.724 282.854L183.851 280.934L228.335 248.589L230.404 250.342Z" fill="#263238"/>
<path d="M234.528 253.862L189.457 286.656L187.583 284.736L232.459 252.096L234.528 253.862Z" fill="#FFC727"/>
<path d="M124.117 273.41C125.87 270.863 195.394 217.988 199.393 217.536C200.908 217.357 209.351 228.052 218.046 239.535L174.338 272.234C174.338 272.234 139.052 280.586 134.611 280.651C130.182 280.705 122.366 275.958 124.117 273.41Z" fill="#FFC727"/>
<path d="M127.371 275.195C139.185 266.775 185.969 231.795 196.949 222.651C197.039 222.576 196.987 222.519 196.889 222.584C184.979 230.695 138.507 266.021 127.215 275.022C126.976 275.213 127.12 275.374 127.371 275.195Z" fill="white"/>
<path d="M141.089 279.593C143.927 277.637 145.545 274.432 145.703 271.814C145.855 269.299 145.278 266.355 143.23 264.22C143.171 264.159 143.042 264.252 143.09 264.325C146.137 268.965 145.273 275.695 140.969 279.461C140.884 279.537 140.991 279.661 141.089 279.593Z" fill="white"/>
<path d="M203.002 234.922C208.19 231.01 201.561 223.63 196.363 227.548C191.173 231.46 197.804 238.84 203.002 234.922Z" fill="white"/>
<path d="M169.755 273.894C174.444 270.479 178.478 264.955 178.256 259.329C178.248 259.11 177.909 259.126 177.83 259.293C175.407 264.41 172.741 268.867 169.208 273.432C168.958 273.755 169.418 274.139 169.755 273.894Z" fill="#263238"/>
<path d="M165.034 275.301C169.723 271.886 173.758 266.361 173.535 260.735C173.527 260.517 173.189 260.532 173.109 260.7C170.686 265.816 168.02 270.273 164.487 274.839C164.239 275.16 164.699 275.545 165.034 275.301Z" fill="#263238"/>
<path d="M160.313 276.706C165 273.291 169.036 267.767 168.814 262.141C168.806 261.924 168.467 261.938 168.388 262.107C165.965 267.223 163.299 271.68 159.766 276.246C159.517 276.567 159.977 276.951 160.313 276.706Z" fill="#263238"/>
<path d="M155.593 278.113C160.282 274.698 164.317 269.174 164.094 263.548C164.086 263.33 163.748 263.344 163.668 263.512C161.247 268.628 158.581 273.087 155.047 277.651C154.798 277.972 155.258 278.358 155.593 278.113Z" fill="#263238"/>
<path d="M174.86 288.965C178.809 288.986 180.205 285.02 180.003 282.103C179.728 278.362 178.358 274.214 176.306 270.752C176.03 270.248 175.723 269.766 175.414 269.312C175.263 269.117 175.127 268.91 175.004 268.718C174.976 268.715 174.992 268.704 174.992 268.704L174.864 268.563C174.739 268.397 174.627 268.244 174.515 268.091C174.438 268.006 174.323 268.023 174.259 268.096C174.034 267.933 173.683 267.891 173.426 268.038C173.293 268.092 173.183 268.2 173.122 268.363C172.725 269.618 172.282 270.907 171.839 272.196C171.747 272.41 171.682 272.625 171.601 272.852C170.529 276 169.566 279.209 169.675 282.482C169.76 285.298 171.14 288.937 174.86 288.965ZM172.495 275.698C172.804 274.606 173.142 273.515 173.464 272.438C173.742 271.512 174.005 270.598 174.255 269.67C174.295 269.544 174.325 269.403 174.35 269.288C174.376 269.172 174.417 269.047 174.444 268.932C174.49 269.039 174.536 269.148 174.582 269.256C174.579 269.281 174.579 269.281 174.592 269.295C174.876 270.008 175.145 270.707 175.444 271.409C176.204 273.306 176.936 275.201 177.46 277.183C177.821 278.527 178.178 279.922 178.337 281.3C178.575 283.453 177.188 290.41 172.604 286.136C170.083 283.79 171.726 278.377 172.495 275.698Z" fill="#263238"/>
<path d="M173.731 269.092C173.707 269.181 173.756 269.263 173.882 269.286C174.051 269.3 174.208 269.3 174.35 269.286C174.433 269.32 174.504 269.312 174.547 269.303C174.575 269.306 174.588 269.32 174.591 269.294C174.886 269.331 175.142 269.327 175.413 269.312C176.419 269.331 177.434 269.274 178.427 269.162C182.386 268.794 186.475 267.707 189.766 266.086C192.591 264.699 195.501 261.51 193.392 258.473C193.318 258.363 193.229 258.264 193.139 258.166C191.076 255.665 187.167 256.518 184.613 257.89C181.951 259.343 179.726 261.393 177.645 263.546C176.215 265.038 174.837 266.586 173.425 268.041C173.409 268.052 173.409 268.052 173.394 268.064C173.031 268.435 173.321 268.928 173.731 269.092ZM179.835 263.69C181.916 261.655 186.06 257.505 189.584 258.204C190.67 258.426 191.392 258.733 191.85 259.123C194.147 260.994 189.909 264.408 188.136 265.208C186.78 265.835 185.298 266.296 183.859 266.747C182.759 267.083 181.652 267.355 180.52 267.597C178.687 268.014 176.85 268.34 175.006 268.719L174.978 268.717C174.863 268.733 174.744 268.774 174.63 268.791C174.722 268.721 174.786 268.648 174.866 268.563C175.084 268.374 175.287 268.196 175.492 267.992C176.97 266.583 178.369 265.113 179.835 263.69Z" fill="#263238"/>
<path d="M574.354 419.657C572.098 421.762 494.147 457.975 490.224 457.623C489.558 457.574 484.103 445.866 476.846 432.453C475.363 429.713 461.143 413.87 461.143 413.87L509.025 389.477L526.116 411.479C526.116 411.479 561.724 409.893 565.995 410.696C570.237 411.501 576.619 417.56 574.354 419.657Z" fill="#FFC727"/>
<g opacity="0.9">
<path d="M574.354 419.657C572.098 421.762 494.147 457.975 490.224 457.623C489.558 457.574 484.103 445.866 476.846 432.453C475.363 429.713 461.143 413.87 461.143 413.87L509.025 389.477L526.116 411.479C526.116 411.479 561.724 409.893 565.995 410.696C570.237 411.501 576.619 417.56 574.354 419.657Z" fill="white"/>
</g>
<path d="M512.954 394.534L465.45 418.726C464.807 417.997 464.205 417.305 463.66 416.704L511.318 392.435L512.954 394.534Z" fill="#FFC727"/>
<path d="M516.197 398.707L468.987 422.758C468.385 422.08 467.798 421.402 467.225 420.736L514.561 396.608L516.197 398.707Z" fill="#263238"/>
<path d="M519.441 402.893L472.468 426.829C471.909 426.163 471.321 425.485 470.72 424.781L517.819 400.793L519.441 402.893Z" fill="#FFC727"/>
<path d="M574.666 419.461C572.416 421.553 494.161 458.594 490.25 458.257C488.767 458.135 483.169 446.314 477.513 433.695L526.587 410.925C526.587 410.925 562.085 409.747 566.33 410.539C570.557 411.339 576.915 417.368 574.666 419.461Z" fill="#FFC727"/>
<path d="M571.976 417.133C558.806 422.888 506.285 447.241 493.745 453.848C493.643 453.902 493.679 453.967 493.787 453.924C506.976 448.48 559.28 423.738 572.085 417.329C572.354 417.193 572.254 417.011 571.976 417.133Z" fill="white"/>
<path d="M559.92 410.301C556.771 411.621 554.501 414.365 553.752 416.831C553.033 419.2 552.912 422.117 554.372 424.548C554.414 424.617 554.558 424.553 554.529 424.475C552.686 419.464 555.045 413.213 560.002 410.451C560.103 410.395 560.027 410.256 559.92 410.301Z" fill="white"/>
<path d="M531.329 410.222C526.086 412.577 520.984 417.067 519.911 422.474C519.869 422.684 520.195 422.735 520.31 422.591C523.784 418.178 527.339 414.441 531.744 410.769C532.054 410.509 531.705 410.054 531.329 410.222Z" fill="#263238"/>
<path d="M536.144 409.789C530.9 412.145 525.799 416.635 524.726 422.042C524.684 422.251 525.01 422.301 525.125 422.157C528.599 417.745 532.154 414.008 536.559 410.335C536.871 410.076 536.52 409.622 536.144 409.789Z" fill="#263238"/>
<path d="M540.958 409.357C535.716 411.712 530.613 416.202 529.541 421.609C529.499 421.819 529.825 421.87 529.939 421.724C533.413 417.312 536.968 413.576 541.373 409.902C541.684 409.643 541.334 409.188 540.958 409.357Z" fill="#263238"/>
<path d="M545.773 408.924C540.531 411.279 535.428 415.77 534.356 421.176C534.314 421.385 534.64 421.437 534.754 421.291C538.228 416.879 541.783 413.142 546.188 409.469C546.499 409.211 546.149 408.755 545.773 408.924Z" fill="#263238"/>
<path d="M490.783 440.985C484.95 443.717 489.578 452.029 495.42 449.293C501.252 446.561 496.625 438.249 490.783 440.985Z" fill="white"/>
<path d="M529.907 394.872C526.152 394.094 523.918 397.605 523.446 400.425C522.853 404.046 523.212 408.262 524.374 411.958C524.522 412.491 524.704 413.009 524.894 413.503C524.993 413.718 525.074 413.94 525.148 414.148C525.175 414.155 525.157 414.163 525.157 414.163L525.246 414.322C525.327 414.505 525.4 414.671 525.471 414.839C525.524 414.934 525.639 414.941 525.716 414.884C525.893 415.082 526.218 415.19 526.496 415.099C526.636 415.073 526.764 414.991 526.858 414.847C527.522 413.728 528.238 412.584 528.955 411.44C529.092 411.255 529.203 411.062 529.33 410.861C531.069 408.065 532.718 405.192 533.362 402.05C533.925 399.35 533.443 395.613 529.907 394.872ZM529.133 407.977C528.589 408.959 528.018 409.933 527.465 410.899C526.988 411.729 526.53 412.549 526.079 413.386C526.011 413.499 525.952 413.628 525.902 413.732C525.852 413.837 525.783 413.949 525.733 414.053C525.713 413.942 525.695 413.829 525.675 413.718C525.684 413.693 525.684 413.693 525.675 413.678C525.568 412.943 525.471 412.225 525.347 411.499C525.056 409.545 524.792 407.597 524.746 405.606C524.708 404.256 524.687 402.857 524.851 401.512C525.116 399.414 528.024 393.048 531.413 398.004C533.273 400.724 530.475 405.57 529.133 407.977Z" fill="#263238"/>
<path d="M526.447 414.036C526.489 413.956 526.463 413.869 526.348 413.821C526.19 413.775 526.042 413.744 525.902 413.73C525.832 413.683 525.762 413.677 525.718 413.677C525.691 413.669 525.683 413.654 525.674 413.677C525.402 413.584 525.157 413.538 524.896 413.501C523.942 413.289 522.962 413.149 521.992 413.065C518.138 412.655 513.998 412.905 510.495 413.817C507.488 414.597 503.991 417.076 505.304 420.379C505.349 420.498 505.412 420.609 505.475 420.72C506.867 423.502 510.784 423.439 513.528 422.623C516.394 421.75 518.981 420.224 521.452 418.571C523.154 417.424 524.82 416.212 526.496 415.097C526.513 415.088 526.513 415.088 526.531 415.081C526.965 414.798 526.8 414.272 526.447 414.036ZM519.404 418.013C516.958 419.553 512.066 422.713 508.87 421.368C507.888 420.948 507.27 420.516 506.923 420.056C505.163 417.83 509.978 415.391 511.847 414.969C513.281 414.633 514.796 414.479 516.269 414.326C517.393 414.217 518.508 414.171 519.642 414.158C521.482 414.112 523.306 414.154 525.147 414.149L525.174 414.157C525.287 414.163 525.409 414.146 525.523 414.153C525.42 414.201 525.342 414.259 525.247 414.324C524.995 414.463 524.761 414.594 524.52 414.749C522.792 415.807 521.124 416.938 519.404 418.013Z" fill="#263238"/>
<path d="M509.024 389.477L461.142 413.87C461.142 413.87 422.589 381.747 403.276 327.133C401.415 321.873 321.761 254.225 304.785 236.81C284.183 215.675 302.797 186.609 302.797 186.609L364.951 192.681L365.756 207.36C370.705 214.657 435.452 283.118 446.137 298.034C457.145 313.396 509.024 389.477 509.024 389.477Z" fill="#D3766A"/>
<path d="M303.489 180.475L367.84 192.643C367.84 192.643 369.206 207.674 368.493 208.314C368.007 208.751 410.351 248.849 409.793 249.755C409.235 250.661 350.913 282.688 349.666 282.472C348.421 282.255 308.797 241.688 306.475 239.645C304.153 237.604 276.686 218.244 303.489 180.475Z" fill="#FFC727"/>
<path d="M353.962 197.931C359.389 200.697 364.249 204.161 368.495 208.315C363.062 205.554 358.211 202.079 353.962 197.931Z" fill="#263238"/>
<path d="M356.488 279.159C355.803 279.53 355.148 279.863 354.547 280.169C343.021 265.817 307.108 230.378 303.774 225.83C291.277 208.783 309.026 184.802 310.409 181.784L312.962 182.267C308.544 188.443 295.083 210.657 305.562 224.616C308.923 229.09 344.6 264.436 356.488 279.159Z" fill="white"/>
<path d="M361.994 276.254C361.323 276.613 360.681 276.958 360.052 277.29C348.597 263.092 313.258 229.395 309.644 224.994C297.326 209.99 314.188 185.569 315.558 182.756L317.924 183.204C312.721 191.663 300.88 212.508 312.904 224.861C316.862 228.929 350.189 261.737 361.994 276.254Z" fill="white"/>
<path d="M364.277 97.3516C364.277 97.3516 357.744 94.1708 352.263 97.0035C346.781 99.8361 346.979 104.55 349.623 109.435C352.267 114.319 357.961 119.201 363.453 117.851C372.222 115.695 372.862 104.75 369.978 101.398C367.095 98.0454 364.277 97.3516 364.277 97.3516Z" fill="#263238"/>
<path d="M364.277 97.3517C359.131 95.7735 351.126 94.4346 348.343 99.9642C346.699 103.862 349.244 108.649 351.35 112.061C348.51 108.804 345.664 103.83 347.417 99.6135C350.277 93.5284 359.068 94.793 364.277 97.3517Z" fill="#263238"/>
<path d="M348.12 103.952C348.12 103.952 345.714 100.034 340.051 99.9165C334.388 99.7988 332.172 103.529 331.762 108.421C331.353 113.313 333.51 120.72 340.624 120.503C348.791 120.253 352.06 112.795 351.515 108.985C350.968 105.179 348.12 103.952 348.12 103.952Z" fill="#263238"/>
<path d="M349.169 105.248C345.96 101.903 340.475 97.5115 335.561 100.594C332.331 102.928 331.905 107.647 331.778 111.182C331.185 107.435 331.46 102.416 334.96 99.859C340.25 96.3352 346.453 101.03 349.169 105.248Z" fill="#263238"/>
<path d="M317.332 110.49C317.332 110.49 317.873 114.243 322.263 115.958C326.651 117.673 329.66 115.392 331.652 111.683C333.645 107.974 333.659 100.964 327.904 99.4279C322.364 97.9495 317.273 102.445 316.398 105.58C315.523 108.716 317.332 110.49 317.332 110.49Z" fill="#263238"/>
<path d="M316.955 109.176C318.379 112.66 321.129 117.627 325.984 116.646C329.312 115.73 331.213 112.237 332.584 109.521C331.804 112.669 329.9 116.509 326.244 117.532C320.861 118.793 317.566 113.303 316.955 109.176Z" fill="#263238"/>
<path d="M302.317 106.991C302.317 106.991 302.221 106.507 302.176 105.733C305.778 106.963 308.104 106.372 308.104 106.372C305.541 105.885 303.481 104.671 302.217 103.752C302.341 102.511 302.677 101.074 303.457 99.7311C305.394 96.4057 308.73 94.2886 308.73 94.2886C315.302 96.855 317.491 100.374 318.192 102.082C318.452 102.715 318.508 103.101 318.508 103.101L317.202 108.189C310.636 111.295 302.317 106.991 302.317 106.991Z" fill="#263238"/>
<path d="M318.321 103.374C317.8 99.4995 314.928 96.43 311.37 94.4921C310.857 94.2143 310.325 93.9622 309.808 93.6665C310.383 93.8329 310.957 94.0121 311.523 94.2182C315.417 95.7209 318.726 99.3484 318.321 103.374Z" fill="#263238"/>
<path d="M372.191 181.828L367.84 192.644L303.489 180.476C303.489 180.476 310.721 171.022 323.177 162.793C323.177 162.793 334.99 135.149 352.335 128.762C364.848 124.152 374.219 128.986 377.414 137.41C378.223 139.543 382.059 167.412 381.152 171.803C379.947 177.638 372.191 181.828 372.191 181.828Z" fill="#D3766A"/>
<path d="M377.422 137.408C377.217 136.846 376.978 136.315 376.709 135.801C377.405 140.726 375.461 144.604 371.963 143.737C367.254 142.57 363.062 132.856 360.65 126.877C358.89 126.598 357.319 126.667 355.04 127.419C348 129.738 328.865 144.235 320.677 159.809C320.677 159.809 308.916 168.292 305.063 172.833L372.529 189.046L373.656 182.198C373.656 182.198 380.369 177.951 381.718 170.916C382.364 167.535 378.229 139.543 377.422 137.408Z" fill="#263238"/>
<path d="M355.953 173.267C358.537 174.259 361.098 175.361 363.478 176.8C364.664 177.515 365.803 178.294 366.933 179.105C367.496 179.51 368.069 179.889 368.648 180.266C369.242 180.653 369.888 181.037 370.571 181.235C370.632 181.253 370.598 181.362 370.536 181.348C369.859 181.203 369.213 181.061 368.569 180.811C367.956 180.573 367.372 180.256 366.804 179.922C365.595 179.21 364.422 178.429 363.221 177.702C360.798 176.235 358.376 174.77 355.843 173.519C355.727 173.462 355.83 173.22 355.953 173.267Z" fill="#37474F"/>
<path d="M348.493 174.414C350.772 174.699 353.062 175.115 355.268 175.698C356.378 175.991 357.455 176.358 358.527 176.761C359.039 176.953 359.546 177.157 360.051 177.368C360.606 177.6 361.124 177.921 361.684 178.143C361.742 178.166 361.709 178.277 361.649 178.255C361.115 178.064 360.539 177.979 359.992 177.826C359.443 177.673 358.895 177.514 358.344 177.359C357.244 177.051 356.139 176.756 355.042 176.436C352.845 175.794 350.652 175.181 348.428 174.629C348.308 174.598 348.376 174.399 348.493 174.414Z" fill="#37474F"/>
<path d="M363.048 127.868C362.855 129.121 365.68 138.703 371.518 140.494C373.421 141.074 377.344 131.709 377.344 131.709L377.806 131.078L384.269 122.245L374.95 110.544L373.566 108.942C373.566 108.942 371.973 111.465 370.022 114.625C369.932 114.771 369.839 114.918 369.744 115.074C369.628 115.251 369.518 115.416 369.418 115.585C369.121 116.054 368.819 116.534 368.528 117.017C368.306 117.385 368.088 117.741 367.87 118.134C367.64 118.523 367.425 118.905 367.196 119.295C365.018 123.182 363.137 127.339 363.048 127.868Z" fill="#D3766A"/>
<path d="M370.022 114.626C369.785 123.399 375.171 128.925 377.808 131.078L384.271 122.245L374.952 110.544L373.568 108.942C373.568 108.942 371.972 111.467 370.022 114.626Z" fill="#263238"/>
<path d="M403.812 108.102C404.072 126.76 391.897 129.01 387.503 129.057C383.515 129.099 369.926 128.781 367.561 110.248C365.195 91.7144 374.588 85.7048 383.705 85.1646C392.824 84.6258 403.552 89.4437 403.812 108.102Z" fill="#D3766A"/>
<path d="M400.813 104.842C400.339 104.916 399.888 104.913 399.41 104.942C398.871 104.975 398.445 105.052 397.957 104.794C397.696 104.655 397.587 104.261 397.708 104.015C397.994 103.443 398.644 103.254 399.291 103.19C399.993 103.121 400.553 103.231 401.145 103.583C401.719 103.924 401.44 104.744 400.813 104.842Z" fill="#263238"/>
<path d="M386.658 105.642C387.109 105.796 387.554 105.869 388.016 105.978C388.539 106.102 388.942 106.249 389.474 106.077C389.76 105.985 389.946 105.617 389.876 105.355C389.709 104.745 389.111 104.448 388.488 104.275C387.811 104.088 387.238 104.102 386.586 104.348C385.954 104.587 386.062 105.44 386.658 105.642Z" fill="#263238"/>
<path d="M389.849 108.865C389.838 108.817 389.741 108.927 389.744 108.979C389.814 110.249 389.659 111.713 388.412 112.156C388.373 112.17 388.378 112.233 388.424 112.226C389.952 112.004 390.137 110.058 389.849 108.865Z" fill="#263238"/>
<path d="M388.584 107.56C386.35 107.442 386.255 111.542 388.325 111.652C390.362 111.759 390.457 107.658 388.584 107.56Z" fill="#263238"/>
<path d="M387.7 107.759C387.303 107.983 386.912 108.387 386.439 108.42C385.893 108.458 385.49 108.022 385.143 107.602C385.107 107.558 385.068 107.593 385.065 107.648C385.034 108.434 385.346 109.245 386.263 109.381C387.099 109.504 387.718 108.821 387.951 108.035C387.992 107.887 387.86 107.669 387.7 107.759Z" fill="#263238"/>
<path d="M397.465 108.763C397.478 108.714 397.571 108.825 397.569 108.878C397.485 110.146 397.622 111.613 398.863 112.068C398.902 112.082 398.895 112.145 398.849 112.138C397.324 111.9 397.163 109.952 397.465 108.763Z" fill="#263238"/>
<path d="M398.746 107.469C400.983 107.373 401.027 111.474 398.957 111.563C396.917 111.65 396.871 107.549 398.746 107.469Z" fill="#263238"/>
<path d="M399.683 107.73C400.039 107.944 400.394 108.337 400.816 108.357C401.307 108.383 401.663 107.935 401.972 107.507C402.005 107.462 402.04 107.497 402.042 107.551C402.075 108.334 401.801 109.153 400.98 109.312C400.232 109.457 399.673 108.788 399.46 108.01C399.421 107.866 399.539 107.644 399.683 107.73Z" fill="#263238"/>
<path d="M389.131 118.733C389.424 119.062 389.704 119.503 390.2 119.593C390.675 119.679 391.263 119.538 391.721 119.427C391.766 119.415 391.805 119.462 391.773 119.497C391.356 119.945 390.565 120.171 389.939 120.004C389.326 119.84 389.077 119.314 388.991 118.776C388.978 118.701 389.087 118.685 389.131 118.733Z" fill="#263238"/>
<path d="M395.194 114.434C395.194 114.434 395.368 116.343 395.315 117.236C395.31 117.32 395.072 117.348 394.739 117.349C394.723 117.353 394.714 117.358 394.702 117.348C392.964 117.509 391.26 116.878 390.288 115.538C390.225 115.447 390.355 115.361 390.44 115.421C391.676 116.351 393.086 116.644 394.612 116.742C394.696 116.498 394.196 113.482 394.351 113.48C394.886 113.464 395.918 113.848 396.54 114.049C396.304 110.063 395.371 106.144 395.201 102.172C395.198 102.03 395.422 101.999 395.459 102.127C396.754 106.171 397.137 110.753 397.496 114.863C397.545 115.375 395.575 114.605 395.194 114.434Z" fill="#263238"/>
<path d="M393.752 117.058C393.752 117.058 392.884 117.981 391.776 118.262C391.366 118.367 390.934 118.39 390.492 118.249C389.586 117.965 389.626 117.186 389.848 116.534C390.03 115.996 390.343 115.544 390.343 115.544C390.343 115.544 391.599 116.791 393.752 117.058Z" fill="#263238"/>
<path d="M391.776 118.262C391.366 118.367 390.934 118.39 390.492 118.249C389.586 117.965 389.626 117.186 389.848 116.534C390.831 116.694 391.762 117.375 391.776 118.262Z" fill="#FF9CBD"/>
<path d="M367.453 110.538C370.846 110.932 371.978 104.43 371.978 104.43C371.978 104.43 378.899 104.76 381.671 95.7503C381.671 95.7503 381.293 99.9858 378.202 103.147C378.202 103.147 390.468 102.513 396.109 93.3938C396.109 93.3938 393.804 98.0645 391.791 99.6722C391.791 99.6722 396.98 98.5957 399.68 94.9017C399.68 94.9017 402.487 97.5077 403.241 101.706C403.241 101.706 403.638 82.3858 383.744 83.5749C383.744 83.5749 371.317 83.7695 366.388 92.5465C361.46 101.323 367.453 110.538 367.453 110.538Z" fill="#263238"/>
<path d="M371.5 111.439C371.5 111.439 367.858 105.164 364.8 106.284C361.742 107.404 363.941 116.156 367.151 117.679C370.361 119.203 371.96 116.509 371.96 116.509L371.5 111.439Z" fill="#D3766A"/>
<path d="M365.5 108.778C365.447 108.768 365.427 108.836 365.471 108.859C367.713 109.998 368.686 112.139 369.279 114.313C368.685 113.435 367.788 112.891 366.516 113.523C366.449 113.556 366.497 113.651 366.565 113.646C367.556 113.564 368.233 113.796 368.791 114.578C369.185 115.131 369.417 115.8 369.67 116.417C369.754 116.622 370.15 116.562 370.099 116.33C370.095 116.314 370.091 116.296 370.087 116.278C370.513 113.532 368.69 109.417 365.5 108.778Z" fill="#263238"/>
<path d="M350.311 126.109C320.939 122.427 288.505 125.848 283.088 132.396C275.314 141.791 278.252 174.392 280.664 186.993C281.468 191.194 315.386 181.106 315.196 176.549C315.013 172.187 309.65 149.696 309.907 149.196C310.459 148.123 342.64 140.213 350.814 138.293C358.138 136.573 366.509 128.14 350.311 126.109Z" fill="#D3766A"/>
<path d="M329.574 216.349C326.676 218.684 323.258 216.788 323.258 216.788C323.258 216.788 322.46 219.514 319.917 220.901C317.004 222.49 313.007 219.003 313.007 219.003C313.007 219.003 311.575 221.609 308.727 222.826C305.772 224.09 301.191 221.098 301.191 221.098C301.191 221.098 298.402 222.854 295.116 222.29C289.498 221.325 286.316 213.882 284.241 209.169C282.165 204.457 281.1 189.309 280.579 186.442L313.497 173.987C313.497 173.987 329.37 192.695 330.95 198.552C332.281 203.488 332.826 213.729 329.574 216.349Z" fill="#D3766A"/>
<path d="M323.693 216.382C323.652 210.824 321.818 205.58 320.314 200.25C320.28 200.132 320.077 200.181 320.112 200.3C321.677 205.583 322.075 211.085 323.406 216.415C323.442 216.562 323.694 216.53 323.693 216.382Z" fill="#263238"/>
<path d="M313.392 218.743C313.342 217.486 312.839 216.248 312.432 215.058C311.994 213.777 311.532 212.503 311.048 211.235C310.08 208.696 309.049 206.179 307.937 203.69C307.888 203.58 307.691 203.621 307.737 203.74C308.696 206.271 309.615 208.815 310.458 211.382C310.88 212.666 311.288 213.953 311.69 215.244C312.061 216.443 312.345 217.737 313.004 218.839C313.102 219 313.401 218.933 313.392 218.743Z" fill="#263238"/>
<path d="M301.153 220.989C301.157 219.895 300.507 218.725 300.094 217.714C299.628 216.566 299.168 215.415 298.713 214.263C297.807 211.958 296.901 209.652 296.084 207.32C296.043 207.204 295.842 207.252 295.882 207.37C296.7 209.743 297.483 212.128 298.323 214.495C298.736 215.657 299.156 216.817 299.583 217.975C299.946 218.959 300.278 220.228 301.026 221.036C301.07 221.08 301.153 221.044 301.153 220.989Z" fill="#263238"/>
<path d="M313.135 165.551C314.263 168.855 315.304 173.491 315.476 176.328C317.391 178.545 319.418 180.712 320.939 183.179C320.192 182.173 318.87 180.861 317.989 179.927L314.915 176.77C313.746 173.143 313.268 169.341 313.135 165.551Z" fill="#263238"/>
<path d="M320.939 121.171L324.769 146.954C324.769 146.954 349.193 141.18 357.019 137.142C364.845 133.102 363.744 127.362 351.537 124.342C339.328 121.321 320.939 121.171 320.939 121.171Z" fill="#263238"/>
<path d="M324.457 144.852C324.64 145.544 324.792 146.237 324.949 146.931L324.719 146.793C330.504 144.852 336.384 143.19 342.352 141.797C344.34 141.327 346.338 140.886 348.364 140.52C344.546 141.913 340.644 143.094 336.714 144.189C332.715 145.303 328.678 146.313 324.601 147.159C324.547 146.391 324.485 145.624 324.457 144.852Z" fill="#37474F"/>
<path d="M347.825 142.241C346.276 142.813 344.495 142.763 343.008 142.055C344.646 141.894 346.192 141.939 347.825 142.241Z" fill="#37474F"/>
</svg>
