<svg width="311" height="326" viewBox="0 0 311 326" fill="none" xmlns="http://www.w3.org/2000/svg">
<path d="M198.02 235.442H277.702L280.265 182.443H195.457L198.02 235.442Z" fill="#EBEBEB"/>
<path d="M201.049 188.63H272.658L271.571 206.378H201.981L201.049 188.63Z" stroke="#DBDBDB" stroke-miterlimit="10"/>
<path d="M203.243 211.588L204 227.545H270.62L271.571 211.588H203.243Z" stroke="#DBDBDB" stroke-miterlimit="10"/>
<path d="M244.571 199.173H230.242L229.776 195.387H245.037L244.571 199.173Z" stroke="#DBDBDB" stroke-miterlimit="10"/>
<path d="M244.571 221.46H230.242L229.776 217.674H245.037L244.571 221.46Z" stroke="#DBDBDB" stroke-miterlimit="10"/>
<path d="M209.07 235.442L208.297 241.216L206.74 252.818H203.697V235.442H209.07Z" fill="#EBEBEB"/>
<path d="M209.07 235.442L208.297 241.216H203.697V235.442H209.07Z" fill="#DBDBDB"/>
<path d="M266.652 235.442L267.425 241.216L268.982 252.818H272.025V235.442H266.652Z" fill="#EBEBEB"/>
<path d="M266.652 235.442L267.425 241.216H272.025V235.442H266.652Z" fill="#DBDBDB"/>
<path d="M79.9764 37.4783H48.1318V83.3693H79.9764V37.4783Z" fill="#EBEBEB"/>
<path d="M115.409 37.4783H83.5645V83.3693H115.409V37.4783Z" fill="#EBEBEB"/>
<path d="M79.9764 87.1268H48.1318V133.018H79.9764V87.1268Z" fill="#EBEBEB"/>
<path d="M115.409 87.1268H83.5645V133.018H115.409V87.1268Z" fill="#EBEBEB"/>
<path d="M226.192 37.4783H194.347V83.3693H226.192V37.4783Z" fill="#EBEBEB"/>
<path d="M261.624 37.4783H229.78V83.3693H261.624V37.4783Z" fill="#EBEBEB"/>
<path d="M226.192 87.1268H194.347V133.018H226.192V87.1268Z" fill="#EBEBEB"/>
<path d="M261.624 87.1268H229.78V133.018H261.624V87.1268Z" fill="#EBEBEB"/>
<path d="M153.084 37.4783H121.24V83.3693H153.084V37.4783Z" fill="#EBEBEB"/>
<path d="M188.516 37.4783H156.672V83.3693H188.516V37.4783Z" fill="#EBEBEB"/>
<path d="M153.084 87.1268H121.24V133.018H153.084V87.1268Z" fill="#EBEBEB"/>
<path d="M188.516 87.1268H156.672V133.018H188.516V87.1268Z" fill="#EBEBEB"/>
<path d="M267.079 144.586C266.821 146.437 266.917 148.346 267.348 150.158C267.55 151.006 267.827 151.825 268.162 152.621C268.585 153.641 269.027 154.636 268.921 155.752C268.818 155.823 269.17 155.812 269.182 155.703C272.026 154.006 275.673 153.695 277.861 150.92C278.898 149.607 279.421 147.941 279.669 146.275C279.938 144.461 280.013 142.453 279.566 140.665C279.19 139.153 278.347 137.695 276.991 136.954C275.592 136.191 273.76 136.255 272.286 136.734C269.109 137.768 267.529 141.363 267.079 144.586Z" fill="#EBEBEB"/>
<path d="M265.619 166.653C266.007 165.297 266.395 163.941 266.793 162.589C267.574 159.939 268.385 157.3 269.283 154.691C269.821 153.129 270.388 151.581 270.985 150.049C270.883 149.086 270.843 148.127 270.645 147.167C270.408 146.011 270.062 144.895 269.74 143.764C269.72 143.694 269.828 143.658 269.855 143.724C270.494 145.282 271.327 147.276 271.348 149.121C272.042 147.387 272.784 145.676 273.584 143.992C273.629 142.557 273.679 141.166 273.459 139.721C273.449 139.656 273.543 139.636 273.554 139.701C273.768 140.914 273.918 142.215 273.833 143.472C274.444 142.207 275.088 140.957 275.773 139.726C275.835 139.615 275.981 139.729 275.927 139.838C274.858 141.994 273.867 144.197 272.937 146.429C274.225 145.231 275.785 144.325 277.395 143.722C277.466 143.696 277.52 143.803 277.448 143.835C275.615 144.638 274.076 145.773 272.625 147.182C271.957 148.816 271.32 150.465 270.713 152.123C272.493 150.295 274.928 149.091 277.283 148.447C277.364 148.425 277.385 148.554 277.308 148.578C274.582 149.438 272.464 151.058 270.391 153.004C270.15 153.675 269.914 154.348 269.682 155.021C268.804 157.576 267.971 160.148 267.173 162.731C266.79 163.969 266.413 165.21 266.044 166.453C265.646 167.79 265.335 169.201 264.817 170.492C264.768 170.615 264.557 170.587 264.583 170.439C264.817 169.159 265.262 167.901 265.619 166.653Z" fill="#DBDBDB"/>
<path d="M270.336 141.976C270.845 142.794 271.186 143.694 271.361 144.652C271.365 144.677 271.328 144.691 271.319 144.666C271.002 143.765 270.63 142.894 270.209 142.041C270.166 141.953 270.288 141.899 270.336 141.976Z" fill="#DBDBDB"/>
<path d="M275.41 148.187C276.146 147.748 277.123 147.402 277.962 147.286C277.985 147.283 277.999 147.319 277.976 147.329C277.565 147.508 277.134 147.632 276.719 147.799C276.302 147.967 275.896 148.171 275.474 148.325C275.386 148.357 275.327 148.237 275.41 148.187Z" fill="#DBDBDB"/>
<path d="M276.839 140.715C277.098 140.536 277.373 140.306 277.66 140.184C277.706 140.165 277.745 140.224 277.708 140.26C277.48 140.479 277.163 140.642 276.898 140.81C276.846 140.843 276.788 140.751 276.839 140.715Z" fill="#DBDBDB"/>
<path d="M257.492 154.71C259.54 155.347 261.599 155.937 263.647 156.567C263.825 156.623 267.287 149.668 266.036 146.085C264.88 142.769 262.231 140.287 259.074 139.16C257.612 138.639 255.814 138.202 254.269 138.559C252.895 138.878 251.925 140.056 251.479 141.41C250.87 143.251 251.073 145.446 251.404 147.326C251.711 149.068 252.319 150.785 253.419 152.153C254.507 153.509 255.895 154.214 257.492 154.71Z" fill="#EBEBEB"/>
<path d="M254.522 148.1C255.827 148.79 257.148 149.289 258.538 149.758C259.409 150.051 260.385 150.316 261.219 150.775C260.355 148.754 259.406 146.774 258.398 144.813C257.075 144.411 255.683 143.786 254.685 142.804C254.631 142.751 254.701 142.67 254.76 142.714C255.851 143.523 257.055 144.009 258.262 144.555C257.99 144.027 257.716 143.5 257.434 142.974C257.356 142.828 257.548 142.683 257.643 142.825C258.716 144.449 259.682 146.17 260.553 147.949C260.769 146.379 260.847 144.85 260.764 143.254C260.762 143.214 260.817 143.21 260.824 143.25C261.077 144.938 261.065 146.724 260.773 148.408C261.492 149.91 262.146 151.45 262.734 153.009C262.968 152.072 263.271 151.151 263.474 150.206C263.766 148.847 263.903 147.462 263.768 146.073C263.765 146.032 263.822 146.029 263.828 146.068C264.225 148.532 263.863 151.314 262.968 153.655C263.311 154.593 263.638 155.535 263.936 156.479C265.466 161.309 266.408 166.29 266.655 171.376C266.661 171.493 266.494 171.505 266.482 171.389C265.925 166.4 264.943 161.435 263.43 156.667C262.836 154.795 262.152 152.978 261.402 151.194C260.192 150.819 258.988 150.311 257.799 149.88C256.64 149.459 255.452 148.972 254.478 148.173C254.439 148.142 254.481 148.078 254.522 148.1Z" fill="#DBDBDB"/>
<path d="M252.613 146.081C253.865 146.547 255.053 147.201 256.304 147.675C256.363 147.697 256.328 147.794 256.269 147.782C254.945 147.495 253.632 147.066 252.565 146.156C252.524 146.12 252.569 146.064 252.613 146.081Z" fill="#DBDBDB"/>
<path d="M262.841 143.247C262.826 143.177 262.924 143.137 262.943 143.209C263.287 144.419 263.524 145.704 263.19 146.941C263.177 146.989 263.104 146.991 263.101 146.935C263.041 145.689 263.108 144.476 262.841 143.247Z" fill="#DBDBDB"/>
<path d="M257.665 140.451C258.085 141.013 258.236 141.811 258.209 142.51C258.207 142.556 258.137 142.583 258.125 142.528C257.972 141.835 257.717 141.204 257.515 140.532C257.484 140.433 257.605 140.372 257.665 140.451Z" fill="#DBDBDB"/>
<path d="M281.855 157.778C281.255 159.776 279.828 162.537 277.568 162.559C276.104 162.574 274.628 162.392 273.16 162.37C271.588 162.345 270.012 162.349 268.443 162.446C268.315 162.454 268.632 157.511 272.411 155.104C273.469 154.429 274.764 154.216 275.966 153.943C277.34 153.63 278.756 153.419 280.166 153.485C281.034 153.521 281.756 153.714 282.065 154.645C282.386 155.621 282.143 156.829 281.855 157.778Z" fill="#EBEBEB"/>
<path d="M280.229 155.278C279.311 155.526 278.384 155.81 277.463 156.117C277.709 155.849 277.95 155.578 278.224 155.338C278.62 154.993 279.056 154.718 279.48 154.416C279.515 154.39 279.494 154.319 279.449 154.337C278.611 154.683 277.739 155.404 277.22 156.196C276.071 156.585 274.934 157.014 273.839 157.485C273.062 157.819 272.345 158.218 271.674 158.68C271.915 158.191 272.135 157.689 272.457 157.251C272.959 156.57 273.637 156.19 274.294 155.707C274.356 155.661 274.303 155.569 274.235 155.601C272.752 156.292 271.85 157.413 271.288 158.951C270.512 159.531 269.803 160.207 269.144 160.991C266.644 163.968 264.674 167.929 264.667 171.971C264.667 172.067 264.815 172.095 264.833 171.994C265.543 167.979 267.055 164.374 269.601 161.258C269.78 161.039 269.964 160.831 270.151 160.629C270.838 160.553 271.52 160.457 272.217 160.468C273.022 160.481 273.82 160.591 274.621 160.66C275.94 160.772 277.399 160.788 278.589 160.093C278.641 160.062 278.606 159.966 278.547 159.989C275.895 161 273.112 159.718 270.453 160.32C271.587 159.18 272.876 158.32 274.374 157.669C274.455 157.634 274.537 157.601 274.618 157.567C276.321 157.781 278.118 158.246 279.776 157.667C279.826 157.649 279.806 157.571 279.755 157.584C278.152 158.004 276.616 157.476 275.035 157.392C276.757 156.69 278.511 156.13 280.239 155.433C280.383 155.375 280.386 155.236 280.229 155.278Z" fill="#DBDBDB"/>
<path d="M280.98 157.035C280.149 157.179 279.337 157.183 278.502 157.232C278.483 157.234 278.477 157.264 278.497 157.269C279.311 157.461 280.203 157.343 280.996 157.101C281.038 157.088 281.02 157.028 280.98 157.035Z" fill="#DBDBDB"/>
<path d="M275.383 155.322C274.931 155.486 274.511 155.888 274.157 156.216C274.114 156.256 274.172 156.337 274.219 156.301C274.427 156.142 274.641 155.992 274.857 155.846C275.054 155.713 275.274 155.607 275.454 155.45C275.511 155.402 275.45 155.297 275.383 155.322Z" fill="#DBDBDB"/>
<path d="M262.039 161.754C262.067 161.819 261.977 161.881 261.942 161.812C261.939 161.812 261.939 161.812 261.939 161.808C261.925 161.826 261.908 161.845 261.88 161.848C260.353 162.193 258.818 162.547 257.263 162.692C256.013 162.809 254.573 162.881 253.479 162.121C251.997 161.092 251.022 158.337 251.824 156.587C252.771 154.509 255.628 155.637 257.062 156.376C259.266 157.504 261.036 159.411 262.039 161.754Z" fill="#EBEBEB"/>
<path d="M263.148 162.714C262.307 161.852 261.377 161.134 260.391 160.515C259.715 159.312 258.678 158.313 257.596 157.528C257.542 157.489 257.496 157.579 257.545 157.619C258.478 158.372 259.207 159.256 259.901 160.217C258.798 159.572 257.632 159.04 256.443 158.568C256.028 157.772 255.353 157.026 254.585 156.616C254.569 156.608 254.55 156.631 254.565 156.643C255.235 157.193 255.774 157.765 256.243 158.489C255.54 158.214 254.83 157.958 254.121 157.712C254.057 157.689 254.034 157.791 254.094 157.816C255.357 158.333 256.647 158.879 257.899 159.508C256.319 159.73 254.898 159.781 253.291 159.493C253.249 159.486 253.23 159.55 253.273 159.562C254.823 160.026 256.599 160.112 258.162 159.638C258.96 160.05 259.739 160.498 260.481 161C259.86 160.915 259.235 161.029 258.607 161.16C257.509 161.389 256.436 161.591 255.313 161.551C255.271 161.55 255.26 161.622 255.303 161.629C257.214 161.974 259.02 161.064 260.914 161.301C261.615 161.806 262.279 162.364 262.887 162.99C264.076 164.214 265.029 165.678 265.763 167.244C266.559 168.944 266.992 170.748 267.637 172.504C267.665 172.581 267.767 172.552 267.754 172.47C267.201 169.006 265.556 165.184 263.148 162.714Z" fill="#DBDBDB"/>
<path d="M257.385 157.963C257.274 157.724 257.078 157.52 256.895 157.341C256.736 157.183 256.54 156.98 256.331 156.898C256.312 156.89 256.301 156.917 256.313 156.931C256.469 157.118 256.687 157.254 256.856 157.432C257.027 157.612 257.167 157.822 257.34 157.999C257.364 158.024 257.399 157.993 257.385 157.963Z" fill="#DBDBDB"/>
<path d="M254.234 159.038C253.951 158.964 253.65 158.969 253.362 158.907C253.071 158.845 252.8 158.736 252.518 158.642C252.48 158.63 252.459 158.686 252.491 158.707C252.957 158.997 253.69 159.243 254.234 159.132C254.279 159.123 254.276 159.05 254.234 159.038Z" fill="#DBDBDB"/>
<path d="M272.234 166.383L271.923 170.093L270.865 182.617H261.508L260.187 170.093L259.797 166.383H272.234Z" fill="#DBDBDB"/>
<path d="M272.234 166.383L271.923 170.093H260.187L259.797 166.383H272.234Z" fill="#C7C7C7"/>
<path d="M273.161 165.372H258.871V168.381H273.161V165.372Z" fill="#EBEBEB"/>
<path d="M262.044 281.863C277.962 281.863 290.866 278.681 290.866 274.756C290.866 270.831 277.962 267.649 262.044 267.649C246.127 267.649 233.223 270.831 233.223 274.756C233.223 278.681 246.127 281.863 262.044 281.863Z" fill="#EBEBEB"/>
<path d="M53.9281 291.251C69.8458 291.251 82.7497 288.069 82.7497 284.144C82.7497 280.219 69.8458 277.037 53.9281 277.037C38.0103 277.037 25.1064 280.219 25.1064 284.144C25.1064 288.069 38.0103 291.251 53.9281 291.251Z" fill="#EBEBEB"/>
<path d="M69.6742 282.118C85.5919 282.118 98.4958 278.937 98.4958 275.012C98.4958 271.087 85.5919 267.905 69.6742 267.905C53.7564 267.905 40.8525 271.087 40.8525 275.012C40.8525 278.937 53.7564 282.118 69.6742 282.118Z" fill="#EBEBEB"/>
<path d="M169.425 299.636C224.642 299.636 269.405 293.737 269.405 286.461C269.405 279.184 224.642 273.286 169.425 273.286C114.207 273.286 69.4443 279.184 69.4443 286.461C69.4443 293.737 114.207 299.636 169.425 299.636Z" fill="#EBEBEB"/>
<path d="M31.1564 204.244C38.807 212.096 40.0915 224.242 38.4792 234.881C38.4376 235.122 38.0812 235.056 38.0812 234.83C38.0812 232.408 38.1508 230.008 38.144 227.615C38.1023 227.506 38.0668 227.403 38.0252 227.293C36.0286 225.771 34.193 224.051 33.0554 221.696C31.7778 219.062 31.2752 216.091 30.2981 213.34C30.2073 213.076 30.4753 213.154 30.6507 213.289C35.3045 216.887 36.788 220.759 38.1234 225.932C38.0606 223.247 37.8653 220.562 37.3136 217.876C36.3085 212.967 34.3193 208.101 30.9543 204.457C30.828 204.317 31.0233 204.105 31.1564 204.244Z" fill="#263238"/>
<path d="M29.7185 205.16C28.4024 205.206 27.5776 207.412 26.5519 208.054C26.0095 208.397 25.4808 208.376 25.0996 207.815C24.0832 206.328 25.4777 204.493 26.7889 203.467C25.8509 203.871 25.0734 204.582 24.0621 204.783C23.4494 204.901 22.9736 204.663 22.8305 204.01C22.3851 201.982 24.8109 201.081 26.4754 201.038C25.6687 200.45 23.3561 198.852 24.5845 198.066C25.8298 197.277 28.5436 199.562 29.4287 200.315C30.7299 201.422 32.2812 203.075 32.3403 204.806C32.4161 206.826 30.7311 205.583 29.7185 205.16Z" fill="#FFC727"/>
<path opacity="0.1" d="M29.7185 205.16C28.4024 205.206 27.5776 207.412 26.5519 208.054C26.0095 208.397 25.4808 208.376 25.0996 207.815C24.0832 206.328 25.4777 204.493 26.7889 203.467C25.8509 203.871 25.0734 204.582 24.0621 204.783C23.4494 204.901 22.9736 204.663 22.8305 204.01C22.3851 201.982 24.8109 201.081 26.4754 201.038C25.6687 200.45 23.3561 198.852 24.5845 198.066C25.8298 197.277 28.5436 199.562 29.4287 200.315C30.7299 201.422 32.2812 203.075 32.3403 204.806C32.4161 206.826 30.7311 205.583 29.7185 205.16Z" fill="black"/>
<path d="M30.0993 205.499C28.4168 204.697 25.1836 205.851 24.9087 205.184C24.3514 203.825 26.9346 202.893 28.3291 202.712C27.0447 202.347 24.584 201.767 24.6599 200.468C24.752 198.883 28.4342 200.246 30.2977 201.744C32.6458 203.631 32.6302 205.452 32.2421 205.817C31.7097 206.317 30.3773 205.632 30.0993 205.499Z" fill="#FFC727"/>
<path d="M48.5799 203.467C40.65 211.007 38.9258 223.094 40.1511 233.79C40.1841 234.033 40.5424 233.981 40.5505 233.754C40.6382 231.334 40.6556 228.933 40.7495 226.543C40.7955 226.434 40.8341 226.334 40.8795 226.226C42.9296 224.784 44.8267 223.139 46.0489 220.83C47.4211 218.249 48.0313 215.301 49.1073 212.59C49.2075 212.331 48.9369 212.397 48.7571 212.526C43.9764 215.935 42.3536 219.745 40.831 224.862C40.9915 222.181 41.2838 219.505 41.9326 216.843C43.115 211.978 45.2795 207.194 48.7739 203.687C48.9046 203.553 48.7173 203.333 48.5799 203.467Z" fill="#263238"/>
<path d="M49.983 204.439C51.2967 204.538 52.0412 206.775 53.0426 207.459C53.5726 207.822 54.1013 207.822 54.5025 207.277C55.5723 205.832 54.2456 203.943 52.9723 202.865C53.8948 203.307 54.6461 204.047 55.6494 204.289C56.2571 204.431 56.7416 204.212 56.9077 203.565C57.4265 201.557 55.0349 200.559 53.3735 200.45C54.2014 199.895 56.57 198.389 55.3714 197.555C54.156 196.718 51.3607 198.893 50.4489 199.61C49.1085 200.663 47.4981 202.254 47.3768 203.981C47.2269 205.997 48.9555 204.822 49.983 204.439Z" fill="#FFC727"/>
<path opacity="0.1" d="M49.983 204.439C51.2967 204.538 52.0412 206.775 53.0426 207.459C53.5726 207.822 54.1013 207.822 54.5025 207.277C55.5723 205.832 54.2456 203.943 52.9723 202.865C53.8948 203.307 54.6461 204.047 55.6494 204.289C56.2571 204.431 56.7416 204.212 56.9077 203.565C57.4265 201.557 55.0349 200.559 53.3735 200.45C54.2014 199.895 56.57 198.389 55.3714 197.555C54.156 196.718 51.3607 198.893 50.4489 199.61C49.1085 200.663 47.4981 202.254 47.3768 203.981C47.2269 205.997 48.9555 204.822 49.983 204.439Z" fill="black"/>
<path d="M49.5906 204.764C51.3011 204.03 54.4901 205.312 54.7886 204.656C55.3945 203.32 52.8474 202.286 51.4603 202.05C52.7566 201.736 55.2365 201.254 55.2079 199.953C55.173 198.366 51.4448 199.581 49.5284 201.004C47.1138 202.796 47.0634 204.616 47.4379 204.995C47.9516 205.516 49.3082 204.885 49.5906 204.764Z" fill="#FFC727"/>
<path d="M40.4705 223.382C39.8846 227.356 39.1593 231.465 38.0086 235.304C37.8985 235.654 37.4034 235.564 37.4544 235.187C37.9756 231.513 38.9248 227.907 39.4454 224.232C39.9748 220.515 40.2578 216.745 40.0544 212.986C39.7204 206.794 38.1162 200.208 34.2623 195.364C34.1777 195.249 34.3575 195.087 34.4446 195.193C42.1611 204.624 40.9333 216.188 40.9264 217.224C42.0186 213.319 43.1445 208.844 47.2764 204.868C47.4549 204.697 47.5936 204.778 47.5638 205.07C46.8248 212.311 44.9041 216.092 40.899 219.964C40.7858 221.112 40.6446 222.254 40.4705 223.382Z" fill="#263238"/>
<path d="M34.1924 196.449C32.8048 195.803 30.8896 197.655 29.5162 197.782C28.7891 197.851 28.2505 197.55 28.1242 196.767C27.784 194.688 30.1115 193.52 31.9651 193.147C30.7982 193.072 29.65 193.398 28.5042 193.073C27.812 192.873 27.4325 192.375 27.5974 191.622C28.1087 189.283 31.0588 189.628 32.8066 190.462C32.2518 189.426 30.6197 186.547 32.2717 186.379C33.9424 186.218 35.661 190.021 36.2177 191.269C37.0362 193.104 37.8517 195.638 37.0816 197.465C36.1909 199.602 35.0402 197.423 34.1924 196.449Z" fill="#FFC727"/>
<path opacity="0.1" d="M34.1924 196.449C32.8048 195.803 30.8896 197.655 29.5162 197.782C28.7891 197.851 28.2505 197.55 28.1242 196.767C27.784 194.688 30.1115 193.52 31.9651 193.147C30.7982 193.072 29.65 193.398 28.5042 193.073C27.812 192.873 27.4325 192.375 27.5974 191.622C28.1087 189.283 31.0588 189.628 32.8066 190.462C32.2518 189.426 30.6197 186.547 32.2717 186.379C33.9424 186.218 35.661 190.021 36.2177 191.269C37.0362 193.104 37.8517 195.638 37.0816 197.465C36.1909 199.602 35.0402 197.423 34.1924 196.449Z" fill="black"/>
<path d="M34.4243 197.003C33.0634 195.283 29.1547 194.775 29.1902 193.937C29.2648 192.234 32.3929 192.629 33.9261 193.178C32.7685 192.122 30.4951 190.22 31.1968 188.914C32.0539 187.318 35.2192 190.675 36.4334 193.212C37.9629 196.409 37.0728 198.29 36.4949 198.464C35.7025 198.701 34.6489 197.287 34.4243 197.003Z" fill="#FFC727"/>
<path d="M45.547 225.561L48.9499 252.818H28.2417C28.6684 250.403 32.5223 225.53 32.5223 225.53L45.547 225.561Z" fill="#FFC727"/>
<path d="M23.4443 252.818L56.4582 252.659L89.4721 252.602L155.5 252.492L221.528 252.601L254.542 252.658L287.556 252.818L254.542 252.977L221.528 253.034L155.5 253.143L89.4721 253.033L56.4582 252.976L23.4443 252.818Z" fill="#263238"/>
<path d="M58.7486 258.755H51.6846V275.667H58.7486V258.755Z" fill="#455A64"/>
<path d="M51.6846 260.571H48.2891V273.851H51.6846V260.571Z" fill="#455A64"/>
<path d="M51.6854 260.573H49.9873V273.854H51.6854V260.573Z" fill="#37474F"/>
<path d="M79.6679 275.668H86.7319V258.756H79.6679V275.668Z" fill="#455A64"/>
<path d="M86.7324 273.852H90.1279V260.572H86.7324V273.852Z" fill="#455A64"/>
<path d="M88.4295 260.569H86.7314V273.85H88.4295V260.569Z" fill="#37474F"/>
<path d="M79.6683 264.002H58.7485V270.426H79.6683V264.002Z" fill="#37474F"/>
<path d="M41.8692 268.044H34.8052V284.956H41.8692V268.044Z" fill="#455A64"/>
<path d="M34.8052 269.86H31.4097V283.14H34.8052V269.86Z" fill="#455A64"/>
<path d="M34.8065 269.862H33.1084V283.143H34.8065V269.862Z" fill="#37474F"/>
<path d="M62.7885 284.956H69.8525V268.045H62.7885V284.956Z" fill="#455A64"/>
<path d="M69.8525 283.141H73.248V269.861H69.8525V283.141Z" fill="#455A64"/>
<path d="M71.5501 269.858H69.8521V283.139H71.5501V269.858Z" fill="#37474F"/>
<path d="M62.7889 273.291H41.8691V279.715H62.7889V273.291Z" fill="#37474F"/>
<path d="M136.622 288.063C160.27 288.063 179.44 269.812 179.44 247.298C179.44 224.783 160.27 206.532 136.622 206.532C112.975 206.532 93.8052 224.783 93.8052 247.298C93.8052 269.812 112.975 288.063 136.622 288.063Z" fill="#FFC727"/>
<path d="M179.441 247.296C179.441 269.81 160.271 288.066 136.622 288.066C120.917 288.066 107.189 280.014 99.7438 268.017C95.9683 261.947 93.8037 254.86 93.8037 247.296C93.8037 224.783 112.974 206.533 136.622 206.533C143.358 206.533 149.728 208.013 155.4 210.654C169.638 217.272 179.441 231.192 179.441 247.296Z" fill="#FFC727"/>
<path d="M152.676 209.5C146.481 211.097 140.771 211.678 135.739 211.678C131.36 211.678 127.497 211.241 124.269 210.648C122.77 210.367 121.352 210.048 120.033 209.709C120.406 209.559 120.78 209.409 121.159 209.272C121.159 209.272 121.159 209.272 121.165 209.272C128.785 211.097 139.321 212.082 151.612 209.102C151.973 209.226 152.327 209.363 152.676 209.5Z" fill="white"/>
<path d="M160.743 213.614C151.407 217.194 142.892 218.367 135.739 218.367C131.36 218.367 127.497 217.93 124.269 217.331C119.175 216.392 115.07 214.977 112.24 213.784C112.464 213.634 112.688 213.49 112.918 213.347C120.948 216.587 138.445 221.314 160.065 213.184C160.295 213.321 160.519 213.464 160.743 213.614Z" fill="white"/>
<path d="M167.579 219.13C155.867 223.851 145.081 225.481 135.77 225.481C121.675 225.481 110.952 221.751 105.472 219.326C105.634 219.163 105.796 219 105.964 218.843C115.107 222.833 138.233 230.149 167.069 218.635C167.243 218.798 167.411 218.967 167.579 219.13Z" fill="white"/>
<path d="M162.933 279.46C162.335 279.909 161.72 280.34 161.091 280.751C151.873 283.685 143.333 284.76 135.77 284.76C126.713 284.76 119.05 283.222 113.278 281.481C113.272 281.474 113.272 281.474 113.266 281.474C112.594 281.057 111.941 280.62 111.3 280.17C121.899 283.737 140.491 287.192 162.933 279.46Z" fill="white"/>
<path d="M172.872 225.585C158.834 231.29 146.033 233.122 135.366 233.122C129.146 233.122 123.653 232.503 119.069 231.655C110.679 230.11 104.185 227.652 100.204 225.846C100.322 225.663 100.44 225.487 100.559 225.304C104.515 227.078 110.934 229.497 119.206 231.016C131.54 233.285 150.487 233.944 172.505 225.044C172.63 225.226 172.748 225.402 172.872 225.585Z" fill="white"/>
<path d="M172.387 269.719C172.163 270.045 171.933 270.371 171.69 270.69C158.118 276.024 145.728 277.751 135.366 277.751C129.146 277.751 123.653 277.132 119.069 276.284C111.823 274.948 105.989 272.933 101.97 271.251C101.709 270.912 101.46 270.573 101.218 270.227C105.217 271.975 111.381 274.211 119.206 275.652C131.515 277.914 150.418 278.573 172.387 269.719Z" fill="white"/>
<path d="M176.791 233.155C161.229 239.824 147.028 241.937 135.304 241.937C128.76 241.937 122.988 241.285 118.167 240.392C107.792 238.481 100.179 235.241 96.3726 233.37C96.441 233.168 96.5218 232.965 96.6027 232.763C100.353 234.615 107.942 237.849 118.304 239.759C131.683 242.224 152.465 242.876 176.555 232.555C176.635 232.757 176.716 232.952 176.791 233.155Z" fill="white"/>
<path d="M178.893 240.776C162.503 248.177 147.557 250.478 135.303 250.478C128.76 250.478 122.988 249.826 118.167 248.933C105.36 246.573 96.7517 242.185 94.3384 240.848C94.3757 240.62 94.413 240.398 94.4503 240.177C96.5278 241.344 105.198 245.888 118.304 248.301C132.094 250.83 153.746 251.456 178.781 240.111C178.818 240.333 178.856 240.555 178.893 240.776Z" fill="white"/>
<path d="M179.341 250.094C179.322 250.341 179.304 250.583 179.279 250.824C162.74 258.165 147.669 260.46 135.266 260.46C128.555 260.46 122.627 259.782 117.676 258.876C105.646 256.659 97.2246 252.695 93.9839 250.987C93.9528 250.739 93.9342 250.485 93.9155 250.23C96.8265 251.789 105.373 255.948 117.813 258.237C131.87 260.819 153.876 261.464 179.341 250.094Z" fill="white"/>
<path d="M177.401 259.769C177.307 260.05 177.208 260.317 177.108 260.597V260.604C161.421 267.378 147.109 269.517 135.304 269.517C128.76 269.517 122.988 268.865 118.168 267.971C107.674 266.041 99.9989 262.742 96.242 260.884V260.878C96.1301 260.584 96.0243 260.297 95.9248 260.004C99.3893 261.771 107.276 265.311 118.304 267.339C131.839 269.823 152.95 270.469 177.401 259.769Z" fill="white"/>
<path opacity="0.1" d="M179.441 247.296C179.441 269.81 160.27 288.066 136.622 288.066C120.917 288.066 107.189 280.014 99.7437 268.017C107.792 274.811 121.116 282.446 138.874 280.398C160.513 277.895 185.204 245.295 155.4 210.654C169.638 217.272 179.441 231.192 179.441 247.296Z" fill="black"/>
<path d="M266.866 228.675H262.298V234.181H266.866V228.675Z" fill="#A6A6A6"/>
<path d="M268.304 232.397H260.858V238.685H268.304V232.397Z" fill="#C7C7C7"/>
<path d="M273.433 246.468C273.433 252.162 273.433 275.241 273.433 275.241H255.73C255.73 275.241 255.73 252.162 255.73 246.468C255.73 240.773 259.146 236.377 264.578 236.377C270.017 236.377 273.433 240.773 273.433 246.468Z" fill="#FFC727"/>
<path d="M263.625 238.527C263.625 238.926 263.317 239.249 262.936 239.249C262.555 239.249 262.246 238.926 262.246 238.527C262.246 238.128 262.555 237.805 262.936 237.805C263.317 237.805 263.625 238.128 263.625 238.527Z" fill="white"/>
<path d="M272.416 245.031C272.416 245.43 272.107 245.754 271.727 245.754C271.346 245.754 271.038 245.43 271.038 245.031C271.038 244.632 271.346 244.309 271.727 244.309C272.107 244.309 272.416 244.632 272.416 245.031Z" fill="white"/>
<path d="M264.582 245.754C264.582 246.153 264.273 246.476 263.892 246.476C263.512 246.476 263.203 246.153 263.203 245.754C263.203 245.355 263.511 245.031 263.892 245.031C264.273 245.031 264.582 245.355 264.582 245.754Z" fill="white"/>
<path d="M265.272 252.665C265.272 253.064 264.963 253.388 264.582 253.388C264.201 253.388 263.893 253.065 263.893 252.665C263.893 252.266 264.201 251.943 264.582 251.943C264.962 251.943 265.272 252.266 265.272 252.665Z" fill="white"/>
<path d="M258.144 259.883C258.144 260.282 257.835 260.606 257.455 260.606C257.074 260.606 256.766 260.283 256.766 259.883C256.766 259.484 257.074 259.161 257.455 259.161C257.835 259.161 258.144 259.484 258.144 259.883Z" fill="white"/>
<path d="M256.765 254.183C257.146 254.183 257.455 253.859 257.455 253.46C257.455 253.06 257.146 252.737 256.765 252.737C256.384 252.737 256.075 253.06 256.075 253.46C256.075 253.859 256.384 254.183 256.765 254.183Z" fill="white"/>
<path d="M257.626 246.648C257.626 247.047 257.318 247.371 256.937 247.371C256.557 247.371 256.248 247.047 256.248 246.648C256.248 246.249 256.557 245.926 256.937 245.926C257.318 245.926 257.626 246.249 257.626 246.648Z" fill="white"/>
<path d="M259.928 243.207C260.309 243.207 260.618 242.883 260.618 242.484C260.618 242.085 260.309 241.761 259.928 241.761C259.547 241.761 259.238 242.085 259.238 242.484C259.238 242.883 259.547 243.207 259.928 243.207Z" fill="white"/>
<path d="M261.307 249.652C261.307 250.051 260.999 250.375 260.618 250.375C260.237 250.375 259.929 250.051 259.929 249.652C259.929 249.253 260.237 248.929 260.618 248.929C260.998 248.93 261.307 249.253 261.307 249.652Z" fill="white"/>
<path d="M267.365 242.575C267.746 242.575 268.055 242.251 268.055 241.852C268.055 241.452 267.746 241.129 267.365 241.129C266.984 241.129 266.675 241.452 266.675 241.852C266.675 242.251 266.984 242.575 267.365 242.575Z" fill="white"/>
<path d="M268.891 248.871C268.891 249.27 268.582 249.593 268.201 249.593C267.82 249.593 267.512 249.27 267.512 248.871C267.512 248.472 267.82 248.149 268.201 248.149C268.582 248.148 268.891 248.471 268.891 248.871Z" fill="white"/>
<path d="M261.677 256.378C261.677 256.777 261.368 257.101 260.988 257.101C260.607 257.101 260.298 256.777 260.298 256.378C260.298 255.979 260.607 255.656 260.988 255.656C261.368 255.655 261.677 255.979 261.677 256.378Z" fill="white"/>
<path d="M269.106 262.088C269.106 262.487 268.798 262.81 268.416 262.81C268.036 262.81 267.727 262.487 267.727 262.088C267.727 261.689 268.036 261.365 268.416 261.365C268.798 261.365 269.106 261.689 269.106 262.088Z" fill="white"/>
<path d="M269.003 267.525C269.003 267.924 268.694 268.248 268.314 268.248C267.933 268.248 267.625 267.924 267.625 267.525C267.625 267.126 267.933 266.802 268.314 266.802C268.694 266.802 269.003 267.126 269.003 267.525Z" fill="white"/>
<path d="M262.091 262.214C262.091 262.613 261.782 262.937 261.402 262.937C261.021 262.937 260.712 262.613 260.712 262.214C260.712 261.815 261.021 261.491 261.402 261.491C261.782 261.491 262.091 261.815 262.091 262.214Z" fill="white"/>
<path d="M258.73 270.688C258.73 271.087 258.421 271.411 258.041 271.411C257.66 271.411 257.352 271.087 257.352 270.688C257.352 270.289 257.66 269.965 258.041 269.965C258.421 269.965 258.73 270.289 258.73 270.688Z" fill="white"/>
<path d="M265.659 258.962C265.659 259.361 265.351 259.685 264.97 259.685C264.589 259.685 264.281 259.362 264.281 258.962C264.281 258.563 264.589 258.24 264.97 258.24C265.351 258.239 265.659 258.563 265.659 258.962Z" fill="white"/>
<path d="M265.745 264.834C265.745 265.233 265.436 265.556 265.055 265.556C264.675 265.556 264.366 265.233 264.366 264.834C264.366 264.435 264.675 264.112 265.055 264.112C265.436 264.112 265.745 264.435 265.745 264.834Z" fill="white"/>
<path d="M265.745 270.688C265.745 271.087 265.436 271.411 265.055 271.411C264.675 271.411 264.366 271.087 264.366 270.688C264.366 270.289 264.675 269.965 265.055 269.965C265.436 269.965 265.745 270.289 265.745 270.688Z" fill="white"/>
<path d="M269.253 273.398C269.253 273.797 268.944 274.121 268.563 274.121C268.183 274.121 267.874 273.798 267.874 273.398C267.874 272.999 268.183 272.676 268.563 272.676C268.944 272.676 269.253 272.999 269.253 273.398Z" fill="white"/>
<path d="M257.954 265.901C258.335 265.901 258.644 265.577 258.644 265.178C258.644 264.778 258.335 264.454 257.954 264.454C257.573 264.454 257.265 264.778 257.265 265.178C257.265 265.577 257.573 265.901 257.954 265.901Z" fill="white"/>
<path d="M262.091 267.779C262.091 268.178 261.782 268.501 261.402 268.501C261.021 268.501 260.712 268.178 260.712 267.779C260.712 267.38 261.021 267.057 261.402 267.057C261.782 267.057 262.091 267.38 262.091 267.779Z" fill="white"/>
<path d="M272.537 270.688C272.537 271.087 272.228 271.411 271.847 271.411C271.467 271.411 271.158 271.087 271.158 270.688C271.158 270.289 271.467 269.965 271.847 269.965C272.228 269.965 272.537 270.289 272.537 270.688Z" fill="white"/>
<path d="M262.246 273.457C262.246 273.856 261.938 274.179 261.557 274.179C261.176 274.179 260.868 273.856 260.868 273.457C260.868 273.058 261.176 272.734 261.557 272.734C261.938 272.734 262.246 273.058 262.246 273.457Z" fill="white"/>
<path d="M272.64 259.161C272.64 259.56 272.331 259.883 271.95 259.883C271.57 259.883 271.261 259.56 271.261 259.161C271.261 258.762 271.57 258.438 271.95 258.438C272.331 258.438 272.64 258.761 272.64 259.161Z" fill="white"/>
<path d="M272.64 264.834C272.64 265.233 272.331 265.556 271.95 265.556C271.57 265.556 271.261 265.233 271.261 264.834C271.261 264.435 271.57 264.112 271.95 264.112C272.331 264.112 272.64 264.435 272.64 264.834Z" fill="white"/>
<path d="M268.563 256.884C268.944 256.884 269.253 256.56 269.253 256.161C269.253 255.762 268.944 255.438 268.563 255.438C268.182 255.438 267.873 255.762 267.873 256.161C267.873 256.56 268.182 256.884 268.563 256.884Z" fill="white"/>
<path d="M272.985 252.557C272.985 252.956 272.677 253.279 272.296 253.279C271.915 253.279 271.607 252.956 271.607 252.557C271.607 252.158 271.915 251.834 272.296 251.834C272.676 251.834 272.985 252.158 272.985 252.557Z" fill="white"/>
<path d="M97.1619 150.686C95.2455 151.473 88.587 155.219 84.6559 159.15C82.7489 161.057 77.8264 167.142 79.1102 168.789C80.3946 170.436 81.9838 168.79 81.9838 168.79C81.9838 168.79 80.2708 171.687 81.7077 173.221C83.1445 174.756 85.5367 172.111 85.5367 172.111C85.5367 172.111 83.9848 175.22 85.5224 176.643C87.06 178.066 89.0404 174.984 89.0404 174.984C89.0404 174.984 87.4947 177.758 89.2326 178.372C91.3225 179.11 93.6208 173.658 95.8302 171.66C96.3321 171.206 106.626 163.223 106.626 163.223L97.1619 150.686Z" fill="#EB9481"/>
<path d="M89.0986 174.965C90.7979 170.96 92.2018 169.517 95.624 167.119C95.6906 167.072 95.6396 166.957 95.5656 166.999C92.0108 169.028 89.9999 170.572 88.9096 174.889C88.8561 175.1 89.0178 175.155 89.0986 174.965Z" fill="#263238"/>
<path d="M85.4191 172.247C87.5308 168.249 89.0404 166.669 92.4483 163.882C92.4962 163.842 92.4378 163.753 92.3861 163.789C88.8246 166.23 86.8528 167.82 85.2437 172.105C85.1709 172.298 85.3227 172.43 85.4191 172.247Z" fill="#263238"/>
<path d="M82.1737 168.47C84.4845 164.755 86.0687 162.947 89.708 160.686C89.7939 160.633 89.7279 160.496 89.6371 160.541C85.7117 162.469 83.7188 164.708 82.0736 168.385C81.961 168.635 82.0282 168.704 82.1737 168.47Z" fill="#263238"/>
<path d="M109.485 162.335C109.485 162.335 107.014 167.177 105.481 169.054C103.948 170.93 95.7797 175.719 94.6924 173.929C93.2892 171.617 97.4852 167.878 99.7685 166.329C99.7685 166.329 96.5174 160.985 98.9755 157.618C101.434 154.252 109.485 162.335 109.485 162.335Z" fill="#EB9481"/>
<path d="M94.5064 173.16C94.6775 170.084 97.7999 168.253 99.9079 166.576C100.068 166.449 100.027 166.268 99.9097 166.16C98.69 163.824 97.6177 160.157 98.8119 157.641C98.8467 157.567 98.7522 157.505 98.7068 157.574C97.0765 160.091 97.849 163.784 99.3418 166.252C97.1543 167.936 94.0996 169.916 94.4778 173.16C94.4803 173.178 94.5058 173.18 94.5064 173.16Z" fill="#263238"/>
<path d="M114.139 189.544C122.303 176.677 128.133 149.962 122.288 146.909C116.612 143.945 106.226 145.537 96.2543 151.063C94.8032 151.868 97.3814 154.038 100.916 158.834C102.59 161.105 104.412 170.044 106.023 168.326C106.94 167.349 109.885 165.83 110.885 165.359C111.704 164.974 108.332 180.804 106.684 186.767C104.05 196.296 111.95 192.993 114.139 189.544Z" fill="#EB9481"/>
<path d="M118.796 180.186C117.396 183.674 115.816 186.902 114.137 189.542C112.227 192.548 105.976 195.449 106.157 189.823L118.796 180.186Z" fill="#263238"/>
<path d="M66.311 192.406C66.4765 190.256 68.3773 183.084 70.8348 178.005C72.0272 175.541 76.1666 168.846 78.0407 169.66C79.9154 170.475 78.8705 172.544 78.8705 172.544C78.8705 172.544 81.0232 169.989 82.8382 170.99C84.6538 171.99 82.9278 175.153 82.9278 175.153C82.9278 175.153 85.3212 172.699 87.0634 173.832C88.8063 174.966 86.5627 177.842 86.5627 177.842C86.5627 177.842 88.6508 175.49 89.7119 177.058C90.9883 178.943 86.6716 182.821 85.4836 185.615C85.2136 186.25 80.8895 198.884 80.8895 198.884L66.311 192.406Z" fill="#EB9481"/>
<path d="M86.5626 177.905C83.3947 180.765 82.4804 182.591 81.2768 186.717C81.2532 186.797 81.1337 186.778 81.1505 186.692C81.9784 182.54 82.81 180.076 86.4382 177.737C86.616 177.622 86.7131 177.768 86.5626 177.905Z" fill="#263238"/>
<path d="M83.0186 174.996C79.9751 178.267 78.9675 180.238 77.4038 184.463C77.3814 184.523 77.2825 184.489 77.3005 184.427C78.5041 180.148 79.3873 177.71 82.8376 174.86C82.9931 174.731 83.1579 174.846 83.0186 174.996Z" fill="#263238"/>
<path d="M78.6331 172.826C75.905 176.217 74.7108 178.328 73.695 182.633C73.6708 182.735 73.5277 182.708 73.542 182.604C74.1709 178.108 75.6425 175.462 78.5261 172.751C78.7227 172.566 78.8048 172.613 78.6331 172.826Z" fill="#263238"/>
<path d="M80.9025 202.009C80.9025 202.009 84.6139 198.132 85.8859 196.053C87.1579 193.973 89.1776 184.394 87.2288 183.819C84.7122 183.077 82.5072 188.366 81.7503 191.105C81.7503 191.105 75.9308 189.383 73.5647 192.821C71.198 196.257 80.9025 202.009 80.9025 202.009Z" fill="#EB9481"/>
<path d="M86.4725 183.854C83.7121 184.912 82.9396 188.574 82.0159 191.174C81.9456 191.371 81.7696 191.382 81.6359 191.296C79.151 190.745 75.4918 190.726 73.5374 192.65C73.4802 192.706 73.3962 192.629 73.4466 192.564C75.2753 190.201 78.8717 189.913 81.5569 190.699C82.4644 188.018 83.393 184.381 86.4651 183.826C86.4819 183.822 86.4906 183.847 86.4725 183.854Z" fill="#263238"/>
<path d="M142.415 183.251C142.415 183.251 147.109 190.72 150.096 218.915C150.096 218.915 115.259 216.027 104.701 209.157C99.8977 206.031 99.7777 202.02 101.757 198.185C102.251 197.229 111.989 186.717 116.119 184.957C119.77 183.402 124.597 185.756 124.597 185.756L142.415 183.251Z" fill="#EB9481"/>
<path d="M101.33 201.083C102.738 198.549 108.88 197.39 112.293 197.927C115.706 198.464 119.946 202.996 118.188 206.584C116.429 210.172 104.702 209.157 104.702 209.157C104.702 209.157 112.702 215.405 127.906 216.041C127.906 216.041 132.972 205.941 127.906 185.291L124.845 185.699C124.845 185.699 121.057 183.368 117.257 184.262C112.346 185.418 103.066 194.318 101.756 198.185C100.446 202.051 100.813 204.446 100.813 204.446C100.813 204.446 100.638 202.329 101.33 201.083Z" fill="#455A64"/>
<path d="M111.017 208.077C99.4691 216.021 72.4681 224.627 67.994 219.641C63.6506 214.798 65.0283 197.008 66.3936 191.387C66.7986 189.72 69.8339 192.253 75.2335 194.418C77.7905 195.444 86.4817 194.694 85.3765 196.808C84.7482 198.009 82.3361 203.939 83.8917 204.247C84.7731 204.422 96.5488 200.795 106.316 199.477C117.567 197.958 114.321 205.804 111.017 208.077Z" fill="#EB9481"/>
<path d="M82.3266 170.474C80.7759 168.215 76.8101 164.896 72.7235 166.434C63.9614 169.731 66.3107 183.825 60.6063 193.57C53.7152 205.343 54.3627 214.678 61.2371 215.438C68.9405 216.291 75.3453 207.149 73.1179 189.369C71.7252 178.251 74.2592 172.931 76.4698 172.992C78.6804 173.053 80.4842 174.419 80.4842 174.419L82.3266 170.474Z" fill="#263238"/>
<path d="M72.4986 183.223C72.5988 185.002 72.8911 186.76 73.1182 188.521C73.3701 190.278 73.6133 192.034 73.8073 193.792C73.9915 195.551 74.142 197.312 74.1588 199.073C74.183 200.831 74.1034 202.593 73.7943 204.31C73.5001 206.025 72.9732 207.706 72.0912 209.177C71.1999 210.627 69.9995 211.948 68.6622 213.01C67.3118 214.071 65.7375 214.841 64.0562 215.17C63.2178 215.339 62.3557 215.405 61.498 215.347C61.0688 215.32 60.6415 215.262 60.2197 215.17C59.7993 215.079 59.3751 214.972 58.9932 214.761C59.734 215.233 60.611 215.436 61.4743 215.563C62.3451 215.684 63.2346 215.681 64.1153 215.566C64.9948 215.444 65.86 215.198 66.6892 214.858C67.5164 214.511 68.2983 214.054 69.0285 213.525C69.7594 212.996 70.4349 212.389 71.0519 211.729L71.5053 211.225L71.9364 210.702C72.2219 210.35 72.4943 209.973 72.7338 209.582C73.7028 208.013 74.262 206.232 74.5823 204.448C75.1844 200.852 74.9207 197.227 74.425 193.705C74.1756 191.938 73.8471 190.19 73.5026 188.449C73.1462 186.709 72.7785 184.978 72.4986 183.223Z" fill="#263238"/>
<path d="M81.5972 169.592C80.7892 168.685 79.9221 167.833 78.935 167.174C77.9448 166.526 76.8389 166.08 75.6988 165.945C74.5605 165.794 73.4048 165.952 72.3157 166.321C71.7833 166.548 71.2378 166.743 70.7532 167.063C70.2345 167.322 69.7985 167.709 69.3469 168.066C68.5103 168.866 67.7987 169.802 67.2632 170.864C66.7463 171.933 66.3128 173.057 66.0117 174.239C65.3568 176.58 64.9674 179.028 64.4829 181.463C63.9871 183.898 63.446 186.341 62.5901 188.705C61.7187 191.054 60.5922 193.27 59.4017 195.418C58.2237 197.572 56.9915 199.687 56.1033 201.96C55.6337 203.085 55.2897 204.264 55.1018 205.475L54.9862 206.389C54.9718 206.696 54.9774 207.004 54.97 207.312L54.96 207.776L55.0067 208.236L55.1006 209.161C54.5184 206.74 54.8419 204.129 55.676 201.788C56.4982 199.427 57.6751 197.246 58.7723 195.055C59.8664 192.861 60.9679 190.68 61.7622 188.379C62.5634 186.09 63.0927 183.682 63.5685 181.265C64.0686 178.849 64.4598 176.39 65.1664 173.975C65.4986 172.764 65.9738 171.582 66.5473 170.454C67.1332 169.324 67.9455 168.32 68.8897 167.49C69.3935 167.116 69.8824 166.72 70.4472 166.461C70.9809 166.139 71.5668 165.95 72.139 165.734C73.3128 165.385 74.5599 165.256 75.7653 165.473C76.9695 165.692 78.0959 166.234 79.0725 166.96C80.0521 167.692 80.8663 168.618 81.5972 169.592Z" fill="#263238"/>
<path d="M84.697 170.652C84.2212 169.905 83.0785 169.336 82.5368 169.542C81.9956 169.747 79.6638 173.753 79.9866 174.869C80.3094 175.985 82.3402 175.672 82.3402 175.672L84.697 170.652Z" fill="#FFC727"/>
<path d="M102.304 197.006C103.004 197.277 111.518 195.646 114.649 189.9C115.692 187.985 106.995 189.578 106.995 189.578L106.685 189.24L102.334 184.514L94.5332 188.137L93.4521 188.693C93.4521 188.693 94.7235 189.904 96.3214 191.395C96.3948 191.464 96.4689 191.534 96.5491 191.607C96.6374 191.694 96.7195 191.777 96.8053 191.854C97.0411 192.08 97.283 192.31 97.5287 192.533C97.7147 192.704 97.8951 192.871 98.0966 193.043C98.295 193.221 98.4903 193.389 98.6888 193.567C100.678 195.277 102.01 196.887 102.304 197.006Z" fill="#EB9481"/>
<path d="M96.3214 191.395C101.347 192.671 105.144 190.415 106.685 189.24L102.334 184.514L94.5332 188.137L93.4521 188.693C93.4521 188.693 94.7241 189.904 96.3214 191.395Z" fill="#263238"/>
<path d="M102.107 171.832C109.43 180.429 105.344 185.997 103.574 187.65C101.967 189.15 96.3128 194.046 88.1826 186.288C80.0518 178.53 81.5502 172.243 85.0527 168.608C88.5552 164.972 94.7851 163.235 102.107 171.832Z" fill="#EB9481"/>
<path d="M99.6863 171.431C99.4704 171.583 99.2478 171.685 99.0195 171.812C98.762 171.955 98.571 172.097 98.2687 172.064C98.1064 172.047 97.9577 171.85 97.959 171.683C97.9621 171.295 98.2358 171.037 98.5387 170.852C98.8677 170.651 99.17 170.583 99.5457 170.645C99.9108 170.704 99.9705 171.231 99.6863 171.431Z" fill="#263238"/>
<path d="M93.9373 176.544C94.1139 176.345 94.2452 176.129 94.4007 175.914C94.5761 175.67 94.7397 175.494 94.7558 175.176C94.7646 175.005 94.6022 174.821 94.4455 174.796C94.0791 174.739 93.7936 174.981 93.5716 175.266C93.3302 175.575 93.2195 175.878 93.2183 176.277C93.2176 176.662 93.7047 176.807 93.9373 176.544Z" fill="#263238"/>
<path d="M97.015 177.509C96.992 177.491 96.9951 177.577 97.0162 177.601C97.5331 178.169 98.0338 178.911 97.6955 179.578C97.6849 179.599 97.7116 179.627 97.7278 179.606C98.2658 178.938 97.5916 177.96 97.015 177.509Z" fill="#263238"/>
<path d="M95.9955 177.366C95.0376 178.136 96.5777 180.088 97.4653 179.374C98.3386 178.672 96.7985 176.72 95.9955 177.366Z" fill="#263238"/>
<path d="M95.7114 177.786C95.6362 178.038 95.6306 178.371 95.4502 178.561C95.2418 178.782 94.909 178.726 94.6061 178.658C94.5744 178.651 94.5719 178.682 94.5918 178.708C94.8817 179.087 95.3214 179.352 95.7481 179.076C96.1375 178.824 96.1263 178.276 95.9185 177.823C95.8806 177.737 95.7413 177.684 95.7114 177.786Z" fill="#263238"/>
<path d="M100.121 174.601C100.107 174.574 100.188 174.591 100.207 174.617C100.661 175.241 101.282 175.876 101.964 175.629C101.985 175.621 102.007 175.653 101.985 175.667C101.271 176.12 100.456 175.269 100.121 174.601Z" fill="#263238"/>
<path d="M100.146 173.523C101.021 172.652 102.619 174.553 101.808 175.359C101.01 176.154 99.4111 174.254 100.146 173.523Z" fill="#263238"/>
<path d="M100.629 173.299C100.857 173.268 101.152 173.32 101.334 173.173C101.543 173.004 101.517 172.663 101.478 172.348C101.474 172.316 101.502 172.318 101.523 172.343C101.838 172.698 102.042 173.182 101.768 173.559C101.518 173.903 101.033 173.798 100.646 173.512C100.574 173.459 100.537 173.312 100.629 173.299Z" fill="#263238"/>
<path d="M100.865 182.53C101.114 182.564 101.402 182.653 101.633 182.501C101.854 182.355 102.027 182.064 102.162 181.836C102.175 181.813 102.209 181.819 102.211 181.847C102.229 182.211 102.011 182.619 101.697 182.788C101.391 182.952 101.08 182.812 100.829 182.604C100.793 182.575 100.829 182.525 100.865 182.53Z" fill="#263238"/>
<path d="M101.504 178.245C101.504 178.245 102.344 179.035 102.686 179.457C102.718 179.496 102.636 179.601 102.506 179.731C102.501 179.739 102.499 179.745 102.49 179.745C101.874 180.493 100.95 180.871 100.027 180.646C99.9659 180.63 99.9815 180.541 100.039 180.535C100.9 180.472 101.571 180.057 102.21 179.509C102.144 179.367 100.727 178.207 100.787 178.145C100.991 177.93 101.551 177.703 101.876 177.551C100.171 175.853 98.2194 174.455 96.5449 172.738C96.4865 172.675 96.5617 172.574 96.6283 172.617C98.7723 173.93 100.776 175.839 102.58 177.545C102.808 177.755 101.724 178.174 101.504 178.245Z" fill="#263238"/>
<path d="M102.284 179.581C102.284 179.581 102.402 180.481 102.074 181.186C101.953 181.447 101.779 181.68 101.514 181.837C100.971 182.161 100.573 181.757 100.321 181.321C100.113 180.964 100.007 180.58 100.007 180.58C100.007 180.58 101.213 180.551 102.284 179.581Z" fill="#263238"/>
<path d="M102.073 181.186C101.952 181.447 101.778 181.68 101.513 181.837C100.971 182.161 100.573 181.757 100.321 181.321C100.83 180.897 101.594 180.756 102.073 181.186Z" fill="#FF9BBC"/>
<path d="M89.3574 186.384C90.1703 185.463 90.1386 180.716 86.2094 176.281C86.2094 176.281 89.4749 180.519 89.72 181.377C89.9645 182.234 89.6939 178.714 86.5727 175.091C86.5727 175.091 89.7219 174.626 91.7347 173.497C93.7475 172.367 94.7035 171.374 94.7066 171.14C94.7097 170.906 91.67 172.483 90.3401 172.356C90.3401 172.356 96.442 170.167 98.5294 168.365C98.7707 168.157 94.5983 163.037 89.7076 164.004C84.8168 164.971 82.0887 171.986 81.9954 174.571C81.9954 174.571 80.6967 176.309 81.1974 180.285C81.6975 184.26 88.4816 187.376 89.3574 186.384Z" fill="#263238"/>
<path d="M90.867 189.473C91.0542 189.416 91.2128 189.345 91.3534 189.263C91.5238 189.174 91.6626 189.066 91.7764 188.949C91.9605 188.774 92.083 188.576 92.1608 188.379C92.2373 188.202 92.2796 188.017 92.3013 187.85C92.3542 187.414 92.2653 187.069 92.2653 187.069L90.0186 184.986C90.0186 184.986 86.0391 183.615 85.3088 185.309C84.573 187.007 88.9954 190.051 90.867 189.473Z" fill="#EB9481"/>
<path d="M86.5947 186.148C86.5692 186.164 86.5897 186.203 86.6164 186.195C87.9537 185.826 89.2064 186.4 90.3229 187.138C89.7333 186.979 89.1623 187.087 88.9253 187.867C88.9129 187.908 88.9695 187.931 88.9943 187.903C89.3476 187.478 89.7053 187.317 90.2414 187.447C90.6209 187.539 90.9841 187.748 91.3337 187.923C91.45 187.982 91.5794 187.8 91.4655 187.717C91.4568 187.711 91.4481 187.705 91.4394 187.699C90.4853 186.306 88.098 185.184 86.5947 186.148Z" fill="#263238"/>
<path d="M90.7118 188.988C90.9214 189.184 91.2436 189.165 91.4309 188.946C91.6181 188.726 91.6 188.388 91.3904 188.192C91.1808 187.996 90.8586 188.015 90.6714 188.234C90.4842 188.454 90.5022 188.791 90.7118 188.988Z" fill="white"/>
<path d="M89.4131 189C89.5611 189.139 89.7887 189.126 89.9218 188.97C90.0543 188.815 90.0419 188.576 89.8932 188.437C89.7452 188.298 89.5175 188.311 89.3844 188.467C89.252 188.622 89.265 188.861 89.4131 189Z" fill="white"/>
<path d="M87.9335 188.757C87.3401 188.363 85.9481 187.258 85.5861 186.614C85.3895 186.265 85.1276 185.689 85.331 185.296C85.3615 185.237 85.3087 185.225 85.2844 185.285C85.1382 185.637 85.0841 186.041 85.2166 186.407C85.3628 186.812 85.6302 187.176 85.9238 187.474C86.4998 188.058 87.1659 188.507 87.9211 188.789C87.9403 188.797 87.949 188.767 87.9335 188.757Z" fill="#263238"/>
<path d="M98.6023 168.363C98.5401 168.331 98.4929 168.346 98.5489 168.392C98.8698 168.657 101.669 171.472 101.977 171.715C102.002 171.735 102.042 171.709 102.022 171.677C101.822 171.352 99.8065 168.982 98.6023 168.363Z" fill="#263238"/>
<path d="M259.082 288.289C257.416 288.826 209.026 287.452 207.247 286.225C207.186 286.179 207.126 286.079 207.065 285.925C206.536 284.406 207.551 277.959 207.498 270.047C207.498 269.902 207.611 267.419 207.767 263.891C208.184 254.688 208.938 238.438 208.938 238.438L240.491 239.111L238.4 264.737L237.914 270.694C237.914 270.694 255.794 279.605 257.59 281.169C259.386 282.742 260.739 287.752 259.082 288.289Z" fill="#EB9481"/>
<path d="M259.082 288.289C257.416 288.826 209.026 287.452 207.247 286.225C207.186 286.179 207.126 286.079 207.065 285.925C206.536 284.406 207.551 277.959 207.498 270.047C207.498 269.902 207.611 267.419 207.767 263.891L238.399 264.737L237.914 270.693C237.914 270.693 255.794 279.605 257.589 281.169C259.386 282.742 260.739 287.752 259.082 288.289Z" fill="white"/>
<path d="M259.081 288.286C257.42 288.825 209.022 287.456 207.25 286.221C206.575 285.756 206.307 279.003 207.5 270.053L237.916 270.694C237.916 270.694 255.791 279.598 257.597 281.171C259.393 282.745 260.742 287.748 259.081 288.286Z" fill="#FFC727"/>
<path d="M258.448 286.292C250.545 285.897 218.633 285.089 210.792 285.329C210.729 285.331 210.728 285.376 210.791 285.381C218.616 285.952 250.533 286.489 258.445 286.428C258.612 286.427 258.615 286.3 258.448 286.292Z" fill="#263238"/>
<path d="M254.601 279.319C252.728 279.194 250.874 280.084 249.826 281.23C248.819 282.331 247.944 283.893 247.962 285.612C247.963 285.662 248.049 285.665 248.058 285.614C248.58 282.382 251.458 279.6 254.6 279.423C254.663 279.42 254.666 279.324 254.601 279.319Z" fill="#263238"/>
<path d="M240.965 271.593C237.801 271.471 234.106 272.554 232.08 275.219C232.001 275.322 232.143 275.438 232.238 275.389C235.133 273.912 237.878 272.826 241.011 272.003C241.232 271.945 241.192 271.602 240.965 271.593Z" fill="#263238"/>
<path d="M243.387 272.651C240.223 272.528 236.527 273.611 234.501 276.277C234.422 276.38 234.564 276.495 234.659 276.447C237.554 274.97 240.299 273.883 243.432 273.06C243.653 273.002 243.613 272.659 243.387 272.651Z" fill="#263238"/>
<path d="M245.808 273.708C242.644 273.585 238.949 274.668 236.922 277.333C236.844 277.436 236.985 277.552 237.08 277.504C239.975 276.027 242.721 274.94 245.854 274.117C246.074 274.06 246.035 273.717 245.808 273.708Z" fill="#263238"/>
<path d="M248.229 274.765C245.065 274.643 241.371 275.725 239.344 278.391C239.266 278.495 239.407 278.61 239.502 278.561C242.397 277.084 245.142 275.997 248.275 275.175C248.496 275.117 248.456 274.774 248.229 274.765Z" fill="#263238"/>
<path d="M212.98 277.504C209.429 277.429 209.311 283.214 212.868 283.289C216.42 283.364 216.537 277.579 212.98 277.504Z" fill="#263238"/>
<path d="M244.58 262.823C243.009 261.391 240.961 262.704 239.94 264.126C238.289 266.429 237.118 269.685 236.878 272.541C236.873 272.611 236.923 272.64 236.975 272.638C237.037 272.877 237.301 273.083 237.538 272.919C239.827 271.34 242.462 269.949 244.22 267.68C245.247 266.355 246.067 264.176 244.58 262.823ZM240.542 269.78C239.434 270.585 238.295 271.329 237.216 272.177C237.818 270.538 238.349 268.88 239.108 267.304C239.47 266.553 239.855 265.788 240.313 265.095C241.025 264.015 244.192 261.318 244.428 264.935C244.558 266.929 241.862 268.82 240.542 269.78Z" fill="#263238"/>
<path d="M228.987 273.58C231.734 274.09 234.594 273.337 237.312 272.962C237.593 272.923 237.664 272.587 237.562 272.363C237.603 272.329 237.623 272.272 237.574 272.223C235.611 270.227 232.693 268.568 230.007 267.958C228.348 267.581 225.98 267.993 225.685 270.153C225.406 272.196 227.385 273.283 228.987 273.58ZM227.118 271.646C225.039 268.749 229.119 268.617 230.33 268.946C231.109 269.157 231.878 269.471 232.621 269.791C234.178 270.462 235.615 271.353 237.093 272.18C235.747 272.278 234.422 272.497 233.081 272.647C231.483 272.826 228.265 273.243 227.118 271.646Z" fill="#263238"/>
<path d="M148.926 218.915C162.245 221.455 206.137 209.103 208.574 213.208C210.72 216.828 208.574 243.345 208.574 243.345H240.274C240.274 243.345 245.383 210.441 239.489 193.021C238.525 190.164 235.242 186.745 230.704 183.142C214.54 170.315 148.799 182.371 148.799 182.371L148.926 218.915Z" fill="#263238"/>
<path d="M226.259 232.724V239.375L209.26 232.392C209.359 230.266 209.446 228.023 209.49 225.839L226.259 232.724Z" fill="#FFC727"/>
<path d="M226.259 221.106V227.75L209.515 220.871C209.465 217.872 209.285 215.355 208.88 213.966L226.259 221.106Z" fill="#FFC727"/>
<path d="M254.647 121.795C254.244 123.572 228.588 166.602 226.677 167.587C226.609 167.619 226.496 167.623 226.338 167.6C224.821 167.308 220.034 163.123 213.501 159.16C213.382 159.087 211.397 157.727 208.574 155.797L186.248 149.835L202.793 121.666L224.795 128.546L229.447 132.004C229.447 132.004 245.838 120.364 248.035 119.534C250.239 118.709 255.046 120.025 254.647 121.795Z" fill="#EB9481"/>
<path d="M254.647 121.795C254.244 123.572 228.588 166.602 226.678 167.588C226.609 167.619 226.497 167.623 226.339 167.6C224.821 167.308 220.034 163.123 213.501 159.16C213.382 159.087 211.397 157.727 208.574 155.797L224.795 128.546L229.447 132.005C229.447 132.005 245.838 120.365 248.035 119.535C250.239 118.709 255.046 120.025 254.647 121.795Z" fill="white"/>
<path d="M254.644 121.795C254.245 123.568 228.589 166.608 226.675 167.584C225.951 167.958 220.262 164.777 213.505 159.162L229.449 132.003C229.449 132.003 245.831 120.364 248.041 119.53C250.244 118.704 255.043 120.022 254.644 121.795Z" fill="#FFC727"/>
<path d="M252.683 121.356C248.353 128.297 231.513 156.724 227.737 163.93C227.706 163.989 227.743 164.013 227.779 163.958C232.214 157.176 248.833 128.608 252.793 121.428C252.877 121.276 252.774 121.209 252.683 121.356Z" fill="#263238"/>
<path d="M245 121.297C243.947 122.927 243.739 125.052 244.15 126.581C244.545 128.049 245.386 129.631 246.81 130.487C246.851 130.512 246.898 130.435 246.86 130.401C244.467 128.29 243.638 124.281 245.084 121.352C245.113 121.293 245.036 121.242 245 121.297Z" fill="#263238"/>
<path d="M231.734 129.704C230.029 132.501 229.047 136.389 230.212 139.57C230.256 139.694 230.423 139.624 230.432 139.514C230.684 136.149 231.183 133.118 232.094 129.87C232.158 129.641 231.856 129.504 231.734 129.704Z" fill="#263238"/>
<path d="M233.83 128.052C232.126 130.849 231.143 134.736 232.308 137.919C232.354 138.042 232.52 137.973 232.528 137.862C232.78 134.498 233.279 131.466 234.19 128.218C234.255 127.989 233.952 127.851 233.83 128.052Z" fill="#263238"/>
<path d="M235.928 126.399C234.223 129.196 233.241 133.084 234.406 136.266C234.45 136.389 234.617 136.32 234.626 136.21C234.878 132.845 235.377 129.814 236.288 126.566C236.352 126.337 236.05 126.199 235.928 126.399Z" fill="#263238"/>
<path d="M238.025 124.747C236.32 127.544 235.338 131.431 236.503 134.614C236.548 134.737 236.714 134.668 236.723 134.558C236.975 131.194 237.474 128.162 238.385 124.913C238.448 124.685 238.147 124.547 238.025 124.747Z" fill="#263238"/>
<path d="M222.411 157.988C220.549 161.159 225.248 164.197 227.112 161.021C228.973 157.849 224.275 154.812 222.411 157.988Z" fill="#263238"/>
<path d="M226.353 121.992C224.38 122.686 224.421 125.202 225.074 126.845C226.131 129.504 228.215 132.213 230.442 133.877C230.497 133.918 230.546 133.887 230.571 133.839C230.799 133.904 231.102 133.77 231.087 133.472C230.949 130.603 231.14 127.518 230.166 124.779C229.597 123.179 228.22 121.335 226.353 121.992ZM230.028 129.167C230.129 130.577 230.163 131.982 230.314 133.388C229.271 132.013 228.176 130.693 227.265 129.208C226.831 128.5 226.398 127.764 226.059 126.999C225.532 125.809 224.918 121.579 228.012 123.2C229.718 124.093 229.908 127.488 230.028 129.167Z" fill="#263238"/>
<path d="M227.297 141.534C229.108 139.311 229.938 136.344 231.007 133.698C231.118 133.424 230.878 133.19 230.641 133.168C230.635 133.114 230.598 133.067 230.533 133.086C227.897 133.848 225.053 135.644 223.19 137.762C222.04 139.07 221.178 141.419 222.804 142.781C224.343 144.069 226.239 142.831 227.297 141.534ZM224.759 142.242C221.322 142.652 223.282 138.899 224.166 137.971C224.735 137.374 225.382 136.838 226.022 136.329C227.363 135.263 228.824 134.416 230.253 133.5C229.652 134.766 229.16 136.074 228.604 137.361C227.942 138.896 226.654 142.017 224.759 142.242Z" fill="#263238"/>
<path d="M203.94 122.024L189.205 150.625C189.205 150.625 163.824 143.29 163.921 146.787C164.18 156.124 181.449 189.982 175.899 206.92C170.513 223.358 144.967 218.409 144.967 218.409L138.112 183.856C138.112 183.856 140.605 183.166 142.414 183.251C142.414 183.251 129.195 136.019 137.845 123.496C140.677 119.397 148.13 114.092 155.373 113.378C175.994 111.347 203.94 122.024 203.94 122.024Z" fill="#263238"/>
<path d="M173.541 178.887C174.206 180.929 174.878 182.969 175.472 185.045C176.051 187.123 176.543 189.235 176.903 191.378C177.624 195.654 177.845 200.101 177.038 204.453C176.611 206.623 175.954 208.737 174.863 210.702C173.734 212.635 172.137 214.228 170.334 215.383C166.715 217.71 162.522 218.698 158.417 218.828C160.454 218.516 162.458 218.028 164.378 217.313C166.301 216.62 168.149 215.712 169.8 214.529C171.44 213.338 172.883 211.856 173.848 210.069C174.804 208.292 175.438 206.246 175.82 204.197C176.612 200.067 176.465 195.76 175.95 191.531C175.432 187.288 174.431 183.108 173.541 178.887Z" fill="#455A64"/>
<path d="M188.678 130.158L181.768 148.629C179.939 148.173 177.93 147.697 175.939 147.267L182.334 130.158H188.678Z" fill="#FFC727"/>
<path d="M177.588 130.158L171.517 146.399C168.967 145.969 166.746 145.734 165.372 145.884L171.249 130.158H177.588Z" fill="#FFC727"/>
</svg>
