<svg width="304" height="316" viewBox="0 0 304 316" fill="none" xmlns="http://www.w3.org/2000/svg">
<path d="M265.504 239.819H249.404V246.891H265.504V239.819Z" fill="#EBEBEB"/>
<path d="M274.485 248.736H258.385V255.808H274.485V248.736Z" fill="#EBEBEB"/>
<path d="M54.5961 239.819H38.4956V246.891H54.5961V239.819Z" fill="#EBEBEB"/>
<path d="M45.6151 248.736H29.5146V255.808H45.6151V248.736Z" fill="#EBEBEB"/>
<path d="M63.5764 248.736H47.4766V255.808H63.5764V248.736Z" fill="#EBEBEB"/>
<path d="M150.931 112.765H134.831V119.837H150.931V112.765Z" fill="#EBEBEB"/>
<path d="M264.574 94.7172H248.473V101.789H264.574V94.7172Z" fill="#EBEBEB"/>
<path d="M264.574 26.0321H248.473V33.1042H264.574V26.0321Z" fill="#EBEBEB"/>
<path d="M273.555 34.949H257.454V42.0211H273.555V34.949Z" fill="#EBEBEB"/>
<path d="M45.6151 26.0396H29.5146V33.1116H45.6151V26.0396Z" fill="#EBEBEB"/>
<path d="M46.6968 36.0815V240.704H142.541V36.0815H46.6968ZM139.562 237.867H49.676V38.9192H139.562V237.867Z" fill="#C7C7C7"/>
<path d="M139.562 38.9193H49.6758V237.867H139.562V38.9193Z" fill="#EBEBEB"/>
<g opacity="0.5">
<path d="M139.562 38.9193V56.413L49.6758 142.03V123.683L138.66 38.9193H139.562Z" fill="white"/>
<path d="M139.562 188.432V206.772L106.92 237.867H87.6655L139.562 188.432Z" fill="white"/>
<path d="M139.562 94.2445V96.0394L49.6758 181.663V179.868L139.562 94.2445Z" fill="white"/>
<path d="M139.562 164.896V166.691L64.849 237.867H62.9648L139.562 164.896Z" fill="white"/>
<path d="M79.2398 38.9193L49.6758 67.0812V65.2863L77.3556 38.9193H79.2398Z" fill="white"/>
<path d="M130.91 38.9193L49.6758 116.301V109.88L124.169 38.9193H130.91Z" fill="white"/>
<path d="M139.562 139.755V146.176L49.6758 231.799V225.372L139.562 139.755Z" fill="white"/>
<path d="M139.562 219.583V226.01L127.115 237.867H120.368L139.562 219.583Z" fill="white"/>
</g>
<path d="M257.303 240.704V36.0815H161.458V240.704H257.303ZM164.438 38.9192H254.324V237.867H164.438V38.9192Z" fill="#C7C7C7"/>
<path d="M254.324 38.9193H164.438V237.867H254.324V38.9193Z" fill="#EBEBEB"/>
<g opacity="0.5">
<path d="M164.438 237.867V220.373L254.324 134.756V153.103L165.34 237.867H164.438Z" fill="white"/>
<path d="M164.438 88.3543V70.0136L197.08 38.9193H216.334L164.438 88.3543Z" fill="white"/>
<path d="M164.438 182.541V180.746L254.324 95.123V96.9179L164.438 182.541Z" fill="white"/>
<path d="M164.438 111.89V110.095L239.15 38.9193H241.035L164.438 111.89Z" fill="white"/>
<path d="M224.76 237.867L254.324 209.705V211.499L226.644 237.867H224.76Z" fill="white"/>
<path d="M173.089 237.867L254.324 160.484V166.906L179.83 237.867H173.089Z" fill="white"/>
<path d="M164.438 137.031V130.61L254.324 44.9865V51.4139L164.438 137.031Z" fill="white"/>
<path d="M164.438 57.203V50.7756L176.884 38.9193H183.631L164.438 57.203Z" fill="white"/>
</g>
<path d="M54.7651 223.665C54.7651 223.665 42.7182 220.826 36.1153 214.503C29.5119 208.179 25.8237 196.849 25.8237 196.849C25.8237 196.849 32.9148 198.2 39.3347 200.538C40.4121 201.737 42.4653 204.207 43.4223 206.545C43.4223 206.545 43.6254 204.075 43.4539 202.25C45.1715 203.074 46.6666 203.982 47.744 204.958C53.219 209.937 54.7651 223.665 54.7651 223.665Z" fill="#FFC727"/>
<path d="M33.346 202.355C31.7038 201.173 30.0318 200.034 28.3969 198.842C28.2984 198.77 28.3908 198.61 28.496 198.675C31.6004 200.602 34.6605 202.663 37.6215 204.82C38.6538 205.572 39.6674 206.355 40.67 207.153C40.6001 207.03 40.5307 206.905 40.4596 206.782C40.0985 206.153 39.7172 205.536 39.336 204.92C38.5699 203.681 37.7333 202.461 36.7788 201.371C36.7429 201.331 36.8037 201.27 36.8384 201.312C37.7753 202.437 38.7122 203.549 39.5689 204.742C39.9763 205.309 40.3526 205.896 40.7138 206.496C40.901 206.808 41.0816 207.122 41.2549 207.443C41.3126 207.549 41.3765 207.657 41.4355 207.766C42.9931 209.038 44.5101 210.363 45.9578 211.765C46.8509 212.631 47.7124 213.528 48.5448 214.453C48.0797 212.937 47.6723 211.405 47.1318 209.912C47.1136 209.861 47.1938 209.84 47.2115 209.892C47.7362 211.457 48.3101 213.029 48.7156 214.637C49.6392 215.673 50.5214 216.748 51.3525 217.865C51.3379 217.797 51.3246 217.728 51.3094 217.661C51.1726 217.071 51.0303 216.482 50.8789 215.896C50.5852 214.763 50.2654 213.637 49.8982 212.528C49.1443 210.252 48.166 208.026 46.6618 206.175C46.6278 206.133 46.6874 206.074 46.7214 206.116C49.0744 209.012 50.4545 212.484 51.3355 216.131C51.4644 216.664 51.586 217.199 51.7027 217.736C51.7648 218.02 51.8371 218.31 51.8833 218.602C52.2475 219.113 52.6044 219.63 52.9467 220.159C55.0382 223.395 56.6689 226.93 58.0442 230.55C59.5928 234.626 60.796 238.836 61.9056 243.061C61.9275 243.144 61.8077 243.173 61.7822 243.093C59.4262 235.766 57.0197 228.333 52.9862 221.783C52.135 220.4 51.2133 219.068 50.2356 217.782C48.2536 217.666 46.2538 217.219 44.377 216.569C42.3012 215.85 40.3429 214.854 38.5055 213.622C37.4445 212.911 36.4784 212.08 35.4965 211.259C35.4509 211.22 35.502 211.153 35.5476 211.193C37.177 212.625 39.1348 213.747 41.0694 214.666C43.0132 215.588 45.0585 216.312 47.147 216.785C48.0365 216.987 48.9382 217.136 49.841 217.263C48.7272 215.837 47.5404 214.473 46.2885 213.172C45.8824 212.75 45.461 212.346 45.0427 211.939C43.6595 210.889 42.1261 210.059 40.5891 209.287C38.6155 208.296 36.6724 207.245 34.7189 206.212C33.6166 205.629 32.5216 205.033 31.4107 204.469C31.3633 204.445 31.4065 204.373 31.4539 204.396C33.4336 205.39 35.4448 206.32 37.4433 207.271C39.3245 208.167 41.2275 209.066 43.0321 210.12C43.1105 210.166 43.1828 210.215 43.2594 210.261C41.6282 208.784 39.9392 207.377 38.2106 206.02C36.6122 204.766 34.9919 203.539 33.346 202.355Z" fill="#263238"/>
<path d="M34.0311 208.812C35.0106 209.258 36.0083 209.653 36.9781 210.125C37.9752 210.61 38.9207 211.177 39.8673 211.76C39.9093 211.786 39.8704 211.846 39.8284 211.825C38.8678 211.347 37.895 210.9 36.9434 210.402C35.9694 209.893 35.0063 209.348 34.0074 208.893C33.9594 208.871 33.9825 208.789 34.0311 208.812Z" fill="#263238"/>
<path d="M93.9001 160.558C93.9001 160.558 90.5178 164.584 90.2995 170.958C90.26 172.081 90.4303 173.646 90.5555 175.486C86.0636 177.979 82.6941 182.47 82.6941 182.47C85.2458 180.877 88.7485 180.233 90.6382 180.493C90.5744 181.704 90.4363 182.961 90.1779 184.236C89.3438 184.186 87.7326 184.302 85.0683 185.286C85.0683 185.286 87.6827 185.217 89.6757 186.238C87.5283 193.339 81.1449 200.635 63.5184 203.733C63.5184 203.733 60.1178 191.294 66.6404 177.95C71.9228 167.151 93.9001 160.558 93.9001 160.558Z" fill="#FFC727"/>
<path d="M57.4184 234.121C57.7249 231.087 58.1091 228.062 58.5596 225.047C59.4619 219.016 60.6305 213.018 62.1146 207.111C62.8144 204.326 63.6535 201.598 64.6591 198.939C64.5934 198.457 64.6038 197.955 64.594 197.472C64.5819 196.886 64.5795 196.299 64.5855 195.712C64.5983 194.538 64.6512 193.367 64.7473 192.197C64.937 189.887 65.2756 187.574 65.8301 185.327C66.1524 184.022 66.5269 182.736 66.8953 181.445C66.9105 181.392 66.9883 181.416 66.9738 181.469C66.3506 183.703 65.9918 186.027 65.672 188.326C65.3553 190.604 65.1601 192.903 65.0798 195.203C65.058 195.832 65.0464 196.462 65.0458 197.092C65.0458 197.359 65.0567 197.63 65.0665 197.902C65.9341 195.721 66.913 193.587 68.0365 191.511C69.8137 188.228 71.8548 185.109 74.0697 182.129C74.0497 181.789 74.1482 181.431 74.2144 181.104C74.2971 180.694 74.3828 180.286 74.471 179.878C74.6516 179.04 74.8534 178.209 75.0723 177.381C75.5101 175.721 76.0889 174.116 76.5887 172.477C76.6045 172.425 76.6823 172.449 76.6671 172.502C76.2014 174.125 75.8925 175.805 75.535 177.457C75.3581 178.274 75.186 179.092 75.0127 179.911C74.9264 180.32 74.8425 180.729 74.761 181.139C74.7549 181.168 74.7507 181.2 74.7452 181.23C75.4572 180.296 76.1837 179.374 76.9279 178.468C80.2938 174.365 83.9844 170.58 87.6987 166.822C88.1553 166.36 88.6234 165.91 89.0861 165.454C89.1244 165.416 89.1791 165.477 89.1427 165.516C85.5931 169.366 82.0978 173.259 78.7878 177.335C78.0011 178.303 77.2265 179.284 76.4659 180.276C76.8659 179.994 77.2702 179.719 77.6685 179.448C78.6936 178.75 79.7326 178.072 80.8021 177.448C81.8716 176.825 82.9496 176.217 84.0488 175.651C85.1791 175.068 86.3872 174.594 87.478 173.935C87.5248 173.907 87.5655 173.99 87.5175 174.01C86.3933 174.489 85.3433 175.219 84.3011 175.862C83.228 176.523 82.1573 177.189 81.1037 177.884C80.0676 178.567 79.0261 179.241 77.9974 179.935C77.1395 180.514 76.2956 181.147 75.4067 181.682C73.3736 184.419 71.4632 187.255 69.7596 190.225C68.6859 192.097 67.7161 194.017 66.8406 195.979C67.0522 195.884 67.2644 195.79 67.4723 195.694C68.0104 195.446 68.5485 195.198 69.0859 194.949C70.1226 194.471 71.1641 194.004 72.2044 193.534C74.181 192.64 76.1886 191.82 78.1281 190.839C79.2152 190.289 80.2853 189.71 81.2922 189.012C81.3365 188.982 81.3748 189.056 81.3317 189.087C77.7177 191.677 73.666 193.501 69.666 195.341L67.9314 196.139C67.4547 196.358 66.9774 196.603 66.4867 196.795C65.3066 199.542 64.3095 202.371 63.5057 205.286C61.9006 211.105 60.6779 217.051 59.6705 223.011C58.6594 228.996 57.9766 235.02 57.447 241.069C57.3807 241.825 57.3157 242.579 57.233 243.333C57.2002 243.633 56.7703 243.633 56.7739 243.321C56.8074 240.25 57.1102 237.174 57.4184 234.121Z" fill="#263238"/>
<path d="M68.1418 183.522C68.4653 181.659 68.9426 179.838 69.4253 178.015C69.4393 177.962 69.5171 177.986 69.5038 178.039C69.0581 179.829 68.7389 181.654 68.4154 183.471C68.0853 185.322 67.7941 187.183 67.5429 189.048C67.5387 189.079 67.4919 189.08 67.4937 189.046C67.6104 187.191 67.8251 185.351 68.1418 183.522Z" fill="#263238"/>
<path d="M75.7379 188.574C76.9326 187.694 78.2739 187.028 79.5713 186.331C80.214 185.986 80.8646 185.658 81.5151 185.331C82.1857 184.993 82.8831 184.711 83.5483 184.363C83.5957 184.339 83.6352 184.413 83.5878 184.438C82.9433 184.774 82.3317 185.181 81.6987 185.54C81.0457 185.91 80.3964 186.287 79.7416 186.652C78.4526 187.372 77.1856 188.17 75.8328 188.753C75.7154 188.804 75.6345 188.65 75.7379 188.574Z" fill="#263238"/>
<path opacity="0.1" d="M54.5461 201.973C54.5461 201.973 43.3984 199.206 38.2797 191.431C33.3914 184.008 31.8118 171.353 31.6865 170.241C31.8878 171.261 34.1878 182.321 41.7769 187.473C47.5875 191.421 53.2024 194.665 54.5461 201.973Z" fill="#263238"/>
<path d="M44.2577 181.952C46.2191 183.916 47.6904 186.225 48.3672 188.989C48.3726 189.012 48.3398 189.025 48.3325 189.001C47.4947 186.428 46.1127 183.892 44.203 182.015C44.1647 181.978 44.2194 181.914 44.2577 181.952Z" fill="#263238"/>
<path d="M54.5462 201.973C54.5462 201.973 43.3985 199.206 38.2797 191.432C33.3914 184.008 31.8118 171.354 31.6866 170.241C31.6763 170.189 31.6738 170.162 31.6738 170.162C31.6738 170.162 37.0188 178.062 42.6391 180.077C48.2595 182.091 56.1574 189.061 54.5462 201.973Z" fill="#FFC727"/>
<path d="M33.6494 174.52C34.6836 176.628 35.767 178.719 37.0955 180.645C38.3887 182.521 39.947 184.117 41.6811 185.55C43.195 186.8 44.7964 187.933 46.3292 189.159C46.3177 189.14 46.3067 189.12 46.2946 189.101C46.0064 188.657 45.6987 188.226 45.3813 187.804C44.7429 186.956 44.045 186.156 43.3433 185.365C41.9577 183.803 40.5435 182.27 39.302 180.579C38.6143 179.642 38.01 178.646 37.5144 177.586C37.4913 177.536 37.5692 177.51 37.5923 177.559C39.3998 181.475 43.0114 183.98 45.5887 187.288C45.9559 187.759 46.3019 188.244 46.6192 188.752C46.843 189.111 47.1154 189.51 47.2607 189.931C48.6627 191.125 49.9584 192.426 51.0637 193.927C50.9701 193.166 50.8114 192.407 50.6162 191.677C50.339 190.639 49.9766 189.664 49.4349 188.742C49.4075 188.696 49.4762 188.648 49.503 188.695C50.0246 189.609 50.5001 190.594 50.8029 191.611C51.0491 192.437 51.1646 193.264 51.2084 194.113C51.2102 194.116 51.2127 194.118 51.2145 194.121C51.7708 194.897 52.2651 195.715 52.7211 196.555C52.6749 196.307 52.6299 196.06 52.5825 195.813C52.3612 194.659 52.1168 193.507 51.8286 192.368C51.2437 190.059 50.4545 187.82 49.1473 185.84C49.1175 185.794 49.1856 185.747 49.2154 185.792C50.505 187.746 51.4832 189.928 52.1861 192.179C52.5412 193.316 52.8263 194.473 53.0762 195.639C53.1984 196.209 53.3084 196.781 53.4136 197.355C53.4684 197.651 53.5298 197.954 53.576 198.26C54.7148 200.763 55.5155 203.448 56.1472 206.115C57.2842 210.917 57.9931 215.856 58.5245 220.766C59.082 225.922 59.3739 231.134 59.293 236.324C59.2827 236.975 59.2456 237.626 59.2109 238.277C59.2018 238.445 58.9604 238.469 58.9531 238.292C58.8437 235.721 58.7798 233.147 58.6333 230.579C58.4868 228.007 58.2716 225.442 58.0065 222.88C57.4866 217.854 56.7364 212.835 55.6833 207.899C54.7792 203.663 53.6076 199.398 51.3805 195.687C50.2642 193.826 48.9284 192.18 47.3586 190.715C45.7954 189.257 44.0863 187.978 42.4386 186.628C40.7995 185.284 39.2235 183.822 37.9242 182.116C36.5216 180.277 35.4174 178.213 34.3784 176.136C34.1157 175.611 33.8458 175.089 33.5801 174.565C33.5564 174.519 33.6257 174.471 33.6494 174.52Z" fill="#263238"/>
<path d="M35.5736 176.219C36.2886 177.787 37.149 179.279 38.0573 180.733C38.0786 180.768 38.0287 180.802 38.0062 180.768C37.0353 179.345 36.2266 177.816 35.4964 176.246C35.4733 176.197 35.5511 176.17 35.5736 176.219Z" fill="#263238"/>
<path d="M95.454 196.848C95.454 196.848 95.631 213.316 86.1583 218.069C76.6869 222.829 71.6077 218.863 65.1714 220.456C65.1714 220.456 65.1775 220.455 65.1829 220.447C65.4328 220.055 70.0263 213.191 77.3326 211.301C84.8481 209.354 93.1753 203.71 95.454 196.848Z" fill="#FFC727"/>
<path opacity="0.1" d="M95.454 196.848C95.454 196.848 95.631 213.316 86.1583 218.069C76.6869 222.829 71.6077 218.863 65.1714 220.456C65.1714 220.456 65.1775 220.455 65.1829 220.447C65.4498 220.312 70.1497 217.869 75.9524 217.145C81.9248 216.398 93.3352 212.352 95.454 196.848Z" fill="black"/>
<path d="M64.5477 220.749C65.678 219.69 66.9426 218.78 68.3155 218.097C68.518 217.996 68.7277 217.914 68.9338 217.823C69.0335 217.691 69.1399 217.566 69.2518 217.445C69.5358 217.136 69.8318 216.842 70.1431 216.564C70.7384 216.033 71.3725 215.549 72.0486 215.135C73.6179 214.177 75.3373 213.505 76.9424 212.614C76.9892 212.588 77.0287 212.664 76.9819 212.689C76.1885 213.117 75.4212 213.589 74.649 214.058C73.8981 214.513 73.1309 214.948 72.4006 215.437C71.7452 215.878 71.1135 216.364 70.5262 216.898C70.3596 217.05 70.1991 217.214 70.0398 217.381C71.0843 217.01 72.1581 216.725 73.2409 216.498C74.9749 216.134 76.729 215.876 78.4594 215.492C79.3106 215.304 80.149 215.068 80.9728 214.787C81.759 214.13 82.5433 213.476 83.2875 212.763C84.1867 211.901 85.0118 210.965 85.7359 209.94C85.7669 209.896 85.8381 209.942 85.8058 209.985C84.6366 211.553 83.3836 213.134 81.9225 214.439C82.3305 214.278 82.7348 214.106 83.1337 213.917C86.3518 212.397 89.2161 209.983 91.2055 206.937C91.2353 206.892 91.3052 206.936 91.2754 206.982C89.5414 209.591 87.341 211.825 84.7455 213.498C83.4444 214.336 82.0721 215.023 80.6196 215.528C78.95 216.108 77.2197 216.452 75.4929 216.787C73.8021 217.117 72.1045 217.452 70.4727 218.029C68.9624 218.563 67.5397 219.337 66.2623 220.331C63.8242 222.23 61.9388 224.826 60.5866 227.647C58.7942 231.385 57.9369 235.564 57.4609 239.687C57.4402 239.864 57.1788 239.864 57.1903 239.68C57.6348 232.759 59.4144 225.556 64.5477 220.749Z" fill="#263238"/>
<path d="M75.5405 215.379C76.0135 214.594 76.723 214.004 77.4879 213.545C78.3829 213.007 79.1848 212.428 79.8038 211.552C79.8348 211.508 79.9059 211.554 79.8737 211.597C79.3016 212.361 78.6157 212.988 77.8284 213.502C77.0015 214.041 76.1679 214.568 75.6001 215.418C75.5745 215.456 75.5162 215.419 75.5405 215.379Z" fill="#263238"/>
<path d="M70.5148 232.903L70.0837 241.958L68.7626 269.624H48.8919L47.5707 241.958L47.1396 232.903H70.5148Z" fill="#37474F"/>
<path d="M70.5148 232.903L70.0837 241.958H47.5707L47.1396 232.903H70.5148Z" fill="#263238"/>
<path d="M71.9076 229.123H45.7466V237.762H71.9076V229.123Z" fill="#37474F"/>
<path d="M187.197 189.051L34.3345 204.531V193.722L187.197 178.242V189.051Z" fill="#37474F"/>
<path d="M187.197 194.305L40.8384 209.144V203.889L187.197 189.051V194.305Z" fill="#A6A6A6"/>
<path d="M214.613 178.242H187.197V189.051H214.613V178.242Z" fill="#455A64"/>
<path d="M212.694 189.051H187.197V194.305H212.694V189.051Z" fill="#C7C7C7"/>
<path d="M272.617 220.77C272.617 226.945 268.888 231.963 264.259 232.02H215.815V209.519H264.259C268.888 209.576 272.617 214.595 272.617 220.77Z" fill="#37474F"/>
<path d="M215.812 232.02C220.473 232.02 224.251 226.984 224.251 220.771C224.251 214.558 220.473 209.521 215.812 209.521C211.151 209.521 207.372 214.558 207.372 220.771C207.372 226.984 211.151 232.02 215.812 232.02Z" fill="#263238"/>
<path d="M215.812 226.661C218.252 226.661 220.23 224.024 220.23 220.771C220.23 217.518 218.252 214.881 215.812 214.881C213.371 214.881 211.393 217.518 211.393 220.771C211.393 224.024 213.371 226.661 215.812 226.661Z" fill="#C7C7C7"/>
<path d="M182.425 264.86H171.831L150.583 198.023L161.177 196.95L182.425 264.86Z" fill="#A6A6A6"/>
<path d="M186.056 264.86H182.425L161.177 196.95L164.678 196.608L186.056 264.86Z" fill="#C7C7C7"/>
<path d="M62.3219 264.86H51.7275V208.04L62.3219 206.966V264.86Z" fill="#A6A6A6"/>
<path d="M66.2008 206.572L62.3218 206.966V264.86H66.2008V206.572Z" fill="#C7C7C7"/>
<path d="M209.152 264.86H46.1465V269.624H209.152V264.86Z" fill="#A6A6A6"/>
<path d="M228.821 264.86H209.152V269.624H228.821V264.86Z" fill="#C7C7C7"/>
<path d="M24.3018 269.624L56.2266 269.471L88.1509 269.415L152 269.309L215.849 269.414L247.773 269.47L279.698 269.624L247.773 269.779L215.849 269.834L152 269.94L88.1509 269.834L56.2266 269.778L24.3018 269.624Z" fill="#263238"/>
<path d="M233.106 248.584H224.237V269.64H233.106V248.584Z" fill="#455A64"/>
<path d="M224.237 250.845H219.974V267.38H224.237V250.845Z" fill="#455A64"/>
<path d="M224.238 250.846H222.106V267.383H224.238V250.846Z" fill="#37474F"/>
<path d="M259.373 269.64H268.242V248.584H259.373V269.64Z" fill="#455A64"/>
<path d="M268.242 267.379H272.505V250.844H268.242V267.379Z" fill="#455A64"/>
<path d="M270.373 250.841H268.241V267.377H270.373V250.841Z" fill="#37474F"/>
<path d="M259.373 255.116H233.106V263.114H259.373V255.116Z" fill="#37474F"/>
<path d="M275.753 220.229C274.22 220.784 227.993 219.78 227.348 218.576C226.599 217.178 225.948 212.809 226.245 206.081C226.256 205.83 206.905 185.465 206.905 185.465L232.369 175.244L256.045 204.139C256.045 204.139 272.41 212.301 274.149 213.694C275.874 215.092 277.287 219.674 275.753 220.229Z" fill="#D3766A"/>
<path d="M275.751 220.231C274.221 220.783 227.992 219.779 227.349 218.574C226.601 217.177 225.945 212.808 226.242 206.081C226.245 205.984 221.684 201.102 221.684 201.102L251.958 199.101L256.045 204.138C256.045 204.138 272.408 212.303 274.147 213.696C275.875 215.095 277.288 219.673 275.751 220.231Z" fill="#EBEBEB"/>
<path d="M276.139 220.387C274.578 220.906 228.955 220.066 227.273 218.928C226.633 218.5 225.195 214.457 226.245 206.081L256.045 204.139C256.045 204.139 272.965 212.298 274.68 213.751C276.386 215.205 277.699 219.87 276.139 220.387Z" fill="#FFC727"/>
<path d="M275.525 218.529C268.073 218.232 237.992 217.766 230.604 218.062C230.544 218.064 230.543 218.106 230.603 218.11C237.983 218.572 268.067 218.785 275.524 218.656C275.681 218.654 275.682 218.536 275.525 218.529Z" fill="#263238"/>
<path d="M271.842 212.048C270.075 211.948 268.336 212.796 267.357 213.876C266.417 214.915 265.606 216.382 265.637 217.989C265.637 218.036 265.719 218.038 265.727 217.991C266.192 214.965 268.881 212.339 271.841 212.145C271.901 212.141 271.903 212.051 271.842 212.048Z" fill="#263238"/>
<path d="M258.926 204.951C255.943 204.865 252.47 205.91 250.582 208.42C250.509 208.517 250.643 208.624 250.732 208.578C253.448 207.171 256.027 206.131 258.972 205.333C259.18 205.277 259.14 204.957 258.926 204.951Z" fill="#263238"/>
<path d="M261.217 205.917C258.234 205.831 254.761 206.876 252.873 209.387C252.8 209.484 252.934 209.591 253.023 209.544C255.739 208.137 258.318 207.097 261.263 206.299C261.471 206.243 261.431 205.923 261.217 205.917Z" fill="#263238"/>
<path d="M263.507 206.883C260.524 206.797 257.051 207.843 255.163 210.353C255.09 210.45 255.224 210.557 255.313 210.511C258.029 209.104 260.608 208.064 263.553 207.266C263.761 207.209 263.721 206.89 263.507 206.883Z" fill="#263238"/>
<path d="M265.798 207.85C262.815 207.764 259.342 208.809 257.454 211.319C257.381 211.416 257.515 211.523 257.604 211.477C260.32 210.07 262.899 209.03 265.844 208.232C266.052 208.176 266.012 207.856 265.798 207.85Z" fill="#263238"/>
<path d="M232.6 210.73C229.253 210.692 229.191 216.099 232.544 216.138C235.891 216.175 235.953 210.767 232.6 210.73Z" fill="#263238"/>
<path d="M262.26 196.721C260.767 195.398 258.848 196.643 257.898 197.982C256.361 200.149 255.285 203.203 255.083 205.873C255.078 205.939 255.126 205.966 255.175 205.963C255.235 206.186 255.485 206.376 255.708 206.221C257.852 204.724 260.323 203.4 261.962 201.264C262.918 200.017 263.671 197.973 262.26 196.721ZM258.512 203.261C257.475 204.024 256.408 204.729 255.397 205.531C255.95 203.994 256.437 202.439 257.139 200.96C257.474 200.255 257.831 199.536 258.257 198.884C258.919 197.868 261.881 195.318 262.133 198.697C262.272 200.559 259.749 202.351 258.512 203.261Z" fill="#263238"/>
<path d="M247.655 206.917C250.246 207.369 252.937 206.638 255.494 206.263C255.759 206.224 255.824 205.909 255.725 205.701C255.763 205.669 255.782 205.616 255.736 205.57C253.87 203.723 251.106 202.198 248.569 201.653C247.003 201.316 244.774 201.722 244.514 203.744C244.267 205.655 246.141 206.653 247.655 206.917ZM245.877 205.126C243.894 202.437 247.737 202.277 248.882 202.573C249.617 202.763 250.344 203.05 251.047 203.342C252.52 203.955 253.882 204.774 255.281 205.534C254.014 205.638 252.767 205.854 251.504 206.007C250 206.189 246.971 206.608 245.877 205.126Z" fill="#263238"/>
<path opacity="0.1" d="M276.136 220.385C274.579 220.903 228.955 220.069 227.271 218.925C226.632 218.501 225.197 214.457 226.243 206.083L254.71 204.224L276.744 217.939C276.95 219.14 276.816 220.157 276.136 220.385Z" fill="black"/>
<path d="M245.564 192.91L219.961 199.195C219.961 199.195 198.859 177.392 193.327 170.233C193.148 170.002 155.788 180.844 136.181 176.796C121.151 173.694 113.747 164.252 113.488 148.414L140.696 147.396C163.894 145.53 191.807 138.809 204.367 145.963C218.007 153.733 245.564 192.91 245.564 192.91Z" fill="#D3766A"/>
<path d="M163.56 143.892C163.56 143.892 160.93 174.992 160.858 177.908C160.858 177.908 133.615 180.404 121.091 171.302C113.592 165.852 111.722 152.228 115.024 143.653L141.632 142.745L143.93 146.612L163.56 143.892Z" fill="#37474F"/>
<path d="M158.205 146.583C157.585 151.859 157.695 150.336 157.13 155.619C156.853 158.205 155.433 171.196 155.56 173.653C155.563 173.707 155.645 173.715 155.659 173.663C156.261 171.284 157.411 158.264 157.642 155.674C158.115 150.381 157.926 151.896 158.345 146.598C158.353 146.498 158.217 146.484 158.205 146.583Z" fill="#263238"/>
<path d="M113.896 143.692C113.896 143.692 107.095 160.659 112.871 171.523C117.032 179.35 122.176 182.092 129.601 183.976C150.122 189.184 172.955 173.639 179.911 175.024C183.48 175.734 210.813 200.154 210.813 200.154L237.988 192.78C230.015 184.709 202.652 149.864 189.189 146.02C178.175 142.876 148.116 150.475 147.573 149.937C146.684 149.058 141.632 142.746 141.632 142.746L113.896 143.692Z" fill="#D3766A"/>
<path d="M165.536 145.074C165.536 145.074 163.962 178.257 163.889 181.174C163.889 181.174 132.864 193.039 117.717 179.298C108.099 170.573 109.373 157.089 113.897 143.692L141.632 142.745L146.48 147.672L165.536 145.074Z" fill="#455A64"/>
<path d="M160.302 150.319C159.803 153.986 159.569 157.693 159.281 161.375C158.994 165.04 158.727 168.707 158.51 172.374C158.387 174.456 158.274 176.536 158.22 178.618C158.219 178.67 158.292 178.673 158.298 178.621C158.747 174.943 159.037 171.252 159.329 167.565C159.618 163.9 159.882 160.233 160.109 156.567C160.238 154.489 160.378 152.4 160.403 150.323C160.404 150.254 160.311 150.252 160.302 150.319Z" fill="#263238"/>
<path d="M146.036 149.799C145.616 149.091 145.149 148.409 144.706 147.716C143.659 146.079 142.608 144.434 141.497 142.842C141.392 142.691 141.136 142.857 141.231 143.019C141.958 144.279 142.74 145.509 143.506 146.744C143.898 147.377 144.292 148.009 144.691 148.639C145.063 149.227 145.537 149.823 145.789 150.479C146.05 151.161 145.555 151.66 144.906 151.656C144.325 151.652 143.828 151.286 143.426 150.884C142.512 149.97 141.849 148.737 141.123 147.666C140.678 147.01 140.234 146.355 139.781 145.706C139.3 145.016 138.778 144.355 138.298 143.666C138.267 143.621 138.192 143.669 138.219 143.718C138.625 144.457 138.989 145.224 139.395 145.964C139.801 146.704 140.213 147.439 140.636 148.169C141.035 148.859 141.453 149.539 141.886 150.208C142.254 150.776 142.681 151.338 143.211 151.753C144.069 152.422 145.65 152.73 146.273 151.555C146.579 150.973 146.344 150.32 146.036 149.799Z" fill="#263238"/>
<path d="M154.292 167.79L146.181 185.429C144.558 185.631 142.886 185.783 141.189 185.871L149.16 168.535L154.292 167.79Z" fill="#FFC727"/>
<path d="M144.698 171.354L137.998 185.928C136.447 185.915 134.885 185.833 133.34 185.663L139.572 172.106L144.698 171.354Z" fill="#FFC727"/>
<path d="M270.869 220.385C269.364 221.019 223.147 222.437 222.444 221.268C221.628 219.911 220.767 215.582 220.737 208.847C220.736 208.595 201.422 191.908 201.422 191.908L222.776 177.382L250.405 205.347C250.405 205.347 267.145 212.643 268.949 213.942C270.741 215.249 272.374 219.75 270.869 220.385Z" fill="#D3766A"/>
<path d="M270.867 220.385C269.365 221.017 223.147 222.44 222.446 221.271C221.631 219.909 220.764 215.58 220.735 208.846C220.733 208.76 216.434 205.005 216.434 205.005L245.751 200.638L250.406 205.351C250.406 205.351 267.143 212.642 268.948 213.943C270.743 215.249 272.374 219.753 270.867 220.385Z" fill="#EBEBEB"/>
<path d="M271.261 220.523C269.728 221.122 224.121 222.673 222.387 221.623C221.727 221.229 220.095 217.266 220.737 208.846L250.405 205.346C250.405 205.346 267.7 212.609 269.483 213.971C271.257 215.335 272.794 219.924 271.261 220.523Z" fill="#FFC727"/>
<path d="M270.558 218.7C263.102 218.793 233.035 219.903 225.672 220.585C225.612 220.59 225.614 220.633 225.674 220.634C233.066 220.708 263.123 219.346 270.563 218.827C270.72 218.815 270.716 218.698 270.558 218.7Z" fill="#263238"/>
<path d="M266.566 212.42C264.797 212.412 263.1 213.35 262.176 214.481C261.287 215.566 260.547 217.074 260.657 218.678C260.66 218.724 260.742 218.723 260.747 218.675C261.065 215.628 263.623 212.865 266.57 212.516C266.629 212.509 266.626 212.42 266.566 212.42Z" fill="#263238"/>
<path d="M253.322 206.007C250.339 206.078 246.92 207.304 245.157 209.909C245.088 210.01 245.227 210.11 245.314 210.059C247.959 208.512 250.483 207.338 253.387 206.387C253.592 206.32 253.536 206.002 253.322 206.007Z" fill="#263238"/>
<path d="M255.657 206.852C252.673 206.923 249.255 208.149 247.491 210.754C247.423 210.855 247.562 210.955 247.649 210.903C250.294 209.356 252.818 208.183 255.721 207.231C255.927 207.165 255.871 206.847 255.657 206.852Z" fill="#263238"/>
<path d="M257.992 207.697C255.009 207.768 251.59 208.994 249.827 211.599C249.758 211.7 249.897 211.8 249.984 211.749C252.629 210.202 255.153 209.028 258.056 208.077C258.261 208.01 258.205 207.692 257.992 207.697Z" fill="#263238"/>
<path d="M260.327 208.543C257.343 208.614 253.925 209.839 252.161 212.445C252.093 212.546 252.232 212.645 252.319 212.595C254.963 211.048 257.488 209.874 260.391 208.923C260.596 208.855 260.54 208.538 260.327 208.543Z" fill="#263238"/>
<path d="M227.31 213.157C223.965 213.294 224.165 218.699 227.515 218.561C230.861 218.423 230.661 213.019 227.31 213.157Z" fill="#263238"/>
<path d="M256.253 197.614C254.698 196.371 252.842 197.714 251.958 199.1C250.528 201.345 249.601 204.451 249.529 207.129C249.527 207.195 249.576 207.219 249.625 207.214C249.696 207.434 249.955 207.611 250.17 207.444C252.239 205.837 254.643 204.386 256.176 202.166C257.07 200.87 257.724 198.79 256.253 197.614ZM252.827 204.341C251.828 205.157 250.797 205.918 249.827 206.771C250.305 205.207 250.716 203.628 251.345 202.115C251.645 201.392 251.967 200.657 252.36 199.982C252.972 198.934 255.807 196.232 256.223 199.593C256.452 201.446 254.018 203.367 252.827 204.341Z" fill="#263238"/>
<path d="M242.16 208.561C244.771 208.877 247.422 208.006 249.959 207.498C250.222 207.445 250.271 207.127 250.162 206.924C250.199 206.89 250.215 206.835 250.167 206.793C248.212 205.045 245.379 203.668 242.819 203.256C241.238 203.002 239.032 203.524 238.87 205.556C238.717 207.479 240.636 208.377 242.16 208.561ZM240.298 206.866C238.187 204.284 242.018 203.923 243.176 204.159C243.92 204.31 244.66 204.558 245.376 204.813C246.877 205.348 248.276 206.095 249.711 206.781C248.45 206.952 247.215 207.232 245.962 207.451C244.468 207.712 241.462 208.289 240.298 206.866Z" fill="#263238"/>
<path d="M165.537 146.829C169.983 146.168 174.449 145.594 178.944 145.412C181.19 145.324 183.445 145.334 185.688 145.576C187.926 145.817 190.16 146.302 192.252 147.208C193.295 147.662 194.299 148.212 195.257 148.837C196.212 149.466 197.119 150.17 198.006 150.887C199.783 152.325 201.505 153.83 203.202 155.364C206.592 158.436 209.889 161.617 213.122 164.864C219.587 171.359 225.908 178.004 232.107 184.77C235.21 188.148 238.295 191.544 241.366 194.954L245.949 200.091L248.234 202.666L249.377 203.951L249.951 204.591L250.24 204.908L250.384 205.063L250.456 205.138L250.489 205.171L250.501 205.183C250.419 205.261 250.71 205.024 250.224 205.306L250.478 205.169C256.135 207.69 261.764 210.281 267.406 212.839C261.715 210.402 256.01 207.998 250.333 205.525L250.587 205.388C250.083 205.669 250.362 205.415 250.266 205.483L250.238 205.458L250.196 205.416L250.118 205.337L249.968 205.179L249.673 204.863L249.091 204.23L247.932 202.958L245.617 200.412L240.986 195.323C237.903 191.928 234.807 188.545 231.691 185.182C225.445 178.471 219.193 171.765 212.751 165.261C209.524 162.016 206.28 158.788 202.932 155.681C201.256 154.13 199.557 152.606 197.804 151.153C196.059 149.696 194.204 148.373 192.146 147.465C190.094 146.549 187.887 146.046 185.665 145.783C183.439 145.519 181.19 145.486 178.947 145.55C174.46 145.687 169.988 146.214 165.537 146.829Z" fill="#263238"/>
<path d="M79.0503 93.7395C80.0991 91.9377 84.7862 86.5461 89.0829 83.2363C91.1677 81.6304 97.6253 77.6791 98.9337 79.2484C100.242 80.8176 98.4528 82.1461 98.4528 82.1461C98.4528 82.1461 101.421 80.9011 102.6 82.6049C103.778 84.3088 100.93 86.2813 100.93 86.2813C100.93 86.2813 104.068 85.2334 105.127 87.0207C106.185 88.808 103.001 90.292 103.001 90.292C103.001 90.292 105.827 89.1948 106.103 91.0491C106.435 93.2794 101.005 94.6894 98.7854 96.5854C98.2813 97.0158 89.1662 106.068 89.1662 106.068L79.0503 93.7395Z" fill="#D3766A"/>
<path d="M102.973 90.3476C98.9823 91.3948 97.4106 92.5703 94.6175 95.6216C94.5628 95.681 94.4649 95.6102 94.5166 95.5426C96.9899 92.2954 98.7567 90.5252 102.934 90.1434C103.139 90.1251 103.163 90.2977 102.973 90.3476Z" fill="#263238"/>
<path d="M101.076 86.1852C97.0214 87.6489 95.3057 88.9085 92.1544 91.8808C92.11 91.9225 92.0365 91.8492 92.0784 91.8024C94.9354 88.6178 96.7369 86.8937 100.972 85.9836C101.164 85.9431 101.261 86.1182 101.076 86.1852Z" fill="#263238"/>
<path d="M98.1252 82.2839C94.2984 83.9953 92.3601 85.2922 89.6569 88.5862C89.5931 88.6639 89.4782 88.5748 89.5347 88.4901C91.9771 84.8523 94.3841 83.2161 98.0625 82.1682C98.313 82.0968 98.3659 82.1758 98.1252 82.2839Z" fill="#263238"/>
<path d="M87.8647 108.803C87.8647 108.803 92.7609 107.118 94.7545 105.884C96.7482 104.65 102.551 97.2105 101.076 95.8169C99.1717 94.017 95.0081 97.6263 93.1914 99.6708C93.1914 99.6708 88.7907 95.5034 85.2631 97.4215C81.7361 99.339 87.8647 108.803 87.8647 108.803Z" fill="#D3766A"/>
<path d="M100.396 95.5009C97.5209 95.1621 95.3023 98.0055 93.3968 99.8522C93.2521 99.9925 93.0922 99.9211 93.0107 99.7846C91.0542 98.166 87.8403 96.4748 85.311 97.2604C85.2368 97.2831 85.1955 97.1776 85.2672 97.1435C87.8695 95.918 91.1575 97.3116 93.1913 99.2278C95.1168 97.3027 97.4619 94.5516 100.4 95.4725C100.417 95.4775 100.414 95.5028 100.396 95.5009Z" fill="#263238"/>
<path d="M130.444 73.8479C128.501 73.252 121.165 71.9639 115.844 72.529C113.263 72.8032 105.93 74.4079 105.981 76.4834C106.032 78.5595 108.216 78.2871 108.216 78.2871C108.216 78.2871 105.215 79.4468 105.45 81.5312C105.684 83.6155 109.068 83.077 109.068 83.077C109.068 83.077 106.07 84.5016 106.447 86.5631C106.823 88.6247 110.138 87.4909 110.138 87.4909C110.138 87.4909 107.339 88.6608 108.337 90.2237C109.538 92.1039 114.464 89.3414 117.333 89.1872C117.985 89.1525 130.587 89.4539 130.587 89.4539L130.444 73.8479Z" fill="#D3766A"/>
<path d="M110.193 87.5136C113.82 85.4912 115.744 85.2587 119.786 85.5563C119.865 85.562 119.891 85.4413 119.809 85.4274C115.876 84.7613 113.423 84.6911 110.089 87.336C109.926 87.465 110.02 87.6097 110.193 87.5136Z" fill="#263238"/>
<path d="M108.897 83.1092C112.841 81.3504 114.925 81.0792 119.18 81.0672C119.241 81.0672 119.247 80.9611 119.186 80.956C115.01 80.6046 112.561 80.5932 108.843 82.888C108.674 82.9923 108.716 83.1895 108.897 83.1092Z" fill="#263238"/>
<path d="M108.547 78.1594C112.484 76.7431 114.757 76.3431 118.889 76.8834C118.987 76.8961 119.014 76.7494 118.917 76.7267C114.755 75.7502 111.915 76.2274 108.518 78.0305C108.287 78.1537 108.299 78.2485 108.547 78.1594Z" fill="#263238"/>
<path d="M133.321 90.5637C133.321 90.5637 128.611 92.7485 126.339 93.2339C124.066 93.7193 114.956 92.2878 115.141 90.225C115.381 87.5611 120.797 87.3108 123.464 87.5484C123.464 87.5484 124.014 81.3864 127.863 80.3329C131.713 79.2781 133.321 90.5637 133.321 90.5637Z" fill="#D3766A"/>
<path d="M115.439 89.5146C117.343 87.2495 120.826 87.7961 123.431 87.8259C123.629 87.8284 123.701 87.6634 123.673 87.5054C124.069 84.9389 125.346 81.4382 127.724 80.2463C127.794 80.2115 127.756 80.1041 127.681 80.1294C124.964 81.047 123.438 84.3802 123.178 87.2204C120.507 87.1471 116.991 86.7578 115.418 89.4969C115.408 89.5127 115.427 89.5291 115.439 89.5146Z" fill="#263238"/>
<path d="M121.273 114.468C135.032 109.667 154.949 92.7214 152.161 86.6997C149.453 80.853 140.459 75.5632 129.521 73.5699C127.93 73.2798 128.685 76.5712 128.673 82.4874C128.667 85.2891 124.936 93.3268 127.179 93.0121C128.454 92.8332 131.62 93.5101 132.668 93.7743C133.527 93.9904 121.789 104.085 117.074 107.65C109.539 113.345 117.585 115.755 121.273 114.468Z" fill="#D3766A"/>
<path d="M130.284 110.173C127.187 111.985 124.1 113.483 121.273 114.466C118.058 115.586 111.525 113.902 114.905 109.675L130.284 110.173Z" fill="#263238"/>
<path d="M110.39 170.286C110.524 170.352 142.691 144.634 142.877 144.057C143.135 143.247 128.221 115.688 118.241 109.703C115.746 108.206 107.407 109.808 105.588 115.976C99.5658 136.398 109.91 170.046 110.39 170.286Z" fill="#FFC727"/>
<path d="M137.487 133.826C137.25 134.249 136.994 134.667 136.727 135.077C136.028 136.12 135.207 137.081 134.265 137.896C133.316 138.705 132.264 139.369 131.158 139.906C130.045 140.449 128.859 140.816 127.643 140.974C126.427 141.138 125.193 141.107 123.983 140.936C123.643 140.885 123.302 140.829 122.968 140.759C122.901 140.746 122.828 140.734 122.761 140.715C120.779 140.291 118.864 139.558 116.979 138.819C115.842 138.376 114.711 137.921 113.556 137.53C112.814 137.283 112.06 137.056 111.294 136.898C111.221 136.879 111.154 136.866 111.082 136.853C110.729 136.784 110.376 136.733 110.024 136.695C108.832 136.588 107.592 136.67 106.479 137.157C106.339 137.214 106.199 137.27 106.059 137.334L105.658 137.548L105.458 137.656L104.874 138.016C104.582 138.218 104.296 138.421 104.017 138.636C104.01 138.585 104.01 138.534 104.004 138.484C104.266 138.282 104.533 138.086 104.801 137.902L105.196 137.656L105.391 137.536L105.597 137.422L106.005 137.207C106.145 137.138 106.284 137.081 106.43 137.024C107.567 136.525 108.826 136.436 110.042 136.544C110.413 136.582 110.778 136.638 111.142 136.708C111.215 136.721 111.282 136.733 111.355 136.752C112.115 136.91 112.863 137.131 113.605 137.378C114.766 137.763 115.903 138.218 117.04 138.661C118.949 139.407 120.876 140.14 122.877 140.544C122.944 140.563 123.017 140.576 123.09 140.588C123.394 140.652 123.698 140.702 124.008 140.746C128.817 141.581 133.857 139.11 136.545 134.945C136.836 134.509 137.104 134.06 137.353 133.605C137.396 133.681 137.438 133.75 137.487 133.826ZM130.635 126.716C130.58 126.76 130.525 126.804 130.471 126.855C130.398 126.918 130.319 126.988 130.246 127.057C129.328 127.898 128.537 128.884 127.868 129.952C126.531 132.094 125.753 134.521 124.798 136.834C124.324 137.991 123.789 139.122 123.126 140.171C123.047 140.298 122.962 140.424 122.877 140.544C122.84 140.601 122.804 140.658 122.761 140.715C122.178 141.549 121.49 142.307 120.73 142.965C119.8 143.761 118.761 144.425 117.642 144.911L117.234 145.107C117.095 145.17 116.949 145.208 116.809 145.265C116.523 145.366 116.237 145.474 115.952 145.562L115.07 145.777C114.924 145.815 114.772 145.834 114.62 145.853L114.176 145.916C111.769 146.232 109.337 145.733 106.898 145.872C106.29 145.878 105.682 145.979 105.081 146.049C105.068 146.049 105.062 146.055 105.05 146.055C104.977 146.074 104.91 146.087 104.837 146.099C104.837 146.131 104.843 146.156 104.85 146.188C104.85 146.207 104.85 146.226 104.856 146.245C104.935 146.226 105.02 146.213 105.099 146.194C105.701 146.125 106.303 146.03 106.905 146.024C109.324 145.891 111.75 146.396 114.194 146.087L114.65 146.024C114.802 146.005 114.954 145.986 115.1 145.948L115.994 145.733C116.286 145.644 116.578 145.531 116.864 145.436C117.01 145.379 117.155 145.341 117.295 145.272L117.715 145.076C118.846 144.589 119.898 143.919 120.846 143.116C121.642 142.428 122.36 141.631 122.968 140.759C123.01 140.702 123.053 140.645 123.09 140.588C123.156 140.487 123.223 140.386 123.29 140.285C123.959 139.217 124.506 138.079 124.986 136.916C125.953 134.597 126.731 132.183 128.057 130.078C128.774 128.89 129.674 127.828 130.714 126.931C130.769 126.887 130.823 126.836 130.878 126.792C131.346 126.4 131.845 126.033 132.362 125.711C132.325 125.654 132.289 125.597 132.252 125.54C131.687 125.888 131.146 126.28 130.635 126.716ZM133.006 127.531C132.301 127.278 131.595 127.026 130.878 126.792C130.799 126.767 130.72 126.741 130.635 126.716C129.103 126.223 127.546 125.819 125.941 125.642C124.731 125.509 123.497 125.515 122.287 125.724C121.077 125.92 119.898 126.324 118.803 126.899C117.715 127.474 116.681 128.176 115.757 129.016C114.839 129.863 114.049 130.849 113.386 131.911C112.443 133.422 111.781 135.065 111.142 136.708C111.124 136.758 111.1 136.809 111.082 136.853C110.832 137.504 110.577 138.155 110.315 138.794C109.841 139.95 109.3 141.081 108.637 142.13C107.981 143.18 107.172 144.128 106.242 144.93C105.792 145.316 105.318 145.67 104.819 145.986C104.825 146.024 104.831 146.062 104.837 146.099C104.837 146.131 104.843 146.156 104.85 146.188C104.916 146.144 104.983 146.099 105.05 146.055C105.506 145.758 105.944 145.43 106.357 145.076C107.306 144.267 108.127 143.306 108.802 142.244C109.476 141.182 110.018 140.039 110.504 138.876C110.778 138.218 111.033 137.555 111.294 136.898C111.313 136.847 111.331 136.803 111.355 136.752C111.987 135.122 112.65 133.51 113.568 132.037C116.128 127.79 121.095 125.155 125.923 125.831C127.473 125.996 128.981 126.381 130.471 126.855C130.556 126.874 130.635 126.899 130.714 126.931C131.468 127.171 132.21 127.43 132.951 127.689C133.261 127.797 133.571 127.91 133.882 128.018C133.833 127.936 133.784 127.86 133.73 127.784C133.486 127.702 133.249 127.613 133.006 127.531ZM120.189 111.87C120.153 111.915 120.116 111.952 120.086 111.997C119.831 112.294 119.581 112.597 119.326 112.888C118.517 113.823 117.654 114.708 116.706 115.485C116.444 115.694 116.177 115.896 115.897 116.086C115.842 116.124 115.781 116.162 115.727 116.2C115.046 116.648 114.322 117.027 113.568 117.324C112.443 117.767 111.252 118.045 110.048 118.133L109.592 118.178C109.446 118.19 109.294 118.184 109.142 118.184C108.844 118.184 108.54 118.19 108.236 118.178L107.336 118.083C107.184 118.077 107.038 118.045 106.892 118.013L106.449 117.919C106.108 117.849 105.768 117.754 105.439 117.659C105.403 117.647 105.366 117.634 105.336 117.622C105.275 117.609 105.22 117.59 105.166 117.565C105.147 117.622 105.135 117.678 105.123 117.735C105.147 117.742 105.166 117.748 105.184 117.754C105.22 117.767 105.251 117.78 105.281 117.786C105.652 117.906 106.029 118.007 106.412 118.089L106.862 118.184C107.014 118.216 107.16 118.247 107.318 118.26L108.23 118.355C108.534 118.367 108.838 118.361 109.148 118.367C109.3 118.361 109.452 118.374 109.604 118.361L110.06 118.31C111.282 118.228 112.486 117.95 113.635 117.501C114.432 117.192 115.198 116.787 115.909 116.307C115.97 116.269 116.031 116.231 116.085 116.193C116.341 116.016 116.584 115.833 116.821 115.643C117.788 114.86 118.663 113.969 119.478 113.027C119.746 112.717 120.013 112.401 120.281 112.085C120.311 112.047 120.347 112.003 120.384 111.965C120.499 111.826 120.615 111.681 120.737 111.542C120.688 111.497 120.633 111.453 120.578 111.409C120.445 111.561 120.317 111.719 120.189 111.87ZM117.684 116.996C117.137 116.756 116.608 116.484 116.085 116.193C116.025 116.162 115.964 116.124 115.897 116.086C114.359 115.207 112.912 114.146 111.489 113.077C111.465 113.058 111.44 113.04 111.416 113.021C111.379 112.995 111.343 112.97 111.306 112.938C110.571 112.389 109.841 111.832 109.087 111.302C109.039 111.333 108.99 111.365 108.947 111.403C109.689 111.934 110.419 112.483 111.154 113.033C111.191 113.065 111.221 113.09 111.258 113.115C111.3 113.147 111.349 113.185 111.392 113.216C112.79 114.272 114.213 115.321 115.727 116.2C115.787 116.237 115.848 116.275 115.909 116.307C116.462 116.623 117.028 116.907 117.611 117.166C118.736 117.666 119.922 118.032 121.132 118.209C122.348 118.386 123.588 118.355 124.792 118.14C125.376 118.032 125.959 117.893 126.531 117.716C126.482 117.659 126.434 117.603 126.391 117.546C123.539 118.418 120.408 118.298 117.684 116.996ZM122.433 113.122C121.77 112.692 121.089 112.294 120.384 111.965C120.317 111.927 120.256 111.902 120.189 111.87C120.019 111.794 119.849 111.725 119.679 111.655C118.536 111.219 117.295 110.967 116.067 111.131C115.915 111.15 115.763 111.169 115.611 111.194L115.167 111.289L114.942 111.339L114.717 111.403L114.28 111.535C113.702 111.731 113.124 111.952 112.577 112.237C112.139 112.452 111.72 112.686 111.306 112.938C111.252 112.97 111.203 113.002 111.154 113.033C110.571 113.4 110.011 113.798 109.458 114.209C108.473 114.954 107.531 115.751 106.594 116.553C106.175 116.914 105.755 117.268 105.336 117.622C105.287 117.666 105.239 117.71 105.184 117.754C105.154 117.773 105.129 117.798 105.099 117.824C105.087 117.868 105.074 117.912 105.068 117.963C105.141 117.906 105.214 117.849 105.281 117.786C105.336 117.748 105.391 117.704 105.439 117.659C105.853 117.318 106.254 116.977 106.661 116.636C107.604 115.846 108.546 115.043 109.531 114.31C110.09 113.893 110.668 113.488 111.258 113.115C111.313 113.09 111.367 113.052 111.416 113.021C111.811 112.78 112.218 112.559 112.632 112.357C113.173 112.079 113.745 111.864 114.316 111.668L114.754 111.542L114.973 111.478L115.198 111.428L115.635 111.333C115.787 111.308 115.933 111.295 116.085 111.27C117.283 111.112 118.499 111.365 119.624 111.801C119.782 111.864 119.934 111.927 120.086 111.997C120.153 112.022 120.22 112.054 120.281 112.085C121.168 112.496 122.007 113.021 122.822 113.57C122.883 113.608 122.938 113.653 122.998 113.697C122.81 113.495 122.621 113.299 122.433 113.122ZM131.073 153.285C129.966 152.754 128.799 152.35 127.589 152.135C126.379 151.92 125.138 151.908 123.929 152.084C122.719 152.261 121.521 152.577 120.39 153.064C119.259 153.557 118.201 154.227 117.241 155.011C115.654 156.306 114.365 157.918 113.058 159.485C113.021 159.529 112.991 159.567 112.954 159.605C112.705 159.909 112.456 160.206 112.2 160.496C111.392 161.432 110.528 162.323 109.58 163.094C109.318 163.309 109.045 163.511 108.765 163.694C108.71 163.739 108.656 163.77 108.601 163.808C108.54 163.852 108.479 163.89 108.418 163.928C108.437 163.998 108.455 164.061 108.473 164.124C108.583 164.055 108.686 163.985 108.789 163.916C108.844 163.878 108.899 163.84 108.954 163.802C109.209 163.631 109.458 163.448 109.695 163.252C110.662 162.475 111.531 161.577 112.352 160.635C112.62 160.326 112.887 160.01 113.155 159.694C113.185 159.656 113.222 159.618 113.252 159.574C114.553 158.025 115.83 156.458 117.374 155.194C121.12 152.034 126.634 151.2 131 153.462C131.109 153.513 131.212 153.563 131.316 153.627C131.37 153.582 131.425 153.538 131.48 153.494C131.346 153.418 131.206 153.348 131.073 153.285ZM110.559 164.604C110.011 164.364 109.476 164.092 108.954 163.802C108.893 163.77 108.832 163.732 108.765 163.694C108.607 163.606 108.443 163.511 108.285 163.41C108.303 163.492 108.327 163.574 108.352 163.656C108.431 163.713 108.516 163.764 108.601 163.808C108.662 163.852 108.729 163.884 108.789 163.916C109.343 164.238 109.908 164.522 110.486 164.781C111.61 165.281 112.796 165.647 114.006 165.818C114.65 165.913 115.307 165.951 115.958 165.925C116.055 165.849 116.152 165.774 116.25 165.698C114.304 165.805 112.346 165.458 110.559 164.604ZM118.767 163.22C117.782 162.481 116.797 161.735 115.775 161.046C114.967 160.503 114.134 159.984 113.252 159.574C113.191 159.542 113.124 159.51 113.058 159.485C112.887 159.409 112.717 159.34 112.547 159.27C111.404 158.828 110.17 158.575 108.941 158.739C108.789 158.765 108.637 158.777 108.485 158.803L108.042 158.904L107.817 158.954L107.592 159.018L107.239 159.119C107.251 159.163 107.257 159.207 107.269 159.251L107.628 159.15L107.847 159.087L108.066 159.036L108.51 158.942C108.662 158.916 108.808 158.904 108.96 158.885C110.157 158.72 111.373 158.98 112.498 159.409C112.65 159.473 112.802 159.536 112.954 159.605C113.021 159.631 113.088 159.662 113.155 159.694C114.042 160.105 114.882 160.629 115.69 161.179C116.706 161.868 117.684 162.62 118.669 163.359C118.761 163.429 118.846 163.492 118.937 163.562C118.979 163.524 119.022 163.486 119.071 163.448C118.967 163.372 118.87 163.296 118.767 163.22Z" fill="white"/>
<path d="M106.339 123.672C92.8337 125.322 70.9359 124.692 69.0919 118.29C67.3013 112.073 75.9884 97.17 79.5519 92.8876C80.6092 91.6173 82.218 95.2178 86.0624 99.5798C87.8827 101.646 95.8505 104.97 93.9895 106.309C92.9315 107.07 88.3162 111.144 89.5571 112.125C90.26 112.681 96.7972 113.898 105.859 115.994C116.76 118.516 110.202 123.2 106.339 123.672Z" fill="#D3766A"/>
<path d="M107.811 115.431C110.167 115.146 112.543 117.404 113.532 122.335C114.522 127.266 111.254 137.678 108.268 137.448C104.185 137.133 104.798 126 105.38 121.871C105.937 117.917 106.775 115.556 107.811 115.431Z" fill="#D3766A"/>
<path d="M117.523 116.334C115.925 117.193 111.123 115.652 108.611 113.615C108.44 113.474 107.91 111.426 107.152 108.969C106.686 107.48 106.134 105.833 105.526 104.368L115.292 102.636C115.292 102.636 115.698 106.096 116.773 108.643C116.865 108.855 116.968 109.045 117.083 109.217C117.098 109.244 117.119 109.273 117.137 109.311C117.791 110.373 120.027 114.987 117.523 116.334Z" fill="#D3766A"/>
<path d="M107.017 108.543C109.95 110.514 113.815 111.993 117.446 109.855C117.322 109.623 117.221 109.438 117.139 109.309C117.12 109.277 117.095 109.246 117.085 109.218C116.966 109.047 116.863 108.855 116.776 108.641C115.699 106.094 115.29 102.636 115.29 102.636L105.526 104.37C106.081 105.69 106.582 107.171 107.017 108.543Z" fill="#263238"/>
<path d="M99.2621 94.6698C99.6652 98.3556 105.244 107.013 108.346 108.105C112.843 109.689 118.251 107.595 119.051 102.44C119.826 97.4437 112.365 86.2945 109.081 85.5115C104.246 84.3581 98.6669 89.2251 99.2621 94.6698Z" fill="#D3766A"/>
<path d="M110.055 95.9838C110.036 95.9655 110.032 96.0432 110.049 96.066C110.463 96.6202 110.848 97.3281 110.486 97.8899C110.475 97.9076 110.496 97.9348 110.513 97.9183C111.054 97.3742 110.534 96.4401 110.055 95.9838Z" fill="#263238"/>
<path d="M109.153 95.76C108.227 96.3547 109.439 98.2375 110.297 97.6864C111.143 97.1441 109.93 95.2614 109.153 95.76Z" fill="#263238"/>
<path d="M113.297 93.5562C113.287 93.5309 113.359 93.5531 113.373 93.5777C113.731 94.1731 114.237 94.7931 114.87 94.6338C114.889 94.6287 114.907 94.6591 114.886 94.6692C114.208 95.0092 113.544 94.18 113.297 93.5562Z" fill="#263238"/>
<path d="M113.406 92.5982C114.263 91.8992 115.545 93.7313 114.751 94.3791C113.971 95.0168 112.688 93.1846 113.406 92.5982Z" fill="#263238"/>
<path d="M107.959 95.5533C108.252 95.4611 108.506 95.3246 108.787 95.202C109.104 95.0635 109.37 94.9871 109.567 94.6761C109.673 94.5093 109.612 94.2224 109.465 94.1004C109.125 93.8166 108.696 93.8861 108.309 94.0366C107.888 94.1996 107.605 94.4379 107.378 94.8398C107.159 95.2291 107.572 95.6753 107.959 95.5533Z" fill="#263238"/>
<path d="M113.565 91.4264C113.286 91.5585 113.008 91.6324 112.719 91.7329C112.394 91.8467 112.146 91.9725 111.801 91.8751C111.615 91.8227 111.478 91.5661 111.51 91.374C111.584 90.9271 111.95 90.6844 112.336 90.5302C112.756 90.3634 113.12 90.3457 113.546 90.4917C113.958 90.6326 113.932 91.252 113.565 91.4264Z" fill="#263238"/>
<path d="M113.023 101.758C113.245 101.801 113.5 101.896 113.715 101.772C113.921 101.653 114.092 101.403 114.224 101.206C114.237 101.186 114.268 101.193 114.268 101.219C114.266 101.544 114.05 101.897 113.76 102.031C113.476 102.162 113.203 102.021 112.986 101.822C112.955 101.794 112.99 101.752 113.023 101.758Z" fill="#263238"/>
<path d="M112.488 99.602C113.128 99.8895 113.767 99.8453 114.332 99.5982C114.585 99.4895 114.824 99.3346 115.04 99.1526C115.084 99.1204 115.126 99.0831 115.161 99.0458C115.199 99.0123 115.232 98.9813 115.272 98.9409C115.331 98.8853 115.331 98.8044 115.3 98.7323L115.297 98.7279C115.283 98.7071 115.272 98.69 115.253 98.6717C115.253 98.6717 115.253 98.6717 115.251 98.6672L115.217 98.6167C114.94 98.1591 114.458 97.5056 114.458 97.5056C114.669 97.4778 115.716 97.2945 115.552 97.0689C114.19 95.2045 112.675 93.1309 110.941 91.5743C110.886 91.5199 110.802 91.6002 110.848 91.6603C112.089 93.5063 113.633 95.1129 114.908 96.9463C114.586 97.0234 114.046 97.1271 113.823 97.2888C113.773 97.3502 114.775 98.5352 114.884 98.7507C114.884 98.7507 114.89 98.7589 114.894 98.7747C114.23 99.3763 113.536 99.5287 112.505 99.5122C112.443 99.5084 112.424 99.5786 112.488 99.602Z" fill="#263238"/>
<path d="M114.639 99.1027C114.639 99.1027 114.601 99.9066 114.202 100.465C114.055 100.672 113.865 100.845 113.609 100.936C113.081 101.126 112.795 100.706 112.642 100.283C112.515 99.9356 112.482 99.583 112.482 99.583C112.482 99.583 113.546 99.7644 114.639 99.1027Z" fill="#263238"/>
<path d="M114.202 100.465C114.055 100.672 113.865 100.845 113.608 100.936C113.081 101.126 112.795 100.706 112.642 100.283C113.155 99.9994 113.848 100.008 114.202 100.465Z" fill="#FF99BA"/>
<path d="M112.211 87.3317C110.545 91.3594 104.595 90.8336 104.595 90.8336C105.101 93.8463 102.631 95.0693 102.631 95.0693C102.631 95.0693 105.199 100.623 103.882 101.475C101.874 102.776 96.9658 96.1272 96.753 94.3267C96.5396 92.5261 98.0206 91.0561 98.0206 91.0561C98.0206 91.0561 97.4911 89.8989 98.1295 88.1052C98.8342 86.1214 104.436 84.4877 104.436 84.4877C104.436 84.4877 104.205 83.3633 104.613 82.0014C104.874 81.14 105.679 80.7507 106.496 81.0016C106.474 81.4926 106.564 82.0361 106.792 82.5929C107.477 84.2627 108.667 83.4784 107.821 82.112C107.444 81.504 106.967 81.1463 106.496 81.0016C106.538 79.718 107.319 78.7959 108.194 78.8938C109.78 79.0727 113.598 83.984 112.211 87.3317Z" fill="#263238"/>
<path d="M104.395 101.461C104.395 101.461 101.04 99.413 100.055 100.79C99.0709 102.168 102.519 105.811 104.328 105.673C106.135 105.535 106.046 103.793 106.046 103.793L104.395 101.461Z" fill="#D3766A"/>
<path d="M101.069 101.809C101.043 101.818 101.054 101.857 101.08 101.856C102.363 101.796 103.393 102.569 104.269 103.461C103.764 103.198 103.225 103.178 102.863 103.832C102.844 103.866 102.892 103.9 102.919 103.878C103.319 103.568 103.674 103.496 104.137 103.723C104.464 103.883 104.754 104.145 105.04 104.374C105.134 104.451 105.286 104.314 105.198 104.216C105.192 104.209 105.184 104.201 105.178 104.193C104.573 102.746 102.615 101.248 101.069 101.809Z" fill="#263238"/>
<path d="M112.045 87.6907C112.466 87.9656 112.813 88.3189 113.136 88.693C113.45 89.0754 113.74 89.4856 113.933 89.9608C113.738 89.7997 113.568 89.6233 113.398 89.447C113.224 89.2732 113.067 89.0855 112.907 88.9009C112.597 88.5217 112.295 88.1356 112.045 87.6907Z" fill="#263238"/>
<path d="M104.443 94.1465C104.443 95.0225 103.195 97.9227 104.583 97.9227C105.468 97.9227 104.879 96.0413 104.693 95.4339C104.468 94.6958 104.443 94.1465 104.443 94.1465Z" fill="#EBEBEB"/>
<path d="M105.498 92.059C105.498 92.648 104.773 94.5978 105.579 94.5978C106.093 94.5978 105.751 93.3325 105.643 92.9249C105.512 92.4281 105.498 92.059 105.498 92.059Z" fill="#EBEBEB"/>
<path d="M261.539 189.618C261.539 195.793 257.81 200.811 253.181 200.869H204.737V178.367H253.181C257.81 178.424 261.539 183.442 261.539 189.618Z" fill="#37474F"/>
<path d="M204.734 200.868C209.395 200.868 213.173 195.831 213.173 189.618C213.173 183.405 209.395 178.369 204.734 178.369C200.073 178.369 196.294 183.405 196.294 189.618C196.294 195.831 200.073 200.868 204.734 200.868Z" fill="#263238"/>
<path d="M204.733 195.509C207.174 195.509 209.152 192.872 209.152 189.619C209.152 186.366 207.174 183.729 204.733 183.729C202.293 183.729 200.314 186.366 200.314 189.619C200.314 192.872 202.293 195.509 204.733 195.509Z" fill="#C7C7C7"/>
<path d="M93.5148 224.375H89.0503V229.712H93.5148V224.375Z" fill="#DBDBDB"/>
<path d="M94.9219 227.983H87.6436V234.078H94.9219V227.983Z" fill="#C7C7C7"/>
<path d="M99.9341 241.622C99.9341 247.142 99.9341 269.513 99.9341 269.513H82.6304C82.6304 269.513 82.6304 247.142 82.6304 241.622C82.6304 236.103 85.9689 231.842 91.2786 231.842C96.5955 231.841 99.9341 236.102 99.9341 241.622Z" fill="#FFC727"/>
<path d="M99.9345 246.535H82.6309V251.264H99.9345V246.535Z" fill="#455A64"/>
<path d="M99.9345 253.462H82.6309V255.826H99.9345V253.462Z" fill="#455A64"/>
</svg>
