<svg width="194" height="189" viewBox="0 0 194 189" fill="none" xmlns="http://www.w3.org/2000/svg">
<path d="M120.348 15.6783V97.9538H165.152V15.6783H120.348ZM163.498 96.3431H122.001V17.289H163.498V96.3431Z" fill="#EBEBEB"/>
<path d="M163.498 17.289H122.001V96.3428H163.498V17.289Z" fill="white"/>
<path d="M122 65.1802H163.497V63.5699L122 63.5699V65.1802Z" fill="#EBEBEB"/>
<path d="M117.302 102.575H168.194V97.9534H117.302V102.575Z" fill="#DBDBDB"/>
<path d="M122 17.2875H163.498V73.772H122V17.2875ZM161.967 18.7787H123.531V72.2804H161.967V18.7787Z" fill="#DBDBDB"/>
<path d="M150.253 17.2875H149.427V72.2804H150.253V17.2875Z" fill="#DBDBDB"/>
<path d="M136.07 17.2875H135.244V72.2804H136.07V17.2875Z" fill="#DBDBDB"/>
<path d="M28.8508 15.6783V97.9538H73.6547V15.6783H28.8508ZM72.0011 96.3431H30.5041V17.289H72.0011V96.3431Z" fill="#EBEBEB"/>
<path d="M72.0011 17.289H30.5042V96.3428H72.0011V17.289Z" fill="white"/>
<path d="M30.5026 65.1802H72V63.5699L30.5026 63.5699V65.1802Z" fill="#EBEBEB"/>
<path d="M25.8052 102.575H76.6973V97.9534H25.8052V102.575Z" fill="#DBDBDB"/>
<path d="M30.5027 17.2875H72.0004V73.772H30.5027V17.2875ZM70.4694 18.7787H32.0333V72.2804H70.469L70.4694 18.7787Z" fill="#DBDBDB"/>
<path d="M58.7561 17.2875H57.9297V72.2804H58.7561V17.2875Z" fill="#DBDBDB"/>
<path d="M44.573 17.2875H43.7466V72.2804H44.573V17.2875Z" fill="#DBDBDB"/>
<path d="M21.4941 147.611C21.4941 150.103 21.7906 152.531 22.3547 154.855C22.4696 155.34 22.5988 155.82 22.7419 156.295C26.6057 169.47 39.0628 179.108 53.8293 179.108C54.738 179.108 55.637 179.071 56.5263 178.996C56.995 178.964 57.4586 178.917 57.918 178.861C66.3628 177.823 73.7938 173.606 78.9108 167.485C79.0159 167.364 79.1164 167.238 79.2169 167.112C81.4692 164.335 83.2482 161.181 84.4436 157.762C84.477 157.664 84.5108 157.566 84.5441 157.463C85.596 154.365 86.1606 151.053 86.1606 147.611C86.1606 130.215 71.6858 116.113 53.8301 116.113C45.036 116.113 37.0692 119.533 31.2403 125.072C31.1542 125.151 31.0731 125.23 30.9916 125.31C28.7633 127.476 26.8602 129.959 25.3536 132.68C25.2628 132.842 25.1766 133.001 25.0905 133.164C22.7897 137.492 21.4941 142.402 21.4941 147.611Z" fill="#EBEBEB"/>
<path opacity="0.05" d="M21.4937 147.611C21.4937 150.102 21.7893 152.532 22.3558 154.857C22.4683 155.339 22.5975 155.818 22.743 156.293C26.6079 169.471 39.0642 179.107 53.828 179.107C54.7359 179.107 55.6353 179.071 56.5266 178.998C56.9929 178.965 57.4593 178.916 57.9175 178.86C66.3635 177.821 73.7933 173.606 78.9114 167.483C79.0154 167.366 79.1155 167.24 79.2152 167.114C81.4684 164.334 83.2466 161.182 84.442 157.762C84.4754 157.664 84.5087 157.567 84.5421 157.465C85.5959 154.365 86.1581 151.055 86.1581 147.61C86.1581 146.279 86.0747 144.969 85.9082 143.683C85.9626 147.095 85.3084 150.54 83.8635 153.834C82.6976 156.5 81.1025 158.869 79.1699 160.902C79.1074 160.971 79.0492 161.036 78.9867 161.101C76.8294 163.332 74.2721 165.158 71.4487 166.525C71.3237 166.586 71.1988 166.651 71.0696 166.708C64.7184 169.67 57.0845 170.356 49.6842 168.229C49.2803 168.112 48.8802 167.986 48.4763 167.852C47.71 167.6 46.948 167.316 46.1856 167C33.8623 161.875 26.7324 150.085 27.9818 138.542C28.019 138.124 28.0776 137.706 28.1444 137.292C28.4648 135.296 29.0399 133.312 29.8853 131.385C31.6511 127.348 34.3997 123.996 37.79 121.445C37.915 121.347 38.0442 121.254 38.173 121.161C40.3551 119.578 42.7875 118.317 45.382 117.412C45.4736 117.379 45.5694 117.343 45.6695 117.314C46.4902 117.038 47.3228 116.799 48.1683 116.596C41.6421 117.716 35.7907 120.751 31.239 125.072C31.1517 125.153 31.0726 125.23 30.9892 125.311C28.7613 127.478 26.8578 129.961 25.3546 132.679C25.2631 132.841 25.1754 133 25.0924 133.166C22.7888 137.491 21.4937 142.401 21.4937 147.611Z" fill="black"/>
<path opacity="0.4" d="M75.379 140.068C78.6749 134.507 75.5195 126.721 68.3314 122.677C61.1433 118.634 52.6443 119.865 49.3485 125.426C46.0527 130.987 49.208 138.773 56.3961 142.816C63.5843 146.86 72.0832 145.629 75.379 140.068Z" fill="white"/>
<g opacity="0.1">
<path d="M30.9907 125.31C31.1149 126.451 31.2918 127.583 31.5262 128.706C34.1467 141.312 43.5289 151.314 55.5841 156.196C64.1391 159.662 75.4482 161.191 84.4432 157.762C84.4765 157.664 84.5103 157.566 84.5436 157.463C80.5267 158.973 76.0748 159.518 71.7618 159.378C59.2616 158.982 46.733 153.438 38.9292 143.781C34.5824 138.405 31.9239 131.822 31.2398 125.072C31.1533 125.151 31.0722 125.23 30.9907 125.31Z" fill="black"/>
<path d="M25.0901 133.164C25.1809 134.958 25.4152 136.751 25.7834 138.517C28.4087 151.119 37.7862 161.126 49.8414 166.008C58.4682 169.502 69.8874 171.025 78.9107 167.485C79.0159 167.364 79.1164 167.238 79.2169 167.112C75.0901 168.743 70.4803 169.329 66.0237 169.19C53.5189 168.789 40.995 163.245 33.1861 153.592C28.366 147.629 25.6259 140.189 25.3532 132.68C25.262 132.843 25.1758 133.001 25.0901 133.164Z" fill="black"/>
<path d="M22.3547 154.855C22.4696 155.339 22.5988 155.819 22.742 156.294C26.9549 165.109 34.7207 172.013 44.1029 175.814C47.8568 177.333 52.1415 178.484 56.5263 178.996C56.995 178.964 57.4586 178.917 57.918 178.861C46.2167 177.888 34.7591 172.446 27.4476 163.399C25.3435 160.795 23.6316 157.906 22.3547 154.855Z" fill="black"/>
</g>
<path d="M18.844 179.108C68.9154 178.877 125.084 178.875 175.156 179.108C125.084 179.341 68.9154 179.339 18.844 179.108Z" fill="#263238"/>
<path opacity="0.5" d="M110.964 26.1757H100.876V39.5218H110.964V26.1757Z" fill="#FFC727"/>
<path opacity="0.5" d="M165.191 76.735V66.907H151.492V76.735H165.191Z" fill="#FFC727"/>
<path opacity="0.5" d="M94.877 121.754V111.926H81.1778V121.754H94.877Z" fill="#FFC727"/>
<path opacity="0.5" d="M113.198 36.6131H107.226V42.4313H113.198V36.6131Z" fill="#FFC727"/>
<path opacity="0.5" d="M154.478 73.8257H148.506V79.6438H154.478V73.8257Z" fill="#FFC727"/>
<path opacity="0.5" d="M34.7807 89.865H28.8086V95.6831H34.7807V89.865Z" fill="#FFC727"/>
<path opacity="0.5" d="M162.457 55.112H156.485V60.9302H162.457V55.112Z" fill="#FFC727"/>
<path opacity="0.5" d="M94.861 60.6611H88.8889V66.4792H94.861V60.6611Z" fill="#FFC727"/>
<path opacity="0.5" d="M54.0678 85.7727H48.0957V91.5909H54.0678V85.7727Z" fill="#FFC727"/>
<path opacity="0.5" d="M115.095 82.675H111.247V86.4237H115.095V82.675Z" fill="#FFC727"/>
<path opacity="0.5" d="M98.5307 126.35H94.6829V130.099H98.5307V126.35Z" fill="#FFC727"/>
<path opacity="0.5" d="M83.1015 110.052H79.2537V113.8H83.1015V110.052Z" fill="#FFC727"/>
<path opacity="0.5" d="M161.256 90.7514H157.408V94.5H161.256V90.7514Z" fill="#FFC727"/>
<path opacity="0.5" d="M91.8749 22.4275H88.0271V26.1761H91.8749V22.4275Z" fill="#FFC727"/>
<path opacity="0.5" d="M48.9777 41.0308H45.1299V44.7794H48.9777V41.0308Z" fill="#FFC727"/>
<path opacity="0.5" d="M122.377 88.6818H116.405V101.161H122.377V88.6818Z" fill="#FFC727"/>
<path opacity="0.5" d="M37.6569 92.7741H31.6848V105.254H37.6569V92.7741Z" fill="#FFC727"/>
<path d="M149.748 133.997C149.739 129.898 149.81 125.803 150.036 121.709C150.149 119.67 150.287 117.632 150.483 115.599C150.675 113.607 150.931 111.613 151.404 109.664C151.765 108.172 152.262 106.668 153.214 105.426C154.153 104.201 155.587 103.395 157.191 103.515C159.039 103.652 160.573 104.712 161.912 105.88C163.414 107.189 164.801 108.63 166.201 110.04C166.555 110.397 166.907 110.756 167.256 111.118C167.287 111.15 167.238 111.2 167.207 111.168C165.837 109.772 164.418 108.419 162.94 107.132C161.574 105.942 160.162 104.638 158.328 104.204C157.479 104.003 156.567 103.978 155.733 104.263C155.06 104.492 154.482 104.916 154.015 105.436C153.046 106.514 152.541 107.938 152.199 109.31C151.251 113.121 151.035 117.082 150.803 120.984C150.566 124.948 150.468 128.917 150.455 132.887C150.441 136.879 151.047 152.848 150.845 156.837C150.819 157.329 150.777 157.82 150.737 158.312C150.71 158.642 150.186 158.667 150.198 158.323C150.334 154.206 149.757 138.117 149.748 133.997Z" fill="#263238"/>
<path d="M162.164 106.312C162.164 106.312 159.559 102.099 162.325 100.583C165.092 99.0677 175.069 108.947 178.562 123.899C178.562 123.899 162.931 117.995 157.415 111.654C151.899 105.313 157.725 103.597 162.164 106.312Z" fill="#FFC727"/>
<path d="M160.081 109.931C161.802 109.856 163.513 109.647 165.235 109.581C164.895 109.235 164.556 108.888 164.213 108.545C163.739 108.071 163.202 107.614 162.795 107.084C162.769 107.05 162.818 106.998 162.854 107.023C163.349 107.366 163.781 107.825 164.217 108.237C164.67 108.663 165.121 109.091 165.569 109.522C166.26 110.185 166.938 110.861 167.616 111.538C167.614 111.469 167.612 111.4 167.608 111.334C167.592 111.041 167.581 110.747 167.564 110.453C167.533 109.885 167.497 109.316 167.464 108.748C167.397 107.596 167.345 106.437 167.207 105.29C167.202 105.246 167.273 105.245 167.278 105.289C167.416 106.441 167.594 107.587 167.708 108.743C167.765 109.31 167.806 109.879 167.84 110.447C167.858 110.741 167.877 111.034 167.888 111.328C167.895 111.488 167.909 111.657 167.905 111.822C168.01 111.928 168.12 112.031 168.225 112.137C169.672 113.604 171.054 115.126 172.402 116.678C172.4 116.589 172.408 116.497 172.412 116.41C172.421 116.231 172.434 116.053 172.446 115.875C172.472 115.488 172.509 115.103 172.549 114.717C172.587 114.355 172.628 113.993 172.673 113.631C172.724 113.226 172.805 112.812 172.817 112.403C172.819 112.354 172.895 112.361 172.887 112.411C172.818 112.814 172.822 113.237 172.802 113.645C172.784 114.016 172.766 114.386 172.75 114.757C172.734 115.128 172.717 115.498 172.696 115.869C172.686 116.048 172.678 116.226 172.667 116.404C172.661 116.493 172.654 116.582 172.646 116.672C172.635 116.79 172.618 116.805 172.583 116.886C172.814 117.154 173.048 117.42 173.278 117.689C174.2 118.769 175.106 119.863 176.013 120.955C176.042 120.989 175.994 121.039 175.964 121.005C175.108 120.015 174.229 119.046 173.339 118.086C172.71 118.141 172.065 118.125 171.434 118.144C170.77 118.163 170.105 118.19 169.441 118.218C169.395 118.22 169.393 118.151 169.439 118.149C170.104 118.13 170.768 118.11 171.433 118.082C172.038 118.057 172.654 118 173.262 118.004C172.479 117.16 171.689 116.324 170.897 115.488C170.609 115.184 170.318 114.881 170.029 114.576C169.782 114.638 169.514 114.625 169.261 114.636C168.959 114.649 168.657 114.663 168.355 114.676C167.79 114.7 167.223 114.713 166.657 114.731C165.487 114.766 164.316 114.782 163.147 114.832C163.101 114.834 163.1 114.766 163.145 114.763C164.315 114.696 165.483 114.593 166.652 114.511C167.217 114.472 167.783 114.427 168.349 114.395C168.651 114.377 168.952 114.361 169.254 114.343C169.426 114.333 169.602 114.314 169.777 114.312C169.098 113.598 168.421 112.884 167.74 112.172C167.725 112.164 167.712 112.151 167.703 112.133C167.04 111.441 166.378 110.748 165.709 110.062C165.618 109.967 165.525 109.875 165.433 109.781C163.651 109.917 161.863 109.884 160.081 109.999C160.037 110.003 160.035 109.933 160.081 109.931Z" fill="#263238"/>
<path d="M161.104 112.856C161.243 112.85 161.382 112.846 161.521 112.84C161.562 112.839 161.563 112.901 161.522 112.903C161.383 112.91 161.245 112.918 161.105 112.925C161.06 112.928 161.058 112.857 161.104 112.856Z" fill="#263238"/>
<path d="M162.031 112.818C162.582 112.786 163.133 112.749 163.684 112.709C163.959 112.689 164.234 112.667 164.509 112.646C164.755 112.626 165.035 112.576 165.279 112.619C165.306 112.624 165.303 112.661 165.28 112.669C165.045 112.75 164.759 112.742 164.512 112.758C164.237 112.775 163.961 112.791 163.686 112.807C163.135 112.838 162.584 112.864 162.033 112.887C161.987 112.889 161.985 112.821 162.031 112.818Z" fill="#263238"/>
<path d="M167.087 117.634C168.2 117.43 169.325 117.223 170.46 117.182C170.476 117.181 170.475 117.204 170.46 117.206C169.34 117.362 168.216 117.472 167.107 117.7C167.063 117.71 167.042 117.642 167.087 117.634Z" fill="#263238"/>
<path d="M171.46 112.624C171.467 112.528 171.473 112.432 171.482 112.335C171.5 112.118 171.525 111.901 171.549 111.685C171.596 111.272 171.65 110.86 171.71 110.449C171.715 110.411 171.783 110.418 171.78 110.457C171.747 110.88 171.721 111.305 171.701 111.729C171.691 111.938 171.685 112.147 171.676 112.355C171.667 112.543 171.695 112.775 171.618 112.95C171.588 113.016 171.488 112.994 171.468 112.934C171.435 112.833 171.453 112.729 171.46 112.624Z" fill="#263238"/>
<path d="M142.567 113.6C144.358 112.096 146.665 110.288 149.196 111.143C151.578 111.947 152.336 114.584 152.629 116.759C153.007 119.563 153.258 122.386 153.526 125.201C153.796 128.044 153.986 152.127 154.047 152.93C154.107 153.718 154.19 154.507 154.182 155.298C154.179 155.55 153.772 155.561 153.732 155.318C153.507 153.97 153.337 129.717 153.098 127C152.859 124.282 152.605 121.565 152.341 118.848C152.117 116.545 152.127 113.701 150.151 112.068C149.067 111.172 147.616 111.072 146.294 111.471C144.895 111.893 143.742 112.778 142.612 113.653C142.576 113.681 142.532 113.629 142.567 113.6Z" fill="#263238"/>
<path d="M144.49 112.145C144.49 112.145 147.937 110.916 149.654 113.363C151.371 115.809 149.368 122.063 133.666 125.667C133.666 125.667 134.041 118.98 137.373 111.802C140.705 104.624 146.725 107.305 144.49 112.145Z" fill="#FFC727"/>
<path opacity="0.1" d="M144.49 112.145C144.49 112.145 147.937 110.916 149.654 113.363C151.371 115.809 149.368 122.063 133.666 125.667C133.666 125.667 134.041 118.98 137.373 111.802C140.705 104.624 146.725 107.305 144.49 112.145Z" fill="black"/>
<path d="M134.564 124.641C134.777 124.206 135.081 123.8 135.348 123.394C135.608 122.998 135.872 122.604 136.139 122.212C136.339 121.917 136.544 121.624 136.749 121.332C136.734 121.261 136.729 121.187 136.719 121.113C136.7 120.98 136.681 120.848 136.663 120.715C136.623 120.428 136.578 120.142 136.533 119.856C136.488 119.57 136.438 119.285 136.38 119.002C136.321 118.712 136.29 118.371 136.169 118.1C136.149 118.056 136.232 118.033 136.238 118.086C136.258 118.256 136.333 118.428 136.381 118.592C136.418 118.721 136.454 118.85 136.489 118.979C136.567 119.268 136.641 119.56 136.71 119.852C136.773 120.122 136.827 120.392 136.876 120.664C136.899 120.795 136.92 120.926 136.939 121.057C137.216 120.666 137.5 120.279 137.793 119.899C138.622 118.823 139.499 117.788 140.408 116.777C140.404 116.768 140.394 116.762 140.394 116.75C140.303 115.141 140.334 113.548 139.96 111.966C139.95 111.924 140.016 111.899 140.026 111.942C140.378 113.426 140.729 114.983 140.639 116.518C140.964 116.159 141.294 115.804 141.627 115.451C142.388 114.645 143.164 113.851 143.957 113.075C143.989 113.043 144.04 113.089 144.009 113.121C142.692 114.517 141.441 115.971 140.223 117.451C141.178 117.415 142.148 117.476 143.098 117.539C144.164 117.611 145.224 117.738 146.283 117.876C146.328 117.882 146.315 117.95 146.27 117.944C145.217 117.795 144.153 117.72 143.09 117.682C142.064 117.646 141.044 117.696 140.019 117.699C139.361 118.502 138.71 119.31 138.07 120.127C138.116 120.125 138.164 120.125 138.216 120.123C138.456 120.118 138.697 120.113 138.938 120.116C139.416 120.121 139.895 120.151 140.371 120.189C141.347 120.265 142.319 120.393 143.276 120.597C143.321 120.606 143.308 120.669 143.263 120.665C142.297 120.563 141.328 120.48 140.356 120.452C139.892 120.438 139.429 120.441 138.965 120.443C138.724 120.444 138.483 120.444 138.242 120.449C138.098 120.452 137.966 120.468 137.845 120.415C137.425 120.952 137.005 121.489 136.589 122.028C136.258 122.458 135.931 122.891 135.61 123.328C135.283 123.775 134.986 124.262 134.621 124.68C134.594 124.711 134.547 124.675 134.564 124.641Z" fill="#263238"/>
<path d="M143.005 115.632C143.556 115.541 144.129 115.547 144.686 115.544C145.247 115.54 145.809 115.554 146.369 115.57C146.421 115.572 146.418 115.642 146.366 115.639C145.797 115.602 145.228 115.595 144.658 115.606C144.109 115.617 143.557 115.672 143.008 115.66C142.99 115.659 142.987 115.635 143.005 115.632Z" fill="#263238"/>
<path d="M138.078 116.891C138.01 116.369 137.94 115.843 137.823 115.329C137.812 115.28 137.883 115.265 137.892 115.314C137.975 115.829 138.081 116.339 138.162 116.855C138.202 117.112 138.24 117.37 138.273 117.629C138.304 117.865 138.362 118.121 138.342 118.359C138.338 118.404 138.262 118.409 138.25 118.366C138.185 118.135 138.189 117.876 138.164 117.637C138.138 117.388 138.11 117.14 138.078 116.891Z" fill="#263238"/>
<path d="M139.08 111.09C139.221 111.598 139.36 112.113 139.459 112.631C139.51 112.893 139.552 113.157 139.59 113.422C139.627 113.674 139.675 113.94 139.647 114.195C139.645 114.216 139.612 114.217 139.607 114.198C139.529 113.962 139.513 113.706 139.478 113.461C139.442 113.207 139.401 112.953 139.354 112.7C139.256 112.167 139.156 111.638 139.014 111.113C139.002 111.071 139.068 111.047 139.08 111.09Z" fill="#263238"/>
<path d="M161.435 122.003C159.786 121.012 158.248 119.514 156.165 119.619C154.446 119.706 153.205 121.021 152.808 122.529C150.776 130.257 151.6 156.665 151.712 157.881C151.731 158.092 152.074 158.103 152.099 157.888C152.214 156.87 151.46 134.176 152.977 123.845C153.18 122.463 153.878 120.88 155.296 120.275C157.455 119.355 159.65 121.011 161.391 122.057C161.429 122.081 161.474 122.027 161.435 122.003Z" fill="#263238"/>
<path d="M159.736 121.066C159.736 121.066 157.943 117.236 159.928 116.277C162.902 114.84 171.802 122.975 171.495 136.682C171.495 136.682 164.946 133.891 159.989 130.537C155.033 127.183 153.393 122.371 155.302 120.92C157.21 119.468 159.736 121.066 159.736 121.066Z" fill="#FFC727"/>
<path d="M170.29 133.857C170.065 133.396 169.706 132.978 169.412 132.556C169.105 132.115 168.795 131.676 168.477 131.242C167.857 130.398 167.241 129.55 166.609 128.714C166.507 128.578 166.401 128.444 166.299 128.309C166.306 128.255 166.311 128.201 166.318 128.147C166.336 128.014 166.354 127.88 166.373 127.747C166.414 127.446 166.438 127.144 166.467 126.843C166.524 126.252 166.573 125.655 166.68 125.071C166.688 125.027 166.615 125.02 166.609 125.065C166.536 125.657 166.402 126.244 166.279 126.828C166.219 127.115 166.152 127.402 166.103 127.691C166.086 127.79 166.069 127.889 166.052 127.989C165.29 126.989 164.517 125.996 163.694 125.042C163.743 124.904 163.723 124.755 163.726 124.601C163.729 124.401 163.735 124.2 163.74 124C163.753 123.549 163.764 123.098 163.789 122.647C163.839 121.761 163.891 120.882 164.033 120.004C164.04 119.961 163.97 119.955 163.963 119.999C163.821 120.873 163.659 121.749 163.574 122.63C163.532 123.061 163.495 123.495 163.477 123.928C163.468 124.145 163.465 124.363 163.463 124.58C163.462 124.644 163.458 124.71 163.455 124.776C163.203 124.489 162.95 124.201 162.688 123.922C161.89 123.073 161.069 122.247 160.241 121.426C160.209 121.394 160.155 121.439 160.186 121.471C161.64 122.912 162.907 124.54 164.16 126.147C164.394 126.447 164.624 126.75 164.856 127.052C164.788 127.049 164.719 127.048 164.654 127.045C164.39 127.036 164.125 127.044 163.861 127.044C163.332 127.043 162.803 127.045 162.274 127.051C161.216 127.063 160.157 127.094 159.099 127.078C159.053 127.077 159.047 127.146 159.093 127.147C160.166 127.171 161.238 127.242 162.309 127.295C162.836 127.321 163.363 127.342 163.89 127.361C164.254 127.374 164.715 127.438 165.103 127.374C165.577 127.99 166.053 128.605 166.525 129.222C166.433 129.217 166.338 129.23 166.246 129.236C166.071 129.249 165.896 129.266 165.721 129.281C165.395 129.31 165.07 129.339 164.745 129.368C164.069 129.429 163.394 129.502 162.717 129.561C162.672 129.566 162.685 129.633 162.73 129.629C163.416 129.576 164.103 129.55 164.791 129.523C165.117 129.511 165.444 129.501 165.77 129.494C165.933 129.49 166.096 129.489 166.26 129.484C166.402 129.48 166.557 129.494 166.687 129.43C167.088 129.955 167.494 130.477 167.896 131.002C168.267 131.487 168.641 131.969 169.022 132.446C169.405 132.926 169.77 133.483 170.225 133.899C170.256 133.926 170.311 133.899 170.29 133.857Z" fill="#263238"/>
<path d="M166.291 123.157C166.282 123.595 166.204 124.039 166.133 124.472C166.06 124.921 165.969 125.368 165.863 125.812C165.849 125.873 165.936 125.892 165.949 125.831C166.047 125.391 166.131 124.948 166.198 124.503C166.265 124.058 166.293 123.608 166.362 123.163C166.368 123.119 166.291 123.112 166.291 123.157Z" fill="#263238"/>
<path d="M161.959 126.215C161.853 126.128 161.743 126.128 161.608 126.122C161.409 126.112 161.21 126.104 161.012 126.096C160.642 126.08 160.273 126.073 159.903 126.064C159.136 126.044 158.368 126.041 157.6 126.015C157.555 126.013 157.549 126.082 157.594 126.083C158.319 126.105 159.042 126.147 159.766 126.175C160.121 126.188 160.475 126.205 160.83 126.214C161.001 126.218 161.172 126.221 161.342 126.224C161.531 126.227 161.751 126.202 161.93 126.269C161.965 126.283 161.985 126.237 161.959 126.215Z" fill="#263238"/>
<path d="M167.088 131.774C166.727 131.776 166.364 131.797 166.004 131.819C165.822 131.829 165.64 131.84 165.458 131.851C165.371 131.856 165.283 131.861 165.196 131.867C165.086 131.873 164.964 131.895 164.854 131.878C164.803 131.87 164.807 131.959 164.858 131.946C164.958 131.922 165.074 131.931 165.177 131.928C165.272 131.925 165.367 131.922 165.462 131.919C165.644 131.913 165.826 131.908 166.008 131.902C166.369 131.891 166.732 131.88 167.092 131.85C167.136 131.846 167.132 131.773 167.088 131.774Z" fill="#263238"/>
<path d="M169.144 130.06C169.166 129.858 169.186 129.656 169.205 129.453C169.242 129.055 169.279 128.658 169.316 128.26C169.321 128.216 169.251 128.21 169.246 128.255C169.193 128.643 169.141 129.032 169.088 129.421C169.062 129.615 169.036 129.809 169.013 130.004C169.003 130.094 168.992 130.184 168.982 130.274C168.971 130.368 168.949 130.464 168.976 130.557C168.985 130.588 169.036 130.61 169.056 130.574C169.137 130.426 169.125 130.225 169.144 130.06Z" fill="#263238"/>
<path d="M156.612 156.037C156.525 155.073 155.957 137.155 154.791 129.76C154.655 128.893 154.5 128.007 154.192 127.18C153.927 126.468 153.49 125.824 152.725 125.567C150.875 124.945 149.627 126.813 148.88 128.135C148.858 128.175 148.917 128.204 148.942 128.168C149.389 127.543 150.625 125.784 152.028 125.866C152.973 125.922 153.728 126.573 154.181 128.867C155.31 134.582 156.328 158.167 156.447 158.926C156.51 159.328 156.802 159.31 156.804 158.879C156.81 157.931 156.697 156.982 156.612 156.037Z" fill="#263238"/>
<path d="M149.379 127.424C149.379 127.424 150.995 121.862 147.421 124.643C141.472 129.273 141.26 139.342 141.26 139.342C141.26 139.342 151.836 133.358 153.151 129.411C155.111 123.531 149.379 127.424 149.379 127.424Z" fill="#FFC727"/>
<path d="M151.381 130.154C150.551 130.319 149.709 130.426 148.871 130.543C148.474 130.599 148.077 130.653 147.681 130.706C147.413 130.742 147.141 130.767 146.872 130.799C147.659 129.742 148.454 128.689 149.209 127.61C149.238 127.568 149.172 127.525 149.138 127.559C148.51 128.182 147.929 128.855 147.371 129.546C147.216 129.115 147.058 128.686 146.902 128.255C146.722 127.757 146.529 127.262 146.399 126.749C146.388 126.706 146.319 126.726 146.331 126.769C146.475 127.279 146.578 127.799 146.718 128.31C146.853 128.803 147.007 129.291 147.186 129.771C146.799 130.261 146.427 130.763 146.066 131.27C145.884 130.768 145.658 130.281 145.499 129.771C145.486 129.728 145.417 129.748 145.431 129.791C145.621 130.355 145.723 130.943 145.9 131.51C145.658 131.855 145.415 132.201 145.183 132.55C144.756 133.193 144.353 133.848 143.96 134.507C143.898 134.541 143.859 134.59 143.867 134.662C143.199 135.788 142.563 136.931 141.936 138.084C141.914 138.123 141.976 138.157 141.998 138.118C142.626 136.979 143.324 135.871 144.05 134.782C144.053 134.78 144.056 134.782 144.058 134.78C144.135 134.739 144.309 134.734 144.404 134.715C144.526 134.691 144.648 134.664 144.769 134.638C145.043 134.58 145.314 134.511 145.585 134.446C146.122 134.316 146.653 134.193 147.197 134.101C147.242 134.094 147.222 134.027 147.177 134.035C146.537 134.154 145.895 134.224 145.247 134.297C144.942 134.332 144.637 134.37 144.334 134.417C144.321 134.419 144.305 134.421 144.29 134.423C144.67 133.86 145.055 133.301 145.446 132.749C145.831 132.206 146.225 131.669 146.622 131.135C146.988 131.084 147.352 130.991 147.716 130.923C148.125 130.847 148.535 130.769 148.943 130.69C149.762 130.532 150.577 130.354 151.401 130.221C151.445 130.213 151.426 130.145 151.381 130.154Z" fill="#263238"/>
<path d="M145.025 130.703C144.975 130.556 144.93 130.407 144.882 130.26C144.781 129.953 144.705 129.643 144.639 129.327C144.63 129.284 144.562 129.304 144.571 129.347C144.641 129.662 144.716 129.975 144.79 130.288C144.862 130.595 144.942 130.92 145.065 131.212C145.096 131.285 145.21 131.255 145.187 131.177C145.142 131.016 145.077 130.861 145.025 130.703Z" fill="#263238"/>
<path d="M152.463 128.867C151.98 128.937 151.494 128.97 151.009 129.011C150.52 129.053 150.039 129.119 149.555 129.19C149.529 129.194 149.528 129.233 149.556 129.231C150.044 129.199 150.526 129.162 151.011 129.1C151.495 129.039 151.978 128.968 152.465 128.936C152.511 128.933 152.507 128.86 152.463 128.867Z" fill="#263238"/>
<path d="M148.787 103.872C149.336 102.877 150.034 101.563 151.404 101.646C152.535 101.715 153.045 102.839 153.286 103.768C154.033 106.642 154.085 109.675 154.231 112.62C154.538 118.846 154.815 125.078 154.855 131.312C154.866 133.04 154.86 134.768 154.843 136.495C154.827 138.257 154.832 156.014 154.717 157.773C154.706 157.939 154.452 157.934 154.451 157.766C154.441 156.259 154.495 138.767 154.502 137.259C154.508 135.788 154.496 134.317 154.472 132.847C154.423 129.867 154.341 126.889 154.227 123.911C154.115 120.951 153.981 117.993 153.852 115.034C153.788 113.555 153.724 112.076 153.655 110.598C153.589 109.166 153.525 107.732 153.357 106.306C153.263 105.508 153.142 104.71 152.971 103.924C152.849 103.363 152.674 102.758 152.264 102.327C151.723 101.759 150.906 101.8 150.265 102.186C149.601 102.586 149.198 103.25 148.848 103.909C148.827 103.948 148.765 103.911 148.787 103.872Z" fill="#263238"/>
<path d="M149.158 103.397C149.158 103.397 150.284 99.5229 147.794 101.46C143.65 104.684 143.502 111.699 143.502 111.699C143.502 111.699 150.869 107.53 151.785 104.781C153.15 100.685 149.158 103.397 149.158 103.397Z" fill="#FFC727"/>
<path d="M150.231 105.119C150.275 105.112 150.293 105.179 150.248 105.186C149.315 105.323 148.4 105.551 147.479 105.749C147.472 105.751 147.468 105.746 147.461 105.746C147.108 106.23 146.759 106.717 146.412 107.205C146.271 107.403 146.134 107.604 145.995 107.804C146.008 107.803 146.021 107.801 146.034 107.8C146.13 107.786 146.225 107.772 146.321 107.761C146.524 107.738 146.729 107.722 146.933 107.706C147.358 107.674 147.784 107.652 148.209 107.63C148.254 107.628 148.253 107.698 148.207 107.699C147.788 107.708 147.372 107.739 146.955 107.783C146.735 107.806 146.516 107.835 146.296 107.86C146.201 107.871 146.104 107.882 146.009 107.894C145.98 107.897 145.952 107.901 145.924 107.905C145.688 108.244 145.451 108.583 145.215 108.922C144.8 109.521 144.428 110.164 143.984 110.742C143.958 110.777 143.908 110.746 143.927 110.708C144.236 110.055 144.665 109.436 145.051 108.824C145.119 108.717 145.191 108.612 145.261 108.506C145.243 108.399 145.261 108.279 145.261 108.176C145.262 108.009 145.264 107.842 145.259 107.676C145.251 107.348 145.239 107.021 145.222 106.694C145.22 106.65 145.291 106.652 145.293 106.696C145.311 107.017 145.324 107.338 145.333 107.659C145.338 107.82 145.345 107.98 145.351 108.141C145.353 108.204 145.361 108.276 145.365 108.348C145.654 107.91 145.951 107.477 146.258 107.051C146.347 106.928 146.44 106.808 146.531 106.686C146.599 106.271 146.558 105.837 146.553 105.42C146.548 104.97 146.541 104.52 146.525 104.07C146.523 104.026 146.595 104.027 146.596 104.072C146.61 104.54 146.633 105.008 146.658 105.476C146.675 105.807 146.707 106.145 146.686 106.478C147.398 105.535 148.152 104.627 148.916 103.723C148.941 103.693 148.996 103.736 148.971 103.766C148.498 104.35 148.044 104.948 147.6 105.553C148.468 105.356 149.35 105.243 150.231 105.119Z" fill="#263238"/>
<path d="M146.887 104.447C146.888 104.297 146.884 104.146 146.884 103.995C146.885 103.68 146.889 103.358 146.845 103.046C146.838 102.996 146.915 102.988 146.915 103.038C146.916 103.352 146.95 103.665 146.966 103.979C146.974 104.136 146.974 104.292 146.974 104.449C146.974 104.522 146.974 104.594 146.974 104.667C146.973 104.74 146.983 104.822 146.957 104.892C146.945 104.921 146.905 104.92 146.895 104.89C146.873 104.825 146.884 104.751 146.885 104.683C146.887 104.604 146.887 104.526 146.887 104.447Z" fill="#263238"/>
<path d="M147.798 106.052C148.072 106.007 148.353 105.993 148.629 105.97C148.933 105.945 149.236 105.919 149.539 105.88C149.59 105.874 149.598 105.945 149.547 105.948C148.965 105.985 148.386 106.086 147.804 106.106C147.773 106.108 147.766 106.057 147.798 106.052Z" fill="#263238"/>
<path d="M143.614 150.455L144.76 179.108H160.808L161.953 150.455H143.614Z" fill="#FFC727"/>
<path opacity="0.5" d="M143.614 150.455L144.76 179.108H160.808L161.953 150.455H143.614Z" fill="black"/>
<path opacity="0.1" d="M143.614 150.455L143.725 153.234L161.752 155.493L161.953 150.455H143.614Z" fill="black"/>
<path d="M141.855 151.558H163.713V146.597H141.855V151.558Z" fill="#FFC727"/>
<path opacity="0.5" d="M141.855 151.558H163.713V146.597H141.855V151.558Z" fill="black"/>
<path d="M65.7796 153.559C65.7796 153.559 69.9362 167.158 69.9366 167.173C69.8225 171.194 70.003 175.057 69.7387 176.872C69.7387 176.882 69.7387 176.892 69.7341 176.902C69.6351 177.586 69.5234 178.022 69.3942 178.136C69.3841 178.145 69.3791 178.155 69.3694 178.16C68.1181 178.938 35.1047 178.986 33.9527 178.61C32.7961 178.239 33.8099 175.006 35.0896 174.008C36.3793 173.01 49.0052 167.485 49.0052 167.485L44.6984 153.561L65.7796 153.559Z" fill="#AD6359"/>
<path d="M33.368 178.957C34.5646 179.338 69.1595 179.339 70.4573 178.528C70.9509 178.223 70.656 172.844 70.1466 167.171L48.4636 167.352C48.4636 167.352 35.8458 173.146 34.5212 174.185C33.2035 175.223 32.1714 178.576 33.368 178.957Z" fill="#FFC727"/>
<path d="M33.8483 177.621C39.5759 177.445 62.6945 177.258 68.3702 177.507C68.4164 177.509 68.4167 177.539 68.3706 177.542C62.6976 177.838 39.5779 177.843 33.8487 177.713C33.728 177.71 33.7272 177.625 33.8483 177.621Z" fill="#263238"/>
<path d="M36.7106 172.972C38.069 172.909 39.4014 173.528 40.1475 174.311C40.8649 175.063 41.4815 176.124 41.4496 177.282C41.4489 177.315 41.3856 177.316 41.3806 177.282C41.0372 175.1 38.9843 173.196 36.711 173.042C36.6648 173.039 36.664 172.974 36.7106 172.972Z" fill="#263238"/>
<path d="M46.6704 167.924C48.9631 167.877 51.6271 168.647 53.0654 170.464C53.1213 170.534 53.0177 170.611 52.9494 170.577C50.869 169.55 48.8929 168.788 46.6332 168.199C46.4737 168.158 46.5063 167.928 46.6704 167.924Z" fill="#263238"/>
<path d="M44.9055 168.608C47.1981 168.562 49.8622 169.332 51.3005 171.149C51.356 171.219 51.2524 171.295 51.1845 171.261C49.104 170.235 47.1279 169.473 44.8682 168.884C44.7083 168.842 44.7413 168.612 44.9055 168.608Z" fill="#263238"/>
<path d="M43.14 169.293C45.4327 169.246 48.0971 170.016 49.535 171.834C49.5909 171.904 49.4873 171.98 49.4186 171.946C47.3381 170.92 45.3621 170.158 43.1023 169.569C42.9433 169.527 42.9759 169.297 43.14 169.293Z" fill="#263238"/>
<path d="M41.375 169.978C43.6677 169.931 46.3317 170.701 47.77 172.518C47.8259 172.588 47.7223 172.664 47.654 172.631C45.5736 171.604 43.5975 170.842 41.3378 170.253C41.1783 170.211 41.2109 169.981 41.375 169.978Z" fill="#263238"/>
<path d="M66.8724 172.216C69.4449 172.206 69.4662 176.101 66.8895 176.112C64.3167 176.122 64.2953 172.227 66.8724 172.216Z" fill="white"/>
<path d="M44.3521 165.25C45.1948 166.303 46.3359 167.079 47.4926 167.81C47.5768 167.862 47.6536 167.914 47.7378 167.959C48.2127 168.258 48.6876 168.556 49.1396 168.855C49.2009 168.892 49.2622 168.899 49.3158 168.885C49.4306 168.87 49.5226 168.773 49.5455 168.668C49.5839 168.676 49.6219 168.653 49.6219 168.608C49.6142 168.534 49.6068 168.459 49.599 168.377V168.303C49.599 168.303 49.5913 168.303 49.599 168.295C49.5835 168.205 49.5684 168.109 49.5606 168.012C49.53 167.795 49.4916 167.571 49.438 167.347C49.1164 165.773 48.4114 164.146 47.4922 162.907C46.7721 161.944 45.3012 161.034 44.1445 161.982C43.0577 162.877 43.6246 164.347 44.3521 165.25ZM44.2373 163.407C44.4441 160.974 46.7115 162.825 47.2171 163.556C47.5387 164.026 47.8069 164.549 48.0598 165.056C48.435 165.802 48.7264 166.571 49.0097 167.347C49.109 167.638 49.2165 167.922 49.3239 168.213C49.3239 168.22 49.3239 168.22 49.3317 168.228C49.3468 168.272 49.3623 168.317 49.3775 168.362C49.3391 168.332 49.2933 168.302 49.2549 168.272C49.2165 168.243 49.1707 168.205 49.1245 168.175C48.8029 167.944 48.4812 167.72 48.1518 167.496C47.7688 167.235 47.3781 166.974 46.9952 166.705C46.0527 166.049 44.1224 164.743 44.2373 163.407Z" fill="#263238"/>
<path d="M49.3009 168.884C49.3086 168.884 49.3086 168.884 49.316 168.884C50.1203 169.004 50.9402 169.16 51.7596 169.287C52.9469 169.466 54.1497 169.578 55.3215 169.399C56.4397 169.22 57.8186 168.556 57.7573 167.28C57.7573 167.228 57.7573 167.175 57.7496 167.123C57.5579 165.668 55.8499 165.362 54.6471 165.601C53.2453 165.877 51.7515 166.511 50.4878 167.339C50.1661 167.541 49.8518 167.765 49.5608 168.011C49.4766 168.071 49.3998 168.131 49.3234 168.213C49.3156 168.205 49.3156 168.213 49.3079 168.22C49.2927 168.228 49.2694 168.243 49.2543 168.272C49.2085 168.302 49.1624 168.34 49.1166 168.384C49.0859 168.422 49.0937 168.459 49.1243 168.481C49.0483 168.631 49.0941 168.854 49.3009 168.884ZM49.9368 168.407C49.822 168.392 49.7145 168.385 49.5996 168.377C49.5539 168.37 49.5154 168.362 49.4693 168.362C49.5077 168.34 49.5539 168.325 49.5919 168.303L49.5996 168.295C50.2429 167.974 50.8711 167.638 51.5222 167.332C51.9207 167.138 52.3187 166.959 52.7327 166.802C53.2767 166.601 53.8358 166.392 54.4027 166.265C55.1379 166.094 57.2983 166.153 57.1222 167.288C57.0915 167.519 56.9612 167.788 56.7008 168.116C55.8507 169.176 53.5219 168.862 52.3653 168.721C51.5528 168.623 50.7485 168.497 49.9368 168.407Z" fill="#263238"/>
<path d="M47.4583 165.528H69.6003C69.6003 165.528 65.4053 141.85 61.682 129.175C60.5692 125.387 57.0598 119.665 57.416 119.409C66.4645 112.901 76.2111 104.367 84.6555 99.4935C95.3643 93.3132 91.3954 82.0212 91.3954 82.0212H63.7846C63.7846 82.0212 63.9658 83.7086 62.5725 86.5681C61.975 87.7947 37.9756 102.818 33.4457 110.874C28.6578 119.389 47.4583 165.528 47.4583 165.528Z" fill="#263238"/>
<path d="M62.1131 130.69L56.9643 145.265L55.3308 139.093L60.1731 125.375C60.7783 126.683 61.3409 128.017 61.6824 129.174C61.8259 129.665 61.9695 130.168 62.1131 130.69Z" fill="#FFC727"/>
<path d="M64.4798 140.166L59.6337 153.884L57.9963 147.715L62.9278 133.744C63.4516 135.778 63.9715 137.951 64.4798 140.166Z" fill="#FFC727"/>
<path d="M127.391 153.559C127.391 153.559 139.009 167.076 138.983 167.513C139.097 171.534 139.271 175.058 139.535 176.872C139.535 176.882 139.535 176.892 139.54 176.902C139.639 177.586 139.75 178.022 139.88 178.136C139.89 178.145 139.895 178.155 139.905 178.16C141.156 178.938 174.169 178.986 175.321 178.61C176.477 178.239 175.464 175.006 174.184 174.008C172.894 173.01 160.268 167.485 160.268 167.485L148.472 153.561L127.391 153.559Z" fill="#AD6359"/>
<path d="M175.493 178.86C174.296 179.241 139.701 179.243 138.404 178.431C137.91 178.126 138.205 172.748 138.714 167.074L160.397 167.255C160.397 167.255 173.015 173.049 174.34 174.088C175.657 175.126 176.689 178.479 175.493 178.86Z" fill="#FFC727"/>
<path d="M175.012 177.524C169.285 177.347 146.166 177.161 140.49 177.41C140.444 177.412 140.444 177.442 140.49 177.445C146.163 177.741 169.283 177.745 175.012 177.616C175.133 177.613 175.133 177.528 175.012 177.524Z" fill="#263238"/>
<path d="M172.15 172.875C170.792 172.811 169.46 173.431 168.713 174.214C167.996 174.966 167.38 176.027 167.411 177.185C167.412 177.218 167.475 177.219 167.48 177.185C167.823 175.003 169.877 173.099 172.15 172.945C172.196 172.941 172.197 172.877 172.15 172.875Z" fill="#263238"/>
<path d="M162.19 167.827C159.897 167.78 157.233 168.55 155.795 170.367C155.739 170.438 155.843 170.514 155.911 170.48C157.991 169.454 159.968 168.692 162.227 168.103C162.387 168.061 162.355 167.83 162.19 167.827Z" fill="#263238"/>
<path d="M163.955 168.512C161.663 168.465 158.999 169.235 157.56 171.052C157.505 171.122 157.608 171.198 157.676 171.164C159.757 170.138 161.733 169.376 163.993 168.787C164.152 168.745 164.119 168.515 163.955 168.512Z" fill="#263238"/>
<path d="M165.72 169.196C163.428 169.149 160.763 169.919 159.325 171.736C159.269 171.807 159.373 171.883 159.442 171.849C161.522 170.822 163.498 170.061 165.758 169.471C165.917 169.43 165.885 169.2 165.72 169.196Z" fill="#263238"/>
<path d="M167.485 169.881C165.193 169.834 162.529 170.604 161.09 172.421C161.035 172.491 161.138 172.567 161.206 172.534C163.287 171.507 165.263 170.745 167.523 170.156C167.683 170.114 167.65 169.884 167.485 169.881Z" fill="#263238"/>
<path d="M141.988 172.119C139.416 172.109 139.395 176.004 141.971 176.015C144.544 176.025 144.565 172.13 141.988 172.119Z" fill="white"/>
<path d="M164.715 161.885C163.559 160.937 162.088 161.847 161.368 162.81C160.449 164.049 159.744 165.676 159.422 167.25C159.368 167.474 159.33 167.698 159.299 167.914C159.292 168.012 159.276 168.108 159.261 168.198C159.269 168.205 159.261 168.205 159.261 168.205V168.28C159.253 168.362 159.246 168.437 159.238 168.511C159.238 168.556 159.276 168.579 159.314 168.571C159.337 168.675 159.429 168.772 159.544 168.788C159.598 168.802 159.659 168.795 159.72 168.758C160.172 168.459 160.647 168.161 161.122 167.862C161.206 167.818 161.283 167.765 161.367 167.713C162.524 166.982 163.665 166.205 164.508 165.153C165.236 164.25 165.803 162.78 164.715 161.885ZM161.866 166.608C161.483 166.877 161.092 167.138 160.709 167.4C160.38 167.623 160.058 167.848 159.736 168.079C159.69 168.109 159.644 168.146 159.606 168.176C159.567 168.206 159.522 168.236 159.483 168.266C159.498 168.221 159.514 168.176 159.529 168.131C159.537 168.124 159.537 168.124 159.537 168.117C159.644 167.826 159.751 167.542 159.851 167.251C160.134 166.475 160.425 165.706 160.801 164.96C161.053 164.453 161.321 163.93 161.643 163.46C162.149 162.729 164.416 160.878 164.623 163.311C164.738 164.646 162.808 165.951 161.866 166.608Z" fill="#263238"/>
<path d="M159.736 168.384C159.767 168.362 159.774 168.325 159.744 168.287C159.698 168.243 159.652 168.205 159.606 168.175C159.591 168.145 159.568 168.131 159.552 168.123C159.545 168.115 159.545 168.108 159.537 168.115C159.461 168.033 159.384 167.974 159.3 167.914C159.009 167.668 158.695 167.444 158.373 167.242C157.109 166.414 155.615 165.779 154.213 165.504C153.011 165.265 151.303 165.571 151.111 167.026C151.103 167.078 151.103 167.13 151.103 167.183C151.042 168.459 152.421 169.123 153.539 169.302C154.711 169.481 155.914 169.369 157.101 169.19C157.92 169.063 158.74 168.907 159.545 168.787C159.552 168.787 159.552 168.787 159.56 168.787C159.767 168.757 159.813 168.534 159.736 168.384ZM156.496 168.623C155.339 168.765 153.01 169.078 152.16 168.019C151.9 167.69 151.769 167.422 151.739 167.19C151.563 166.056 153.723 165.996 154.458 166.168C155.025 166.295 155.584 166.503 156.128 166.705C156.542 166.862 156.94 167.04 157.339 167.235C157.99 167.541 158.618 167.877 159.261 168.198L159.269 168.205C159.308 168.227 159.353 168.243 159.392 168.265C159.346 168.265 159.308 168.272 159.261 168.28C159.147 168.287 159.039 168.294 158.924 168.309C158.112 168.399 157.308 168.526 156.496 168.623Z" fill="#263238"/>
<path d="M135.74 165.703H159.696C159.696 165.703 126.806 122.168 122.076 116.28C114.969 107.436 91.3959 82.0207 91.3959 82.0207H65.4868L74.3565 98.9967C74.3565 98.9967 84.2214 104.342 99.3363 123.163C100.332 124.402 105.41 133.324 108.566 137.71C118.263 151.183 135.74 165.703 135.74 165.703Z" fill="#263238"/>
<path d="M67.147 97.1354C71.4468 97.6374 76.9948 99.0829 79.5917 102.713C79.3872 102.507 79.1874 102.302 78.9922 102.094C75.7435 99.2379 71.2974 98.156 67.147 97.1354Z" fill="#37474F"/>
<path d="M69.8574 98.9105C71.662 98.6773 73.5395 98.7544 75.2619 99.3649C73.4367 99.2688 71.6647 99.197 69.8574 98.9105Z" fill="#37474F"/>
<path d="M122.168 140.31L106.64 134.859C105.655 133.347 104.619 131.673 103.637 130.07L118.257 135.203L122.168 140.31Z" fill="#FFC727"/>
<path d="M127.39 147.741L112.22 142.419C110.924 140.85 109.69 139.274 108.565 137.709C108.468 137.573 108.367 137.433 108.266 137.29L123.479 142.635L127.39 147.741Z" fill="#FFC727"/>
<path d="M76.6297 48.0041C70.3088 48.2891 63.2965 48.3594 60.9048 48.3594C58.1694 48.3594 48.653 48.0986 44.1211 48.0986C41.2301 48.0986 42.0116 58.9344 43.9919 59.0568C46.1197 59.1884 55.9318 59.9697 60.9048 59.3887C66.5208 58.7325 70.4124 55.9436 75.004 54.1561C82.0935 51.3963 79.6592 47.8677 76.6297 48.0041Z" fill="#AD6359"/>
<path d="M76.6296 48.0041C70.3086 48.2891 63.2963 48.3594 60.9047 48.3594C58.7544 48.3594 53.6111 47.8661 49.1937 47.7973C48.6901 47.7894 47.9319 48.1149 47.4605 48.1099C46.8071 48.1028 46.1902 48.099 45.6272 48.099L46.6938 59.8121C47.211 59.8442 48.0223 59.8699 49.0257 59.882C49.4692 59.8873 50.1505 60.5269 50.6603 60.5265C53.7426 60.5238 57.6746 59.7663 60.9047 59.3891C66.5206 58.7329 72.3748 55.7308 76.3203 54.068C83.3276 51.115 79.6591 47.8677 76.6296 48.0041Z" fill="#FFC727"/>
<path opacity="0.1" d="M47.905 49.1287C48.4657 52.1338 48.7644 55.1665 48.7939 58.2211C48.2309 55.216 47.9365 52.1833 47.905 49.1287Z" fill="black"/>
<path opacity="0.1" d="M76.3195 54.0699C73.8576 55.1048 70.6543 56.6633 67.2263 57.8469L75.5377 48.0506C75.9024 48.0351 76.2675 48.0192 76.6283 48.0037C79.6594 47.8669 83.3279 51.1169 76.3195 54.0699Z" fill="black"/>
<path d="M40.8549 59.1884C45.3724 59.1884 46.3812 58.6085 46.3812 58.6085L44.1215 48.099C44.1215 48.099 34.0223 48.4725 27.7184 49.907C24.2408 50.6985 18.846 51.0538 18.5744 51.3797C18.0518 52.0064 19.1968 53.0504 21.6575 53.2568C24.1182 53.4658 28.8882 52.7824 29.1874 52.8327C29.2246 52.8391 29.3224 52.8769 29.4706 52.9393C29.4706 52.9393 29.4706 52.9393 29.473 52.9423C29.5762 53.0266 30.7278 56.254 32.2468 56.6989C33.7945 57.1528 38.3869 59.1884 40.8549 59.1884Z" fill="#AD6359"/>
<path d="M33.7761 51.4458C33.7761 51.4458 28.0306 49.7078 26.8379 50.0782C25.6452 50.4486 18.1355 51.6076 17.5992 52.2241C17.0634 52.8406 17.8355 53.9795 20.2962 54.1871C22.7569 54.3946 27.6252 53.9875 27.9259 54.0381C28.2266 54.0888 32.9629 56.4014 33.4657 56.4861C33.9686 56.5707 33.7761 51.4458 33.7761 51.4458Z" fill="#AD6359"/>
<path d="M30.6831 50.0204C30.0258 49.9697 29.3674 49.9459 28.7081 49.9191C28.3783 49.9104 28.0485 49.9058 27.718 49.907C27.5523 49.9081 27.387 49.9092 27.2198 49.9164C27.1367 49.9179 27.051 49.9259 26.9664 49.9319C26.8764 49.9417 26.7817 49.9587 26.7088 49.975C25.4226 50.2226 24.129 50.4774 22.8408 50.7382C21.5515 51.0073 20.2688 51.2666 18.979 51.5705C18.6547 51.6579 18.3338 51.7686 18.0343 51.933C17.8849 52.0154 17.7405 52.1118 17.616 52.2358C17.4934 52.3583 17.3816 52.514 17.3584 52.7015C17.3331 52.8879 17.4092 53.072 17.5198 53.2024C17.63 53.3369 17.7665 53.439 17.9085 53.5259C18.1937 53.7013 18.5084 53.8098 18.8238 53.9005C18.5212 53.775 18.2213 53.6378 17.9609 53.4507C17.8321 53.3573 17.7126 53.2504 17.6272 53.1264C17.5399 53.0039 17.4996 52.8588 17.5287 52.7268C17.5861 52.4554 17.8659 52.2585 18.1394 52.1232C18.4215 51.9856 18.7311 51.8945 19.0442 51.8261C20.3281 51.5864 21.626 51.3335 22.9126 51.072C24.2011 50.8021 25.4866 50.5401 26.7705 50.2279C27.0634 50.1447 27.3994 50.144 27.7238 50.1209C28.0509 50.1035 28.3795 50.0956 28.7081 50.0846L30.6831 50.0204Z" fill="#263238"/>
<path d="M34.4536 52.2267C34.4536 52.2267 28.1482 50.3462 26.9551 50.7166C25.7624 51.0871 18.2526 52.246 17.7164 52.8625C17.1806 53.4791 17.9527 54.618 20.4134 54.8255C22.8741 55.033 27.7424 54.6259 28.0431 54.6766C28.3438 54.7272 33.1546 56.4966 33.6574 56.5817C34.1603 56.6664 34.4536 52.2267 34.4536 52.2267Z" fill="#AD6359"/>
<path d="M31.5889 50.4679C30.7807 50.4415 29.9725 50.4452 29.1632 50.4498C28.7589 50.4588 28.3542 50.4706 27.9491 50.4906C27.7466 50.5008 27.5437 50.5137 27.3392 50.5322C27.1386 50.5492 26.9159 50.5866 26.7273 50.6297C25.1485 50.9518 23.5674 51.2806 21.9906 51.6201L19.6273 52.1436L19.0371 52.2808C18.8435 52.3262 18.6356 52.3742 18.4373 52.4471C18.239 52.5193 18.0446 52.6093 17.8658 52.7321C17.6912 52.8569 17.515 53.0141 17.4359 53.2492C17.3975 53.3649 17.3959 53.4972 17.4324 53.6136C17.4669 53.7319 17.5364 53.8272 17.6089 53.9111C17.7595 54.0755 17.9399 54.1908 18.123 54.2884C18.4924 54.48 18.8816 54.6093 19.275 54.7136C20.0657 54.9226 20.8891 54.9763 21.6942 54.9117C20.8875 54.9007 20.0785 54.8126 19.3235 54.556C18.9436 54.435 18.5677 54.2959 18.2317 54.1035C18.0652 54.0071 17.9081 53.8941 17.7952 53.7595C17.6799 53.625 17.6334 53.47 17.6892 53.3305C17.7412 53.188 17.8778 53.0629 18.0307 52.9646C18.187 52.8678 18.3597 52.7869 18.5413 52.7265C18.8998 52.6093 19.3103 52.545 19.7006 52.4562L22.067 51.9523C23.6439 51.6095 25.2199 51.2693 26.7913 50.8939C26.9942 50.8406 27.1688 50.804 27.3698 50.7779C27.5669 50.7522 27.7664 50.7314 27.9666 50.7129C28.367 50.6766 28.7693 50.6486 29.1717 50.6233L31.5889 50.4679Z" fill="#263238"/>
<path d="M38.8675 52.7333C38.8675 52.7333 33.2993 53.6983 31.7039 54.0544C30.5178 54.319 26.273 54.8297 25.6134 55.3003C24.7785 55.8964 25.6934 57.1407 28.0835 57.1993C30.4735 57.2579 32.5839 57.0296 32.8772 57.0625C33.1709 57.0954 37.6298 58.263 41.4097 57.9765C41.9032 57.9383 38.8675 52.7333 38.8675 52.7333Z" fill="#AD6359"/>
<path d="M35.4144 53.3449C33.1121 53.9799 30.739 54.4142 28.3893 54.7862C27.4333 55.0009 26.3283 55.0788 25.529 55.6507C25.1802 56.2819 26.1028 56.7726 26.6456 56.9245C27.2024 57.1075 27.8007 57.1699 28.3979 57.205C27.8007 57.2534 27.1927 57.23 26.5948 57.1003C25.8677 56.9722 24.7627 56.294 25.2814 55.4511C25.624 55.0886 26.1071 54.9714 26.5533 54.8183C28.2869 54.3141 30.1019 54.1731 31.8666 53.8858C32.901 53.721 34.387 53.4775 35.4144 53.3449Z" fill="#263238"/>
<path d="M63.0608 85.2817L95.032 86.2479C95.1073 86.1715 94.9835 84.9351 94.9268 84.4433C94.916 84.3499 96.5949 82.9782 96.3271 81.5508C94.7604 73.2035 88.7972 55.2061 84.1505 49.1944C81.819 46.178 75.5443 46.398 73.1934 50.2876C69.9451 55.6613 64.4207 72.3643 62.544 80.8232C62.3251 81.809 63.4135 83.5818 63.4127 83.8922L63.0608 85.2817Z" fill="#FFC727"/>
<path opacity="0.1" d="M85.8329 81.9651L83.595 77.0409L83.6834 77.0855C82.8356 77.2186 81.972 77.0307 81.2305 76.6312C80.4847 76.2297 79.8981 75.5955 79.4631 74.8992L79.2928 74.6403C79.2428 74.5507 79.2001 74.4569 79.1535 74.3654L78.8796 73.8132C78.7403 73.4299 78.5839 73.0493 78.4699 72.658C78.3744 72.2626 78.2534 71.8714 78.1789 71.4722L77.9783 70.2702L78.1358 70.4112L70.2598 70.1942L70.453 70.0222C70.4045 70.6648 70.3001 71.2863 70.1605 71.9084C70.0204 72.5287 69.8353 73.1419 69.5808 73.7327C69.3243 74.3201 69.0248 74.9033 68.5852 75.3997C68.1557 75.8982 67.6109 76.3193 66.9734 76.5658L67.0937 76.4316L65.9192 81.3913L65.7497 81.1778C69.0717 81.2802 72.3915 81.4159 75.7333 81.5524L85.8329 81.9651ZM85.8329 81.9651L75.8439 81.7652C72.4888 81.6975 69.1125 81.6291 65.738 81.5278L65.5208 81.5214L65.5685 81.3142L66.7166 76.3488L66.7387 76.2536L66.8368 76.2146C67.3991 75.992 67.8856 75.6151 68.2794 75.1543C68.6798 74.6962 68.967 74.1451 69.2157 73.5856C69.4624 73.0224 69.6452 72.4293 69.7845 71.8268C69.9234 71.2262 70.0293 70.6085 70.0782 70.0014L70.0926 69.8234L70.2714 69.8294L78.1459 70.0925L78.2828 70.0971L78.3034 70.2335L78.4815 71.4171C78.5482 71.8102 78.6608 72.1931 78.7477 72.582C78.8528 72.9657 78.9991 73.3369 79.1283 73.7134L79.3852 74.2517C79.4286 74.3409 79.4686 74.4324 79.5155 74.5201L79.6758 74.7714C80.0839 75.4492 80.6345 76.0615 81.3356 76.4524C82.0286 76.8383 82.8585 77.0417 83.6501 76.9366L83.716 76.9279L83.7385 76.9816L85.8329 81.9651Z" fill="black"/>
<path opacity="0.1" d="M64.4988 83.6317C74.2108 83.6832 83.9768 83.9905 93.6744 84.5495C83.9593 84.4981 74.1945 84.1908 64.4988 83.6317Z" fill="black"/>
<path opacity="0.1" d="M78.2332 59.2296C79.7526 59.188 81.885 59.1132 83.3831 59.1026L83.5041 59.0999C83.5984 60.3696 83.6822 61.6393 83.7373 62.9124C83.7358 63.0655 83.7668 63.4605 83.7637 63.6087C83.7587 63.6919 83.7839 63.7467 83.7435 63.8933C83.6679 64.0468 83.6225 64.0513 83.5297 64.1398C82.8329 64.6788 82.0841 65.1218 81.2863 65.5157C81.1141 65.5875 80.83 65.7527 80.5802 65.6586C79.8794 65.3305 79.2905 64.8319 78.6953 64.3564C78.4772 64.1561 78.2207 63.9841 78.0721 63.7187C77.9476 63.033 78.0217 62.3598 78.0263 61.6922C78.05 61.0375 78.0818 60.3836 78.1187 59.7297C79.6839 59.7418 81.2491 59.7697 82.8143 59.8159C81.2879 59.8824 79.7615 59.9327 78.2343 59.9663L78.3542 59.8529C78.3433 61.0602 78.2945 62.3258 78.3759 63.5176C78.3852 63.5868 78.3864 63.5951 78.4275 63.6423C78.7926 64.0222 79.2334 64.3432 79.6598 64.6592C80.0005 64.8969 80.3322 65.1468 80.7101 65.3116C80.8075 65.3392 80.9635 65.2405 81.1203 65.1763C81.8051 64.8421 82.4895 64.4456 83.1169 64.0067C83.2182 63.9338 83.3194 63.8589 83.4033 63.7739C83.4207 63.7573 83.3951 63.778 83.4021 63.7841C83.4188 63.7471 83.4001 63.4617 83.4029 63.3846C83.3978 63.3399 83.2659 59.4484 83.2527 59.2352L83.3827 59.3554C81.8928 59.3347 79.744 59.2825 78.2332 59.2296Z" fill="black"/>
<path d="M82.3198 47.6136C88.6407 47.8986 99.2614 48.3598 101.653 48.3598C104.388 48.3598 113.905 48.099 118.437 48.099C121.328 48.099 120.546 58.9347 118.566 59.0572C116.438 59.1887 106.626 59.9701 101.653 59.3891C96.0371 58.7329 88.5371 55.5531 83.9455 53.7656C76.8563 51.0054 79.2906 47.4772 82.3198 47.6136Z" fill="#AD6359"/>
<path d="M82.3196 47.6136C88.6405 47.8987 99.2612 48.3598 101.653 48.3598C103.803 48.3598 108.946 47.8665 113.364 47.7977C113.867 47.7898 114.626 48.1152 115.097 48.1103C115.75 48.1032 116.367 48.0994 116.93 48.0994L115.863 59.8125C115.346 59.8446 114.535 59.8703 113.531 59.8824C113.088 59.8877 112.407 60.5273 111.897 60.5269C108.815 60.5242 104.883 59.7667 101.652 59.3895C96.0365 58.7333 88.5365 55.5535 83.9449 53.766C76.8561 51.0054 79.2904 47.4772 82.3196 47.6136Z" fill="#FFC727"/>
<path d="M91.5124 56.7612C88.614 56.0767 85.7537 55.0546 83.2581 53.4413C86.0059 54.5919 88.7758 55.5823 91.5124 56.7612Z" fill="#263238"/>
<path d="M83.7288 54.209C84.4908 54.5329 85.2633 54.7151 86.087 54.7714C85.2811 54.9839 84.3445 54.7605 83.7288 54.209Z" fill="#263238"/>
<path opacity="0.1" d="M114.653 49.1287C114.621 52.1829 114.327 55.216 113.764 58.2211C113.794 55.1665 114.092 52.1341 114.653 49.1287Z" fill="black"/>
<path d="M121.703 59.1884C117.186 59.1884 116.177 58.6085 116.177 58.6085L118.436 48.099C118.436 48.099 128.536 48.4725 134.84 49.907C138.318 50.6985 143.712 51.0538 143.984 51.3797C144.507 52.0064 143.362 53.0504 140.901 53.2568C138.44 53.4658 133.67 52.7824 133.371 52.8327C133.334 52.8391 133.236 52.8769 133.088 52.9393C133.088 52.9393 133.088 52.9393 133.085 52.9423C132.982 53.0266 131.831 56.254 130.312 56.6989C128.763 57.1528 124.171 59.1884 121.703 59.1884Z" fill="#AD6359"/>
<path d="M128.781 51.4458C128.781 51.4458 134.527 49.7078 135.72 50.0782C136.912 50.4486 144.422 51.6076 144.958 52.2241C145.494 52.8406 144.722 53.9795 142.261 54.1871C139.801 54.3946 134.932 53.9875 134.632 54.0381C134.331 54.0888 129.595 56.4014 129.092 56.4861C128.589 56.5707 128.781 51.4458 128.781 51.4458Z" fill="#AD6359"/>
<path d="M131.875 50.0204C132.533 49.9697 133.191 49.9459 133.85 49.9191C134.18 49.9104 134.509 49.9058 134.84 49.907C135.006 49.9081 135.171 49.9092 135.338 49.9164C135.421 49.9179 135.507 49.9259 135.592 49.9319C135.682 49.9417 135.776 49.9587 135.849 49.975C137.136 50.2226 138.429 50.4774 139.717 50.7382C141.007 51.0073 142.289 51.2666 143.579 51.5705C143.903 51.6579 144.225 51.7686 144.524 51.933C144.673 52.0154 144.818 52.1118 144.942 52.2358C145.065 52.3583 145.176 52.514 145.2 52.7015C145.225 52.8879 145.149 53.072 145.038 53.2024C144.928 53.3369 144.792 53.439 144.65 53.5259C144.365 53.7013 144.05 53.8098 143.734 53.9005C144.037 53.775 144.337 53.6378 144.597 53.4507C144.726 53.3573 144.845 53.2504 144.931 53.1264C145.018 53.0039 145.058 52.8588 145.029 52.7268C144.972 52.4554 144.692 52.2585 144.419 52.1232C144.137 51.9856 143.827 51.8945 143.514 51.8261C142.23 51.5864 140.932 51.3335 139.645 51.072C138.357 50.8021 137.071 50.5401 135.787 50.2279C135.494 50.1447 135.158 50.144 134.834 50.1209C134.507 50.1035 134.178 50.0956 133.85 50.0846L131.875 50.0204Z" fill="#263238"/>
<path d="M128.104 52.2267C128.104 52.2267 134.41 50.3462 135.603 50.7166C136.795 51.0871 144.305 52.246 144.841 52.8625C145.377 53.4791 144.605 54.618 142.144 54.8255C139.684 55.033 134.815 54.6259 134.515 54.6766C134.214 54.7272 129.403 56.4966 128.9 56.5817C128.397 56.6664 128.104 52.2267 128.104 52.2267Z" fill="#AD6359"/>
<path d="M130.969 50.4679C131.777 50.4415 132.585 50.4452 133.395 50.4498C133.799 50.4588 134.203 50.4706 134.609 50.4906C134.811 50.5008 135.014 50.5137 135.219 50.5322C135.419 50.5492 135.642 50.5866 135.83 50.6297C137.409 50.9518 138.99 51.2806 140.567 51.6201L142.93 52.1436L143.521 52.2808C143.714 52.3262 143.922 52.3742 144.12 52.4471C144.319 52.5193 144.513 52.6093 144.692 52.7321C144.866 52.8569 145.043 53.0141 145.122 53.2492C145.16 53.3649 145.162 53.4972 145.125 53.6136C145.091 53.7319 145.021 53.8272 144.949 53.9111C144.798 54.0755 144.618 54.1908 144.435 54.2884C144.065 54.48 143.676 54.6093 143.283 54.7136C142.492 54.9226 141.669 54.9763 140.864 54.9117C141.67 54.9007 142.479 54.8126 143.234 54.556C143.614 54.435 143.99 54.2959 144.326 54.1035C144.492 54.0071 144.65 53.8941 144.763 53.7595C144.878 53.625 144.924 53.47 144.868 53.3305C144.816 53.188 144.68 53.0629 144.527 52.9646C144.371 52.8678 144.198 52.7869 144.016 52.7265C143.658 52.6093 143.247 52.545 142.857 52.4562L140.491 51.9523C138.914 51.6095 137.338 51.2693 135.767 50.8939C135.564 50.8406 135.389 50.804 135.188 50.7779C134.991 50.7522 134.792 50.7314 134.591 50.7129C134.191 50.6766 133.789 50.6486 133.386 50.6233L130.969 50.4679Z" fill="#263238"/>
<path d="M123.69 52.7333C123.69 52.7333 129.259 53.6983 130.854 54.0544C132.04 54.319 136.285 54.8297 136.944 55.3003C137.779 55.8964 136.864 57.1407 134.474 57.1993C132.084 57.2579 129.974 57.0296 129.68 57.0625C129.387 57.0954 124.928 58.263 121.148 57.9765C120.655 57.9383 123.69 52.7333 123.69 52.7333Z" fill="#AD6359"/>
<path d="M127.144 53.3449C128.164 53.4764 129.658 53.7202 130.691 53.8862C132.456 54.1734 134.271 54.3144 136.004 54.8187C136.451 54.9718 136.933 55.0886 137.276 55.4515C137.795 56.2944 136.69 56.9718 135.963 57.1007C135.365 57.2307 134.757 57.2541 134.16 57.2054C134.757 57.1702 135.355 57.1079 135.912 56.9249C136.455 56.7737 137.378 56.2816 137.029 55.6511C136.229 55.0788 135.124 55.0013 134.168 54.7866C131.819 54.4142 129.446 53.9799 127.144 53.3449Z" fill="#263238"/>
<path opacity="0.1" d="M73.3005 50.5084C73.3835 55.608 77.2162 55.4103 80.4059 52.5326C81.289 51.7546 82.11 50.872 82.6265 49.8136C82.2489 50.9427 81.4683 51.9085 80.61 52.7446C79.3195 53.9429 77.5766 55.1823 75.6739 54.8875C73.6602 54.5212 73.0211 52.2339 73.3005 50.5084Z" fill="black"/>
<path d="M74.982 53.2024C76.7365 54.1916 80.2887 51.9081 81.7227 49.6764C81.8201 49.5229 81.959 43.2413 82.0351 41.975C82.0521 41.7149 73.7656 43.4398 73.7656 43.4398C73.7656 43.4398 74.4078 46.1402 74.2611 48.3477C74.2467 48.5322 74.2176 48.7027 74.1738 48.8641C74.1695 48.8879 74.161 48.9162 74.1567 48.9495C73.9329 49.9274 74.0834 52.6955 74.982 53.2024Z" fill="#AD6359"/>
<path d="M74.1569 48.9504C74.4126 48.998 74.6896 49.0321 74.9922 49.04C79.2754 49.1927 81.116 44.18 81.7229 41.9638C80.2147 42.098 73.7634 43.4377 73.7634 43.4377C73.7634 43.4377 74.4087 46.1388 74.2593 48.3498C74.248 48.532 74.2182 48.7051 74.1747 48.8631C74.172 48.8861 74.1584 48.9164 74.1569 48.9504Z" fill="#263238"/>
<path d="M83.3624 32.1633C84.2812 34.9741 82.853 43.1415 80.816 44.9831C77.8629 47.6526 72.9776 47.9622 70.6368 44.4925C68.3677 41.1294 70.4222 30.5171 72.7021 28.8388C76.0606 26.3666 82.0056 28.0117 83.3624 32.1633Z" fill="#AD6359"/>
<path d="M75.8258 37.3513C75.8339 37.3313 75.8657 37.3846 75.8611 37.4073C75.7497 37.9546 75.7167 38.6006 76.1971 38.8656C76.2118 38.8739 76.2056 38.9015 76.187 38.8958C75.5774 38.7095 75.6302 37.8529 75.8258 37.3513Z" fill="#263238"/>
<path d="M76.4279 36.8576C77.3482 36.9367 77.1182 38.7242 76.2653 38.6509C75.4261 38.5787 75.6562 36.7911 76.4279 36.8576Z" fill="#263238"/>
<path d="M72.4712 37.1298C72.4696 37.1079 72.4234 37.1506 72.4211 37.1733C72.3676 37.7293 72.2108 38.3572 71.6731 38.4781C71.6564 38.4819 71.6544 38.5099 71.6738 38.5095C72.3121 38.5001 72.5119 37.6647 72.4712 37.1298Z" fill="#263238"/>
<path d="M72.0381 36.4895C71.1329 36.3103 70.831 38.0877 71.6699 38.2536C72.4951 38.4169 72.797 36.6395 72.0381 36.4895Z" fill="#263238"/>
<path d="M77.0882 35.8503C76.8314 35.8113 76.6017 35.7339 76.3518 35.67C76.0701 35.5978 75.8381 35.5687 75.6367 35.3468C75.5289 35.2277 75.5471 34.9949 75.6557 34.8818C75.9095 34.6188 76.2769 34.6233 76.6195 34.6966C76.9916 34.7764 77.2574 34.9302 77.4937 35.2205C77.723 35.5018 77.4266 35.9013 77.0882 35.8503Z" fill="#263238"/>
<path d="M71.4079 35.6806C71.6655 35.7134 71.9084 35.7017 72.1664 35.7081C72.4578 35.7157 72.689 35.7509 72.9459 35.5925C73.084 35.5078 73.1333 35.2795 73.0611 35.1411C72.8935 34.8195 72.5393 34.7238 72.1889 34.7008C71.8087 34.6758 71.5095 34.7511 71.1991 34.9654C70.8984 35.1729 71.068 35.6371 71.4079 35.6806Z" fill="#263238"/>
<path d="M75.6173 42.4373C75.4644 42.5503 75.3057 42.7121 75.0974 42.7038C74.8976 42.6959 74.6768 42.5806 74.5045 42.4898C74.4875 42.4812 74.4669 42.4974 74.4762 42.5152C74.5965 42.7458 74.8898 42.9166 75.1587 42.9038C75.4218 42.8913 75.577 42.6906 75.6689 42.4687C75.6817 42.4381 75.6394 42.421 75.6173 42.4373Z" fill="#263238"/>
<path d="M75.2332 40.7064C74.8534 41.1483 74.3517 41.354 73.8337 41.3876C73.6021 41.4042 73.3634 41.3827 73.1334 41.3335C73.0876 41.3271 73.0426 41.3165 73.0022 41.3025C72.9615 41.2927 72.9246 41.2833 72.88 41.2685C72.8148 41.2511 72.7853 41.1933 72.7818 41.1306L72.7826 41.1264C72.7857 41.1064 72.788 41.0897 72.7954 41.0705C72.7954 41.0705 72.7954 41.0705 72.7958 41.0663L72.8032 41.0179C72.8462 40.5904 72.972 39.947 72.972 39.947C72.802 40.0053 71.9406 40.263 71.9822 40.0419C72.3325 38.212 72.7225 36.1765 73.4678 34.4279C73.4895 34.3689 73.5831 34.3946 73.5699 34.4547C73.3045 36.2268 72.7209 37.941 72.4253 39.7165C72.698 39.6518 73.145 39.5256 73.3735 39.5581C73.4337 39.583 73.1074 40.7968 73.1039 40.9903C73.1039 40.9903 73.1027 40.9986 73.105 41.0111C73.8287 41.1926 74.4107 41.044 75.1863 40.6501C75.2328 40.624 75.2732 40.6668 75.2332 40.7064Z" fill="#263238"/>
<path opacity="0.3" d="M82.9656 40.04C82.4535 42.2385 81.6918 44.1908 80.8165 44.9824C77.8642 47.6522 72.9777 47.9633 70.6389 44.4929C69.8551 43.332 69.5862 41.312 69.6654 39.0916C70.484 41.0285 72.4784 39.6488 72.4784 39.6488L73.4833 39.6889C74.5161 41.3097 77.489 40.9794 79.0235 40.0053C80.141 39.2957 80.9445 36.745 80.9445 36.745L82.9656 40.04Z" fill="#263238"/>
<path d="M83.3046 38.9839C82.0564 39.2742 81.1322 37.8072 80.8439 37.0451C80.5556 36.2827 81.2707 32.1292 80.7124 30.982C80.154 29.8348 78.8919 29.1642 77.8637 29.4205C76.8355 29.6768 75.4717 30.9325 74.7236 30.8384C73.9755 30.7443 73.8552 29.1551 73.3326 29.1359C72.1822 29.0943 70.8634 31.8151 70.6096 33.0361C70.6096 33.0361 70.7749 27.7739 76.302 27.4908C81.6932 27.2149 83.2879 30.8716 83.6969 32.4664C84.4802 35.5218 83.3046 38.9839 83.3046 38.9839Z" fill="#263238"/>
<path d="M80.6418 36.3368C80.6418 36.3368 83.6434 36.55 84.5323 37.14C84.8963 37.3819 84.6961 38.9404 84.4462 39.1563C84.289 39.2923 83.2446 38.7552 80.6989 38.6951C80.6989 38.6951 81.0679 37.6076 80.6418 36.3368Z" fill="#FFC727"/>
<path d="M70.169 39.2475C70.5663 39.4901 80.4991 40.0277 81.2018 39.4769C81.8416 38.973 81.8563 34.8188 81.4412 34.5232C80.6621 33.9687 70.8131 33.7513 70.2509 34.2269C69.8625 34.555 69.8272 39.0388 70.169 39.2475Z" fill="#FFC727"/>
<path opacity="0.2" d="M70.169 39.2475C70.5663 39.4901 80.4991 40.0277 81.2018 39.4769C81.8416 38.973 81.8563 34.8188 81.4412 34.5232C80.6621 33.9687 70.8131 33.7513 70.2509 34.2269C69.8625 34.555 69.8272 39.0388 70.169 39.2475Z" fill="black"/>
<path d="M68.1052 39.2277C68.5025 39.4704 78.4353 40.0079 79.1379 39.4572C79.7777 38.9533 79.7925 34.7991 79.3773 34.5035C78.5982 33.9489 68.7492 33.7316 68.187 34.2071C67.7982 34.5352 67.7633 39.0187 68.1052 39.2277Z" fill="#FFC727"/>
<path d="M68.3648 39.0432C68.7318 39.2678 78.0787 39.7664 78.7283 39.2568C79.3196 38.7911 79.3335 34.951 78.9494 34.6781C78.2293 34.1655 68.9604 33.9629 68.4404 34.4029C68.0815 34.7057 68.0489 38.8501 68.3648 39.0432Z" fill="#263238"/>
<g opacity="0.2">
<path d="M71.2751 37.8491C71.2592 37.8646 71.2398 37.876 71.22 37.8835L68.9509 39.1423C68.6239 39.1079 68.4151 39.0731 68.3639 39.0425C68.3049 39.0039 68.2576 38.8236 68.218 38.5515L70.3846 37.354L71.2751 37.8491Z" fill="white"/>
<path d="M79.1925 37.12L74.9617 39.4685C74.4022 39.4572 73.8272 39.4417 73.2522 39.4186L79.2041 36.1221C79.2123 36.4369 79.2123 36.7824 79.1925 37.12Z" fill="white"/>
<path d="M79.1217 35.1476V35.1514L75.348 37.239L74.8203 36.9166C74.8479 36.8705 78.4326 34.8633 78.8501 34.6293C78.8935 34.6448 78.925 34.6637 78.9486 34.6792C79.0192 34.7291 79.0786 34.9019 79.1217 35.1476Z" fill="white"/>
<path d="M71.5191 34.1652L68.1707 36.019C68.1823 35.7695 68.2021 35.5279 68.2257 35.3166L70.2624 34.1845C70.6445 34.1728 71.0702 34.1652 71.5191 34.1652Z" fill="white"/>
<path d="M73.3155 34.1765L68.9943 36.5711L68.6909 36.4022L72.7323 34.1648C72.9255 34.1689 73.1184 34.1727 73.3155 34.1765Z" fill="white"/>
<path d="M77.7943 38.7204L76.4274 39.4764C76.2303 39.4802 76.0297 39.4802 75.8167 39.4802L77.5064 38.5439L77.7943 38.7204Z" fill="white"/>
</g>
<path d="M71.1082 35.4711C72.7684 35.4538 74.4384 35.4969 76.0916 35.645C76.3403 35.6673 76.3388 35.2893 76.0916 35.267C74.438 35.1189 72.7684 35.0758 71.1082 35.0931C70.8587 35.0954 70.8583 35.4734 71.1082 35.4711Z" fill="#FFC727"/>
<path opacity="0.5" d="M71.1082 35.3766C72.7685 35.3593 74.4384 35.4023 76.0917 35.5505C76.2158 35.5619 76.2151 35.3725 76.0917 35.3615C74.438 35.2133 72.7685 35.1703 71.1082 35.1876C70.9837 35.1888 70.9833 35.3778 71.1082 35.3766Z" fill="white"/>
<path d="M68.7489 34.3224C68.3834 34.6297 68.3458 38.7359 68.6531 39.1071C68.4959 39.0826 68.3974 39.0625 68.3663 39.0429C68.0493 38.8478 68.0831 34.7072 68.4408 34.4037C68.4885 34.3659 68.6069 34.3284 68.7885 34.2997C68.773 34.3073 68.757 34.3148 68.7489 34.3224Z" fill="#FFC727"/>
<path opacity="0.2" d="M68.7489 34.3224C68.3834 34.6297 68.3458 38.7359 68.6531 39.1071C68.4959 39.0826 68.3974 39.0625 68.3663 39.0429C68.0493 38.8478 68.0831 34.7072 68.4408 34.4037C68.4885 34.3659 68.6069 34.3284 68.7885 34.2997C68.773 34.3073 68.757 34.3148 68.7489 34.3224Z" fill="black"/>
<path d="M83.2131 37.2281C83.123 38.4418 82.3824 39.3785 81.559 39.3207C80.7357 39.2625 80.1417 38.2317 80.2317 37.0179C80.3217 35.8042 81.0624 34.8675 81.8857 34.9253C82.7091 34.9835 83.3035 36.0143 83.2131 37.2281Z" fill="#FFC727"/>
<g opacity="0.1">
<path d="M83.2131 37.2281C83.123 38.4418 82.3824 39.3785 81.559 39.3207C80.7357 39.2625 80.1417 38.2317 80.2317 37.0179C80.3217 35.8042 81.0624 34.8675 81.8857 34.9253C82.7091 34.9835 83.3035 36.0143 83.2131 37.2281Z" fill="black"/>
</g>
<path d="M83.0311 37.1812C82.9907 37.9055 82.5596 38.4717 82.0684 38.4456C81.5772 38.4195 81.2117 37.8113 81.2521 37.0871C81.2924 36.3628 81.7235 35.797 82.2147 35.8227C82.7063 35.8488 83.0718 36.457 83.0311 37.1812Z" fill="#FFC727"/>
<g opacity="0.2">
<path d="M83.0311 37.1812C82.9907 37.9055 82.5596 38.4717 82.0684 38.4456C81.5772 38.4195 81.2117 37.8113 81.2521 37.0871C81.2924 36.3628 81.7235 35.797 82.2147 35.8227C82.7063 35.8488 83.0718 36.457 83.0311 37.1812Z" fill="black"/>
</g>
<path d="M81.6582 38.2687C81.7184 38.2948 81.7816 38.3103 81.8472 38.3137C82.2763 38.3364 82.6531 37.842 82.6884 37.2092C82.7237 36.576 82.4044 36.0446 81.9752 36.0219C81.8348 36.0143 81.7001 36.062 81.581 36.1523L81.5806 36.1527C81.3975 36.3825 81.2726 36.7136 81.252 37.0871C81.2244 37.5879 81.3905 38.0332 81.6582 38.2687Z" fill="#FFC727"/>
<path opacity="0.1" d="M81.7058 35.0618C81.7558 35.0036 81.8683 34.9994 81.9234 35.0678C81.9832 35.1328 81.9591 35.2394 81.892 35.2776C81.8264 35.3196 81.743 35.2988 81.7019 35.2493C81.6592 35.2009 81.6522 35.1173 81.7058 35.0618ZM81.8691 35.2508C81.9079 35.2065 81.899 35.1464 81.8687 35.1124C81.8396 35.0776 81.7803 35.0587 81.729 35.0886C81.6767 35.1151 81.6549 35.1982 81.7019 35.2493C81.7453 35.3029 81.8334 35.2965 81.8691 35.2508Z" fill="black"/>
<path opacity="0.1" d="M80.9922 35.4549C81.0422 35.3967 81.1548 35.3925 81.2099 35.4609C81.2696 35.5256 81.2455 35.6325 81.1784 35.6707C81.1129 35.7127 81.0294 35.6919 80.9883 35.6424C80.9452 35.5944 80.9382 35.5108 80.9922 35.4549ZM81.1555 35.6443C81.1943 35.6 81.1854 35.5399 81.1551 35.5059C81.1257 35.4711 81.0667 35.4522 81.0155 35.4817C80.9631 35.5082 80.9414 35.5917 80.9883 35.6424C81.0314 35.6961 81.1194 35.6896 81.1555 35.6443Z" fill="black"/>
<path opacity="0.1" d="M80.5462 36.2283C80.5963 36.1701 80.7088 36.1659 80.7639 36.2343C80.8237 36.299 80.7996 36.4059 80.7325 36.4441C80.6669 36.4861 80.5835 36.4653 80.5424 36.4158C80.4993 36.3678 80.4927 36.2842 80.5462 36.2283ZM80.7096 36.4173C80.7484 36.3731 80.7395 36.313 80.7092 36.2789C80.6797 36.2442 80.6207 36.2253 80.5695 36.2547C80.5171 36.2812 80.4954 36.3651 80.5424 36.4158C80.5858 36.4698 80.6739 36.463 80.7096 36.4173Z" fill="black"/>
<path opacity="0.1" d="M80.4004 37.2077C80.4504 37.1495 80.563 37.1453 80.6181 37.2137C80.6778 37.2787 80.6537 37.3853 80.5866 37.4235C80.5211 37.4655 80.4376 37.4447 80.3965 37.3952C80.3534 37.3472 80.3465 37.2636 80.4004 37.2077ZM80.5633 37.3971C80.6021 37.3528 80.5932 37.2927 80.563 37.2587C80.5335 37.2239 80.4745 37.205 80.4233 37.2345C80.3709 37.261 80.3496 37.3445 80.3965 37.3952C80.44 37.4488 80.5276 37.4424 80.5633 37.3971Z" fill="black"/>
<path opacity="0.1" d="M81.0417 38.8051C81.0918 38.7469 81.2043 38.7427 81.2594 38.8112C81.3192 38.8758 81.2951 38.9828 81.228 39.0209C81.1624 39.0629 81.079 39.0421 81.0379 38.9926C80.9948 38.9446 80.9878 38.861 81.0417 38.8051ZM81.2047 38.9945C81.2435 38.9503 81.2346 38.8902 81.2043 38.8561C81.1752 38.8214 81.1158 38.8025 81.0646 38.8319C81.0123 38.8584 80.9909 38.9419 81.0379 38.9926C81.0813 39.0463 81.169 39.0398 81.2047 38.9945Z" fill="black"/>
<path opacity="0.1" d="M81.8162 38.9408C81.8662 38.8826 81.9783 38.8784 82.0338 38.9469C82.0936 39.0119 82.0695 39.1185 82.0024 39.1566C81.9368 39.1986 81.8534 39.1778 81.8123 39.1283C81.7692 39.0803 81.7622 38.9968 81.8162 38.9408ZM81.9795 39.1302C82.0183 39.086 82.0094 39.0259 81.9791 38.9918C81.9496 38.9571 81.8907 38.9382 81.8394 38.9676C81.7871 38.9941 81.7653 39.0773 81.8123 39.1283C81.8553 39.182 81.9434 39.1759 81.9795 39.1302Z" fill="black"/>
<path opacity="0.1" d="M82.5134 38.4865C82.5569 38.4422 82.6372 38.4645 82.6671 38.5435C82.7008 38.6203 82.6698 38.7182 82.617 38.739C82.5646 38.7639 82.5084 38.7242 82.4855 38.6668C82.4614 38.6104 82.4676 38.528 82.5134 38.4865ZM82.6042 38.7083C82.6376 38.6747 82.6391 38.6142 82.6225 38.5741C82.6062 38.5333 82.5666 38.5016 82.5262 38.5178C82.4855 38.5311 82.4591 38.6067 82.4859 38.6671C82.5095 38.7295 82.5728 38.7439 82.6042 38.7083Z" fill="black"/>
<path opacity="0.1" d="M82.8987 37.9436C82.9247 37.907 82.9751 37.9278 82.9957 37.9958C83.0186 38.062 83.0015 38.1444 82.9693 38.161C82.9375 38.1814 82.9014 38.1463 82.8859 38.0964C82.8692 38.048 82.8712 37.9777 82.8987 37.9436ZM82.9604 38.1342C82.9806 38.1062 82.9798 38.0552 82.9685 38.0204C82.9577 37.9856 82.9321 37.9573 82.9076 37.9705C82.8828 37.9807 82.868 38.0446 82.8859 38.0964C82.9018 38.15 82.9418 38.164 82.9604 38.1342Z" fill="black"/>
<path opacity="0.1" d="M82.8825 35.8858C82.9085 35.8491 82.9589 35.8699 82.9791 35.938C83.002 36.0041 82.9849 36.0865 82.9527 36.1032C82.9209 36.1236 82.8848 36.0884 82.8693 36.0385C82.8534 35.9901 82.855 35.9198 82.8825 35.8858ZM82.9442 36.0763C82.9644 36.0484 82.9636 35.9973 82.9523 35.9625C82.9415 35.9274 82.9159 35.8994 82.8914 35.9127C82.8666 35.9229 82.8518 35.9867 82.8697 36.0385C82.8856 36.0922 82.9256 36.1062 82.9442 36.0763Z" fill="black"/>
<path opacity="0.1" d="M82.4553 35.3041C82.4987 35.2595 82.5791 35.2821 82.6089 35.3611C82.6427 35.4379 82.6117 35.5358 82.5589 35.5566C82.5065 35.5815 82.4502 35.5418 82.4273 35.4844C82.4037 35.4281 82.4099 35.3457 82.4553 35.3041ZM82.5465 35.526C82.5798 35.4923 82.5814 35.4318 82.5647 35.3918C82.5484 35.3509 82.5088 35.3188 82.4685 35.3354C82.4277 35.3487 82.401 35.4243 82.4273 35.4844C82.451 35.5471 82.5146 35.5615 82.5465 35.526Z" fill="black"/>
<path opacity="0.1" d="M80.5444 38.0865C80.5945 38.0283 80.707 38.0242 80.7621 38.0926C80.8218 38.1572 80.7978 38.2642 80.7307 38.3024C80.6651 38.3443 80.5817 38.3235 80.5405 38.274C80.4975 38.226 80.4905 38.1425 80.5444 38.0865ZM80.7074 38.2759C80.7462 38.2317 80.7373 38.1716 80.707 38.1376C80.6775 38.1028 80.6185 38.0839 80.5673 38.1134C80.5149 38.1398 80.4936 38.223 80.5405 38.274C80.584 38.3277 80.6717 38.3216 80.7074 38.2759Z" fill="black"/>
<path d="M81.033 38.5144C81.033 38.5144 82.8934 35.8575 84.1284 36.5008C85.3638 37.1442 83.9864 40.9805 82.5516 41.5191C81.1168 42.0582 80.5786 40.7737 80.5786 40.7737L81.033 38.5144Z" fill="#AD6359"/>
<path d="M83.706 37.591C83.7289 37.5887 83.7339 37.6201 83.7137 37.6284C82.708 38.0385 82.1869 38.9574 81.8253 39.9081C82.1218 39.5403 82.5284 39.3362 83.0336 39.679C83.0599 39.6972 83.0355 39.7376 83.0068 39.732C82.5916 39.6503 82.294 39.7236 82.0182 40.0495C81.823 40.2804 81.6911 40.5711 81.5522 40.8365C81.506 40.9249 81.3419 40.8799 81.3756 40.7779C81.3783 40.7703 81.3811 40.7628 81.3838 40.7548C81.3434 39.5006 82.3239 37.7327 83.706 37.591Z" fill="#263238"/>
<path d="M58.7476 164.989L53.813 164.996L53.8346 179.106L58.7692 179.099L58.7476 164.989Z" fill="#455A64"/>
<path d="M53.8159 166.175L51.4441 166.178L51.4626 177.931L53.8344 177.927L53.8159 166.175Z" fill="#455A64"/>
<path d="M53.816 166.173L52.6299 166.175L52.6479 177.928L53.834 177.926L53.816 166.173Z" fill="#263238"/>
<path d="M78.5172 179.07L83.4514 179.062L83.4297 164.952L78.4955 164.96L78.5172 179.07Z" fill="#455A64"/>
<path d="M83.4497 177.884L85.8215 177.88L85.8034 166.128L83.4316 166.131L83.4497 177.884Z" fill="#455A64"/>
<path d="M84.6329 166.124L83.4468 166.126L83.4648 177.879L84.6509 177.877L84.6329 166.124Z" fill="#263238"/>
<path d="M78.506 169.928L58.7437 169.963L58.7514 174.133L78.5138 174.098L78.506 169.928Z" fill="#37474F"/>
<path d="M97.1958 164.988L92.2612 164.995L92.2828 179.105L97.2174 179.098L97.1958 164.988Z" fill="#455A64"/>
<path d="M92.2642 166.173L89.8923 166.177L89.9108 177.929L92.2826 177.926L92.2642 166.173Z" fill="#455A64"/>
<path d="M92.2642 166.172L91.0781 166.173L91.0961 177.927L92.2822 177.925L92.2642 166.172Z" fill="#263238"/>
<path d="M116.965 179.071L121.899 179.064L121.877 164.954L116.943 164.961L116.965 179.071Z" fill="#455A64"/>
<path d="M121.898 177.885L124.27 177.882L124.252 166.129L121.88 166.133L121.898 177.885Z" fill="#455A64"/>
<path d="M123.081 166.122L121.895 166.124L121.913 177.877L123.099 177.875L123.081 166.122Z" fill="#263238"/>
<path d="M116.954 169.929L97.1919 169.964L97.1996 174.134L116.962 174.099L116.954 169.929Z" fill="#37474F"/>
</svg>
